<?xml version="1.0" encoding="UTF-8" standalone="no"?><svg xmlns="http://www.w3.org/2000/svg" xmlns:xlink="http://www.w3.org/1999/xlink" contentScriptType="application/ecmascript" contentStyleType="text/css" height="2512.5px" preserveAspectRatio="none" style="width:2620px;height:2512px;" version="1.1" viewBox="0 0 2620 2512" width="2620px" zoomAndPan="magnify"><defs/><g><text fill="#000000" font-family="sans-serif" font-size="45" lengthAdjust="spacing" textLength="1115" x="736.25" y="46.7139">Keyple 2.0 - keyple-remote-plugin-api - 2.0 (26/01/2021)</text><!--MD5=[7442f3b126ee602ae02566c1a49e158a]
cluster api--><polygon fill="#F8F9F9" points="40,71.6016,632.5,71.6016,650,130.625,2577.5,130.625,2577.5,2496.6016,40,2496.6016,40,71.6016" style="stroke:#000000;stroke-width:3.75;"/><line style="stroke:#000000;stroke-width:3.75;" x1="40" x2="650" y1="130.625" y2="130.625"/><text fill="#000000" font-family="sans-serif" font-size="35" font-weight="bold" lengthAdjust="spacing" textLength="577.5" x="50" y="112.9346">org.eclipse.keyple.plugin.remote</text><!--MD5=[f7e0e2453c87923036c1ac2adfb9cbf0]
cluster spi--><polygon fill="#F2F3F4" points="890,181.6016,957.5,181.6016,975,240.625,2517.5,240.625,2517.5,2436.6016,890,2436.6016,890,181.6016" style="stroke:#000000;stroke-width:3.75;"/><line style="stroke:#000000;stroke-width:3.75;" x1="890" x2="975" y1="240.625" y2="240.625"/><text fill="#000000" font-family="sans-serif" font-size="35" font-weight="bold" lengthAdjust="spacing" textLength="52.5" x="900" y="222.9346">spi</text><!--MD5=[62f7d7f2588c82e83841c1b3d8071c16]
class ObservableRemotePluginManager--><rect codeLine="48" fill="#FEFECE" height="258.3594" id="ObservableRemotePluginManager" style="stroke:#D4AC0D;stroke-width:3.75;" width="770" x="80" y="1146.6016"/><ellipse cx="200.625" cy="1186.6016" fill="#B4A7E5" rx="27.5" ry="27.5" style="stroke:#B4A7E5;stroke-width:2.5;"/><path d="M203.125,1179.1016 L203.125,1194.1016 L208.125,1194.1016 L209.3359,1194.1016 L210.625,1195.6641 L210.625,1196.6016 L210.625,1197.5391 L209.3359,1199.1016 L208.125,1199.1016 L193.125,1199.1016 L191.9141,1199.1016 L190.625,1197.5391 L190.625,1196.6016 L190.625,1195.6641 L191.9141,1194.1016 L193.125,1194.1016 L198.125,1194.1016 L198.125,1179.1016 L193.125,1179.1016 L191.9141,1179.1016 L190.625,1177.5391 L190.625,1176.6016 L190.625,1175.6641 L191.9141,1174.1016 L193.125,1174.1016 L208.125,1174.1016 L209.3359,1174.1016 L210.625,1175.6641 L210.625,1176.6016 L210.625,1177.5391 L209.3359,1179.1016 L208.125,1179.1016 L203.125,1179.1016 Z " fill="#000000"/><ellipse cx="264.375" cy="1185.3516" fill="#84BE84" rx="7.5" ry="7.5" style="stroke:#038048;stroke-width:2.5;"/><text fill="#000000" font-family="sans-serif" font-size="30" font-style="italic" lengthAdjust="spacing" textLength="480" x="279.375" y="1198.877">ObservableRemotePluginManager</text><line style="stroke:#D4AC0D;stroke-width:3.75;" x1="82.5" x2="847.5" y1="1226.6016" y2="1226.6016"/><line style="stroke:#D4AC0D;stroke-width:2.5;" x1="82.5" x2="847.5" y1="1246.6016" y2="1246.6016"/><ellipse cx="107.5" cy="1274.1016" fill="#84BE84" rx="7.5" ry="7.5" style="stroke:#038048;stroke-width:2.5;"/><text fill="#000000" font-family="sans-serif" font-size="27.5" lengthAdjust="spacing" textLength="705" x="130" y="1285.1489">RemoteReaderManager createReader (String readerName,</text><text fill="#000000" font-family="sans-serif" font-size="27.5" lengthAdjust="spacing" textLength="440" x="190" y="1319.7388">RemoteReaderSpi remoteReaderSpi)</text><ellipse cx="107.5" cy="1343.2813" fill="#84BE84" rx="7.5" ry="7.5" style="stroke:#038048;stroke-width:2.5;"/><text fill="#000000" font-family="sans-serif" font-size="27.5" lengthAdjust="spacing" textLength="667.5" x="130" y="1354.3286">RemoteReaderManager getReader (String readerName)</text><ellipse cx="107.5" cy="1377.8711" fill="#84BE84" rx="7.5" ry="7.5" style="stroke:#038048;stroke-width:2.5;"/><text fill="#000000" font-family="sans-serif" font-size="27.5" lengthAdjust="spacing" textLength="435" x="130" y="1388.9185">void onPluginEvent (String jsonData)</text><!--MD5=[2e735b2f3bdf5a50866c01fd489449af]
class RemoteReaderManager--><rect codeLine="55" fill="#FEFECE" height="120" id="RemoteReaderManager" style="stroke:#D4AC0D;stroke-width:3.75;" width="440" x="297.5" y="1732.8516"/><ellipse cx="335" cy="1772.8516" fill="#B4A7E5" rx="27.5" ry="27.5" style="stroke:#B4A7E5;stroke-width:2.5;"/><path d="M337.5,1765.3516 L337.5,1780.3516 L342.5,1780.3516 L343.7109,1780.3516 L345,1781.9141 L345,1782.8516 L345,1783.7891 L343.7109,1785.3516 L342.5,1785.3516 L327.5,1785.3516 L326.2891,1785.3516 L325,1783.7891 L325,1782.8516 L325,1781.9141 L326.2891,1780.3516 L327.5,1780.3516 L332.5,1780.3516 L332.5,1765.3516 L327.5,1765.3516 L326.2891,1765.3516 L325,1763.7891 L325,1762.8516 L325,1761.9141 L326.2891,1760.3516 L327.5,1760.3516 L342.5,1760.3516 L343.7109,1760.3516 L345,1761.9141 L345,1762.8516 L345,1763.7891 L343.7109,1765.3516 L342.5,1765.3516 L337.5,1765.3516 Z " fill="#000000"/><ellipse cx="382.5" cy="1771.6016" fill="#84BE84" rx="7.5" ry="7.5" style="stroke:#038048;stroke-width:2.5;"/><text fill="#000000" font-family="sans-serif" font-size="30" font-style="italic" lengthAdjust="spacing" textLength="332.5" x="397.5" y="1785.127">RemoteReaderManager</text><line style="stroke:#D4AC0D;stroke-width:3.75;" x1="300" x2="735" y1="1812.8516" y2="1812.8516"/><line style="stroke:#D4AC0D;stroke-width:3.75;" x1="300" x2="735" y1="1832.8516" y2="1832.8516"/><!--MD5=[da3e81f40f19c1bf19e4232bca284947]
class ObservableRemoteReaderManager--><rect codeLine="57" fill="#FEFECE" height="154.5898" id="ObservableRemoteReaderManager" style="stroke:#D4AC0D;stroke-width:3.75;" width="602.5" x="216.25" y="2190.3516"/><ellipse cx="253.75" cy="2230.3516" fill="#B4A7E5" rx="27.5" ry="27.5" style="stroke:#B4A7E5;stroke-width:2.5;"/><path d="M256.25,2222.8516 L256.25,2237.8516 L261.25,2237.8516 L262.4609,2237.8516 L263.75,2239.4141 L263.75,2240.3516 L263.75,2241.2891 L262.4609,2242.8516 L261.25,2242.8516 L246.25,2242.8516 L245.0391,2242.8516 L243.75,2241.2891 L243.75,2240.3516 L243.75,2239.4141 L245.0391,2237.8516 L246.25,2237.8516 L251.25,2237.8516 L251.25,2222.8516 L246.25,2222.8516 L245.0391,2222.8516 L243.75,2221.2891 L243.75,2220.3516 L243.75,2219.4141 L245.0391,2217.8516 L246.25,2217.8516 L261.25,2217.8516 L262.4609,2217.8516 L263.75,2219.4141 L263.75,2220.3516 L263.75,2221.2891 L262.4609,2222.8516 L261.25,2222.8516 L256.25,2222.8516 Z " fill="#000000"/><ellipse cx="301.25" cy="2229.1016" fill="#84BE84" rx="7.5" ry="7.5" style="stroke:#038048;stroke-width:2.5;"/><text fill="#000000" font-family="sans-serif" font-size="30" font-style="italic" lengthAdjust="spacing" textLength="495" x="316.25" y="2242.627">ObservableRemoteReaderManager</text><line style="stroke:#D4AC0D;stroke-width:3.75;" x1="218.75" x2="816.25" y1="2270.3516" y2="2270.3516"/><line style="stroke:#D4AC0D;stroke-width:2.5;" x1="218.75" x2="816.25" y1="2290.3516" y2="2290.3516"/><ellipse cx="243.75" cy="2317.8516" fill="#84BE84" rx="7.5" ry="7.5" style="stroke:#038048;stroke-width:2.5;"/><text fill="#000000" font-family="sans-serif" font-size="27.5" lengthAdjust="spacing" textLength="452.5" x="266.25" y="2328.8989">void onReaderEvent (String jsonData)</text><!--MD5=[3937379067c1c7d1f35002e0ca836dbd]
class RemoteReaderSpi--><rect codeLine="62" fill="#FEFECE" height="387.5391" id="RemoteReaderSpi" style="stroke:#D4AC0D;stroke-width:3.75;" width="735" x="960" y="1599.1016"/><ellipse cx="1174.375" cy="1639.1016" fill="#B4A7E5" rx="27.5" ry="27.5" style="stroke:#B4A7E5;stroke-width:2.5;"/><path d="M1176.875,1631.6016 L1176.875,1646.6016 L1181.875,1646.6016 L1183.0859,1646.6016 L1184.375,1648.1641 L1184.375,1649.1016 L1184.375,1650.0391 L1183.0859,1651.6016 L1181.875,1651.6016 L1166.875,1651.6016 L1165.6641,1651.6016 L1164.375,1650.0391 L1164.375,1649.1016 L1164.375,1648.1641 L1165.6641,1646.6016 L1166.875,1646.6016 L1171.875,1646.6016 L1171.875,1631.6016 L1166.875,1631.6016 L1165.6641,1631.6016 L1164.375,1630.0391 L1164.375,1629.1016 L1164.375,1628.1641 L1165.6641,1626.6016 L1166.875,1626.6016 L1181.875,1626.6016 L1183.0859,1626.6016 L1184.375,1628.1641 L1184.375,1629.1016 L1184.375,1630.0391 L1183.0859,1631.6016 L1181.875,1631.6016 L1176.875,1631.6016 Z " fill="#000000"/><ellipse cx="1238.125" cy="1637.8516" fill="#84BE84" rx="7.5" ry="7.5" style="stroke:#038048;stroke-width:2.5;"/><text fill="#000000" font-family="sans-serif" font-size="30" font-style="italic" lengthAdjust="spacing" textLength="257.5" x="1253.125" y="1651.377">RemoteReaderSpi</text><line style="stroke:#D4AC0D;stroke-width:3.75;" x1="962.5" x2="1692.5" y1="1679.1016" y2="1679.1016"/><line style="stroke:#D4AC0D;stroke-width:2.5;" x1="962.5" x2="1692.5" y1="1699.1016" y2="1699.1016"/><ellipse cx="987.5" cy="1726.6016" fill="#84BE84" rx="7.5" ry="7.5" style="stroke:#038048;stroke-width:2.5;"/><text fill="#000000" font-family="sans-serif" font-size="27.5" lengthAdjust="spacing" textLength="607.5" x="1010" y="1737.6489">void setManager (RemoteReaderManger manager)</text><line style="stroke:#D4AC0D;stroke-width:2.5;stroke-dasharray:1.0,2.0;" x1="962.5" x2="1692.5" y1="1753.6914" y2="1753.6914"/><ellipse cx="987.5" cy="1781.1914" fill="#84BE84" rx="7.5" ry="7.5" style="stroke:#038048;stroke-width:2.5;"/><text fill="#000000" font-family="sans-serif" font-size="27.5" lengthAdjust="spacing" textLength="292.5" x="1010" y="1792.2388">boolean isContactless ()</text><ellipse cx="987.5" cy="1815.7813" fill="#84BE84" rx="7.5" ry="7.5" style="stroke:#038048;stroke-width:2.5;"/><text fill="#000000" font-family="sans-serif" font-size="27.5" lengthAdjust="spacing" textLength="300" x="1010" y="1826.8286">boolean isCardPresent ()</text><line style="stroke:#D4AC0D;stroke-width:2.5;stroke-dasharray:1.0,2.0;" x1="962.5" x2="1692.5" y1="1842.8711" y2="1842.8711"/><ellipse cx="987.5" cy="1870.3711" fill="#84BE84" rx="7.5" ry="7.5" style="stroke:#038048;stroke-width:2.5;"/><text fill="#000000" font-family="sans-serif" font-size="27.5" lengthAdjust="spacing" textLength="272.5" x="1010" y="1881.4185">void releaseChannel ()</text><line style="stroke:#D4AC0D;stroke-width:2.5;stroke-dasharray:1.0,2.0;" x1="962.5" x2="1692.5" y1="1897.4609" y2="1897.4609"/><ellipse cx="987.5" cy="1924.9609" fill="#84BE84" rx="7.5" ry="7.5" style="stroke:#038048;stroke-width:2.5;"/><text fill="#000000" font-family="sans-serif" font-size="27.5" lengthAdjust="spacing" textLength="670" x="1010" y="1936.0083">String processCardSelectionRequests (String jsonData)</text><ellipse cx="987.5" cy="1959.5508" fill="#84BE84" rx="7.5" ry="7.5" style="stroke:#038048;stroke-width:2.5;"/><text fill="#000000" font-family="sans-serif" font-size="27.5" lengthAdjust="spacing" textLength="545" x="1010" y="1970.5981">String processCardRequest (String jsonData)</text><!--MD5=[bde6ad16048b75cbc3ab150f56eec96c]
class ObservableRemoteReaderSpi--><rect codeLine="74" fill="#FEFECE" height="258.3594" id="ObservableRemoteReaderSpi" style="stroke:#D4AC0D;stroke-width:3.75;" width="665" x="995" y="2139.1016"/><ellipse cx="1094.375" cy="2179.1016" fill="#B4A7E5" rx="27.5" ry="27.5" style="stroke:#B4A7E5;stroke-width:2.5;"/><path d="M1096.875,2171.6016 L1096.875,2186.6016 L1101.875,2186.6016 L1103.0859,2186.6016 L1104.375,2188.1641 L1104.375,2189.1016 L1104.375,2190.0391 L1103.0859,2191.6016 L1101.875,2191.6016 L1086.875,2191.6016 L1085.6641,2191.6016 L1084.375,2190.0391 L1084.375,2189.1016 L1084.375,2188.1641 L1085.6641,2186.6016 L1086.875,2186.6016 L1091.875,2186.6016 L1091.875,2171.6016 L1086.875,2171.6016 L1085.6641,2171.6016 L1084.375,2170.0391 L1084.375,2169.1016 L1084.375,2168.1641 L1085.6641,2166.6016 L1086.875,2166.6016 L1101.875,2166.6016 L1103.0859,2166.6016 L1104.375,2168.1641 L1104.375,2169.1016 L1104.375,2170.0391 L1103.0859,2171.6016 L1101.875,2171.6016 L1096.875,2171.6016 Z " fill="#000000"/><ellipse cx="1155.625" cy="2177.8516" fill="#84BE84" rx="7.5" ry="7.5" style="stroke:#038048;stroke-width:2.5;"/><text fill="#000000" font-family="sans-serif" font-size="30" font-style="italic" lengthAdjust="spacing" textLength="420" x="1170.625" y="2191.377">ObservableRemoteReaderSpi</text><line style="stroke:#D4AC0D;stroke-width:3.75;" x1="997.5" x2="1657.5" y1="2219.1016" y2="2219.1016"/><line style="stroke:#D4AC0D;stroke-width:2.5;" x1="997.5" x2="1657.5" y1="2239.1016" y2="2239.1016"/><ellipse cx="1022.5" cy="2266.6016" fill="#84BE84" rx="7.5" ry="7.5" style="stroke:#038048;stroke-width:2.5;"/><text fill="#000000" font-family="sans-serif" font-size="27.5" lengthAdjust="spacing" textLength="492.5" x="1045" y="2277.6489">void startCardDetection (String jsonData)</text><ellipse cx="1022.5" cy="2301.1914" fill="#84BE84" rx="7.5" ry="7.5" style="stroke:#038048;stroke-width:2.5;"/><text fill="#000000" font-family="sans-serif" font-size="27.5" lengthAdjust="spacing" textLength="307.5" x="1045" y="2312.2388">void stopCardDetection ()</text><ellipse cx="1022.5" cy="2335.7813" fill="#84BE84" rx="7.5" ry="7.5" style="stroke:#038048;stroke-width:2.5;"/><text fill="#000000" font-family="sans-serif" font-size="27.5" lengthAdjust="spacing" textLength="600" x="1045" y="2346.8286">void setDefaultSelectionRequest (String jsonData)</text><ellipse cx="1022.5" cy="2370.3711" fill="#84BE84" rx="7.5" ry="7.5" style="stroke:#038048;stroke-width:2.5;"/><text fill="#000000" font-family="sans-serif" font-size="27.5" lengthAdjust="spacing" textLength="362.5" x="1045" y="2381.4185">void finalizeCardProcessing ()</text><!--MD5=[733b899168be945616a1d8aa95c72981]
class RemotePluginSpi--><rect codeLine="81" fill="#FEFECE" height="154.5898" id="RemotePluginSpi" style="stroke:#D4AC0D;stroke-width:3.75;" width="690" x="1787.5" y="751.6016"/><ellipse cx="1986.875" cy="791.6016" fill="#B4A7E5" rx="27.5" ry="27.5" style="stroke:#B4A7E5;stroke-width:2.5;"/><path d="M1989.375,784.1016 L1989.375,799.1016 L1994.375,799.1016 L1995.5859,799.1016 L1996.875,800.6641 L1996.875,801.6016 L1996.875,802.5391 L1995.5859,804.1016 L1994.375,804.1016 L1979.375,804.1016 L1978.1641,804.1016 L1976.875,802.5391 L1976.875,801.6016 L1976.875,800.6641 L1978.1641,799.1016 L1979.375,799.1016 L1984.375,799.1016 L1984.375,784.1016 L1979.375,784.1016 L1978.1641,784.1016 L1976.875,782.5391 L1976.875,781.6016 L1976.875,780.6641 L1978.1641,779.1016 L1979.375,779.1016 L1994.375,779.1016 L1995.5859,779.1016 L1996.875,780.6641 L1996.875,781.6016 L1996.875,782.5391 L1995.5859,784.1016 L1994.375,784.1016 L1989.375,784.1016 Z " fill="#000000"/><ellipse cx="2050.625" cy="790.3516" fill="#84BE84" rx="7.5" ry="7.5" style="stroke:#038048;stroke-width:2.5;"/><text fill="#000000" font-family="sans-serif" font-size="30" font-style="italic" lengthAdjust="spacing" textLength="242.5" x="2065.625" y="803.877">RemotePluginSpi</text><line style="stroke:#D4AC0D;stroke-width:3.75;" x1="1790" x2="2475" y1="831.6016" y2="831.6016"/><line style="stroke:#D4AC0D;stroke-width:3.75;" x1="1790" x2="2475" y1="851.6016" y2="851.6016"/><ellipse cx="1815" cy="879.1016" fill="#84BE84" rx="7.5" ry="7.5" style="stroke:#038048;stroke-width:2.5;"/><text fill="#000000" font-family="sans-serif" font-size="27.5" lengthAdjust="spacing" textLength="625" x="1837.5" y="890.1489">Map&lt;String, RemoteReaderSpi&gt; initNativeReaders ()</text><!--MD5=[309cd6c2721908ddd074502139737511]
class ObservableRemotePluginSpi--><rect codeLine="84" fill="#FEFECE" height="154.5898" id="ObservableRemotePluginSpi" style="stroke:#D4AC0D;stroke-width:3.75;" width="810" x="1250" y="1197.8516"/><ellipse cx="1428.125" cy="1237.8516" fill="#B4A7E5" rx="27.5" ry="27.5" style="stroke:#B4A7E5;stroke-width:2.5;"/><path d="M1430.625,1230.3516 L1430.625,1245.3516 L1435.625,1245.3516 L1436.8359,1245.3516 L1438.125,1246.9141 L1438.125,1247.8516 L1438.125,1248.7891 L1436.8359,1250.3516 L1435.625,1250.3516 L1420.625,1250.3516 L1419.4141,1250.3516 L1418.125,1248.7891 L1418.125,1247.8516 L1418.125,1246.9141 L1419.4141,1245.3516 L1420.625,1245.3516 L1425.625,1245.3516 L1425.625,1230.3516 L1420.625,1230.3516 L1419.4141,1230.3516 L1418.125,1228.7891 L1418.125,1227.8516 L1418.125,1226.9141 L1419.4141,1225.3516 L1420.625,1225.3516 L1435.625,1225.3516 L1436.8359,1225.3516 L1438.125,1226.9141 L1438.125,1227.8516 L1438.125,1228.7891 L1436.8359,1230.3516 L1435.625,1230.3516 L1430.625,1230.3516 Z " fill="#000000"/><ellipse cx="1491.875" cy="1236.6016" fill="#84BE84" rx="7.5" ry="7.5" style="stroke:#038048;stroke-width:2.5;"/><text fill="#000000" font-family="sans-serif" font-size="30" font-style="italic" lengthAdjust="spacing" textLength="405" x="1506.875" y="1250.127">ObservableRemotePluginSpi</text><line style="stroke:#D4AC0D;stroke-width:3.75;" x1="1252.5" x2="2057.5" y1="1277.8516" y2="1277.8516"/><line style="stroke:#D4AC0D;stroke-width:2.5;" x1="1252.5" x2="2057.5" y1="1297.8516" y2="1297.8516"/><ellipse cx="1277.5" cy="1325.3516" fill="#84BE84" rx="7.5" ry="7.5" style="stroke:#038048;stroke-width:2.5;"/><text fill="#000000" font-family="sans-serif" font-size="27.5" lengthAdjust="spacing" textLength="745" x="1300" y="1336.3989">void setManager (ObservableRemotePluginManager manager)</text><!--MD5=[2e288a42428e5fcd2804e8dae00f46e4]
class PoolRemotePluginSpi--><rect codeLine="88" fill="#FEFECE" height="243.7695" id="PoolRemotePluginSpi" style="stroke:#D4AC0D;stroke-width:3.75;" width="770" x="930" y="706.6016"/><ellipse cx="1138.125" cy="746.6016" fill="#B4A7E5" rx="27.5" ry="27.5" style="stroke:#B4A7E5;stroke-width:2.5;"/><path d="M1140.625,739.1016 L1140.625,754.1016 L1145.625,754.1016 L1146.8359,754.1016 L1148.125,755.6641 L1148.125,756.6016 L1148.125,757.5391 L1146.8359,759.1016 L1145.625,759.1016 L1130.625,759.1016 L1129.4141,759.1016 L1128.125,757.5391 L1128.125,756.6016 L1128.125,755.6641 L1129.4141,754.1016 L1130.625,754.1016 L1135.625,754.1016 L1135.625,739.1016 L1130.625,739.1016 L1129.4141,739.1016 L1128.125,737.5391 L1128.125,736.6016 L1128.125,735.6641 L1129.4141,734.1016 L1130.625,734.1016 L1145.625,734.1016 L1146.8359,734.1016 L1148.125,735.6641 L1148.125,736.6016 L1148.125,737.5391 L1146.8359,739.1016 L1145.625,739.1016 L1140.625,739.1016 Z " fill="#000000"/><ellipse cx="1201.875" cy="745.3516" fill="#84BE84" rx="7.5" ry="7.5" style="stroke:#038048;stroke-width:2.5;"/><text fill="#000000" font-family="sans-serif" font-size="30" font-style="italic" lengthAdjust="spacing" textLength="305" x="1216.875" y="758.877">PoolRemotePluginSpi</text><line style="stroke:#D4AC0D;stroke-width:3.75;" x1="932.5" x2="1697.5" y1="786.6016" y2="786.6016"/><line style="stroke:#D4AC0D;stroke-width:2.5;" x1="932.5" x2="1697.5" y1="806.6016" y2="806.6016"/><ellipse cx="957.5" cy="834.1016" fill="#84BE84" rx="7.5" ry="7.5" style="stroke:#038048;stroke-width:2.5;"/><text fill="#000000" font-family="sans-serif" font-size="27.5" lengthAdjust="spacing" textLength="597.5" x="980" y="845.1489">SortedSet&lt;String&gt; getReaderGroupReferences ()</text><line style="stroke:#D4AC0D;stroke-width:2.5;stroke-dasharray:1.0,2.0;" x1="932.5" x2="1697.5" y1="861.1914" y2="861.1914"/><ellipse cx="957.5" cy="888.6914" fill="#84BE84" rx="7.5" ry="7.5" style="stroke:#038048;stroke-width:2.5;"/><text fill="#000000" font-family="sans-serif" font-size="27.5" lengthAdjust="spacing" textLength="705" x="980" y="899.7388">RemoteReaderSpi allocateReader (String groupReference)</text><ellipse cx="957.5" cy="923.2813" fill="#84BE84" rx="7.5" ry="7.5" style="stroke:#038048;stroke-width:2.5;"/><text fill="#000000" font-family="sans-serif" font-size="27.5" lengthAdjust="spacing" textLength="565" x="980" y="934.3286">void releaseReader (RemoteReaderSpi reader)</text><!--MD5=[c2370bc74128b93bd072b6f31e9991b0]
class RemotePluginFactorySpi--><rect codeLine="95" fill="#FEFECE" height="189.1797" id="RemotePluginFactorySpi" style="stroke:#D4AC0D;stroke-width:3.75;" width="450" x="1907.5" y="321.6016"/><ellipse cx="1945" cy="361.6016" fill="#B4A7E5" rx="27.5" ry="27.5" style="stroke:#B4A7E5;stroke-width:2.5;"/><path d="M1947.5,354.1016 L1947.5,369.1016 L1952.5,369.1016 L1953.7109,369.1016 L1955,370.6641 L1955,371.6016 L1955,372.5391 L1953.7109,374.1016 L1952.5,374.1016 L1937.5,374.1016 L1936.2891,374.1016 L1935,372.5391 L1935,371.6016 L1935,370.6641 L1936.2891,369.1016 L1937.5,369.1016 L1942.5,369.1016 L1942.5,354.1016 L1937.5,354.1016 L1936.2891,354.1016 L1935,352.5391 L1935,351.6016 L1935,350.6641 L1936.2891,349.1016 L1937.5,349.1016 L1952.5,349.1016 L1953.7109,349.1016 L1955,350.6641 L1955,351.6016 L1955,352.5391 L1953.7109,354.1016 L1952.5,354.1016 L1947.5,354.1016 Z " fill="#000000"/><ellipse cx="1992.5" cy="360.3516" fill="#84BE84" rx="7.5" ry="7.5" style="stroke:#038048;stroke-width:2.5;"/><text fill="#000000" font-family="sans-serif" font-size="30" font-style="italic" lengthAdjust="spacing" textLength="342.5" x="2007.5" y="373.877">RemotePluginFactorySpi</text><line style="stroke:#D4AC0D;stroke-width:3.75;" x1="1910" x2="2355" y1="401.6016" y2="401.6016"/><line style="stroke:#D4AC0D;stroke-width:3.75;" x1="1910" x2="2355" y1="421.6016" y2="421.6016"/><ellipse cx="1935" cy="449.1016" fill="#84BE84" rx="7.5" ry="7.5" style="stroke:#038048;stroke-width:2.5;"/><text fill="#000000" font-family="sans-serif" font-size="27.5" lengthAdjust="spacing" textLength="280" x="1957.5" y="460.1489">String getPluginName ()</text><ellipse cx="1935" cy="483.6914" fill="#84BE84" rx="7.5" ry="7.5" style="stroke:#038048;stroke-width:2.5;"/><text fill="#000000" font-family="sans-serif" font-size="27.5" lengthAdjust="spacing" textLength="340" x="1957.5" y="494.7388">RemotePluginSpi getPlugin ()</text><!--MD5=[1818ae6be3fff9040cd5f04412a73438]
class PoolRemotePluginFactorySpi--><rect codeLine="99" fill="#FEFECE" height="189.1797" id="PoolRemotePluginFactorySpi" style="stroke:#D4AC0D;stroke-width:3.75;" width="512.5" x="1058.75" y="321.6016"/><ellipse cx="1096.25" cy="361.6016" fill="#B4A7E5" rx="27.5" ry="27.5" style="stroke:#B4A7E5;stroke-width:2.5;"/><path d="M1098.75,354.1016 L1098.75,369.1016 L1103.75,369.1016 L1104.9609,369.1016 L1106.25,370.6641 L1106.25,371.6016 L1106.25,372.5391 L1104.9609,374.1016 L1103.75,374.1016 L1088.75,374.1016 L1087.5391,374.1016 L1086.25,372.5391 L1086.25,371.6016 L1086.25,370.6641 L1087.5391,369.1016 L1088.75,369.1016 L1093.75,369.1016 L1093.75,354.1016 L1088.75,354.1016 L1087.5391,354.1016 L1086.25,352.5391 L1086.25,351.6016 L1086.25,350.6641 L1087.5391,349.1016 L1088.75,349.1016 L1103.75,349.1016 L1104.9609,349.1016 L1106.25,350.6641 L1106.25,351.6016 L1106.25,352.5391 L1104.9609,354.1016 L1103.75,354.1016 L1098.75,354.1016 Z " fill="#000000"/><ellipse cx="1143.75" cy="360.3516" fill="#84BE84" rx="7.5" ry="7.5" style="stroke:#038048;stroke-width:2.5;"/><text fill="#000000" font-family="sans-serif" font-size="30" font-style="italic" lengthAdjust="spacing" textLength="405" x="1158.75" y="373.877">PoolRemotePluginFactorySpi</text><line style="stroke:#D4AC0D;stroke-width:3.75;" x1="1061.25" x2="1568.75" y1="401.6016" y2="401.6016"/><line style="stroke:#D4AC0D;stroke-width:3.75;" x1="1061.25" x2="1568.75" y1="421.6016" y2="421.6016"/><ellipse cx="1086.25" cy="449.1016" fill="#84BE84" rx="7.5" ry="7.5" style="stroke:#038048;stroke-width:2.5;"/><text fill="#000000" font-family="sans-serif" font-size="27.5" lengthAdjust="spacing" textLength="280" x="1108.75" y="460.1489">String getPluginName ()</text><ellipse cx="1086.25" cy="483.6914" fill="#84BE84" rx="7.5" ry="7.5" style="stroke:#038048;stroke-width:2.5;"/><text fill="#000000" font-family="sans-serif" font-size="27.5" lengthAdjust="spacing" textLength="390" x="1108.75" y="494.7388">PoolRemotePluginSpi getPlugin ()</text><!--MD5=[dbbab6fb389b0dd25850ebdfe5bbfbdc]
reverse link RemoteReaderManager to ObservableRemoteReaderManager--><path d="M517.5,1903.7891 C517.5,1991.5216 517.5,2112.7991 517.5,2190.1641 " fill="none" id="RemoteReaderManager-backto-ObservableRemoteReaderManager" style="stroke:#A80036;stroke-width:2.5;"/><polygon fill="none" points="500,1902.9841,517.5,1852.9816,535,1902.9816,500,1902.9841" style="stroke:#A80036;stroke-width:2.5;"/><!--MD5=[66802393e068e625b1512b2c90a160c9]
reverse link RemoteReaderSpi to ObservableRemoteReaderSpi--><path d="M1327.5,2037.9716 C1327.5,2072.7591 1327.5,2107.3266 1327.5,2138.6166 " fill="none" id="RemoteReaderSpi-backto-ObservableRemoteReaderSpi" style="stroke:#A80036;stroke-width:2.5;"/><polygon fill="none" points="1310,2037.1966,1327.5,1987.1966,1345,2037.1966,1310,2037.1966" style="stroke:#A80036;stroke-width:2.5;"/><!--MD5=[b1733e4fb8d21da98cd85d581166204b]
reverse link RemotePluginSpi to ObservableRemotePluginSpi--><path d="M2013.025,942.0066 C1926.8575,1021.6341 1812.7975,1127.0341 1736.8125,1197.2516 " fill="none" id="RemotePluginSpi-backto-ObservableRemotePluginSpi" style="stroke:#A80036;stroke-width:2.5;"/><polygon fill="none" points="2001.815,928.5366,2050.415,907.4541,2025.57,954.2416,2001.815,928.5366" style="stroke:#A80036;stroke-width:2.5;"/><!--MD5=[ad47971ecfbe68f769e12820d292ee91]
link ObservableRemotePluginManager to RemoteReaderManager--><path codeLine="108" d="M477.9775,1404.5366 C488.18,1504.1416 502.015,1639.1841 510.32,1720.2491 " fill="none" id="ObservableRemotePluginManager-to-RemoteReaderManager" style="stroke:#27AE60;stroke-width:2.5;stroke-dasharray:7.0,7.0;"/><polygon fill="#27AE60" points="511.6025,1732.7816,519.2548,1709.3787,510.3272,1720.3468,499.3592,1711.4192,511.6025,1732.7816" style="stroke:#27AE60;stroke-width:2.5;"/><polygon fill="#000000" points="503.7739,1514.4759,508.7785,1491.2322,494.1604,1492.7297,503.7739,1514.4759" style="stroke:#000000;stroke-width:2.5;"/><text fill="#000000" font-family="sans-serif" font-size="32.5" lengthAdjust="spacing" textLength="100" x="525" y="1515.3394">provide</text><!--MD5=[71bd7d84c6f989e29e36bec57e3f046c]
link RemotePluginFactorySpi to RemotePluginSpi--><path codeLine="110" d="M2132.5,512.5891 C2132.5,580.4391 2132.5,671.6341 2132.5,738.2591 " fill="none" id="RemotePluginFactorySpi-to-RemotePluginSpi" style="stroke:#27AE60;stroke-width:2.5;stroke-dasharray:7.0,7.0;"/><polygon fill="#27AE60" points="2132.5,751.2441,2142.5,728.7441,2132.5,738.7441,2122.5,728.7441,2132.5,751.2441" style="stroke:#27AE60;stroke-width:2.5;"/><polygon fill="#000000" points="2145,622.041,2152.3473,599.4283,2137.6527,599.4283,2145,622.041" style="stroke:#000000;stroke-width:2.5;"/><text fill="#000000" font-family="sans-serif" font-size="32.5" lengthAdjust="spacing" textLength="100" x="2167.5" y="622.8394">provide</text><!--MD5=[94835fe4bc1292de45ce7b64c9f26947]
link PoolRemotePluginFactorySpi to PoolRemotePluginSpi--><path codeLine="112" d="M1315,512.5891 C1315,566.1116 1315,634.1591 1315,693.2141 " fill="none" id="PoolRemotePluginFactorySpi-to-PoolRemotePluginSpi" style="stroke:#27AE60;stroke-width:2.5;stroke-dasharray:7.0,7.0;"/><polygon fill="#27AE60" points="1315,706.4491,1325,683.9491,1315,693.9491,1305,683.9491,1315,706.4491" style="stroke:#27AE60;stroke-width:2.5;"/><polygon fill="#000000" points="1327.5,622.041,1334.8473,599.4283,1320.1527,599.4283,1327.5,622.041" style="stroke:#000000;stroke-width:2.5;"/><text fill="#000000" font-family="sans-serif" font-size="32.5" lengthAdjust="spacing" textLength="100" x="1350" y="622.8394">provide</text><!--MD5=[f33d040dcb77d1f7644b5e19c2b3e36f]
link RemotePluginSpi to RemoteReaderSpi--><path codeLine="114" d="M2151.3675,907.5241 C2175.8675,1024.6191 2204.62,1251.6691 2105,1404.1016 C2013.79,1543.6641 1856.235,1634.7341 1706.7,1693.1616 " fill="none" id="RemotePluginSpi-to-RemoteReaderSpi" style="stroke:#27AE60;stroke-width:2.5;stroke-dasharray:7.0,7.0;"/><polygon fill="#27AE60" points="1695.03,1697.6616,1719.621,1698.8993,1706.6934,1693.1655,1712.4273,1680.2379,1695.03,1697.6616" style="stroke:#27AE60;stroke-width:2.5;"/><polygon fill="#000000" points="2178.8429,1286.6694,2196.3754,1270.6093,2183.5871,1263.3711,2178.8429,1286.6694" style="stroke:#000000;stroke-width:2.5;"/><text fill="#000000" font-family="sans-serif" font-size="32.5" lengthAdjust="spacing" textLength="100" x="2207.5" y="1289.0894">provide</text><!--MD5=[cd503973bf75afb4c0e8c80989cc97bf]
reverse link ObservableRemotePluginManager to ObservableRemotePluginSpi--><path codeLine="116" d="M685.0225,1140.6816 C747.4325,1109.2441 816.9675,1080.2466 885,1064.1016 C1110.915,1010.4866 1370.84,1117.4691 1523.5525,1197.8441 " fill="none" id="ObservableRemotePluginManager-backto-ObservableRemotePluginSpi" style="stroke:#27AE60;stroke-width:2.5;stroke-dasharray:7.0,7.0;"/><polygon fill="#27AE60" points="673.455,1146.5791,698.0425,1145.2725,684.5921,1140.9033,688.9613,1127.453,673.455,1146.5791" style="stroke:#27AE60;stroke-width:2.5;"/><polygon fill="#000000" points="885.0289,1048.6909,907.0896,1057.5591,908.089,1042.8985,885.0289,1048.6909" style="stroke:#000000;stroke-width:2.5;"/><text fill="#000000" font-family="sans-serif" font-size="32.5" lengthAdjust="spacing" textLength="52.5" x="920" y="1062.8394">use</text><!--MD5=[3645155cc1bf4867ef56204fe87dc9fc]
link PoolRemotePluginSpi to RemoteReaderSpi--><path codeLine="118" d="M1189.065,952.2991 C1141.2725,1006.5941 1092.3925,1074.6291 1067.5,1146.6016 C1030.0925,1254.7591 1034.09,1294.6416 1067.5,1404.1016 C1087.16,1468.5141 1121.5625,1531.9116 1159.0275,1588.1316 " fill="none" id="PoolRemotePluginSpi-to-RemoteReaderSpi" style="stroke:#27AE60;stroke-width:2.5;stroke-dasharray:7.0,7.0;"/><polygon fill="#27AE60" points="1166.055,1598.5441,1161.7564,1574.3001,1159.062,1588.1832,1145.1789,1585.4888,1166.055,1598.5441" style="stroke:#27AE60;stroke-width:2.5;"/><polygon fill="#000000" points="1079.4101,1288.2771,1087.8163,1266.0363,1073.1381,1265.3429,1079.4101,1288.2771" style="stroke:#000000;stroke-width:2.5;"/><text fill="#000000" font-family="sans-serif" font-size="32.5" lengthAdjust="spacing" textLength="100" x="1102.5" y="1289.0894">provide</text><!--MD5=[0bc55388b3b894480ece328a5a31a622]
reverse link RemoteReaderManager to RemoteReaderSpi--><path codeLine="120" d="M750.7375,1792.8516 C816.095,1792.8516 888.7775,1792.8516 959.9075,1792.8516 " fill="none" id="RemoteReaderManager-backto-RemoteReaderSpi" style="stroke:#27AE60;stroke-width:2.5;stroke-dasharray:7.0,7.0;"/><polygon fill="#27AE60" points="737.765,1792.8516,760.265,1802.8516,750.265,1792.8516,760.265,1782.8516,737.765,1792.8516" style="stroke:#27AE60;stroke-width:2.5;"/><polygon fill="#000000" points="803.75,1763.291,826.3627,1770.6383,826.3627,1755.9437,803.75,1763.291" style="stroke:#000000;stroke-width:2.5;"/><text fill="#000000" font-family="sans-serif" font-size="32.5" lengthAdjust="spacing" textLength="52.5" x="838.75" y="1776.5894">use</text><!--MD5=[8d42139d1baf5d58c9f1325cc90679a5]
reverse link ObservableRemoteReaderManager to ObservableRemoteReaderSpi--><path codeLine="122" d="M831.88,2267.8516 C885.1425,2267.8516 940.61,2267.8516 994.335,2267.8516 " fill="none" id="ObservableRemoteReaderManager-backto-ObservableRemoteReaderSpi" style="stroke:#27AE60;stroke-width:2.5;stroke-dasharray:7.0,7.0;"/><polygon fill="#27AE60" points="819.115,2267.8516,841.615,2277.8516,831.615,2267.8516,841.615,2257.8516,819.115,2267.8516" style="stroke:#27AE60;stroke-width:2.5;"/><polygon fill="#000000" points="861.875,2238.291,884.4877,2245.6383,884.4877,2230.9437,861.875,2238.291" style="stroke:#000000;stroke-width:2.5;"/><text fill="#000000" font-family="sans-serif" font-size="32.5" lengthAdjust="spacing" textLength="52.5" x="896.875" y="2251.5894">use</text><!--MD5=[c3549529e7ff18f2c99749f19b46a06f]
link PoolRemotePluginSpi to ObservableRemotePluginSpi--><!--MD5=[f350a7874de73141285b15884b8d9b3a]
link ObservableRemotePluginSpi to RemoteReaderSpi--><!--MD5=[24eed42c5960c78f9d358f2105cb733d]
@startuml
title
    Keyple 2.0 - keyple-remote-plugin-api - 2.0 (26/01/2021)
end title

' == THEME ==

'Couleurs issues de : https://htmlcolorcodes.com/fr/tableau-de-couleur/tableau-de-couleur-design-plat/
!define C_GREY1 F8F9F9
!define C_GREY2 F2F3F4
!define C_GREY3 E5E7E9
!define C_GREY4 D7DBDD
!define C_GREY5 CACFD2
!define C_GREY6 BDC3C7
!define C_LINK 3498DB
!define C_USE 27AE60

skinparam Shadowing false
skinparam ClassFontStyle italic
skinparam ClassBorderColor #D4AC0D
skinparam stereotypeABorderColor #A9DCDF
skinparam stereotypeIBorderColor #B4A7E5
skinparam stereotypeCBorderColor #ADD1B2
skinparam stereotypeEBorderColor #EB93DF
' Red
skinparam ClassBackgroundColor<<red>> #FDEDEC
skinparam ClassBorderColor<<red>> #E74C3C
hide <<red>> stereotype
' Purple
skinparam ClassBackgroundColor<<purple>> #F4ECF7
skinparam ClassBorderColor<<purple>> #8E44AD
hide <<purple>> stereotype
' blue
skinparam ClassBackgroundColor<<blue>> #EBF5FB
skinparam ClassBorderColor<<blue>> #3498DB
hide <<blue>> stereotype
' Green
skinparam ClassBackgroundColor<<green>> #E9F7EF
skinparam ClassBorderColor<<green>> #27AE60
hide <<green>> stereotype
' Grey
skinparam ClassBackgroundColor<<grey>> #EAECEE
skinparam ClassBorderColor<<grey>> #2C3E50
hide <<grey>> stereotype

' == CONTENT ==

package "org.eclipse.keyple.plugin.remote" as api {
    +interface ObservableRemotePluginManager {
        - -
        +RemoteReaderManager createReader (String readerName,
            \tRemoteReaderSpi remoteReaderSpi)
        +RemoteReaderManager getReader (String readerName)
        +void onPluginEvent (String jsonData)
    }
    +interface RemoteReaderManager {
    }
    +interface ObservableRemoteReaderManager extends RemoteReaderManager {
        - -
        +void onReaderEvent (String jsonData)
    }
    package spi {
        +interface RemoteReaderSpi {
            - -
            +void setManager (RemoteReaderManger manager)
            ..
            +boolean isContactless ()
            +boolean isCardPresent ()
            ..
            +void releaseChannel ()
            ..
            +String processCardSelectionRequests (String jsonData)
            +String processCardRequest (String jsonData)
        }
        +interface ObservableRemoteReaderSpi extends RemoteReaderSpi {
            - -
            +void startCardDetection (String jsonData)
            +void stopCardDetection ()
            +void setDefaultSelectionRequest (String jsonData)
            +void finalizeCardProcessing ()
        }
        +interface RemotePluginSpi {
            +Map<String, RemoteReaderSpi> initNativeReaders ()
        }
        +interface ObservableRemotePluginSpi extends RemotePluginSpi {
            - -
            +void setManager (ObservableRemotePluginManager manager)
        }
        +interface PoolRemotePluginSpi {
            - -
            +SortedSet<String> getReaderGroupReferences ()
            ..
            +RemoteReaderSpi allocateReader (String groupReference)
            +void releaseReader (RemoteReaderSpi reader)
        }
        +interface RemotePluginFactorySpi {
            +String getPluginName ()
            +RemotePluginSpi getPlugin ()
        }
        +interface PoolRemotePluginFactorySpi {
            +String getPluginName ()
            +PoolRemotePluginSpi getPlugin ()
        }
    }
}

' Associations

ObservableRemotePluginManager ..> RemoteReaderManager #C_USE : provide >

RemotePluginFactorySpi ..> RemotePluginSpi #C_USE : provide >

PoolRemotePluginFactorySpi ..> PoolRemotePluginSpi #C_USE : provide >

RemotePluginSpi ..> RemoteReaderSpi #C_USE : provide >

ObservableRemotePluginSpi .left.> ObservableRemotePluginManager #C_USE : use >

PoolRemotePluginSpi ..> RemoteReaderSpi #C_USE : provide >

RemoteReaderSpi .left.> RemoteReaderManager #C_USE : use >

ObservableRemoteReaderSpi .left.> ObservableRemoteReaderManager #C_USE : use >

' == LAYOUT ==

PoolRemotePluginSpi -[hidden]- ObservableRemotePluginSpi

ObservableRemotePluginSpi -[hidden]- RemoteReaderSpi

' == STYLE ==

package api #C_GREY1 {}
package spi #C_GREY2 {}

@enduml

@startuml
title
    Keyple 2.0 - keyple-remote-plugin-api - 2.0 (26/01/2021)
end title



skinparam Shadowing false
skinparam ClassFontStyle italic
skinparam ClassBorderColor #D4AC0D
skinparam stereotypeABorderColor #A9DCDF
skinparam stereotypeIBorderColor #B4A7E5
skinparam stereotypeCBorderColor #ADD1B2
skinparam stereotypeEBorderColor #EB93DF
skinparam ClassBackgroundColor<<red>> #FDEDEC
skinparam ClassBorderColor<<red>> #E74C3C
hide <<red>> stereotype
skinparam ClassBackgroundColor<<purple>> #F4ECF7
skinparam ClassBorderColor<<purple>> #8E44AD
hide <<purple>> stereotype
skinparam ClassBackgroundColor<<blue>> #EBF5FB
skinparam ClassBorderColor<<blue>> #3498DB
hide <<blue>> stereotype
skinparam ClassBackgroundColor<<green>> #E9F7EF
skinparam ClassBorderColor<<green>> #27AE60
hide <<green>> stereotype
skinparam ClassBackgroundColor<<grey>> #EAECEE
skinparam ClassBorderColor<<grey>> #2C3E50
hide <<grey>> stereotype


package "org.eclipse.keyple.plugin.remote" as api {
    +interface ObservableRemotePluginManager {
        - -
        +RemoteReaderManager createReader (String readerName,
            \tRemoteReaderSpi remoteReaderSpi)
        +RemoteReaderManager getReader (String readerName)
        +void onPluginEvent (String jsonData)
    }
    +interface RemoteReaderManager {
    }
    +interface ObservableRemoteReaderManager extends RemoteReaderManager {
        - -
        +void onReaderEvent (String jsonData)
    }
    package spi {
        +interface RemoteReaderSpi {
            - -
            +void setManager (RemoteReaderManger manager)
            ..
            +boolean isContactless ()
            +boolean isCardPresent ()
            ..
            +void releaseChannel ()
            ..
            +String processCardSelectionRequests (String jsonData)
            +String processCardRequest (String jsonData)
        }
        +interface ObservableRemoteReaderSpi extends RemoteReaderSpi {
            - -
            +void startCardDetection (String jsonData)
            +void stopCardDetection ()
            +void setDefaultSelectionRequest (String jsonData)
            +void finalizeCardProcessing ()
        }
        +interface RemotePluginSpi {
            +Map<String, RemoteReaderSpi> initNativeReaders ()
        }
        +interface ObservableRemotePluginSpi extends RemotePluginSpi {
            - -
            +void setManager (ObservableRemotePluginManager manager)
        }
        +interface PoolRemotePluginSpi {
            - -
            +SortedSet<String> getReaderGroupReferences ()
            ..
            +RemoteReaderSpi allocateReader (String groupReference)
            +void releaseReader (RemoteReaderSpi reader)
        }
        +interface RemotePluginFactorySpi {
            +String getPluginName ()
            +RemotePluginSpi getPlugin ()
        }
        +interface PoolRemotePluginFactorySpi {
            +String getPluginName ()
            +PoolRemotePluginSpi getPlugin ()
        }
    }
}


ObservableRemotePluginManager ..> RemoteReaderManager #27AE60 : provide >

RemotePluginFactorySpi ..> RemotePluginSpi #27AE60 : provide >

PoolRemotePluginFactorySpi ..> PoolRemotePluginSpi #27AE60 : provide >

RemotePluginSpi ..> RemoteReaderSpi #27AE60 : provide >

ObservableRemotePluginSpi .left.> ObservableRemotePluginManager #27AE60 : use >

PoolRemotePluginSpi ..> RemoteReaderSpi #27AE60 : provide >

RemoteReaderSpi .left.> RemoteReaderManager #27AE60 : use >

ObservableRemoteReaderSpi .left.> ObservableRemoteReaderManager #27AE60 : use >


PoolRemotePluginSpi -[hidden]- ObservableRemotePluginSpi

ObservableRemotePluginSpi -[hidden]- RemoteReaderSpi


package api #F8F9F9 {}
package spi #F2F3F4 {}

@enduml

PlantUML version 1.2021.00(Sun Jan 10 11:25:05 CET 2021)
(GPL source distribution)
Java Runtime: OpenJDK Runtime Environment
JVM: OpenJDK 64-Bit Server VM
Default Encoding: Cp1252
Language: fr
Country: FR
--></g></svg>