<?xml version="1.0" encoding="UTF-8" standalone="no"?><svg xmlns="http://www.w3.org/2000/svg" xmlns:xlink="http://www.w3.org/1999/xlink" contentScriptType="application/ecmascript" contentStyleType="text/css" height="2965px" preserveAspectRatio="none" style="width:2620px;height:2965px;" version="1.1" viewBox="0 0 2620 2965" width="2620px" zoomAndPan="magnify"><defs/><g><text fill="#000000" font-family="sans-serif" font-size="45" lengthAdjust="spacing" textLength="1300" x="643.75" y="46.7139">Keyple 2.0 - keyple-java-distributed-remote-api - 2.0 (09/02/2021)</text><!--MD5=[7442f3b126ee602ae02566c1a49e158a]
cluster api--><polygon fill="#F8F9F9" points="40,71.6016,805,71.6016,822.5,130.625,2577.5,130.625,2577.5,2949.1016,40,2949.1016,40,71.6016" style="stroke:#000000;stroke-width:3.75;"/><line style="stroke:#000000;stroke-width:3.75;" x1="40" x2="822.5" y1="130.625" y2="130.625"/><text fill="#000000" font-family="sans-serif" font-size="35" font-weight="bold" lengthAdjust="spacing" textLength="750" x="50" y="112.9346">org.eclipse.keyple.core.distributed.remote</text><!--MD5=[f7e0e2453c87923036c1ac2adfb9cbf0]
cluster spi--><polygon fill="#F2F3F4" points="100,566.6016,167.5,566.6016,185,625.625,1727.5,625.625,1727.5,2889.1016,100,2889.1016,100,566.6016" style="stroke:#000000;stroke-width:3.75;"/><line style="stroke:#000000;stroke-width:3.75;" x1="100" x2="185" y1="625.625" y2="625.625"/><text fill="#000000" font-family="sans-serif" font-size="35" font-weight="bold" lengthAdjust="spacing" textLength="52.5" x="110" y="607.9346">spi</text><!--MD5=[120218adfd8782b0057db0a1b8294250]
class ApiProperties--><rect codeLine="48" fill="#FEFECE" height="154.5898" id="ApiProperties" style="stroke:#D4AC0D;stroke-width:3.75;" width="620" x="485" y="211.6016"/><ellipse cx="522.5" cy="251.6016" fill="#ADD1B2" rx="27.5" ry="27.5" style="stroke:#ADD1B2;stroke-width:2.5;"/><path d="M527.5,242.8516 Q528.0078,241.6016 528.5938,240.9766 Q529.1797,240.3516 529.8438,240.3516 Q531.0156,240.3516 531.7578,241.0547 Q532.5,241.7578 532.5,243.3984 L532.5,247.3047 Q532.5,248.9453 531.7969,249.6484 Q531.0938,250.3516 530,250.3516 Q529.0234,250.3516 528.3984,249.9219 Q527.7734,249.4922 527.5,248.3594 Q527.3828,247.5781 526.9531,247.1484 Q526.1719,246.3281 524.7656,245.8594 Q523.3594,245.3516 521.9531,245.3516 Q520.1953,245.3516 518.7109,246.0547 Q517.2656,246.7578 516.1328,248.3203 Q515,249.8828 515,252.0313 L515,254.3359 Q515,256.9141 517.1094,258.6328 Q519.2188,260.3516 522.9688,260.3516 Q525.1953,260.3516 526.7578,259.8438 Q527.6563,259.5703 528.6719,258.6719 Q529.3359,258.1641 529.6875,258.0078 Q530.0391,257.8516 530.4688,257.8516 Q531.2891,257.8516 531.875,258.5156 Q532.5,259.1406 532.5,260.0391 Q532.5,260.8984 531.6406,261.9141 Q530.3906,263.3984 528.3984,264.2188 Q525.7813,265.3516 522.5781,265.3516 Q518.8281,265.3516 515.8203,263.8672 Q513.3984,262.6953 511.6797,260.1563 Q510,257.6172 510,254.6094 L510,251.875 Q510,248.75 511.4844,246.0156 Q513.0078,243.2813 515.625,241.8359 Q518.2813,240.3516 521.25,240.3516 Q523.0469,240.3516 524.6094,240.9766 Q526.1719,241.6016 527.5,242.8516 Z " fill="#000000"/><ellipse cx="570" cy="250.3516" fill="#84BE84" rx="7.5" ry="7.5" style="stroke:#038048;stroke-width:2.5;"/><text fill="#000000" font-family="sans-serif" font-size="30" font-style="italic" font-weight="bold" lengthAdjust="spacing" textLength="60" x="585" y="263.877">final</text><text fill="#000000" font-family="sans-serif" font-size="30" font-style="italic" lengthAdjust="spacing" textLength="445" x="652.5" y="263.877">DistributedRemoteApiProperties</text><line style="stroke:#D4AC0D;stroke-width:3.75;" x1="487.5" x2="1102.5" y1="291.6016" y2="291.6016"/><ellipse cx="512.5" cy="319.1016" fill="none" rx="7.5" ry="7.5" style="stroke:#038048;stroke-width:2.5;"/><text fill="#000000" font-family="sans-serif" font-size="27.5" font-weight="bold" lengthAdjust="spacing" text-decoration="underline" textLength="57.5" x="535" y="330.1489">final</text><text fill="#000000" font-family="sans-serif" font-size="27.5" lengthAdjust="spacing" text-decoration="underline" textLength="190" x="600" y="330.1489">String VERSION</text><line style="stroke:#D4AC0D;stroke-width:3.75;" x1="487.5" x2="1102.5" y1="346.1914" y2="346.1914"/><!--MD5=[62f7d7f2588c82e83841c1b3d8071c16]
class ObservableRemotePluginManager--><rect codeLine="51" fill="#FEFECE" height="258.3594" id="ObservableRemotePluginManager" style="stroke:#D4AC0D;stroke-width:3.75;" width="770" x="1767.5" y="1599.1016"/><ellipse cx="1888.125" cy="1639.1016" fill="#B4A7E5" rx="27.5" ry="27.5" style="stroke:#B4A7E5;stroke-width:2.5;"/><path d="M1890.625,1631.6016 L1890.625,1646.6016 L1895.625,1646.6016 L1896.8359,1646.6016 L1898.125,1648.1641 L1898.125,1649.1016 L1898.125,1650.0391 L1896.8359,1651.6016 L1895.625,1651.6016 L1880.625,1651.6016 L1879.4141,1651.6016 L1878.125,1650.0391 L1878.125,1649.1016 L1878.125,1648.1641 L1879.4141,1646.6016 L1880.625,1646.6016 L1885.625,1646.6016 L1885.625,1631.6016 L1880.625,1631.6016 L1879.4141,1631.6016 L1878.125,1630.0391 L1878.125,1629.1016 L1878.125,1628.1641 L1879.4141,1626.6016 L1880.625,1626.6016 L1895.625,1626.6016 L1896.8359,1626.6016 L1898.125,1628.1641 L1898.125,1629.1016 L1898.125,1630.0391 L1896.8359,1631.6016 L1895.625,1631.6016 L1890.625,1631.6016 Z " fill="#000000"/><ellipse cx="1951.875" cy="1637.8516" fill="#84BE84" rx="7.5" ry="7.5" style="stroke:#038048;stroke-width:2.5;"/><text fill="#000000" font-family="sans-serif" font-size="30" font-style="italic" lengthAdjust="spacing" textLength="480" x="1966.875" y="1651.377">ObservableRemotePluginManager</text><line style="stroke:#D4AC0D;stroke-width:3.75;" x1="1770" x2="2535" y1="1679.1016" y2="1679.1016"/><line style="stroke:#D4AC0D;stroke-width:2.5;" x1="1770" x2="2535" y1="1699.1016" y2="1699.1016"/><ellipse cx="1795" cy="1726.6016" fill="#84BE84" rx="7.5" ry="7.5" style="stroke:#038048;stroke-width:2.5;"/><text fill="#000000" font-family="sans-serif" font-size="27.5" lengthAdjust="spacing" textLength="705" x="1817.5" y="1737.6489">RemoteReaderManager createReader (String readerName,</text><text fill="#000000" font-family="sans-serif" font-size="27.5" lengthAdjust="spacing" textLength="440" x="1877.5" y="1772.2388">RemoteReaderSpi remoteReaderSpi)</text><ellipse cx="1795" cy="1795.7813" fill="#84BE84" rx="7.5" ry="7.5" style="stroke:#038048;stroke-width:2.5;"/><text fill="#000000" font-family="sans-serif" font-size="27.5" lengthAdjust="spacing" textLength="667.5" x="1817.5" y="1806.8286">RemoteReaderManager getReader (String readerName)</text><ellipse cx="1795" cy="1830.3711" fill="#84BE84" rx="7.5" ry="7.5" style="stroke:#038048;stroke-width:2.5;"/><text fill="#000000" font-family="sans-serif" font-size="27.5" lengthAdjust="spacing" textLength="435" x="1817.5" y="1841.4185">void onPluginEvent (String jsonData)</text><!--MD5=[2e735b2f3bdf5a50866c01fd489449af]
class RemoteReaderManager--><rect codeLine="58" fill="#FEFECE" height="120" id="RemoteReaderManager" style="stroke:#D4AC0D;stroke-width:3.75;" width="440" x="1870" y="2185.3516"/><ellipse cx="1907.5" cy="2225.3516" fill="#B4A7E5" rx="27.5" ry="27.5" style="stroke:#B4A7E5;stroke-width:2.5;"/><path d="M1910,2217.8516 L1910,2232.8516 L1915,2232.8516 L1916.2109,2232.8516 L1917.5,2234.4141 L1917.5,2235.3516 L1917.5,2236.2891 L1916.2109,2237.8516 L1915,2237.8516 L1900,2237.8516 L1898.7891,2237.8516 L1897.5,2236.2891 L1897.5,2235.3516 L1897.5,2234.4141 L1898.7891,2232.8516 L1900,2232.8516 L1905,2232.8516 L1905,2217.8516 L1900,2217.8516 L1898.7891,2217.8516 L1897.5,2216.2891 L1897.5,2215.3516 L1897.5,2214.4141 L1898.7891,2212.8516 L1900,2212.8516 L1915,2212.8516 L1916.2109,2212.8516 L1917.5,2214.4141 L1917.5,2215.3516 L1917.5,2216.2891 L1916.2109,2217.8516 L1915,2217.8516 L1910,2217.8516 Z " fill="#000000"/><ellipse cx="1955" cy="2224.1016" fill="#84BE84" rx="7.5" ry="7.5" style="stroke:#038048;stroke-width:2.5;"/><text fill="#000000" font-family="sans-serif" font-size="30" font-style="italic" lengthAdjust="spacing" textLength="332.5" x="1970" y="2237.627">RemoteReaderManager</text><line style="stroke:#D4AC0D;stroke-width:3.75;" x1="1872.5" x2="2307.5" y1="2265.3516" y2="2265.3516"/><line style="stroke:#D4AC0D;stroke-width:3.75;" x1="1872.5" x2="2307.5" y1="2285.3516" y2="2285.3516"/><!--MD5=[da3e81f40f19c1bf19e4232bca284947]
class ObservableRemoteReaderManager--><rect codeLine="60" fill="#FEFECE" height="154.5898" id="ObservableRemoteReaderManager" style="stroke:#D4AC0D;stroke-width:3.75;" width="602.5" x="1788.75" y="2642.8516"/><ellipse cx="1826.25" cy="2682.8516" fill="#B4A7E5" rx="27.5" ry="27.5" style="stroke:#B4A7E5;stroke-width:2.5;"/><path d="M1828.75,2675.3516 L1828.75,2690.3516 L1833.75,2690.3516 L1834.9609,2690.3516 L1836.25,2691.9141 L1836.25,2692.8516 L1836.25,2693.7891 L1834.9609,2695.3516 L1833.75,2695.3516 L1818.75,2695.3516 L1817.5391,2695.3516 L1816.25,2693.7891 L1816.25,2692.8516 L1816.25,2691.9141 L1817.5391,2690.3516 L1818.75,2690.3516 L1823.75,2690.3516 L1823.75,2675.3516 L1818.75,2675.3516 L1817.5391,2675.3516 L1816.25,2673.7891 L1816.25,2672.8516 L1816.25,2671.9141 L1817.5391,2670.3516 L1818.75,2670.3516 L1833.75,2670.3516 L1834.9609,2670.3516 L1836.25,2671.9141 L1836.25,2672.8516 L1836.25,2673.7891 L1834.9609,2675.3516 L1833.75,2675.3516 L1828.75,2675.3516 Z " fill="#000000"/><ellipse cx="1873.75" cy="2681.6016" fill="#84BE84" rx="7.5" ry="7.5" style="stroke:#038048;stroke-width:2.5;"/><text fill="#000000" font-family="sans-serif" font-size="30" font-style="italic" lengthAdjust="spacing" textLength="495" x="1888.75" y="2695.127">ObservableRemoteReaderManager</text><line style="stroke:#D4AC0D;stroke-width:3.75;" x1="1791.25" x2="2388.75" y1="2722.8516" y2="2722.8516"/><line style="stroke:#D4AC0D;stroke-width:2.5;" x1="1791.25" x2="2388.75" y1="2742.8516" y2="2742.8516"/><ellipse cx="1816.25" cy="2770.3516" fill="#84BE84" rx="7.5" ry="7.5" style="stroke:#038048;stroke-width:2.5;"/><text fill="#000000" font-family="sans-serif" font-size="27.5" lengthAdjust="spacing" textLength="452.5" x="1838.75" y="2781.3989">void onReaderEvent (String jsonData)</text><!--MD5=[3937379067c1c7d1f35002e0ca836dbd]
class RemoteReaderSpi--><rect codeLine="65" fill="#FEFECE" height="387.5391" id="RemoteReaderSpi" style="stroke:#D4AC0D;stroke-width:3.75;" width="735" x="912.5" y="2051.6016"/><ellipse cx="1126.875" cy="2091.6016" fill="#B4A7E5" rx="27.5" ry="27.5" style="stroke:#B4A7E5;stroke-width:2.5;"/><path d="M1129.375,2084.1016 L1129.375,2099.1016 L1134.375,2099.1016 L1135.5859,2099.1016 L1136.875,2100.6641 L1136.875,2101.6016 L1136.875,2102.5391 L1135.5859,2104.1016 L1134.375,2104.1016 L1119.375,2104.1016 L1118.1641,2104.1016 L1116.875,2102.5391 L1116.875,2101.6016 L1116.875,2100.6641 L1118.1641,2099.1016 L1119.375,2099.1016 L1124.375,2099.1016 L1124.375,2084.1016 L1119.375,2084.1016 L1118.1641,2084.1016 L1116.875,2082.5391 L1116.875,2081.6016 L1116.875,2080.6641 L1118.1641,2079.1016 L1119.375,2079.1016 L1134.375,2079.1016 L1135.5859,2079.1016 L1136.875,2080.6641 L1136.875,2081.6016 L1136.875,2082.5391 L1135.5859,2084.1016 L1134.375,2084.1016 L1129.375,2084.1016 Z " fill="#000000"/><ellipse cx="1190.625" cy="2090.3516" fill="#84BE84" rx="7.5" ry="7.5" style="stroke:#038048;stroke-width:2.5;"/><text fill="#000000" font-family="sans-serif" font-size="30" font-style="italic" lengthAdjust="spacing" textLength="257.5" x="1205.625" y="2103.877">RemoteReaderSpi</text><line style="stroke:#D4AC0D;stroke-width:3.75;" x1="915" x2="1645" y1="2131.6016" y2="2131.6016"/><line style="stroke:#D4AC0D;stroke-width:2.5;" x1="915" x2="1645" y1="2151.6016" y2="2151.6016"/><ellipse cx="940" cy="2179.1016" fill="#84BE84" rx="7.5" ry="7.5" style="stroke:#038048;stroke-width:2.5;"/><text fill="#000000" font-family="sans-serif" font-size="27.5" lengthAdjust="spacing" textLength="607.5" x="962.5" y="2190.1489">void setManager (RemoteReaderManger manager)</text><line style="stroke:#D4AC0D;stroke-width:2.5;stroke-dasharray:1.0,2.0;" x1="915" x2="1645" y1="2206.1914" y2="2206.1914"/><ellipse cx="940" cy="2233.6914" fill="#84BE84" rx="7.5" ry="7.5" style="stroke:#038048;stroke-width:2.5;"/><text fill="#000000" font-family="sans-serif" font-size="27.5" lengthAdjust="spacing" textLength="292.5" x="962.5" y="2244.7388">boolean isContactless ()</text><ellipse cx="940" cy="2268.2813" fill="#84BE84" rx="7.5" ry="7.5" style="stroke:#038048;stroke-width:2.5;"/><text fill="#000000" font-family="sans-serif" font-size="27.5" lengthAdjust="spacing" textLength="300" x="962.5" y="2279.3286">boolean isCardPresent ()</text><line style="stroke:#D4AC0D;stroke-width:2.5;stroke-dasharray:1.0,2.0;" x1="915" x2="1645" y1="2295.3711" y2="2295.3711"/><ellipse cx="940" cy="2322.8711" fill="#84BE84" rx="7.5" ry="7.5" style="stroke:#038048;stroke-width:2.5;"/><text fill="#000000" font-family="sans-serif" font-size="27.5" lengthAdjust="spacing" textLength="272.5" x="962.5" y="2333.9185">void releaseChannel ()</text><line style="stroke:#D4AC0D;stroke-width:2.5;stroke-dasharray:1.0,2.0;" x1="915" x2="1645" y1="2349.9609" y2="2349.9609"/><ellipse cx="940" cy="2377.4609" fill="#84BE84" rx="7.5" ry="7.5" style="stroke:#038048;stroke-width:2.5;"/><text fill="#000000" font-family="sans-serif" font-size="27.5" lengthAdjust="spacing" textLength="670" x="962.5" y="2388.5083">String processCardSelectionRequests (String jsonData)</text><ellipse cx="940" cy="2412.0508" fill="#84BE84" rx="7.5" ry="7.5" style="stroke:#038048;stroke-width:2.5;"/><text fill="#000000" font-family="sans-serif" font-size="27.5" lengthAdjust="spacing" textLength="545" x="962.5" y="2423.0981">String processCardRequest (String jsonData)</text><!--MD5=[bde6ad16048b75cbc3ab150f56eec96c]
class ObservableRemoteReaderSpi--><rect codeLine="77" fill="#FEFECE" height="258.3594" id="ObservableRemoteReaderSpi" style="stroke:#D4AC0D;stroke-width:3.75;" width="665" x="947.5" y="2591.6016"/><ellipse cx="1046.875" cy="2631.6016" fill="#B4A7E5" rx="27.5" ry="27.5" style="stroke:#B4A7E5;stroke-width:2.5;"/><path d="M1049.375,2624.1016 L1049.375,2639.1016 L1054.375,2639.1016 L1055.5859,2639.1016 L1056.875,2640.6641 L1056.875,2641.6016 L1056.875,2642.5391 L1055.5859,2644.1016 L1054.375,2644.1016 L1039.375,2644.1016 L1038.1641,2644.1016 L1036.875,2642.5391 L1036.875,2641.6016 L1036.875,2640.6641 L1038.1641,2639.1016 L1039.375,2639.1016 L1044.375,2639.1016 L1044.375,2624.1016 L1039.375,2624.1016 L1038.1641,2624.1016 L1036.875,2622.5391 L1036.875,2621.6016 L1036.875,2620.6641 L1038.1641,2619.1016 L1039.375,2619.1016 L1054.375,2619.1016 L1055.5859,2619.1016 L1056.875,2620.6641 L1056.875,2621.6016 L1056.875,2622.5391 L1055.5859,2624.1016 L1054.375,2624.1016 L1049.375,2624.1016 Z " fill="#000000"/><ellipse cx="1108.125" cy="2630.3516" fill="#84BE84" rx="7.5" ry="7.5" style="stroke:#038048;stroke-width:2.5;"/><text fill="#000000" font-family="sans-serif" font-size="30" font-style="italic" lengthAdjust="spacing" textLength="420" x="1123.125" y="2643.877">ObservableRemoteReaderSpi</text><line style="stroke:#D4AC0D;stroke-width:3.75;" x1="950" x2="1610" y1="2671.6016" y2="2671.6016"/><line style="stroke:#D4AC0D;stroke-width:2.5;" x1="950" x2="1610" y1="2691.6016" y2="2691.6016"/><ellipse cx="975" cy="2719.1016" fill="#84BE84" rx="7.5" ry="7.5" style="stroke:#038048;stroke-width:2.5;"/><text fill="#000000" font-family="sans-serif" font-size="27.5" lengthAdjust="spacing" textLength="492.5" x="997.5" y="2730.1489">void startCardDetection (String jsonData)</text><ellipse cx="975" cy="2753.6914" fill="#84BE84" rx="7.5" ry="7.5" style="stroke:#038048;stroke-width:2.5;"/><text fill="#000000" font-family="sans-serif" font-size="27.5" lengthAdjust="spacing" textLength="307.5" x="997.5" y="2764.7388">void stopCardDetection ()</text><ellipse cx="975" cy="2788.2813" fill="#84BE84" rx="7.5" ry="7.5" style="stroke:#038048;stroke-width:2.5;"/><text fill="#000000" font-family="sans-serif" font-size="27.5" lengthAdjust="spacing" textLength="600" x="997.5" y="2799.3286">void setDefaultSelectionRequest (String jsonData)</text><ellipse cx="975" cy="2822.8711" fill="#84BE84" rx="7.5" ry="7.5" style="stroke:#038048;stroke-width:2.5;"/><text fill="#000000" font-family="sans-serif" font-size="27.5" lengthAdjust="spacing" textLength="362.5" x="997.5" y="2833.9185">void finalizeCardProcessing ()</text><!--MD5=[733b899168be945616a1d8aa95c72981]
class RemotePluginSpi--><rect codeLine="84" fill="#FEFECE" height="154.5898" id="RemotePluginSpi" style="stroke:#D4AC0D;stroke-width:3.75;" width="690" x="140" y="1204.1016"/><ellipse cx="339.375" cy="1244.1016" fill="#B4A7E5" rx="27.5" ry="27.5" style="stroke:#B4A7E5;stroke-width:2.5;"/><path d="M341.875,1236.6016 L341.875,1251.6016 L346.875,1251.6016 L348.0859,1251.6016 L349.375,1253.1641 L349.375,1254.1016 L349.375,1255.0391 L348.0859,1256.6016 L346.875,1256.6016 L331.875,1256.6016 L330.6641,1256.6016 L329.375,1255.0391 L329.375,1254.1016 L329.375,1253.1641 L330.6641,1251.6016 L331.875,1251.6016 L336.875,1251.6016 L336.875,1236.6016 L331.875,1236.6016 L330.6641,1236.6016 L329.375,1235.0391 L329.375,1234.1016 L329.375,1233.1641 L330.6641,1231.6016 L331.875,1231.6016 L346.875,1231.6016 L348.0859,1231.6016 L349.375,1233.1641 L349.375,1234.1016 L349.375,1235.0391 L348.0859,1236.6016 L346.875,1236.6016 L341.875,1236.6016 Z " fill="#000000"/><ellipse cx="403.125" cy="1242.8516" fill="#84BE84" rx="7.5" ry="7.5" style="stroke:#038048;stroke-width:2.5;"/><text fill="#000000" font-family="sans-serif" font-size="30" font-style="italic" lengthAdjust="spacing" textLength="242.5" x="418.125" y="1256.377">RemotePluginSpi</text><line style="stroke:#D4AC0D;stroke-width:3.75;" x1="142.5" x2="827.5" y1="1284.1016" y2="1284.1016"/><line style="stroke:#D4AC0D;stroke-width:3.75;" x1="142.5" x2="827.5" y1="1304.1016" y2="1304.1016"/><ellipse cx="167.5" cy="1331.6016" fill="#84BE84" rx="7.5" ry="7.5" style="stroke:#038048;stroke-width:2.5;"/><text fill="#000000" font-family="sans-serif" font-size="27.5" lengthAdjust="spacing" textLength="625" x="190" y="1342.6489">Map&lt;String, RemoteReaderSpi&gt; initNativeReaders ()</text><!--MD5=[309cd6c2721908ddd074502139737511]
class ObservableRemotePluginSpi--><rect codeLine="87" fill="#FEFECE" height="154.5898" id="ObservableRemotePluginSpi" style="stroke:#D4AC0D;stroke-width:3.75;" width="810" x="557.5" y="1650.3516"/><ellipse cx="735.625" cy="1690.3516" fill="#B4A7E5" rx="27.5" ry="27.5" style="stroke:#B4A7E5;stroke-width:2.5;"/><path d="M738.125,1682.8516 L738.125,1697.8516 L743.125,1697.8516 L744.3359,1697.8516 L745.625,1699.4141 L745.625,1700.3516 L745.625,1701.2891 L744.3359,1702.8516 L743.125,1702.8516 L728.125,1702.8516 L726.9141,1702.8516 L725.625,1701.2891 L725.625,1700.3516 L725.625,1699.4141 L726.9141,1697.8516 L728.125,1697.8516 L733.125,1697.8516 L733.125,1682.8516 L728.125,1682.8516 L726.9141,1682.8516 L725.625,1681.2891 L725.625,1680.3516 L725.625,1679.4141 L726.9141,1677.8516 L728.125,1677.8516 L743.125,1677.8516 L744.3359,1677.8516 L745.625,1679.4141 L745.625,1680.3516 L745.625,1681.2891 L744.3359,1682.8516 L743.125,1682.8516 L738.125,1682.8516 Z " fill="#000000"/><ellipse cx="799.375" cy="1689.1016" fill="#84BE84" rx="7.5" ry="7.5" style="stroke:#038048;stroke-width:2.5;"/><text fill="#000000" font-family="sans-serif" font-size="30" font-style="italic" lengthAdjust="spacing" textLength="405" x="814.375" y="1702.627">ObservableRemotePluginSpi</text><line style="stroke:#D4AC0D;stroke-width:3.75;" x1="560" x2="1365" y1="1730.3516" y2="1730.3516"/><line style="stroke:#D4AC0D;stroke-width:2.5;" x1="560" x2="1365" y1="1750.3516" y2="1750.3516"/><ellipse cx="585" cy="1777.8516" fill="#84BE84" rx="7.5" ry="7.5" style="stroke:#038048;stroke-width:2.5;"/><text fill="#000000" font-family="sans-serif" font-size="27.5" lengthAdjust="spacing" textLength="745" x="607.5" y="1788.8989">void setManager (ObservableRemotePluginManager manager)</text><!--MD5=[2e288a42428e5fcd2804e8dae00f46e4]
class PoolRemotePluginSpi--><rect codeLine="91" fill="#FEFECE" height="243.7695" id="PoolRemotePluginSpi" style="stroke:#D4AC0D;stroke-width:3.75;" width="770" x="917.5" y="1159.1016"/><ellipse cx="1125.625" cy="1199.1016" fill="#B4A7E5" rx="27.5" ry="27.5" style="stroke:#B4A7E5;stroke-width:2.5;"/><path d="M1128.125,1191.6016 L1128.125,1206.6016 L1133.125,1206.6016 L1134.3359,1206.6016 L1135.625,1208.1641 L1135.625,1209.1016 L1135.625,1210.0391 L1134.3359,1211.6016 L1133.125,1211.6016 L1118.125,1211.6016 L1116.9141,1211.6016 L1115.625,1210.0391 L1115.625,1209.1016 L1115.625,1208.1641 L1116.9141,1206.6016 L1118.125,1206.6016 L1123.125,1206.6016 L1123.125,1191.6016 L1118.125,1191.6016 L1116.9141,1191.6016 L1115.625,1190.0391 L1115.625,1189.1016 L1115.625,1188.1641 L1116.9141,1186.6016 L1118.125,1186.6016 L1133.125,1186.6016 L1134.3359,1186.6016 L1135.625,1188.1641 L1135.625,1189.1016 L1135.625,1190.0391 L1134.3359,1191.6016 L1133.125,1191.6016 L1128.125,1191.6016 Z " fill="#000000"/><ellipse cx="1189.375" cy="1197.8516" fill="#84BE84" rx="7.5" ry="7.5" style="stroke:#038048;stroke-width:2.5;"/><text fill="#000000" font-family="sans-serif" font-size="30" font-style="italic" lengthAdjust="spacing" textLength="305" x="1204.375" y="1211.377">PoolRemotePluginSpi</text><line style="stroke:#D4AC0D;stroke-width:3.75;" x1="920" x2="1685" y1="1239.1016" y2="1239.1016"/><line style="stroke:#D4AC0D;stroke-width:2.5;" x1="920" x2="1685" y1="1259.1016" y2="1259.1016"/><ellipse cx="945" cy="1286.6016" fill="#84BE84" rx="7.5" ry="7.5" style="stroke:#038048;stroke-width:2.5;"/><text fill="#000000" font-family="sans-serif" font-size="27.5" lengthAdjust="spacing" textLength="597.5" x="967.5" y="1297.6489">SortedSet&lt;String&gt; getReaderGroupReferences ()</text><line style="stroke:#D4AC0D;stroke-width:2.5;stroke-dasharray:1.0,2.0;" x1="920" x2="1685" y1="1313.6914" y2="1313.6914"/><ellipse cx="945" cy="1341.1914" fill="#84BE84" rx="7.5" ry="7.5" style="stroke:#038048;stroke-width:2.5;"/><text fill="#000000" font-family="sans-serif" font-size="27.5" lengthAdjust="spacing" textLength="705" x="967.5" y="1352.2388">RemoteReaderSpi allocateReader (String groupReference)</text><ellipse cx="945" cy="1375.7813" fill="#84BE84" rx="7.5" ry="7.5" style="stroke:#038048;stroke-width:2.5;"/><text fill="#000000" font-family="sans-serif" font-size="27.5" lengthAdjust="spacing" textLength="565" x="967.5" y="1386.8286">void releaseReader (RemoteReaderSpi reader)</text><!--MD5=[c2370bc74128b93bd072b6f31e9991b0]
class RemotePluginFactorySpi--><rect codeLine="98" fill="#FEFECE" height="258.3594" id="RemotePluginFactorySpi" style="stroke:#D4AC0D;stroke-width:3.75;" width="560" x="257.5" y="706.6016"/><ellipse cx="344.5" cy="746.6016" fill="#B4A7E5" rx="27.5" ry="27.5" style="stroke:#B4A7E5;stroke-width:2.5;"/><path d="M347,739.1016 L347,754.1016 L352,754.1016 L353.2109,754.1016 L354.5,755.6641 L354.5,756.6016 L354.5,757.5391 L353.2109,759.1016 L352,759.1016 L337,759.1016 L335.7891,759.1016 L334.5,757.5391 L334.5,756.6016 L334.5,755.6641 L335.7891,754.1016 L337,754.1016 L342,754.1016 L342,739.1016 L337,739.1016 L335.7891,739.1016 L334.5,737.5391 L334.5,736.6016 L334.5,735.6641 L335.7891,734.1016 L337,734.1016 L352,734.1016 L353.2109,734.1016 L354.5,735.6641 L354.5,736.6016 L354.5,737.5391 L353.2109,739.1016 L352,739.1016 L347,739.1016 Z " fill="#000000"/><ellipse cx="403" cy="745.3516" fill="#84BE84" rx="7.5" ry="7.5" style="stroke:#038048;stroke-width:2.5;"/><text fill="#000000" font-family="sans-serif" font-size="30" font-style="italic" lengthAdjust="spacing" textLength="342.5" x="418" y="758.877">RemotePluginFactorySpi</text><line style="stroke:#D4AC0D;stroke-width:3.75;" x1="260" x2="815" y1="786.6016" y2="786.6016"/><line style="stroke:#D4AC0D;stroke-width:3.75;" x1="260" x2="815" y1="806.6016" y2="806.6016"/><ellipse cx="285" cy="834.1016" fill="#84BE84" rx="7.5" ry="7.5" style="stroke:#038048;stroke-width:2.5;"/><text fill="#000000" font-family="sans-serif" font-size="27.5" lengthAdjust="spacing" textLength="495" x="307.5" y="845.1489">String getDistributedRemoteApiVersion ()</text><ellipse cx="285" cy="868.6914" fill="#84BE84" rx="7.5" ry="7.5" style="stroke:#038048;stroke-width:2.5;"/><text fill="#000000" font-family="sans-serif" font-size="27.5" lengthAdjust="spacing" textLength="395" x="307.5" y="879.7388">String getCommonsApiVersion ()</text><ellipse cx="285" cy="903.2813" fill="#84BE84" rx="7.5" ry="7.5" style="stroke:#038048;stroke-width:2.5;"/><text fill="#000000" font-family="sans-serif" font-size="27.5" lengthAdjust="spacing" textLength="280" x="307.5" y="914.3286">String getPluginName ()</text><ellipse cx="285" cy="937.8711" fill="#84BE84" rx="7.5" ry="7.5" style="stroke:#038048;stroke-width:2.5;"/><text fill="#000000" font-family="sans-serif" font-size="27.5" lengthAdjust="spacing" textLength="340" x="307.5" y="948.9185">RemotePluginSpi getPlugin ()</text><!--MD5=[1818ae6be3fff9040cd5f04412a73438]
class PoolRemotePluginFactorySpi--><rect codeLine="104" fill="#FEFECE" height="258.3594" id="PoolRemotePluginFactorySpi" style="stroke:#D4AC0D;stroke-width:3.75;" width="560" x="990" y="706.6016"/><ellipse cx="1048.875" cy="746.6016" fill="#B4A7E5" rx="27.5" ry="27.5" style="stroke:#B4A7E5;stroke-width:2.5;"/><path d="M1051.375,739.1016 L1051.375,754.1016 L1056.375,754.1016 L1057.5859,754.1016 L1058.875,755.6641 L1058.875,756.6016 L1058.875,757.5391 L1057.5859,759.1016 L1056.375,759.1016 L1041.375,759.1016 L1040.1641,759.1016 L1038.875,757.5391 L1038.875,756.6016 L1038.875,755.6641 L1040.1641,754.1016 L1041.375,754.1016 L1046.375,754.1016 L1046.375,739.1016 L1041.375,739.1016 L1040.1641,739.1016 L1038.875,737.5391 L1038.875,736.6016 L1038.875,735.6641 L1040.1641,734.1016 L1041.375,734.1016 L1056.375,734.1016 L1057.5859,734.1016 L1058.875,735.6641 L1058.875,736.6016 L1058.875,737.5391 L1057.5859,739.1016 L1056.375,739.1016 L1051.375,739.1016 Z " fill="#000000"/><ellipse cx="1101.125" cy="745.3516" fill="#84BE84" rx="7.5" ry="7.5" style="stroke:#038048;stroke-width:2.5;"/><text fill="#000000" font-family="sans-serif" font-size="30" font-style="italic" lengthAdjust="spacing" textLength="405" x="1116.125" y="758.877">PoolRemotePluginFactorySpi</text><line style="stroke:#D4AC0D;stroke-width:3.75;" x1="992.5" x2="1547.5" y1="786.6016" y2="786.6016"/><line style="stroke:#D4AC0D;stroke-width:3.75;" x1="992.5" x2="1547.5" y1="806.6016" y2="806.6016"/><ellipse cx="1017.5" cy="834.1016" fill="#84BE84" rx="7.5" ry="7.5" style="stroke:#038048;stroke-width:2.5;"/><text fill="#000000" font-family="sans-serif" font-size="27.5" lengthAdjust="spacing" textLength="495" x="1040" y="845.1489">String getDistributedRemoteApiVersion ()</text><ellipse cx="1017.5" cy="868.6914" fill="#84BE84" rx="7.5" ry="7.5" style="stroke:#038048;stroke-width:2.5;"/><text fill="#000000" font-family="sans-serif" font-size="27.5" lengthAdjust="spacing" textLength="395" x="1040" y="879.7388">String getCommonsApiVersion ()</text><ellipse cx="1017.5" cy="903.2813" fill="#84BE84" rx="7.5" ry="7.5" style="stroke:#038048;stroke-width:2.5;"/><text fill="#000000" font-family="sans-serif" font-size="27.5" lengthAdjust="spacing" textLength="280" x="1040" y="914.3286">String getPluginName ()</text><ellipse cx="1017.5" cy="937.8711" fill="#84BE84" rx="7.5" ry="7.5" style="stroke:#038048;stroke-width:2.5;"/><text fill="#000000" font-family="sans-serif" font-size="27.5" lengthAdjust="spacing" textLength="390" x="1040" y="948.9185">PoolRemotePluginSpi getPlugin ()</text><!--MD5=[dbbab6fb389b0dd25850ebdfe5bbfbdc]
reverse link RemoteReaderManager to ObservableRemoteReaderManager--><path d="M2090,2356.2891 C2090,2444.0216 2090,2565.2991 2090,2642.6641 " fill="none" id="RemoteReaderManager-backto-ObservableRemoteReaderManager" style="stroke:#A80036;stroke-width:2.5;"/><polygon fill="none" points="2072.5,2355.4841,2090,2305.4816,2107.5,2355.4816,2072.5,2355.4841" style="stroke:#A80036;stroke-width:2.5;"/><!--MD5=[66802393e068e625b1512b2c90a160c9]
reverse link RemoteReaderSpi to ObservableRemoteReaderSpi--><path d="M1280,2490.4716 C1280,2525.2591 1280,2559.8266 1280,2591.1166 " fill="none" id="RemoteReaderSpi-backto-ObservableRemoteReaderSpi" style="stroke:#A80036;stroke-width:2.5;"/><polygon fill="none" points="1262.5,2489.6966,1280,2439.6966,1297.5,2489.6966,1262.5,2489.6966" style="stroke:#A80036;stroke-width:2.5;"/><!--MD5=[b1733e4fb8d21da98cd85d581166204b]
reverse link RemotePluginSpi to ObservableRemotePluginSpi--><path d="M604.475,1394.5066 C690.6425,1474.1341 804.7025,1579.5341 880.6875,1649.7516 " fill="none" id="RemotePluginSpi-backto-ObservableRemotePluginSpi" style="stroke:#A80036;stroke-width:2.5;"/><polygon fill="none" points="591.93,1406.7416,567.085,1359.9541,615.685,1381.0366,591.93,1406.7416" style="stroke:#A80036;stroke-width:2.5;"/><!--MD5=[ad47971ecfbe68f769e12820d292ee91]
link ObservableRemotePluginManager to RemoteReaderManager--><path codeLine="115" d="M2137.05,1857.0366 C2124.905,1956.6416 2108.435,2091.6841 2098.55,2172.7491 " fill="none" id="ObservableRemotePluginManager-to-RemoteReaderManager" style="stroke:#27AE60;stroke-width:2.5;stroke-dasharray:7.0,7.0;"/><polygon fill="#27AE60" points="2097.02,2185.2816,2109.6715,2164.1584,2098.534,2172.8736,2089.8187,2161.736,2097.02,2185.2816" style="stroke:#27AE60;stroke-width:2.5;"/><polygon fill="#000000" points="2135.9869,1966.9491,2146.0174,1945.3921,2131.4309,1943.6133,2135.9869,1966.9491" style="stroke:#000000;stroke-width:2.5;"/><text fill="#000000" font-family="sans-serif" font-size="32.5" lengthAdjust="spacing" textLength="100" x="2160" y="1967.8394">provide</text><!--MD5=[4174bbe09b6fc05497605efa272e822c]
reverse link ApiProperties to RemotePluginFactorySpi--><path codeLine="117" d="M753.665,378.4766 C711.515,467.0766 645.6775,605.4691 597.73,706.2516 " fill="none" id="ApiProperties-backto-RemotePluginFactorySpi" style="stroke:#27AE60;stroke-width:2.5;stroke-dasharray:7.0,7.0;"/><polygon fill="#27AE60" points="759.195,366.8516,740.5126,382.8896,753.8347,378.1439,758.5804,391.466,759.195,366.8516" style="stroke:#27AE60;stroke-width:2.5;"/><text fill="#000000" font-family="sans-serif" font-size="32.5" lengthAdjust="spacing" textLength="100" x="770" y="477.8394">provide</text><polygon fill="#000000" points="740.37,494.1322,724.0208,511.3955,737.2903,517.7083,740.37,494.1322" style="stroke:#000000;stroke-width:2.5;"/><text fill="#000000" font-family="sans-serif" font-size="32.5" lengthAdjust="spacing" textLength="162.5" x="755" y="518.7183">API version</text><!--MD5=[71bd7d84c6f989e29e36bec57e3f046c]
link RemotePluginFactorySpi to RemotePluginSpi--><path codeLine="118" d="M522.455,964.2966 C513.82,1036.8766 503.1925,1126.1966 495.4675,1191.1316 " fill="none" id="RemotePluginFactorySpi-to-RemotePluginSpi" style="stroke:#27AE60;stroke-width:2.5;stroke-dasharray:7.0,7.0;"/><polygon fill="#27AE60" points="493.9625,1203.7816,506.548,1182.619,495.4377,1191.3689,486.6878,1180.2586,493.9625,1203.7816" style="stroke:#27AE60;stroke-width:2.5;"/><polygon fill="#000000" points="526.0232,1074.4535,535.9906,1052.8671,521.3989,1051.1311,526.0232,1074.4535" style="stroke:#000000;stroke-width:2.5;"/><text fill="#000000" font-family="sans-serif" font-size="32.5" lengthAdjust="spacing" textLength="100" x="550" y="1075.3394">provide</text><!--MD5=[5fda08e0458dc7af2b7c10bf6099a261]
reverse link ApiProperties to PoolRemotePluginFactorySpi--><path codeLine="120" d="M879.545,377.0516 C899.6375,397.9266 920.805,420.3516 940,441.6016 C1018.0225,527.9891 1102.6075,628.4166 1166.6075,705.8916 " fill="none" id="ApiProperties-backto-PoolRemotePluginFactorySpi" style="stroke:#27AE60;stroke-width:2.5;stroke-dasharray:7.0,7.0;"/><polygon fill="#27AE60" points="869.78,366.9516,878.2608,390.067,878.4805,375.9266,892.6209,376.1463,869.78,366.9516" style="stroke:#27AE60;stroke-width:2.5;"/><text fill="#000000" font-family="sans-serif" font-size="32.5" lengthAdjust="spacing" textLength="100" x="1065" y="477.8394">provide</text><polygon fill="#000000" points="1021.7796,496.0032,1031.1154,517.8701,1042.1855,508.2064,1021.7796,496.0032" style="stroke:#000000;stroke-width:2.5;"/><text fill="#000000" font-family="sans-serif" font-size="32.5" lengthAdjust="spacing" textLength="162.5" x="1050" y="518.7183">API version</text><!--MD5=[94835fe4bc1292de45ce7b64c9f26947]
link PoolRemotePluginFactorySpi to PoolRemotePluginSpi--><path codeLine="121" d="M1279.3125,964.2966 C1283.4975,1021.1191 1288.44,1088.2016 1292.6825,1145.8116 " fill="none" id="PoolRemotePluginFactorySpi-to-PoolRemotePluginSpi" style="stroke:#27AE60;stroke-width:2.5;stroke-dasharray:7.0,7.0;"/><polygon fill="#27AE60" points="1293.6325,1158.7091,1301.947,1135.5332,1292.7112,1146.2431,1282.0014,1137.0073,1293.6325,1158.7091" style="stroke:#27AE60;stroke-width:2.5;"/><polygon fill="#000000" points="1300.9182,1074.5072,1306.5846,1051.4159,1291.9297,1052.4954,1300.9182,1074.5072" style="stroke:#000000;stroke-width:2.5;"/><text fill="#000000" font-family="sans-serif" font-size="32.5" lengthAdjust="spacing" textLength="100" x="1322.5" y="1075.3394">provide</text><!--MD5=[f33d040dcb77d1f7644b5e19c2b3e36f]
link RemotePluginSpi to RemoteReaderSpi--><path codeLine="123" d="M438.3675,1359.5091 C372.995,1475.9116 272.925,1702.0541 375,1856.6016 C491.7675,2033.3966 707.815,2129.5441 899.535,2181.6916 " fill="none" id="RemotePluginSpi-to-RemoteReaderSpi" style="stroke:#27AE60;stroke-width:2.5;stroke-dasharray:7.0,7.0;"/><polygon fill="#27AE60" points="912.1275,2185.0641,892.9826,2169.581,900.0535,2181.8286,887.8059,2188.8995,912.1275,2185.0641" style="stroke:#27AE60;stroke-width:2.5;"/><polygon fill="#000000" points="393.6151,1739.1931,388.9609,1715.8767,376.1447,1723.0654,393.6151,1739.1931" style="stroke:#000000;stroke-width:2.5;"/><text fill="#000000" font-family="sans-serif" font-size="32.5" lengthAdjust="spacing" textLength="100" x="410" y="1741.5894">provide</text><!--MD5=[cd503973bf75afb4c0e8c80989cc97bf]
reverse link ObservableRemotePluginManager to ObservableRemotePluginSpi--><path codeLine="125" d="M1919.3925,1593.5166 C1853.0525,1561.9291 1779.2675,1532.7716 1707.5,1516.6016 C1489.46,1467.4741 1240.4225,1571.2466 1092.6025,1650.0491 " fill="none" id="ObservableRemotePluginManager-backto-ObservableRemotePluginSpi" style="stroke:#27AE60;stroke-width:2.5;stroke-dasharray:7.0,7.0;"/><polygon fill="#27AE60" points="1930.83,1599.0216,1914.8951,1580.2512,1919.5673,1593.5992,1906.2193,1598.2714,1930.83,1599.0216" style="stroke:#27AE60;stroke-width:2.5;"/><polygon fill="#000000" points="1642.4709,1501.1883,1619.4096,1495.4007,1620.4121,1510.0611,1642.4709,1501.1883" style="stroke:#000000;stroke-width:2.5;"/><text fill="#000000" font-family="sans-serif" font-size="32.5" lengthAdjust="spacing" textLength="52.5" x="1652.5" y="1515.3394">use</text><!--MD5=[3645155cc1bf4867ef56204fe87dc9fc]
link PoolRemotePluginSpi to RemoteReaderSpi--><path codeLine="127" d="M1353.9425,1404.3566 C1375.9275,1462.0991 1399.0275,1532.9766 1410,1599.1016 C1428.735,1712.0016 1428.4975,1743.6616 1410,1856.6016 C1400.0725,1917.2241 1381.925,1981.1566 1362.275,2039.1791 " fill="none" id="PoolRemotePluginSpi-to-RemoteReaderSpi" style="stroke:#27AE60;stroke-width:2.5;stroke-dasharray:7.0,7.0;"/><polygon fill="#27AE60" points="1358.0625,2051.4666,1374.8183,2033.4251,1362.1159,2039.642,1355.899,2026.9397,1358.0625,2051.4666" style="stroke:#27AE60;stroke-width:2.5;"/><polygon fill="#000000" points="1437.6641,1740.7899,1444.714,1718.0827,1430.0206,1718.2756,1437.6641,1740.7899" style="stroke:#000000;stroke-width:2.5;"/><text fill="#000000" font-family="sans-serif" font-size="32.5" lengthAdjust="spacing" textLength="100" x="1460" y="1741.5894">provide</text><!--MD5=[0bc55388b3b894480ece328a5a31a622]
reverse link RemoteReaderManager to RemoteReaderSpi--><path codeLine="129" d="M1856.76,2245.3516 C1791.6075,2245.3516 1719.1775,2245.3516 1648.2625,2245.3516 " fill="none" id="RemoteReaderManager-backto-RemoteReaderSpi" style="stroke:#27AE60;stroke-width:2.5;stroke-dasharray:7.0,7.0;"/><polygon fill="#27AE60" points="1869.69,2245.3516,1847.19,2235.3516,1857.19,2245.3516,1847.19,2255.3516,1869.69,2245.3516" style="stroke:#27AE60;stroke-width:2.5;"/><polygon fill="#000000" points="1738.75,2215.791,1716.1373,2208.4437,1716.1373,2223.1383,1738.75,2215.791" style="stroke:#000000;stroke-width:2.5;"/><text fill="#000000" font-family="sans-serif" font-size="32.5" lengthAdjust="spacing" textLength="52.5" x="1748.75" y="2229.0894">use</text><!--MD5=[8d42139d1baf5d58c9f1325cc90679a5]
reverse link ObservableRemoteReaderManager to ObservableRemoteReaderSpi--><path codeLine="131" d="M1775.44,2720.3516 C1722.165,2720.3516 1666.6925,2720.3516 1612.965,2720.3516 " fill="none" id="ObservableRemoteReaderManager-backto-ObservableRemoteReaderSpi" style="stroke:#27AE60;stroke-width:2.5;stroke-dasharray:7.0,7.0;"/><polygon fill="#27AE60" points="1788.2075,2720.3516,1765.7075,2710.3516,1775.7075,2720.3516,1765.7075,2730.3516,1788.2075,2720.3516" style="stroke:#27AE60;stroke-width:2.5;"/><polygon fill="#000000" points="1680.625,2690.791,1658.0123,2683.4437,1658.0123,2698.1383,1680.625,2690.791" style="stroke:#000000;stroke-width:2.5;"/><text fill="#000000" font-family="sans-serif" font-size="32.5" lengthAdjust="spacing" textLength="52.5" x="1690.625" y="2704.0894">use</text><!--MD5=[c3549529e7ff18f2c99749f19b46a06f]
link PoolRemotePluginSpi to ObservableRemotePluginSpi--><!--MD5=[f350a7874de73141285b15884b8d9b3a]
link ObservableRemotePluginSpi to RemoteReaderSpi--><!--MD5=[fd7e36ef0ca36cd5a04cb1f52e23048c]
@startuml
title
    Keyple 2.0 - keyple-java-distributed-remote-api - 2.0 (09/02/2021)
end title

' == THEME ==

'Couleurs issues de : https://htmlcolorcodes.com/fr/tableau-de-couleur/tableau-de-couleur-design-plat/
!define C_GREY1 F8F9F9
!define C_GREY2 F2F3F4
!define C_GREY3 E5E7E9
!define C_GREY4 D7DBDD
!define C_GREY5 CACFD2
!define C_GREY6 BDC3C7
!define C_LINK 3498DB
!define C_USE 27AE60

skinparam Shadowing false
skinparam ClassFontStyle italic
skinparam ClassBorderColor #D4AC0D
skinparam stereotypeABorderColor #A9DCDF
skinparam stereotypeIBorderColor #B4A7E5
skinparam stereotypeCBorderColor #ADD1B2
skinparam stereotypeEBorderColor #EB93DF
' Red
skinparam ClassBackgroundColor<<red>> #FDEDEC
skinparam ClassBorderColor<<red>> #E74C3C
hide <<red>> stereotype
' Purple
skinparam ClassBackgroundColor<<purple>> #F4ECF7
skinparam ClassBorderColor<<purple>> #8E44AD
hide <<purple>> stereotype
' blue
skinparam ClassBackgroundColor<<blue>> #EBF5FB
skinparam ClassBorderColor<<blue>> #3498DB
hide <<blue>> stereotype
' Green
skinparam ClassBackgroundColor<<green>> #E9F7EF
skinparam ClassBorderColor<<green>> #27AE60
hide <<green>> stereotype
' Grey
skinparam ClassBackgroundColor<<grey>> #EAECEE
skinparam ClassBorderColor<<grey>> #2C3E50
hide <<grey>> stereotype

' == CONTENT ==

package "org.eclipse.keyple.core.distributed.remote" as api {
    +class "**final** DistributedRemoteApiProperties" as ApiProperties {
        +{static} **final** String VERSION
    }
    +interface ObservableRemotePluginManager {
        - -
        +RemoteReaderManager createReader (String readerName,
            \tRemoteReaderSpi remoteReaderSpi)
        +RemoteReaderManager getReader (String readerName)
        +void onPluginEvent (String jsonData)
    }
    +interface RemoteReaderManager {
    }
    +interface ObservableRemoteReaderManager extends RemoteReaderManager {
        - -
        +void onReaderEvent (String jsonData)
    }
    package spi {
        +interface RemoteReaderSpi {
            - -
            +void setManager (RemoteReaderManger manager)
            ..
            +boolean isContactless ()
            +boolean isCardPresent ()
            ..
            +void releaseChannel ()
            ..
            +String processCardSelectionRequests (String jsonData)
            +String processCardRequest (String jsonData)
        }
        +interface ObservableRemoteReaderSpi extends RemoteReaderSpi {
            - -
            +void startCardDetection (String jsonData)
            +void stopCardDetection ()
            +void setDefaultSelectionRequest (String jsonData)
            +void finalizeCardProcessing ()
        }
        +interface RemotePluginSpi {
            +Map<String, RemoteReaderSpi> initNativeReaders ()
        }
        +interface ObservableRemotePluginSpi extends RemotePluginSpi {
            - -
            +void setManager (ObservableRemotePluginManager manager)
        }
        +interface PoolRemotePluginSpi {
            - -
            +SortedSet<String> getReaderGroupReferences ()
            ..
            +RemoteReaderSpi allocateReader (String groupReference)
            +void releaseReader (RemoteReaderSpi reader)
        }
        +interface RemotePluginFactorySpi {
            +String getDistributedRemoteApiVersion ()
            +String getCommonsApiVersion ()
            +String getPluginName ()
            +RemotePluginSpi getPlugin ()
        }
        +interface PoolRemotePluginFactorySpi {
            +String getDistributedRemoteApiVersion ()
            +String getCommonsApiVersion ()
            +String getPluginName ()
            +PoolRemotePluginSpi getPlugin ()
        }
    }
}

' Associations

ObservableRemotePluginManager ..> RemoteReaderManager #C_USE : provide >

RemotePluginFactorySpi .up.> ApiProperties #C_USE : provide\nAPI version <
RemotePluginFactorySpi ..> RemotePluginSpi #C_USE : provide >

PoolRemotePluginFactorySpi .up.> ApiProperties #C_USE : provide\nAPI version <
PoolRemotePluginFactorySpi ..> PoolRemotePluginSpi #C_USE : provide >

RemotePluginSpi ..> RemoteReaderSpi #C_USE : provide >

ObservableRemotePluginSpi .left.> ObservableRemotePluginManager #C_USE : use >

PoolRemotePluginSpi ..> RemoteReaderSpi #C_USE : provide >

RemoteReaderSpi .left.> RemoteReaderManager #C_USE : use >

ObservableRemoteReaderSpi .left.> ObservableRemoteReaderManager #C_USE : use >

' == LAYOUT ==

PoolRemotePluginSpi -[hidden]- ObservableRemotePluginSpi

ObservableRemotePluginSpi -[hidden]- RemoteReaderSpi

' == STYLE ==

package api #C_GREY1 {}
package spi #C_GREY2 {}

@enduml

@startuml
title
    Keyple 2.0 - keyple-java-distributed-remote-api - 2.0 (09/02/2021)
end title



skinparam Shadowing false
skinparam ClassFontStyle italic
skinparam ClassBorderColor #D4AC0D
skinparam stereotypeABorderColor #A9DCDF
skinparam stereotypeIBorderColor #B4A7E5
skinparam stereotypeCBorderColor #ADD1B2
skinparam stereotypeEBorderColor #EB93DF
skinparam ClassBackgroundColor<<red>> #FDEDEC
skinparam ClassBorderColor<<red>> #E74C3C
hide <<red>> stereotype
skinparam ClassBackgroundColor<<purple>> #F4ECF7
skinparam ClassBorderColor<<purple>> #8E44AD
hide <<purple>> stereotype
skinparam ClassBackgroundColor<<blue>> #EBF5FB
skinparam ClassBorderColor<<blue>> #3498DB
hide <<blue>> stereotype
skinparam ClassBackgroundColor<<green>> #E9F7EF
skinparam ClassBorderColor<<green>> #27AE60
hide <<green>> stereotype
skinparam ClassBackgroundColor<<grey>> #EAECEE
skinparam ClassBorderColor<<grey>> #2C3E50
hide <<grey>> stereotype


package "org.eclipse.keyple.core.distributed.remote" as api {
    +class "**final** DistributedRemoteApiProperties" as ApiProperties {
        +{static} **final** String VERSION
    }
    +interface ObservableRemotePluginManager {
        - -
        +RemoteReaderManager createReader (String readerName,
            \tRemoteReaderSpi remoteReaderSpi)
        +RemoteReaderManager getReader (String readerName)
        +void onPluginEvent (String jsonData)
    }
    +interface RemoteReaderManager {
    }
    +interface ObservableRemoteReaderManager extends RemoteReaderManager {
        - -
        +void onReaderEvent (String jsonData)
    }
    package spi {
        +interface RemoteReaderSpi {
            - -
            +void setManager (RemoteReaderManger manager)
            ..
            +boolean isContactless ()
            +boolean isCardPresent ()
            ..
            +void releaseChannel ()
            ..
            +String processCardSelectionRequests (String jsonData)
            +String processCardRequest (String jsonData)
        }
        +interface ObservableRemoteReaderSpi extends RemoteReaderSpi {
            - -
            +void startCardDetection (String jsonData)
            +void stopCardDetection ()
            +void setDefaultSelectionRequest (String jsonData)
            +void finalizeCardProcessing ()
        }
        +interface RemotePluginSpi {
            +Map<String, RemoteReaderSpi> initNativeReaders ()
        }
        +interface ObservableRemotePluginSpi extends RemotePluginSpi {
            - -
            +void setManager (ObservableRemotePluginManager manager)
        }
        +interface PoolRemotePluginSpi {
            - -
            +SortedSet<String> getReaderGroupReferences ()
            ..
            +RemoteReaderSpi allocateReader (String groupReference)
            +void releaseReader (RemoteReaderSpi reader)
        }
        +interface RemotePluginFactorySpi {
            +String getDistributedRemoteApiVersion ()
            +String getCommonsApiVersion ()
            +String getPluginName ()
            +RemotePluginSpi getPlugin ()
        }
        +interface PoolRemotePluginFactorySpi {
            +String getDistributedRemoteApiVersion ()
            +String getCommonsApiVersion ()
            +String getPluginName ()
            +PoolRemotePluginSpi getPlugin ()
        }
    }
}


ObservableRemotePluginManager ..> RemoteReaderManager #27AE60 : provide >

RemotePluginFactorySpi .up.> ApiProperties #27AE60 : provide\nAPI version <
RemotePluginFactorySpi ..> RemotePluginSpi #27AE60 : provide >

PoolRemotePluginFactorySpi .up.> ApiProperties #27AE60 : provide\nAPI version <
PoolRemotePluginFactorySpi ..> PoolRemotePluginSpi #27AE60 : provide >

RemotePluginSpi ..> RemoteReaderSpi #27AE60 : provide >

ObservableRemotePluginSpi .left.> ObservableRemotePluginManager #27AE60 : use >

PoolRemotePluginSpi ..> RemoteReaderSpi #27AE60 : provide >

RemoteReaderSpi .left.> RemoteReaderManager #27AE60 : use >

ObservableRemoteReaderSpi .left.> ObservableRemoteReaderManager #27AE60 : use >


PoolRemotePluginSpi -[hidden]- ObservableRemotePluginSpi

ObservableRemotePluginSpi -[hidden]- RemoteReaderSpi


package api #F8F9F9 {}
package spi #F2F3F4 {}

@enduml

PlantUML version 1.2021.01(Tue Feb 02 08:55:08 CET 2021)
(GPL source distribution)
Java Runtime: OpenJDK Runtime Environment
JVM: OpenJDK 64-Bit Server VM
Default Encoding: Cp1252
Language: fr
Country: FR
--></g></svg>