<?xml version="1.0" encoding="UTF-8" standalone="no"?><svg xmlns="http://www.w3.org/2000/svg" xmlns:xlink="http://www.w3.org/1999/xlink" contentScriptType="application/ecmascript" contentStyleType="text/css" height="1520px" preserveAspectRatio="none" style="width:2427px;height:1520px;" version="1.1" viewBox="0 0 2427 1520" width="2427.5px" zoomAndPan="magnify"><defs/><g><text fill="#000000" font-family="sans-serif" font-size="45" lengthAdjust="spacing" textLength="1327.5" x="533.75" y="46.7139">Keyple 2.0 - Specific Distributed Local Service - 2.0.0 (08/03/2021)</text><!--MD5=[621c849533070c5aba8aa732369aa9f8]
cluster commonsApi--><polygon fill="#F8F9F9" points="700,71.6016,1285,71.6016,1302.5,130.625,2385,130.625,2385,361.6016,700,361.6016,700,71.6016" style="stroke:#000000;stroke-width:3.75;"/><line style="stroke:#000000;stroke-width:3.75;" x1="700" x2="1302.5" y1="130.625" y2="130.625"/><text fill="#000000" font-family="sans-serif" font-size="35" font-weight="bold" lengthAdjust="spacing" textLength="570" x="710" y="112.9346">org.eclipse.keyple.core.common</text><!--MD5=[4ab15a897933482ba12a6ad640dff6f8]
cluster distributedLocalSpi--><polygon fill="#F8F9F9" points="1052.5,1219.1016,1837.5,1219.1016,1855,1278.125,1980,1278.125,1980,1504.1016,1052.5,1504.1016,1052.5,1219.1016" style="stroke:#000000;stroke-width:3.75;"/><line style="stroke:#000000;stroke-width:3.75;" x1="1052.5" x2="1855" y1="1278.125" y2="1278.125"/><text fill="#000000" font-family="sans-serif" font-size="35" font-weight="bold" lengthAdjust="spacing" textLength="770" x="1062.5" y="1260.4346">org.eclipse.keyple.core.distributed.local.spi</text><!--MD5=[f58994b942058ed8b057f206ca1af27c]
cluster specificDistributedLocalApi--><polygon fill="#F8F9F9" points="40,484.1016,1352.5,484.1016,1370,543.125,2292.5,543.125,2292.5,1116.6016,40,1116.6016,40,484.1016" style="stroke:#000000;stroke-width:3.75;"/><line style="stroke:#000000;stroke-width:3.75;" x1="40" x2="1370" y1="543.125" y2="543.125"/><text fill="#000000" font-family="sans-serif" font-size="35" font-weight="bold" lengthAdjust="spacing" textLength="1297.5" x="50" y="525.4346">org.eclipse.keyple.distributed.local.xxx (specific distributed local service)</text><!--MD5=[a2300e51c70a09b3b8c0440329c7d6d3]
class KeypleDistributedLocalServiceExtensionFactory--><rect codeLine="48" fill="#FEFECE" height="120" id="KeypleDistributedLocalServiceExtensionFactory" style="stroke:#D4AC0D;stroke-width:3.75;" width="765" x="807.5" y="181.6016"/><ellipse cx="845" cy="221.6016" fill="#B4A7E5" rx="27.5" ry="27.5" style="stroke:#B4A7E5;stroke-width:2.5;"/><path d="M847.5,214.1016 L847.5,229.1016 L852.5,229.1016 L853.7109,229.1016 L855,230.6641 L855,231.6016 L855,232.5391 L853.7109,234.1016 L852.5,234.1016 L837.5,234.1016 L836.2891,234.1016 L835,232.5391 L835,231.6016 L835,230.6641 L836.2891,229.1016 L837.5,229.1016 L842.5,229.1016 L842.5,214.1016 L837.5,214.1016 L836.2891,214.1016 L835,212.5391 L835,211.6016 L835,210.6641 L836.2891,209.1016 L837.5,209.1016 L852.5,209.1016 L853.7109,209.1016 L855,210.6641 L855,211.6016 L855,212.5391 L853.7109,214.1016 L852.5,214.1016 L847.5,214.1016 Z " fill="#000000"/><ellipse cx="892.5" cy="220.3516" fill="#84BE84" rx="7.5" ry="7.5" style="stroke:#038048;stroke-width:2.5;"/><text fill="#000000" font-family="sans-serif" font-size="30" font-style="italic" lengthAdjust="spacing" textLength="657.5" x="907.5" y="233.877">KeypleDistributedLocalServiceExtensionFactory</text><line style="stroke:#D4AC0D;stroke-width:3.75;" x1="810" x2="1570" y1="261.6016" y2="261.6016"/><line style="stroke:#D4AC0D;stroke-width:3.75;" x1="810" x2="1570" y1="281.6016" y2="281.6016"/><!--MD5=[2756593ddab659782225b53cebc4a27a]
class KeypleDistributedLocalServiceExtension--><rect codeLine="50" fill="#FEFECE" height="120" id="KeypleDistributedLocalServiceExtension" style="stroke:#D4AC0D;stroke-width:3.75;" width="665" x="1660" y="181.6016"/><ellipse cx="1697.5" cy="221.6016" fill="#B4A7E5" rx="27.5" ry="27.5" style="stroke:#B4A7E5;stroke-width:2.5;"/><path d="M1700,214.1016 L1700,229.1016 L1705,229.1016 L1706.2109,229.1016 L1707.5,230.6641 L1707.5,231.6016 L1707.5,232.5391 L1706.2109,234.1016 L1705,234.1016 L1690,234.1016 L1688.7891,234.1016 L1687.5,232.5391 L1687.5,231.6016 L1687.5,230.6641 L1688.7891,229.1016 L1690,229.1016 L1695,229.1016 L1695,214.1016 L1690,214.1016 L1688.7891,214.1016 L1687.5,212.5391 L1687.5,211.6016 L1687.5,210.6641 L1688.7891,209.1016 L1690,209.1016 L1705,209.1016 L1706.2109,209.1016 L1707.5,210.6641 L1707.5,211.6016 L1707.5,212.5391 L1706.2109,214.1016 L1705,214.1016 L1700,214.1016 Z " fill="#000000"/><ellipse cx="1745" cy="220.3516" fill="#84BE84" rx="7.5" ry="7.5" style="stroke:#038048;stroke-width:2.5;"/><text fill="#000000" font-family="sans-serif" font-size="30" font-style="italic" lengthAdjust="spacing" textLength="557.5" x="1760" y="233.877">KeypleDistributedLocalServiceExtension</text><line style="stroke:#D4AC0D;stroke-width:3.75;" x1="1662.5" x2="2322.5" y1="261.6016" y2="261.6016"/><line style="stroke:#D4AC0D;stroke-width:3.75;" x1="1662.5" x2="2322.5" y1="281.6016" y2="281.6016"/><!--MD5=[ba23ee47f0072bc0aa0f26e4f66e8703]
class LocalServiceFactorySpi--><rect codeLine="101" fill="#EBF5FB" height="154.5898" id="LocalServiceFactorySpi" style="stroke:#3498DB;stroke-width:3.75;" width="430" x="1092.5" y="1309.1016"/><ellipse cx="1130" cy="1349.1016" fill="#B4A7E5" rx="27.5" ry="27.5" style="stroke:#B4A7E5;stroke-width:2.5;"/><path d="M1132.5,1341.6016 L1132.5,1356.6016 L1137.5,1356.6016 L1138.7109,1356.6016 L1140,1358.1641 L1140,1359.1016 L1140,1360.0391 L1138.7109,1361.6016 L1137.5,1361.6016 L1122.5,1361.6016 L1121.2891,1361.6016 L1120,1360.0391 L1120,1359.1016 L1120,1358.1641 L1121.2891,1356.6016 L1122.5,1356.6016 L1127.5,1356.6016 L1127.5,1341.6016 L1122.5,1341.6016 L1121.2891,1341.6016 L1120,1340.0391 L1120,1339.1016 L1120,1338.1641 L1121.2891,1336.6016 L1122.5,1336.6016 L1137.5,1336.6016 L1138.7109,1336.6016 L1140,1338.1641 L1140,1339.1016 L1140,1340.0391 L1138.7109,1341.6016 L1137.5,1341.6016 L1132.5,1341.6016 Z " fill="#000000"/><ellipse cx="1177.5" cy="1347.8516" fill="#84BE84" rx="7.5" ry="7.5" style="stroke:#038048;stroke-width:2.5;"/><text fill="#000000" font-family="sans-serif" font-size="30" font-style="italic" lengthAdjust="spacing" textLength="322.5" x="1192.5" y="1361.377">LocalServiceFactorySpi</text><line style="stroke:#3498DB;stroke-width:3.75;" x1="1095" x2="1520" y1="1389.1016" y2="1389.1016"/><text fill="#000000" font-family="sans-serif" font-size="27.5" lengthAdjust="spacing" textLength="22.5" x="1107.5" y="1427.6489">...</text><line style="stroke:#3498DB;stroke-width:3.75;" x1="1095" x2="1520" y1="1443.6914" y2="1443.6914"/><!--MD5=[a6e181576af5f47505adeb022c95499b]
class LocalServiceSpi--><rect codeLine="102" fill="#EBF5FB" height="154.5898" id="LocalServiceSpi" style="stroke:#3498DB;stroke-width:3.75;" width="330" x="1610" y="1309.1016"/><ellipse cx="1647.5" cy="1349.1016" fill="#B4A7E5" rx="27.5" ry="27.5" style="stroke:#B4A7E5;stroke-width:2.5;"/><path d="M1650,1341.6016 L1650,1356.6016 L1655,1356.6016 L1656.2109,1356.6016 L1657.5,1358.1641 L1657.5,1359.1016 L1657.5,1360.0391 L1656.2109,1361.6016 L1655,1361.6016 L1640,1361.6016 L1638.7891,1361.6016 L1637.5,1360.0391 L1637.5,1359.1016 L1637.5,1358.1641 L1638.7891,1356.6016 L1640,1356.6016 L1645,1356.6016 L1645,1341.6016 L1640,1341.6016 L1638.7891,1341.6016 L1637.5,1340.0391 L1637.5,1339.1016 L1637.5,1338.1641 L1638.7891,1336.6016 L1640,1336.6016 L1655,1336.6016 L1656.2109,1336.6016 L1657.5,1338.1641 L1657.5,1339.1016 L1657.5,1340.0391 L1656.2109,1341.6016 L1655,1341.6016 L1650,1341.6016 Z " fill="#000000"/><ellipse cx="1695" cy="1347.8516" fill="#84BE84" rx="7.5" ry="7.5" style="stroke:#038048;stroke-width:2.5;"/><text fill="#000000" font-family="sans-serif" font-size="30" font-style="italic" lengthAdjust="spacing" textLength="222.5" x="1710" y="1361.377">LocalServiceSpi</text><line style="stroke:#3498DB;stroke-width:3.75;" x1="1612.5" x2="1937.5" y1="1389.1016" y2="1389.1016"/><text fill="#000000" font-family="sans-serif" font-size="27.5" lengthAdjust="spacing" textLength="22.5" x="1625" y="1427.6489">...</text><line style="stroke:#3498DB;stroke-width:3.75;" x1="1612.5" x2="1937.5" y1="1443.6914" y2="1443.6914"/><!--MD5=[c2f8d5ea52fc8c67e9a58e007467b9b9]
class xxxDistributedLocalServiceFactoryBuilder--><rect codeLine="64" fill="#FEFECE" height="154.5898" id="xxxDistributedLocalServiceFactoryBuilder" style="stroke:#D4AC0D;stroke-width:3.75;" width="745" x="147.5" y="594.1016"/><ellipse cx="185" cy="634.1016" fill="#ADD1B2" rx="27.5" ry="27.5" style="stroke:#ADD1B2;stroke-width:2.5;"/><path d="M190,625.3516 Q190.5078,624.1016 191.0938,623.4766 Q191.6797,622.8516 192.3438,622.8516 Q193.5156,622.8516 194.2578,623.5547 Q195,624.2578 195,625.8984 L195,629.8047 Q195,631.4453 194.2969,632.1484 Q193.5938,632.8516 192.5,632.8516 Q191.5234,632.8516 190.8984,632.4219 Q190.2734,631.9922 190,630.8594 Q189.8828,630.0781 189.4531,629.6484 Q188.6719,628.8281 187.2656,628.3594 Q185.8594,627.8516 184.4531,627.8516 Q182.6953,627.8516 181.2109,628.5547 Q179.7656,629.2578 178.6328,630.8203 Q177.5,632.3828 177.5,634.5313 L177.5,636.8359 Q177.5,639.4141 179.6094,641.1328 Q181.7188,642.8516 185.4688,642.8516 Q187.6953,642.8516 189.2578,642.3438 Q190.1563,642.0703 191.1719,641.1719 Q191.8359,640.6641 192.1875,640.5078 Q192.5391,640.3516 192.9688,640.3516 Q193.7891,640.3516 194.375,641.0156 Q195,641.6406 195,642.5391 Q195,643.3984 194.1406,644.4141 Q192.8906,645.8984 190.8984,646.7188 Q188.2813,647.8516 185.0781,647.8516 Q181.3281,647.8516 178.3203,646.3672 Q175.8984,645.1953 174.1797,642.6563 Q172.5,640.1172 172.5,637.1094 L172.5,634.375 Q172.5,631.25 173.9844,628.5156 Q175.5078,625.7813 178.125,624.3359 Q180.7813,622.8516 183.75,622.8516 Q185.5469,622.8516 187.1094,623.4766 Q188.6719,624.1016 190,625.3516 Z " fill="#000000"/><ellipse cx="232.5" cy="632.8516" fill="#84BE84" rx="7.5" ry="7.5" style="stroke:#038048;stroke-width:2.5;"/><text fill="#000000" font-family="sans-serif" font-size="30" font-style="italic" font-weight="bold" lengthAdjust="spacing" textLength="60" x="247.5" y="646.377">final</text><text fill="#000000" font-family="sans-serif" font-size="30" font-style="italic" lengthAdjust="spacing" textLength="570" x="315" y="646.377">xxxDistributedLocalServiceFactoryBuilder</text><line style="stroke:#D4AC0D;stroke-width:3.75;" x1="150" x2="890" y1="674.1016" y2="674.1016"/><line style="stroke:#D4AC0D;stroke-width:3.75;" x1="150" x2="890" y1="694.1016" y2="694.1016"/><ellipse cx="175" cy="721.6016" fill="#84BE84" rx="7.5" ry="7.5" style="stroke:#038048;stroke-width:2.5;"/><text fill="#000000" font-family="sans-serif" font-size="27.5" lengthAdjust="spacing" text-decoration="underline" textLength="587.5" x="197.5" y="732.6489">xxxDistributedLocalServiceFactory getFactory ()</text><!--MD5=[262abba3cc5e4cd64e86278d3adc4ee0]
class xxxDistributedLocalServiceFactory--><rect codeLine="67" fill="#FEFECE" height="154.5898" id="xxxDistributedLocalServiceFactory" style="stroke:#D4AC0D;stroke-width:3.75;" width="580" x="1085" y="594.1016"/><ellipse cx="1122.5" cy="634.1016" fill="#B4A7E5" rx="27.5" ry="27.5" style="stroke:#B4A7E5;stroke-width:2.5;"/><path d="M1125,626.6016 L1125,641.6016 L1130,641.6016 L1131.2109,641.6016 L1132.5,643.1641 L1132.5,644.1016 L1132.5,645.0391 L1131.2109,646.6016 L1130,646.6016 L1115,646.6016 L1113.7891,646.6016 L1112.5,645.0391 L1112.5,644.1016 L1112.5,643.1641 L1113.7891,641.6016 L1115,641.6016 L1120,641.6016 L1120,626.6016 L1115,626.6016 L1113.7891,626.6016 L1112.5,625.0391 L1112.5,624.1016 L1112.5,623.1641 L1113.7891,621.6016 L1115,621.6016 L1130,621.6016 L1131.2109,621.6016 L1132.5,623.1641 L1132.5,624.1016 L1132.5,625.0391 L1131.2109,626.6016 L1130,626.6016 L1125,626.6016 Z " fill="#000000"/><ellipse cx="1170" cy="632.8516" fill="#84BE84" rx="7.5" ry="7.5" style="stroke:#038048;stroke-width:2.5;"/><text fill="#000000" font-family="sans-serif" font-size="30" font-style="italic" lengthAdjust="spacing" textLength="472.5" x="1185" y="646.377">xxxDistributedLocalServiceFactory</text><line style="stroke:#D4AC0D;stroke-width:3.75;" x1="1087.5" x2="1662.5" y1="674.1016" y2="674.1016"/><text fill="#000000" font-family="sans-serif" font-size="27.5" lengthAdjust="spacing" textLength="22.5" x="1100" y="712.6489">...</text><line style="stroke:#D4AC0D;stroke-width:3.75;" x1="1087.5" x2="1662.5" y1="728.6914" y2="728.6914"/><!--MD5=[a9963d753abb59bff14d2d5130731241]
class xxxDistributedLocalService--><rect codeLine="70" fill="#FEFECE" height="154.5898" id="xxxDistributedLocalService" style="stroke:#D4AC0D;stroke-width:3.75;" width="480" x="1752.5" y="594.1016"/><ellipse cx="1790" cy="634.1016" fill="#B4A7E5" rx="27.5" ry="27.5" style="stroke:#B4A7E5;stroke-width:2.5;"/><path d="M1792.5,626.6016 L1792.5,641.6016 L1797.5,641.6016 L1798.7109,641.6016 L1800,643.1641 L1800,644.1016 L1800,645.0391 L1798.7109,646.6016 L1797.5,646.6016 L1782.5,646.6016 L1781.2891,646.6016 L1780,645.0391 L1780,644.1016 L1780,643.1641 L1781.2891,641.6016 L1782.5,641.6016 L1787.5,641.6016 L1787.5,626.6016 L1782.5,626.6016 L1781.2891,626.6016 L1780,625.0391 L1780,624.1016 L1780,623.1641 L1781.2891,621.6016 L1782.5,621.6016 L1797.5,621.6016 L1798.7109,621.6016 L1800,623.1641 L1800,624.1016 L1800,625.0391 L1798.7109,626.6016 L1797.5,626.6016 L1792.5,626.6016 Z " fill="#000000"/><ellipse cx="1837.5" cy="632.8516" fill="#84BE84" rx="7.5" ry="7.5" style="stroke:#038048;stroke-width:2.5;"/><text fill="#000000" font-family="sans-serif" font-size="30" font-style="italic" lengthAdjust="spacing" textLength="372.5" x="1852.5" y="646.377">xxxDistributedLocalService</text><line style="stroke:#D4AC0D;stroke-width:3.75;" x1="1755" x2="2230" y1="674.1016" y2="674.1016"/><text fill="#000000" font-family="sans-serif" font-size="27.5" lengthAdjust="spacing" textLength="22.5" x="1767.5" y="712.6489">...</text><line style="stroke:#D4AC0D;stroke-width:3.75;" x1="1755" x2="2230" y1="728.6914" y2="728.6914"/><!--MD5=[33fdf7cecd44bc133f8b96a2fe28c994]
class xxxDistributedLocalServiceFactoryAdapter--><rect codeLine="100" fill="#EBF5FB" height="154.5898" id="xxxDistributedLocalServiceFactoryAdapter" style="stroke:#3498DB;stroke-width:3.75;" width="755" x="835" y="901.6016"/><ellipse cx="872.5" cy="941.6016" fill="#ADD1B2" rx="27.5" ry="27.5" style="stroke:#ADD1B2;stroke-width:2.5;"/><path d="M877.5,932.8516 Q878.0078,931.6016 878.5938,930.9766 Q879.1797,930.3516 879.8438,930.3516 Q881.0156,930.3516 881.7578,931.0547 Q882.5,931.7578 882.5,933.3984 L882.5,937.3047 Q882.5,938.9453 881.7969,939.6484 Q881.0938,940.3516 880,940.3516 Q879.0234,940.3516 878.3984,939.9219 Q877.7734,939.4922 877.5,938.3594 Q877.3828,937.5781 876.9531,937.1484 Q876.1719,936.3281 874.7656,935.8594 Q873.3594,935.3516 871.9531,935.3516 Q870.1953,935.3516 868.7109,936.0547 Q867.2656,936.7578 866.1328,938.3203 Q865,939.8828 865,942.0313 L865,944.3359 Q865,946.9141 867.1094,948.6328 Q869.2188,950.3516 872.9688,950.3516 Q875.1953,950.3516 876.7578,949.8438 Q877.6563,949.5703 878.6719,948.6719 Q879.3359,948.1641 879.6875,948.0078 Q880.0391,947.8516 880.4688,947.8516 Q881.2891,947.8516 881.875,948.5156 Q882.5,949.1406 882.5,950.0391 Q882.5,950.8984 881.6406,951.9141 Q880.3906,953.3984 878.3984,954.2188 Q875.7813,955.3516 872.5781,955.3516 Q868.8281,955.3516 865.8203,953.8672 Q863.3984,952.6953 861.6797,950.1563 Q860,947.6172 860,944.6094 L860,941.875 Q860,938.75 861.4844,936.0156 Q863.0078,933.2813 865.625,931.8359 Q868.2813,930.3516 871.25,930.3516 Q873.0469,930.3516 874.6094,930.9766 Q876.1719,931.6016 877.5,932.8516 Z " fill="#000000"/><polygon fill="#4177AF" points="920,930.3516,910,945.3516,930,945.3516" style="stroke:#1963A0;stroke-width:2.5;"/><text fill="#000000" font-family="sans-serif" font-size="30" font-style="italic" font-weight="bold" lengthAdjust="spacing" textLength="60" x="935" y="953.877">final</text><text fill="#000000" font-family="sans-serif" font-size="30" font-style="italic" lengthAdjust="spacing" textLength="580" x="1002.5" y="953.877">xxxDistributedLocalServiceFactoryAdapter</text><line style="stroke:#3498DB;stroke-width:3.75;" x1="837.5" x2="1587.5" y1="981.6016" y2="981.6016"/><text fill="#000000" font-family="sans-serif" font-size="27.5" lengthAdjust="spacing" textLength="22.5" x="850" y="1020.1489">...</text><line style="stroke:#3498DB;stroke-width:3.75;" x1="837.5" x2="1587.5" y1="1036.1914" y2="1036.1914"/><!--MD5=[8f3105d06d3e945a70a28bfcc5abce4d]
class xxxDistributedLocalAdapter--><rect codeLine="99" fill="#EBF5FB" height="154.5898" id="xxxDistributedLocalAdapter" style="stroke:#3498DB;stroke-width:3.75;" width="552.5" x="1678.75" y="901.6016"/><ellipse cx="1716.25" cy="941.6016" fill="#ADD1B2" rx="27.5" ry="27.5" style="stroke:#ADD1B2;stroke-width:2.5;"/><path d="M1721.25,932.8516 Q1721.7578,931.6016 1722.3438,930.9766 Q1722.9297,930.3516 1723.5938,930.3516 Q1724.7656,930.3516 1725.5078,931.0547 Q1726.25,931.7578 1726.25,933.3984 L1726.25,937.3047 Q1726.25,938.9453 1725.5469,939.6484 Q1724.8438,940.3516 1723.75,940.3516 Q1722.7734,940.3516 1722.1484,939.9219 Q1721.5234,939.4922 1721.25,938.3594 Q1721.1328,937.5781 1720.7031,937.1484 Q1719.9219,936.3281 1718.5156,935.8594 Q1717.1094,935.3516 1715.7031,935.3516 Q1713.9453,935.3516 1712.4609,936.0547 Q1711.0156,936.7578 1709.8828,938.3203 Q1708.75,939.8828 1708.75,942.0313 L1708.75,944.3359 Q1708.75,946.9141 1710.8594,948.6328 Q1712.9688,950.3516 1716.7188,950.3516 Q1718.9453,950.3516 1720.5078,949.8438 Q1721.4063,949.5703 1722.4219,948.6719 Q1723.0859,948.1641 1723.4375,948.0078 Q1723.7891,947.8516 1724.2188,947.8516 Q1725.0391,947.8516 1725.625,948.5156 Q1726.25,949.1406 1726.25,950.0391 Q1726.25,950.8984 1725.3906,951.9141 Q1724.1406,953.3984 1722.1484,954.2188 Q1719.5313,955.3516 1716.3281,955.3516 Q1712.5781,955.3516 1709.5703,953.8672 Q1707.1484,952.6953 1705.4297,950.1563 Q1703.75,947.6172 1703.75,944.6094 L1703.75,941.875 Q1703.75,938.75 1705.2344,936.0156 Q1706.7578,933.2813 1709.375,931.8359 Q1712.0313,930.3516 1715,930.3516 Q1716.7969,930.3516 1718.3594,930.9766 Q1719.9219,931.6016 1721.25,932.8516 Z " fill="#000000"/><polygon fill="#4177AF" points="1763.75,930.3516,1753.75,945.3516,1773.75,945.3516" style="stroke:#1963A0;stroke-width:2.5;"/><text fill="#000000" font-family="sans-serif" font-size="30" font-style="italic" font-weight="bold" lengthAdjust="spacing" textLength="60" x="1778.75" y="953.877">final</text><text fill="#000000" font-family="sans-serif" font-size="30" font-style="italic" lengthAdjust="spacing" textLength="377.5" x="1846.25" y="953.877">xxxDistributedLocalAdapter</text><line style="stroke:#3498DB;stroke-width:3.75;" x1="1681.25" x2="2228.75" y1="981.6016" y2="981.6016"/><text fill="#000000" font-family="sans-serif" font-size="27.5" lengthAdjust="spacing" textLength="22.5" x="1693.75" y="1020.1489">...</text><line style="stroke:#3498DB;stroke-width:3.75;" x1="1681.25" x2="2228.75" y1="1036.1914" y2="1036.1914"/><!--MD5=[2093ff23ff253f71aa2c65575f18c674]
reverse link KeypleDistributedLocalServiceExtensionFactory to xxxDistributedLocalServiceFactory--><path d="M1235.695,349.0791 C1268.73,424.9666 1312.575,525.6916 1342.1825,593.7116 " fill="none" id="KeypleDistributedLocalServiceExtensionFactory-backto-xxxDistributedLocalServiceFactory" style="stroke:#A80036;stroke-width:2.5;"/><polygon fill="none" points="1219.245,355.1341,1215.335,302.3041,1251.3375,341.1641,1219.245,355.1341" style="stroke:#A80036;stroke-width:2.5;"/><!--MD5=[90e382a2df282d68530da7c405ea071b]
reverse link KeypleDistributedLocalServiceExtension to xxxDistributedLocalService--><path d="M1992.5,352.3616 C1992.5,427.8491 1992.5,526.6691 1992.5,593.7116 " fill="none" id="KeypleDistributedLocalServiceExtension-backto-xxxDistributedLocalService" style="stroke:#A80036;stroke-width:2.5;"/><polygon fill="none" points="1975,352.3041,1992.5,302.3041,2010,352.3041,1975,352.3041" style="stroke:#A80036;stroke-width:2.5;"/><!--MD5=[7d6d9714923fb9b40dbdfaa77fdb237d]
reverse link xxxDistributedLocalServiceFactory to xxxDistributedLocalServiceFactoryAdapter--><path d="M1310.215,794.7016 C1290.95,830.5666 1270.395,868.8291 1253.1325,900.9641 " fill="none" id="xxxDistributedLocalServiceFactory-backto-xxxDistributedLocalServiceFactoryAdapter" style="stroke:#A80036;stroke-width:2.5;stroke-dasharray:7.0,7.0;"/><polygon fill="none" points="1295.335,785.4191,1334.4125,749.6541,1326.1675,801.9841,1295.335,785.4191" style="stroke:#A80036;stroke-width:2.5;"/><!--MD5=[38fb0a208dad0d9419c533179052e846]
reverse link LocalServiceFactorySpi to xxxDistributedLocalServiceFactoryAdapter--><path d="M1278.0125,1259.1641 C1262.4125,1193.0716 1243.77,1114.0891 1230.37,1057.3091 " fill="none" id="LocalServiceFactorySpi-backto-xxxDistributedLocalServiceFactoryAdapter" style="stroke:#A80036;stroke-width:2.5;stroke-dasharray:7.0,7.0;"/><polygon fill="none" points="1295.2575,1256.0516,1289.7125,1308.7338,1261.1925,1264.0916,1295.2575,1256.0516" style="stroke:#A80036;stroke-width:2.5;"/><!--MD5=[76cf528ba56d5d26d2b0928a9c329221]
reverse link xxxDistributedLocalService to xxxDistributedLocalAdapter--><path d="M1976.9475,799.5516 C1972.68,833.9916 1968.18,870.2741 1964.3775,900.9641 " fill="none" id="xxxDistributedLocalService-backto-xxxDistributedLocalAdapter" style="stroke:#A80036;stroke-width:2.5;stroke-dasharray:7.0,7.0;"/><polygon fill="none" points="1959.615,797.1216,1983.135,749.6541,1994.35,801.4291,1959.615,797.1216" style="stroke:#A80036;stroke-width:2.5;"/><!--MD5=[f13a3444bf21b81d22d04e69d2b3a247]
reverse link LocalServiceSpi to xxxDistributedLocalAdapter--><path d="M1829.125,1263.0741 C1859.0275,1196.2091 1895.2475,1115.2141 1921.1425,1057.3091 " fill="none" id="LocalServiceSpi-backto-xxxDistributedLocalAdapter" style="stroke:#A80036;stroke-width:2.5;stroke-dasharray:7.0,7.0;"/><polygon fill="none" points="1845.0925,1270.2341,1808.705,1308.7338,1813.1425,1255.9466,1845.0925,1270.2341" style="stroke:#A80036;stroke-width:2.5;"/><!--MD5=[fdc022e61a4d7d2ad66d185c8db2c01b]
link xxxDistributedLocalAdapter to LocalServiceSpi--><!--MD5=[c113274f12388e9282238659c01b7221]
link xxxDistributedLocalServiceFactoryBuilder to xxxDistributedLocalServiceFactory--><path codeLine="84" d="M892.5275,671.6016 C952.355,671.6016 1013.6425,671.6016 1071.5975,671.6016 " fill="none" id="xxxDistributedLocalServiceFactoryBuilder-to-xxxDistributedLocalServiceFactory" style="stroke:#27AE60;stroke-width:2.5;stroke-dasharray:7.0,7.0;"/><polygon fill="#27AE60" points="1084.6875,671.6016,1062.1875,661.6016,1072.1875,671.6016,1062.1875,681.6016,1084.6875,671.6016" style="stroke:#27AE60;stroke-width:2.5;"/><polygon fill="#000000" points="961.25,642.041,938.6373,634.6937,938.6373,649.3883,961.25,642.041" style="stroke:#000000;stroke-width:2.5;"/><text fill="#000000" font-family="sans-serif" font-size="32.5" lengthAdjust="spacing" textLength="67.5" x="971.25" y="655.3394">build</text><!--MD5=[1377ec179a79e417830e7219346090e1]
reverse link xxxDistributedLocalServiceFactoryAdapter to xxxDistributedLocalAdapter--><path codeLine="85" d="M1623.4,979.1016 C1641.8025,979.1016 1660.205,979.1016 1678.6075,979.1016 " fill="none" id="xxxDistributedLocalServiceFactoryAdapter-backto-xxxDistributedLocalAdapter" style="stroke:#3498DB;stroke-width:2.5;"/><polygon fill="#3498DB" points="1590.275,979.1016,1605.275,989.1016,1620.275,979.1016,1605.275,969.1016,1590.275,979.1016" style="stroke:#3498DB;stroke-width:2.5;"/><text fill="#000000" font-family="sans-serif" font-size="32.5" lengthAdjust="spacing" textLength="17.5" x="1641.0584" y="971.4784">1</text><!--MD5=[36ce7900d6ccaf56444755772fce6b34]
link commonsApi to specificDistributedLocalApi--><!--MD5=[34f96e15e978562302b746a222ece16e]
link xxxDistributedLocalServiceFactoryAdapter to LocalServiceSpi--><!--MD5=[37fb5243dde238d16f229d9f4855fda0]
@startuml
title
    Keyple 2.0 - Specific Distributed Local Service - 2.0.0 (08/03/2021)
end title

' == THEME ==

'Couleurs issues de : https://htmlcolorcodes.com/fr/tableau-de-couleur/tableau-de-couleur-design-plat/
!define C_GREY1 F8F9F9
!define C_GREY2 F2F3F4
!define C_GREY3 E5E7E9
!define C_GREY4 D7DBDD
!define C_GREY5 CACFD2
!define C_GREY6 BDC3C7
!define C_LINK 3498DB
!define C_USE 27AE60

skinparam Shadowing false
skinparam ClassFontStyle italic
skinparam ClassBorderColor #D4AC0D
skinparam stereotypeABorderColor #A9DCDF
skinparam stereotypeIBorderColor #B4A7E5
skinparam stereotypeCBorderColor #ADD1B2
skinparam stereotypeEBorderColor #EB93DF
' Red
skinparam ClassBackgroundColor<<red>> #FDEDEC
skinparam ClassBorderColor<<red>> #E74C3C
hide <<red>> stereotype
' Purple
skinparam ClassBackgroundColor<<purple>> #F4ECF7
skinparam ClassBorderColor<<purple>> #8E44AD
hide <<purple>> stereotype
' blue
skinparam ClassBackgroundColor<<blue>> #EBF5FB
skinparam ClassBorderColor<<blue>> #3498DB
hide <<blue>> stereotype
' Green
skinparam ClassBackgroundColor<<green>> #E9F7EF
skinparam ClassBorderColor<<green>> #27AE60
hide <<green>> stereotype
' Grey
skinparam ClassBackgroundColor<<grey>> #EAECEE
skinparam ClassBorderColor<<grey>> #2C3E50
hide <<grey>> stereotype

' == CONTENT ==

package "org.eclipse.keyple.core.common" as commonsApi {
    +interface KeypleDistributedLocalServiceExtensionFactory {
    }
    +interface KeypleDistributedLocalServiceExtension {
    }
}

package "org.eclipse.keyple.core.distributed.local.spi" as distributedLocalSpi {
    +interface LocalServiceFactorySpi {
        ...
    }
    +interface LocalServiceSpi {
        ...
    }
}

package "org.eclipse.keyple.distributed.local.xxx (specific distributed local service)" as specificDistributedLocalApi {
    +class "**final** xxxDistributedLocalServiceFactoryBuilder" as xxxDistributedLocalServiceFactoryBuilder {
        +{static} xxxDistributedLocalServiceFactory getFactory ()
    }
    +interface xxxDistributedLocalServiceFactory extends KeypleDistributedLocalServiceExtensionFactory {
        ...
    }
    +interface xxxDistributedLocalService extends KeypleDistributedLocalServiceExtension {
        ...
    }
    ' Adapters
    ~class "**final** xxxDistributedLocalServiceFactoryAdapter" as xxxDistributedLocalServiceFactoryAdapter implements xxxDistributedLocalServiceFactory, LocalServiceFactorySpi {
        ...
    }
    ~class "**final** xxxDistributedLocalAdapter" as xxxDistributedLocalAdapter implements xxxDistributedLocalService, LocalServiceSpi {
        ...
    }
}

' Associations

xxxDistributedLocalServiceFactoryBuilder .right.> xxxDistributedLocalServiceFactory #C_USE : build >
xxxDistributedLocalServiceFactoryAdapter *- "1" xxxDistributedLocalAdapter #C_LINK

' == LAYOUT ==

commonsApi -[hidden]- specificDistributedLocalApi
xxxDistributedLocalAdapter -[hidden]- LocalServiceSpi
xxxDistributedLocalServiceFactoryAdapter -[hidden]- LocalServiceSpi

' == STYLE ==

package commonsApi #C_GREY1 {}
package distributedLocalSpi #C_GREY1 {}
package specificDistributedLocalApi #C_GREY1 {}

class xxxDistributedLocalAdapter <<blue>>
class xxxDistributedLocalServiceFactoryAdapter <<blue>>
interface LocalServiceFactorySpi <<blue>>
interface LocalServiceSpi <<blue>>

@enduml

@startuml
title
    Keyple 2.0 - Specific Distributed Local Service - 2.0.0 (08/03/2021)
end title



skinparam Shadowing false
skinparam ClassFontStyle italic
skinparam ClassBorderColor #D4AC0D
skinparam stereotypeABorderColor #A9DCDF
skinparam stereotypeIBorderColor #B4A7E5
skinparam stereotypeCBorderColor #ADD1B2
skinparam stereotypeEBorderColor #EB93DF
skinparam ClassBackgroundColor<<red>> #FDEDEC
skinparam ClassBorderColor<<red>> #E74C3C
hide <<red>> stereotype
skinparam ClassBackgroundColor<<purple>> #F4ECF7
skinparam ClassBorderColor<<purple>> #8E44AD
hide <<purple>> stereotype
skinparam ClassBackgroundColor<<blue>> #EBF5FB
skinparam ClassBorderColor<<blue>> #3498DB
hide <<blue>> stereotype
skinparam ClassBackgroundColor<<green>> #E9F7EF
skinparam ClassBorderColor<<green>> #27AE60
hide <<green>> stereotype
skinparam ClassBackgroundColor<<grey>> #EAECEE
skinparam ClassBorderColor<<grey>> #2C3E50
hide <<grey>> stereotype


package "org.eclipse.keyple.core.common" as commonsApi {
    +interface KeypleDistributedLocalServiceExtensionFactory {
    }
    +interface KeypleDistributedLocalServiceExtension {
    }
}

package "org.eclipse.keyple.core.distributed.local.spi" as distributedLocalSpi {
    +interface LocalServiceFactorySpi {
        ...
    }
    +interface LocalServiceSpi {
        ...
    }
}

package "org.eclipse.keyple.distributed.local.xxx (specific distributed local service)" as specificDistributedLocalApi {
    +class "**final** xxxDistributedLocalServiceFactoryBuilder" as xxxDistributedLocalServiceFactoryBuilder {
        +{static} xxxDistributedLocalServiceFactory getFactory ()
    }
    +interface xxxDistributedLocalServiceFactory extends KeypleDistributedLocalServiceExtensionFactory {
        ...
    }
    +interface xxxDistributedLocalService extends KeypleDistributedLocalServiceExtension {
        ...
    }
    ~class "**final** xxxDistributedLocalServiceFactoryAdapter" as xxxDistributedLocalServiceFactoryAdapter implements xxxDistributedLocalServiceFactory, LocalServiceFactorySpi {
        ...
    }
    ~class "**final** xxxDistributedLocalAdapter" as xxxDistributedLocalAdapter implements xxxDistributedLocalService, LocalServiceSpi {
        ...
    }
}


xxxDistributedLocalServiceFactoryBuilder .right.> xxxDistributedLocalServiceFactory #27AE60 : build >
xxxDistributedLocalServiceFactoryAdapter *- "1" xxxDistributedLocalAdapter #3498DB


commonsApi -[hidden]- specificDistributedLocalApi
xxxDistributedLocalAdapter -[hidden]- LocalServiceSpi
xxxDistributedLocalServiceFactoryAdapter -[hidden]- LocalServiceSpi


package commonsApi #F8F9F9 {}
package distributedLocalSpi #F8F9F9 {}
package specificDistributedLocalApi #F8F9F9 {}

class xxxDistributedLocalAdapter <<blue>>
class xxxDistributedLocalServiceFactoryAdapter <<blue>>
interface LocalServiceFactorySpi <<blue>>
interface LocalServiceSpi <<blue>>

@enduml

PlantUML version 1.2021.01(Tue Feb 02 08:55:08 CET 2021)
(GPL source distribution)
Java Runtime: OpenJDK Runtime Environment
JVM: OpenJDK 64-Bit Server VM
Default Encoding: Cp1252
Language: fr
Country: FR
--></g></svg>