<?xml version="1.0" encoding="UTF-8" standalone="no"?><svg xmlns="http://www.w3.org/2000/svg" xmlns:xlink="http://www.w3.org/1999/xlink" contentScriptType="application/ecmascript" contentStyleType="text/css" height="2060px" preserveAspectRatio="none" style="width:3380px;height:2060px;" version="1.1" viewBox="0 0 3380 2060" width="3380px" zoomAndPan="magnify"><defs/><g><text fill="#000000" font-family="sans-serif" font-size="45" lengthAdjust="spacing" textLength="1135" x="1106.25" y="46.7139">Keyple 2.0 - Specific Card Extension - 2.0.0 (02/04/2021)</text><!--MD5=[621c849533070c5aba8aa732369aa9f8]
cluster commonsApi--><polygon fill="#F8F9F9" points="1697.5,71.6016,2282.5,71.6016,2300,130.625,3337.5,130.625,3337.5,371.6016,1697.5,371.6016,1697.5,71.6016" style="stroke:#000000;stroke-width:3.75;"/><line style="stroke:#000000;stroke-width:3.75;" x1="1697.5" x2="2300" y1="130.625" y2="130.625"/><text fill="#000000" font-family="sans-serif" font-size="35" font-weight="bold" lengthAdjust="spacing" textLength="570" x="1707.5" y="112.9346">org.eclipse.keyple.core.common</text><!--MD5=[1713dcaf7bcd1f6045401bf8106829bd]
cluster serviceSelectionSpi--><polygon fill="#F2F3F4" points="1800,454.1016,2605,454.1016,2622.5,513.125,2630,513.125,2630,789.1016,1800,789.1016,1800,454.1016" style="stroke:#000000;stroke-width:3.75;"/><line style="stroke:#000000;stroke-width:3.75;" x1="1800" x2="2622.5" y1="513.125" y2="513.125"/><text fill="#000000" font-family="sans-serif" font-size="35" font-weight="bold" lengthAdjust="spacing" textLength="790" x="1810" y="495.4346">org.eclipse.keyple.core.service.selection.spi</text><!--MD5=[a17c93d7e125af4ebdd10ac0c519bd24]
cluster cardSpi--><polygon fill="#F8F9F9" points="1032.5,1709.1016,1610,1709.1016,1627.5,1768.125,2957.5,1768.125,2957.5,2044.1016,1032.5,2044.1016,1032.5,1709.1016" style="stroke:#000000;stroke-width:3.75;"/><line style="stroke:#000000;stroke-width:3.75;" x1="1032.5" x2="1627.5" y1="1768.125" y2="1768.125"/><text fill="#000000" font-family="sans-serif" font-size="35" font-weight="bold" lengthAdjust="spacing" textLength="562.5" x="1042.5" y="1750.4346">org.eclipse.keyple.core.card.spi</text><!--MD5=[d3c8ee72d6c013b9a0ff8b73b18ac396]
cluster specificExtension--><polygon fill="#F8F9F9" points="40,914.1016,892.5,914.1016,910,973.125,3312.5,973.125,3312.5,1626.6016,40,1626.6016,40,914.1016" style="stroke:#000000;stroke-width:3.75;"/><line style="stroke:#000000;stroke-width:3.75;" x1="40" x2="910" y1="973.125" y2="973.125"/><text fill="#000000" font-family="sans-serif" font-size="35" font-weight="bold" lengthAdjust="spacing" textLength="837.5" x="50" y="955.4346">org.eclipse.keyple.card.xxx (specific extension)</text><!--MD5=[93835d7ffcf6a3787bfc7eb02bc099b1]
class KeypleCardExtension--><rect codeLine="48" fill="#FEFECE" height="120" id="KeypleCardExtension" style="stroke:#D4AC0D;stroke-width:3.75;" width="405" x="1737.5" y="211.6016"/><ellipse cx="1775" cy="251.6016" fill="#B4A7E5" rx="27.5" ry="27.5" style="stroke:#B4A7E5;stroke-width:2.5;"/><path d="M1777.5,244.1016 L1777.5,259.1016 L1782.5,259.1016 L1783.7109,259.1016 L1785,260.6641 L1785,261.6016 L1785,262.5391 L1783.7109,264.1016 L1782.5,264.1016 L1767.5,264.1016 L1766.2891,264.1016 L1765,262.5391 L1765,261.6016 L1765,260.6641 L1766.2891,259.1016 L1767.5,259.1016 L1772.5,259.1016 L1772.5,244.1016 L1767.5,244.1016 L1766.2891,244.1016 L1765,242.5391 L1765,241.6016 L1765,240.6641 L1766.2891,239.1016 L1767.5,239.1016 L1782.5,239.1016 L1783.7109,239.1016 L1785,240.6641 L1785,241.6016 L1785,242.5391 L1783.7109,244.1016 L1782.5,244.1016 L1777.5,244.1016 Z " fill="#000000"/><ellipse cx="1822.5" cy="250.3516" fill="#84BE84" rx="7.5" ry="7.5" style="stroke:#038048;stroke-width:2.5;"/><text fill="#000000" font-family="sans-serif" font-size="30" font-style="italic" lengthAdjust="spacing" textLength="297.5" x="1837.5" y="263.877">KeypleCardExtension</text><line style="stroke:#D4AC0D;stroke-width:3.75;" x1="1740" x2="2140" y1="291.6016" y2="291.6016"/><line style="stroke:#D4AC0D;stroke-width:3.75;" x1="1740" x2="2140" y1="311.6016" y2="311.6016"/><!--MD5=[beb44669502072071023f5a0a635d64f]
class KeypleSmartCard--><rect codeLine="50" fill="#FEFECE" height="120" id="KeypleSmartCard" style="stroke:#D4AC0D;stroke-width:3.75;" width="352.5" x="2231.25" y="211.6016"/><ellipse cx="2268.75" cy="251.6016" fill="#B4A7E5" rx="27.5" ry="27.5" style="stroke:#B4A7E5;stroke-width:2.5;"/><path d="M2271.25,244.1016 L2271.25,259.1016 L2276.25,259.1016 L2277.4609,259.1016 L2278.75,260.6641 L2278.75,261.6016 L2278.75,262.5391 L2277.4609,264.1016 L2276.25,264.1016 L2261.25,264.1016 L2260.0391,264.1016 L2258.75,262.5391 L2258.75,261.6016 L2258.75,260.6641 L2260.0391,259.1016 L2261.25,259.1016 L2266.25,259.1016 L2266.25,244.1016 L2261.25,244.1016 L2260.0391,244.1016 L2258.75,242.5391 L2258.75,241.6016 L2258.75,240.6641 L2260.0391,239.1016 L2261.25,239.1016 L2276.25,239.1016 L2277.4609,239.1016 L2278.75,240.6641 L2278.75,241.6016 L2278.75,242.5391 L2277.4609,244.1016 L2276.25,244.1016 L2271.25,244.1016 Z " fill="#000000"/><ellipse cx="2316.25" cy="250.3516" fill="#84BE84" rx="7.5" ry="7.5" style="stroke:#038048;stroke-width:2.5;"/><text fill="#000000" font-family="sans-serif" font-size="30" font-style="italic" lengthAdjust="spacing" textLength="245" x="2331.25" y="263.877">KeypleSmartCard</text><line style="stroke:#D4AC0D;stroke-width:3.75;" x1="2233.75" x2="2581.25" y1="291.6016" y2="291.6016"/><line style="stroke:#D4AC0D;stroke-width:3.75;" x1="2233.75" x2="2581.25" y1="311.6016" y2="311.6016"/><!--MD5=[c2d32fe8441dbc20026bf98036040c09]
class KeypleCardResourceProfileExtension--><rect codeLine="52" fill="#FEFECE" height="120" id="KeypleCardResourceProfileExtension" style="stroke:#D4AC0D;stroke-width:3.75;" width="625" x="2672.5" y="211.6016"/><ellipse cx="2710" cy="251.6016" fill="#B4A7E5" rx="27.5" ry="27.5" style="stroke:#B4A7E5;stroke-width:2.5;"/><path d="M2712.5,244.1016 L2712.5,259.1016 L2717.5,259.1016 L2718.7109,259.1016 L2720,260.6641 L2720,261.6016 L2720,262.5391 L2718.7109,264.1016 L2717.5,264.1016 L2702.5,264.1016 L2701.2891,264.1016 L2700,262.5391 L2700,261.6016 L2700,260.6641 L2701.2891,259.1016 L2702.5,259.1016 L2707.5,259.1016 L2707.5,244.1016 L2702.5,244.1016 L2701.2891,244.1016 L2700,242.5391 L2700,241.6016 L2700,240.6641 L2701.2891,239.1016 L2702.5,239.1016 L2717.5,239.1016 L2718.7109,239.1016 L2720,240.6641 L2720,241.6016 L2720,242.5391 L2718.7109,244.1016 L2717.5,244.1016 L2712.5,244.1016 Z " fill="#000000"/><ellipse cx="2757.5" cy="250.3516" fill="#84BE84" rx="7.5" ry="7.5" style="stroke:#038048;stroke-width:2.5;"/><text fill="#000000" font-family="sans-serif" font-size="30" font-style="italic" lengthAdjust="spacing" textLength="517.5" x="2772.5" y="263.877">KeypleCardResourceProfileExtension</text><line style="stroke:#D4AC0D;stroke-width:3.75;" x1="2675" x2="3295" y1="291.6016" y2="291.6016"/><line style="stroke:#D4AC0D;stroke-width:3.75;" x1="2675" x2="3295" y1="311.6016" y2="311.6016"/><!--MD5=[47f0011813555fb489a606ff84d44b55]
class CardSelection--><rect codeLine="56" fill="#FEFECE" height="154.5898" id="CardSelection" style="stroke:#D4AC0D;stroke-width:3.75;" width="302.5" x="1893.75" y="594.1016"/><ellipse cx="1931.25" cy="634.1016" fill="#B4A7E5" rx="27.5" ry="27.5" style="stroke:#B4A7E5;stroke-width:2.5;"/><path d="M1933.75,626.6016 L1933.75,641.6016 L1938.75,641.6016 L1939.9609,641.6016 L1941.25,643.1641 L1941.25,644.1016 L1941.25,645.0391 L1939.9609,646.6016 L1938.75,646.6016 L1923.75,646.6016 L1922.5391,646.6016 L1921.25,645.0391 L1921.25,644.1016 L1921.25,643.1641 L1922.5391,641.6016 L1923.75,641.6016 L1928.75,641.6016 L1928.75,626.6016 L1923.75,626.6016 L1922.5391,626.6016 L1921.25,625.0391 L1921.25,624.1016 L1921.25,623.1641 L1922.5391,621.6016 L1923.75,621.6016 L1938.75,621.6016 L1939.9609,621.6016 L1941.25,623.1641 L1941.25,624.1016 L1941.25,625.0391 L1939.9609,626.6016 L1938.75,626.6016 L1933.75,626.6016 Z " fill="#000000"/><ellipse cx="1978.75" cy="632.8516" fill="#84BE84" rx="7.5" ry="7.5" style="stroke:#038048;stroke-width:2.5;"/><text fill="#000000" font-family="sans-serif" font-size="30" font-style="italic" lengthAdjust="spacing" textLength="195" x="1993.75" y="646.377">CardSelection</text><line style="stroke:#D4AC0D;stroke-width:3.75;" x1="1896.25" x2="2193.75" y1="674.1016" y2="674.1016"/><text fill="#000000" font-family="sans-serif" font-size="27.5" lengthAdjust="spacing" textLength="22.5" x="1908.75" y="712.6489">...</text><line style="stroke:#D4AC0D;stroke-width:3.75;" x1="1896.25" x2="2193.75" y1="728.6914" y2="728.6914"/><!--MD5=[4d4351d1dd1d596b03b4778d9849998b]
class SmartCard--><rect codeLine="59" fill="#FEFECE" height="154.5898" id="SmartCard" style="stroke:#D4AC0D;stroke-width:3.75;" width="257.5" x="2283.75" y="594.1016"/><ellipse cx="2321.25" cy="634.1016" fill="#B4A7E5" rx="27.5" ry="27.5" style="stroke:#B4A7E5;stroke-width:2.5;"/><path d="M2323.75,626.6016 L2323.75,641.6016 L2328.75,641.6016 L2329.9609,641.6016 L2331.25,643.1641 L2331.25,644.1016 L2331.25,645.0391 L2329.9609,646.6016 L2328.75,646.6016 L2313.75,646.6016 L2312.5391,646.6016 L2311.25,645.0391 L2311.25,644.1016 L2311.25,643.1641 L2312.5391,641.6016 L2313.75,641.6016 L2318.75,641.6016 L2318.75,626.6016 L2313.75,626.6016 L2312.5391,626.6016 L2311.25,625.0391 L2311.25,624.1016 L2311.25,623.1641 L2312.5391,621.6016 L2313.75,621.6016 L2328.75,621.6016 L2329.9609,621.6016 L2331.25,623.1641 L2331.25,624.1016 L2331.25,625.0391 L2329.9609,626.6016 L2328.75,626.6016 L2323.75,626.6016 Z " fill="#000000"/><ellipse cx="2368.75" cy="632.8516" fill="#84BE84" rx="7.5" ry="7.5" style="stroke:#038048;stroke-width:2.5;"/><text fill="#000000" font-family="sans-serif" font-size="30" font-style="italic" lengthAdjust="spacing" textLength="150" x="2383.75" y="646.377">SmartCard</text><line style="stroke:#D4AC0D;stroke-width:3.75;" x1="2286.25" x2="2538.75" y1="674.1016" y2="674.1016"/><text fill="#000000" font-family="sans-serif" font-size="27.5" lengthAdjust="spacing" textLength="22.5" x="2298.75" y="712.6489">...</text><line style="stroke:#D4AC0D;stroke-width:3.75;" x1="2286.25" x2="2538.75" y1="728.6914" y2="728.6914"/><!--MD5=[266955a256f69cd9e8835259646fbe13]
class CardExtensionSpi--><rect codeLine="138" fill="#EBF5FB" height="154.5898" id="CardExtensionSpi" style="stroke:#3498DB;stroke-width:3.75;" width="355" x="1072.5" y="1849.1016"/><ellipse cx="1110" cy="1889.1016" fill="#B4A7E5" rx="27.5" ry="27.5" style="stroke:#B4A7E5;stroke-width:2.5;"/><path d="M1112.5,1881.6016 L1112.5,1896.6016 L1117.5,1896.6016 L1118.7109,1896.6016 L1120,1898.1641 L1120,1899.1016 L1120,1900.0391 L1118.7109,1901.6016 L1117.5,1901.6016 L1102.5,1901.6016 L1101.2891,1901.6016 L1100,1900.0391 L1100,1899.1016 L1100,1898.1641 L1101.2891,1896.6016 L1102.5,1896.6016 L1107.5,1896.6016 L1107.5,1881.6016 L1102.5,1881.6016 L1101.2891,1881.6016 L1100,1880.0391 L1100,1879.1016 L1100,1878.1641 L1101.2891,1876.6016 L1102.5,1876.6016 L1117.5,1876.6016 L1118.7109,1876.6016 L1120,1878.1641 L1120,1879.1016 L1120,1880.0391 L1118.7109,1881.6016 L1117.5,1881.6016 L1112.5,1881.6016 Z " fill="#000000"/><ellipse cx="1157.5" cy="1887.8516" fill="#84BE84" rx="7.5" ry="7.5" style="stroke:#038048;stroke-width:2.5;"/><text fill="#000000" font-family="sans-serif" font-size="30" font-style="italic" lengthAdjust="spacing" textLength="247.5" x="1172.5" y="1901.377">CardExtensionSpi</text><line style="stroke:#3498DB;stroke-width:3.75;" x1="1075" x2="1425" y1="1929.1016" y2="1929.1016"/><text fill="#000000" font-family="sans-serif" font-size="27.5" lengthAdjust="spacing" textLength="22.5" x="1087.5" y="1967.6489">...</text><line style="stroke:#3498DB;stroke-width:3.75;" x1="1075" x2="1425" y1="1983.6914" y2="1983.6914"/><!--MD5=[e210ee7b55cb4fcef849a017d68619f7]
class CardSelectionSpi--><rect codeLine="139" fill="#EBF5FB" height="154.5898" id="CardSelectionSpi" style="stroke:#3498DB;stroke-width:3.75;" width="347.5" x="1516.25" y="1849.1016"/><ellipse cx="1553.75" cy="1889.1016" fill="#B4A7E5" rx="27.5" ry="27.5" style="stroke:#B4A7E5;stroke-width:2.5;"/><path d="M1556.25,1881.6016 L1556.25,1896.6016 L1561.25,1896.6016 L1562.4609,1896.6016 L1563.75,1898.1641 L1563.75,1899.1016 L1563.75,1900.0391 L1562.4609,1901.6016 L1561.25,1901.6016 L1546.25,1901.6016 L1545.0391,1901.6016 L1543.75,1900.0391 L1543.75,1899.1016 L1543.75,1898.1641 L1545.0391,1896.6016 L1546.25,1896.6016 L1551.25,1896.6016 L1551.25,1881.6016 L1546.25,1881.6016 L1545.0391,1881.6016 L1543.75,1880.0391 L1543.75,1879.1016 L1543.75,1878.1641 L1545.0391,1876.6016 L1546.25,1876.6016 L1561.25,1876.6016 L1562.4609,1876.6016 L1563.75,1878.1641 L1563.75,1879.1016 L1563.75,1880.0391 L1562.4609,1881.6016 L1561.25,1881.6016 L1556.25,1881.6016 Z " fill="#000000"/><ellipse cx="1601.25" cy="1887.8516" fill="#84BE84" rx="7.5" ry="7.5" style="stroke:#038048;stroke-width:2.5;"/><text fill="#000000" font-family="sans-serif" font-size="30" font-style="italic" lengthAdjust="spacing" textLength="240" x="1616.25" y="1901.377">CardSelectionSpi</text><line style="stroke:#3498DB;stroke-width:3.75;" x1="1518.75" x2="1861.25" y1="1929.1016" y2="1929.1016"/><text fill="#000000" font-family="sans-serif" font-size="27.5" lengthAdjust="spacing" textLength="22.5" x="1531.25" y="1967.6489">...</text><line style="stroke:#3498DB;stroke-width:3.75;" x1="1518.75" x2="1861.25" y1="1983.6914" y2="1983.6914"/><!--MD5=[c089e258773b765d812cd5d8bc232f90]
class SmartCardSpi--><rect codeLine="140" fill="#EBF5FB" height="120" id="SmartCardSpi" style="stroke:#3498DB;stroke-width:3.75;" width="302.5" x="1951.25" y="1866.6016"/><ellipse cx="1988.75" cy="1906.6016" fill="#B4A7E5" rx="27.5" ry="27.5" style="stroke:#B4A7E5;stroke-width:2.5;"/><path d="M1991.25,1899.1016 L1991.25,1914.1016 L1996.25,1914.1016 L1997.4609,1914.1016 L1998.75,1915.6641 L1998.75,1916.6016 L1998.75,1917.5391 L1997.4609,1919.1016 L1996.25,1919.1016 L1981.25,1919.1016 L1980.0391,1919.1016 L1978.75,1917.5391 L1978.75,1916.6016 L1978.75,1915.6641 L1980.0391,1914.1016 L1981.25,1914.1016 L1986.25,1914.1016 L1986.25,1899.1016 L1981.25,1899.1016 L1980.0391,1899.1016 L1978.75,1897.5391 L1978.75,1896.6016 L1978.75,1895.6641 L1980.0391,1894.1016 L1981.25,1894.1016 L1996.25,1894.1016 L1997.4609,1894.1016 L1998.75,1895.6641 L1998.75,1896.6016 L1998.75,1897.5391 L1997.4609,1899.1016 L1996.25,1899.1016 L1991.25,1899.1016 Z " fill="#000000"/><ellipse cx="2036.25" cy="1905.3516" fill="#84BE84" rx="7.5" ry="7.5" style="stroke:#038048;stroke-width:2.5;"/><text fill="#000000" font-family="sans-serif" font-size="30" font-style="italic" lengthAdjust="spacing" textLength="195" x="2051.25" y="1918.877">SmartCardSpi</text><line style="stroke:#3498DB;stroke-width:3.75;" x1="1953.75" x2="2251.25" y1="1946.6016" y2="1946.6016"/><line style="stroke:#3498DB;stroke-width:3.75;" x1="1953.75" x2="2251.25" y1="1966.6016" y2="1966.6016"/><!--MD5=[38786a1b53b5c21082cda59a8f9072b9]
class CardResourceProfileExtensionSpi--><rect codeLine="141" fill="#EBF5FB" height="154.5898" id="CardResourceProfileExtensionSpi" style="stroke:#3498DB;stroke-width:3.75;" width="575" x="2342.5" y="1849.1016"/><ellipse cx="2380" cy="1889.1016" fill="#B4A7E5" rx="27.5" ry="27.5" style="stroke:#B4A7E5;stroke-width:2.5;"/><path d="M2382.5,1881.6016 L2382.5,1896.6016 L2387.5,1896.6016 L2388.7109,1896.6016 L2390,1898.1641 L2390,1899.1016 L2390,1900.0391 L2388.7109,1901.6016 L2387.5,1901.6016 L2372.5,1901.6016 L2371.2891,1901.6016 L2370,1900.0391 L2370,1899.1016 L2370,1898.1641 L2371.2891,1896.6016 L2372.5,1896.6016 L2377.5,1896.6016 L2377.5,1881.6016 L2372.5,1881.6016 L2371.2891,1881.6016 L2370,1880.0391 L2370,1879.1016 L2370,1878.1641 L2371.2891,1876.6016 L2372.5,1876.6016 L2387.5,1876.6016 L2388.7109,1876.6016 L2390,1878.1641 L2390,1879.1016 L2390,1880.0391 L2388.7109,1881.6016 L2387.5,1881.6016 L2382.5,1881.6016 Z " fill="#000000"/><ellipse cx="2427.5" cy="1887.8516" fill="#84BE84" rx="7.5" ry="7.5" style="stroke:#038048;stroke-width:2.5;"/><text fill="#000000" font-family="sans-serif" font-size="30" font-style="italic" lengthAdjust="spacing" textLength="467.5" x="2442.5" y="1901.377">CardResourceProfileExtensionSpi</text><line style="stroke:#3498DB;stroke-width:3.75;" x1="2345" x2="2915" y1="1929.1016" y2="1929.1016"/><text fill="#000000" font-family="sans-serif" font-size="27.5" lengthAdjust="spacing" textLength="22.5" x="2357.5" y="1967.6489">...</text><line style="stroke:#3498DB;stroke-width:3.75;" x1="2345" x2="2915" y1="1983.6914" y2="1983.6914"/><!--MD5=[a2ed65e0079a0161934ea6561d4ec942]
class xxxCardExtensionProvider--><rect codeLine="78" fill="#FEFECE" height="154.5898" id="xxxCardExtensionProvider" style="stroke:#D4AC0D;stroke-width:3.75;" width="537.5" x="81.25" y="1089.1016"/><ellipse cx="118.75" cy="1129.1016" fill="#ADD1B2" rx="27.5" ry="27.5" style="stroke:#ADD1B2;stroke-width:2.5;"/><path d="M123.75,1120.3516 Q124.2578,1119.1016 124.8438,1118.4766 Q125.4297,1117.8516 126.0938,1117.8516 Q127.2656,1117.8516 128.0078,1118.5547 Q128.75,1119.2578 128.75,1120.8984 L128.75,1124.8047 Q128.75,1126.4453 128.0469,1127.1484 Q127.3438,1127.8516 126.25,1127.8516 Q125.2734,1127.8516 124.6484,1127.4219 Q124.0234,1126.9922 123.75,1125.8594 Q123.6328,1125.0781 123.2031,1124.6484 Q122.4219,1123.8281 121.0156,1123.3594 Q119.6094,1122.8516 118.2031,1122.8516 Q116.4453,1122.8516 114.9609,1123.5547 Q113.5156,1124.2578 112.3828,1125.8203 Q111.25,1127.3828 111.25,1129.5313 L111.25,1131.8359 Q111.25,1134.4141 113.3594,1136.1328 Q115.4688,1137.8516 119.2188,1137.8516 Q121.4453,1137.8516 123.0078,1137.3438 Q123.9063,1137.0703 124.9219,1136.1719 Q125.5859,1135.6641 125.9375,1135.5078 Q126.2891,1135.3516 126.7188,1135.3516 Q127.5391,1135.3516 128.125,1136.0156 Q128.75,1136.6406 128.75,1137.5391 Q128.75,1138.3984 127.8906,1139.4141 Q126.6406,1140.8984 124.6484,1141.7188 Q122.0313,1142.8516 118.8281,1142.8516 Q115.0781,1142.8516 112.0703,1141.3672 Q109.6484,1140.1953 107.9297,1137.6563 Q106.25,1135.1172 106.25,1132.1094 L106.25,1129.375 Q106.25,1126.25 107.7344,1123.5156 Q109.2578,1120.7813 111.875,1119.3359 Q114.5313,1117.8516 117.5,1117.8516 Q119.2969,1117.8516 120.8594,1118.4766 Q122.4219,1119.1016 123.75,1120.3516 Z " fill="#000000"/><ellipse cx="166.25" cy="1127.8516" fill="#84BE84" rx="7.5" ry="7.5" style="stroke:#038048;stroke-width:2.5;"/><text fill="#000000" font-family="sans-serif" font-size="30" font-style="italic" font-weight="bold" lengthAdjust="spacing" textLength="60" x="181.25" y="1141.377">final</text><text fill="#000000" font-family="sans-serif" font-size="30" font-style="italic" lengthAdjust="spacing" textLength="362.5" x="248.75" y="1141.377">xxxCardExtensionProvider</text><line style="stroke:#D4AC0D;stroke-width:3.75;" x1="83.75" x2="616.25" y1="1169.1016" y2="1169.1016"/><line style="stroke:#D4AC0D;stroke-width:3.75;" x1="83.75" x2="616.25" y1="1189.1016" y2="1189.1016"/><ellipse cx="108.75" cy="1216.6016" fill="#84BE84" rx="7.5" ry="7.5" style="stroke:#038048;stroke-width:2.5;"/><text fill="#000000" font-family="sans-serif" font-size="27.5" lengthAdjust="spacing" text-decoration="underline" textLength="385" x="131.25" y="1227.6489">xxxCardExtension getService ()</text><!--MD5=[840dca342d2e2f3185b16a9f6795b3c6]
class xxxSmartCard--><rect codeLine="81" fill="#FEFECE" height="154.5898" id="xxxSmartCard" style="stroke:#D4AC0D;stroke-width:3.75;" width="302.5" x="2306.25" y="1089.1016"/><ellipse cx="2343.75" cy="1129.1016" fill="#B4A7E5" rx="27.5" ry="27.5" style="stroke:#B4A7E5;stroke-width:2.5;"/><path d="M2346.25,1121.6016 L2346.25,1136.6016 L2351.25,1136.6016 L2352.4609,1136.6016 L2353.75,1138.1641 L2353.75,1139.1016 L2353.75,1140.0391 L2352.4609,1141.6016 L2351.25,1141.6016 L2336.25,1141.6016 L2335.0391,1141.6016 L2333.75,1140.0391 L2333.75,1139.1016 L2333.75,1138.1641 L2335.0391,1136.6016 L2336.25,1136.6016 L2341.25,1136.6016 L2341.25,1121.6016 L2336.25,1121.6016 L2335.0391,1121.6016 L2333.75,1120.0391 L2333.75,1119.1016 L2333.75,1118.1641 L2335.0391,1116.6016 L2336.25,1116.6016 L2351.25,1116.6016 L2352.4609,1116.6016 L2353.75,1118.1641 L2353.75,1119.1016 L2353.75,1120.0391 L2352.4609,1121.6016 L2351.25,1121.6016 L2346.25,1121.6016 Z " fill="#000000"/><ellipse cx="2391.25" cy="1127.8516" fill="#84BE84" rx="7.5" ry="7.5" style="stroke:#038048;stroke-width:2.5;"/><text fill="#000000" font-family="sans-serif" font-size="30" font-style="italic" lengthAdjust="spacing" textLength="195" x="2406.25" y="1141.377">xxxSmartCard</text><line style="stroke:#D4AC0D;stroke-width:3.75;" x1="2308.75" x2="2606.25" y1="1169.1016" y2="1169.1016"/><text fill="#000000" font-family="sans-serif" font-size="27.5" lengthAdjust="spacing" textLength="22.5" x="2321.25" y="1207.6489">...</text><line style="stroke:#D4AC0D;stroke-width:3.75;" x1="2308.75" x2="2606.25" y1="1223.6914" y2="1223.6914"/><!--MD5=[b9ed339c1442abfa795cdfa9e9a9d6e3]
class xxxCardResourceProfileExtension--><rect codeLine="84" fill="#FEFECE" height="154.5898" id="xxxCardResourceProfileExtension" style="stroke:#D4AC0D;stroke-width:3.75;" width="575" x="2697.5" y="1089.1016"/><ellipse cx="2735" cy="1129.1016" fill="#B4A7E5" rx="27.5" ry="27.5" style="stroke:#B4A7E5;stroke-width:2.5;"/><path d="M2737.5,1121.6016 L2737.5,1136.6016 L2742.5,1136.6016 L2743.7109,1136.6016 L2745,1138.1641 L2745,1139.1016 L2745,1140.0391 L2743.7109,1141.6016 L2742.5,1141.6016 L2727.5,1141.6016 L2726.2891,1141.6016 L2725,1140.0391 L2725,1139.1016 L2725,1138.1641 L2726.2891,1136.6016 L2727.5,1136.6016 L2732.5,1136.6016 L2732.5,1121.6016 L2727.5,1121.6016 L2726.2891,1121.6016 L2725,1120.0391 L2725,1119.1016 L2725,1118.1641 L2726.2891,1116.6016 L2727.5,1116.6016 L2742.5,1116.6016 L2743.7109,1116.6016 L2745,1118.1641 L2745,1119.1016 L2745,1120.0391 L2743.7109,1121.6016 L2742.5,1121.6016 L2737.5,1121.6016 Z " fill="#000000"/><ellipse cx="2782.5" cy="1127.8516" fill="#84BE84" rx="7.5" ry="7.5" style="stroke:#038048;stroke-width:2.5;"/><text fill="#000000" font-family="sans-serif" font-size="30" font-style="italic" lengthAdjust="spacing" textLength="467.5" x="2797.5" y="1141.377">xxxCardResourceProfileExtension</text><line style="stroke:#D4AC0D;stroke-width:3.75;" x1="2700" x2="3270" y1="1169.1016" y2="1169.1016"/><text fill="#000000" font-family="sans-serif" font-size="27.5" lengthAdjust="spacing" textLength="22.5" x="2712.5" y="1207.6489">...</text><line style="stroke:#D4AC0D;stroke-width:3.75;" x1="2700" x2="3270" y1="1223.6914" y2="1223.6914"/><!--MD5=[96c12fe999c27355c48f5d6d4eb4d00c]
class xxxCardSelection--><rect codeLine="87" fill="#FEFECE" height="154.5898" id="xxxCardSelection" style="stroke:#D4AC0D;stroke-width:3.75;" width="347.5" x="1871.25" y="1089.1016"/><ellipse cx="1908.75" cy="1129.1016" fill="#B4A7E5" rx="27.5" ry="27.5" style="stroke:#B4A7E5;stroke-width:2.5;"/><path d="M1911.25,1121.6016 L1911.25,1136.6016 L1916.25,1136.6016 L1917.4609,1136.6016 L1918.75,1138.1641 L1918.75,1139.1016 L1918.75,1140.0391 L1917.4609,1141.6016 L1916.25,1141.6016 L1901.25,1141.6016 L1900.0391,1141.6016 L1898.75,1140.0391 L1898.75,1139.1016 L1898.75,1138.1641 L1900.0391,1136.6016 L1901.25,1136.6016 L1906.25,1136.6016 L1906.25,1121.6016 L1901.25,1121.6016 L1900.0391,1121.6016 L1898.75,1120.0391 L1898.75,1119.1016 L1898.75,1118.1641 L1900.0391,1116.6016 L1901.25,1116.6016 L1916.25,1116.6016 L1917.4609,1116.6016 L1918.75,1118.1641 L1918.75,1119.1016 L1918.75,1120.0391 L1917.4609,1121.6016 L1916.25,1121.6016 L1911.25,1121.6016 Z " fill="#000000"/><ellipse cx="1956.25" cy="1127.8516" fill="#84BE84" rx="7.5" ry="7.5" style="stroke:#038048;stroke-width:2.5;"/><text fill="#000000" font-family="sans-serif" font-size="30" font-style="italic" lengthAdjust="spacing" textLength="240" x="1971.25" y="1141.377">xxxCardSelection</text><line style="stroke:#D4AC0D;stroke-width:3.75;" x1="1873.75" x2="2216.25" y1="1169.1016" y2="1169.1016"/><text fill="#000000" font-family="sans-serif" font-size="27.5" lengthAdjust="spacing" textLength="22.5" x="1886.25" y="1207.6489">...</text><line style="stroke:#D4AC0D;stroke-width:3.75;" x1="1873.75" x2="2216.25" y1="1223.6914" y2="1223.6914"/><!--MD5=[125c2a9664bfb82a01f56afd98fcef0c]
class xxxCardExtension--><rect codeLine="90" fill="#FEFECE" height="223.7695" id="xxxCardExtension" style="stroke:#D4AC0D;stroke-width:3.75;" width="805" x="842.5" y="1054.1016"/><ellipse cx="1063.125" cy="1094.1016" fill="#B4A7E5" rx="27.5" ry="27.5" style="stroke:#B4A7E5;stroke-width:2.5;"/><path d="M1065.625,1086.6016 L1065.625,1101.6016 L1070.625,1101.6016 L1071.8359,1101.6016 L1073.125,1103.1641 L1073.125,1104.1016 L1073.125,1105.0391 L1071.8359,1106.6016 L1070.625,1106.6016 L1055.625,1106.6016 L1054.4141,1106.6016 L1053.125,1105.0391 L1053.125,1104.1016 L1053.125,1103.1641 L1054.4141,1101.6016 L1055.625,1101.6016 L1060.625,1101.6016 L1060.625,1086.6016 L1055.625,1086.6016 L1054.4141,1086.6016 L1053.125,1085.0391 L1053.125,1084.1016 L1053.125,1083.1641 L1054.4141,1081.6016 L1055.625,1081.6016 L1070.625,1081.6016 L1071.8359,1081.6016 L1073.125,1083.1641 L1073.125,1084.1016 L1073.125,1085.0391 L1071.8359,1086.6016 L1070.625,1086.6016 L1065.625,1086.6016 Z " fill="#000000"/><ellipse cx="1126.875" cy="1092.8516" fill="#84BE84" rx="7.5" ry="7.5" style="stroke:#038048;stroke-width:2.5;"/><text fill="#000000" font-family="sans-serif" font-size="30" font-style="italic" font-weight="bold" lengthAdjust="spacing" textLength="60" x="1141.875" y="1106.377">final</text><text fill="#000000" font-family="sans-serif" font-size="30" font-style="italic" lengthAdjust="spacing" textLength="247.5" x="1209.375" y="1106.377">xxxCardExtension</text><line style="stroke:#D4AC0D;stroke-width:3.75;" x1="845" x2="1645" y1="1134.1016" y2="1134.1016"/><line style="stroke:#D4AC0D;stroke-width:2.5;" x1="845" x2="1645" y1="1154.1016" y2="1154.1016"/><ellipse cx="870" cy="1181.6016" fill="#84BE84" rx="7.5" ry="7.5" style="stroke:#038048;stroke-width:2.5;"/><text fill="#000000" font-family="sans-serif" font-size="27.5" lengthAdjust="spacing" textLength="540" x="892.5" y="1192.6489">xxxCardSelection createXxxCardSelection ()</text><ellipse cx="870" cy="1216.1914" fill="#84BE84" rx="7.5" ry="7.5" style="stroke:#038048;stroke-width:2.5;"/><text fill="#000000" font-family="sans-serif" font-size="27.5" lengthAdjust="spacing" textLength="740" x="892.5" y="1227.2388">xxxCardSelection createXxxCardResourceProfileExtension ()</text><text fill="#000000" font-family="sans-serif" font-size="27.5" lengthAdjust="spacing" textLength="22.5" x="892.5" y="1261.8286">...</text><!--MD5=[ebba046afa18336849519919c4fd7f55]
class xxxCardExtensionAdapter--><rect codeLine="134" fill="#EBF5FB" height="154.5898" id="xxxCardExtensionAdapter" style="stroke:#3498DB;stroke-width:3.75;" width="530" x="727.5" y="1431.6016"/><ellipse cx="765" cy="1471.6016" fill="#ADD1B2" rx="27.5" ry="27.5" style="stroke:#ADD1B2;stroke-width:2.5;"/><path d="M770,1462.8516 Q770.5078,1461.6016 771.0938,1460.9766 Q771.6797,1460.3516 772.3438,1460.3516 Q773.5156,1460.3516 774.2578,1461.0547 Q775,1461.7578 775,1463.3984 L775,1467.3047 Q775,1468.9453 774.2969,1469.6484 Q773.5938,1470.3516 772.5,1470.3516 Q771.5234,1470.3516 770.8984,1469.9219 Q770.2734,1469.4922 770,1468.3594 Q769.8828,1467.5781 769.4531,1467.1484 Q768.6719,1466.3281 767.2656,1465.8594 Q765.8594,1465.3516 764.4531,1465.3516 Q762.6953,1465.3516 761.2109,1466.0547 Q759.7656,1466.7578 758.6328,1468.3203 Q757.5,1469.8828 757.5,1472.0313 L757.5,1474.3359 Q757.5,1476.9141 759.6094,1478.6328 Q761.7188,1480.3516 765.4688,1480.3516 Q767.6953,1480.3516 769.2578,1479.8438 Q770.1563,1479.5703 771.1719,1478.6719 Q771.8359,1478.1641 772.1875,1478.0078 Q772.5391,1477.8516 772.9688,1477.8516 Q773.7891,1477.8516 774.375,1478.5156 Q775,1479.1406 775,1480.0391 Q775,1480.8984 774.1406,1481.9141 Q772.8906,1483.3984 770.8984,1484.2188 Q768.2813,1485.3516 765.0781,1485.3516 Q761.3281,1485.3516 758.3203,1483.8672 Q755.8984,1482.6953 754.1797,1480.1563 Q752.5,1477.6172 752.5,1474.6094 L752.5,1471.875 Q752.5,1468.75 753.9844,1466.0156 Q755.5078,1463.2813 758.125,1461.8359 Q760.7813,1460.3516 763.75,1460.3516 Q765.5469,1460.3516 767.1094,1460.9766 Q768.6719,1461.6016 770,1462.8516 Z " fill="#000000"/><polygon fill="#4177AF" points="812.5,1460.3516,802.5,1475.3516,822.5,1475.3516" style="stroke:#1963A0;stroke-width:2.5;"/><text fill="#000000" font-family="sans-serif" font-size="30" font-style="italic" font-weight="bold" lengthAdjust="spacing" textLength="60" x="827.5" y="1483.877">final</text><text fill="#000000" font-family="sans-serif" font-size="30" font-style="italic" lengthAdjust="spacing" textLength="355" x="895" y="1483.877">xxxCardExtensionAdapter</text><line style="stroke:#3498DB;stroke-width:3.75;" x1="730" x2="1255" y1="1511.6016" y2="1511.6016"/><text fill="#000000" font-family="sans-serif" font-size="27.5" lengthAdjust="spacing" textLength="22.5" x="742.5" y="1550.1489">...</text><line style="stroke:#3498DB;stroke-width:3.75;" x1="730" x2="1255" y1="1566.1914" y2="1566.1914"/><!--MD5=[b7f723709f4c95e341f6eb59b203b4a1]
class xxxCardSelectionAdapter--><rect codeLine="135" fill="#EBF5FB" height="154.5898" id="xxxCardSelectionAdapter" style="stroke:#3498DB;stroke-width:3.75;" width="522.5" x="1346.25" y="1431.6016"/><ellipse cx="1383.75" cy="1471.6016" fill="#ADD1B2" rx="27.5" ry="27.5" style="stroke:#ADD1B2;stroke-width:2.5;"/><path d="M1388.75,1462.8516 Q1389.2578,1461.6016 1389.8438,1460.9766 Q1390.4297,1460.3516 1391.0938,1460.3516 Q1392.2656,1460.3516 1393.0078,1461.0547 Q1393.75,1461.7578 1393.75,1463.3984 L1393.75,1467.3047 Q1393.75,1468.9453 1393.0469,1469.6484 Q1392.3438,1470.3516 1391.25,1470.3516 Q1390.2734,1470.3516 1389.6484,1469.9219 Q1389.0234,1469.4922 1388.75,1468.3594 Q1388.6328,1467.5781 1388.2031,1467.1484 Q1387.4219,1466.3281 1386.0156,1465.8594 Q1384.6094,1465.3516 1383.2031,1465.3516 Q1381.4453,1465.3516 1379.9609,1466.0547 Q1378.5156,1466.7578 1377.3828,1468.3203 Q1376.25,1469.8828 1376.25,1472.0313 L1376.25,1474.3359 Q1376.25,1476.9141 1378.3594,1478.6328 Q1380.4688,1480.3516 1384.2188,1480.3516 Q1386.4453,1480.3516 1388.0078,1479.8438 Q1388.9063,1479.5703 1389.9219,1478.6719 Q1390.5859,1478.1641 1390.9375,1478.0078 Q1391.2891,1477.8516 1391.7188,1477.8516 Q1392.5391,1477.8516 1393.125,1478.5156 Q1393.75,1479.1406 1393.75,1480.0391 Q1393.75,1480.8984 1392.8906,1481.9141 Q1391.6406,1483.3984 1389.6484,1484.2188 Q1387.0313,1485.3516 1383.8281,1485.3516 Q1380.0781,1485.3516 1377.0703,1483.8672 Q1374.6484,1482.6953 1372.9297,1480.1563 Q1371.25,1477.6172 1371.25,1474.6094 L1371.25,1471.875 Q1371.25,1468.75 1372.7344,1466.0156 Q1374.2578,1463.2813 1376.875,1461.8359 Q1379.5313,1460.3516 1382.5,1460.3516 Q1384.2969,1460.3516 1385.8594,1460.9766 Q1387.4219,1461.6016 1388.75,1462.8516 Z " fill="#000000"/><polygon fill="#4177AF" points="1431.25,1460.3516,1421.25,1475.3516,1441.25,1475.3516" style="stroke:#1963A0;stroke-width:2.5;"/><text fill="#000000" font-family="sans-serif" font-size="30" font-style="italic" font-weight="bold" lengthAdjust="spacing" textLength="60" x="1446.25" y="1483.877">final</text><text fill="#000000" font-family="sans-serif" font-size="30" font-style="italic" lengthAdjust="spacing" textLength="347.5" x="1513.75" y="1483.877">xxxCardSelectionAdapter</text><line style="stroke:#3498DB;stroke-width:3.75;" x1="1348.75" x2="1866.25" y1="1511.6016" y2="1511.6016"/><text fill="#000000" font-family="sans-serif" font-size="27.5" lengthAdjust="spacing" textLength="22.5" x="1361.25" y="1550.1489">...</text><line style="stroke:#3498DB;stroke-width:3.75;" x1="1348.75" x2="1866.25" y1="1566.1914" y2="1566.1914"/><!--MD5=[cce03acc605d094508f66994b4b4a5f2]
class xxxSmartCardAdapter--><rect codeLine="136" fill="#EBF5FB" height="154.5898" id="xxxSmartCardAdapter" style="stroke:#3498DB;stroke-width:3.75;" width="477.5" x="1956.25" y="1431.6016"/><ellipse cx="1993.75" cy="1471.6016" fill="#ADD1B2" rx="27.5" ry="27.5" style="stroke:#ADD1B2;stroke-width:2.5;"/><path d="M1998.75,1462.8516 Q1999.2578,1461.6016 1999.8438,1460.9766 Q2000.4297,1460.3516 2001.0938,1460.3516 Q2002.2656,1460.3516 2003.0078,1461.0547 Q2003.75,1461.7578 2003.75,1463.3984 L2003.75,1467.3047 Q2003.75,1468.9453 2003.0469,1469.6484 Q2002.3438,1470.3516 2001.25,1470.3516 Q2000.2734,1470.3516 1999.6484,1469.9219 Q1999.0234,1469.4922 1998.75,1468.3594 Q1998.6328,1467.5781 1998.2031,1467.1484 Q1997.4219,1466.3281 1996.0156,1465.8594 Q1994.6094,1465.3516 1993.2031,1465.3516 Q1991.4453,1465.3516 1989.9609,1466.0547 Q1988.5156,1466.7578 1987.3828,1468.3203 Q1986.25,1469.8828 1986.25,1472.0313 L1986.25,1474.3359 Q1986.25,1476.9141 1988.3594,1478.6328 Q1990.4688,1480.3516 1994.2188,1480.3516 Q1996.4453,1480.3516 1998.0078,1479.8438 Q1998.9063,1479.5703 1999.9219,1478.6719 Q2000.5859,1478.1641 2000.9375,1478.0078 Q2001.2891,1477.8516 2001.7188,1477.8516 Q2002.5391,1477.8516 2003.125,1478.5156 Q2003.75,1479.1406 2003.75,1480.0391 Q2003.75,1480.8984 2002.8906,1481.9141 Q2001.6406,1483.3984 1999.6484,1484.2188 Q1997.0313,1485.3516 1993.8281,1485.3516 Q1990.0781,1485.3516 1987.0703,1483.8672 Q1984.6484,1482.6953 1982.9297,1480.1563 Q1981.25,1477.6172 1981.25,1474.6094 L1981.25,1471.875 Q1981.25,1468.75 1982.7344,1466.0156 Q1984.2578,1463.2813 1986.875,1461.8359 Q1989.5313,1460.3516 1992.5,1460.3516 Q1994.2969,1460.3516 1995.8594,1460.9766 Q1997.4219,1461.6016 1998.75,1462.8516 Z " fill="#000000"/><polygon fill="#4177AF" points="2041.25,1460.3516,2031.25,1475.3516,2051.25,1475.3516" style="stroke:#1963A0;stroke-width:2.5;"/><text fill="#000000" font-family="sans-serif" font-size="30" font-style="italic" font-weight="bold" lengthAdjust="spacing" textLength="60" x="2056.25" y="1483.877">final</text><text fill="#000000" font-family="sans-serif" font-size="30" font-style="italic" lengthAdjust="spacing" textLength="302.5" x="2123.75" y="1483.877">xxxSmartCardAdapter</text><line style="stroke:#3498DB;stroke-width:3.75;" x1="1958.75" x2="2431.25" y1="1511.6016" y2="1511.6016"/><text fill="#000000" font-family="sans-serif" font-size="27.5" lengthAdjust="spacing" textLength="22.5" x="1971.25" y="1550.1489">...</text><line style="stroke:#3498DB;stroke-width:3.75;" x1="1958.75" x2="2431.25" y1="1566.1914" y2="1566.1914"/><!--MD5=[93924da281e0b72c65fd6d2814e91c31]
class xxxCardResourceProfileExtensionAdapter--><rect codeLine="137" fill="#EBF5FB" height="154.5898" id="xxxCardResourceProfileExtensionAdapter" style="stroke:#3498DB;stroke-width:3.75;" width="750" x="2522.5" y="1431.6016"/><ellipse cx="2560" cy="1471.6016" fill="#ADD1B2" rx="27.5" ry="27.5" style="stroke:#ADD1B2;stroke-width:2.5;"/><path d="M2565,1462.8516 Q2565.5078,1461.6016 2566.0938,1460.9766 Q2566.6797,1460.3516 2567.3438,1460.3516 Q2568.5156,1460.3516 2569.2578,1461.0547 Q2570,1461.7578 2570,1463.3984 L2570,1467.3047 Q2570,1468.9453 2569.2969,1469.6484 Q2568.5938,1470.3516 2567.5,1470.3516 Q2566.5234,1470.3516 2565.8984,1469.9219 Q2565.2734,1469.4922 2565,1468.3594 Q2564.8828,1467.5781 2564.4531,1467.1484 Q2563.6719,1466.3281 2562.2656,1465.8594 Q2560.8594,1465.3516 2559.4531,1465.3516 Q2557.6953,1465.3516 2556.2109,1466.0547 Q2554.7656,1466.7578 2553.6328,1468.3203 Q2552.5,1469.8828 2552.5,1472.0313 L2552.5,1474.3359 Q2552.5,1476.9141 2554.6094,1478.6328 Q2556.7188,1480.3516 2560.4688,1480.3516 Q2562.6953,1480.3516 2564.2578,1479.8438 Q2565.1563,1479.5703 2566.1719,1478.6719 Q2566.8359,1478.1641 2567.1875,1478.0078 Q2567.5391,1477.8516 2567.9688,1477.8516 Q2568.7891,1477.8516 2569.375,1478.5156 Q2570,1479.1406 2570,1480.0391 Q2570,1480.8984 2569.1406,1481.9141 Q2567.8906,1483.3984 2565.8984,1484.2188 Q2563.2813,1485.3516 2560.0781,1485.3516 Q2556.3281,1485.3516 2553.3203,1483.8672 Q2550.8984,1482.6953 2549.1797,1480.1563 Q2547.5,1477.6172 2547.5,1474.6094 L2547.5,1471.875 Q2547.5,1468.75 2548.9844,1466.0156 Q2550.5078,1463.2813 2553.125,1461.8359 Q2555.7813,1460.3516 2558.75,1460.3516 Q2560.5469,1460.3516 2562.1094,1460.9766 Q2563.6719,1461.6016 2565,1462.8516 Z " fill="#000000"/><polygon fill="#4177AF" points="2607.5,1460.3516,2597.5,1475.3516,2617.5,1475.3516" style="stroke:#1963A0;stroke-width:2.5;"/><text fill="#000000" font-family="sans-serif" font-size="30" font-style="italic" font-weight="bold" lengthAdjust="spacing" textLength="60" x="2622.5" y="1483.877">final</text><text fill="#000000" font-family="sans-serif" font-size="30" font-style="italic" lengthAdjust="spacing" textLength="575" x="2690" y="1483.877">xxxCardResourceProfileExtensionAdapter</text><line style="stroke:#3498DB;stroke-width:3.75;" x1="2525" x2="3270" y1="1511.6016" y2="1511.6016"/><text fill="#000000" font-family="sans-serif" font-size="27.5" lengthAdjust="spacing" textLength="22.5" x="2537.5" y="1550.1489">...</text><line style="stroke:#3498DB;stroke-width:3.75;" x1="2525" x2="3270" y1="1566.1914" y2="1566.1914"/><!--MD5=[993f270e2185c326cb3339a5005caff8]
reverse link KeypleSmartCard to SmartCard--><path d="M2408.875,382.6516 C2409.7225,449.6516 2410.79,533.9166 2411.545,593.6641 " fill="none" id="KeypleSmartCard-backto-SmartCard" style="stroke:#A80036;stroke-width:2.5;"/><polygon fill="none" points="2391.3725,382.6016,2408.2375,332.3841,2426.37,382.1591,2391.3725,382.6016" style="stroke:#A80036;stroke-width:2.5;"/><!--MD5=[7b98aeab9a3d660b23153640da6ec114]
reverse link SmartCard to xxxSmartCard--><path d="M2424.0075,799.4166 C2432.3975,890.7591 2443.4875,1011.5216 2450.56,1088.5266 " fill="none" id="SmartCard-backto-xxxSmartCard" style="stroke:#A80036;stroke-width:2.5;"/><polygon fill="none" points="2406.58,800.9816,2419.4325,749.5891,2441.4325,797.7791,2406.58,800.9816" style="stroke:#A80036;stroke-width:2.5;"/><!--MD5=[4e3989f090d34aa4098b0323f99a4b52]
reverse link KeypleCardResourceProfileExtension to xxxCardResourceProfileExtension--><path d="M2985,382.2616 C2985,565.1416 2985,930.9291 2985,1088.7541 " fill="none" id="KeypleCardResourceProfileExtension-backto-xxxCardResourceProfileExtension" style="stroke:#A80036;stroke-width:2.5;"/><polygon fill="none" points="2967.5,381.8116,2985,331.8116,3002.5,381.8116,2967.5,381.8116" style="stroke:#A80036;stroke-width:2.5;"/><!--MD5=[4abb779e65060c5bfc44d688ec29c257]
reverse link CardSelection to xxxCardSelection--><path d="M2045,800.0591 C2045,891.3216 2045,1011.7016 2045,1088.5266 " fill="none" id="CardSelection-backto-xxxCardSelection" style="stroke:#A80036;stroke-width:2.5;"/><polygon fill="none" points="2027.5,799.5891,2045,749.5891,2062.5,799.5891,2027.5,799.5891" style="stroke:#A80036;stroke-width:2.5;"/><!--MD5=[f32ec65005451c0b69c9b7f05ba07707]
reverse link KeypleCardExtension to xxxCardExtension--><path d="M1863.33,372.2816 C1732.7675,539.4791 1468.1425,878.3491 1331.2975,1053.5916 " fill="none" id="KeypleCardExtension-backto-xxxCardExtension" style="stroke:#A80036;stroke-width:2.5;"/><polygon fill="none" points="1850.3675,360.4491,1894.935,331.8116,1877.9525,381.9891,1850.3675,360.4491" style="stroke:#A80036;stroke-width:2.5;"/><!--MD5=[4277f490a7099d6c11ba3057b4f037ca]
reverse link xxxCardExtension to xxxCardExtensionAdapter--><path d="M1131.825,1320.3741 C1103.1275,1358.7316 1073.52,1398.3066 1049.0175,1431.0566 " fill="none" id="xxxCardExtension-backto-xxxCardExtensionAdapter" style="stroke:#A80036;stroke-width:2.5;stroke-dasharray:7.0,7.0;"/><polygon fill="none" points="1118.3575,1309.1641,1162.3225,1279.6116,1146.3825,1330.1316,1118.3575,1309.1641" style="stroke:#A80036;stroke-width:2.5;"/><!--MD5=[39da8af684858c0079c9c0bbde7d48f2]
reverse link CardExtensionSpi to xxxCardExtensionAdapter--><path d="M1181.965,1805.7991 C1156.0975,1761.7441 1125.995,1711.5441 1097.5,1666.6016 C1080.7925,1640.2491 1061.85,1611.8641 1044.6975,1586.6766 " fill="none" id="CardExtensionSpi-backto-xxxCardExtensionAdapter" style="stroke:#A80036;stroke-width:2.5;stroke-dasharray:7.0,7.0;"/><polygon fill="none" points="1197.0875,1796.9941,1207.1375,1849.0061,1166.8475,1814.6141,1197.0875,1796.9941" style="stroke:#A80036;stroke-width:2.5;"/><!--MD5=[4c1f077f6947fb0e92e602f4e61955a7]
link xxxCardExtensionAdapter to CardExtensionSpi--><!--MD5=[df9451b318d6606b19f7d4b575c2effa]
reverse link xxxCardSelection to xxxCardSelectionAdapter--><path d="M1906.7425,1275.7566 C1841.2975,1326.2441 1764.68,1385.3491 1705.355,1431.1116 " fill="none" id="xxxCardSelection-backto-xxxCardSelectionAdapter" style="stroke:#A80036;stroke-width:2.5;stroke-dasharray:7.0,7.0;"/><polygon fill="none" points="1896.5375,1261.5266,1946.8175,1244.8441,1917.9175,1289.2391,1896.5375,1261.5266" style="stroke:#A80036;stroke-width:2.5;"/><!--MD5=[c894073829ba8baf12c92f112cb8555f]
reverse link CardSelectionSpi to xxxCardSelectionAdapter--><path d="M1665.085,1799.5241 C1651.25,1730.3566 1634.495,1646.5716 1622.6325,1587.2616 " fill="none" id="CardSelectionSpi-backto-xxxCardSelectionAdapter" style="stroke:#A80036;stroke-width:2.5;stroke-dasharray:7.0,7.0;"/><polygon fill="none" points="1682.3175,1796.4616,1674.965,1848.9223,1647.9975,1803.3266,1682.3175,1796.4616" style="stroke:#A80036;stroke-width:2.5;"/><!--MD5=[077a447c7901b23dcf03acc3d8a70774]
link xxxCardSelectionAdapter to CardSelectionSpi--><!--MD5=[9002e706f396d6876295fc7061d0da0c]
reverse link xxxSmartCard to xxxSmartCardAdapter--><path d="M2367.785,1284.4491 C2330.0825,1332.9241 2287.2825,1387.9516 2253.7125,1431.1116 " fill="none" id="xxxSmartCard-backto-xxxSmartCardAdapter" style="stroke:#A80036;stroke-width:2.5;stroke-dasharray:7.0,7.0;"/><polygon fill="none" points="2354.08,1273.5666,2398.59,1244.8441,2381.7075,1295.0541,2354.08,1273.5666" style="stroke:#A80036;stroke-width:2.5;"/><!--MD5=[c3a026247cd8f9cca2ae38e56abcd097]
reverse link SmartCardSpi to xxxSmartCardAdapter--><path d="M2126.4875,1817.1316 C2142.6525,1745.0416 2163.5825,1651.7041 2178.035,1587.2616 " fill="none" id="SmartCardSpi-backto-xxxSmartCardAdapter" style="stroke:#A80036;stroke-width:2.5;stroke-dasharray:7.0,7.0;"/><polygon fill="none" points="2143.4975,1821.2566,2115.48,1866.2156,2109.345,1813.5991,2143.4975,1821.2566" style="stroke:#A80036;stroke-width:2.5;"/><!--MD5=[bd6c05ee87062384bb574fb05535b09e]
link xxxSmartCardAdapter to SmartCardSpi--><!--MD5=[266998083126b6b042f1ea69c63b210d]
reverse link xxxCardResourceProfileExtension to xxxCardResourceProfileExtensionAdapter--><path d="M2952.8,1293.2866 C2940.825,1339.5166 2927.575,1390.5541 2917.075,1431.1116 " fill="none" id="xxxCardResourceProfileExtension-backto-xxxCardResourceProfileExtensionAdapter" style="stroke:#A80036;stroke-width:2.5;stroke-dasharray:7.0,7.0;"/><polygon fill="none" points="2935.875,1288.8516,2965.375,1244.8441,2969.75,1297.6341,2935.875,1288.8516" style="stroke:#A80036;stroke-width:2.5;"/><!--MD5=[d8b6ecd9f9b7224c49ae818d096fe472]
reverse link CardResourceProfileExtensionSpi to xxxCardResourceProfileExtensionAdapter--><path d="M2706.2,1806.5916 C2751.9,1736.1341 2808.65,1648.6066 2848.425,1587.2616 " fill="none" id="CardResourceProfileExtensionSpi-backto-xxxCardResourceProfileExtensionAdapter" style="stroke:#A80036;stroke-width:2.5;stroke-dasharray:7.0,7.0;"/><polygon fill="none" points="2720.65,1816.4916,2678.75,1848.9223,2691.275,1797.4491,2720.65,1816.4916" style="stroke:#A80036;stroke-width:2.5;"/><!--MD5=[6e3ffe93a4956f59a651f3339a2d4c2a]
link xxxCardResourceProfileExtensionAdapter to CardResourceProfileExtensionSpi--><!--MD5=[a637902cefae91d2c2c244af4fb5aebf]
link xxxCardExtensionProvider to xxxCardExtension--><path codeLine="113" d="M619.7425,1166.6016 C685.64,1166.6016 757.68,1166.6016 828.6675,1166.6016 " fill="none" id="xxxCardExtensionProvider-to-xxxCardExtension" style="stroke:#27AE60;stroke-width:2.5;stroke-dasharray:7.0,7.0;"/><polygon fill="#27AE60" points="841.9075,1166.6016,819.4075,1156.6016,829.4075,1166.6016,819.4075,1176.6016,841.9075,1166.6016" style="stroke:#27AE60;stroke-width:2.5;"/><polygon fill="#000000" points="686.875,1137.041,664.2623,1129.6937,664.2623,1144.3883,686.875,1137.041" style="stroke:#000000;stroke-width:2.5;"/><text fill="#000000" font-family="sans-serif" font-size="32.5" lengthAdjust="spacing" textLength="100" x="696.875" y="1150.3394">provide</text><!--MD5=[3aa200d50e8af772637d2251ae140976]
link xxxCardExtension to xxxCardSelection--><path codeLine="115" d="M1648.515,1166.6016 C1722.055,1166.6016 1795.435,1166.6016 1858.7125,1166.6016 " fill="none" id="xxxCardExtension-to-xxxCardSelection" style="stroke:#27AE60;stroke-width:2.5;stroke-dasharray:7.0,7.0;"/><polygon fill="#27AE60" points="1871.23,1166.6016,1848.73,1156.6016,1858.73,1166.6016,1848.73,1176.6016,1871.23,1166.6016" style="stroke:#27AE60;stroke-width:2.5;"/><polygon fill="#000000" points="1715.625,1137.041,1693.0123,1129.6937,1693.0123,1144.3883,1715.625,1137.041" style="stroke:#000000;stroke-width:2.5;"/><text fill="#000000" font-family="sans-serif" font-size="32.5" lengthAdjust="spacing" textLength="100" x="1725.625" y="1150.3394">provide</text><!--MD5=[4026b0a15db1c12ee5ab85d9b9a03014]
link xxxCardExtension to xxxCardResourceProfileExtension--><path codeLine="116" d="M1441.4475,1054.0116 C1551.1925,997.6116 1692.6475,935.3316 1827.5,906.6016 C2186.1175,830.1991 2305.835,787.1541 2652.5,906.6016 C2751.875,940.8441 2844.275,1018.3466 2906.325,1079.8766 " fill="none" id="xxxCardExtension-to-xxxCardResourceProfileExtension" style="stroke:#27AE60;stroke-width:2.5;stroke-dasharray:7.0,7.0;"/><polygon fill="#27AE60" points="2915.25,1088.8316,2906.4483,1065.8363,2906.4255,1079.9785,2892.2833,1079.9556,2915.25,1088.8316" style="stroke:#27AE60;stroke-width:2.5;"/><polygon fill="#000000" points="2196.2481,852.2617,2173.7686,844.5163,2173.5092,859.2087,2196.2481,852.2617" style="stroke:#000000;stroke-width:2.5;"/><text fill="#000000" font-family="sans-serif" font-size="32.5" lengthAdjust="spacing" textLength="100" x="2206.25" y="865.3394">provide</text><!--MD5=[243ef50cdc6ca4b1d59ce7bbc578be03]
link xxxCardSelection to xxxCardExtensionAdapter--><!--MD5=[6aef92196412bbfccb06d3ea1a2cdc76]
link xxxCardSelection to xxxSmartCardAdapter--><!--MD5=[ef990d84471c85d4215800d28c096323]
@startuml
title
    Keyple 2.0 - Specific Card Extension - 2.0.0 (02/04/2021)
end title

' == THEME ==

'Couleurs issues de : https://htmlcolorcodes.com/fr/tableau-de-couleur/tableau-de-couleur-design-plat/
!define C_GREY1 F8F9F9
!define C_GREY2 F2F3F4
!define C_GREY3 E5E7E9
!define C_GREY4 D7DBDD
!define C_GREY5 CACFD2
!define C_GREY6 BDC3C7
!define C_LINK 3498DB
!define C_USE 27AE60

skinparam Shadowing false
skinparam ClassFontStyle italic
skinparam ClassBorderColor #D4AC0D
skinparam stereotypeABorderColor #A9DCDF
skinparam stereotypeIBorderColor #B4A7E5
skinparam stereotypeCBorderColor #ADD1B2
skinparam stereotypeEBorderColor #EB93DF
' Red
skinparam ClassBackgroundColor<<red>> #FDEDEC
skinparam ClassBorderColor<<red>> #E74C3C
hide <<red>> stereotype
' Purple
skinparam ClassBackgroundColor<<purple>> #F4ECF7
skinparam ClassBorderColor<<purple>> #8E44AD
hide <<purple>> stereotype
' blue
skinparam ClassBackgroundColor<<blue>> #EBF5FB
skinparam ClassBorderColor<<blue>> #3498DB
hide <<blue>> stereotype
' Green
skinparam ClassBackgroundColor<<green>> #E9F7EF
skinparam ClassBorderColor<<green>> #27AE60
hide <<green>> stereotype
' Grey
skinparam ClassBackgroundColor<<grey>> #EAECEE
skinparam ClassBorderColor<<grey>> #2C3E50
hide <<grey>> stereotype

' == CONTENT ==

package "org.eclipse.keyple.core.common" as commonsApi {
    +interface KeypleCardExtension {
    }
    +interface KeypleSmartCard {
    }
    +interface KeypleCardResourceProfileExtension {
    }
}
package "org.eclipse.keyple.core.service.selection.spi" as serviceSelectionSpi {
    +interface CardSelection {
        ...
    }
    +interface SmartCard extends KeypleSmartCard {
        ...
    }
}
package "org.eclipse.keyple.core.card.spi" as cardSpi {
    +interface CardExtensionSpi {
        ...
    }
    +interface CardSelectionSpi {
        ...
    }
    +interface SmartCardSpi {
    }
    +interface CardResourceProfileExtensionSpi {
        ...
    }
}

package "org.eclipse.keyple.card.xxx (specific extension)" as specificExtension {
    +class "**final** xxxCardExtensionProvider" as xxxCardExtensionProvider {
        +{static} xxxCardExtension getService ()
    }
    +interface xxxSmartCard extends SmartCard {
        ...
    }
    +interface xxxCardResourceProfileExtension extends KeypleCardResourceProfileExtension {
        ...
    }
    +interface xxxCardSelection extends CardSelection {
        ...
    }
    +interface "**final** xxxCardExtension" as xxxCardExtension extends KeypleCardExtension {
        - -
        +xxxCardSelection createXxxCardSelection ()
        +xxxCardSelection createXxxCardResourceProfileExtension ()
        ...
    }
    ' Adapters
    ~class "**final** xxxCardExtensionAdapter" as xxxCardExtensionAdapter implements xxxCardExtension, CardExtensionSpi {
        ...
    }
    ~class "**final** xxxCardSelectionAdapter" as xxxCardSelectionAdapter implements xxxCardSelection, CardSelectionSpi {
        ...
    }
    ~class "**final** xxxSmartCardAdapter" as xxxSmartCardAdapter implements xxxSmartCard, SmartCardSpi {
        ...
    }
    ~class "**final** xxxCardResourceProfileExtensionAdapter" as xxxCardResourceProfileExtensionAdapter implements xxxCardResourceProfileExtension, CardResourceProfileExtensionSpi {
        ...
    }
}

' Associations

xxxCardExtensionProvider .right.> xxxCardExtension #C_USE : provide >

xxxCardExtension .right.> xxxCardSelection #C_USE : provide >
xxxCardExtension .right.> xxxCardResourceProfileExtension #C_USE : provide >

' == LAYOUT ==

xxxCardSelection -[hidden]- xxxCardExtensionAdapter
xxxCardSelection -[hidden]- xxxSmartCardAdapter
xxxCardExtensionAdapter -[hidden]- CardExtensionSpi
xxxSmartCardAdapter -[hidden]- SmartCardSpi
xxxCardResourceProfileExtensionAdapter -[hidden]- CardResourceProfileExtensionSpi
xxxCardSelectionAdapter -[hidden]- CardSelectionSpi

' == STYLE ==

package commonsApi #C_GREY1 {}
package specificExtension #C_GREY1 {}
package cardSpi #C_GREY1 {}
package serviceSelectionSpi #C_GREY2 {}

class xxxCardExtensionAdapter <<blue>>
class xxxCardSelectionAdapter <<blue>>
class xxxSmartCardAdapter <<blue>>
class xxxCardResourceProfileExtensionAdapter <<blue>>
interface CardExtensionSpi <<blue>>
interface CardSelectionSpi <<blue>>
interface SmartCardSpi <<blue>>
interface CardResourceProfileExtensionSpi <<blue>>

@enduml

@startuml
title
    Keyple 2.0 - Specific Card Extension - 2.0.0 (02/04/2021)
end title



skinparam Shadowing false
skinparam ClassFontStyle italic
skinparam ClassBorderColor #D4AC0D
skinparam stereotypeABorderColor #A9DCDF
skinparam stereotypeIBorderColor #B4A7E5
skinparam stereotypeCBorderColor #ADD1B2
skinparam stereotypeEBorderColor #EB93DF
skinparam ClassBackgroundColor<<red>> #FDEDEC
skinparam ClassBorderColor<<red>> #E74C3C
hide <<red>> stereotype
skinparam ClassBackgroundColor<<purple>> #F4ECF7
skinparam ClassBorderColor<<purple>> #8E44AD
hide <<purple>> stereotype
skinparam ClassBackgroundColor<<blue>> #EBF5FB
skinparam ClassBorderColor<<blue>> #3498DB
hide <<blue>> stereotype
skinparam ClassBackgroundColor<<green>> #E9F7EF
skinparam ClassBorderColor<<green>> #27AE60
hide <<green>> stereotype
skinparam ClassBackgroundColor<<grey>> #EAECEE
skinparam ClassBorderColor<<grey>> #2C3E50
hide <<grey>> stereotype


package "org.eclipse.keyple.core.common" as commonsApi {
    +interface KeypleCardExtension {
    }
    +interface KeypleSmartCard {
    }
    +interface KeypleCardResourceProfileExtension {
    }
}
package "org.eclipse.keyple.core.service.selection.spi" as serviceSelectionSpi {
    +interface CardSelection {
        ...
    }
    +interface SmartCard extends KeypleSmartCard {
        ...
    }
}
package "org.eclipse.keyple.core.card.spi" as cardSpi {
    +interface CardExtensionSpi {
        ...
    }
    +interface CardSelectionSpi {
        ...
    }
    +interface SmartCardSpi {
    }
    +interface CardResourceProfileExtensionSpi {
        ...
    }
}

package "org.eclipse.keyple.card.xxx (specific extension)" as specificExtension {
    +class "**final** xxxCardExtensionProvider" as xxxCardExtensionProvider {
        +{static} xxxCardExtension getService ()
    }
    +interface xxxSmartCard extends SmartCard {
        ...
    }
    +interface xxxCardResourceProfileExtension extends KeypleCardResourceProfileExtension {
        ...
    }
    +interface xxxCardSelection extends CardSelection {
        ...
    }
    +interface "**final** xxxCardExtension" as xxxCardExtension extends KeypleCardExtension {
        - -
        +xxxCardSelection createXxxCardSelection ()
        +xxxCardSelection createXxxCardResourceProfileExtension ()
        ...
    }
    ~class "**final** xxxCardExtensionAdapter" as xxxCardExtensionAdapter implements xxxCardExtension, CardExtensionSpi {
        ...
    }
    ~class "**final** xxxCardSelectionAdapter" as xxxCardSelectionAdapter implements xxxCardSelection, CardSelectionSpi {
        ...
    }
    ~class "**final** xxxSmartCardAdapter" as xxxSmartCardAdapter implements xxxSmartCard, SmartCardSpi {
        ...
    }
    ~class "**final** xxxCardResourceProfileExtensionAdapter" as xxxCardResourceProfileExtensionAdapter implements xxxCardResourceProfileExtension, CardResourceProfileExtensionSpi {
        ...
    }
}


xxxCardExtensionProvider .right.> xxxCardExtension #27AE60 : provide >

xxxCardExtension .right.> xxxCardSelection #27AE60 : provide >
xxxCardExtension .right.> xxxCardResourceProfileExtension #27AE60 : provide >


xxxCardSelection -[hidden]- xxxCardExtensionAdapter
xxxCardSelection -[hidden]- xxxSmartCardAdapter
xxxCardExtensionAdapter -[hidden]- CardExtensionSpi
xxxSmartCardAdapter -[hidden]- SmartCardSpi
xxxCardResourceProfileExtensionAdapter -[hidden]- CardResourceProfileExtensionSpi
xxxCardSelectionAdapter -[hidden]- CardSelectionSpi


package commonsApi #F8F9F9 {}
package specificExtension #F8F9F9 {}
package cardSpi #F8F9F9 {}
package serviceSelectionSpi #F2F3F4 {}

class xxxCardExtensionAdapter <<blue>>
class xxxCardSelectionAdapter <<blue>>
class xxxSmartCardAdapter <<blue>>
class xxxCardResourceProfileExtensionAdapter <<blue>>
interface CardExtensionSpi <<blue>>
interface CardSelectionSpi <<blue>>
interface SmartCardSpi <<blue>>
interface CardResourceProfileExtensionSpi <<blue>>

@enduml

PlantUML version 1.2021.2(Sun Mar 07 12:10:27 CET 2021)
(GPL source distribution)
Java Runtime: OpenJDK Runtime Environment
JVM: OpenJDK 64-Bit Server VM
Default Encoding: Cp1252
Language: fr
Country: FR
--></g></svg>