<?xml version="1.0" encoding="UTF-8" standalone="no"?><svg xmlns="http://www.w3.org/2000/svg" xmlns:xlink="http://www.w3.org/1999/xlink" contentScriptType="application/ecmascript" contentStyleType="text/css" height="1795px" preserveAspectRatio="none" style="width:3812px;height:1795px;" version="1.1" viewBox="0 0 3812 1795" width="3812.5px" zoomAndPan="magnify"><defs/><g><text fill="#000000" font-family="sans-serif" font-size="45" lengthAdjust="spacing" textLength="1135" x="1322.5" y="46.7139">Keyple 2.0 - Specific Card Extension - 2.0.0 (20/05/2021)</text><!--MD5=[621c849533070c5aba8aa732369aa9f8]
cluster commonsApi--><polygon fill="#F8F9F9" points="90,71.6016,675,71.6016,692.5,130.625,700,130.625,700,406.6016,90,406.6016,90,71.6016" style="stroke:#000000;stroke-width:3.75;"/><line style="stroke:#000000;stroke-width:3.75;" x1="90" x2="692.5" y1="130.625" y2="130.625"/><text fill="#000000" font-family="sans-serif" font-size="35" font-weight="bold" lengthAdjust="spacing" textLength="570" x="100" y="112.9346">org.eclipse.keyple.core.common</text><!--MD5=[00563b8f2a00a15cb90f2d0de7f0608c]
cluster readerSelectionSpi--><polygon fill="#F8F9F9" points="935,71.6016,1725,71.6016,1742.5,130.625,2040,130.625,2040,406.6016,935,406.6016,935,71.6016" style="stroke:#000000;stroke-width:3.75;"/><line style="stroke:#000000;stroke-width:3.75;" x1="935" x2="1742.5" y1="130.625" y2="130.625"/><text fill="#000000" font-family="sans-serif" font-size="35" font-weight="bold" lengthAdjust="spacing" textLength="775" x="945" y="112.9346">org.calypsonet.terminal.reader.selection.spi</text><!--MD5=[a17c93d7e125af4ebdd10ac0c519bd24]
cluster cardSpi--><polygon fill="#F8F9F9" points="640,1444.1016,1217.5,1444.1016,1235,1503.125,3280,1503.125,3280,1779.1016,640,1779.1016,640,1444.1016" style="stroke:#000000;stroke-width:3.75;"/><line style="stroke:#000000;stroke-width:3.75;" x1="640" x2="1235" y1="1503.125" y2="1503.125"/><text fill="#000000" font-family="sans-serif" font-size="35" font-weight="bold" lengthAdjust="spacing" textLength="562.5" x="650" y="1485.4346">org.calypsonet.terminal.card.spi</text><!--MD5=[8710f69185497842238d7d996e2af2c1]
cluster cardResourceSpi--><polygon fill="#F8F9F9" points="2495,71.6016,3297.5,71.6016,3315,130.625,3322.5,130.625,3322.5,406.6016,2495,406.6016,2495,71.6016" style="stroke:#000000;stroke-width:3.75;"/><line style="stroke:#000000;stroke-width:3.75;" x1="2495" x2="3315" y1="130.625" y2="130.625"/><text fill="#000000" font-family="sans-serif" font-size="35" font-weight="bold" lengthAdjust="spacing" textLength="787.5" x="2505" y="112.9346">org.eclipse.keyple.core.service.resource.spi</text><!--MD5=[d3c8ee72d6c013b9a0ff8b73b18ac396]
cluster specificExtension--><polygon fill="#F8F9F9" points="40,531.6016,892.5,531.6016,910,590.625,3770,590.625,3770,1361.6016,40,1361.6016,40,531.6016" style="stroke:#000000;stroke-width:3.75;"/><line style="stroke:#000000;stroke-width:3.75;" x1="40" x2="910" y1="590.625" y2="590.625"/><text fill="#000000" font-family="sans-serif" font-size="35" font-weight="bold" lengthAdjust="spacing" textLength="837.5" x="50" y="572.9346">org.eclipse.keyple.card.xxx (specific extension)</text><!--MD5=[93835d7ffcf6a3787bfc7eb02bc099b1]
class KeypleCardExtension--><rect codeLine="48" fill="#FEFECE" height="154.5898" id="KeypleCardExtension" style="stroke:#D4AC0D;stroke-width:3.75;" width="405" x="180" y="211.6016"/><ellipse cx="217.5" cy="251.6016" fill="#B4A7E5" rx="27.5" ry="27.5" style="stroke:#B4A7E5;stroke-width:2.5;"/><path d="M220,244.1016 L220,259.1016 L225,259.1016 L226.2109,259.1016 L227.5,260.6641 L227.5,261.6016 L227.5,262.5391 L226.2109,264.1016 L225,264.1016 L210,264.1016 L208.7891,264.1016 L207.5,262.5391 L207.5,261.6016 L207.5,260.6641 L208.7891,259.1016 L210,259.1016 L215,259.1016 L215,244.1016 L210,244.1016 L208.7891,244.1016 L207.5,242.5391 L207.5,241.6016 L207.5,240.6641 L208.7891,239.1016 L210,239.1016 L225,239.1016 L226.2109,239.1016 L227.5,240.6641 L227.5,241.6016 L227.5,242.5391 L226.2109,244.1016 L225,244.1016 L220,244.1016 Z " fill="#000000"/><ellipse cx="265" cy="250.3516" fill="#84BE84" rx="7.5" ry="7.5" style="stroke:#038048;stroke-width:2.5;"/><text fill="#000000" font-family="sans-serif" font-size="30" font-style="italic" lengthAdjust="spacing" textLength="297.5" x="280" y="263.877">KeypleCardExtension</text><line style="stroke:#D4AC0D;stroke-width:3.75;" x1="182.5" x2="582.5" y1="291.6016" y2="291.6016"/><text fill="#000000" font-family="sans-serif" font-size="27.5" lengthAdjust="spacing" textLength="22.5" x="195" y="330.1489">...</text><line style="stroke:#D4AC0D;stroke-width:3.75;" x1="182.5" x2="582.5" y1="346.1914" y2="346.1914"/><!--MD5=[47f0011813555fb489a606ff84d44b55]
class CardSelection--><rect codeLine="53" fill="#FEFECE" height="154.5898" id="CardSelection" style="stroke:#D4AC0D;stroke-width:3.75;" width="302.5" x="976.25" y="211.6016"/><ellipse cx="1013.75" cy="251.6016" fill="#B4A7E5" rx="27.5" ry="27.5" style="stroke:#B4A7E5;stroke-width:2.5;"/><path d="M1016.25,244.1016 L1016.25,259.1016 L1021.25,259.1016 L1022.4609,259.1016 L1023.75,260.6641 L1023.75,261.6016 L1023.75,262.5391 L1022.4609,264.1016 L1021.25,264.1016 L1006.25,264.1016 L1005.0391,264.1016 L1003.75,262.5391 L1003.75,261.6016 L1003.75,260.6641 L1005.0391,259.1016 L1006.25,259.1016 L1011.25,259.1016 L1011.25,244.1016 L1006.25,244.1016 L1005.0391,244.1016 L1003.75,242.5391 L1003.75,241.6016 L1003.75,240.6641 L1005.0391,239.1016 L1006.25,239.1016 L1021.25,239.1016 L1022.4609,239.1016 L1023.75,240.6641 L1023.75,241.6016 L1023.75,242.5391 L1022.4609,244.1016 L1021.25,244.1016 L1016.25,244.1016 Z " fill="#000000"/><ellipse cx="1061.25" cy="250.3516" fill="#84BE84" rx="7.5" ry="7.5" style="stroke:#038048;stroke-width:2.5;"/><text fill="#000000" font-family="sans-serif" font-size="30" font-style="italic" lengthAdjust="spacing" textLength="195" x="1076.25" y="263.877">CardSelection</text><line style="stroke:#D4AC0D;stroke-width:3.75;" x1="978.75" x2="1276.25" y1="291.6016" y2="291.6016"/><text fill="#000000" font-family="sans-serif" font-size="27.5" lengthAdjust="spacing" textLength="22.5" x="991.25" y="330.1489">...</text><line style="stroke:#D4AC0D;stroke-width:3.75;" x1="978.75" x2="1276.25" y1="346.1914" y2="346.1914"/><!--MD5=[d172dfe3fef1c01713438c88abcc6a2c]
class CardSelector--><rect codeLine="56" fill="#FEFECE" height="154.5898" id="CardSelector" style="stroke:#D4AC0D;stroke-width:3.75;" width="287.5" x="1711.25" y="211.6016"/><ellipse cx="1748.75" cy="251.6016" fill="#B4A7E5" rx="27.5" ry="27.5" style="stroke:#B4A7E5;stroke-width:2.5;"/><path d="M1751.25,244.1016 L1751.25,259.1016 L1756.25,259.1016 L1757.4609,259.1016 L1758.75,260.6641 L1758.75,261.6016 L1758.75,262.5391 L1757.4609,264.1016 L1756.25,264.1016 L1741.25,264.1016 L1740.0391,264.1016 L1738.75,262.5391 L1738.75,261.6016 L1738.75,260.6641 L1740.0391,259.1016 L1741.25,259.1016 L1746.25,259.1016 L1746.25,244.1016 L1741.25,244.1016 L1740.0391,244.1016 L1738.75,242.5391 L1738.75,241.6016 L1738.75,240.6641 L1740.0391,239.1016 L1741.25,239.1016 L1756.25,239.1016 L1757.4609,239.1016 L1758.75,240.6641 L1758.75,241.6016 L1758.75,242.5391 L1757.4609,244.1016 L1756.25,244.1016 L1751.25,244.1016 Z " fill="#000000"/><ellipse cx="1796.25" cy="250.3516" fill="#84BE84" rx="7.5" ry="7.5" style="stroke:#038048;stroke-width:2.5;"/><text fill="#000000" font-family="sans-serif" font-size="30" font-style="italic" lengthAdjust="spacing" textLength="180" x="1811.25" y="263.877">CardSelector</text><line style="stroke:#D4AC0D;stroke-width:3.75;" x1="1713.75" x2="1996.25" y1="291.6016" y2="291.6016"/><text fill="#000000" font-family="sans-serif" font-size="27.5" lengthAdjust="spacing" textLength="22.5" x="1726.25" y="330.1489">...</text><line style="stroke:#D4AC0D;stroke-width:3.75;" x1="1713.75" x2="1996.25" y1="346.1914" y2="346.1914"/><!--MD5=[4d4351d1dd1d596b03b4778d9849998b]
class SmartCard--><rect codeLine="59" fill="#FEFECE" height="154.5898" id="SmartCard" style="stroke:#D4AC0D;stroke-width:3.75;" width="257.5" x="1366.25" y="211.6016"/><ellipse cx="1403.75" cy="251.6016" fill="#B4A7E5" rx="27.5" ry="27.5" style="stroke:#B4A7E5;stroke-width:2.5;"/><path d="M1406.25,244.1016 L1406.25,259.1016 L1411.25,259.1016 L1412.4609,259.1016 L1413.75,260.6641 L1413.75,261.6016 L1413.75,262.5391 L1412.4609,264.1016 L1411.25,264.1016 L1396.25,264.1016 L1395.0391,264.1016 L1393.75,262.5391 L1393.75,261.6016 L1393.75,260.6641 L1395.0391,259.1016 L1396.25,259.1016 L1401.25,259.1016 L1401.25,244.1016 L1396.25,244.1016 L1395.0391,244.1016 L1393.75,242.5391 L1393.75,241.6016 L1393.75,240.6641 L1395.0391,239.1016 L1396.25,239.1016 L1411.25,239.1016 L1412.4609,239.1016 L1413.75,240.6641 L1413.75,241.6016 L1413.75,242.5391 L1412.4609,244.1016 L1411.25,244.1016 L1406.25,244.1016 Z " fill="#000000"/><ellipse cx="1451.25" cy="250.3516" fill="#84BE84" rx="7.5" ry="7.5" style="stroke:#038048;stroke-width:2.5;"/><text fill="#000000" font-family="sans-serif" font-size="30" font-style="italic" lengthAdjust="spacing" textLength="150" x="1466.25" y="263.877">SmartCard</text><line style="stroke:#D4AC0D;stroke-width:3.75;" x1="1368.75" x2="1621.25" y1="291.6016" y2="291.6016"/><text fill="#000000" font-family="sans-serif" font-size="27.5" lengthAdjust="spacing" textLength="22.5" x="1381.25" y="330.1489">...</text><line style="stroke:#D4AC0D;stroke-width:3.75;" x1="1368.75" x2="1621.25" y1="346.1914" y2="346.1914"/><!--MD5=[e210ee7b55cb4fcef849a017d68619f7]
class CardSelectionSpi--><rect codeLine="168" fill="#EBF5FB" height="154.5898" id="CardSelectionSpi" style="stroke:#3498DB;stroke-width:3.75;" width="347.5" x="681.25" y="1584.1016"/><ellipse cx="718.75" cy="1624.1016" fill="#B4A7E5" rx="27.5" ry="27.5" style="stroke:#B4A7E5;stroke-width:2.5;"/><path d="M721.25,1616.6016 L721.25,1631.6016 L726.25,1631.6016 L727.4609,1631.6016 L728.75,1633.1641 L728.75,1634.1016 L728.75,1635.0391 L727.4609,1636.6016 L726.25,1636.6016 L711.25,1636.6016 L710.0391,1636.6016 L708.75,1635.0391 L708.75,1634.1016 L708.75,1633.1641 L710.0391,1631.6016 L711.25,1631.6016 L716.25,1631.6016 L716.25,1616.6016 L711.25,1616.6016 L710.0391,1616.6016 L708.75,1615.0391 L708.75,1614.1016 L708.75,1613.1641 L710.0391,1611.6016 L711.25,1611.6016 L726.25,1611.6016 L727.4609,1611.6016 L728.75,1613.1641 L728.75,1614.1016 L728.75,1615.0391 L727.4609,1616.6016 L726.25,1616.6016 L721.25,1616.6016 Z " fill="#000000"/><ellipse cx="766.25" cy="1622.8516" fill="#84BE84" rx="7.5" ry="7.5" style="stroke:#038048;stroke-width:2.5;"/><text fill="#000000" font-family="sans-serif" font-size="30" font-style="italic" lengthAdjust="spacing" textLength="240" x="781.25" y="1636.377">CardSelectionSpi</text><line style="stroke:#3498DB;stroke-width:3.75;" x1="683.75" x2="1026.25" y1="1664.1016" y2="1664.1016"/><text fill="#000000" font-family="sans-serif" font-size="27.5" lengthAdjust="spacing" textLength="22.5" x="696.25" y="1702.6489">...</text><line style="stroke:#3498DB;stroke-width:3.75;" x1="683.75" x2="1026.25" y1="1718.6914" y2="1718.6914"/><!--MD5=[dccdbbb850bf03879ac099cfa435f162]
class CardSelectorSpi--><rect codeLine="169" fill="#EBF5FB" height="120" id="CardSelectorSpi" style="stroke:#3498DB;stroke-width:3.75;" width="332.5" x="1506.25" y="1601.6016"/><ellipse cx="1543.75" cy="1641.6016" fill="#B4A7E5" rx="27.5" ry="27.5" style="stroke:#B4A7E5;stroke-width:2.5;"/><path d="M1546.25,1634.1016 L1546.25,1649.1016 L1551.25,1649.1016 L1552.4609,1649.1016 L1553.75,1650.6641 L1553.75,1651.6016 L1553.75,1652.5391 L1552.4609,1654.1016 L1551.25,1654.1016 L1536.25,1654.1016 L1535.0391,1654.1016 L1533.75,1652.5391 L1533.75,1651.6016 L1533.75,1650.6641 L1535.0391,1649.1016 L1536.25,1649.1016 L1541.25,1649.1016 L1541.25,1634.1016 L1536.25,1634.1016 L1535.0391,1634.1016 L1533.75,1632.5391 L1533.75,1631.6016 L1533.75,1630.6641 L1535.0391,1629.1016 L1536.25,1629.1016 L1551.25,1629.1016 L1552.4609,1629.1016 L1553.75,1630.6641 L1553.75,1631.6016 L1553.75,1632.5391 L1552.4609,1634.1016 L1551.25,1634.1016 L1546.25,1634.1016 Z " fill="#000000"/><ellipse cx="1591.25" cy="1640.3516" fill="#84BE84" rx="7.5" ry="7.5" style="stroke:#038048;stroke-width:2.5;"/><text fill="#000000" font-family="sans-serif" font-size="30" font-style="italic" lengthAdjust="spacing" textLength="225" x="1606.25" y="1653.877">CardSelectorSpi</text><line style="stroke:#3498DB;stroke-width:3.75;" x1="1508.75" x2="1836.25" y1="1681.6016" y2="1681.6016"/><line style="stroke:#3498DB;stroke-width:3.75;" x1="1508.75" x2="1836.25" y1="1701.6016" y2="1701.6016"/><!--MD5=[c089e258773b765d812cd5d8bc232f90]
class SmartCardSpi--><rect codeLine="170" fill="#EBF5FB" height="120" id="SmartCardSpi" style="stroke:#3498DB;stroke-width:3.75;" width="302.5" x="1116.25" y="1601.6016"/><ellipse cx="1153.75" cy="1641.6016" fill="#B4A7E5" rx="27.5" ry="27.5" style="stroke:#B4A7E5;stroke-width:2.5;"/><path d="M1156.25,1634.1016 L1156.25,1649.1016 L1161.25,1649.1016 L1162.4609,1649.1016 L1163.75,1650.6641 L1163.75,1651.6016 L1163.75,1652.5391 L1162.4609,1654.1016 L1161.25,1654.1016 L1146.25,1654.1016 L1145.0391,1654.1016 L1143.75,1652.5391 L1143.75,1651.6016 L1143.75,1650.6641 L1145.0391,1649.1016 L1146.25,1649.1016 L1151.25,1649.1016 L1151.25,1634.1016 L1146.25,1634.1016 L1145.0391,1634.1016 L1143.75,1632.5391 L1143.75,1631.6016 L1143.75,1630.6641 L1145.0391,1629.1016 L1146.25,1629.1016 L1161.25,1629.1016 L1162.4609,1629.1016 L1163.75,1630.6641 L1163.75,1631.6016 L1163.75,1632.5391 L1162.4609,1634.1016 L1161.25,1634.1016 L1156.25,1634.1016 Z " fill="#000000"/><ellipse cx="1201.25" cy="1640.3516" fill="#84BE84" rx="7.5" ry="7.5" style="stroke:#038048;stroke-width:2.5;"/><text fill="#000000" font-family="sans-serif" font-size="30" font-style="italic" lengthAdjust="spacing" textLength="195" x="1216.25" y="1653.877">SmartCardSpi</text><line style="stroke:#3498DB;stroke-width:3.75;" x1="1118.75" x2="1416.25" y1="1681.6016" y2="1681.6016"/><line style="stroke:#3498DB;stroke-width:3.75;" x1="1118.75" x2="1416.25" y1="1701.6016" y2="1701.6016"/><!--MD5=[8d87e43a1a915ffb33ab992212a28e16]
class CardSelectionRequestSpi--><rect codeLine="171" fill="#EBF5FB" height="154.5898" id="CardSelectionRequestSpi" style="stroke:#3498DB;stroke-width:3.75;" width="462.5" x="1926.25" y="1584.1016"/><ellipse cx="1963.75" cy="1624.1016" fill="#B4A7E5" rx="27.5" ry="27.5" style="stroke:#B4A7E5;stroke-width:2.5;"/><path d="M1966.25,1616.6016 L1966.25,1631.6016 L1971.25,1631.6016 L1972.4609,1631.6016 L1973.75,1633.1641 L1973.75,1634.1016 L1973.75,1635.0391 L1972.4609,1636.6016 L1971.25,1636.6016 L1956.25,1636.6016 L1955.0391,1636.6016 L1953.75,1635.0391 L1953.75,1634.1016 L1953.75,1633.1641 L1955.0391,1631.6016 L1956.25,1631.6016 L1961.25,1631.6016 L1961.25,1616.6016 L1956.25,1616.6016 L1955.0391,1616.6016 L1953.75,1615.0391 L1953.75,1614.1016 L1953.75,1613.1641 L1955.0391,1611.6016 L1956.25,1611.6016 L1971.25,1611.6016 L1972.4609,1611.6016 L1973.75,1613.1641 L1973.75,1614.1016 L1973.75,1615.0391 L1972.4609,1616.6016 L1971.25,1616.6016 L1966.25,1616.6016 Z " fill="#000000"/><ellipse cx="2011.25" cy="1622.8516" fill="#84BE84" rx="7.5" ry="7.5" style="stroke:#038048;stroke-width:2.5;"/><text fill="#000000" font-family="sans-serif" font-size="30" font-style="italic" lengthAdjust="spacing" textLength="355" x="2026.25" y="1636.377">CardSelectionRequestSpi</text><line style="stroke:#3498DB;stroke-width:3.75;" x1="1928.75" x2="2386.25" y1="1664.1016" y2="1664.1016"/><text fill="#000000" font-family="sans-serif" font-size="27.5" lengthAdjust="spacing" textLength="22.5" x="1941.25" y="1702.6489">...</text><line style="stroke:#3498DB;stroke-width:3.75;" x1="1928.75" x2="2386.25" y1="1718.6914" y2="1718.6914"/><!--MD5=[b26cc63de5889bffd0c8769786a5769b]
class CardRequestSpi--><rect codeLine="172" fill="#EBF5FB" height="154.5898" id="CardRequestSpi" style="stroke:#3498DB;stroke-width:3.75;" width="335" x="2477.5" y="1584.1016"/><ellipse cx="2515" cy="1624.1016" fill="#B4A7E5" rx="27.5" ry="27.5" style="stroke:#B4A7E5;stroke-width:2.5;"/><path d="M2517.5,1616.6016 L2517.5,1631.6016 L2522.5,1631.6016 L2523.7109,1631.6016 L2525,1633.1641 L2525,1634.1016 L2525,1635.0391 L2523.7109,1636.6016 L2522.5,1636.6016 L2507.5,1636.6016 L2506.2891,1636.6016 L2505,1635.0391 L2505,1634.1016 L2505,1633.1641 L2506.2891,1631.6016 L2507.5,1631.6016 L2512.5,1631.6016 L2512.5,1616.6016 L2507.5,1616.6016 L2506.2891,1616.6016 L2505,1615.0391 L2505,1614.1016 L2505,1613.1641 L2506.2891,1611.6016 L2507.5,1611.6016 L2522.5,1611.6016 L2523.7109,1611.6016 L2525,1613.1641 L2525,1614.1016 L2525,1615.0391 L2523.7109,1616.6016 L2522.5,1616.6016 L2517.5,1616.6016 Z " fill="#000000"/><ellipse cx="2562.5" cy="1622.8516" fill="#84BE84" rx="7.5" ry="7.5" style="stroke:#038048;stroke-width:2.5;"/><text fill="#000000" font-family="sans-serif" font-size="30" font-style="italic" lengthAdjust="spacing" textLength="227.5" x="2577.5" y="1636.377">CardRequestSpi</text><line style="stroke:#3498DB;stroke-width:3.75;" x1="2480" x2="2810" y1="1664.1016" y2="1664.1016"/><text fill="#000000" font-family="sans-serif" font-size="27.5" lengthAdjust="spacing" textLength="22.5" x="2492.5" y="1702.6489">...</text><line style="stroke:#3498DB;stroke-width:3.75;" x1="2480" x2="2810" y1="1718.6914" y2="1718.6914"/><!--MD5=[1499b49b6a3daea27e4b5ae092e773a3]
class ApduRequestSpi--><rect codeLine="173" fill="#EBF5FB" height="154.5898" id="ApduRequestSpi" style="stroke:#3498DB;stroke-width:3.75;" width="340" x="2900" y="1584.1016"/><ellipse cx="2937.5" cy="1624.1016" fill="#B4A7E5" rx="27.5" ry="27.5" style="stroke:#B4A7E5;stroke-width:2.5;"/><path d="M2940,1616.6016 L2940,1631.6016 L2945,1631.6016 L2946.2109,1631.6016 L2947.5,1633.1641 L2947.5,1634.1016 L2947.5,1635.0391 L2946.2109,1636.6016 L2945,1636.6016 L2930,1636.6016 L2928.7891,1636.6016 L2927.5,1635.0391 L2927.5,1634.1016 L2927.5,1633.1641 L2928.7891,1631.6016 L2930,1631.6016 L2935,1631.6016 L2935,1616.6016 L2930,1616.6016 L2928.7891,1616.6016 L2927.5,1615.0391 L2927.5,1614.1016 L2927.5,1613.1641 L2928.7891,1611.6016 L2930,1611.6016 L2945,1611.6016 L2946.2109,1611.6016 L2947.5,1613.1641 L2947.5,1614.1016 L2947.5,1615.0391 L2946.2109,1616.6016 L2945,1616.6016 L2940,1616.6016 Z " fill="#000000"/><ellipse cx="2985" cy="1622.8516" fill="#84BE84" rx="7.5" ry="7.5" style="stroke:#038048;stroke-width:2.5;"/><text fill="#000000" font-family="sans-serif" font-size="30" font-style="italic" lengthAdjust="spacing" textLength="232.5" x="3000" y="1636.377">ApduRequestSpi</text><line style="stroke:#3498DB;stroke-width:3.75;" x1="2902.5" x2="3237.5" y1="1664.1016" y2="1664.1016"/><text fill="#000000" font-family="sans-serif" font-size="27.5" lengthAdjust="spacing" textLength="22.5" x="2915" y="1702.6489">...</text><line style="stroke:#3498DB;stroke-width:3.75;" x1="2902.5" x2="3237.5" y1="1718.6914" y2="1718.6914"/><!--MD5=[38786a1b53b5c21082cda59a8f9072b9]
class CardResourceProfileExtensionSpi--><rect codeLine="82" fill="#FEFECE" height="154.5898" id="CardResourceProfileExtensionSpi" style="stroke:#D4AC0D;stroke-width:3.75;" width="575" x="2620" y="211.6016"/><ellipse cx="2657.5" cy="251.6016" fill="#B4A7E5" rx="27.5" ry="27.5" style="stroke:#B4A7E5;stroke-width:2.5;"/><path d="M2660,244.1016 L2660,259.1016 L2665,259.1016 L2666.2109,259.1016 L2667.5,260.6641 L2667.5,261.6016 L2667.5,262.5391 L2666.2109,264.1016 L2665,264.1016 L2650,264.1016 L2648.7891,264.1016 L2647.5,262.5391 L2647.5,261.6016 L2647.5,260.6641 L2648.7891,259.1016 L2650,259.1016 L2655,259.1016 L2655,244.1016 L2650,244.1016 L2648.7891,244.1016 L2647.5,242.5391 L2647.5,241.6016 L2647.5,240.6641 L2648.7891,239.1016 L2650,239.1016 L2665,239.1016 L2666.2109,239.1016 L2667.5,240.6641 L2667.5,241.6016 L2667.5,242.5391 L2666.2109,244.1016 L2665,244.1016 L2660,244.1016 Z " fill="#000000"/><ellipse cx="2705" cy="250.3516" fill="#84BE84" rx="7.5" ry="7.5" style="stroke:#038048;stroke-width:2.5;"/><text fill="#000000" font-family="sans-serif" font-size="30" font-style="italic" lengthAdjust="spacing" textLength="467.5" x="2720" y="263.877">CardResourceProfileExtensionSpi</text><line style="stroke:#D4AC0D;stroke-width:3.75;" x1="2622.5" x2="3192.5" y1="291.6016" y2="291.6016"/><text fill="#000000" font-family="sans-serif" font-size="27.5" lengthAdjust="spacing" textLength="22.5" x="2635" y="330.1489">...</text><line style="stroke:#D4AC0D;stroke-width:3.75;" x1="2622.5" x2="3192.5" y1="346.1914" y2="346.1914"/><!--MD5=[125c2a9664bfb82a01f56afd98fcef0c]
class xxxCardExtension--><rect codeLine="88" fill="#FEFECE" height="278.3594" id="xxxCardExtension" style="stroke:#D4AC0D;stroke-width:3.75;" width="605" x="80" y="671.6016"/><ellipse cx="200.625" cy="711.6016" fill="#ADD1B2" rx="27.5" ry="27.5" style="stroke:#ADD1B2;stroke-width:2.5;"/><path d="M205.625,702.8516 Q206.1328,701.6016 206.7188,700.9766 Q207.3047,700.3516 207.9688,700.3516 Q209.1406,700.3516 209.8828,701.0547 Q210.625,701.7578 210.625,703.3984 L210.625,707.3047 Q210.625,708.9453 209.9219,709.6484 Q209.2188,710.3516 208.125,710.3516 Q207.1484,710.3516 206.5234,709.9219 Q205.8984,709.4922 205.625,708.3594 Q205.5078,707.5781 205.0781,707.1484 Q204.2969,706.3281 202.8906,705.8594 Q201.4844,705.3516 200.0781,705.3516 Q198.3203,705.3516 196.8359,706.0547 Q195.3906,706.7578 194.2578,708.3203 Q193.125,709.8828 193.125,712.0313 L193.125,714.3359 Q193.125,716.9141 195.2344,718.6328 Q197.3438,720.3516 201.0938,720.3516 Q203.3203,720.3516 204.8828,719.8438 Q205.7813,719.5703 206.7969,718.6719 Q207.4609,718.1641 207.8125,718.0078 Q208.1641,717.8516 208.5938,717.8516 Q209.4141,717.8516 210,718.5156 Q210.625,719.1406 210.625,720.0391 Q210.625,720.8984 209.7656,721.9141 Q208.5156,723.3984 206.5234,724.2188 Q203.9063,725.3516 200.7031,725.3516 Q196.9531,725.3516 193.9453,723.8672 Q191.5234,722.6953 189.8047,720.1563 Q188.125,717.6172 188.125,714.6094 L188.125,711.875 Q188.125,708.75 189.6094,706.0156 Q191.1328,703.2813 193.75,701.8359 Q196.4063,700.3516 199.375,700.3516 Q201.1719,700.3516 202.7344,700.9766 Q204.2969,701.6016 205.625,702.8516 Z " fill="#000000"/><ellipse cx="264.375" cy="710.3516" fill="#84BE84" rx="7.5" ry="7.5" style="stroke:#038048;stroke-width:2.5;"/><text fill="#000000" font-family="sans-serif" font-size="30" font-style="italic" font-weight="bold" lengthAdjust="spacing" textLength="60" x="279.375" y="723.877">final</text><text fill="#000000" font-family="sans-serif" font-size="30" font-style="italic" lengthAdjust="spacing" textLength="247.5" x="346.875" y="723.877">xxxCardExtension</text><line style="stroke:#D4AC0D;stroke-width:3.75;" x1="82.5" x2="682.5" y1="751.6016" y2="751.6016"/><line style="stroke:#D4AC0D;stroke-width:2.5;" x1="82.5" x2="682.5" y1="771.6016" y2="771.6016"/><ellipse cx="107.5" cy="799.1016" fill="#84BE84" rx="7.5" ry="7.5" style="stroke:#038048;stroke-width:2.5;"/><text fill="#000000" font-family="sans-serif" font-size="27.5" lengthAdjust="spacing" text-decoration="underline" textLength="395" x="130" y="810.1489">xxxCardExtension getInstance ()</text><line style="stroke:#D4AC0D;stroke-width:2.5;stroke-dasharray:1.0,2.0;" x1="82.5" x2="682.5" y1="826.1914" y2="826.1914"/><ellipse cx="107.5" cy="853.6914" fill="#84BE84" rx="7.5" ry="7.5" style="stroke:#038048;stroke-width:2.5;"/><text fill="#000000" font-family="sans-serif" font-size="27.5" lengthAdjust="spacing" textLength="540" x="130" y="864.7388">xxxCardSelection createXxxCardSelection ()</text><ellipse cx="107.5" cy="888.2813" fill="#84BE84" rx="7.5" ry="7.5" style="stroke:#038048;stroke-width:2.5;"/><text fill="#000000" font-family="sans-serif" font-size="27.5" lengthAdjust="spacing" textLength="520" x="130" y="899.3286">xxxCardSelector createXxxCardSelector ()</text><text fill="#000000" font-family="sans-serif" font-size="27.5" lengthAdjust="spacing" textLength="22.5" x="130" y="933.9185">...</text><!--MD5=[96c12fe999c27355c48f5d6d4eb4d00c]
class xxxCardSelection--><rect codeLine="96" fill="#FEFECE" height="154.5898" id="xxxCardSelection" style="stroke:#D4AC0D;stroke-width:3.75;" width="347.5" x="908.75" y="732.8516"/><ellipse cx="946.25" cy="772.8516" fill="#B4A7E5" rx="27.5" ry="27.5" style="stroke:#B4A7E5;stroke-width:2.5;"/><path d="M948.75,765.3516 L948.75,780.3516 L953.75,780.3516 L954.9609,780.3516 L956.25,781.9141 L956.25,782.8516 L956.25,783.7891 L954.9609,785.3516 L953.75,785.3516 L938.75,785.3516 L937.5391,785.3516 L936.25,783.7891 L936.25,782.8516 L936.25,781.9141 L937.5391,780.3516 L938.75,780.3516 L943.75,780.3516 L943.75,765.3516 L938.75,765.3516 L937.5391,765.3516 L936.25,763.7891 L936.25,762.8516 L936.25,761.9141 L937.5391,760.3516 L938.75,760.3516 L953.75,760.3516 L954.9609,760.3516 L956.25,761.9141 L956.25,762.8516 L956.25,763.7891 L954.9609,765.3516 L953.75,765.3516 L948.75,765.3516 Z " fill="#000000"/><ellipse cx="993.75" cy="771.6016" fill="#84BE84" rx="7.5" ry="7.5" style="stroke:#038048;stroke-width:2.5;"/><text fill="#000000" font-family="sans-serif" font-size="30" font-style="italic" lengthAdjust="spacing" textLength="240" x="1008.75" y="785.127">xxxCardSelection</text><line style="stroke:#D4AC0D;stroke-width:3.75;" x1="911.25" x2="1253.75" y1="812.8516" y2="812.8516"/><text fill="#000000" font-family="sans-serif" font-size="27.5" lengthAdjust="spacing" textLength="22.5" x="923.75" y="851.3989">...</text><line style="stroke:#D4AC0D;stroke-width:3.75;" x1="911.25" x2="1253.75" y1="867.4414" y2="867.4414"/><!--MD5=[ae929fe69c881de7fe1da2c6010f3e4d]
class xxxCardSelector--><rect codeLine="99" fill="#FEFECE" height="223.7695" id="xxxCardSelector" style="stroke:#D4AC0D;stroke-width:3.75;" width="400" x="1735" y="697.8516"/><ellipse cx="1772.5" cy="737.8516" fill="#B4A7E5" rx="27.5" ry="27.5" style="stroke:#B4A7E5;stroke-width:2.5;"/><path d="M1775,730.3516 L1775,745.3516 L1780,745.3516 L1781.2109,745.3516 L1782.5,746.9141 L1782.5,747.8516 L1782.5,748.7891 L1781.2109,750.3516 L1780,750.3516 L1765,750.3516 L1763.7891,750.3516 L1762.5,748.7891 L1762.5,747.8516 L1762.5,746.9141 L1763.7891,745.3516 L1765,745.3516 L1770,745.3516 L1770,730.3516 L1765,730.3516 L1763.7891,730.3516 L1762.5,728.7891 L1762.5,727.8516 L1762.5,726.9141 L1763.7891,725.3516 L1765,725.3516 L1780,725.3516 L1781.2109,725.3516 L1782.5,726.9141 L1782.5,727.8516 L1782.5,728.7891 L1781.2109,730.3516 L1780,730.3516 L1775,730.3516 Z " fill="#000000"/><ellipse cx="1820" cy="736.6016" fill="#84BE84" rx="7.5" ry="7.5" style="stroke:#038048;stroke-width:2.5;"/><text fill="#000000" font-family="sans-serif" font-size="30" font-style="italic" font-weight="bold" lengthAdjust="spacing" textLength="60" x="1835" y="750.127">final</text><text fill="#000000" font-family="sans-serif" font-size="30" font-style="italic" lengthAdjust="spacing" textLength="225" x="1902.5" y="750.127">xxxCardSelector</text><line style="stroke:#D4AC0D;stroke-width:3.75;" x1="1737.5" x2="2132.5" y1="777.8516" y2="777.8516"/><line style="stroke:#D4AC0D;stroke-width:2.5;" x1="1737.5" x2="2132.5" y1="797.8516" y2="797.8516"/><ellipse cx="1762.5" cy="825.3516" fill="#84BE84" rx="7.5" ry="7.5" style="stroke:#038048;stroke-width:2.5;"/><text fill="#000000" font-family="sans-serif" font-size="27.5" lengthAdjust="spacing" textLength="297.5" x="1785" y="836.3989">xxxCardSelector set... ()</text><ellipse cx="1762.5" cy="859.9414" fill="#84BE84" rx="7.5" ry="7.5" style="stroke:#038048;stroke-width:2.5;"/><text fill="#000000" font-family="sans-serif" font-size="27.5" lengthAdjust="spacing" textLength="297.5" x="1785" y="870.9888">xxxCardSelector set... ()</text><text fill="#000000" font-family="sans-serif" font-size="27.5" lengthAdjust="spacing" textLength="22.5" x="1785" y="905.5786">...</text><!--MD5=[840dca342d2e2f3185b16a9f6795b3c6]
class xxxSmartCard--><rect codeLine="105" fill="#FEFECE" height="154.5898" id="xxxSmartCard" style="stroke:#D4AC0D;stroke-width:3.75;" width="302.5" x="1343.75" y="732.8516"/><ellipse cx="1381.25" cy="772.8516" fill="#B4A7E5" rx="27.5" ry="27.5" style="stroke:#B4A7E5;stroke-width:2.5;"/><path d="M1383.75,765.3516 L1383.75,780.3516 L1388.75,780.3516 L1389.9609,780.3516 L1391.25,781.9141 L1391.25,782.8516 L1391.25,783.7891 L1389.9609,785.3516 L1388.75,785.3516 L1373.75,785.3516 L1372.5391,785.3516 L1371.25,783.7891 L1371.25,782.8516 L1371.25,781.9141 L1372.5391,780.3516 L1373.75,780.3516 L1378.75,780.3516 L1378.75,765.3516 L1373.75,765.3516 L1372.5391,765.3516 L1371.25,763.7891 L1371.25,762.8516 L1371.25,761.9141 L1372.5391,760.3516 L1373.75,760.3516 L1388.75,760.3516 L1389.9609,760.3516 L1391.25,761.9141 L1391.25,762.8516 L1391.25,763.7891 L1389.9609,765.3516 L1388.75,765.3516 L1383.75,765.3516 Z " fill="#000000"/><ellipse cx="1428.75" cy="771.6016" fill="#84BE84" rx="7.5" ry="7.5" style="stroke:#038048;stroke-width:2.5;"/><text fill="#000000" font-family="sans-serif" font-size="30" font-style="italic" lengthAdjust="spacing" textLength="195" x="1443.75" y="785.127">xxxSmartCard</text><line style="stroke:#D4AC0D;stroke-width:3.75;" x1="1346.25" x2="1643.75" y1="812.8516" y2="812.8516"/><text fill="#000000" font-family="sans-serif" font-size="27.5" lengthAdjust="spacing" textLength="22.5" x="1358.75" y="851.3989">...</text><line style="stroke:#D4AC0D;stroke-width:3.75;" x1="1346.25" x2="1643.75" y1="867.4414" y2="867.4414"/><!--MD5=[b9ed339c1442abfa795cdfa9e9a9d6e3]
class xxxCardResourceProfileExtension--><rect codeLine="108" fill="#FEFECE" height="154.5898" id="xxxCardResourceProfileExtension" style="stroke:#D4AC0D;stroke-width:3.75;" width="642.5" x="2586.25" y="732.8516"/><ellipse cx="2623.75" cy="772.8516" fill="#ADD1B2" rx="27.5" ry="27.5" style="stroke:#ADD1B2;stroke-width:2.5;"/><path d="M2628.75,764.1016 Q2629.2578,762.8516 2629.8438,762.2266 Q2630.4297,761.6016 2631.0938,761.6016 Q2632.2656,761.6016 2633.0078,762.3047 Q2633.75,763.0078 2633.75,764.6484 L2633.75,768.5547 Q2633.75,770.1953 2633.0469,770.8984 Q2632.3438,771.6016 2631.25,771.6016 Q2630.2734,771.6016 2629.6484,771.1719 Q2629.0234,770.7422 2628.75,769.6094 Q2628.6328,768.8281 2628.2031,768.3984 Q2627.4219,767.5781 2626.0156,767.1094 Q2624.6094,766.6016 2623.2031,766.6016 Q2621.4453,766.6016 2619.9609,767.3047 Q2618.5156,768.0078 2617.3828,769.5703 Q2616.25,771.1328 2616.25,773.2813 L2616.25,775.5859 Q2616.25,778.1641 2618.3594,779.8828 Q2620.4688,781.6016 2624.2188,781.6016 Q2626.4453,781.6016 2628.0078,781.0938 Q2628.9063,780.8203 2629.9219,779.9219 Q2630.5859,779.4141 2630.9375,779.2578 Q2631.2891,779.1016 2631.7188,779.1016 Q2632.5391,779.1016 2633.125,779.7656 Q2633.75,780.3906 2633.75,781.2891 Q2633.75,782.1484 2632.8906,783.1641 Q2631.6406,784.6484 2629.6484,785.4688 Q2627.0313,786.6016 2623.8281,786.6016 Q2620.0781,786.6016 2617.0703,785.1172 Q2614.6484,783.9453 2612.9297,781.4063 Q2611.25,778.8672 2611.25,775.8594 L2611.25,773.125 Q2611.25,770 2612.7344,767.2656 Q2614.2578,764.5313 2616.875,763.0859 Q2619.5313,761.6016 2622.5,761.6016 Q2624.2969,761.6016 2625.8594,762.2266 Q2627.4219,762.8516 2628.75,764.1016 Z " fill="#000000"/><polygon fill="#4177AF" points="2671.25,761.6016,2661.25,776.6016,2681.25,776.6016" style="stroke:#1963A0;stroke-width:2.5;"/><text fill="#000000" font-family="sans-serif" font-size="30" font-style="italic" font-weight="bold" lengthAdjust="spacing" textLength="60" x="2686.25" y="785.127">final</text><text fill="#000000" font-family="sans-serif" font-size="30" font-style="italic" lengthAdjust="spacing" textLength="467.5" x="2753.75" y="785.127">xxxCardResourceProfileExtension</text><line style="stroke:#D4AC0D;stroke-width:3.75;" x1="2588.75" x2="3226.25" y1="812.8516" y2="812.8516"/><text fill="#000000" font-family="sans-serif" font-size="27.5" lengthAdjust="spacing" textLength="22.5" x="2601.25" y="851.3989">...</text><line style="stroke:#D4AC0D;stroke-width:3.75;" x1="2588.75" x2="3226.25" y1="867.4414" y2="867.4414"/><!--MD5=[b7f723709f4c95e341f6eb59b203b4a1]
class xxxCardSelectionAdapter--><rect codeLine="162" fill="#EBF5FB" height="154.5898" id="xxxCardSelectionAdapter" style="stroke:#3498DB;stroke-width:3.75;" width="522.5" x="141.25" y="1106.6016"/><ellipse cx="178.75" cy="1146.6016" fill="#ADD1B2" rx="27.5" ry="27.5" style="stroke:#ADD1B2;stroke-width:2.5;"/><path d="M183.75,1137.8516 Q184.2578,1136.6016 184.8438,1135.9766 Q185.4297,1135.3516 186.0938,1135.3516 Q187.2656,1135.3516 188.0078,1136.0547 Q188.75,1136.7578 188.75,1138.3984 L188.75,1142.3047 Q188.75,1143.9453 188.0469,1144.6484 Q187.3438,1145.3516 186.25,1145.3516 Q185.2734,1145.3516 184.6484,1144.9219 Q184.0234,1144.4922 183.75,1143.3594 Q183.6328,1142.5781 183.2031,1142.1484 Q182.4219,1141.3281 181.0156,1140.8594 Q179.6094,1140.3516 178.2031,1140.3516 Q176.4453,1140.3516 174.9609,1141.0547 Q173.5156,1141.7578 172.3828,1143.3203 Q171.25,1144.8828 171.25,1147.0313 L171.25,1149.3359 Q171.25,1151.9141 173.3594,1153.6328 Q175.4688,1155.3516 179.2188,1155.3516 Q181.4453,1155.3516 183.0078,1154.8438 Q183.9063,1154.5703 184.9219,1153.6719 Q185.5859,1153.1641 185.9375,1153.0078 Q186.2891,1152.8516 186.7188,1152.8516 Q187.5391,1152.8516 188.125,1153.5156 Q188.75,1154.1406 188.75,1155.0391 Q188.75,1155.8984 187.8906,1156.9141 Q186.6406,1158.3984 184.6484,1159.2188 Q182.0313,1160.3516 178.8281,1160.3516 Q175.0781,1160.3516 172.0703,1158.8672 Q169.6484,1157.6953 167.9297,1155.1563 Q166.25,1152.6172 166.25,1149.6094 L166.25,1146.875 Q166.25,1143.75 167.7344,1141.0156 Q169.2578,1138.2813 171.875,1136.8359 Q174.5313,1135.3516 177.5,1135.3516 Q179.2969,1135.3516 180.8594,1135.9766 Q182.4219,1136.6016 183.75,1137.8516 Z " fill="#000000"/><polygon fill="#4177AF" points="226.25,1135.3516,216.25,1150.3516,236.25,1150.3516" style="stroke:#1963A0;stroke-width:2.5;"/><text fill="#000000" font-family="sans-serif" font-size="30" font-style="italic" font-weight="bold" lengthAdjust="spacing" textLength="60" x="241.25" y="1158.877">final</text><text fill="#000000" font-family="sans-serif" font-size="30" font-style="italic" lengthAdjust="spacing" textLength="347.5" x="308.75" y="1158.877">xxxCardSelectionAdapter</text><line style="stroke:#3498DB;stroke-width:3.75;" x1="143.75" x2="661.25" y1="1186.6016" y2="1186.6016"/><text fill="#000000" font-family="sans-serif" font-size="27.5" lengthAdjust="spacing" textLength="22.5" x="156.25" y="1225.1489">...</text><line style="stroke:#3498DB;stroke-width:3.75;" x1="143.75" x2="661.25" y1="1241.1914" y2="1241.1914"/><!--MD5=[af1a3a06a73271ce498f794b85ef7cfb]
class xxxCardSelectorAdapter--><rect codeLine="163" fill="#EBF5FB" height="154.5898" id="xxxCardSelectorAdapter" style="stroke:#3498DB;stroke-width:3.75;" width="507.5" x="1316.25" y="1106.6016"/><ellipse cx="1353.75" cy="1146.6016" fill="#ADD1B2" rx="27.5" ry="27.5" style="stroke:#ADD1B2;stroke-width:2.5;"/><path d="M1358.75,1137.8516 Q1359.2578,1136.6016 1359.8438,1135.9766 Q1360.4297,1135.3516 1361.0938,1135.3516 Q1362.2656,1135.3516 1363.0078,1136.0547 Q1363.75,1136.7578 1363.75,1138.3984 L1363.75,1142.3047 Q1363.75,1143.9453 1363.0469,1144.6484 Q1362.3438,1145.3516 1361.25,1145.3516 Q1360.2734,1145.3516 1359.6484,1144.9219 Q1359.0234,1144.4922 1358.75,1143.3594 Q1358.6328,1142.5781 1358.2031,1142.1484 Q1357.4219,1141.3281 1356.0156,1140.8594 Q1354.6094,1140.3516 1353.2031,1140.3516 Q1351.4453,1140.3516 1349.9609,1141.0547 Q1348.5156,1141.7578 1347.3828,1143.3203 Q1346.25,1144.8828 1346.25,1147.0313 L1346.25,1149.3359 Q1346.25,1151.9141 1348.3594,1153.6328 Q1350.4688,1155.3516 1354.2188,1155.3516 Q1356.4453,1155.3516 1358.0078,1154.8438 Q1358.9063,1154.5703 1359.9219,1153.6719 Q1360.5859,1153.1641 1360.9375,1153.0078 Q1361.2891,1152.8516 1361.7188,1152.8516 Q1362.5391,1152.8516 1363.125,1153.5156 Q1363.75,1154.1406 1363.75,1155.0391 Q1363.75,1155.8984 1362.8906,1156.9141 Q1361.6406,1158.3984 1359.6484,1159.2188 Q1357.0313,1160.3516 1353.8281,1160.3516 Q1350.0781,1160.3516 1347.0703,1158.8672 Q1344.6484,1157.6953 1342.9297,1155.1563 Q1341.25,1152.6172 1341.25,1149.6094 L1341.25,1146.875 Q1341.25,1143.75 1342.7344,1141.0156 Q1344.2578,1138.2813 1346.875,1136.8359 Q1349.5313,1135.3516 1352.5,1135.3516 Q1354.2969,1135.3516 1355.8594,1135.9766 Q1357.4219,1136.6016 1358.75,1137.8516 Z " fill="#000000"/><polygon fill="#4177AF" points="1401.25,1135.3516,1391.25,1150.3516,1411.25,1150.3516" style="stroke:#1963A0;stroke-width:2.5;"/><text fill="#000000" font-family="sans-serif" font-size="30" font-style="italic" font-weight="bold" lengthAdjust="spacing" textLength="60" x="1416.25" y="1158.877">final</text><text fill="#000000" font-family="sans-serif" font-size="30" font-style="italic" lengthAdjust="spacing" textLength="332.5" x="1483.75" y="1158.877">xxxCardSelectorAdapter</text><line style="stroke:#3498DB;stroke-width:3.75;" x1="1318.75" x2="1821.25" y1="1186.6016" y2="1186.6016"/><text fill="#000000" font-family="sans-serif" font-size="27.5" lengthAdjust="spacing" textLength="22.5" x="1331.25" y="1225.1489">...</text><line style="stroke:#3498DB;stroke-width:3.75;" x1="1318.75" x2="1821.25" y1="1241.1914" y2="1241.1914"/><!--MD5=[cce03acc605d094508f66994b4b4a5f2]
class xxxSmartCardAdapter--><rect codeLine="164" fill="#EBF5FB" height="154.5898" id="xxxSmartCardAdapter" style="stroke:#3498DB;stroke-width:3.75;" width="477.5" x="751.25" y="1106.6016"/><ellipse cx="788.75" cy="1146.6016" fill="#ADD1B2" rx="27.5" ry="27.5" style="stroke:#ADD1B2;stroke-width:2.5;"/><path d="M793.75,1137.8516 Q794.2578,1136.6016 794.8438,1135.9766 Q795.4297,1135.3516 796.0938,1135.3516 Q797.2656,1135.3516 798.0078,1136.0547 Q798.75,1136.7578 798.75,1138.3984 L798.75,1142.3047 Q798.75,1143.9453 798.0469,1144.6484 Q797.3438,1145.3516 796.25,1145.3516 Q795.2734,1145.3516 794.6484,1144.9219 Q794.0234,1144.4922 793.75,1143.3594 Q793.6328,1142.5781 793.2031,1142.1484 Q792.4219,1141.3281 791.0156,1140.8594 Q789.6094,1140.3516 788.2031,1140.3516 Q786.4453,1140.3516 784.9609,1141.0547 Q783.5156,1141.7578 782.3828,1143.3203 Q781.25,1144.8828 781.25,1147.0313 L781.25,1149.3359 Q781.25,1151.9141 783.3594,1153.6328 Q785.4688,1155.3516 789.2188,1155.3516 Q791.4453,1155.3516 793.0078,1154.8438 Q793.9063,1154.5703 794.9219,1153.6719 Q795.5859,1153.1641 795.9375,1153.0078 Q796.2891,1152.8516 796.7188,1152.8516 Q797.5391,1152.8516 798.125,1153.5156 Q798.75,1154.1406 798.75,1155.0391 Q798.75,1155.8984 797.8906,1156.9141 Q796.6406,1158.3984 794.6484,1159.2188 Q792.0313,1160.3516 788.8281,1160.3516 Q785.0781,1160.3516 782.0703,1158.8672 Q779.6484,1157.6953 777.9297,1155.1563 Q776.25,1152.6172 776.25,1149.6094 L776.25,1146.875 Q776.25,1143.75 777.7344,1141.0156 Q779.2578,1138.2813 781.875,1136.8359 Q784.5313,1135.3516 787.5,1135.3516 Q789.2969,1135.3516 790.8594,1135.9766 Q792.4219,1136.6016 793.75,1137.8516 Z " fill="#000000"/><polygon fill="#4177AF" points="836.25,1135.3516,826.25,1150.3516,846.25,1150.3516" style="stroke:#1963A0;stroke-width:2.5;"/><text fill="#000000" font-family="sans-serif" font-size="30" font-style="italic" font-weight="bold" lengthAdjust="spacing" textLength="60" x="851.25" y="1158.877">final</text><text fill="#000000" font-family="sans-serif" font-size="30" font-style="italic" lengthAdjust="spacing" textLength="302.5" x="918.75" y="1158.877">xxxSmartCardAdapter</text><line style="stroke:#3498DB;stroke-width:3.75;" x1="753.75" x2="1226.25" y1="1186.6016" y2="1186.6016"/><text fill="#000000" font-family="sans-serif" font-size="27.5" lengthAdjust="spacing" textLength="22.5" x="766.25" y="1225.1489">...</text><line style="stroke:#3498DB;stroke-width:3.75;" x1="753.75" x2="1226.25" y1="1241.1914" y2="1241.1914"/><!--MD5=[43ade75bd6d890e787ccdbbbaa69cade]
class CardSelectionRequestAdapter--><rect codeLine="165" fill="#EBF5FB" height="154.5898" id="CardSelectionRequestAdapter" style="stroke:#3498DB;stroke-width:3.75;" width="592.5" x="1966.25" y="1106.6016"/><ellipse cx="2003.75" cy="1146.6016" fill="#ADD1B2" rx="27.5" ry="27.5" style="stroke:#ADD1B2;stroke-width:2.5;"/><path d="M2008.75,1137.8516 Q2009.2578,1136.6016 2009.8438,1135.9766 Q2010.4297,1135.3516 2011.0938,1135.3516 Q2012.2656,1135.3516 2013.0078,1136.0547 Q2013.75,1136.7578 2013.75,1138.3984 L2013.75,1142.3047 Q2013.75,1143.9453 2013.0469,1144.6484 Q2012.3438,1145.3516 2011.25,1145.3516 Q2010.2734,1145.3516 2009.6484,1144.9219 Q2009.0234,1144.4922 2008.75,1143.3594 Q2008.6328,1142.5781 2008.2031,1142.1484 Q2007.4219,1141.3281 2006.0156,1140.8594 Q2004.6094,1140.3516 2003.2031,1140.3516 Q2001.4453,1140.3516 1999.9609,1141.0547 Q1998.5156,1141.7578 1997.3828,1143.3203 Q1996.25,1144.8828 1996.25,1147.0313 L1996.25,1149.3359 Q1996.25,1151.9141 1998.3594,1153.6328 Q2000.4688,1155.3516 2004.2188,1155.3516 Q2006.4453,1155.3516 2008.0078,1154.8438 Q2008.9063,1154.5703 2009.9219,1153.6719 Q2010.5859,1153.1641 2010.9375,1153.0078 Q2011.2891,1152.8516 2011.7188,1152.8516 Q2012.5391,1152.8516 2013.125,1153.5156 Q2013.75,1154.1406 2013.75,1155.0391 Q2013.75,1155.8984 2012.8906,1156.9141 Q2011.6406,1158.3984 2009.6484,1159.2188 Q2007.0313,1160.3516 2003.8281,1160.3516 Q2000.0781,1160.3516 1997.0703,1158.8672 Q1994.6484,1157.6953 1992.9297,1155.1563 Q1991.25,1152.6172 1991.25,1149.6094 L1991.25,1146.875 Q1991.25,1143.75 1992.7344,1141.0156 Q1994.2578,1138.2813 1996.875,1136.8359 Q1999.5313,1135.3516 2002.5,1135.3516 Q2004.2969,1135.3516 2005.8594,1135.9766 Q2007.4219,1136.6016 2008.75,1137.8516 Z " fill="#000000"/><polygon fill="#4177AF" points="2051.25,1135.3516,2041.25,1150.3516,2061.25,1150.3516" style="stroke:#1963A0;stroke-width:2.5;"/><text fill="#000000" font-family="sans-serif" font-size="30" font-style="italic" font-weight="bold" lengthAdjust="spacing" textLength="60" x="2066.25" y="1158.877">final</text><text fill="#000000" font-family="sans-serif" font-size="30" font-style="italic" lengthAdjust="spacing" textLength="417.5" x="2133.75" y="1158.877">CardSelectionRequestAdapter</text><line style="stroke:#3498DB;stroke-width:3.75;" x1="1968.75" x2="2556.25" y1="1186.6016" y2="1186.6016"/><text fill="#000000" font-family="sans-serif" font-size="27.5" lengthAdjust="spacing" textLength="22.5" x="1981.25" y="1225.1489">...</text><line style="stroke:#3498DB;stroke-width:3.75;" x1="1968.75" x2="2556.25" y1="1241.1914" y2="1241.1914"/><!--MD5=[100e1c59935069e6272495215bd566ac]
class CardRequestAdapter--><rect codeLine="166" fill="#EBF5FB" height="154.5898" id="CardRequestAdapter" style="stroke:#3498DB;stroke-width:3.75;" width="465" x="2647.5" y="1106.6016"/><ellipse cx="2685" cy="1146.6016" fill="#ADD1B2" rx="27.5" ry="27.5" style="stroke:#ADD1B2;stroke-width:2.5;"/><path d="M2690,1137.8516 Q2690.5078,1136.6016 2691.0938,1135.9766 Q2691.6797,1135.3516 2692.3438,1135.3516 Q2693.5156,1135.3516 2694.2578,1136.0547 Q2695,1136.7578 2695,1138.3984 L2695,1142.3047 Q2695,1143.9453 2694.2969,1144.6484 Q2693.5938,1145.3516 2692.5,1145.3516 Q2691.5234,1145.3516 2690.8984,1144.9219 Q2690.2734,1144.4922 2690,1143.3594 Q2689.8828,1142.5781 2689.4531,1142.1484 Q2688.6719,1141.3281 2687.2656,1140.8594 Q2685.8594,1140.3516 2684.4531,1140.3516 Q2682.6953,1140.3516 2681.2109,1141.0547 Q2679.7656,1141.7578 2678.6328,1143.3203 Q2677.5,1144.8828 2677.5,1147.0313 L2677.5,1149.3359 Q2677.5,1151.9141 2679.6094,1153.6328 Q2681.7188,1155.3516 2685.4688,1155.3516 Q2687.6953,1155.3516 2689.2578,1154.8438 Q2690.1563,1154.5703 2691.1719,1153.6719 Q2691.8359,1153.1641 2692.1875,1153.0078 Q2692.5391,1152.8516 2692.9688,1152.8516 Q2693.7891,1152.8516 2694.375,1153.5156 Q2695,1154.1406 2695,1155.0391 Q2695,1155.8984 2694.1406,1156.9141 Q2692.8906,1158.3984 2690.8984,1159.2188 Q2688.2813,1160.3516 2685.0781,1160.3516 Q2681.3281,1160.3516 2678.3203,1158.8672 Q2675.8984,1157.6953 2674.1797,1155.1563 Q2672.5,1152.6172 2672.5,1149.6094 L2672.5,1146.875 Q2672.5,1143.75 2673.9844,1141.0156 Q2675.5078,1138.2813 2678.125,1136.8359 Q2680.7813,1135.3516 2683.75,1135.3516 Q2685.5469,1135.3516 2687.1094,1135.9766 Q2688.6719,1136.6016 2690,1137.8516 Z " fill="#000000"/><polygon fill="#4177AF" points="2732.5,1135.3516,2722.5,1150.3516,2742.5,1150.3516" style="stroke:#1963A0;stroke-width:2.5;"/><text fill="#000000" font-family="sans-serif" font-size="30" font-style="italic" font-weight="bold" lengthAdjust="spacing" textLength="60" x="2747.5" y="1158.877">final</text><text fill="#000000" font-family="sans-serif" font-size="30" font-style="italic" lengthAdjust="spacing" textLength="290" x="2815" y="1158.877">CardRequestAdapter</text><line style="stroke:#3498DB;stroke-width:3.75;" x1="2650" x2="3110" y1="1186.6016" y2="1186.6016"/><text fill="#000000" font-family="sans-serif" font-size="27.5" lengthAdjust="spacing" textLength="22.5" x="2662.5" y="1225.1489">...</text><line style="stroke:#3498DB;stroke-width:3.75;" x1="2650" x2="3110" y1="1241.1914" y2="1241.1914"/><!--MD5=[702c384917d520aca1ef7db480e71741]
class ApduRequestAdapter--><rect codeLine="167" fill="#EBF5FB" height="154.5898" id="ApduRequestAdapter" style="stroke:#3498DB;stroke-width:3.75;" width="470" x="3200" y="1106.6016"/><ellipse cx="3237.5" cy="1146.6016" fill="#ADD1B2" rx="27.5" ry="27.5" style="stroke:#ADD1B2;stroke-width:2.5;"/><path d="M3242.5,1137.8516 Q3243.0078,1136.6016 3243.5938,1135.9766 Q3244.1797,1135.3516 3244.8438,1135.3516 Q3246.0156,1135.3516 3246.7578,1136.0547 Q3247.5,1136.7578 3247.5,1138.3984 L3247.5,1142.3047 Q3247.5,1143.9453 3246.7969,1144.6484 Q3246.0938,1145.3516 3245,1145.3516 Q3244.0234,1145.3516 3243.3984,1144.9219 Q3242.7734,1144.4922 3242.5,1143.3594 Q3242.3828,1142.5781 3241.9531,1142.1484 Q3241.1719,1141.3281 3239.7656,1140.8594 Q3238.3594,1140.3516 3236.9531,1140.3516 Q3235.1953,1140.3516 3233.7109,1141.0547 Q3232.2656,1141.7578 3231.1328,1143.3203 Q3230,1144.8828 3230,1147.0313 L3230,1149.3359 Q3230,1151.9141 3232.1094,1153.6328 Q3234.2188,1155.3516 3237.9688,1155.3516 Q3240.1953,1155.3516 3241.7578,1154.8438 Q3242.6563,1154.5703 3243.6719,1153.6719 Q3244.3359,1153.1641 3244.6875,1153.0078 Q3245.0391,1152.8516 3245.4688,1152.8516 Q3246.2891,1152.8516 3246.875,1153.5156 Q3247.5,1154.1406 3247.5,1155.0391 Q3247.5,1155.8984 3246.6406,1156.9141 Q3245.3906,1158.3984 3243.3984,1159.2188 Q3240.7813,1160.3516 3237.5781,1160.3516 Q3233.8281,1160.3516 3230.8203,1158.8672 Q3228.3984,1157.6953 3226.6797,1155.1563 Q3225,1152.6172 3225,1149.6094 L3225,1146.875 Q3225,1143.75 3226.4844,1141.0156 Q3228.0078,1138.2813 3230.625,1136.8359 Q3233.2813,1135.3516 3236.25,1135.3516 Q3238.0469,1135.3516 3239.6094,1135.9766 Q3241.1719,1136.6016 3242.5,1137.8516 Z " fill="#000000"/><polygon fill="#4177AF" points="3285,1135.3516,3275,1150.3516,3295,1150.3516" style="stroke:#1963A0;stroke-width:2.5;"/><text fill="#000000" font-family="sans-serif" font-size="30" font-style="italic" font-weight="bold" lengthAdjust="spacing" textLength="60" x="3300" y="1158.877">final</text><text fill="#000000" font-family="sans-serif" font-size="30" font-style="italic" lengthAdjust="spacing" textLength="295" x="3367.5" y="1158.877">ApduRequestAdapter</text><line style="stroke:#3498DB;stroke-width:3.75;" x1="3202.5" x2="3667.5" y1="1186.6016" y2="1186.6016"/><text fill="#000000" font-family="sans-serif" font-size="27.5" lengthAdjust="spacing" textLength="22.5" x="3215" y="1225.1489">...</text><line style="stroke:#3498DB;stroke-width:3.75;" x1="3202.5" x2="3667.5" y1="1241.1914" y2="1241.1914"/><!--MD5=[f32ec65005451c0b69c9b7f05ba07707]
reverse link KeypleCardExtension to xxxCardExtension--><path d="M382.5,417.1591 C382.5,494.1391 382.5,592.7116 382.5,671.5816 " fill="none" id="KeypleCardExtension-backto-xxxCardExtension" style="stroke:#A80036;stroke-width:2.5;stroke-dasharray:7.0,7.0;"/><polygon fill="none" points="365,416.6691,382.5,366.6691,400,416.6691,365,416.6691" style="stroke:#A80036;stroke-width:2.5;"/><!--MD5=[4abb779e65060c5bfc44d688ec29c257]
reverse link CardSelection to xxxCardSelection--><path d="M1116.6025,416.6116 C1107.995,515.3566 1096.27,649.8816 1089.0525,732.6941 " fill="none" id="CardSelection-backto-xxxCardSelection" style="stroke:#A80036;stroke-width:2.5;"/><polygon fill="none" points="1099.18,414.9591,1120.9575,366.6691,1134.0475,417.9991,1099.18,414.9591" style="stroke:#A80036;stroke-width:2.5;"/><!--MD5=[03332bb9a6b06bb71554ad483aefcb1f]
reverse link CardSelector to xxxCardSelector--><path d="M1874.475,417.2766 C1887.7475,502.9266 1905.155,615.2641 1917.895,697.4666 " fill="none" id="CardSelector-backto-xxxCardSelector" style="stroke:#A80036;stroke-width:2.5;"/><polygon fill="none" points="1856.995,418.7591,1866.6325,366.6691,1891.5825,413.3991,1856.995,418.7591" style="stroke:#A80036;stroke-width:2.5;"/><!--MD5=[7b98aeab9a3d660b23153640da6ec114]
reverse link SmartCard to xxxSmartCard--><path d="M1495,417.2966 C1495,515.9766 1495,650.0716 1495,732.6941 " fill="none" id="SmartCard-backto-xxxSmartCard" style="stroke:#A80036;stroke-width:2.5;"/><polygon fill="none" points="1477.5,416.6691,1495,366.6691,1512.5,416.6691,1477.5,416.6691" style="stroke:#A80036;stroke-width:2.5;"/><!--MD5=[8bc6cb1f4dee831ac87f7cd6f4e65ab4]
reverse link CardResourceProfileExtensionSpi to xxxCardResourceProfileExtension--><path d="M2907.5,417.2966 C2907.5,515.9766 2907.5,650.0716 2907.5,732.6941 " fill="none" id="CardResourceProfileExtensionSpi-backto-xxxCardResourceProfileExtension" style="stroke:#A80036;stroke-width:2.5;stroke-dasharray:7.0,7.0;"/><polygon fill="none" points="2890,416.6691,2907.5,366.6691,2925,416.6691,2890,416.6691" style="stroke:#A80036;stroke-width:2.5;"/><!--MD5=[df9451b318d6606b19f7d4b575c2effa]
reverse link xxxCardSelection to xxxCardSelectionAdapter--><path d="M899.4425,912.1191 C787,973.0966 645.215,1049.9816 541.9,1106.0091 " fill="none" id="xxxCardSelection-backto-xxxCardSelectionAdapter" style="stroke:#A80036;stroke-width:2.5;stroke-dasharray:7.0,7.0;"/><polygon fill="none" points="891.7775,896.3691,944.0725,887.9191,908.46,927.1366,891.7775,896.3691" style="stroke:#A80036;stroke-width:2.5;"/><!--MD5=[c894073829ba8baf12c92f112cb8555f]
reverse link CardSelectionSpi to xxxCardSelectionAdapter--><path d="M747.3875,1546.7316 C663.3125,1458.9416 548.7575,1339.3241 475.2025,1262.5166 " fill="none" id="CardSelectionSpi-backto-xxxCardSelectionAdapter" style="stroke:#A80036;stroke-width:2.5;stroke-dasharray:7.0,7.0;"/><polygon fill="none" points="760.535,1535.1591,782.4775,1583.3746,735.2575,1559.3666,760.535,1535.1591" style="stroke:#A80036;stroke-width:2.5;"/><!--MD5=[077a447c7901b23dcf03acc3d8a70774]
link xxxCardSelectionAdapter to CardSelectionSpi--><!--MD5=[60dd982ce17a20de08d28a6d551c7249]
reverse link xxxCardSelector to xxxCardSelectorAdapter--><path d="M1790.1425,959.1966 C1740.345,1009.5066 1686.6375,1063.7666 1644.7375,1106.0966 " fill="none" id="xxxCardSelector-backto-xxxCardSelectorAdapter" style="stroke:#A80036;stroke-width:2.5;stroke-dasharray:7.0,7.0;"/><polygon fill="none" points="1777.875,946.7141,1825.4875,923.4891,1802.75,971.3366,1777.875,946.7141" style="stroke:#A80036;stroke-width:2.5;"/><!--MD5=[4ad6b4cfbda17f934d6963d5b7bc1623]
reverse link CardSelectorSpi to xxxCardSelectorAdapter--><path d="M1649.155,1551.4891 C1630.025,1463.3041 1603.4325,1340.7216 1586.4675,1262.5166 " fill="none" id="CardSelectorSpi-backto-xxxCardSelectorAdapter" style="stroke:#A80036;stroke-width:2.5;stroke-dasharray:7.0,7.0;"/><polygon fill="none" points="1666.45,1548.6716,1659.95,1601.2451,1632.2475,1556.0916,1666.45,1548.6716" style="stroke:#A80036;stroke-width:2.5;"/><!--MD5=[53791ecb059acc39d3531cf7ced56391]
link xxxCardSelectorAdapter to CardSelectorSpi--><!--MD5=[9002e706f396d6876295fc7061d0da0c]
reverse link xxxSmartCard to xxxSmartCardAdapter--><path d="M1350.5825,918.3066 C1268.425,978.2966 1167.4525,1052.0266 1093.275,1106.1916 " fill="none" id="xxxSmartCard-backto-xxxSmartCardAdapter" style="stroke:#A80036;stroke-width:2.5;stroke-dasharray:7.0,7.0;"/><polygon fill="none" points="1340.8875,903.7166,1391.5875,888.3641,1361.5275,931.9816,1340.8875,903.7166" style="stroke:#A80036;stroke-width:2.5;"/><!--MD5=[c3a026247cd8f9cca2ae38e56abcd097]
reverse link SmartCardSpi to xxxSmartCardAdapter--><path d="M1222.025,1555.6091 C1199.81,1507.7766 1171.6175,1450.7966 1142.5,1401.6016 C1114.0625,1353.5566 1078.095,1302.4741 1048.2325,1262.1641 " fill="none" id="SmartCardSpi-backto-xxxSmartCardAdapter" style="stroke:#A80036;stroke-width:2.5;stroke-dasharray:7.0,7.0;"/><polygon fill="none" points="1238.095,1548.6716,1242.8025,1601.4373,1206.2175,1563.1266,1238.095,1548.6716" style="stroke:#A80036;stroke-width:2.5;"/><!--MD5=[bd6c05ee87062384bb574fb05535b09e]
link xxxSmartCardAdapter to SmartCardSpi--><!--MD5=[4ee34067652aa9a1b27356309ad5cc55]
reverse link CardSelectionRequestSpi to CardSelectionRequestAdapter--><path d="M2185.4075,1533.5191 C2204.58,1447.2441 2229.4025,1335.5366 2245.63,1262.5166 " fill="none" id="CardSelectionRequestSpi-backto-CardSelectionRequestAdapter" style="stroke:#A80036;stroke-width:2.5;stroke-dasharray:7.0,7.0;"/><polygon fill="none" points="2202.2575,1538.3616,2174.3275,1583.3746,2168.0925,1530.7691,2202.2575,1538.3616" style="stroke:#A80036;stroke-width:2.5;"/><!--MD5=[e0cd13c02551a52f14d3dde67c444430]
link CardSelectionRequestAdapter to CardSelectionRequestSpi--><!--MD5=[fee7c39d2b7ca32b51cea31894a49b3e]
reverse link CardRequestSpi to CardRequestAdapter--><path d="M2707.15,1538.4966 C2728.825,1496.1066 2753.175,1448.0866 2775,1404.1016 C2798.3,1357.1516 2823.875,1304.1941 2843.95,1262.2916 " fill="none" id="CardRequestSpi-backto-CardRequestAdapter" style="stroke:#A80036;stroke-width:2.5;stroke-dasharray:7.0,7.0;"/><polygon fill="none" points="2722.5,1546.9391,2684.125,1583.4443,2691.35,1530.9666,2722.5,1546.9391" style="stroke:#A80036;stroke-width:2.5;"/><!--MD5=[d23e39c9eba8f7513b53777eeebf059d]
link CardRequestAdapter to CardRequestSpi--><!--MD5=[2e7b2631130bcf997502918bb0c8ace7]
reverse link ApduRequestSpi to ApduRequestAdapter--><path d="M3159.55,1543.1716 C3227.1,1455.7316 3317.825,1338.2916 3376.35,1262.5166 " fill="none" id="ApduRequestSpi-backto-ApduRequestAdapter" style="stroke:#A80036;stroke-width:2.5;stroke-dasharray:7.0,7.0;"/><polygon fill="none" points="3172.925,1554.5041,3128.5,1583.3746,3145.225,1533.1066,3172.925,1554.5041" style="stroke:#A80036;stroke-width:2.5;"/><!--MD5=[e23e49f2e91f2a61b555fafbc5c430fa]
link ApduRequestAdapter to ApduRequestSpi--><!--MD5=[3aa200d50e8af772637d2251ae140976]
link xxxCardExtension to xxxCardSelection--><path codeLine="138" d="M685.46,810.3516 C756.8175,810.3516 830.835,810.3516 895.35,810.3516 " fill="none" id="xxxCardExtension-to-xxxCardSelection" style="stroke:#27AE60;stroke-width:2.5;stroke-dasharray:7.0,7.0;"/><polygon fill="#27AE60" points="908.1225,810.3516,885.6225,800.3516,895.6225,810.3516,885.6225,820.3516,908.1225,810.3516" style="stroke:#27AE60;stroke-width:2.5;"/><polygon fill="#000000" points="753.125,780.791,730.5123,773.4437,730.5123,788.1383,753.125,780.791" style="stroke:#000000;stroke-width:2.5;"/><text fill="#000000" font-family="sans-serif" font-size="32.5" lengthAdjust="spacing" textLength="100" x="763.125" y="794.0894">provide</text><!--MD5=[476352ebd3566abd1561615ed368c50e]
link xxxCardExtension to xxxCardSelector--><path codeLine="139" d="M568.0925,671.1266 C653.765,615.3116 759.695,557.5516 865,529.1016 C1041.9875,481.2841 1523.135,453.1616 1690,529.1016 C1762.1525,561.9391 1821.3225,627.6841 1863.43,687.3566 " fill="none" id="xxxCardExtension-to-xxxCardSelector" style="stroke:#27AE60;stroke-width:2.5;stroke-dasharray:7.0,7.0;"/><polygon fill="#27AE60" points="1870.565,697.6441,1865.9574,673.4569,1863.4404,687.3732,1849.5241,684.8562,1870.565,697.6441" style="stroke:#27AE60;stroke-width:2.5;"/><polygon fill="#000000" points="1266.249,469.6976,1243.7301,462.0676,1243.546,476.7611,1266.249,469.6976" style="stroke:#000000;stroke-width:2.5;"/><text fill="#000000" font-family="sans-serif" font-size="32.5" lengthAdjust="spacing" textLength="100" x="1276.25" y="482.8394">provide</text><!--MD5=[6aef92196412bbfccb06d3ea1a2cdc76]
link xxxCardSelection to xxxSmartCardAdapter--><!--MD5=[510e0e2ececf9b662c3e0d00341a978a]
link xxxSmartCardAdapter to CardSelectionRequestAdapter--><!--MD5=[c232ca274f0a60491ed692ab389de723]
@startuml
title
    Keyple 2.0 - Specific Card Extension - 2.0.0 (20/05/2021)
end title

' == THEME ==

'Couleurs issues de : https://htmlcolorcodes.com/fr/tableau-de-couleur/tableau-de-couleur-design-plat/
!define C_GREY1 F8F9F9
!define C_GREY2 F2F3F4
!define C_GREY3 E5E7E9
!define C_GREY4 D7DBDD
!define C_GREY5 CACFD2
!define C_GREY6 BDC3C7
!define C_LINK 3498DB
!define C_USE 27AE60

skinparam Shadowing false
skinparam ClassFontStyle italic
skinparam ClassBorderColor #D4AC0D
skinparam stereotypeABorderColor #A9DCDF
skinparam stereotypeIBorderColor #B4A7E5
skinparam stereotypeCBorderColor #ADD1B2
skinparam stereotypeEBorderColor #EB93DF
' Red
skinparam ClassBackgroundColor<<red>> #FDEDEC
skinparam ClassBorderColor<<red>> #E74C3C
hide <<red>> stereotype
' Purple
skinparam ClassBackgroundColor<<purple>> #F4ECF7
skinparam ClassBorderColor<<purple>> #8E44AD
hide <<purple>> stereotype
' blue
skinparam ClassBackgroundColor<<blue>> #EBF5FB
skinparam ClassBorderColor<<blue>> #3498DB
hide <<blue>> stereotype
' Green
skinparam ClassBackgroundColor<<green>> #E9F7EF
skinparam ClassBorderColor<<green>> #27AE60
hide <<green>> stereotype
' Grey
skinparam ClassBackgroundColor<<grey>> #EAECEE
skinparam ClassBorderColor<<grey>> #2C3E50
hide <<grey>> stereotype

' == CONTENT ==

package "org.eclipse.keyple.core.common" as commonsApi {
    +interface KeypleCardExtension {
        ...
    }
}
package "org.calypsonet.terminal.reader.selection.spi" as readerSelectionSpi {
    +interface CardSelection {
        ...
    }
    +interface CardSelector {
        ...
    }
    +interface SmartCard {
        ...
    }
}
package "org.calypsonet.terminal.card.spi" as cardSpi {
    +interface CardSelectionSpi {
        ...
    }
    +interface CardSelectorSpi {
    }
    +interface SmartCardSpi {
    }
    +interface CardSelectionRequestSpi {
        ...
    }
    +interface CardRequestSpi {
        ...
    }
    +interface ApduRequestSpi {
        ...
    }
}
package "org.eclipse.keyple.core.service.resource.spi" as cardResourceSpi {
    +interface CardResourceProfileExtensionSpi {
        ...
    }
}

package "org.eclipse.keyple.card.xxx (specific extension)" as specificExtension {
    +class "**final** xxxCardExtension" as xxxCardExtension implements KeypleCardExtension {
        - -
        +{static} xxxCardExtension getInstance ()
        ..
        +xxxCardSelection createXxxCardSelection ()
        +xxxCardSelector createXxxCardSelector ()
        ...
    }
    +interface xxxCardSelection extends CardSelection {
        ...
    }
    +interface "**final** xxxCardSelector" as xxxCardSelector implements CardSelector {
        - -
        +xxxCardSelector set... ()
        +xxxCardSelector set... ()
        ...
    }
    +interface xxxSmartCard extends SmartCard {
        ...
    }
    ~class "**final** xxxCardResourceProfileExtension" as xxxCardResourceProfileExtension implements CardResourceProfileExtensionSpi {
        ...
    }
    ' Adapters
    together {
    ~class "**final** xxxCardSelectionAdapter" as xxxCardSelectionAdapter implements xxxCardSelection, CardSelectionSpi {
        ...
    }
    ~class "**final** xxxCardSelectorAdapter" as xxxCardSelectorAdapter implements xxxCardSelector, CardSelectorSpi {
        ...
    }
    ~class "**final** xxxSmartCardAdapter" as xxxSmartCardAdapter implements xxxSmartCard, SmartCardSpi {
        ...
    }
    }
    together {
    ~class "**final** CardSelectionRequestAdapter" as CardSelectionRequestAdapter implements CardSelectionRequestSpi {
        ...
    }
    ~class "**final** CardRequestAdapter" as CardRequestAdapter implements CardRequestSpi {
        ...
    }
    ~class "**final** ApduRequestAdapter" as ApduRequestAdapter implements ApduRequestSpi {
        ...
    }
    }
}

' Associations

xxxCardExtension .right.> xxxCardSelection #C_USE : provide >
xxxCardExtension .right.> xxxCardSelector #C_USE : provide >

' == LAYOUT ==

xxxCardSelection -[hidden]- xxxSmartCardAdapter
xxxCardSelectorAdapter -[hidden]- CardSelectorSpi
xxxSmartCardAdapter -[hidden]- SmartCardSpi
xxxCardSelectionAdapter -[hidden]- CardSelectionSpi

xxxSmartCardAdapter -[hidden]right- CardSelectionRequestAdapter

CardSelectionRequestAdapter -[hidden]- CardSelectionRequestSpi
CardRequestAdapter -[hidden]- CardRequestSpi
ApduRequestAdapter -[hidden]- ApduRequestSpi

' == STYLE ==

package commonsApi #C_GREY1 {}
package specificExtension #C_GREY1 {}
package cardSpi #C_GREY1 {}
package readerSelectionSpi #C_GREY1 {}
package cardResourceSpi #C_GREY1 {}

class xxxCardSelectionAdapter <<blue>>
class xxxCardSelectorAdapter <<blue>>
class xxxSmartCardAdapter <<blue>>
class CardSelectionRequestAdapter <<blue>>
class CardRequestAdapter <<blue>>
class ApduRequestAdapter <<blue>>
interface CardSelectionSpi <<blue>>
interface CardSelectorSpi <<blue>>
interface SmartCardSpi <<blue>>
interface CardSelectionRequestSpi <<blue>>
interface CardRequestSpi <<blue>>
interface ApduRequestSpi <<blue>>

@enduml

@startuml
title
    Keyple 2.0 - Specific Card Extension - 2.0.0 (20/05/2021)
end title



skinparam Shadowing false
skinparam ClassFontStyle italic
skinparam ClassBorderColor #D4AC0D
skinparam stereotypeABorderColor #A9DCDF
skinparam stereotypeIBorderColor #B4A7E5
skinparam stereotypeCBorderColor #ADD1B2
skinparam stereotypeEBorderColor #EB93DF
skinparam ClassBackgroundColor<<red>> #FDEDEC
skinparam ClassBorderColor<<red>> #E74C3C
hide <<red>> stereotype
skinparam ClassBackgroundColor<<purple>> #F4ECF7
skinparam ClassBorderColor<<purple>> #8E44AD
hide <<purple>> stereotype
skinparam ClassBackgroundColor<<blue>> #EBF5FB
skinparam ClassBorderColor<<blue>> #3498DB
hide <<blue>> stereotype
skinparam ClassBackgroundColor<<green>> #E9F7EF
skinparam ClassBorderColor<<green>> #27AE60
hide <<green>> stereotype
skinparam ClassBackgroundColor<<grey>> #EAECEE
skinparam ClassBorderColor<<grey>> #2C3E50
hide <<grey>> stereotype


package "org.eclipse.keyple.core.common" as commonsApi {
    +interface KeypleCardExtension {
        ...
    }
}
package "org.calypsonet.terminal.reader.selection.spi" as readerSelectionSpi {
    +interface CardSelection {
        ...
    }
    +interface CardSelector {
        ...
    }
    +interface SmartCard {
        ...
    }
}
package "org.calypsonet.terminal.card.spi" as cardSpi {
    +interface CardSelectionSpi {
        ...
    }
    +interface CardSelectorSpi {
    }
    +interface SmartCardSpi {
    }
    +interface CardSelectionRequestSpi {
        ...
    }
    +interface CardRequestSpi {
        ...
    }
    +interface ApduRequestSpi {
        ...
    }
}
package "org.eclipse.keyple.core.service.resource.spi" as cardResourceSpi {
    +interface CardResourceProfileExtensionSpi {
        ...
    }
}

package "org.eclipse.keyple.card.xxx (specific extension)" as specificExtension {
    +class "**final** xxxCardExtension" as xxxCardExtension implements KeypleCardExtension {
        - -
        +{static} xxxCardExtension getInstance ()
        ..
        +xxxCardSelection createXxxCardSelection ()
        +xxxCardSelector createXxxCardSelector ()
        ...
    }
    +interface xxxCardSelection extends CardSelection {
        ...
    }
    +interface "**final** xxxCardSelector" as xxxCardSelector implements CardSelector {
        - -
        +xxxCardSelector set... ()
        +xxxCardSelector set... ()
        ...
    }
    +interface xxxSmartCard extends SmartCard {
        ...
    }
    ~class "**final** xxxCardResourceProfileExtension" as xxxCardResourceProfileExtension implements CardResourceProfileExtensionSpi {
        ...
    }
    together {
    ~class "**final** xxxCardSelectionAdapter" as xxxCardSelectionAdapter implements xxxCardSelection, CardSelectionSpi {
        ...
    }
    ~class "**final** xxxCardSelectorAdapter" as xxxCardSelectorAdapter implements xxxCardSelector, CardSelectorSpi {
        ...
    }
    ~class "**final** xxxSmartCardAdapter" as xxxSmartCardAdapter implements xxxSmartCard, SmartCardSpi {
        ...
    }
    }
    together {
    ~class "**final** CardSelectionRequestAdapter" as CardSelectionRequestAdapter implements CardSelectionRequestSpi {
        ...
    }
    ~class "**final** CardRequestAdapter" as CardRequestAdapter implements CardRequestSpi {
        ...
    }
    ~class "**final** ApduRequestAdapter" as ApduRequestAdapter implements ApduRequestSpi {
        ...
    }
    }
}


xxxCardExtension .right.> xxxCardSelection #27AE60 : provide >
xxxCardExtension .right.> xxxCardSelector #27AE60 : provide >


xxxCardSelection -[hidden]- xxxSmartCardAdapter
xxxCardSelectorAdapter -[hidden]- CardSelectorSpi
xxxSmartCardAdapter -[hidden]- SmartCardSpi
xxxCardSelectionAdapter -[hidden]- CardSelectionSpi

xxxSmartCardAdapter -[hidden]right- CardSelectionRequestAdapter

CardSelectionRequestAdapter -[hidden]- CardSelectionRequestSpi
CardRequestAdapter -[hidden]- CardRequestSpi
ApduRequestAdapter -[hidden]- ApduRequestSpi


package commonsApi #F8F9F9 {}
package specificExtension #F8F9F9 {}
package cardSpi #F8F9F9 {}
package readerSelectionSpi #F8F9F9 {}
package cardResourceSpi #F8F9F9 {}

class xxxCardSelectionAdapter <<blue>>
class xxxCardSelectorAdapter <<blue>>
class xxxSmartCardAdapter <<blue>>
class CardSelectionRequestAdapter <<blue>>
class CardRequestAdapter <<blue>>
class ApduRequestAdapter <<blue>>
interface CardSelectionSpi <<blue>>
interface CardSelectorSpi <<blue>>
interface SmartCardSpi <<blue>>
interface CardSelectionRequestSpi <<blue>>
interface CardRequestSpi <<blue>>
interface ApduRequestSpi <<blue>>

@enduml

PlantUML version 1.2021.5(Sun Apr 25 13:20:28 CEST 2021)
(GPL source distribution)
Java Runtime: OpenJDK Runtime Environment
JVM: Dynamic Code Evolution 64-Bit Server VM
Default Encoding: Cp1252
Language: fr
Country: FR
--></g></svg>