<?xml version="1.0" encoding="UTF-8" standalone="no"?><svg xmlns="http://www.w3.org/2000/svg" xmlns:xlink="http://www.w3.org/1999/xlink" contentScriptType="application/ecmascript" contentStyleType="text/css" height="1720px" preserveAspectRatio="none" style="width:2477px;height:1720px;background:#FFFFFF;" version="1.1" viewBox="0 0 2477 1720" width="2477.5px" zoomAndPan="magnify"><defs><filter height="1" id="bc2kny5lhca3a0" width="1" x="0" y="0"><feFlood flood-color="#FFFF00" result="flood"/><feComposite in="SourceGraphic" in2="flood" operator="over"/></filter><filter height="1" id="bc2kny5lhca3a1" width="1" x="0" y="0"><feFlood flood-color="#ADD8E6" result="flood"/><feComposite in="SourceGraphic" in2="flood" operator="over"/></filter></defs><g><text fill="#000000" font-family="sans-serif" font-size="45" lengthAdjust="spacing" textLength="1327.5" x="558.75" y="46.7139">Keyple 2.0 - Specific Distributed Local Service - 2.0.0 (08/03/2021)</text><rect fill="#DDDDDD" height="157.0703" rx="12.5" ry="12.5" style="stroke:#000000;stroke-width:2.5;" width="557.5" x="942.5" y="76.6016"/><text fill="#000000" font-family="sans-serif" font-size="35" lengthAdjust="spacing" text-decoration="underline" textLength="220" x="957.5" y="125.4346">Colors legend</text><text fill="#000000" font-family="sans-serif" font-size="35" lengthAdjust="spacing" textLength="10" x="1187.5" y="125.4346">:</text><ellipse cx="971.25" cy="158.3984" fill="#000000" rx="6.25" ry="6.25" style="stroke:#000000;stroke-width:0.0;"/><text fill="#000000" filter="url(#bc2kny5lhca3a0)" font-family="sans-serif" font-size="35" lengthAdjust="spacing" textLength="377.5" x="990" y="169.458">Public API for end users</text><ellipse cx="971.25" cy="202.4219" fill="#000000" rx="6.25" ry="6.25" style="stroke:#000000;stroke-width:0.0;"/><text fill="#000000" filter="url(#bc2kny5lhca3a1)" font-family="sans-serif" font-size="35" lengthAdjust="spacing" textLength="495" x="990" y="213.4814">Private API for internal use only</text><!--MD5=[621c849533070c5aba8aa732369aa9f8]
cluster commonsApi--><polygon fill="#F8F9F9" points="750,271.1719,1335,271.1719,1352.5,330.1953,2435,330.1953,2435,561.1719,750,561.1719,750,271.1719" style="stroke:#000000;stroke-width:3.75;"/><line style="stroke:#000000;stroke-width:3.75;" x1="750" x2="1352.5" y1="330.1953" y2="330.1953"/><text fill="#000000" font-family="sans-serif" font-size="35" font-weight="bold" lengthAdjust="spacing" textLength="570" x="760" y="312.5049">org.eclipse.keyple.core.common</text><!--MD5=[4ab15a897933482ba12a6ad640dff6f8]
cluster distributedLocalSpi--><polygon fill="#F8F9F9" points="1102.5,1418.6719,1887.5,1418.6719,1905,1477.6953,2030,1477.6953,2030,1703.6719,1102.5,1703.6719,1102.5,1418.6719" style="stroke:#000000;stroke-width:3.75;"/><line style="stroke:#000000;stroke-width:3.75;" x1="1102.5" x2="1905" y1="1477.6953" y2="1477.6953"/><text fill="#000000" font-family="sans-serif" font-size="35" font-weight="bold" lengthAdjust="spacing" textLength="770" x="1112.5" y="1460.0049">org.eclipse.keyple.core.distributed.local.spi</text><!--MD5=[f58994b942058ed8b057f206ca1af27c]
cluster specificDistributedLocalApi--><polygon fill="#F8F9F9" points="40,683.6719,1352.5,683.6719,1370,742.6953,2342.5,742.6953,2342.5,1316.1719,40,1316.1719,40,683.6719" style="stroke:#000000;stroke-width:3.75;"/><line style="stroke:#000000;stroke-width:3.75;" x1="40" x2="1370" y1="742.6953" y2="742.6953"/><text fill="#000000" font-family="sans-serif" font-size="35" font-weight="bold" lengthAdjust="spacing" textLength="1297.5" x="50" y="725.0049">org.eclipse.keyple.distributed.local.xxx (specific distributed local service)</text><!--MD5=[a2300e51c70a09b3b8c0440329c7d6d3]
class KeypleDistributedLocalServiceExtensionFactory--><rect codeLine="54" fill="#FEFECE" height="120" id="KeypleDistributedLocalServiceExtensionFactory" style="stroke:#D4AC0D;stroke-width:3.75;" width="765" x="857.5" y="381.1719"/><ellipse cx="895" cy="421.1719" fill="#B4A7E5" rx="27.5" ry="27.5" style="stroke:#B4A7E5;stroke-width:2.5;"/><path d="M897.5,413.6719 L897.5,428.6719 L902.5,428.6719 L903.7109,428.6719 L905,430.2344 L905,431.1719 L905,432.1094 L903.7109,433.6719 L902.5,433.6719 L887.5,433.6719 L886.2891,433.6719 L885,432.1094 L885,431.1719 L885,430.2344 L886.2891,428.6719 L887.5,428.6719 L892.5,428.6719 L892.5,413.6719 L887.5,413.6719 L886.2891,413.6719 L885,412.1094 L885,411.1719 L885,410.2344 L886.2891,408.6719 L887.5,408.6719 L902.5,408.6719 L903.7109,408.6719 L905,410.2344 L905,411.1719 L905,412.1094 L903.7109,413.6719 L902.5,413.6719 L897.5,413.6719 Z " fill="#000000"/><ellipse cx="942.5" cy="419.9219" fill="#84BE84" rx="7.5" ry="7.5" style="stroke:#038048;stroke-width:2.5;"/><text fill="#000000" font-family="sans-serif" font-size="30" font-style="italic" lengthAdjust="spacing" textLength="657.5" x="957.5" y="433.4473">KeypleDistributedLocalServiceExtensionFactory</text><line style="stroke:#D4AC0D;stroke-width:3.75;" x1="860" x2="1620" y1="461.1719" y2="461.1719"/><line style="stroke:#D4AC0D;stroke-width:3.75;" x1="860" x2="1620" y1="481.1719" y2="481.1719"/><!--MD5=[2756593ddab659782225b53cebc4a27a]
class KeypleDistributedLocalServiceExtension--><rect codeLine="56" fill="#FEFECE" height="120" id="KeypleDistributedLocalServiceExtension" style="stroke:#D4AC0D;stroke-width:3.75;" width="665" x="1710" y="381.1719"/><ellipse cx="1747.5" cy="421.1719" fill="#B4A7E5" rx="27.5" ry="27.5" style="stroke:#B4A7E5;stroke-width:2.5;"/><path d="M1750,413.6719 L1750,428.6719 L1755,428.6719 L1756.2109,428.6719 L1757.5,430.2344 L1757.5,431.1719 L1757.5,432.1094 L1756.2109,433.6719 L1755,433.6719 L1740,433.6719 L1738.7891,433.6719 L1737.5,432.1094 L1737.5,431.1719 L1737.5,430.2344 L1738.7891,428.6719 L1740,428.6719 L1745,428.6719 L1745,413.6719 L1740,413.6719 L1738.7891,413.6719 L1737.5,412.1094 L1737.5,411.1719 L1737.5,410.2344 L1738.7891,408.6719 L1740,408.6719 L1755,408.6719 L1756.2109,408.6719 L1757.5,410.2344 L1757.5,411.1719 L1757.5,412.1094 L1756.2109,413.6719 L1755,413.6719 L1750,413.6719 Z " fill="#000000"/><ellipse cx="1795" cy="419.9219" fill="#84BE84" rx="7.5" ry="7.5" style="stroke:#038048;stroke-width:2.5;"/><text fill="#000000" font-family="sans-serif" font-size="30" font-style="italic" lengthAdjust="spacing" textLength="557.5" x="1810" y="433.4473">KeypleDistributedLocalServiceExtension</text><line style="stroke:#D4AC0D;stroke-width:3.75;" x1="1712.5" x2="2372.5" y1="461.1719" y2="461.1719"/><line style="stroke:#D4AC0D;stroke-width:3.75;" x1="1712.5" x2="2372.5" y1="481.1719" y2="481.1719"/><!--MD5=[ba23ee47f0072bc0aa0f26e4f66e8703]
class LocalServiceFactorySpi--><rect codeLine="107" fill="#EBF5FB" height="154.5898" id="LocalServiceFactorySpi" style="stroke:#3498DB;stroke-width:3.75;" width="430" x="1142.5" y="1508.6719"/><ellipse cx="1180" cy="1548.6719" fill="#B4A7E5" rx="27.5" ry="27.5" style="stroke:#B4A7E5;stroke-width:2.5;"/><path d="M1182.5,1541.1719 L1182.5,1556.1719 L1187.5,1556.1719 L1188.7109,1556.1719 L1190,1557.7344 L1190,1558.6719 L1190,1559.6094 L1188.7109,1561.1719 L1187.5,1561.1719 L1172.5,1561.1719 L1171.2891,1561.1719 L1170,1559.6094 L1170,1558.6719 L1170,1557.7344 L1171.2891,1556.1719 L1172.5,1556.1719 L1177.5,1556.1719 L1177.5,1541.1719 L1172.5,1541.1719 L1171.2891,1541.1719 L1170,1539.6094 L1170,1538.6719 L1170,1537.7344 L1171.2891,1536.1719 L1172.5,1536.1719 L1187.5,1536.1719 L1188.7109,1536.1719 L1190,1537.7344 L1190,1538.6719 L1190,1539.6094 L1188.7109,1541.1719 L1187.5,1541.1719 L1182.5,1541.1719 Z " fill="#000000"/><ellipse cx="1227.5" cy="1547.4219" fill="#84BE84" rx="7.5" ry="7.5" style="stroke:#038048;stroke-width:2.5;"/><text fill="#000000" font-family="sans-serif" font-size="30" font-style="italic" lengthAdjust="spacing" textLength="322.5" x="1242.5" y="1560.9473">LocalServiceFactorySpi</text><line style="stroke:#3498DB;stroke-width:3.75;" x1="1145" x2="1570" y1="1588.6719" y2="1588.6719"/><text fill="#000000" font-family="sans-serif" font-size="27.5" lengthAdjust="spacing" textLength="22.5" x="1157.5" y="1627.2192">...</text><line style="stroke:#3498DB;stroke-width:3.75;" x1="1145" x2="1570" y1="1643.2617" y2="1643.2617"/><!--MD5=[a6e181576af5f47505adeb022c95499b]
class LocalServiceSpi--><rect codeLine="108" fill="#EBF5FB" height="154.5898" id="LocalServiceSpi" style="stroke:#3498DB;stroke-width:3.75;" width="330" x="1660" y="1508.6719"/><ellipse cx="1697.5" cy="1548.6719" fill="#B4A7E5" rx="27.5" ry="27.5" style="stroke:#B4A7E5;stroke-width:2.5;"/><path d="M1700,1541.1719 L1700,1556.1719 L1705,1556.1719 L1706.2109,1556.1719 L1707.5,1557.7344 L1707.5,1558.6719 L1707.5,1559.6094 L1706.2109,1561.1719 L1705,1561.1719 L1690,1561.1719 L1688.7891,1561.1719 L1687.5,1559.6094 L1687.5,1558.6719 L1687.5,1557.7344 L1688.7891,1556.1719 L1690,1556.1719 L1695,1556.1719 L1695,1541.1719 L1690,1541.1719 L1688.7891,1541.1719 L1687.5,1539.6094 L1687.5,1538.6719 L1687.5,1537.7344 L1688.7891,1536.1719 L1690,1536.1719 L1705,1536.1719 L1706.2109,1536.1719 L1707.5,1537.7344 L1707.5,1538.6719 L1707.5,1539.6094 L1706.2109,1541.1719 L1705,1541.1719 L1700,1541.1719 Z " fill="#000000"/><ellipse cx="1745" cy="1547.4219" fill="#84BE84" rx="7.5" ry="7.5" style="stroke:#038048;stroke-width:2.5;"/><text fill="#000000" font-family="sans-serif" font-size="30" font-style="italic" lengthAdjust="spacing" textLength="222.5" x="1760" y="1560.9473">LocalServiceSpi</text><line style="stroke:#3498DB;stroke-width:3.75;" x1="1662.5" x2="1987.5" y1="1588.6719" y2="1588.6719"/><text fill="#000000" font-family="sans-serif" font-size="27.5" lengthAdjust="spacing" textLength="22.5" x="1675" y="1627.2192">...</text><line style="stroke:#3498DB;stroke-width:3.75;" x1="1662.5" x2="1987.5" y1="1643.2617" y2="1643.2617"/><!--MD5=[a74a817d9dd53ca876673f5d2607a7ec]
class xxxDistributedLocalServiceFactoryProvider--><rect codeLine="70" fill="#FEFECE" height="154.5898" id="xxxDistributedLocalServiceFactoryProvider" style="stroke:#D4AC0D;stroke-width:3.75;" width="762.5" x="148.75" y="793.6719"/><ellipse cx="186.25" cy="833.6719" fill="#ADD1B2" rx="27.5" ry="27.5" style="stroke:#ADD1B2;stroke-width:2.5;"/><path d="M191.25,824.9219 Q191.7578,823.6719 192.3438,823.0469 Q192.9297,822.4219 193.5938,822.4219 Q194.7656,822.4219 195.5078,823.125 Q196.25,823.8281 196.25,825.4688 L196.25,829.375 Q196.25,831.0156 195.5469,831.7188 Q194.8438,832.4219 193.75,832.4219 Q192.7734,832.4219 192.1484,831.9922 Q191.5234,831.5625 191.25,830.4297 Q191.1328,829.6484 190.7031,829.2188 Q189.9219,828.3984 188.5156,827.9297 Q187.1094,827.4219 185.7031,827.4219 Q183.9453,827.4219 182.4609,828.125 Q181.0156,828.8281 179.8828,830.3906 Q178.75,831.9531 178.75,834.1016 L178.75,836.4063 Q178.75,838.9844 180.8594,840.7031 Q182.9688,842.4219 186.7188,842.4219 Q188.9453,842.4219 190.5078,841.9141 Q191.4063,841.6406 192.4219,840.7422 Q193.0859,840.2344 193.4375,840.0781 Q193.7891,839.9219 194.2188,839.9219 Q195.0391,839.9219 195.625,840.5859 Q196.25,841.2109 196.25,842.1094 Q196.25,842.9688 195.3906,843.9844 Q194.1406,845.4688 192.1484,846.2891 Q189.5313,847.4219 186.3281,847.4219 Q182.5781,847.4219 179.5703,845.9375 Q177.1484,844.7656 175.4297,842.2266 Q173.75,839.6875 173.75,836.6797 L173.75,833.9453 Q173.75,830.8203 175.2344,828.0859 Q176.7578,825.3516 179.375,823.9063 Q182.0313,822.4219 185,822.4219 Q186.7969,822.4219 188.3594,823.0469 Q189.9219,823.6719 191.25,824.9219 Z " fill="#000000"/><ellipse cx="233.75" cy="832.4219" fill="#84BE84" rx="7.5" ry="7.5" style="stroke:#038048;stroke-width:2.5;"/><text fill="#000000" font-family="sans-serif" font-size="30" font-style="italic" font-weight="bold" lengthAdjust="spacing" textLength="60" x="248.75" y="845.9473">final</text><text fill="#000000" font-family="sans-serif" font-size="30" font-style="italic" lengthAdjust="spacing" textLength="587.5" x="316.25" y="845.9473">xxxDistributedLocalServiceFactoryProvider</text><line style="stroke:#D4AC0D;stroke-width:3.75;" x1="151.25" x2="908.75" y1="873.6719" y2="873.6719"/><line style="stroke:#D4AC0D;stroke-width:3.75;" x1="151.25" x2="908.75" y1="893.6719" y2="893.6719"/><ellipse cx="176.25" cy="921.1719" fill="#84BE84" rx="7.5" ry="7.5" style="stroke:#038048;stroke-width:2.5;"/><text fill="#000000" font-family="sans-serif" font-size="27.5" lengthAdjust="spacing" text-decoration="underline" textLength="587.5" x="198.75" y="932.2192">xxxDistributedLocalServiceFactory getFactory ()</text><!--MD5=[262abba3cc5e4cd64e86278d3adc4ee0]
class xxxDistributedLocalServiceFactory--><rect codeLine="73" fill="#FEFECE" height="154.5898" id="xxxDistributedLocalServiceFactory" style="stroke:#D4AC0D;stroke-width:3.75;" width="580" x="1135" y="793.6719"/><ellipse cx="1172.5" cy="833.6719" fill="#B4A7E5" rx="27.5" ry="27.5" style="stroke:#B4A7E5;stroke-width:2.5;"/><path d="M1175,826.1719 L1175,841.1719 L1180,841.1719 L1181.2109,841.1719 L1182.5,842.7344 L1182.5,843.6719 L1182.5,844.6094 L1181.2109,846.1719 L1180,846.1719 L1165,846.1719 L1163.7891,846.1719 L1162.5,844.6094 L1162.5,843.6719 L1162.5,842.7344 L1163.7891,841.1719 L1165,841.1719 L1170,841.1719 L1170,826.1719 L1165,826.1719 L1163.7891,826.1719 L1162.5,824.6094 L1162.5,823.6719 L1162.5,822.7344 L1163.7891,821.1719 L1165,821.1719 L1180,821.1719 L1181.2109,821.1719 L1182.5,822.7344 L1182.5,823.6719 L1182.5,824.6094 L1181.2109,826.1719 L1180,826.1719 L1175,826.1719 Z " fill="#000000"/><ellipse cx="1220" cy="832.4219" fill="#84BE84" rx="7.5" ry="7.5" style="stroke:#038048;stroke-width:2.5;"/><text fill="#000000" font-family="sans-serif" font-size="30" font-style="italic" lengthAdjust="spacing" textLength="472.5" x="1235" y="845.9473">xxxDistributedLocalServiceFactory</text><line style="stroke:#D4AC0D;stroke-width:3.75;" x1="1137.5" x2="1712.5" y1="873.6719" y2="873.6719"/><text fill="#000000" font-family="sans-serif" font-size="27.5" lengthAdjust="spacing" textLength="22.5" x="1150" y="912.2192">...</text><line style="stroke:#D4AC0D;stroke-width:3.75;" x1="1137.5" x2="1712.5" y1="928.2617" y2="928.2617"/><!--MD5=[a9963d753abb59bff14d2d5130731241]
class xxxDistributedLocalService--><rect codeLine="76" fill="#FEFECE" height="154.5898" id="xxxDistributedLocalService" style="stroke:#D4AC0D;stroke-width:3.75;" width="480" x="1802.5" y="793.6719"/><ellipse cx="1840" cy="833.6719" fill="#B4A7E5" rx="27.5" ry="27.5" style="stroke:#B4A7E5;stroke-width:2.5;"/><path d="M1842.5,826.1719 L1842.5,841.1719 L1847.5,841.1719 L1848.7109,841.1719 L1850,842.7344 L1850,843.6719 L1850,844.6094 L1848.7109,846.1719 L1847.5,846.1719 L1832.5,846.1719 L1831.2891,846.1719 L1830,844.6094 L1830,843.6719 L1830,842.7344 L1831.2891,841.1719 L1832.5,841.1719 L1837.5,841.1719 L1837.5,826.1719 L1832.5,826.1719 L1831.2891,826.1719 L1830,824.6094 L1830,823.6719 L1830,822.7344 L1831.2891,821.1719 L1832.5,821.1719 L1847.5,821.1719 L1848.7109,821.1719 L1850,822.7344 L1850,823.6719 L1850,824.6094 L1848.7109,826.1719 L1847.5,826.1719 L1842.5,826.1719 Z " fill="#000000"/><ellipse cx="1887.5" cy="832.4219" fill="#84BE84" rx="7.5" ry="7.5" style="stroke:#038048;stroke-width:2.5;"/><text fill="#000000" font-family="sans-serif" font-size="30" font-style="italic" lengthAdjust="spacing" textLength="372.5" x="1902.5" y="845.9473">xxxDistributedLocalService</text><line style="stroke:#D4AC0D;stroke-width:3.75;" x1="1805" x2="2280" y1="873.6719" y2="873.6719"/><text fill="#000000" font-family="sans-serif" font-size="27.5" lengthAdjust="spacing" textLength="22.5" x="1817.5" y="912.2192">...</text><line style="stroke:#D4AC0D;stroke-width:3.75;" x1="1805" x2="2280" y1="928.2617" y2="928.2617"/><!--MD5=[33fdf7cecd44bc133f8b96a2fe28c994]
class xxxDistributedLocalServiceFactoryAdapter--><rect codeLine="106" fill="#EBF5FB" height="154.5898" id="xxxDistributedLocalServiceFactoryAdapter" style="stroke:#3498DB;stroke-width:3.75;" width="755" x="885" y="1101.1719"/><ellipse cx="922.5" cy="1141.1719" fill="#ADD1B2" rx="27.5" ry="27.5" style="stroke:#ADD1B2;stroke-width:2.5;"/><path d="M927.5,1132.4219 Q928.0078,1131.1719 928.5938,1130.5469 Q929.1797,1129.9219 929.8438,1129.9219 Q931.0156,1129.9219 931.7578,1130.625 Q932.5,1131.3281 932.5,1132.9688 L932.5,1136.875 Q932.5,1138.5156 931.7969,1139.2188 Q931.0938,1139.9219 930,1139.9219 Q929.0234,1139.9219 928.3984,1139.4922 Q927.7734,1139.0625 927.5,1137.9297 Q927.3828,1137.1484 926.9531,1136.7188 Q926.1719,1135.8984 924.7656,1135.4297 Q923.3594,1134.9219 921.9531,1134.9219 Q920.1953,1134.9219 918.7109,1135.625 Q917.2656,1136.3281 916.1328,1137.8906 Q915,1139.4531 915,1141.6016 L915,1143.9063 Q915,1146.4844 917.1094,1148.2031 Q919.2188,1149.9219 922.9688,1149.9219 Q925.1953,1149.9219 926.7578,1149.4141 Q927.6563,1149.1406 928.6719,1148.2422 Q929.3359,1147.7344 929.6875,1147.5781 Q930.0391,1147.4219 930.4688,1147.4219 Q931.2891,1147.4219 931.875,1148.0859 Q932.5,1148.7109 932.5,1149.6094 Q932.5,1150.4688 931.6406,1151.4844 Q930.3906,1152.9688 928.3984,1153.7891 Q925.7813,1154.9219 922.5781,1154.9219 Q918.8281,1154.9219 915.8203,1153.4375 Q913.3984,1152.2656 911.6797,1149.7266 Q910,1147.1875 910,1144.1797 L910,1141.4453 Q910,1138.3203 911.4844,1135.5859 Q913.0078,1132.8516 915.625,1131.4063 Q918.2813,1129.9219 921.25,1129.9219 Q923.0469,1129.9219 924.6094,1130.5469 Q926.1719,1131.1719 927.5,1132.4219 Z " fill="#000000"/><polygon fill="#4177AF" points="970,1129.9219,960,1144.9219,980,1144.9219" style="stroke:#1963A0;stroke-width:2.5;"/><text fill="#000000" font-family="sans-serif" font-size="30" font-style="italic" font-weight="bold" lengthAdjust="spacing" textLength="60" x="985" y="1153.4473">final</text><text fill="#000000" font-family="sans-serif" font-size="30" font-style="italic" lengthAdjust="spacing" textLength="580" x="1052.5" y="1153.4473">xxxDistributedLocalServiceFactoryAdapter</text><line style="stroke:#3498DB;stroke-width:3.75;" x1="887.5" x2="1637.5" y1="1181.1719" y2="1181.1719"/><text fill="#000000" font-family="sans-serif" font-size="27.5" lengthAdjust="spacing" textLength="22.5" x="900" y="1219.7192">...</text><line style="stroke:#3498DB;stroke-width:3.75;" x1="887.5" x2="1637.5" y1="1235.7617" y2="1235.7617"/><!--MD5=[8f3105d06d3e945a70a28bfcc5abce4d]
class xxxDistributedLocalAdapter--><rect codeLine="105" fill="#EBF5FB" height="154.5898" id="xxxDistributedLocalAdapter" style="stroke:#3498DB;stroke-width:3.75;" width="552.5" x="1728.75" y="1101.1719"/><ellipse cx="1766.25" cy="1141.1719" fill="#ADD1B2" rx="27.5" ry="27.5" style="stroke:#ADD1B2;stroke-width:2.5;"/><path d="M1771.25,1132.4219 Q1771.7578,1131.1719 1772.3438,1130.5469 Q1772.9297,1129.9219 1773.5938,1129.9219 Q1774.7656,1129.9219 1775.5078,1130.625 Q1776.25,1131.3281 1776.25,1132.9688 L1776.25,1136.875 Q1776.25,1138.5156 1775.5469,1139.2188 Q1774.8438,1139.9219 1773.75,1139.9219 Q1772.7734,1139.9219 1772.1484,1139.4922 Q1771.5234,1139.0625 1771.25,1137.9297 Q1771.1328,1137.1484 1770.7031,1136.7188 Q1769.9219,1135.8984 1768.5156,1135.4297 Q1767.1094,1134.9219 1765.7031,1134.9219 Q1763.9453,1134.9219 1762.4609,1135.625 Q1761.0156,1136.3281 1759.8828,1137.8906 Q1758.75,1139.4531 1758.75,1141.6016 L1758.75,1143.9063 Q1758.75,1146.4844 1760.8594,1148.2031 Q1762.9688,1149.9219 1766.7188,1149.9219 Q1768.9453,1149.9219 1770.5078,1149.4141 Q1771.4063,1149.1406 1772.4219,1148.2422 Q1773.0859,1147.7344 1773.4375,1147.5781 Q1773.7891,1147.4219 1774.2188,1147.4219 Q1775.0391,1147.4219 1775.625,1148.0859 Q1776.25,1148.7109 1776.25,1149.6094 Q1776.25,1150.4688 1775.3906,1151.4844 Q1774.1406,1152.9688 1772.1484,1153.7891 Q1769.5313,1154.9219 1766.3281,1154.9219 Q1762.5781,1154.9219 1759.5703,1153.4375 Q1757.1484,1152.2656 1755.4297,1149.7266 Q1753.75,1147.1875 1753.75,1144.1797 L1753.75,1141.4453 Q1753.75,1138.3203 1755.2344,1135.5859 Q1756.7578,1132.8516 1759.375,1131.4063 Q1762.0313,1129.9219 1765,1129.9219 Q1766.7969,1129.9219 1768.3594,1130.5469 Q1769.9219,1131.1719 1771.25,1132.4219 Z " fill="#000000"/><polygon fill="#4177AF" points="1813.75,1129.9219,1803.75,1144.9219,1823.75,1144.9219" style="stroke:#1963A0;stroke-width:2.5;"/><text fill="#000000" font-family="sans-serif" font-size="30" font-style="italic" font-weight="bold" lengthAdjust="spacing" textLength="60" x="1828.75" y="1153.4473">final</text><text fill="#000000" font-family="sans-serif" font-size="30" font-style="italic" lengthAdjust="spacing" textLength="377.5" x="1896.25" y="1153.4473">xxxDistributedLocalAdapter</text><line style="stroke:#3498DB;stroke-width:3.75;" x1="1731.25" x2="2278.75" y1="1181.1719" y2="1181.1719"/><text fill="#000000" font-family="sans-serif" font-size="27.5" lengthAdjust="spacing" textLength="22.5" x="1743.75" y="1219.7192">...</text><line style="stroke:#3498DB;stroke-width:3.75;" x1="1731.25" x2="2278.75" y1="1235.7617" y2="1235.7617"/><!--MD5=[2093ff23ff253f71aa2c65575f18c674]
reverse link KeypleDistributedLocalServiceExtensionFactory to xxxDistributedLocalServiceFactory--><path d="M1285.695,548.6494 C1318.73,624.5369 1362.575,725.2619 1392.1825,793.2819 " fill="none" id="KeypleDistributedLocalServiceExtensionFactory-backto-xxxDistributedLocalServiceFactory" style="stroke:#A80036;stroke-width:2.5;"/><polygon fill="none" points="1269.245,554.7044,1265.335,501.8744,1301.3375,540.7344,1269.245,554.7044" style="stroke:#A80036;stroke-width:2.5;"/><!--MD5=[90e382a2df282d68530da7c405ea071b]
reverse link KeypleDistributedLocalServiceExtension to xxxDistributedLocalService--><path d="M2042.5,551.9319 C2042.5,627.4194 2042.5,726.2394 2042.5,793.2819 " fill="none" id="KeypleDistributedLocalServiceExtension-backto-xxxDistributedLocalService" style="stroke:#A80036;stroke-width:2.5;"/><polygon fill="none" points="2025,551.8744,2042.5,501.8744,2060,551.8744,2025,551.8744" style="stroke:#A80036;stroke-width:2.5;"/><!--MD5=[7d6d9714923fb9b40dbdfaa77fdb237d]
reverse link xxxDistributedLocalServiceFactory to xxxDistributedLocalServiceFactoryAdapter--><path d="M1360.215,994.2719 C1340.95,1030.1369 1320.395,1068.3994 1303.1325,1100.5344 " fill="none" id="xxxDistributedLocalServiceFactory-backto-xxxDistributedLocalServiceFactoryAdapter" style="stroke:#A80036;stroke-width:2.5;stroke-dasharray:7.0,7.0;"/><polygon fill="none" points="1345.335,984.9894,1384.4125,949.2244,1376.1675,1001.5544,1345.335,984.9894" style="stroke:#A80036;stroke-width:2.5;"/><!--MD5=[38fb0a208dad0d9419c533179052e846]
reverse link LocalServiceFactorySpi to xxxDistributedLocalServiceFactoryAdapter--><path d="M1328.0125,1458.7344 C1312.4125,1392.6419 1293.77,1313.6594 1280.37,1256.8794 " fill="none" id="LocalServiceFactorySpi-backto-xxxDistributedLocalServiceFactoryAdapter" style="stroke:#A80036;stroke-width:2.5;stroke-dasharray:7.0,7.0;"/><polygon fill="none" points="1345.2575,1455.6219,1339.7125,1508.3041,1311.1925,1463.6619,1345.2575,1455.6219" style="stroke:#A80036;stroke-width:2.5;"/><!--MD5=[76cf528ba56d5d26d2b0928a9c329221]
reverse link xxxDistributedLocalService to xxxDistributedLocalAdapter--><path d="M2026.9475,999.1219 C2022.68,1033.5619 2018.18,1069.8444 2014.3775,1100.5344 " fill="none" id="xxxDistributedLocalService-backto-xxxDistributedLocalAdapter" style="stroke:#A80036;stroke-width:2.5;stroke-dasharray:7.0,7.0;"/><polygon fill="none" points="2009.615,996.6919,2033.135,949.2244,2044.35,1000.9994,2009.615,996.6919" style="stroke:#A80036;stroke-width:2.5;"/><!--MD5=[f13a3444bf21b81d22d04e69d2b3a247]
reverse link LocalServiceSpi to xxxDistributedLocalAdapter--><path d="M1879.125,1462.6444 C1909.0275,1395.7794 1945.2475,1314.7844 1971.1425,1256.8794 " fill="none" id="LocalServiceSpi-backto-xxxDistributedLocalAdapter" style="stroke:#A80036;stroke-width:2.5;stroke-dasharray:7.0,7.0;"/><polygon fill="none" points="1895.0925,1469.8044,1858.705,1508.3041,1863.1425,1455.5169,1895.0925,1469.8044" style="stroke:#A80036;stroke-width:2.5;"/><!--MD5=[fdc022e61a4d7d2ad66d185c8db2c01b]
link xxxDistributedLocalAdapter to LocalServiceSpi--><!--MD5=[bf7d962d3e8541c77acbacb9c75dcadc]
link xxxDistributedLocalServiceFactoryProvider to xxxDistributedLocalServiceFactory--><path codeLine="90" d="M911.5075,871.1719 C981.7775,871.1719 1054.27,871.1719 1121.8425,871.1719 " fill="none" id="xxxDistributedLocalServiceFactoryProvider-to-xxxDistributedLocalServiceFactory" style="stroke:#3498DB;stroke-width:2.5;stroke-dasharray:7.0,7.0;"/><polygon fill="#3498DB" points="1134.4,871.1719,1111.9,861.1719,1121.9,871.1719,1111.9,881.1719,1134.4,871.1719" style="stroke:#3498DB;stroke-width:2.5;"/><polygon fill="#000000" points="979.375,841.6113,956.7623,834.264,956.7623,848.9586,979.375,841.6113" style="stroke:#000000;stroke-width:2.5;"/><text fill="#000000" font-family="sans-serif" font-size="32.5" lengthAdjust="spacing" textLength="100" x="989.375" y="854.9097">provide</text><!--MD5=[1377ec179a79e417830e7219346090e1]
reverse link xxxDistributedLocalServiceFactoryAdapter to xxxDistributedLocalAdapter--><path codeLine="91" d="M1673.4,1178.6719 C1691.8025,1178.6719 1710.205,1178.6719 1728.6075,1178.6719 " fill="none" id="xxxDistributedLocalServiceFactoryAdapter-backto-xxxDistributedLocalAdapter" style="stroke:#3498DB;stroke-width:2.5;"/><polygon fill="#3498DB" points="1640.275,1178.6719,1655.275,1188.6719,1670.275,1178.6719,1655.275,1168.6719,1640.275,1178.6719" style="stroke:#3498DB;stroke-width:2.5;"/><text fill="#000000" font-family="sans-serif" font-size="32.5" lengthAdjust="spacing" textLength="17.5" x="1691.0584" y="1171.0487">1</text><!--MD5=[36ce7900d6ccaf56444755772fce6b34]
link commonsApi to specificDistributedLocalApi--><!--MD5=[34f96e15e978562302b746a222ece16e]
link xxxDistributedLocalServiceFactoryAdapter to LocalServiceSpi--><!--MD5=[9c3fb6655d78201aa119309f471819f5]
@startuml
title
    Keyple 2.0 - Specific Distributed Local Service - 2.0.0 (08/03/2021)
end title

' == THEME ==

'Couleurs issues de : https://htmlcolorcodes.com/fr/tableau-de-couleur/tableau-de-couleur-design-plat/
!define C_GREY1 F8F9F9
!define C_GREY2 F2F3F4
!define C_GREY3 E5E7E9
!define C_GREY4 D7DBDD
!define C_GREY5 CACFD2
!define C_GREY6 BDC3C7
!define C_LINK 3498DB
!define C_USE 27AE60

skinparam Shadowing false
skinparam ClassFontStyle italic
skinparam ClassBorderColor #D4AC0D
skinparam stereotypeABorderColor #A9DCDF
skinparam stereotypeIBorderColor #B4A7E5
skinparam stereotypeCBorderColor #ADD1B2
skinparam stereotypeEBorderColor #EB93DF
' Red
skinparam ClassBackgroundColor<<red>> #FDEDEC
skinparam ClassBorderColor<<red>> #E74C3C
hide <<red>> stereotype
' Purple
skinparam ClassBackgroundColor<<purple>> #F4ECF7
skinparam ClassBorderColor<<purple>> #8E44AD
hide <<purple>> stereotype
' blue
skinparam ClassBackgroundColor<<blue>> #EBF5FB
skinparam ClassBorderColor<<blue>> #3498DB
hide <<blue>> stereotype
' Green
skinparam ClassBackgroundColor<<green>> #E9F7EF
skinparam ClassBorderColor<<green>> #27AE60
hide <<green>> stereotype
' Grey
skinparam ClassBackgroundColor<<grey>> #EAECEE
skinparam ClassBorderColor<<grey>> #2C3E50
hide <<grey>> stereotype

' == CONTENT ==

legend top
    __Colors legend__ :
    * <back:yellow>Public API for end users</back>
    * <back:lightBlue>Private API for internal use only</back>
end legend

package "org.eclipse.keyple.core.common" as commonsApi {
    +interface KeypleDistributedLocalServiceExtensionFactory {
    }
    +interface KeypleDistributedLocalServiceExtension {
    }
}

package "org.eclipse.keyple.core.distributed.local.spi" as distributedLocalSpi {
    +interface LocalServiceFactorySpi {
        ...
    }
    +interface LocalServiceSpi {
        ...
    }
}

package "org.eclipse.keyple.distributed.local.xxx (specific distributed local service)" as specificDistributedLocalApi {
    +class "**final** xxxDistributedLocalServiceFactoryProvider" as xxxDistributedLocalServiceFactoryProvider {
        +{static} xxxDistributedLocalServiceFactory getFactory ()
    }
    +interface xxxDistributedLocalServiceFactory extends KeypleDistributedLocalServiceExtensionFactory {
        ...
    }
    +interface xxxDistributedLocalService extends KeypleDistributedLocalServiceExtension {
        ...
    }
    ' Adapters
    ~class "**final** xxxDistributedLocalServiceFactoryAdapter" as xxxDistributedLocalServiceFactoryAdapter implements xxxDistributedLocalServiceFactory, LocalServiceFactorySpi {
        ...
    }
    ~class "**final** xxxDistributedLocalAdapter" as xxxDistributedLocalAdapter implements xxxDistributedLocalService, LocalServiceSpi {
        ...
    }
}

' Associations

xxxDistributedLocalServiceFactoryProvider .right.> xxxDistributedLocalServiceFactory #C_LINK : provide >
xxxDistributedLocalServiceFactoryAdapter *- "1" xxxDistributedLocalAdapter #C_LINK

' == LAYOUT ==

commonsApi -[hidden]- specificDistributedLocalApi
xxxDistributedLocalAdapter -[hidden]- LocalServiceSpi
xxxDistributedLocalServiceFactoryAdapter -[hidden]- LocalServiceSpi

' == STYLE ==

package commonsApi #C_GREY1 {}
package distributedLocalSpi #C_GREY1 {}
package specificDistributedLocalApi #C_GREY1 {}

class xxxDistributedLocalAdapter <<blue>>
class xxxDistributedLocalServiceFactoryAdapter <<blue>>
interface LocalServiceFactorySpi <<blue>>
interface LocalServiceSpi <<blue>>

@enduml

@startuml
title
    Keyple 2.0 - Specific Distributed Local Service - 2.0.0 (08/03/2021)
end title



skinparam Shadowing false
skinparam ClassFontStyle italic
skinparam ClassBorderColor #D4AC0D
skinparam stereotypeABorderColor #A9DCDF
skinparam stereotypeIBorderColor #B4A7E5
skinparam stereotypeCBorderColor #ADD1B2
skinparam stereotypeEBorderColor #EB93DF
skinparam ClassBackgroundColor<<red>> #FDEDEC
skinparam ClassBorderColor<<red>> #E74C3C
hide <<red>> stereotype
skinparam ClassBackgroundColor<<purple>> #F4ECF7
skinparam ClassBorderColor<<purple>> #8E44AD
hide <<purple>> stereotype
skinparam ClassBackgroundColor<<blue>> #EBF5FB
skinparam ClassBorderColor<<blue>> #3498DB
hide <<blue>> stereotype
skinparam ClassBackgroundColor<<green>> #E9F7EF
skinparam ClassBorderColor<<green>> #27AE60
hide <<green>> stereotype
skinparam ClassBackgroundColor<<grey>> #EAECEE
skinparam ClassBorderColor<<grey>> #2C3E50
hide <<grey>> stereotype


legend top
    __Colors legend__ :
    * <back:yellow>Public API for end users</back>
    * <back:lightBlue>Private API for internal use only</back>
end legend

package "org.eclipse.keyple.core.common" as commonsApi {
    +interface KeypleDistributedLocalServiceExtensionFactory {
    }
    +interface KeypleDistributedLocalServiceExtension {
    }
}

package "org.eclipse.keyple.core.distributed.local.spi" as distributedLocalSpi {
    +interface LocalServiceFactorySpi {
        ...
    }
    +interface LocalServiceSpi {
        ...
    }
}

package "org.eclipse.keyple.distributed.local.xxx (specific distributed local service)" as specificDistributedLocalApi {
    +class "**final** xxxDistributedLocalServiceFactoryProvider" as xxxDistributedLocalServiceFactoryProvider {
        +{static} xxxDistributedLocalServiceFactory getFactory ()
    }
    +interface xxxDistributedLocalServiceFactory extends KeypleDistributedLocalServiceExtensionFactory {
        ...
    }
    +interface xxxDistributedLocalService extends KeypleDistributedLocalServiceExtension {
        ...
    }
    ~class "**final** xxxDistributedLocalServiceFactoryAdapter" as xxxDistributedLocalServiceFactoryAdapter implements xxxDistributedLocalServiceFactory, LocalServiceFactorySpi {
        ...
    }
    ~class "**final** xxxDistributedLocalAdapter" as xxxDistributedLocalAdapter implements xxxDistributedLocalService, LocalServiceSpi {
        ...
    }
}


xxxDistributedLocalServiceFactoryProvider .right.> xxxDistributedLocalServiceFactory #3498DB : provide >
xxxDistributedLocalServiceFactoryAdapter *- "1" xxxDistributedLocalAdapter #3498DB


commonsApi -[hidden]- specificDistributedLocalApi
xxxDistributedLocalAdapter -[hidden]- LocalServiceSpi
xxxDistributedLocalServiceFactoryAdapter -[hidden]- LocalServiceSpi


package commonsApi #F8F9F9 {}
package distributedLocalSpi #F8F9F9 {}
package specificDistributedLocalApi #F8F9F9 {}

class xxxDistributedLocalAdapter <<blue>>
class xxxDistributedLocalServiceFactoryAdapter <<blue>>
interface LocalServiceFactorySpi <<blue>>
interface LocalServiceSpi <<blue>>

@enduml

PlantUML version 1.2021.7(Sun May 23 14:40:07 CEST 2021)
(GPL source distribution)
Java Runtime: OpenJDK Runtime Environment
JVM: Dynamic Code Evolution 64-Bit Server VM
Default Encoding: Cp1252
Language: fr
Country: FR
--></g></svg>