<?xml version="1.0" encoding="UTF-8" standalone="no"?><svg xmlns="http://www.w3.org/2000/svg" xmlns:xlink="http://www.w3.org/1999/xlink" contentScriptType="application/ecmascript" contentStyleType="text/css" height="1570px" preserveAspectRatio="none" style="width:3677px;height:1570px;background:#FFFFFF;" version="1.1" viewBox="0 0 3677 1570" width="3677.5px" zoomAndPan="magnify"><defs/><g><text fill="#000000" font-family="sans-serif" font-size="45" lengthAdjust="spacing" textLength="1135" x="1255" y="46.7139">Keyple 2.0 - Specific Card Extension - 2.0.0 (04/06/2021)</text><!--MD5=[621c849533070c5aba8aa732369aa9f8]
cluster commonsApi--><polygon fill="#F8F9F9" points="132.5,71.6016,717.5,71.6016,735,130.625,742.5,130.625,742.5,356.6016,132.5,356.6016,132.5,71.6016" style="stroke:#000000;stroke-width:3.75;"/><line style="stroke:#000000;stroke-width:3.75;" x1="132.5" x2="735" y1="130.625" y2="130.625"/><text fill="#000000" font-family="sans-serif" font-size="35" font-weight="bold" lengthAdjust="spacing" textLength="570" x="142.5" y="112.9346">org.eclipse.keyple.core.common</text><!--MD5=[00563b8f2a00a15cb90f2d0de7f0608c]
cluster readerSelectionSpi--><polygon fill="#F8F9F9" points="850,71.6016,1640,71.6016,1657.5,130.625,1665,130.625,1665,356.6016,850,356.6016,850,71.6016" style="stroke:#000000;stroke-width:3.75;"/><line style="stroke:#000000;stroke-width:3.75;" x1="850" x2="1657.5" y1="130.625" y2="130.625"/><text fill="#000000" font-family="sans-serif" font-size="35" font-weight="bold" lengthAdjust="spacing" textLength="775" x="860" y="112.9346">org.calypsonet.terminal.reader.selection.spi</text><!--MD5=[a17c93d7e125af4ebdd10ac0c519bd24]
cluster cardSpi--><polygon fill="#F8F9F9" points="515,1269.1016,1092.5,1269.1016,1110,1328.125,3155,1328.125,3155,1554.1016,515,1554.1016,515,1269.1016" style="stroke:#000000;stroke-width:3.75;"/><line style="stroke:#000000;stroke-width:3.75;" x1="515" x2="1110" y1="1328.125" y2="1328.125"/><text fill="#000000" font-family="sans-serif" font-size="35" font-weight="bold" lengthAdjust="spacing" textLength="562.5" x="525" y="1310.4346">org.calypsonet.terminal.card.spi</text><!--MD5=[8710f69185497842238d7d996e2af2c1]
cluster cardResourceSpi--><polygon fill="#F8F9F9" points="2170,71.6016,2972.5,71.6016,2990,130.625,2997.5,130.625,2997.5,356.6016,2170,356.6016,2170,71.6016" style="stroke:#000000;stroke-width:3.75;"/><line style="stroke:#000000;stroke-width:3.75;" x1="2170" x2="2990" y1="130.625" y2="130.625"/><text fill="#000000" font-family="sans-serif" font-size="35" font-weight="bold" lengthAdjust="spacing" textLength="787.5" x="2180" y="112.9346">org.eclipse.keyple.core.service.resource.spi</text><!--MD5=[d3c8ee72d6c013b9a0ff8b73b18ac396]
cluster specificExtension--><polygon fill="#F8F9F9" points="40,439.1016,892.5,439.1016,910,498.125,3635,498.125,3635,1186.6016,40,1186.6016,40,439.1016" style="stroke:#000000;stroke-width:3.75;"/><line style="stroke:#000000;stroke-width:3.75;" x1="40" x2="910" y1="498.125" y2="498.125"/><text fill="#000000" font-family="sans-serif" font-size="35" font-weight="bold" lengthAdjust="spacing" textLength="837.5" x="50" y="480.4346">org.eclipse.keyple.card.xxx (specific extension)</text><!--MD5=[93835d7ffcf6a3787bfc7eb02bc099b1]
class KeypleCardExtension--><rect codeLine="48" fill="#FEFECE" height="154.5898" id="KeypleCardExtension" style="stroke:#D4AC0D;stroke-width:3.75;" width="405" x="180" y="161.6016"/><ellipse cx="217.5" cy="201.6016" fill="#B4A7E5" rx="27.5" ry="27.5" style="stroke:#B4A7E5;stroke-width:2.5;"/><path d="M220,194.1016 L220,209.1016 L225,209.1016 L226.2109,209.1016 L227.5,210.6641 L227.5,211.6016 L227.5,212.5391 L226.2109,214.1016 L225,214.1016 L210,214.1016 L208.7891,214.1016 L207.5,212.5391 L207.5,211.6016 L207.5,210.6641 L208.7891,209.1016 L210,209.1016 L215,209.1016 L215,194.1016 L210,194.1016 L208.7891,194.1016 L207.5,192.5391 L207.5,191.6016 L207.5,190.6641 L208.7891,189.1016 L210,189.1016 L225,189.1016 L226.2109,189.1016 L227.5,190.6641 L227.5,191.6016 L227.5,192.5391 L226.2109,194.1016 L225,194.1016 L220,194.1016 Z " fill="#000000"/><ellipse cx="265" cy="200.3516" fill="#84BE84" rx="7.5" ry="7.5" style="stroke:#038048;stroke-width:2.5;"/><text fill="#000000" font-family="sans-serif" font-size="30" font-style="italic" lengthAdjust="spacing" textLength="297.5" x="280" y="213.877">KeypleCardExtension</text><line style="stroke:#D4AC0D;stroke-width:3.75;" x1="182.5" x2="582.5" y1="241.6016" y2="241.6016"/><text fill="#000000" font-family="sans-serif" font-size="27.5" lengthAdjust="spacing" textLength="22.5" x="195" y="280.1489">...</text><line style="stroke:#D4AC0D;stroke-width:3.75;" x1="182.5" x2="582.5" y1="296.1914" y2="296.1914"/><!--MD5=[47f0011813555fb489a606ff84d44b55]
class CardSelection--><rect codeLine="53" fill="#FEFECE" height="120" id="CardSelection" style="stroke:#D4AC0D;stroke-width:3.75;" width="302.5" x="951.25" y="179.1016"/><ellipse cx="988.75" cy="219.1016" fill="#B4A7E5" rx="27.5" ry="27.5" style="stroke:#B4A7E5;stroke-width:2.5;"/><path d="M991.25,211.6016 L991.25,226.6016 L996.25,226.6016 L997.4609,226.6016 L998.75,228.1641 L998.75,229.1016 L998.75,230.0391 L997.4609,231.6016 L996.25,231.6016 L981.25,231.6016 L980.0391,231.6016 L978.75,230.0391 L978.75,229.1016 L978.75,228.1641 L980.0391,226.6016 L981.25,226.6016 L986.25,226.6016 L986.25,211.6016 L981.25,211.6016 L980.0391,211.6016 L978.75,210.0391 L978.75,209.1016 L978.75,208.1641 L980.0391,206.6016 L981.25,206.6016 L996.25,206.6016 L997.4609,206.6016 L998.75,208.1641 L998.75,209.1016 L998.75,210.0391 L997.4609,211.6016 L996.25,211.6016 L991.25,211.6016 Z " fill="#000000"/><ellipse cx="1036.25" cy="217.8516" fill="#84BE84" rx="7.5" ry="7.5" style="stroke:#038048;stroke-width:2.5;"/><text fill="#000000" font-family="sans-serif" font-size="30" font-style="italic" lengthAdjust="spacing" textLength="195" x="1051.25" y="231.377">CardSelection</text><line style="stroke:#D4AC0D;stroke-width:3.75;" x1="953.75" x2="1251.25" y1="259.1016" y2="259.1016"/><line style="stroke:#D4AC0D;stroke-width:3.75;" x1="953.75" x2="1251.25" y1="279.1016" y2="279.1016"/><!--MD5=[4d4351d1dd1d596b03b4778d9849998b]
class SmartCard--><rect codeLine="55" fill="#FEFECE" height="154.5898" id="SmartCard" style="stroke:#D4AC0D;stroke-width:3.75;" width="257.5" x="1341.25" y="161.6016"/><ellipse cx="1378.75" cy="201.6016" fill="#B4A7E5" rx="27.5" ry="27.5" style="stroke:#B4A7E5;stroke-width:2.5;"/><path d="M1381.25,194.1016 L1381.25,209.1016 L1386.25,209.1016 L1387.4609,209.1016 L1388.75,210.6641 L1388.75,211.6016 L1388.75,212.5391 L1387.4609,214.1016 L1386.25,214.1016 L1371.25,214.1016 L1370.0391,214.1016 L1368.75,212.5391 L1368.75,211.6016 L1368.75,210.6641 L1370.0391,209.1016 L1371.25,209.1016 L1376.25,209.1016 L1376.25,194.1016 L1371.25,194.1016 L1370.0391,194.1016 L1368.75,192.5391 L1368.75,191.6016 L1368.75,190.6641 L1370.0391,189.1016 L1371.25,189.1016 L1386.25,189.1016 L1387.4609,189.1016 L1388.75,190.6641 L1388.75,191.6016 L1388.75,192.5391 L1387.4609,194.1016 L1386.25,194.1016 L1381.25,194.1016 Z " fill="#000000"/><ellipse cx="1426.25" cy="200.3516" fill="#84BE84" rx="7.5" ry="7.5" style="stroke:#038048;stroke-width:2.5;"/><text fill="#000000" font-family="sans-serif" font-size="30" font-style="italic" lengthAdjust="spacing" textLength="150" x="1441.25" y="213.877">SmartCard</text><line style="stroke:#D4AC0D;stroke-width:3.75;" x1="1343.75" x2="1596.25" y1="241.6016" y2="241.6016"/><text fill="#000000" font-family="sans-serif" font-size="27.5" lengthAdjust="spacing" textLength="22.5" x="1356.25" y="280.1489">...</text><line style="stroke:#D4AC0D;stroke-width:3.75;" x1="1343.75" x2="1596.25" y1="296.1914" y2="296.1914"/><!--MD5=[e210ee7b55cb4fcef849a017d68619f7]
class CardSelectionSpi--><rect codeLine="157" fill="#EBF5FB" height="154.5898" id="CardSelectionSpi" style="stroke:#3498DB;stroke-width:3.75;" width="347.5" x="976.25" y="1359.1016"/><ellipse cx="1013.75" cy="1399.1016" fill="#B4A7E5" rx="27.5" ry="27.5" style="stroke:#B4A7E5;stroke-width:2.5;"/><path d="M1016.25,1391.6016 L1016.25,1406.6016 L1021.25,1406.6016 L1022.4609,1406.6016 L1023.75,1408.1641 L1023.75,1409.1016 L1023.75,1410.0391 L1022.4609,1411.6016 L1021.25,1411.6016 L1006.25,1411.6016 L1005.0391,1411.6016 L1003.75,1410.0391 L1003.75,1409.1016 L1003.75,1408.1641 L1005.0391,1406.6016 L1006.25,1406.6016 L1011.25,1406.6016 L1011.25,1391.6016 L1006.25,1391.6016 L1005.0391,1391.6016 L1003.75,1390.0391 L1003.75,1389.1016 L1003.75,1388.1641 L1005.0391,1386.6016 L1006.25,1386.6016 L1021.25,1386.6016 L1022.4609,1386.6016 L1023.75,1388.1641 L1023.75,1389.1016 L1023.75,1390.0391 L1022.4609,1391.6016 L1021.25,1391.6016 L1016.25,1391.6016 Z " fill="#000000"/><ellipse cx="1061.25" cy="1397.8516" fill="#84BE84" rx="7.5" ry="7.5" style="stroke:#038048;stroke-width:2.5;"/><text fill="#000000" font-family="sans-serif" font-size="30" font-style="italic" lengthAdjust="spacing" textLength="240" x="1076.25" y="1411.377">CardSelectionSpi</text><line style="stroke:#3498DB;stroke-width:3.75;" x1="978.75" x2="1321.25" y1="1439.1016" y2="1439.1016"/><text fill="#000000" font-family="sans-serif" font-size="27.5" lengthAdjust="spacing" textLength="22.5" x="991.25" y="1477.6489">...</text><line style="stroke:#3498DB;stroke-width:3.75;" x1="978.75" x2="1321.25" y1="1493.6914" y2="1493.6914"/><!--MD5=[dccdbbb850bf03879ac099cfa435f162]
class CardSelectorSpi--><rect codeLine="158" fill="#EBF5FB" height="120" id="CardSelectorSpi" style="stroke:#3498DB;stroke-width:3.75;" width="332.5" x="556.25" y="1376.6016"/><ellipse cx="593.75" cy="1416.6016" fill="#B4A7E5" rx="27.5" ry="27.5" style="stroke:#B4A7E5;stroke-width:2.5;"/><path d="M596.25,1409.1016 L596.25,1424.1016 L601.25,1424.1016 L602.4609,1424.1016 L603.75,1425.6641 L603.75,1426.6016 L603.75,1427.5391 L602.4609,1429.1016 L601.25,1429.1016 L586.25,1429.1016 L585.0391,1429.1016 L583.75,1427.5391 L583.75,1426.6016 L583.75,1425.6641 L585.0391,1424.1016 L586.25,1424.1016 L591.25,1424.1016 L591.25,1409.1016 L586.25,1409.1016 L585.0391,1409.1016 L583.75,1407.5391 L583.75,1406.6016 L583.75,1405.6641 L585.0391,1404.1016 L586.25,1404.1016 L601.25,1404.1016 L602.4609,1404.1016 L603.75,1405.6641 L603.75,1406.6016 L603.75,1407.5391 L602.4609,1409.1016 L601.25,1409.1016 L596.25,1409.1016 Z " fill="#000000"/><ellipse cx="641.25" cy="1415.3516" fill="#84BE84" rx="7.5" ry="7.5" style="stroke:#038048;stroke-width:2.5;"/><text fill="#000000" font-family="sans-serif" font-size="30" font-style="italic" lengthAdjust="spacing" textLength="225" x="656.25" y="1428.877">CardSelectorSpi</text><line style="stroke:#3498DB;stroke-width:3.75;" x1="558.75" x2="886.25" y1="1456.6016" y2="1456.6016"/><line style="stroke:#3498DB;stroke-width:3.75;" x1="558.75" x2="886.25" y1="1476.6016" y2="1476.6016"/><!--MD5=[c089e258773b765d812cd5d8bc232f90]
class SmartCardSpi--><rect codeLine="159" fill="#EBF5FB" height="120" id="SmartCardSpi" style="stroke:#3498DB;stroke-width:3.75;" width="302.5" x="1411.25" y="1376.6016"/><ellipse cx="1448.75" cy="1416.6016" fill="#B4A7E5" rx="27.5" ry="27.5" style="stroke:#B4A7E5;stroke-width:2.5;"/><path d="M1451.25,1409.1016 L1451.25,1424.1016 L1456.25,1424.1016 L1457.4609,1424.1016 L1458.75,1425.6641 L1458.75,1426.6016 L1458.75,1427.5391 L1457.4609,1429.1016 L1456.25,1429.1016 L1441.25,1429.1016 L1440.0391,1429.1016 L1438.75,1427.5391 L1438.75,1426.6016 L1438.75,1425.6641 L1440.0391,1424.1016 L1441.25,1424.1016 L1446.25,1424.1016 L1446.25,1409.1016 L1441.25,1409.1016 L1440.0391,1409.1016 L1438.75,1407.5391 L1438.75,1406.6016 L1438.75,1405.6641 L1440.0391,1404.1016 L1441.25,1404.1016 L1456.25,1404.1016 L1457.4609,1404.1016 L1458.75,1405.6641 L1458.75,1406.6016 L1458.75,1407.5391 L1457.4609,1409.1016 L1456.25,1409.1016 L1451.25,1409.1016 Z " fill="#000000"/><ellipse cx="1496.25" cy="1415.3516" fill="#84BE84" rx="7.5" ry="7.5" style="stroke:#038048;stroke-width:2.5;"/><text fill="#000000" font-family="sans-serif" font-size="30" font-style="italic" lengthAdjust="spacing" textLength="195" x="1511.25" y="1428.877">SmartCardSpi</text><line style="stroke:#3498DB;stroke-width:3.75;" x1="1413.75" x2="1711.25" y1="1456.6016" y2="1456.6016"/><line style="stroke:#3498DB;stroke-width:3.75;" x1="1413.75" x2="1711.25" y1="1476.6016" y2="1476.6016"/><!--MD5=[8d87e43a1a915ffb33ab992212a28e16]
class CardSelectionRequestSpi--><rect codeLine="160" fill="#EBF5FB" height="154.5898" id="CardSelectionRequestSpi" style="stroke:#3498DB;stroke-width:3.75;" width="462.5" x="1801.25" y="1359.1016"/><ellipse cx="1838.75" cy="1399.1016" fill="#B4A7E5" rx="27.5" ry="27.5" style="stroke:#B4A7E5;stroke-width:2.5;"/><path d="M1841.25,1391.6016 L1841.25,1406.6016 L1846.25,1406.6016 L1847.4609,1406.6016 L1848.75,1408.1641 L1848.75,1409.1016 L1848.75,1410.0391 L1847.4609,1411.6016 L1846.25,1411.6016 L1831.25,1411.6016 L1830.0391,1411.6016 L1828.75,1410.0391 L1828.75,1409.1016 L1828.75,1408.1641 L1830.0391,1406.6016 L1831.25,1406.6016 L1836.25,1406.6016 L1836.25,1391.6016 L1831.25,1391.6016 L1830.0391,1391.6016 L1828.75,1390.0391 L1828.75,1389.1016 L1828.75,1388.1641 L1830.0391,1386.6016 L1831.25,1386.6016 L1846.25,1386.6016 L1847.4609,1386.6016 L1848.75,1388.1641 L1848.75,1389.1016 L1848.75,1390.0391 L1847.4609,1391.6016 L1846.25,1391.6016 L1841.25,1391.6016 Z " fill="#000000"/><ellipse cx="1886.25" cy="1397.8516" fill="#84BE84" rx="7.5" ry="7.5" style="stroke:#038048;stroke-width:2.5;"/><text fill="#000000" font-family="sans-serif" font-size="30" font-style="italic" lengthAdjust="spacing" textLength="355" x="1901.25" y="1411.377">CardSelectionRequestSpi</text><line style="stroke:#3498DB;stroke-width:3.75;" x1="1803.75" x2="2261.25" y1="1439.1016" y2="1439.1016"/><text fill="#000000" font-family="sans-serif" font-size="27.5" lengthAdjust="spacing" textLength="22.5" x="1816.25" y="1477.6489">...</text><line style="stroke:#3498DB;stroke-width:3.75;" x1="1803.75" x2="2261.25" y1="1493.6914" y2="1493.6914"/><!--MD5=[b26cc63de5889bffd0c8769786a5769b]
class CardRequestSpi--><rect codeLine="161" fill="#EBF5FB" height="154.5898" id="CardRequestSpi" style="stroke:#3498DB;stroke-width:3.75;" width="335" x="2352.5" y="1359.1016"/><ellipse cx="2390" cy="1399.1016" fill="#B4A7E5" rx="27.5" ry="27.5" style="stroke:#B4A7E5;stroke-width:2.5;"/><path d="M2392.5,1391.6016 L2392.5,1406.6016 L2397.5,1406.6016 L2398.7109,1406.6016 L2400,1408.1641 L2400,1409.1016 L2400,1410.0391 L2398.7109,1411.6016 L2397.5,1411.6016 L2382.5,1411.6016 L2381.2891,1411.6016 L2380,1410.0391 L2380,1409.1016 L2380,1408.1641 L2381.2891,1406.6016 L2382.5,1406.6016 L2387.5,1406.6016 L2387.5,1391.6016 L2382.5,1391.6016 L2381.2891,1391.6016 L2380,1390.0391 L2380,1389.1016 L2380,1388.1641 L2381.2891,1386.6016 L2382.5,1386.6016 L2397.5,1386.6016 L2398.7109,1386.6016 L2400,1388.1641 L2400,1389.1016 L2400,1390.0391 L2398.7109,1391.6016 L2397.5,1391.6016 L2392.5,1391.6016 Z " fill="#000000"/><ellipse cx="2437.5" cy="1397.8516" fill="#84BE84" rx="7.5" ry="7.5" style="stroke:#038048;stroke-width:2.5;"/><text fill="#000000" font-family="sans-serif" font-size="30" font-style="italic" lengthAdjust="spacing" textLength="227.5" x="2452.5" y="1411.377">CardRequestSpi</text><line style="stroke:#3498DB;stroke-width:3.75;" x1="2355" x2="2685" y1="1439.1016" y2="1439.1016"/><text fill="#000000" font-family="sans-serif" font-size="27.5" lengthAdjust="spacing" textLength="22.5" x="2367.5" y="1477.6489">...</text><line style="stroke:#3498DB;stroke-width:3.75;" x1="2355" x2="2685" y1="1493.6914" y2="1493.6914"/><!--MD5=[1499b49b6a3daea27e4b5ae092e773a3]
class ApduRequestSpi--><rect codeLine="162" fill="#EBF5FB" height="154.5898" id="ApduRequestSpi" style="stroke:#3498DB;stroke-width:3.75;" width="340" x="2775" y="1359.1016"/><ellipse cx="2812.5" cy="1399.1016" fill="#B4A7E5" rx="27.5" ry="27.5" style="stroke:#B4A7E5;stroke-width:2.5;"/><path d="M2815,1391.6016 L2815,1406.6016 L2820,1406.6016 L2821.2109,1406.6016 L2822.5,1408.1641 L2822.5,1409.1016 L2822.5,1410.0391 L2821.2109,1411.6016 L2820,1411.6016 L2805,1411.6016 L2803.7891,1411.6016 L2802.5,1410.0391 L2802.5,1409.1016 L2802.5,1408.1641 L2803.7891,1406.6016 L2805,1406.6016 L2810,1406.6016 L2810,1391.6016 L2805,1391.6016 L2803.7891,1391.6016 L2802.5,1390.0391 L2802.5,1389.1016 L2802.5,1388.1641 L2803.7891,1386.6016 L2805,1386.6016 L2820,1386.6016 L2821.2109,1386.6016 L2822.5,1388.1641 L2822.5,1389.1016 L2822.5,1390.0391 L2821.2109,1391.6016 L2820,1391.6016 L2815,1391.6016 Z " fill="#000000"/><ellipse cx="2860" cy="1397.8516" fill="#84BE84" rx="7.5" ry="7.5" style="stroke:#038048;stroke-width:2.5;"/><text fill="#000000" font-family="sans-serif" font-size="30" font-style="italic" lengthAdjust="spacing" textLength="232.5" x="2875" y="1411.377">ApduRequestSpi</text><line style="stroke:#3498DB;stroke-width:3.75;" x1="2777.5" x2="3112.5" y1="1439.1016" y2="1439.1016"/><text fill="#000000" font-family="sans-serif" font-size="27.5" lengthAdjust="spacing" textLength="22.5" x="2790" y="1477.6489">...</text><line style="stroke:#3498DB;stroke-width:3.75;" x1="2777.5" x2="3112.5" y1="1493.6914" y2="1493.6914"/><!--MD5=[657ea2a4ae184f2087194ea5e9ec49d6]
class CardResourceProfileExtension--><rect codeLine="78" fill="#FEFECE" height="154.5898" id="CardResourceProfileExtension" style="stroke:#D4AC0D;stroke-width:3.75;" width="530" x="2317.5" y="161.6016"/><ellipse cx="2355" cy="201.6016" fill="#B4A7E5" rx="27.5" ry="27.5" style="stroke:#B4A7E5;stroke-width:2.5;"/><path d="M2357.5,194.1016 L2357.5,209.1016 L2362.5,209.1016 L2363.7109,209.1016 L2365,210.6641 L2365,211.6016 L2365,212.5391 L2363.7109,214.1016 L2362.5,214.1016 L2347.5,214.1016 L2346.2891,214.1016 L2345,212.5391 L2345,211.6016 L2345,210.6641 L2346.2891,209.1016 L2347.5,209.1016 L2352.5,209.1016 L2352.5,194.1016 L2347.5,194.1016 L2346.2891,194.1016 L2345,192.5391 L2345,191.6016 L2345,190.6641 L2346.2891,189.1016 L2347.5,189.1016 L2362.5,189.1016 L2363.7109,189.1016 L2365,190.6641 L2365,191.6016 L2365,192.5391 L2363.7109,194.1016 L2362.5,194.1016 L2357.5,194.1016 Z " fill="#000000"/><ellipse cx="2402.5" cy="200.3516" fill="#84BE84" rx="7.5" ry="7.5" style="stroke:#038048;stroke-width:2.5;"/><text fill="#000000" font-family="sans-serif" font-size="30" font-style="italic" lengthAdjust="spacing" textLength="422.5" x="2417.5" y="213.877">CardResourceProfileExtension</text><line style="stroke:#D4AC0D;stroke-width:3.75;" x1="2320" x2="2845" y1="241.6016" y2="241.6016"/><text fill="#000000" font-family="sans-serif" font-size="27.5" lengthAdjust="spacing" textLength="22.5" x="2332.5" y="280.1489">...</text><line style="stroke:#D4AC0D;stroke-width:3.75;" x1="2320" x2="2845" y1="296.1914" y2="296.1914"/><!--MD5=[125c2a9664bfb82a01f56afd98fcef0c]
class xxxCardExtension--><rect codeLine="84" fill="#FEFECE" height="243.7695" id="xxxCardExtension" style="stroke:#D4AC0D;stroke-width:3.75;" width="605" x="80" y="529.1016"/><ellipse cx="200.625" cy="569.1016" fill="#ADD1B2" rx="27.5" ry="27.5" style="stroke:#ADD1B2;stroke-width:2.5;"/><path d="M205.625,560.3516 Q206.1328,559.1016 206.7188,558.4766 Q207.3047,557.8516 207.9688,557.8516 Q209.1406,557.8516 209.8828,558.5547 Q210.625,559.2578 210.625,560.8984 L210.625,564.8047 Q210.625,566.4453 209.9219,567.1484 Q209.2188,567.8516 208.125,567.8516 Q207.1484,567.8516 206.5234,567.4219 Q205.8984,566.9922 205.625,565.8594 Q205.5078,565.0781 205.0781,564.6484 Q204.2969,563.8281 202.8906,563.3594 Q201.4844,562.8516 200.0781,562.8516 Q198.3203,562.8516 196.8359,563.5547 Q195.3906,564.2578 194.2578,565.8203 Q193.125,567.3828 193.125,569.5313 L193.125,571.8359 Q193.125,574.4141 195.2344,576.1328 Q197.3438,577.8516 201.0938,577.8516 Q203.3203,577.8516 204.8828,577.3438 Q205.7813,577.0703 206.7969,576.1719 Q207.4609,575.6641 207.8125,575.5078 Q208.1641,575.3516 208.5938,575.3516 Q209.4141,575.3516 210,576.0156 Q210.625,576.6406 210.625,577.5391 Q210.625,578.3984 209.7656,579.4141 Q208.5156,580.8984 206.5234,581.7188 Q203.9063,582.8516 200.7031,582.8516 Q196.9531,582.8516 193.9453,581.3672 Q191.5234,580.1953 189.8047,577.6563 Q188.125,575.1172 188.125,572.1094 L188.125,569.375 Q188.125,566.25 189.6094,563.5156 Q191.1328,560.7813 193.75,559.3359 Q196.4063,557.8516 199.375,557.8516 Q201.1719,557.8516 202.7344,558.4766 Q204.2969,559.1016 205.625,560.3516 Z " fill="#000000"/><ellipse cx="264.375" cy="567.8516" fill="#84BE84" rx="7.5" ry="7.5" style="stroke:#038048;stroke-width:2.5;"/><text fill="#000000" font-family="sans-serif" font-size="30" font-style="italic" font-weight="bold" lengthAdjust="spacing" textLength="60" x="279.375" y="581.377">final</text><text fill="#000000" font-family="sans-serif" font-size="30" font-style="italic" lengthAdjust="spacing" textLength="247.5" x="346.875" y="581.377">xxxCardExtension</text><line style="stroke:#D4AC0D;stroke-width:3.75;" x1="82.5" x2="682.5" y1="609.1016" y2="609.1016"/><line style="stroke:#D4AC0D;stroke-width:2.5;" x1="82.5" x2="682.5" y1="629.1016" y2="629.1016"/><ellipse cx="107.5" cy="656.6016" fill="#84BE84" rx="7.5" ry="7.5" style="stroke:#038048;stroke-width:2.5;"/><text fill="#000000" font-family="sans-serif" font-size="27.5" lengthAdjust="spacing" text-decoration="underline" textLength="395" x="130" y="667.6489">xxxCardExtension getInstance ()</text><line style="stroke:#D4AC0D;stroke-width:2.5;stroke-dasharray:1.0,2.0;" x1="82.5" x2="682.5" y1="683.6914" y2="683.6914"/><ellipse cx="107.5" cy="711.1914" fill="#84BE84" rx="7.5" ry="7.5" style="stroke:#038048;stroke-width:2.5;"/><text fill="#000000" font-family="sans-serif" font-size="27.5" lengthAdjust="spacing" textLength="540" x="130" y="722.2388">xxxCardSelection createXxxCardSelection ()</text><text fill="#000000" font-family="sans-serif" font-size="27.5" lengthAdjust="spacing" textLength="22.5" x="130" y="756.8286">...</text><!--MD5=[96c12fe999c27355c48f5d6d4eb4d00c]
class xxxCardSelection--><rect codeLine="91" fill="#FEFECE" height="154.5898" id="xxxCardSelection" style="stroke:#D4AC0D;stroke-width:3.75;" width="347.5" x="908.75" y="574.1016"/><ellipse cx="946.25" cy="614.1016" fill="#B4A7E5" rx="27.5" ry="27.5" style="stroke:#B4A7E5;stroke-width:2.5;"/><path d="M948.75,606.6016 L948.75,621.6016 L953.75,621.6016 L954.9609,621.6016 L956.25,623.1641 L956.25,624.1016 L956.25,625.0391 L954.9609,626.6016 L953.75,626.6016 L938.75,626.6016 L937.5391,626.6016 L936.25,625.0391 L936.25,624.1016 L936.25,623.1641 L937.5391,621.6016 L938.75,621.6016 L943.75,621.6016 L943.75,606.6016 L938.75,606.6016 L937.5391,606.6016 L936.25,605.0391 L936.25,604.1016 L936.25,603.1641 L937.5391,601.6016 L938.75,601.6016 L953.75,601.6016 L954.9609,601.6016 L956.25,603.1641 L956.25,604.1016 L956.25,605.0391 L954.9609,606.6016 L953.75,606.6016 L948.75,606.6016 Z " fill="#000000"/><ellipse cx="993.75" cy="612.8516" fill="#84BE84" rx="7.5" ry="7.5" style="stroke:#038048;stroke-width:2.5;"/><text fill="#000000" font-family="sans-serif" font-size="30" font-style="italic" lengthAdjust="spacing" textLength="240" x="1008.75" y="626.377">xxxCardSelection</text><line style="stroke:#D4AC0D;stroke-width:3.75;" x1="911.25" x2="1253.75" y1="654.1016" y2="654.1016"/><text fill="#000000" font-family="sans-serif" font-size="27.5" lengthAdjust="spacing" textLength="22.5" x="923.75" y="692.6489">...</text><line style="stroke:#D4AC0D;stroke-width:3.75;" x1="911.25" x2="1253.75" y1="708.6914" y2="708.6914"/><!--MD5=[840dca342d2e2f3185b16a9f6795b3c6]
class xxxSmartCard--><rect codeLine="94" fill="#FEFECE" height="154.5898" id="xxxSmartCard" style="stroke:#D4AC0D;stroke-width:3.75;" width="302.5" x="1343.75" y="574.1016"/><ellipse cx="1381.25" cy="614.1016" fill="#B4A7E5" rx="27.5" ry="27.5" style="stroke:#B4A7E5;stroke-width:2.5;"/><path d="M1383.75,606.6016 L1383.75,621.6016 L1388.75,621.6016 L1389.9609,621.6016 L1391.25,623.1641 L1391.25,624.1016 L1391.25,625.0391 L1389.9609,626.6016 L1388.75,626.6016 L1373.75,626.6016 L1372.5391,626.6016 L1371.25,625.0391 L1371.25,624.1016 L1371.25,623.1641 L1372.5391,621.6016 L1373.75,621.6016 L1378.75,621.6016 L1378.75,606.6016 L1373.75,606.6016 L1372.5391,606.6016 L1371.25,605.0391 L1371.25,604.1016 L1371.25,603.1641 L1372.5391,601.6016 L1373.75,601.6016 L1388.75,601.6016 L1389.9609,601.6016 L1391.25,603.1641 L1391.25,604.1016 L1391.25,605.0391 L1389.9609,606.6016 L1388.75,606.6016 L1383.75,606.6016 Z " fill="#000000"/><ellipse cx="1428.75" cy="612.8516" fill="#84BE84" rx="7.5" ry="7.5" style="stroke:#038048;stroke-width:2.5;"/><text fill="#000000" font-family="sans-serif" font-size="30" font-style="italic" lengthAdjust="spacing" textLength="195" x="1443.75" y="626.377">xxxSmartCard</text><line style="stroke:#D4AC0D;stroke-width:3.75;" x1="1346.25" x2="1643.75" y1="654.1016" y2="654.1016"/><text fill="#000000" font-family="sans-serif" font-size="27.5" lengthAdjust="spacing" textLength="22.5" x="1358.75" y="692.6489">...</text><line style="stroke:#D4AC0D;stroke-width:3.75;" x1="1346.25" x2="1643.75" y1="708.6914" y2="708.6914"/><!--MD5=[b9ed339c1442abfa795cdfa9e9a9d6e3]
class xxxCardResourceProfileExtension--><rect codeLine="97" fill="#FEFECE" height="154.5898" id="xxxCardResourceProfileExtension" style="stroke:#D4AC0D;stroke-width:3.75;" width="642.5" x="2261.25" y="574.1016"/><ellipse cx="2298.75" cy="614.1016" fill="#ADD1B2" rx="27.5" ry="27.5" style="stroke:#ADD1B2;stroke-width:2.5;"/><path d="M2303.75,605.3516 Q2304.2578,604.1016 2304.8438,603.4766 Q2305.4297,602.8516 2306.0938,602.8516 Q2307.2656,602.8516 2308.0078,603.5547 Q2308.75,604.2578 2308.75,605.8984 L2308.75,609.8047 Q2308.75,611.4453 2308.0469,612.1484 Q2307.3438,612.8516 2306.25,612.8516 Q2305.2734,612.8516 2304.6484,612.4219 Q2304.0234,611.9922 2303.75,610.8594 Q2303.6328,610.0781 2303.2031,609.6484 Q2302.4219,608.8281 2301.0156,608.3594 Q2299.6094,607.8516 2298.2031,607.8516 Q2296.4453,607.8516 2294.9609,608.5547 Q2293.5156,609.2578 2292.3828,610.8203 Q2291.25,612.3828 2291.25,614.5313 L2291.25,616.8359 Q2291.25,619.4141 2293.3594,621.1328 Q2295.4688,622.8516 2299.2188,622.8516 Q2301.4453,622.8516 2303.0078,622.3438 Q2303.9063,622.0703 2304.9219,621.1719 Q2305.5859,620.6641 2305.9375,620.5078 Q2306.2891,620.3516 2306.7188,620.3516 Q2307.5391,620.3516 2308.125,621.0156 Q2308.75,621.6406 2308.75,622.5391 Q2308.75,623.3984 2307.8906,624.4141 Q2306.6406,625.8984 2304.6484,626.7188 Q2302.0313,627.8516 2298.8281,627.8516 Q2295.0781,627.8516 2292.0703,626.3672 Q2289.6484,625.1953 2287.9297,622.6563 Q2286.25,620.1172 2286.25,617.1094 L2286.25,614.375 Q2286.25,611.25 2287.7344,608.5156 Q2289.2578,605.7813 2291.875,604.3359 Q2294.5313,602.8516 2297.5,602.8516 Q2299.2969,602.8516 2300.8594,603.4766 Q2302.4219,604.1016 2303.75,605.3516 Z " fill="#000000"/><polygon fill="#4177AF" points="2346.25,602.8516,2336.25,617.8516,2356.25,617.8516" style="stroke:#1963A0;stroke-width:2.5;"/><text fill="#000000" font-family="sans-serif" font-size="30" font-style="italic" font-weight="bold" lengthAdjust="spacing" textLength="60" x="2361.25" y="626.377">final</text><text fill="#000000" font-family="sans-serif" font-size="30" font-style="italic" lengthAdjust="spacing" textLength="467.5" x="2428.75" y="626.377">xxxCardResourceProfileExtension</text><line style="stroke:#D4AC0D;stroke-width:3.75;" x1="2263.75" x2="2901.25" y1="654.1016" y2="654.1016"/><text fill="#000000" font-family="sans-serif" font-size="27.5" lengthAdjust="spacing" textLength="22.5" x="2276.25" y="692.6489">...</text><line style="stroke:#D4AC0D;stroke-width:3.75;" x1="2263.75" x2="2901.25" y1="708.6914" y2="708.6914"/><!--MD5=[882619f7d194dd02a0d8af00ce730c5c]
class CardSelectionAdapter--><rect codeLine="151" fill="#EBF5FB" height="154.5898" id="CardSelectionAdapter" style="stroke:#3498DB;stroke-width:3.75;" width="477.5" x="691.25" y="931.6016"/><ellipse cx="728.75" cy="971.6016" fill="#ADD1B2" rx="27.5" ry="27.5" style="stroke:#ADD1B2;stroke-width:2.5;"/><path d="M733.75,962.8516 Q734.2578,961.6016 734.8438,960.9766 Q735.4297,960.3516 736.0938,960.3516 Q737.2656,960.3516 738.0078,961.0547 Q738.75,961.7578 738.75,963.3984 L738.75,967.3047 Q738.75,968.9453 738.0469,969.6484 Q737.3438,970.3516 736.25,970.3516 Q735.2734,970.3516 734.6484,969.9219 Q734.0234,969.4922 733.75,968.3594 Q733.6328,967.5781 733.2031,967.1484 Q732.4219,966.3281 731.0156,965.8594 Q729.6094,965.3516 728.2031,965.3516 Q726.4453,965.3516 724.9609,966.0547 Q723.5156,966.7578 722.3828,968.3203 Q721.25,969.8828 721.25,972.0313 L721.25,974.3359 Q721.25,976.9141 723.3594,978.6328 Q725.4688,980.3516 729.2188,980.3516 Q731.4453,980.3516 733.0078,979.8438 Q733.9063,979.5703 734.9219,978.6719 Q735.5859,978.1641 735.9375,978.0078 Q736.2891,977.8516 736.7188,977.8516 Q737.5391,977.8516 738.125,978.5156 Q738.75,979.1406 738.75,980.0391 Q738.75,980.8984 737.8906,981.9141 Q736.6406,983.3984 734.6484,984.2188 Q732.0313,985.3516 728.8281,985.3516 Q725.0781,985.3516 722.0703,983.8672 Q719.6484,982.6953 717.9297,980.1563 Q716.25,977.6172 716.25,974.6094 L716.25,971.875 Q716.25,968.75 717.7344,966.0156 Q719.2578,963.2813 721.875,961.8359 Q724.5313,960.3516 727.5,960.3516 Q729.2969,960.3516 730.8594,960.9766 Q732.4219,961.6016 733.75,962.8516 Z " fill="#000000"/><polygon fill="#4177AF" points="776.25,960.3516,766.25,975.3516,786.25,975.3516" style="stroke:#1963A0;stroke-width:2.5;"/><text fill="#000000" font-family="sans-serif" font-size="30" font-style="italic" font-weight="bold" lengthAdjust="spacing" textLength="60" x="791.25" y="983.877">final</text><text fill="#000000" font-family="sans-serif" font-size="30" font-style="italic" lengthAdjust="spacing" textLength="302.5" x="858.75" y="983.877">CardSelectionAdapter</text><line style="stroke:#3498DB;stroke-width:3.75;" x1="693.75" x2="1166.25" y1="1011.6016" y2="1011.6016"/><text fill="#000000" font-family="sans-serif" font-size="27.5" lengthAdjust="spacing" textLength="22.5" x="706.25" y="1050.1489">...</text><line style="stroke:#3498DB;stroke-width:3.75;" x1="693.75" x2="1166.25" y1="1066.1914" y2="1066.1914"/><!--MD5=[fbd938fb4bf01822b3afed4518bf6335]
class CardSelectorAdapter--><rect codeLine="152" fill="#EBF5FB" height="154.5898" id="CardSelectorAdapter" style="stroke:#3498DB;stroke-width:3.75;" width="462.5" x="141.25" y="931.6016"/><ellipse cx="178.75" cy="971.6016" fill="#ADD1B2" rx="27.5" ry="27.5" style="stroke:#ADD1B2;stroke-width:2.5;"/><path d="M183.75,962.8516 Q184.2578,961.6016 184.8438,960.9766 Q185.4297,960.3516 186.0938,960.3516 Q187.2656,960.3516 188.0078,961.0547 Q188.75,961.7578 188.75,963.3984 L188.75,967.3047 Q188.75,968.9453 188.0469,969.6484 Q187.3438,970.3516 186.25,970.3516 Q185.2734,970.3516 184.6484,969.9219 Q184.0234,969.4922 183.75,968.3594 Q183.6328,967.5781 183.2031,967.1484 Q182.4219,966.3281 181.0156,965.8594 Q179.6094,965.3516 178.2031,965.3516 Q176.4453,965.3516 174.9609,966.0547 Q173.5156,966.7578 172.3828,968.3203 Q171.25,969.8828 171.25,972.0313 L171.25,974.3359 Q171.25,976.9141 173.3594,978.6328 Q175.4688,980.3516 179.2188,980.3516 Q181.4453,980.3516 183.0078,979.8438 Q183.9063,979.5703 184.9219,978.6719 Q185.5859,978.1641 185.9375,978.0078 Q186.2891,977.8516 186.7188,977.8516 Q187.5391,977.8516 188.125,978.5156 Q188.75,979.1406 188.75,980.0391 Q188.75,980.8984 187.8906,981.9141 Q186.6406,983.3984 184.6484,984.2188 Q182.0313,985.3516 178.8281,985.3516 Q175.0781,985.3516 172.0703,983.8672 Q169.6484,982.6953 167.9297,980.1563 Q166.25,977.6172 166.25,974.6094 L166.25,971.875 Q166.25,968.75 167.7344,966.0156 Q169.2578,963.2813 171.875,961.8359 Q174.5313,960.3516 177.5,960.3516 Q179.2969,960.3516 180.8594,960.9766 Q182.4219,961.6016 183.75,962.8516 Z " fill="#000000"/><polygon fill="#4177AF" points="226.25,960.3516,216.25,975.3516,236.25,975.3516" style="stroke:#1963A0;stroke-width:2.5;"/><text fill="#000000" font-family="sans-serif" font-size="30" font-style="italic" font-weight="bold" lengthAdjust="spacing" textLength="60" x="241.25" y="983.877">final</text><text fill="#000000" font-family="sans-serif" font-size="30" font-style="italic" lengthAdjust="spacing" textLength="287.5" x="308.75" y="983.877">CardSelectorAdapter</text><line style="stroke:#3498DB;stroke-width:3.75;" x1="143.75" x2="601.25" y1="1011.6016" y2="1011.6016"/><text fill="#000000" font-family="sans-serif" font-size="27.5" lengthAdjust="spacing" textLength="22.5" x="156.25" y="1050.1489">...</text><line style="stroke:#3498DB;stroke-width:3.75;" x1="143.75" x2="601.25" y1="1066.1914" y2="1066.1914"/><!--MD5=[3d8b98c9b7bd194e7ca23b3bf5b07799]
class SmartCardAdapter--><rect codeLine="153" fill="#EBF5FB" height="154.5898" id="SmartCardAdapter" style="stroke:#3498DB;stroke-width:3.75;" width="432.5" x="1256.25" y="931.6016"/><ellipse cx="1293.75" cy="971.6016" fill="#ADD1B2" rx="27.5" ry="27.5" style="stroke:#ADD1B2;stroke-width:2.5;"/><path d="M1298.75,962.8516 Q1299.2578,961.6016 1299.8438,960.9766 Q1300.4297,960.3516 1301.0938,960.3516 Q1302.2656,960.3516 1303.0078,961.0547 Q1303.75,961.7578 1303.75,963.3984 L1303.75,967.3047 Q1303.75,968.9453 1303.0469,969.6484 Q1302.3438,970.3516 1301.25,970.3516 Q1300.2734,970.3516 1299.6484,969.9219 Q1299.0234,969.4922 1298.75,968.3594 Q1298.6328,967.5781 1298.2031,967.1484 Q1297.4219,966.3281 1296.0156,965.8594 Q1294.6094,965.3516 1293.2031,965.3516 Q1291.4453,965.3516 1289.9609,966.0547 Q1288.5156,966.7578 1287.3828,968.3203 Q1286.25,969.8828 1286.25,972.0313 L1286.25,974.3359 Q1286.25,976.9141 1288.3594,978.6328 Q1290.4688,980.3516 1294.2188,980.3516 Q1296.4453,980.3516 1298.0078,979.8438 Q1298.9063,979.5703 1299.9219,978.6719 Q1300.5859,978.1641 1300.9375,978.0078 Q1301.2891,977.8516 1301.7188,977.8516 Q1302.5391,977.8516 1303.125,978.5156 Q1303.75,979.1406 1303.75,980.0391 Q1303.75,980.8984 1302.8906,981.9141 Q1301.6406,983.3984 1299.6484,984.2188 Q1297.0313,985.3516 1293.8281,985.3516 Q1290.0781,985.3516 1287.0703,983.8672 Q1284.6484,982.6953 1282.9297,980.1563 Q1281.25,977.6172 1281.25,974.6094 L1281.25,971.875 Q1281.25,968.75 1282.7344,966.0156 Q1284.2578,963.2813 1286.875,961.8359 Q1289.5313,960.3516 1292.5,960.3516 Q1294.2969,960.3516 1295.8594,960.9766 Q1297.4219,961.6016 1298.75,962.8516 Z " fill="#000000"/><polygon fill="#4177AF" points="1341.25,960.3516,1331.25,975.3516,1351.25,975.3516" style="stroke:#1963A0;stroke-width:2.5;"/><text fill="#000000" font-family="sans-serif" font-size="30" font-style="italic" font-weight="bold" lengthAdjust="spacing" textLength="60" x="1356.25" y="983.877">final</text><text fill="#000000" font-family="sans-serif" font-size="30" font-style="italic" lengthAdjust="spacing" textLength="257.5" x="1423.75" y="983.877">SmartCardAdapter</text><line style="stroke:#3498DB;stroke-width:3.75;" x1="1258.75" x2="1686.25" y1="1011.6016" y2="1011.6016"/><text fill="#000000" font-family="sans-serif" font-size="27.5" lengthAdjust="spacing" textLength="22.5" x="1271.25" y="1050.1489">...</text><line style="stroke:#3498DB;stroke-width:3.75;" x1="1258.75" x2="1686.25" y1="1066.1914" y2="1066.1914"/><!--MD5=[43ade75bd6d890e787ccdbbbaa69cade]
class CardSelectionRequestAdapter--><rect codeLine="154" fill="#EBF5FB" height="154.5898" id="CardSelectionRequestAdapter" style="stroke:#3498DB;stroke-width:3.75;" width="592.5" x="1831.25" y="931.6016"/><ellipse cx="1868.75" cy="971.6016" fill="#ADD1B2" rx="27.5" ry="27.5" style="stroke:#ADD1B2;stroke-width:2.5;"/><path d="M1873.75,962.8516 Q1874.2578,961.6016 1874.8438,960.9766 Q1875.4297,960.3516 1876.0938,960.3516 Q1877.2656,960.3516 1878.0078,961.0547 Q1878.75,961.7578 1878.75,963.3984 L1878.75,967.3047 Q1878.75,968.9453 1878.0469,969.6484 Q1877.3438,970.3516 1876.25,970.3516 Q1875.2734,970.3516 1874.6484,969.9219 Q1874.0234,969.4922 1873.75,968.3594 Q1873.6328,967.5781 1873.2031,967.1484 Q1872.4219,966.3281 1871.0156,965.8594 Q1869.6094,965.3516 1868.2031,965.3516 Q1866.4453,965.3516 1864.9609,966.0547 Q1863.5156,966.7578 1862.3828,968.3203 Q1861.25,969.8828 1861.25,972.0313 L1861.25,974.3359 Q1861.25,976.9141 1863.3594,978.6328 Q1865.4688,980.3516 1869.2188,980.3516 Q1871.4453,980.3516 1873.0078,979.8438 Q1873.9063,979.5703 1874.9219,978.6719 Q1875.5859,978.1641 1875.9375,978.0078 Q1876.2891,977.8516 1876.7188,977.8516 Q1877.5391,977.8516 1878.125,978.5156 Q1878.75,979.1406 1878.75,980.0391 Q1878.75,980.8984 1877.8906,981.9141 Q1876.6406,983.3984 1874.6484,984.2188 Q1872.0313,985.3516 1868.8281,985.3516 Q1865.0781,985.3516 1862.0703,983.8672 Q1859.6484,982.6953 1857.9297,980.1563 Q1856.25,977.6172 1856.25,974.6094 L1856.25,971.875 Q1856.25,968.75 1857.7344,966.0156 Q1859.2578,963.2813 1861.875,961.8359 Q1864.5313,960.3516 1867.5,960.3516 Q1869.2969,960.3516 1870.8594,960.9766 Q1872.4219,961.6016 1873.75,962.8516 Z " fill="#000000"/><polygon fill="#4177AF" points="1916.25,960.3516,1906.25,975.3516,1926.25,975.3516" style="stroke:#1963A0;stroke-width:2.5;"/><text fill="#000000" font-family="sans-serif" font-size="30" font-style="italic" font-weight="bold" lengthAdjust="spacing" textLength="60" x="1931.25" y="983.877">final</text><text fill="#000000" font-family="sans-serif" font-size="30" font-style="italic" lengthAdjust="spacing" textLength="417.5" x="1998.75" y="983.877">CardSelectionRequestAdapter</text><line style="stroke:#3498DB;stroke-width:3.75;" x1="1833.75" x2="2421.25" y1="1011.6016" y2="1011.6016"/><text fill="#000000" font-family="sans-serif" font-size="27.5" lengthAdjust="spacing" textLength="22.5" x="1846.25" y="1050.1489">...</text><line style="stroke:#3498DB;stroke-width:3.75;" x1="1833.75" x2="2421.25" y1="1066.1914" y2="1066.1914"/><!--MD5=[100e1c59935069e6272495215bd566ac]
class CardRequestAdapter--><rect codeLine="155" fill="#EBF5FB" height="154.5898" id="CardRequestAdapter" style="stroke:#3498DB;stroke-width:3.75;" width="465" x="2512.5" y="931.6016"/><ellipse cx="2550" cy="971.6016" fill="#ADD1B2" rx="27.5" ry="27.5" style="stroke:#ADD1B2;stroke-width:2.5;"/><path d="M2555,962.8516 Q2555.5078,961.6016 2556.0938,960.9766 Q2556.6797,960.3516 2557.3438,960.3516 Q2558.5156,960.3516 2559.2578,961.0547 Q2560,961.7578 2560,963.3984 L2560,967.3047 Q2560,968.9453 2559.2969,969.6484 Q2558.5938,970.3516 2557.5,970.3516 Q2556.5234,970.3516 2555.8984,969.9219 Q2555.2734,969.4922 2555,968.3594 Q2554.8828,967.5781 2554.4531,967.1484 Q2553.6719,966.3281 2552.2656,965.8594 Q2550.8594,965.3516 2549.4531,965.3516 Q2547.6953,965.3516 2546.2109,966.0547 Q2544.7656,966.7578 2543.6328,968.3203 Q2542.5,969.8828 2542.5,972.0313 L2542.5,974.3359 Q2542.5,976.9141 2544.6094,978.6328 Q2546.7188,980.3516 2550.4688,980.3516 Q2552.6953,980.3516 2554.2578,979.8438 Q2555.1563,979.5703 2556.1719,978.6719 Q2556.8359,978.1641 2557.1875,978.0078 Q2557.5391,977.8516 2557.9688,977.8516 Q2558.7891,977.8516 2559.375,978.5156 Q2560,979.1406 2560,980.0391 Q2560,980.8984 2559.1406,981.9141 Q2557.8906,983.3984 2555.8984,984.2188 Q2553.2813,985.3516 2550.0781,985.3516 Q2546.3281,985.3516 2543.3203,983.8672 Q2540.8984,982.6953 2539.1797,980.1563 Q2537.5,977.6172 2537.5,974.6094 L2537.5,971.875 Q2537.5,968.75 2538.9844,966.0156 Q2540.5078,963.2813 2543.125,961.8359 Q2545.7813,960.3516 2548.75,960.3516 Q2550.5469,960.3516 2552.1094,960.9766 Q2553.6719,961.6016 2555,962.8516 Z " fill="#000000"/><polygon fill="#4177AF" points="2597.5,960.3516,2587.5,975.3516,2607.5,975.3516" style="stroke:#1963A0;stroke-width:2.5;"/><text fill="#000000" font-family="sans-serif" font-size="30" font-style="italic" font-weight="bold" lengthAdjust="spacing" textLength="60" x="2612.5" y="983.877">final</text><text fill="#000000" font-family="sans-serif" font-size="30" font-style="italic" lengthAdjust="spacing" textLength="290" x="2680" y="983.877">CardRequestAdapter</text><line style="stroke:#3498DB;stroke-width:3.75;" x1="2515" x2="2975" y1="1011.6016" y2="1011.6016"/><text fill="#000000" font-family="sans-serif" font-size="27.5" lengthAdjust="spacing" textLength="22.5" x="2527.5" y="1050.1489">...</text><line style="stroke:#3498DB;stroke-width:3.75;" x1="2515" x2="2975" y1="1066.1914" y2="1066.1914"/><!--MD5=[702c384917d520aca1ef7db480e71741]
class ApduRequestAdapter--><rect codeLine="156" fill="#EBF5FB" height="154.5898" id="ApduRequestAdapter" style="stroke:#3498DB;stroke-width:3.75;" width="470" x="3065" y="931.6016"/><ellipse cx="3102.5" cy="971.6016" fill="#ADD1B2" rx="27.5" ry="27.5" style="stroke:#ADD1B2;stroke-width:2.5;"/><path d="M3107.5,962.8516 Q3108.0078,961.6016 3108.5938,960.9766 Q3109.1797,960.3516 3109.8438,960.3516 Q3111.0156,960.3516 3111.7578,961.0547 Q3112.5,961.7578 3112.5,963.3984 L3112.5,967.3047 Q3112.5,968.9453 3111.7969,969.6484 Q3111.0938,970.3516 3110,970.3516 Q3109.0234,970.3516 3108.3984,969.9219 Q3107.7734,969.4922 3107.5,968.3594 Q3107.3828,967.5781 3106.9531,967.1484 Q3106.1719,966.3281 3104.7656,965.8594 Q3103.3594,965.3516 3101.9531,965.3516 Q3100.1953,965.3516 3098.7109,966.0547 Q3097.2656,966.7578 3096.1328,968.3203 Q3095,969.8828 3095,972.0313 L3095,974.3359 Q3095,976.9141 3097.1094,978.6328 Q3099.2188,980.3516 3102.9688,980.3516 Q3105.1953,980.3516 3106.7578,979.8438 Q3107.6563,979.5703 3108.6719,978.6719 Q3109.3359,978.1641 3109.6875,978.0078 Q3110.0391,977.8516 3110.4688,977.8516 Q3111.2891,977.8516 3111.875,978.5156 Q3112.5,979.1406 3112.5,980.0391 Q3112.5,980.8984 3111.6406,981.9141 Q3110.3906,983.3984 3108.3984,984.2188 Q3105.7813,985.3516 3102.5781,985.3516 Q3098.8281,985.3516 3095.8203,983.8672 Q3093.3984,982.6953 3091.6797,980.1563 Q3090,977.6172 3090,974.6094 L3090,971.875 Q3090,968.75 3091.4844,966.0156 Q3093.0078,963.2813 3095.625,961.8359 Q3098.2813,960.3516 3101.25,960.3516 Q3103.0469,960.3516 3104.6094,960.9766 Q3106.1719,961.6016 3107.5,962.8516 Z " fill="#000000"/><polygon fill="#4177AF" points="3150,960.3516,3140,975.3516,3160,975.3516" style="stroke:#1963A0;stroke-width:2.5;"/><text fill="#000000" font-family="sans-serif" font-size="30" font-style="italic" font-weight="bold" lengthAdjust="spacing" textLength="60" x="3165" y="983.877">final</text><text fill="#000000" font-family="sans-serif" font-size="30" font-style="italic" lengthAdjust="spacing" textLength="295" x="3232.5" y="983.877">ApduRequestAdapter</text><line style="stroke:#3498DB;stroke-width:3.75;" x1="3067.5" x2="3532.5" y1="1011.6016" y2="1011.6016"/><text fill="#000000" font-family="sans-serif" font-size="27.5" lengthAdjust="spacing" textLength="22.5" x="3080" y="1050.1489">...</text><line style="stroke:#3498DB;stroke-width:3.75;" x1="3067.5" x2="3532.5" y1="1066.1914" y2="1066.1914"/><!--MD5=[f32ec65005451c0b69c9b7f05ba07707]
reverse link KeypleCardExtension to xxxCardExtension--><path d="M382.5,367.4091 C382.5,418.8666 382.5,478.1316 382.5,528.9866 " fill="none" id="KeypleCardExtension-backto-xxxCardExtension" style="stroke:#A80036;stroke-width:2.5;stroke-dasharray:7.0,7.0;"/><polygon fill="none" points="365,367.2941,382.5,317.2941,400,367.2941,365,367.2941" style="stroke:#A80036;stroke-width:2.5;"/><!--MD5=[4abb779e65060c5bfc44d688ec29c257]
reverse link CardSelection to xxxCardSelection--><path d="M1097.2,349.5816 C1093.73,420.2891 1089.2825,510.9116 1086.1925,573.8691 " fill="none" id="CardSelection-backto-xxxCardSelection" style="stroke:#A80036;stroke-width:2.5;"/><polygon fill="none" points="1079.7475,348.2041,1099.6775,299.1216,1114.705,349.9191,1079.7475,348.2041" style="stroke:#A80036;stroke-width:2.5;"/><!--MD5=[7b98aeab9a3d660b23153640da6ec114]
reverse link SmartCard to xxxSmartCard--><path d="M1477.745,367.8641 C1481.8875,435.3516 1486.845,516.1691 1490.38,573.8141 " fill="none" id="SmartCard-backto-xxxSmartCard" style="stroke:#A80036;stroke-width:2.5;"/><polygon fill="none" points="1460.2375,368.2716,1474.6425,317.2941,1495.1725,366.1291,1460.2375,368.2716" style="stroke:#A80036;stroke-width:2.5;"/><!--MD5=[cbf8c82dfbf30c822f2831de71441ed3]
reverse link CardResourceProfileExtension to xxxCardResourceProfileExtension--><path d="M2582.5,367.8641 C2582.5,435.3516 2582.5,516.1691 2582.5,573.8141 " fill="none" id="CardResourceProfileExtension-backto-xxxCardResourceProfileExtension" style="stroke:#A80036;stroke-width:2.5;stroke-dasharray:7.0,7.0;"/><polygon fill="none" points="2565,367.2941,2582.5,317.2941,2600,367.2941,2565,367.2941" style="stroke:#A80036;stroke-width:2.5;"/><!--MD5=[f9e88762e83c86988ad219a5e0819efc]
reverse link xxxCardSelection to CardSelectionAdapter--><path d="M1029.6225,776.3266 C1007.3575,827.7916 982.15,886.0591 962.66,931.1066 " fill="none" id="xxxCardSelection-backto-CardSelectionAdapter" style="stroke:#A80036;stroke-width:2.5;stroke-dasharray:7.0,7.0;"/><polygon fill="none" points="1013.87,768.6616,1049.785,729.7216,1045.9925,782.5591,1013.87,768.6616" style="stroke:#A80036;stroke-width:2.5;"/><!--MD5=[0ef400922815e7dd748cddf286752fa6]
reverse link CardSelectionSpi to CardSelectionAdapter--><path d="M1094.955,1312.7941 C1081.4925,1284.3091 1066.825,1254.2141 1052.5,1226.6016 C1028.165,1179.6966 998.935,1128.2316 975.1325,1087.4166 " fill="none" id="CardSelectionSpi-backto-CardSelectionAdapter" style="stroke:#A80036;stroke-width:2.5;stroke-dasharray:7.0,7.0;"/><polygon fill="none" points="1110.9925,1305.7741,1116.205,1358.4918,1079.255,1320.5316,1110.9925,1305.7741" style="stroke:#A80036;stroke-width:2.5;"/><!--MD5=[2a1bb015db254be1a47ee043237b6d25]
link CardSelectionAdapter to CardSelectionSpi--><!--MD5=[ab8e579a1b8e72346f5d186bc80313b4]
reverse link CardSelectorSpi to CardSelectorAdapter--><path d="M647.69,1336.3941 C620.4775,1301.4366 589.2225,1261.9541 560,1226.6016 C521.1875,1179.6491 476.3875,1128.1816 440.3125,1087.3791 " fill="none" id="CardSelectorSpi-backto-CardSelectorAdapter" style="stroke:#A80036;stroke-width:2.5;stroke-dasharray:7.0,7.0;"/><polygon fill="none" points="661.7325,1325.9466,678.47,1376.2068,634.0425,1347.3541,661.7325,1325.9466" style="stroke:#A80036;stroke-width:2.5;"/><!--MD5=[09ea485f7c1a06d1f3c6537f7fdbbbcb]
link CardSelectorAdapter to CardSelectorSpi--><!--MD5=[7350053e91638e88c62e6965795931f1]
reverse link xxxSmartCard to SmartCardAdapter--><path d="M1486.9425,780.3191 C1483.7225,830.7866 1480.12,887.2216 1477.32,931.1066 " fill="none" id="xxxSmartCard-backto-SmartCardAdapter" style="stroke:#A80036;stroke-width:2.5;stroke-dasharray:7.0,7.0;"/><polygon fill="none" points="1469.5225,778.5041,1490.1725,729.7216,1504.4525,780.7341,1469.5225,778.5041" style="stroke:#A80036;stroke-width:2.5;"/><!--MD5=[d975716a9aa2ff4786c26b1cb323c8e6]
reverse link SmartCardSpi to SmartCardAdapter--><path d="M1539.59,1326.5491 C1523.6475,1251.7166 1502.79,1153.7941 1488.59,1087.1366 " fill="none" id="SmartCardSpi-backto-SmartCardAdapter" style="stroke:#A80036;stroke-width:2.5;stroke-dasharray:7.0,7.0;"/><polygon fill="none" points="1556.86,1323.6341,1550.1625,1376.1821,1522.63,1330.9241,1556.86,1323.6341" style="stroke:#A80036;stroke-width:2.5;"/><!--MD5=[8104807d404f27e6fa35e0d2be6883ed]
link SmartCardAdapter to SmartCardSpi--><!--MD5=[4ee34067652aa9a1b27356309ad5cc55]
reverse link CardSelectionRequestSpi to CardSelectionRequestAdapter--><path d="M2060.525,1309.4616 C2076.7525,1237.2991 2096.645,1148.8291 2110.515,1087.1366 " fill="none" id="CardSelectionRequestSpi-backto-CardSelectionRequestAdapter" style="stroke:#A80036;stroke-width:2.5;stroke-dasharray:7.0,7.0;"/><polygon fill="none" points="2077.54,1313.5666,2049.4975,1358.5098,2043.3925,1305.8891,2077.54,1313.5666" style="stroke:#A80036;stroke-width:2.5;"/><!--MD5=[e0cd13c02551a52f14d3dde67c444430]
link CardSelectionRequestAdapter to CardSelectionRequestSpi--><!--MD5=[fee7c39d2b7ca32b51cea31894a49b3e]
reverse link CardRequestSpi to CardRequestAdapter--><path d="M2584.15,1313.6466 C2622.975,1240.7441 2671.275,1150.0266 2704.775,1087.1366 " fill="none" id="CardRequestSpi-backto-CardRequestAdapter" style="stroke:#A80036;stroke-width:2.5;stroke-dasharray:7.0,7.0;"/><polygon fill="none" points="2599.2,1322.6041,2560.25,1358.5098,2568.3,1306.1516,2599.2,1322.6041" style="stroke:#A80036;stroke-width:2.5;"/><!--MD5=[d23e39c9eba8f7513b53777eeebf059d]
link CardRequestAdapter to CardRequestSpi--><!--MD5=[2e7b2631130bcf997502918bb0c8ace7]
reverse link ApduRequestSpi to ApduRequestAdapter--><path d="M3041,1319.8516 C3103.1,1245.9516 3182.175,1151.8241 3236.525,1087.1366 " fill="none" id="ApduRequestSpi-backto-ApduRequestAdapter" style="stroke:#A80036;stroke-width:2.5;stroke-dasharray:7.0,7.0;"/><polygon fill="none" points="3054.075,1331.4866,3008.525,1358.5098,3027.275,1308.9716,3054.075,1331.4866" style="stroke:#A80036;stroke-width:2.5;"/><!--MD5=[e23e49f2e91f2a61b555fafbc5c430fa]
link ApduRequestAdapter to ApduRequestSpi--><!--MD5=[3aa200d50e8af772637d2251ae140976]
link xxxCardExtension to xxxCardSelection--><path codeLine="127" d="M685.46,651.6016 C756.8175,651.6016 830.835,651.6016 895.35,651.6016 " fill="none" id="xxxCardExtension-to-xxxCardSelection" style="stroke:#3498DB;stroke-width:2.5;stroke-dasharray:7.0,7.0;"/><polygon fill="#3498DB" points="908.1225,651.6016,885.6225,641.6016,895.6225,651.6016,885.6225,661.6016,908.1225,651.6016" style="stroke:#3498DB;stroke-width:2.5;"/><polygon fill="#000000" points="753.125,622.041,730.5123,614.6937,730.5123,629.3883,753.125,622.041" style="stroke:#000000;stroke-width:2.5;"/><text fill="#000000" font-family="sans-serif" font-size="32.5" lengthAdjust="spacing" textLength="100" x="763.125" y="635.3394">provide</text><!--MD5=[b73e793f4a4782599ef086c2ab843c8c]
link xxxCardSelection to SmartCardAdapter--><!--MD5=[fcdbc9684436544b5aa1ac52f487dfcf]
reverse link CardSelectorAdapter to CardSelectionAdapter--><!--MD5=[2410b7dc536d0a6c6338e5fcedcc3ed6]
link SmartCardAdapter to CardSelectionRequestAdapter--><!--MD5=[dab1175e0cc3da89d62081c90794f5cf]
@startuml
title
    Keyple 2.0 - Specific Card Extension - 2.0.0 (04/06/2021)
end title

' == THEME ==

'Couleurs issues de : https://htmlcolorcodes.com/fr/tableau-de-couleur/tableau-de-couleur-design-plat/
!define C_GREY1 F8F9F9
!define C_GREY2 F2F3F4
!define C_GREY3 E5E7E9
!define C_GREY4 D7DBDD
!define C_GREY5 CACFD2
!define C_GREY6 BDC3C7
!define C_LINK 3498DB
!define C_USE 27AE60

skinparam Shadowing false
skinparam ClassFontStyle italic
skinparam ClassBorderColor #D4AC0D
skinparam stereotypeABorderColor #A9DCDF
skinparam stereotypeIBorderColor #B4A7E5
skinparam stereotypeCBorderColor #ADD1B2
skinparam stereotypeEBorderColor #EB93DF
' Red
skinparam ClassBackgroundColor<<red>> #FDEDEC
skinparam ClassBorderColor<<red>> #E74C3C
hide <<red>> stereotype
' Purple
skinparam ClassBackgroundColor<<purple>> #F4ECF7
skinparam ClassBorderColor<<purple>> #8E44AD
hide <<purple>> stereotype
' blue
skinparam ClassBackgroundColor<<blue>> #EBF5FB
skinparam ClassBorderColor<<blue>> #3498DB
hide <<blue>> stereotype
' Green
skinparam ClassBackgroundColor<<green>> #E9F7EF
skinparam ClassBorderColor<<green>> #27AE60
hide <<green>> stereotype
' Grey
skinparam ClassBackgroundColor<<grey>> #EAECEE
skinparam ClassBorderColor<<grey>> #2C3E50
hide <<grey>> stereotype

' == CONTENT ==

package "org.eclipse.keyple.core.common" as commonsApi {
    +interface KeypleCardExtension {
        ...
    }
}
package "org.calypsonet.terminal.reader.selection.spi" as readerSelectionSpi {
    +interface CardSelection {
    }
    +interface SmartCard {
        ...
    }
}
package "org.calypsonet.terminal.card.spi" as cardSpi {
    +interface CardSelectionSpi {
        ...
    }
    +interface CardSelectorSpi {
    }
    +interface SmartCardSpi {
    }
    +interface CardSelectionRequestSpi {
        ...
    }
    +interface CardRequestSpi {
        ...
    }
    +interface ApduRequestSpi {
        ...
    }
}
package "org.eclipse.keyple.core.service.resource.spi" as cardResourceSpi {
    +interface CardResourceProfileExtension {
        ...
    }
}

package "org.eclipse.keyple.card.xxx (specific extension)" as specificExtension {
    +class "**final** xxxCardExtension" as xxxCardExtension implements KeypleCardExtension {
        - -
        +{static} xxxCardExtension getInstance ()
        ..
        +xxxCardSelection createXxxCardSelection ()
        ...
    }
    +interface xxxCardSelection extends CardSelection {
        ...
    }
    +interface xxxSmartCard extends SmartCard {
        ...
    }
    ~class "**final** xxxCardResourceProfileExtension" as xxxCardResourceProfileExtension implements CardResourceProfileExtension {
        ...
    }
    ' Adapters
    together {
    ~class "**final** CardSelectionAdapter" as CardSelectionAdapter implements xxxCardSelection, CardSelectionSpi {
        ...
    }
    ~class "**final** CardSelectorAdapter" as CardSelectorAdapter implements CardSelectorSpi {
        ...
    }
    ~class "**final** SmartCardAdapter" as SmartCardAdapter implements xxxSmartCard, SmartCardSpi {
        ...
    }
    }
    together {
    ~class "**final** CardSelectionRequestAdapter" as CardSelectionRequestAdapter implements CardSelectionRequestSpi {
        ...
    }
    ~class "**final** CardRequestAdapter" as CardRequestAdapter implements CardRequestSpi {
        ...
    }
    ~class "**final** ApduRequestAdapter" as ApduRequestAdapter implements ApduRequestSpi {
        ...
    }
    }
}

' Associations

xxxCardExtension .right.> xxxCardSelection #C_LINK : provide >

' == LAYOUT ==

xxxCardSelection -[hidden]- SmartCardAdapter
CardSelectorAdapter -[hidden]- CardSelectorSpi
SmartCardAdapter -[hidden]- SmartCardSpi
CardSelectionAdapter -[hidden]- CardSelectionSpi
CardSelectionAdapter .[hidden]left.> CardSelectorAdapter

SmartCardAdapter -[hidden]right- CardSelectionRequestAdapter

CardSelectionRequestAdapter -[hidden]- CardSelectionRequestSpi
CardRequestAdapter -[hidden]- CardRequestSpi
ApduRequestAdapter -[hidden]- ApduRequestSpi

' == STYLE ==

package commonsApi #C_GREY1 {}
package specificExtension #C_GREY1 {}
package cardSpi #C_GREY1 {}
package readerSelectionSpi #C_GREY1 {}
package cardResourceSpi #C_GREY1 {}

class CardSelectionAdapter <<blue>>
class CardSelectorAdapter <<blue>>
class SmartCardAdapter <<blue>>
class CardSelectionRequestAdapter <<blue>>
class CardRequestAdapter <<blue>>
class ApduRequestAdapter <<blue>>
interface CardSelectionSpi <<blue>>
interface CardSelectorSpi <<blue>>
interface SmartCardSpi <<blue>>
interface CardSelectionRequestSpi <<blue>>
interface CardRequestSpi <<blue>>
interface ApduRequestSpi <<blue>>

@enduml

@startuml
title
    Keyple 2.0 - Specific Card Extension - 2.0.0 (04/06/2021)
end title



skinparam Shadowing false
skinparam ClassFontStyle italic
skinparam ClassBorderColor #D4AC0D
skinparam stereotypeABorderColor #A9DCDF
skinparam stereotypeIBorderColor #B4A7E5
skinparam stereotypeCBorderColor #ADD1B2
skinparam stereotypeEBorderColor #EB93DF
skinparam ClassBackgroundColor<<red>> #FDEDEC
skinparam ClassBorderColor<<red>> #E74C3C
hide <<red>> stereotype
skinparam ClassBackgroundColor<<purple>> #F4ECF7
skinparam ClassBorderColor<<purple>> #8E44AD
hide <<purple>> stereotype
skinparam ClassBackgroundColor<<blue>> #EBF5FB
skinparam ClassBorderColor<<blue>> #3498DB
hide <<blue>> stereotype
skinparam ClassBackgroundColor<<green>> #E9F7EF
skinparam ClassBorderColor<<green>> #27AE60
hide <<green>> stereotype
skinparam ClassBackgroundColor<<grey>> #EAECEE
skinparam ClassBorderColor<<grey>> #2C3E50
hide <<grey>> stereotype


package "org.eclipse.keyple.core.common" as commonsApi {
    +interface KeypleCardExtension {
        ...
    }
}
package "org.calypsonet.terminal.reader.selection.spi" as readerSelectionSpi {
    +interface CardSelection {
    }
    +interface SmartCard {
        ...
    }
}
package "org.calypsonet.terminal.card.spi" as cardSpi {
    +interface CardSelectionSpi {
        ...
    }
    +interface CardSelectorSpi {
    }
    +interface SmartCardSpi {
    }
    +interface CardSelectionRequestSpi {
        ...
    }
    +interface CardRequestSpi {
        ...
    }
    +interface ApduRequestSpi {
        ...
    }
}
package "org.eclipse.keyple.core.service.resource.spi" as cardResourceSpi {
    +interface CardResourceProfileExtension {
        ...
    }
}

package "org.eclipse.keyple.card.xxx (specific extension)" as specificExtension {
    +class "**final** xxxCardExtension" as xxxCardExtension implements KeypleCardExtension {
        - -
        +{static} xxxCardExtension getInstance ()
        ..
        +xxxCardSelection createXxxCardSelection ()
        ...
    }
    +interface xxxCardSelection extends CardSelection {
        ...
    }
    +interface xxxSmartCard extends SmartCard {
        ...
    }
    ~class "**final** xxxCardResourceProfileExtension" as xxxCardResourceProfileExtension implements CardResourceProfileExtension {
        ...
    }
    together {
    ~class "**final** CardSelectionAdapter" as CardSelectionAdapter implements xxxCardSelection, CardSelectionSpi {
        ...
    }
    ~class "**final** CardSelectorAdapter" as CardSelectorAdapter implements CardSelectorSpi {
        ...
    }
    ~class "**final** SmartCardAdapter" as SmartCardAdapter implements xxxSmartCard, SmartCardSpi {
        ...
    }
    }
    together {
    ~class "**final** CardSelectionRequestAdapter" as CardSelectionRequestAdapter implements CardSelectionRequestSpi {
        ...
    }
    ~class "**final** CardRequestAdapter" as CardRequestAdapter implements CardRequestSpi {
        ...
    }
    ~class "**final** ApduRequestAdapter" as ApduRequestAdapter implements ApduRequestSpi {
        ...
    }
    }
}


xxxCardExtension .right.> xxxCardSelection #3498DB : provide >


xxxCardSelection -[hidden]- SmartCardAdapter
CardSelectorAdapter -[hidden]- CardSelectorSpi
SmartCardAdapter -[hidden]- SmartCardSpi
CardSelectionAdapter -[hidden]- CardSelectionSpi
CardSelectionAdapter .[hidden]left.> CardSelectorAdapter

SmartCardAdapter -[hidden]right- CardSelectionRequestAdapter

CardSelectionRequestAdapter -[hidden]- CardSelectionRequestSpi
CardRequestAdapter -[hidden]- CardRequestSpi
ApduRequestAdapter -[hidden]- ApduRequestSpi


package commonsApi #F8F9F9 {}
package specificExtension #F8F9F9 {}
package cardSpi #F8F9F9 {}
package readerSelectionSpi #F8F9F9 {}
package cardResourceSpi #F8F9F9 {}

class CardSelectionAdapter <<blue>>
class CardSelectorAdapter <<blue>>
class SmartCardAdapter <<blue>>
class CardSelectionRequestAdapter <<blue>>
class CardRequestAdapter <<blue>>
class ApduRequestAdapter <<blue>>
interface CardSelectionSpi <<blue>>
interface CardSelectorSpi <<blue>>
interface SmartCardSpi <<blue>>
interface CardSelectionRequestSpi <<blue>>
interface CardRequestSpi <<blue>>
interface ApduRequestSpi <<blue>>

@enduml

PlantUML version 1.2021.7(Sun May 23 14:40:07 CEST 2021)
(GPL source distribution)
Java Runtime: OpenJDK Runtime Environment
JVM: Dynamic Code Evolution 64-Bit Server VM
Default Encoding: Cp1252
Language: fr
Country: FR
--></g></svg>