<?xml version="1.0" encoding="UTF-8" standalone="no"?><svg xmlns="http://www.w3.org/2000/svg" xmlns:xlink="http://www.w3.org/1999/xlink" contentScriptType="application/ecmascript" contentStyleType="text/css" height="1520px" preserveAspectRatio="none" style="width:2187px;height:1520px;" version="1.1" viewBox="0 0 2187 1520" width="2187.5px" zoomAndPan="magnify"><defs/><g><text fill="#000000" font-family="sans-serif" font-size="45" lengthAdjust="spacing" textLength="1122.5" x="516.25" y="46.7139">Keyple 2.0 - Specific Remote Plugin - 2.0.0 (08/03/2021)</text><!--MD5=[621c849533070c5aba8aa732369aa9f8]
cluster commonsApi--><polygon fill="#F8F9F9" points="412.5,71.6016,997.5,71.6016,1015,130.625,2145,130.625,2145,361.6016,412.5,361.6016,412.5,71.6016" style="stroke:#000000;stroke-width:3.75;"/><line style="stroke:#000000;stroke-width:3.75;" x1="412.5" x2="1015" y1="130.625" y2="130.625"/><text fill="#000000" font-family="sans-serif" font-size="35" font-weight="bold" lengthAdjust="spacing" textLength="570" x="422.5" y="112.9346">org.eclipse.keyple.core.common</text><!--MD5=[6cb19e7d8351e03571d64db4601c3623]
cluster pluginSpi--><polygon fill="#F8F9F9" points="367.5,1219.1016,1195,1219.1016,1212.5,1278.125,1787.5,1278.125,1787.5,1504.1016,367.5,1504.1016,367.5,1219.1016" style="stroke:#000000;stroke-width:3.75;"/><line style="stroke:#000000;stroke-width:3.75;" x1="367.5" x2="1212.5" y1="1278.125" y2="1278.125"/><text fill="#000000" font-family="sans-serif" font-size="35" font-weight="bold" lengthAdjust="spacing" textLength="812.5" x="377.5" y="1260.4346">org.eclipse.keyple.core.distributed.remote.spi</text><!--MD5=[f4079738657ebf8f47a9de3e76e08740]
cluster specificPluginApi--><polygon fill="#F8F9F9" points="40,484.1016,860,484.1016,877.5,543.125,1915,543.125,1915,1116.6016,40,1116.6016,40,484.1016" style="stroke:#000000;stroke-width:3.75;"/><line style="stroke:#000000;stroke-width:3.75;" x1="40" x2="877.5" y1="543.125" y2="543.125"/><text fill="#000000" font-family="sans-serif" font-size="35" font-weight="bold" lengthAdjust="spacing" textLength="805" x="50" y="525.4346">org.eclipse.keyple.plugin.xxx (specific plugin)</text><!--MD5=[c9fcbc22b46e6fe8dd529abbe4ed4a83]
class KeyplePluginExtensionFactory--><rect codeLine="48" fill="#FEFECE" height="120" id="KeyplePluginExtensionFactory" style="stroke:#D4AC0D;stroke-width:3.75;" width="525" x="520" y="181.6016"/><ellipse cx="557.5" cy="221.6016" fill="#B4A7E5" rx="27.5" ry="27.5" style="stroke:#B4A7E5;stroke-width:2.5;"/><path d="M560,214.1016 L560,229.1016 L565,229.1016 L566.2109,229.1016 L567.5,230.6641 L567.5,231.6016 L567.5,232.5391 L566.2109,234.1016 L565,234.1016 L550,234.1016 L548.7891,234.1016 L547.5,232.5391 L547.5,231.6016 L547.5,230.6641 L548.7891,229.1016 L550,229.1016 L555,229.1016 L555,214.1016 L550,214.1016 L548.7891,214.1016 L547.5,212.5391 L547.5,211.6016 L547.5,210.6641 L548.7891,209.1016 L550,209.1016 L565,209.1016 L566.2109,209.1016 L567.5,210.6641 L567.5,211.6016 L567.5,212.5391 L566.2109,214.1016 L565,214.1016 L560,214.1016 Z " fill="#000000"/><ellipse cx="605" cy="220.3516" fill="#84BE84" rx="7.5" ry="7.5" style="stroke:#038048;stroke-width:2.5;"/><text fill="#000000" font-family="sans-serif" font-size="30" font-style="italic" lengthAdjust="spacing" textLength="417.5" x="620" y="233.877">KeyplePluginExtensionFactory</text><line style="stroke:#D4AC0D;stroke-width:3.75;" x1="522.5" x2="1042.5" y1="261.6016" y2="261.6016"/><line style="stroke:#D4AC0D;stroke-width:3.75;" x1="522.5" x2="1042.5" y1="281.6016" y2="281.6016"/><!--MD5=[afffbc881b1d922900a05d5f1575661b]
class KeyplePluginExtension--><rect codeLine="50" fill="#FEFECE" height="120" id="KeyplePluginExtension" style="stroke:#D4AC0D;stroke-width:3.75;" width="425" x="1132.5" y="181.6016"/><ellipse cx="1170" cy="221.6016" fill="#B4A7E5" rx="27.5" ry="27.5" style="stroke:#B4A7E5;stroke-width:2.5;"/><path d="M1172.5,214.1016 L1172.5,229.1016 L1177.5,229.1016 L1178.7109,229.1016 L1180,230.6641 L1180,231.6016 L1180,232.5391 L1178.7109,234.1016 L1177.5,234.1016 L1162.5,234.1016 L1161.2891,234.1016 L1160,232.5391 L1160,231.6016 L1160,230.6641 L1161.2891,229.1016 L1162.5,229.1016 L1167.5,229.1016 L1167.5,214.1016 L1162.5,214.1016 L1161.2891,214.1016 L1160,212.5391 L1160,211.6016 L1160,210.6641 L1161.2891,209.1016 L1162.5,209.1016 L1177.5,209.1016 L1178.7109,209.1016 L1180,210.6641 L1180,211.6016 L1180,212.5391 L1178.7109,214.1016 L1177.5,214.1016 L1172.5,214.1016 Z " fill="#000000"/><ellipse cx="1217.5" cy="220.3516" fill="#84BE84" rx="7.5" ry="7.5" style="stroke:#038048;stroke-width:2.5;"/><text fill="#000000" font-family="sans-serif" font-size="30" font-style="italic" lengthAdjust="spacing" textLength="317.5" x="1232.5" y="233.877">KeyplePluginExtension</text><line style="stroke:#D4AC0D;stroke-width:3.75;" x1="1135" x2="1555" y1="261.6016" y2="261.6016"/><line style="stroke:#D4AC0D;stroke-width:3.75;" x1="1135" x2="1555" y1="281.6016" y2="281.6016"/><!--MD5=[d0367e54e30269e1f6406d1a6d3c359c]
class KeypleReaderExtension--><rect codeLine="52" fill="#FEFECE" height="120" id="KeypleReaderExtension" style="stroke:#D4AC0D;stroke-width:3.75;" width="440" x="1645" y="181.6016"/><ellipse cx="1682.5" cy="221.6016" fill="#B4A7E5" rx="27.5" ry="27.5" style="stroke:#B4A7E5;stroke-width:2.5;"/><path d="M1685,214.1016 L1685,229.1016 L1690,229.1016 L1691.2109,229.1016 L1692.5,230.6641 L1692.5,231.6016 L1692.5,232.5391 L1691.2109,234.1016 L1690,234.1016 L1675,234.1016 L1673.7891,234.1016 L1672.5,232.5391 L1672.5,231.6016 L1672.5,230.6641 L1673.7891,229.1016 L1675,229.1016 L1680,229.1016 L1680,214.1016 L1675,214.1016 L1673.7891,214.1016 L1672.5,212.5391 L1672.5,211.6016 L1672.5,210.6641 L1673.7891,209.1016 L1675,209.1016 L1690,209.1016 L1691.2109,209.1016 L1692.5,210.6641 L1692.5,211.6016 L1692.5,212.5391 L1691.2109,214.1016 L1690,214.1016 L1685,214.1016 Z " fill="#000000"/><ellipse cx="1730" cy="220.3516" fill="#84BE84" rx="7.5" ry="7.5" style="stroke:#038048;stroke-width:2.5;"/><text fill="#000000" font-family="sans-serif" font-size="30" font-style="italic" lengthAdjust="spacing" textLength="332.5" x="1745" y="233.877">KeypleReaderExtension</text><line style="stroke:#D4AC0D;stroke-width:3.75;" x1="1647.5" x2="2082.5" y1="261.6016" y2="261.6016"/><line style="stroke:#D4AC0D;stroke-width:3.75;" x1="1647.5" x2="2082.5" y1="281.6016" y2="281.6016"/><!--MD5=[3937379067c1c7d1f35002e0ca836dbd]
class RemoteReaderSpi--><rect codeLine="115" fill="#EBF5FB" height="154.5898" id="RemoteReaderSpi" style="stroke:#3498DB;stroke-width:3.75;" width="365" x="1382.5" y="1309.1016"/><ellipse cx="1420" cy="1349.1016" fill="#B4A7E5" rx="27.5" ry="27.5" style="stroke:#B4A7E5;stroke-width:2.5;"/><path d="M1422.5,1341.6016 L1422.5,1356.6016 L1427.5,1356.6016 L1428.7109,1356.6016 L1430,1358.1641 L1430,1359.1016 L1430,1360.0391 L1428.7109,1361.6016 L1427.5,1361.6016 L1412.5,1361.6016 L1411.2891,1361.6016 L1410,1360.0391 L1410,1359.1016 L1410,1358.1641 L1411.2891,1356.6016 L1412.5,1356.6016 L1417.5,1356.6016 L1417.5,1341.6016 L1412.5,1341.6016 L1411.2891,1341.6016 L1410,1340.0391 L1410,1339.1016 L1410,1338.1641 L1411.2891,1336.6016 L1412.5,1336.6016 L1427.5,1336.6016 L1428.7109,1336.6016 L1430,1338.1641 L1430,1339.1016 L1430,1340.0391 L1428.7109,1341.6016 L1427.5,1341.6016 L1422.5,1341.6016 Z " fill="#000000"/><ellipse cx="1467.5" cy="1347.8516" fill="#84BE84" rx="7.5" ry="7.5" style="stroke:#038048;stroke-width:2.5;"/><text fill="#000000" font-family="sans-serif" font-size="30" font-style="italic" lengthAdjust="spacing" textLength="257.5" x="1482.5" y="1361.377">RemoteReaderSpi</text><line style="stroke:#3498DB;stroke-width:3.75;" x1="1385" x2="1745" y1="1389.1016" y2="1389.1016"/><text fill="#000000" font-family="sans-serif" font-size="27.5" lengthAdjust="spacing" textLength="22.5" x="1397.5" y="1427.6489">...</text><line style="stroke:#3498DB;stroke-width:3.75;" x1="1385" x2="1745" y1="1443.6914" y2="1443.6914"/><!--MD5=[733b899168be945616a1d8aa95c72981]
class RemotePluginSpi--><rect codeLine="116" fill="#EBF5FB" height="154.5898" id="RemotePluginSpi" style="stroke:#3498DB;stroke-width:3.75;" width="350" x="945" y="1309.1016"/><ellipse cx="982.5" cy="1349.1016" fill="#B4A7E5" rx="27.5" ry="27.5" style="stroke:#B4A7E5;stroke-width:2.5;"/><path d="M985,1341.6016 L985,1356.6016 L990,1356.6016 L991.2109,1356.6016 L992.5,1358.1641 L992.5,1359.1016 L992.5,1360.0391 L991.2109,1361.6016 L990,1361.6016 L975,1361.6016 L973.7891,1361.6016 L972.5,1360.0391 L972.5,1359.1016 L972.5,1358.1641 L973.7891,1356.6016 L975,1356.6016 L980,1356.6016 L980,1341.6016 L975,1341.6016 L973.7891,1341.6016 L972.5,1340.0391 L972.5,1339.1016 L972.5,1338.1641 L973.7891,1336.6016 L975,1336.6016 L990,1336.6016 L991.2109,1336.6016 L992.5,1338.1641 L992.5,1339.1016 L992.5,1340.0391 L991.2109,1341.6016 L990,1341.6016 L985,1341.6016 Z " fill="#000000"/><ellipse cx="1030" cy="1347.8516" fill="#84BE84" rx="7.5" ry="7.5" style="stroke:#038048;stroke-width:2.5;"/><text fill="#000000" font-family="sans-serif" font-size="30" font-style="italic" lengthAdjust="spacing" textLength="242.5" x="1045" y="1361.377">RemotePluginSpi</text><line style="stroke:#3498DB;stroke-width:3.75;" x1="947.5" x2="1292.5" y1="1389.1016" y2="1389.1016"/><text fill="#000000" font-family="sans-serif" font-size="27.5" lengthAdjust="spacing" textLength="22.5" x="960" y="1427.6489">...</text><line style="stroke:#3498DB;stroke-width:3.75;" x1="947.5" x2="1292.5" y1="1443.6914" y2="1443.6914"/><!--MD5=[c2370bc74128b93bd072b6f31e9991b0]
class RemotePluginFactorySpi--><rect codeLine="117" fill="#EBF5FB" height="154.5898" id="RemotePluginFactorySpi" style="stroke:#3498DB;stroke-width:3.75;" width="450" x="407.5" y="1309.1016"/><ellipse cx="445" cy="1349.1016" fill="#B4A7E5" rx="27.5" ry="27.5" style="stroke:#B4A7E5;stroke-width:2.5;"/><path d="M447.5,1341.6016 L447.5,1356.6016 L452.5,1356.6016 L453.7109,1356.6016 L455,1358.1641 L455,1359.1016 L455,1360.0391 L453.7109,1361.6016 L452.5,1361.6016 L437.5,1361.6016 L436.2891,1361.6016 L435,1360.0391 L435,1359.1016 L435,1358.1641 L436.2891,1356.6016 L437.5,1356.6016 L442.5,1356.6016 L442.5,1341.6016 L437.5,1341.6016 L436.2891,1341.6016 L435,1340.0391 L435,1339.1016 L435,1338.1641 L436.2891,1336.6016 L437.5,1336.6016 L452.5,1336.6016 L453.7109,1336.6016 L455,1338.1641 L455,1339.1016 L455,1340.0391 L453.7109,1341.6016 L452.5,1341.6016 L447.5,1341.6016 Z " fill="#000000"/><ellipse cx="492.5" cy="1347.8516" fill="#84BE84" rx="7.5" ry="7.5" style="stroke:#038048;stroke-width:2.5;"/><text fill="#000000" font-family="sans-serif" font-size="30" font-style="italic" lengthAdjust="spacing" textLength="342.5" x="507.5" y="1361.377">RemotePluginFactorySpi</text><line style="stroke:#3498DB;stroke-width:3.75;" x1="410" x2="855" y1="1389.1016" y2="1389.1016"/><text fill="#000000" font-family="sans-serif" font-size="27.5" lengthAdjust="spacing" textLength="22.5" x="422.5" y="1427.6489">...</text><line style="stroke:#3498DB;stroke-width:3.75;" x1="410" x2="855" y1="1443.6914" y2="1443.6914"/><!--MD5=[1face33f95ab6f90fa0596604ee72b61]
class xxxPluginFactoryBuilder--><rect codeLine="69" fill="#FEFECE" height="154.5898" id="xxxPluginFactoryBuilder" style="stroke:#D4AC0D;stroke-width:3.75;" width="505" x="147.5" y="594.1016"/><ellipse cx="185" cy="634.1016" fill="#ADD1B2" rx="27.5" ry="27.5" style="stroke:#ADD1B2;stroke-width:2.5;"/><path d="M190,625.3516 Q190.5078,624.1016 191.0938,623.4766 Q191.6797,622.8516 192.3438,622.8516 Q193.5156,622.8516 194.2578,623.5547 Q195,624.2578 195,625.8984 L195,629.8047 Q195,631.4453 194.2969,632.1484 Q193.5938,632.8516 192.5,632.8516 Q191.5234,632.8516 190.8984,632.4219 Q190.2734,631.9922 190,630.8594 Q189.8828,630.0781 189.4531,629.6484 Q188.6719,628.8281 187.2656,628.3594 Q185.8594,627.8516 184.4531,627.8516 Q182.6953,627.8516 181.2109,628.5547 Q179.7656,629.2578 178.6328,630.8203 Q177.5,632.3828 177.5,634.5313 L177.5,636.8359 Q177.5,639.4141 179.6094,641.1328 Q181.7188,642.8516 185.4688,642.8516 Q187.6953,642.8516 189.2578,642.3438 Q190.1563,642.0703 191.1719,641.1719 Q191.8359,640.6641 192.1875,640.5078 Q192.5391,640.3516 192.9688,640.3516 Q193.7891,640.3516 194.375,641.0156 Q195,641.6406 195,642.5391 Q195,643.3984 194.1406,644.4141 Q192.8906,645.8984 190.8984,646.7188 Q188.2813,647.8516 185.0781,647.8516 Q181.3281,647.8516 178.3203,646.3672 Q175.8984,645.1953 174.1797,642.6563 Q172.5,640.1172 172.5,637.1094 L172.5,634.375 Q172.5,631.25 173.9844,628.5156 Q175.5078,625.7813 178.125,624.3359 Q180.7813,622.8516 183.75,622.8516 Q185.5469,622.8516 187.1094,623.4766 Q188.6719,624.1016 190,625.3516 Z " fill="#000000"/><ellipse cx="232.5" cy="632.8516" fill="#84BE84" rx="7.5" ry="7.5" style="stroke:#038048;stroke-width:2.5;"/><text fill="#000000" font-family="sans-serif" font-size="30" font-style="italic" font-weight="bold" lengthAdjust="spacing" textLength="60" x="247.5" y="646.377">final</text><text fill="#000000" font-family="sans-serif" font-size="30" font-style="italic" lengthAdjust="spacing" textLength="330" x="315" y="646.377">xxxPluginFactoryBuilder</text><line style="stroke:#D4AC0D;stroke-width:3.75;" x1="150" x2="650" y1="674.1016" y2="674.1016"/><line style="stroke:#D4AC0D;stroke-width:3.75;" x1="150" x2="650" y1="694.1016" y2="694.1016"/><ellipse cx="175" cy="721.6016" fill="#84BE84" rx="7.5" ry="7.5" style="stroke:#038048;stroke-width:2.5;"/><text fill="#000000" font-family="sans-serif" font-size="27.5" lengthAdjust="spacing" text-decoration="underline" textLength="372.5" x="197.5" y="732.6489">xxxPluginFactory getFactory ()</text><!--MD5=[fed7f4caaf0512ced7ad550cc1121374]
class xxxPluginFactory--><rect codeLine="72" fill="#FEFECE" height="154.5898" id="xxxPluginFactory" style="stroke:#D4AC0D;stroke-width:3.75;" width="340" x="845" y="594.1016"/><ellipse cx="882.5" cy="634.1016" fill="#B4A7E5" rx="27.5" ry="27.5" style="stroke:#B4A7E5;stroke-width:2.5;"/><path d="M885,626.6016 L885,641.6016 L890,641.6016 L891.2109,641.6016 L892.5,643.1641 L892.5,644.1016 L892.5,645.0391 L891.2109,646.6016 L890,646.6016 L875,646.6016 L873.7891,646.6016 L872.5,645.0391 L872.5,644.1016 L872.5,643.1641 L873.7891,641.6016 L875,641.6016 L880,641.6016 L880,626.6016 L875,626.6016 L873.7891,626.6016 L872.5,625.0391 L872.5,624.1016 L872.5,623.1641 L873.7891,621.6016 L875,621.6016 L890,621.6016 L891.2109,621.6016 L892.5,623.1641 L892.5,624.1016 L892.5,625.0391 L891.2109,626.6016 L890,626.6016 L885,626.6016 Z " fill="#000000"/><ellipse cx="930" cy="632.8516" fill="#84BE84" rx="7.5" ry="7.5" style="stroke:#038048;stroke-width:2.5;"/><text fill="#000000" font-family="sans-serif" font-size="30" font-style="italic" lengthAdjust="spacing" textLength="232.5" x="945" y="646.377">xxxPluginFactory</text><line style="stroke:#D4AC0D;stroke-width:3.75;" x1="847.5" x2="1182.5" y1="674.1016" y2="674.1016"/><text fill="#000000" font-family="sans-serif" font-size="27.5" lengthAdjust="spacing" textLength="22.5" x="860" y="712.6489">...</text><line style="stroke:#D4AC0D;stroke-width:3.75;" x1="847.5" x2="1182.5" y1="728.6914" y2="728.6914"/><!--MD5=[b6595d9ff200fd5ee11228c478636e60]
class xxxPlugin--><rect codeLine="75" fill="#FEFECE" height="154.5898" id="xxxPlugin" style="stroke:#D4AC0D;stroke-width:3.75;" width="240" x="1272.5" y="594.1016"/><ellipse cx="1310" cy="634.1016" fill="#B4A7E5" rx="27.5" ry="27.5" style="stroke:#B4A7E5;stroke-width:2.5;"/><path d="M1312.5,626.6016 L1312.5,641.6016 L1317.5,641.6016 L1318.7109,641.6016 L1320,643.1641 L1320,644.1016 L1320,645.0391 L1318.7109,646.6016 L1317.5,646.6016 L1302.5,646.6016 L1301.2891,646.6016 L1300,645.0391 L1300,644.1016 L1300,643.1641 L1301.2891,641.6016 L1302.5,641.6016 L1307.5,641.6016 L1307.5,626.6016 L1302.5,626.6016 L1301.2891,626.6016 L1300,625.0391 L1300,624.1016 L1300,623.1641 L1301.2891,621.6016 L1302.5,621.6016 L1317.5,621.6016 L1318.7109,621.6016 L1320,623.1641 L1320,624.1016 L1320,625.0391 L1318.7109,626.6016 L1317.5,626.6016 L1312.5,626.6016 Z " fill="#000000"/><ellipse cx="1357.5" cy="632.8516" fill="#84BE84" rx="7.5" ry="7.5" style="stroke:#038048;stroke-width:2.5;"/><text fill="#000000" font-family="sans-serif" font-size="30" font-style="italic" lengthAdjust="spacing" textLength="132.5" x="1372.5" y="646.377">xxxPlugin</text><line style="stroke:#D4AC0D;stroke-width:3.75;" x1="1275" x2="1510" y1="674.1016" y2="674.1016"/><text fill="#000000" font-family="sans-serif" font-size="27.5" lengthAdjust="spacing" textLength="22.5" x="1287.5" y="712.6489">...</text><line style="stroke:#D4AC0D;stroke-width:3.75;" x1="1275" x2="1510" y1="728.6914" y2="728.6914"/><!--MD5=[03f21e7ee5cc95940abd9e7870696a6e]
class xxxReader--><rect codeLine="78" fill="#FEFECE" height="154.5898" id="xxxReader" style="stroke:#D4AC0D;stroke-width:3.75;" width="255" x="1600" y="594.1016"/><ellipse cx="1637.5" cy="634.1016" fill="#B4A7E5" rx="27.5" ry="27.5" style="stroke:#B4A7E5;stroke-width:2.5;"/><path d="M1640,626.6016 L1640,641.6016 L1645,641.6016 L1646.2109,641.6016 L1647.5,643.1641 L1647.5,644.1016 L1647.5,645.0391 L1646.2109,646.6016 L1645,646.6016 L1630,646.6016 L1628.7891,646.6016 L1627.5,645.0391 L1627.5,644.1016 L1627.5,643.1641 L1628.7891,641.6016 L1630,641.6016 L1635,641.6016 L1635,626.6016 L1630,626.6016 L1628.7891,626.6016 L1627.5,625.0391 L1627.5,624.1016 L1627.5,623.1641 L1628.7891,621.6016 L1630,621.6016 L1645,621.6016 L1646.2109,621.6016 L1647.5,623.1641 L1647.5,624.1016 L1647.5,625.0391 L1646.2109,626.6016 L1645,626.6016 L1640,626.6016 Z " fill="#000000"/><ellipse cx="1685" cy="632.8516" fill="#84BE84" rx="7.5" ry="7.5" style="stroke:#038048;stroke-width:2.5;"/><text fill="#000000" font-family="sans-serif" font-size="30" font-style="italic" lengthAdjust="spacing" textLength="147.5" x="1700" y="646.377">xxxReader</text><line style="stroke:#D4AC0D;stroke-width:3.75;" x1="1602.5" x2="1852.5" y1="674.1016" y2="674.1016"/><text fill="#000000" font-family="sans-serif" font-size="27.5" lengthAdjust="spacing" textLength="22.5" x="1615" y="712.6489">...</text><line style="stroke:#D4AC0D;stroke-width:3.75;" x1="1602.5" x2="1852.5" y1="728.6914" y2="728.6914"/><!--MD5=[d53123d7850983a38423ef8749767f29]
class xxxPluginFactoryAdapter--><rect codeLine="114" fill="#EBF5FB" height="154.5898" id="xxxPluginFactoryAdapter" style="stroke:#3498DB;stroke-width:3.75;" width="515" x="320" y="901.6016"/><ellipse cx="357.5" cy="941.6016" fill="#ADD1B2" rx="27.5" ry="27.5" style="stroke:#ADD1B2;stroke-width:2.5;"/><path d="M362.5,932.8516 Q363.0078,931.6016 363.5938,930.9766 Q364.1797,930.3516 364.8438,930.3516 Q366.0156,930.3516 366.7578,931.0547 Q367.5,931.7578 367.5,933.3984 L367.5,937.3047 Q367.5,938.9453 366.7969,939.6484 Q366.0938,940.3516 365,940.3516 Q364.0234,940.3516 363.3984,939.9219 Q362.7734,939.4922 362.5,938.3594 Q362.3828,937.5781 361.9531,937.1484 Q361.1719,936.3281 359.7656,935.8594 Q358.3594,935.3516 356.9531,935.3516 Q355.1953,935.3516 353.7109,936.0547 Q352.2656,936.7578 351.1328,938.3203 Q350,939.8828 350,942.0313 L350,944.3359 Q350,946.9141 352.1094,948.6328 Q354.2188,950.3516 357.9688,950.3516 Q360.1953,950.3516 361.7578,949.8438 Q362.6563,949.5703 363.6719,948.6719 Q364.3359,948.1641 364.6875,948.0078 Q365.0391,947.8516 365.4688,947.8516 Q366.2891,947.8516 366.875,948.5156 Q367.5,949.1406 367.5,950.0391 Q367.5,950.8984 366.6406,951.9141 Q365.3906,953.3984 363.3984,954.2188 Q360.7813,955.3516 357.5781,955.3516 Q353.8281,955.3516 350.8203,953.8672 Q348.3984,952.6953 346.6797,950.1563 Q345,947.6172 345,944.6094 L345,941.875 Q345,938.75 346.4844,936.0156 Q348.0078,933.2813 350.625,931.8359 Q353.2813,930.3516 356.25,930.3516 Q358.0469,930.3516 359.6094,930.9766 Q361.1719,931.6016 362.5,932.8516 Z " fill="#000000"/><polygon fill="#4177AF" points="405,930.3516,395,945.3516,415,945.3516" style="stroke:#1963A0;stroke-width:2.5;"/><text fill="#000000" font-family="sans-serif" font-size="30" font-style="italic" font-weight="bold" lengthAdjust="spacing" textLength="60" x="420" y="953.877">final</text><text fill="#000000" font-family="sans-serif" font-size="30" font-style="italic" lengthAdjust="spacing" textLength="340" x="487.5" y="953.877">xxxPluginFactoryAdapter</text><line style="stroke:#3498DB;stroke-width:3.75;" x1="322.5" x2="832.5" y1="981.6016" y2="981.6016"/><text fill="#000000" font-family="sans-serif" font-size="27.5" lengthAdjust="spacing" textLength="22.5" x="335" y="1020.1489">...</text><line style="stroke:#3498DB;stroke-width:3.75;" x1="322.5" x2="832.5" y1="1036.1914" y2="1036.1914"/><!--MD5=[8ece71be35db894bbdb7ce101967af56]
class xxxPluginAdapter--><rect codeLine="113" fill="#EBF5FB" height="154.5898" id="xxxPluginAdapter" style="stroke:#3498DB;stroke-width:3.75;" width="415" x="922.5" y="901.6016"/><ellipse cx="960" cy="941.6016" fill="#ADD1B2" rx="27.5" ry="27.5" style="stroke:#ADD1B2;stroke-width:2.5;"/><path d="M965,932.8516 Q965.5078,931.6016 966.0938,930.9766 Q966.6797,930.3516 967.3438,930.3516 Q968.5156,930.3516 969.2578,931.0547 Q970,931.7578 970,933.3984 L970,937.3047 Q970,938.9453 969.2969,939.6484 Q968.5938,940.3516 967.5,940.3516 Q966.5234,940.3516 965.8984,939.9219 Q965.2734,939.4922 965,938.3594 Q964.8828,937.5781 964.4531,937.1484 Q963.6719,936.3281 962.2656,935.8594 Q960.8594,935.3516 959.4531,935.3516 Q957.6953,935.3516 956.2109,936.0547 Q954.7656,936.7578 953.6328,938.3203 Q952.5,939.8828 952.5,942.0313 L952.5,944.3359 Q952.5,946.9141 954.6094,948.6328 Q956.7188,950.3516 960.4688,950.3516 Q962.6953,950.3516 964.2578,949.8438 Q965.1563,949.5703 966.1719,948.6719 Q966.8359,948.1641 967.1875,948.0078 Q967.5391,947.8516 967.9688,947.8516 Q968.7891,947.8516 969.375,948.5156 Q970,949.1406 970,950.0391 Q970,950.8984 969.1406,951.9141 Q967.8906,953.3984 965.8984,954.2188 Q963.2813,955.3516 960.0781,955.3516 Q956.3281,955.3516 953.3203,953.8672 Q950.8984,952.6953 949.1797,950.1563 Q947.5,947.6172 947.5,944.6094 L947.5,941.875 Q947.5,938.75 948.9844,936.0156 Q950.5078,933.2813 953.125,931.8359 Q955.7813,930.3516 958.75,930.3516 Q960.5469,930.3516 962.1094,930.9766 Q963.6719,931.6016 965,932.8516 Z " fill="#000000"/><polygon fill="#4177AF" points="1007.5,930.3516,997.5,945.3516,1017.5,945.3516" style="stroke:#1963A0;stroke-width:2.5;"/><text fill="#000000" font-family="sans-serif" font-size="30" font-style="italic" font-weight="bold" lengthAdjust="spacing" textLength="60" x="1022.5" y="953.877">final</text><text fill="#000000" font-family="sans-serif" font-size="30" font-style="italic" lengthAdjust="spacing" textLength="240" x="1090" y="953.877">xxxPluginAdapter</text><line style="stroke:#3498DB;stroke-width:3.75;" x1="925" x2="1335" y1="981.6016" y2="981.6016"/><text fill="#000000" font-family="sans-serif" font-size="27.5" lengthAdjust="spacing" textLength="22.5" x="937.5" y="1020.1489">...</text><line style="stroke:#3498DB;stroke-width:3.75;" x1="925" x2="1335" y1="1036.1914" y2="1036.1914"/><!--MD5=[07c06fae09c9cf5c6584283f7934f2e9]
class xxxReaderAdapter--><rect codeLine="112" fill="#EBF5FB" height="154.5898" id="xxxReaderAdapter" style="stroke:#3498DB;stroke-width:3.75;" width="430" x="1425" y="901.6016"/><ellipse cx="1462.5" cy="941.6016" fill="#ADD1B2" rx="27.5" ry="27.5" style="stroke:#ADD1B2;stroke-width:2.5;"/><path d="M1467.5,932.8516 Q1468.0078,931.6016 1468.5938,930.9766 Q1469.1797,930.3516 1469.8438,930.3516 Q1471.0156,930.3516 1471.7578,931.0547 Q1472.5,931.7578 1472.5,933.3984 L1472.5,937.3047 Q1472.5,938.9453 1471.7969,939.6484 Q1471.0938,940.3516 1470,940.3516 Q1469.0234,940.3516 1468.3984,939.9219 Q1467.7734,939.4922 1467.5,938.3594 Q1467.3828,937.5781 1466.9531,937.1484 Q1466.1719,936.3281 1464.7656,935.8594 Q1463.3594,935.3516 1461.9531,935.3516 Q1460.1953,935.3516 1458.7109,936.0547 Q1457.2656,936.7578 1456.1328,938.3203 Q1455,939.8828 1455,942.0313 L1455,944.3359 Q1455,946.9141 1457.1094,948.6328 Q1459.2188,950.3516 1462.9688,950.3516 Q1465.1953,950.3516 1466.7578,949.8438 Q1467.6563,949.5703 1468.6719,948.6719 Q1469.3359,948.1641 1469.6875,948.0078 Q1470.0391,947.8516 1470.4688,947.8516 Q1471.2891,947.8516 1471.875,948.5156 Q1472.5,949.1406 1472.5,950.0391 Q1472.5,950.8984 1471.6406,951.9141 Q1470.3906,953.3984 1468.3984,954.2188 Q1465.7813,955.3516 1462.5781,955.3516 Q1458.8281,955.3516 1455.8203,953.8672 Q1453.3984,952.6953 1451.6797,950.1563 Q1450,947.6172 1450,944.6094 L1450,941.875 Q1450,938.75 1451.4844,936.0156 Q1453.0078,933.2813 1455.625,931.8359 Q1458.2813,930.3516 1461.25,930.3516 Q1463.0469,930.3516 1464.6094,930.9766 Q1466.1719,931.6016 1467.5,932.8516 Z " fill="#000000"/><polygon fill="#4177AF" points="1510,930.3516,1500,945.3516,1520,945.3516" style="stroke:#1963A0;stroke-width:2.5;"/><text fill="#000000" font-family="sans-serif" font-size="30" font-style="italic" font-weight="bold" lengthAdjust="spacing" textLength="60" x="1525" y="953.877">final</text><text fill="#000000" font-family="sans-serif" font-size="30" font-style="italic" lengthAdjust="spacing" textLength="255" x="1592.5" y="953.877">xxxReaderAdapter</text><line style="stroke:#3498DB;stroke-width:3.75;" x1="1427.5" x2="1852.5" y1="981.6016" y2="981.6016"/><text fill="#000000" font-family="sans-serif" font-size="27.5" lengthAdjust="spacing" textLength="22.5" x="1440" y="1020.1489">...</text><line style="stroke:#3498DB;stroke-width:3.75;" x1="1427.5" x2="1852.5" y1="1036.1914" y2="1036.1914"/><!--MD5=[a197c206781717b4a594300115978dc2]
reverse link KeyplePluginExtensionFactory to xxxPluginFactory--><path d="M838.74,346.9066 C880.3875,423.0341 936.19,525.0416 973.7575,593.7116 " fill="none" id="KeyplePluginExtensionFactory-backto-xxxPluginFactory" style="stroke:#A80036;stroke-width:2.5;"/><polygon fill="none" points="822.985,354.5691,814.34,302.3041,853.69,337.7716,822.985,354.5691" style="stroke:#A80036;stroke-width:2.5;"/><!--MD5=[1feb98c6a67c5603dfb07d8bcca8af5c]
reverse link KeyplePluginExtension to xxxPlugin--><path d="M1357.1,352.3616 C1365.5375,427.8491 1376.58,526.6691 1384.075,593.7116 " fill="none" id="KeyplePluginExtension-backto-xxxPlugin" style="stroke:#A80036;stroke-width:2.5;"/><polygon fill="none" points="1339.6675,353.9391,1351.505,302.3041,1374.45,350.0516,1339.6675,353.9391" style="stroke:#A80036;stroke-width:2.5;"/><!--MD5=[0ab2d561ae8ab1eb55d58fc9385da973]
reverse link KeypleReaderExtension to xxxReader--><path d="M1830.685,350.1691 C1806.1725,425.9291 1773.7925,526.0166 1751.89,593.7116 " fill="none" id="KeypleReaderExtension-backto-xxxReader" style="stroke:#A80036;stroke-width:2.5;"/><polygon fill="none" points="1814.1275,344.4891,1846.17,302.3041,1847.4275,355.2641,1814.1275,344.4891" style="stroke:#A80036;stroke-width:2.5;"/><!--MD5=[a6f494627ac1f6d160b993f842e395ad]
reverse link xxxPluginFactory to xxxPluginFactoryAdapter--><path d="M864.59,778.0991 C805.9425,818.6491 740.0125,864.2366 686.135,901.4866 " fill="none" id="xxxPluginFactory-backto-xxxPluginFactoryAdapter" style="stroke:#A80036;stroke-width:2.5;stroke-dasharray:7.0,7.0;"/><polygon fill="none" points="854.65,763.6966,905.73,749.6541,874.555,792.4841,854.65,763.6966" style="stroke:#A80036;stroke-width:2.5;"/><!--MD5=[853d2f65f74c05f03e15538723aac8c7]
reverse link RemotePluginFactorySpi to xxxPluginFactoryAdapter--><path d="M615.4275,1259.1641 C606.3975,1193.0716 595.605,1114.0891 587.845,1057.3091 " fill="none" id="RemotePluginFactorySpi-backto-xxxPluginFactoryAdapter" style="stroke:#A80036;stroke-width:2.5;stroke-dasharray:7.0,7.0;"/><polygon fill="none" points="632.77,1256.8241,622.2025,1308.7338,598.0925,1261.5641,632.77,1256.8241" style="stroke:#A80036;stroke-width:2.5;"/><!--MD5=[56f8be8360d3a9cf41ab28f3b669e0f5]
link xxxPluginFactoryAdapter to RemotePluginFactorySpi--><!--MD5=[271deee5782a9355c6bea53129dbee95]
reverse link xxxPlugin to xxxPluginAdapter--><path d="M1294.11,787.4841 C1261.2275,825.3791 1225.4,866.6641 1195.6375,900.9641 " fill="none" id="xxxPlugin-backto-xxxPluginAdapter" style="stroke:#A80036;stroke-width:2.5;stroke-dasharray:7.0,7.0;"/><polygon fill="none" points="1280.95,775.9491,1326.9375,749.6541,1307.385,798.8891,1280.95,775.9491" style="stroke:#A80036;stroke-width:2.5;"/><!--MD5=[364e9c4e9858fb1340b2b4c4e56706a0]
reverse link RemotePluginSpi to xxxPluginAdapter--><path d="M1123.1275,1258.1816 C1124.765,1192.2891 1126.715,1113.8091 1128.12,1057.3091 " fill="none" id="RemotePluginSpi-backto-xxxPluginAdapter" style="stroke:#A80036;stroke-width:2.5;stroke-dasharray:7.0,7.0;"/><polygon fill="none" points="1140.61,1259.1841,1121.8725,1308.7338,1105.62,1258.3141,1140.61,1259.1841" style="stroke:#A80036;stroke-width:2.5;"/><!--MD5=[1d19fedf6ba45db993f3e692666ca626]
link xxxPluginAdapter to RemotePluginSpi--><!--MD5=[bc8081b56b498a2c8419014c1c2cae76]
reverse link xxxReader to xxxReaderAdapter--><path d="M1691.565,798.3366 C1681.4975,833.1391 1670.86,869.9116 1661.88,900.9641 " fill="none" id="xxxReader-backto-xxxReaderAdapter" style="stroke:#A80036;stroke-width:2.5;stroke-dasharray:7.0,7.0;"/><polygon fill="none" points="1674.9425,792.8241,1705.645,749.6541,1708.5625,802.5491,1674.9425,792.8241" style="stroke:#A80036;stroke-width:2.5;"/><!--MD5=[7a5d15de137ab20765148895b700334e]
reverse link RemoteReaderSpi to xxxReaderAdapter--><path d="M1588.28,1259.1641 C1600.595,1193.0716 1615.3125,1114.0891 1625.8925,1057.3091 " fill="none" id="RemoteReaderSpi-backto-xxxReaderAdapter" style="stroke:#A80036;stroke-width:2.5;stroke-dasharray:7.0,7.0;"/><polygon fill="none" points="1605.4075,1262.7866,1579.0425,1308.7338,1571,1256.3741,1605.4075,1262.7866" style="stroke:#A80036;stroke-width:2.5;"/><!--MD5=[6417678a62de6f5d626d04e7d040aa68]
link xxxReaderAdapter to RemoteReaderSpi--><!--MD5=[af37a3f114dfb3b0226d7938e3911566]
link xxxPluginFactoryBuilder to xxxPluginFactory--><path codeLine="95" d="M652.8075,671.6016 C712.8675,671.6016 775.805,671.6016 832.0525,671.6016 " fill="none" id="xxxPluginFactoryBuilder-to-xxxPluginFactory" style="stroke:#27AE60;stroke-width:2.5;stroke-dasharray:7.0,7.0;"/><polygon fill="#27AE60" points="844.695,671.6016,822.195,661.6016,832.195,671.6016,822.195,681.6016,844.695,671.6016" style="stroke:#27AE60;stroke-width:2.5;"/><polygon fill="#000000" points="721.25,642.041,698.6373,634.6937,698.6373,649.3883,721.25,642.041" style="stroke:#000000;stroke-width:2.5;"/><text fill="#000000" font-family="sans-serif" font-size="32.5" lengthAdjust="spacing" textLength="67.5" x="731.25" y="655.3394">build</text><!--MD5=[f12a7db843c52300ea996d5d7ce2d1a4]
reverse link xxxPluginFactoryAdapter to xxxPluginAdapter--><path codeLine="96" d="M868.445,979.1016 C886.2,979.1016 903.9575,979.1016 921.7125,979.1016 " fill="none" id="xxxPluginFactoryAdapter-backto-xxxPluginAdapter" style="stroke:#3498DB;stroke-width:2.5;"/><polygon fill="#3498DB" points="835.405,979.1016,850.405,989.1016,865.405,979.1016,850.405,969.1016,835.405,979.1016" style="stroke:#3498DB;stroke-width:2.5;"/><text fill="#000000" font-family="sans-serif" font-size="32.5" lengthAdjust="spacing" textLength="17.5" x="884.8826" y="971.1155">1</text><!--MD5=[bf2e205f614f249ca537db048d149975]
reverse link xxxPluginAdapter to xxxReaderAdapter--><path codeLine="97" d="M1371.13,979.1016 C1388.8375,979.1016 1406.5425,979.1016 1424.2475,979.1016 " fill="none" id="xxxPluginAdapter-backto-xxxReaderAdapter" style="stroke:#3498DB;stroke-width:2.5;"/><polygon fill="#3498DB" points="1338.1825,979.1016,1353.1825,989.1016,1368.1825,979.1016,1353.1825,969.1016,1338.1825,979.1016" style="stroke:#3498DB;stroke-width:2.5;"/><text fill="#000000" font-family="sans-serif" font-size="32.5" lengthAdjust="spacing" textLength="60" x="1344.6641" y="971.297">0..N</text><!--MD5=[582bb027a136a6e6186f17ef7f8e0db6]
link commonsApi to specificPluginApi--><!--MD5=[57697da6dd488f2f07fdb40a3540a658]
@startuml
title
    Keyple 2.0 - Specific Remote Plugin - 2.0.0 (08/03/2021)
end title

' == THEME ==

'Couleurs issues de : https://htmlcolorcodes.com/fr/tableau-de-couleur/tableau-de-couleur-design-plat/
!define C_GREY1 F8F9F9
!define C_GREY2 F2F3F4
!define C_GREY3 E5E7E9
!define C_GREY4 D7DBDD
!define C_GREY5 CACFD2
!define C_GREY6 BDC3C7
!define C_LINK 3498DB
!define C_USE 27AE60

skinparam Shadowing false
skinparam ClassFontStyle italic
skinparam ClassBorderColor #D4AC0D
skinparam stereotypeABorderColor #A9DCDF
skinparam stereotypeIBorderColor #B4A7E5
skinparam stereotypeCBorderColor #ADD1B2
skinparam stereotypeEBorderColor #EB93DF
' Red
skinparam ClassBackgroundColor<<red>> #FDEDEC
skinparam ClassBorderColor<<red>> #E74C3C
hide <<red>> stereotype
' Purple
skinparam ClassBackgroundColor<<purple>> #F4ECF7
skinparam ClassBorderColor<<purple>> #8E44AD
hide <<purple>> stereotype
' blue
skinparam ClassBackgroundColor<<blue>> #EBF5FB
skinparam ClassBorderColor<<blue>> #3498DB
hide <<blue>> stereotype
' Green
skinparam ClassBackgroundColor<<green>> #E9F7EF
skinparam ClassBorderColor<<green>> #27AE60
hide <<green>> stereotype
' Grey
skinparam ClassBackgroundColor<<grey>> #EAECEE
skinparam ClassBorderColor<<grey>> #2C3E50
hide <<grey>> stereotype

' == CONTENT ==

package "org.eclipse.keyple.core.common" as commonsApi {
    +interface KeyplePluginExtensionFactory {
    }
    +interface KeyplePluginExtension {
    }
    +interface KeypleReaderExtension {
    }
}

package "org.eclipse.keyple.core.distributed.remote.spi" as pluginSpi {
    +interface RemoteReaderSpi {
        ...
    }
    +interface RemotePluginSpi {
        ...
    }
    +interface RemotePluginFactorySpi {
        ...
    }
}

package "org.eclipse.keyple.plugin.xxx (specific plugin)" as specificPluginApi {
    +class "**final** xxxPluginFactoryBuilder" as xxxPluginFactoryBuilder {
        +{static} xxxPluginFactory getFactory ()
    }
    +interface xxxPluginFactory extends KeyplePluginExtensionFactory {
        ...
    }
    +interface xxxPlugin extends KeyplePluginExtension {
        ...
    }
    +interface xxxReader extends KeypleReaderExtension {
        ...
    }
    ' Adapters
    ~class "**final** xxxPluginFactoryAdapter" as xxxPluginFactoryAdapter implements xxxPluginFactory, RemotePluginFactorySpi {
        ...
    }
    ~class "**final** xxxPluginAdapter" as xxxPluginAdapter implements xxxPlugin, RemotePluginSpi {
        ...
    }
    ~class "**final** xxxReaderAdapter" as xxxReaderAdapter implements xxxReader, RemoteReaderSpi {
        ...
    }
}

' Associations

xxxPluginFactoryBuilder .> xxxPluginFactory #C_USE : build >
xxxPluginFactoryAdapter *- "1" xxxPluginAdapter #C_LINK
xxxPluginAdapter *- "0..N" xxxReaderAdapter #C_LINK

' == LAYOUT ==

commonsApi -[hidden]- specificPluginApi
xxxReaderAdapter -[hidden]- RemoteReaderSpi
xxxPluginAdapter -[hidden]- RemotePluginSpi
xxxPluginFactoryAdapter -[hidden]- RemotePluginFactorySpi

' == STYLE ==

package commonsApi #C_GREY1 {}
package pluginSpi #C_GREY1 {}
package specificPluginApi #C_GREY1 {}

class xxxReaderAdapter <<blue>>
class xxxPluginAdapter <<blue>>
class xxxPluginFactoryAdapter <<blue>>
interface RemoteReaderSpi <<blue>>
interface RemotePluginSpi <<blue>>
interface RemotePluginFactorySpi <<blue>>

@enduml

@startuml
title
    Keyple 2.0 - Specific Remote Plugin - 2.0.0 (08/03/2021)
end title



skinparam Shadowing false
skinparam ClassFontStyle italic
skinparam ClassBorderColor #D4AC0D
skinparam stereotypeABorderColor #A9DCDF
skinparam stereotypeIBorderColor #B4A7E5
skinparam stereotypeCBorderColor #ADD1B2
skinparam stereotypeEBorderColor #EB93DF
skinparam ClassBackgroundColor<<red>> #FDEDEC
skinparam ClassBorderColor<<red>> #E74C3C
hide <<red>> stereotype
skinparam ClassBackgroundColor<<purple>> #F4ECF7
skinparam ClassBorderColor<<purple>> #8E44AD
hide <<purple>> stereotype
skinparam ClassBackgroundColor<<blue>> #EBF5FB
skinparam ClassBorderColor<<blue>> #3498DB
hide <<blue>> stereotype
skinparam ClassBackgroundColor<<green>> #E9F7EF
skinparam ClassBorderColor<<green>> #27AE60
hide <<green>> stereotype
skinparam ClassBackgroundColor<<grey>> #EAECEE
skinparam ClassBorderColor<<grey>> #2C3E50
hide <<grey>> stereotype


package "org.eclipse.keyple.core.common" as commonsApi {
    +interface KeyplePluginExtensionFactory {
    }
    +interface KeyplePluginExtension {
    }
    +interface KeypleReaderExtension {
    }
}

package "org.eclipse.keyple.core.distributed.remote.spi" as pluginSpi {
    +interface RemoteReaderSpi {
        ...
    }
    +interface RemotePluginSpi {
        ...
    }
    +interface RemotePluginFactorySpi {
        ...
    }
}

package "org.eclipse.keyple.plugin.xxx (specific plugin)" as specificPluginApi {
    +class "**final** xxxPluginFactoryBuilder" as xxxPluginFactoryBuilder {
        +{static} xxxPluginFactory getFactory ()
    }
    +interface xxxPluginFactory extends KeyplePluginExtensionFactory {
        ...
    }
    +interface xxxPlugin extends KeyplePluginExtension {
        ...
    }
    +interface xxxReader extends KeypleReaderExtension {
        ...
    }
    ~class "**final** xxxPluginFactoryAdapter" as xxxPluginFactoryAdapter implements xxxPluginFactory, RemotePluginFactorySpi {
        ...
    }
    ~class "**final** xxxPluginAdapter" as xxxPluginAdapter implements xxxPlugin, RemotePluginSpi {
        ...
    }
    ~class "**final** xxxReaderAdapter" as xxxReaderAdapter implements xxxReader, RemoteReaderSpi {
        ...
    }
}


xxxPluginFactoryBuilder .> xxxPluginFactory #27AE60 : build >
xxxPluginFactoryAdapter *- "1" xxxPluginAdapter #3498DB
xxxPluginAdapter *- "0..N" xxxReaderAdapter #3498DB


commonsApi -[hidden]- specificPluginApi
xxxReaderAdapter -[hidden]- RemoteReaderSpi
xxxPluginAdapter -[hidden]- RemotePluginSpi
xxxPluginFactoryAdapter -[hidden]- RemotePluginFactorySpi


package commonsApi #F8F9F9 {}
package pluginSpi #F8F9F9 {}
package specificPluginApi #F8F9F9 {}

class xxxReaderAdapter <<blue>>
class xxxPluginAdapter <<blue>>
class xxxPluginFactoryAdapter <<blue>>
interface RemoteReaderSpi <<blue>>
interface RemotePluginSpi <<blue>>
interface RemotePluginFactorySpi <<blue>>

@enduml

PlantUML version 1.2021.01(Tue Feb 02 08:55:08 CET 2021)
(GPL source distribution)
Java Runtime: OpenJDK Runtime Environment
JVM: OpenJDK 64-Bit Server VM
Default Encoding: Cp1252
Language: fr
Country: FR
--></g></svg>