<?xml version="1.0" encoding="UTF-8" standalone="no"?><svg xmlns="http://www.w3.org/2000/svg" xmlns:xlink="http://www.w3.org/1999/xlink" contentScriptType="application/ecmascript" contentStyleType="text/css" height="2060px" preserveAspectRatio="none" style="width:3842px;height:2060px;" version="1.1" viewBox="0 0 3842 2060" width="3842.5px" zoomAndPan="magnify"><defs/><g><text fill="#000000" font-family="sans-serif" font-size="45" lengthAdjust="spacing" textLength="1135" x="1337.5" y="46.7139">Keyple 2.0 - Specific Card Extension - 2.0.0 (19/02/2021)</text><!--MD5=[621c849533070c5aba8aa732369aa9f8]
cluster commonsApi--><polygon fill="#F8F9F9" points="1680,71.6016,2265,71.6016,2282.5,130.625,3790,130.625,3790,371.6016,1680,371.6016,1680,71.6016" style="stroke:#000000;stroke-width:3.75;"/><line style="stroke:#000000;stroke-width:3.75;" x1="1680" x2="2282.5" y1="130.625" y2="130.625"/><text fill="#000000" font-family="sans-serif" font-size="35" font-weight="bold" lengthAdjust="spacing" textLength="570" x="1690" y="112.9346">org.eclipse.keyple.core.common</text><!--MD5=[1713dcaf7bcd1f6045401bf8106829bd]
cluster serviceSelectionSpi--><polygon fill="#F2F3F4" points="1897.5,454.1016,2702.5,454.1016,2720,513.125,3002.5,513.125,3002.5,789.1016,1897.5,789.1016,1897.5,454.1016" style="stroke:#000000;stroke-width:3.75;"/><line style="stroke:#000000;stroke-width:3.75;" x1="1897.5" x2="2720" y1="513.125" y2="513.125"/><text fill="#000000" font-family="sans-serif" font-size="35" font-weight="bold" lengthAdjust="spacing" textLength="790" x="1907.5" y="495.4346">org.eclipse.keyple.core.service.selection.spi</text><!--MD5=[a17c93d7e125af4ebdd10ac0c519bd24]
cluster cardSpi--><polygon fill="#F8F9F9" points="1412.5,1709.1016,1990,1709.1016,2007.5,1768.125,3337.5,1768.125,3337.5,2044.1016,1412.5,2044.1016,1412.5,1709.1016" style="stroke:#000000;stroke-width:3.75;"/><line style="stroke:#000000;stroke-width:3.75;" x1="1412.5" x2="2007.5" y1="1768.125" y2="1768.125"/><text fill="#000000" font-family="sans-serif" font-size="35" font-weight="bold" lengthAdjust="spacing" textLength="562.5" x="1422.5" y="1750.4346">org.eclipse.keyple.core.card.spi</text><!--MD5=[d3c8ee72d6c013b9a0ff8b73b18ac396]
cluster specificExtension--><polygon fill="#F8F9F9" points="40,914.1016,892.5,914.1016,910,973.125,3800,973.125,3800,1626.6016,40,1626.6016,40,914.1016" style="stroke:#000000;stroke-width:3.75;"/><line style="stroke:#000000;stroke-width:3.75;" x1="40" x2="910" y1="973.125" y2="973.125"/><text fill="#000000" font-family="sans-serif" font-size="35" font-weight="bold" lengthAdjust="spacing" textLength="837.5" x="50" y="955.4346">org.eclipse.keyple.card.xxx (specific extension)</text><!--MD5=[93835d7ffcf6a3787bfc7eb02bc099b1]
class KeypleCardExtension--><rect codeLine="48" fill="#FEFECE" height="120" id="KeypleCardExtension" style="stroke:#D4AC0D;stroke-width:3.75;" width="405" x="1720" y="211.6016"/><ellipse cx="1757.5" cy="251.6016" fill="#B4A7E5" rx="27.5" ry="27.5" style="stroke:#B4A7E5;stroke-width:2.5;"/><path d="M1760,244.1016 L1760,259.1016 L1765,259.1016 L1766.2109,259.1016 L1767.5,260.6641 L1767.5,261.6016 L1767.5,262.5391 L1766.2109,264.1016 L1765,264.1016 L1750,264.1016 L1748.7891,264.1016 L1747.5,262.5391 L1747.5,261.6016 L1747.5,260.6641 L1748.7891,259.1016 L1750,259.1016 L1755,259.1016 L1755,244.1016 L1750,244.1016 L1748.7891,244.1016 L1747.5,242.5391 L1747.5,241.6016 L1747.5,240.6641 L1748.7891,239.1016 L1750,239.1016 L1765,239.1016 L1766.2109,239.1016 L1767.5,240.6641 L1767.5,241.6016 L1767.5,242.5391 L1766.2109,244.1016 L1765,244.1016 L1760,244.1016 Z " fill="#000000"/><ellipse cx="1805" cy="250.3516" fill="#84BE84" rx="7.5" ry="7.5" style="stroke:#038048;stroke-width:2.5;"/><text fill="#000000" font-family="sans-serif" font-size="30" font-style="italic" lengthAdjust="spacing" textLength="297.5" x="1820" y="263.877">KeypleCardExtension</text><line style="stroke:#D4AC0D;stroke-width:3.75;" x1="1722.5" x2="2122.5" y1="291.6016" y2="291.6016"/><line style="stroke:#D4AC0D;stroke-width:3.75;" x1="1722.5" x2="2122.5" y1="311.6016" y2="311.6016"/><!--MD5=[beb44669502072071023f5a0a635d64f]
class KeypleSmartCard--><rect codeLine="50" fill="#FEFECE" height="120" id="KeypleSmartCard" style="stroke:#D4AC0D;stroke-width:3.75;" width="352.5" x="2213.75" y="211.6016"/><ellipse cx="2251.25" cy="251.6016" fill="#B4A7E5" rx="27.5" ry="27.5" style="stroke:#B4A7E5;stroke-width:2.5;"/><path d="M2253.75,244.1016 L2253.75,259.1016 L2258.75,259.1016 L2259.9609,259.1016 L2261.25,260.6641 L2261.25,261.6016 L2261.25,262.5391 L2259.9609,264.1016 L2258.75,264.1016 L2243.75,264.1016 L2242.5391,264.1016 L2241.25,262.5391 L2241.25,261.6016 L2241.25,260.6641 L2242.5391,259.1016 L2243.75,259.1016 L2248.75,259.1016 L2248.75,244.1016 L2243.75,244.1016 L2242.5391,244.1016 L2241.25,242.5391 L2241.25,241.6016 L2241.25,240.6641 L2242.5391,239.1016 L2243.75,239.1016 L2258.75,239.1016 L2259.9609,239.1016 L2261.25,240.6641 L2261.25,241.6016 L2261.25,242.5391 L2259.9609,244.1016 L2258.75,244.1016 L2253.75,244.1016 Z " fill="#000000"/><ellipse cx="2298.75" cy="250.3516" fill="#84BE84" rx="7.5" ry="7.5" style="stroke:#038048;stroke-width:2.5;"/><text fill="#000000" font-family="sans-serif" font-size="30" font-style="italic" lengthAdjust="spacing" textLength="245" x="2313.75" y="263.877">KeypleSmartCard</text><line style="stroke:#D4AC0D;stroke-width:3.75;" x1="2216.25" x2="2563.75" y1="291.6016" y2="291.6016"/><line style="stroke:#D4AC0D;stroke-width:3.75;" x1="2216.25" x2="2563.75" y1="311.6016" y2="311.6016"/><!--MD5=[992e355e37ebedcd3769e1f8c146b434]
class KeypleCardSelector--><rect codeLine="52" fill="#FEFECE" height="120" id="KeypleCardSelector" style="stroke:#D4AC0D;stroke-width:3.75;" width="382.5" x="2653.75" y="211.6016"/><ellipse cx="2691.25" cy="251.6016" fill="#B4A7E5" rx="27.5" ry="27.5" style="stroke:#B4A7E5;stroke-width:2.5;"/><path d="M2693.75,244.1016 L2693.75,259.1016 L2698.75,259.1016 L2699.9609,259.1016 L2701.25,260.6641 L2701.25,261.6016 L2701.25,262.5391 L2699.9609,264.1016 L2698.75,264.1016 L2683.75,264.1016 L2682.5391,264.1016 L2681.25,262.5391 L2681.25,261.6016 L2681.25,260.6641 L2682.5391,259.1016 L2683.75,259.1016 L2688.75,259.1016 L2688.75,244.1016 L2683.75,244.1016 L2682.5391,244.1016 L2681.25,242.5391 L2681.25,241.6016 L2681.25,240.6641 L2682.5391,239.1016 L2683.75,239.1016 L2698.75,239.1016 L2699.9609,239.1016 L2701.25,240.6641 L2701.25,241.6016 L2701.25,242.5391 L2699.9609,244.1016 L2698.75,244.1016 L2693.75,244.1016 Z " fill="#000000"/><ellipse cx="2738.75" cy="250.3516" fill="#84BE84" rx="7.5" ry="7.5" style="stroke:#038048;stroke-width:2.5;"/><text fill="#000000" font-family="sans-serif" font-size="30" font-style="italic" lengthAdjust="spacing" textLength="275" x="2753.75" y="263.877">KeypleCardSelector</text><line style="stroke:#D4AC0D;stroke-width:3.75;" x1="2656.25" x2="3033.75" y1="291.6016" y2="291.6016"/><line style="stroke:#D4AC0D;stroke-width:3.75;" x1="2656.25" x2="3033.75" y1="311.6016" y2="311.6016"/><!--MD5=[c2d32fe8441dbc20026bf98036040c09]
class KeypleCardResourceProfileExtension--><rect codeLine="54" fill="#FEFECE" height="120" id="KeypleCardResourceProfileExtension" style="stroke:#D4AC0D;stroke-width:3.75;" width="625" x="3125" y="211.6016"/><ellipse cx="3162.5" cy="251.6016" fill="#B4A7E5" rx="27.5" ry="27.5" style="stroke:#B4A7E5;stroke-width:2.5;"/><path d="M3165,244.1016 L3165,259.1016 L3170,259.1016 L3171.2109,259.1016 L3172.5,260.6641 L3172.5,261.6016 L3172.5,262.5391 L3171.2109,264.1016 L3170,264.1016 L3155,264.1016 L3153.7891,264.1016 L3152.5,262.5391 L3152.5,261.6016 L3152.5,260.6641 L3153.7891,259.1016 L3155,259.1016 L3160,259.1016 L3160,244.1016 L3155,244.1016 L3153.7891,244.1016 L3152.5,242.5391 L3152.5,241.6016 L3152.5,240.6641 L3153.7891,239.1016 L3155,239.1016 L3170,239.1016 L3171.2109,239.1016 L3172.5,240.6641 L3172.5,241.6016 L3172.5,242.5391 L3171.2109,244.1016 L3170,244.1016 L3165,244.1016 Z " fill="#000000"/><ellipse cx="3210" cy="250.3516" fill="#84BE84" rx="7.5" ry="7.5" style="stroke:#038048;stroke-width:2.5;"/><text fill="#000000" font-family="sans-serif" font-size="30" font-style="italic" lengthAdjust="spacing" textLength="517.5" x="3225" y="263.877">KeypleCardResourceProfileExtension</text><line style="stroke:#D4AC0D;stroke-width:3.75;" x1="3127.5" x2="3747.5" y1="291.6016" y2="291.6016"/><line style="stroke:#D4AC0D;stroke-width:3.75;" x1="3127.5" x2="3747.5" y1="311.6016" y2="311.6016"/><!--MD5=[47f0011813555fb489a606ff84d44b55]
class CardSelection--><rect codeLine="58" fill="#FEFECE" height="154.5898" id="CardSelection" style="stroke:#D4AC0D;stroke-width:3.75;" width="302.5" x="1938.75" y="594.1016"/><ellipse cx="1976.25" cy="634.1016" fill="#B4A7E5" rx="27.5" ry="27.5" style="stroke:#B4A7E5;stroke-width:2.5;"/><path d="M1978.75,626.6016 L1978.75,641.6016 L1983.75,641.6016 L1984.9609,641.6016 L1986.25,643.1641 L1986.25,644.1016 L1986.25,645.0391 L1984.9609,646.6016 L1983.75,646.6016 L1968.75,646.6016 L1967.5391,646.6016 L1966.25,645.0391 L1966.25,644.1016 L1966.25,643.1641 L1967.5391,641.6016 L1968.75,641.6016 L1973.75,641.6016 L1973.75,626.6016 L1968.75,626.6016 L1967.5391,626.6016 L1966.25,625.0391 L1966.25,624.1016 L1966.25,623.1641 L1967.5391,621.6016 L1968.75,621.6016 L1983.75,621.6016 L1984.9609,621.6016 L1986.25,623.1641 L1986.25,624.1016 L1986.25,625.0391 L1984.9609,626.6016 L1983.75,626.6016 L1978.75,626.6016 Z " fill="#000000"/><ellipse cx="2023.75" cy="632.8516" fill="#84BE84" rx="7.5" ry="7.5" style="stroke:#038048;stroke-width:2.5;"/><text fill="#000000" font-family="sans-serif" font-size="30" font-style="italic" lengthAdjust="spacing" textLength="195" x="2038.75" y="646.377">CardSelection</text><line style="stroke:#D4AC0D;stroke-width:3.75;" x1="1941.25" x2="2238.75" y1="674.1016" y2="674.1016"/><text fill="#000000" font-family="sans-serif" font-size="27.5" lengthAdjust="spacing" textLength="22.5" x="1953.75" y="712.6489">...</text><line style="stroke:#D4AC0D;stroke-width:3.75;" x1="1941.25" x2="2238.75" y1="728.6914" y2="728.6914"/><!--MD5=[4d4351d1dd1d596b03b4778d9849998b]
class SmartCard--><rect codeLine="61" fill="#FEFECE" height="154.5898" id="SmartCard" style="stroke:#D4AC0D;stroke-width:3.75;" width="257.5" x="2328.75" y="594.1016"/><ellipse cx="2366.25" cy="634.1016" fill="#B4A7E5" rx="27.5" ry="27.5" style="stroke:#B4A7E5;stroke-width:2.5;"/><path d="M2368.75,626.6016 L2368.75,641.6016 L2373.75,641.6016 L2374.9609,641.6016 L2376.25,643.1641 L2376.25,644.1016 L2376.25,645.0391 L2374.9609,646.6016 L2373.75,646.6016 L2358.75,646.6016 L2357.5391,646.6016 L2356.25,645.0391 L2356.25,644.1016 L2356.25,643.1641 L2357.5391,641.6016 L2358.75,641.6016 L2363.75,641.6016 L2363.75,626.6016 L2358.75,626.6016 L2357.5391,626.6016 L2356.25,625.0391 L2356.25,624.1016 L2356.25,623.1641 L2357.5391,621.6016 L2358.75,621.6016 L2373.75,621.6016 L2374.9609,621.6016 L2376.25,623.1641 L2376.25,624.1016 L2376.25,625.0391 L2374.9609,626.6016 L2373.75,626.6016 L2368.75,626.6016 Z " fill="#000000"/><ellipse cx="2413.75" cy="632.8516" fill="#84BE84" rx="7.5" ry="7.5" style="stroke:#038048;stroke-width:2.5;"/><text fill="#000000" font-family="sans-serif" font-size="30" font-style="italic" lengthAdjust="spacing" textLength="150" x="2428.75" y="646.377">SmartCard</text><line style="stroke:#D4AC0D;stroke-width:3.75;" x1="2331.25" x2="2583.75" y1="674.1016" y2="674.1016"/><text fill="#000000" font-family="sans-serif" font-size="27.5" lengthAdjust="spacing" textLength="22.5" x="2343.75" y="712.6489">...</text><line style="stroke:#D4AC0D;stroke-width:3.75;" x1="2331.25" x2="2583.75" y1="728.6914" y2="728.6914"/><!--MD5=[d172dfe3fef1c01713438c88abcc6a2c]
class CardSelector--><rect codeLine="64" fill="#FEFECE" height="154.5898" id="CardSelector" style="stroke:#D4AC0D;stroke-width:3.75;" width="287.5" x="2673.75" y="594.1016"/><ellipse cx="2711.25" cy="634.1016" fill="#ADD1B2" rx="27.5" ry="27.5" style="stroke:#ADD1B2;stroke-width:2.5;"/><path d="M2716.25,625.3516 Q2716.7578,624.1016 2717.3438,623.4766 Q2717.9297,622.8516 2718.5938,622.8516 Q2719.7656,622.8516 2720.5078,623.5547 Q2721.25,624.2578 2721.25,625.8984 L2721.25,629.8047 Q2721.25,631.4453 2720.5469,632.1484 Q2719.8438,632.8516 2718.75,632.8516 Q2717.7734,632.8516 2717.1484,632.4219 Q2716.5234,631.9922 2716.25,630.8594 Q2716.1328,630.0781 2715.7031,629.6484 Q2714.9219,628.8281 2713.5156,628.3594 Q2712.1094,627.8516 2710.7031,627.8516 Q2708.9453,627.8516 2707.4609,628.5547 Q2706.0156,629.2578 2704.8828,630.8203 Q2703.75,632.3828 2703.75,634.5313 L2703.75,636.8359 Q2703.75,639.4141 2705.8594,641.1328 Q2707.9688,642.8516 2711.7188,642.8516 Q2713.9453,642.8516 2715.5078,642.3438 Q2716.4063,642.0703 2717.4219,641.1719 Q2718.0859,640.6641 2718.4375,640.5078 Q2718.7891,640.3516 2719.2188,640.3516 Q2720.0391,640.3516 2720.625,641.0156 Q2721.25,641.6406 2721.25,642.5391 Q2721.25,643.3984 2720.3906,644.4141 Q2719.1406,645.8984 2717.1484,646.7188 Q2714.5313,647.8516 2711.3281,647.8516 Q2707.5781,647.8516 2704.5703,646.3672 Q2702.1484,645.1953 2700.4297,642.6563 Q2698.75,640.1172 2698.75,637.1094 L2698.75,634.375 Q2698.75,631.25 2700.2344,628.5156 Q2701.7578,625.7813 2704.375,624.3359 Q2707.0313,622.8516 2710,622.8516 Q2711.7969,622.8516 2713.3594,623.4766 Q2714.9219,624.1016 2716.25,625.3516 Z " fill="#000000"/><ellipse cx="2758.75" cy="632.8516" fill="#84BE84" rx="7.5" ry="7.5" style="stroke:#038048;stroke-width:2.5;"/><text fill="#000000" font-family="sans-serif" font-size="30" font-style="italic" lengthAdjust="spacing" textLength="180" x="2773.75" y="646.377">CardSelector</text><line style="stroke:#D4AC0D;stroke-width:3.75;" x1="2676.25" x2="2958.75" y1="674.1016" y2="674.1016"/><text fill="#000000" font-family="sans-serif" font-size="27.5" lengthAdjust="spacing" textLength="22.5" x="2688.75" y="712.6489">...</text><line style="stroke:#D4AC0D;stroke-width:3.75;" x1="2676.25" x2="2958.75" y1="728.6914" y2="728.6914"/><!--MD5=[266955a256f69cd9e8835259646fbe13]
class CardExtensionSpi--><rect codeLine="146" fill="#EBF5FB" height="154.5898" id="CardExtensionSpi" style="stroke:#3498DB;stroke-width:3.75;" width="355" x="1452.5" y="1849.1016"/><ellipse cx="1490" cy="1889.1016" fill="#B4A7E5" rx="27.5" ry="27.5" style="stroke:#B4A7E5;stroke-width:2.5;"/><path d="M1492.5,1881.6016 L1492.5,1896.6016 L1497.5,1896.6016 L1498.7109,1896.6016 L1500,1898.1641 L1500,1899.1016 L1500,1900.0391 L1498.7109,1901.6016 L1497.5,1901.6016 L1482.5,1901.6016 L1481.2891,1901.6016 L1480,1900.0391 L1480,1899.1016 L1480,1898.1641 L1481.2891,1896.6016 L1482.5,1896.6016 L1487.5,1896.6016 L1487.5,1881.6016 L1482.5,1881.6016 L1481.2891,1881.6016 L1480,1880.0391 L1480,1879.1016 L1480,1878.1641 L1481.2891,1876.6016 L1482.5,1876.6016 L1497.5,1876.6016 L1498.7109,1876.6016 L1500,1878.1641 L1500,1879.1016 L1500,1880.0391 L1498.7109,1881.6016 L1497.5,1881.6016 L1492.5,1881.6016 Z " fill="#000000"/><ellipse cx="1537.5" cy="1887.8516" fill="#84BE84" rx="7.5" ry="7.5" style="stroke:#038048;stroke-width:2.5;"/><text fill="#000000" font-family="sans-serif" font-size="30" font-style="italic" lengthAdjust="spacing" textLength="247.5" x="1552.5" y="1901.377">CardExtensionSpi</text><line style="stroke:#3498DB;stroke-width:3.75;" x1="1455" x2="1805" y1="1929.1016" y2="1929.1016"/><text fill="#000000" font-family="sans-serif" font-size="27.5" lengthAdjust="spacing" textLength="22.5" x="1467.5" y="1967.6489">...</text><line style="stroke:#3498DB;stroke-width:3.75;" x1="1455" x2="1805" y1="1983.6914" y2="1983.6914"/><!--MD5=[e210ee7b55cb4fcef849a017d68619f7]
class CardSelectionSpi--><rect codeLine="147" fill="#EBF5FB" height="154.5898" id="CardSelectionSpi" style="stroke:#3498DB;stroke-width:3.75;" width="347.5" x="1896.25" y="1849.1016"/><ellipse cx="1933.75" cy="1889.1016" fill="#B4A7E5" rx="27.5" ry="27.5" style="stroke:#B4A7E5;stroke-width:2.5;"/><path d="M1936.25,1881.6016 L1936.25,1896.6016 L1941.25,1896.6016 L1942.4609,1896.6016 L1943.75,1898.1641 L1943.75,1899.1016 L1943.75,1900.0391 L1942.4609,1901.6016 L1941.25,1901.6016 L1926.25,1901.6016 L1925.0391,1901.6016 L1923.75,1900.0391 L1923.75,1899.1016 L1923.75,1898.1641 L1925.0391,1896.6016 L1926.25,1896.6016 L1931.25,1896.6016 L1931.25,1881.6016 L1926.25,1881.6016 L1925.0391,1881.6016 L1923.75,1880.0391 L1923.75,1879.1016 L1923.75,1878.1641 L1925.0391,1876.6016 L1926.25,1876.6016 L1941.25,1876.6016 L1942.4609,1876.6016 L1943.75,1878.1641 L1943.75,1879.1016 L1943.75,1880.0391 L1942.4609,1881.6016 L1941.25,1881.6016 L1936.25,1881.6016 Z " fill="#000000"/><ellipse cx="1981.25" cy="1887.8516" fill="#84BE84" rx="7.5" ry="7.5" style="stroke:#038048;stroke-width:2.5;"/><text fill="#000000" font-family="sans-serif" font-size="30" font-style="italic" lengthAdjust="spacing" textLength="240" x="1996.25" y="1901.377">CardSelectionSpi</text><line style="stroke:#3498DB;stroke-width:3.75;" x1="1898.75" x2="2241.25" y1="1929.1016" y2="1929.1016"/><text fill="#000000" font-family="sans-serif" font-size="27.5" lengthAdjust="spacing" textLength="22.5" x="1911.25" y="1967.6489">...</text><line style="stroke:#3498DB;stroke-width:3.75;" x1="1898.75" x2="2241.25" y1="1983.6914" y2="1983.6914"/><!--MD5=[c089e258773b765d812cd5d8bc232f90]
class SmartCardSpi--><rect codeLine="148" fill="#EBF5FB" height="120" id="SmartCardSpi" style="stroke:#3498DB;stroke-width:3.75;" width="302.5" x="2331.25" y="1866.6016"/><ellipse cx="2368.75" cy="1906.6016" fill="#B4A7E5" rx="27.5" ry="27.5" style="stroke:#B4A7E5;stroke-width:2.5;"/><path d="M2371.25,1899.1016 L2371.25,1914.1016 L2376.25,1914.1016 L2377.4609,1914.1016 L2378.75,1915.6641 L2378.75,1916.6016 L2378.75,1917.5391 L2377.4609,1919.1016 L2376.25,1919.1016 L2361.25,1919.1016 L2360.0391,1919.1016 L2358.75,1917.5391 L2358.75,1916.6016 L2358.75,1915.6641 L2360.0391,1914.1016 L2361.25,1914.1016 L2366.25,1914.1016 L2366.25,1899.1016 L2361.25,1899.1016 L2360.0391,1899.1016 L2358.75,1897.5391 L2358.75,1896.6016 L2358.75,1895.6641 L2360.0391,1894.1016 L2361.25,1894.1016 L2376.25,1894.1016 L2377.4609,1894.1016 L2378.75,1895.6641 L2378.75,1896.6016 L2378.75,1897.5391 L2377.4609,1899.1016 L2376.25,1899.1016 L2371.25,1899.1016 Z " fill="#000000"/><ellipse cx="2416.25" cy="1905.3516" fill="#84BE84" rx="7.5" ry="7.5" style="stroke:#038048;stroke-width:2.5;"/><text fill="#000000" font-family="sans-serif" font-size="30" font-style="italic" lengthAdjust="spacing" textLength="195" x="2431.25" y="1918.877">SmartCardSpi</text><line style="stroke:#3498DB;stroke-width:3.75;" x1="2333.75" x2="2631.25" y1="1946.6016" y2="1946.6016"/><line style="stroke:#3498DB;stroke-width:3.75;" x1="2333.75" x2="2631.25" y1="1966.6016" y2="1966.6016"/><!--MD5=[38786a1b53b5c21082cda59a8f9072b9]
class CardResourceProfileExtensionSpi--><rect codeLine="149" fill="#EBF5FB" height="154.5898" id="CardResourceProfileExtensionSpi" style="stroke:#3498DB;stroke-width:3.75;" width="575" x="2722.5" y="1849.1016"/><ellipse cx="2760" cy="1889.1016" fill="#B4A7E5" rx="27.5" ry="27.5" style="stroke:#B4A7E5;stroke-width:2.5;"/><path d="M2762.5,1881.6016 L2762.5,1896.6016 L2767.5,1896.6016 L2768.7109,1896.6016 L2770,1898.1641 L2770,1899.1016 L2770,1900.0391 L2768.7109,1901.6016 L2767.5,1901.6016 L2752.5,1901.6016 L2751.2891,1901.6016 L2750,1900.0391 L2750,1899.1016 L2750,1898.1641 L2751.2891,1896.6016 L2752.5,1896.6016 L2757.5,1896.6016 L2757.5,1881.6016 L2752.5,1881.6016 L2751.2891,1881.6016 L2750,1880.0391 L2750,1879.1016 L2750,1878.1641 L2751.2891,1876.6016 L2752.5,1876.6016 L2767.5,1876.6016 L2768.7109,1876.6016 L2770,1878.1641 L2770,1879.1016 L2770,1880.0391 L2768.7109,1881.6016 L2767.5,1881.6016 L2762.5,1881.6016 Z " fill="#000000"/><ellipse cx="2807.5" cy="1887.8516" fill="#84BE84" rx="7.5" ry="7.5" style="stroke:#038048;stroke-width:2.5;"/><text fill="#000000" font-family="sans-serif" font-size="30" font-style="italic" lengthAdjust="spacing" textLength="467.5" x="2822.5" y="1901.377">CardResourceProfileExtensionSpi</text><line style="stroke:#3498DB;stroke-width:3.75;" x1="2725" x2="3295" y1="1929.1016" y2="1929.1016"/><text fill="#000000" font-family="sans-serif" font-size="27.5" lengthAdjust="spacing" textLength="22.5" x="2737.5" y="1967.6489">...</text><line style="stroke:#3498DB;stroke-width:3.75;" x1="2725" x2="3295" y1="1983.6914" y2="1983.6914"/><!--MD5=[a2ed65e0079a0161934ea6561d4ec942]
class xxxCardExtensionProvider--><rect codeLine="83" fill="#FEFECE" height="154.5898" id="xxxCardExtensionProvider" style="stroke:#D4AC0D;stroke-width:3.75;" width="537.5" x="81.25" y="1089.1016"/><ellipse cx="118.75" cy="1129.1016" fill="#ADD1B2" rx="27.5" ry="27.5" style="stroke:#ADD1B2;stroke-width:2.5;"/><path d="M123.75,1120.3516 Q124.2578,1119.1016 124.8438,1118.4766 Q125.4297,1117.8516 126.0938,1117.8516 Q127.2656,1117.8516 128.0078,1118.5547 Q128.75,1119.2578 128.75,1120.8984 L128.75,1124.8047 Q128.75,1126.4453 128.0469,1127.1484 Q127.3438,1127.8516 126.25,1127.8516 Q125.2734,1127.8516 124.6484,1127.4219 Q124.0234,1126.9922 123.75,1125.8594 Q123.6328,1125.0781 123.2031,1124.6484 Q122.4219,1123.8281 121.0156,1123.3594 Q119.6094,1122.8516 118.2031,1122.8516 Q116.4453,1122.8516 114.9609,1123.5547 Q113.5156,1124.2578 112.3828,1125.8203 Q111.25,1127.3828 111.25,1129.5313 L111.25,1131.8359 Q111.25,1134.4141 113.3594,1136.1328 Q115.4688,1137.8516 119.2188,1137.8516 Q121.4453,1137.8516 123.0078,1137.3438 Q123.9063,1137.0703 124.9219,1136.1719 Q125.5859,1135.6641 125.9375,1135.5078 Q126.2891,1135.3516 126.7188,1135.3516 Q127.5391,1135.3516 128.125,1136.0156 Q128.75,1136.6406 128.75,1137.5391 Q128.75,1138.3984 127.8906,1139.4141 Q126.6406,1140.8984 124.6484,1141.7188 Q122.0313,1142.8516 118.8281,1142.8516 Q115.0781,1142.8516 112.0703,1141.3672 Q109.6484,1140.1953 107.9297,1137.6563 Q106.25,1135.1172 106.25,1132.1094 L106.25,1129.375 Q106.25,1126.25 107.7344,1123.5156 Q109.2578,1120.7813 111.875,1119.3359 Q114.5313,1117.8516 117.5,1117.8516 Q119.2969,1117.8516 120.8594,1118.4766 Q122.4219,1119.1016 123.75,1120.3516 Z " fill="#000000"/><ellipse cx="166.25" cy="1127.8516" fill="#84BE84" rx="7.5" ry="7.5" style="stroke:#038048;stroke-width:2.5;"/><text fill="#000000" font-family="sans-serif" font-size="30" font-style="italic" font-weight="bold" lengthAdjust="spacing" textLength="60" x="181.25" y="1141.377">final</text><text fill="#000000" font-family="sans-serif" font-size="30" font-style="italic" lengthAdjust="spacing" textLength="362.5" x="248.75" y="1141.377">xxxCardExtensionProvider</text><line style="stroke:#D4AC0D;stroke-width:3.75;" x1="83.75" x2="616.25" y1="1169.1016" y2="1169.1016"/><line style="stroke:#D4AC0D;stroke-width:3.75;" x1="83.75" x2="616.25" y1="1189.1016" y2="1189.1016"/><ellipse cx="108.75" cy="1216.6016" fill="#84BE84" rx="7.5" ry="7.5" style="stroke:#038048;stroke-width:2.5;"/><text fill="#000000" font-family="sans-serif" font-size="27.5" lengthAdjust="spacing" text-decoration="underline" textLength="385" x="131.25" y="1227.6489">xxxCardExtension getService ()</text><!--MD5=[840dca342d2e2f3185b16a9f6795b3c6]
class xxxSmartCard--><rect codeLine="86" fill="#FEFECE" height="154.5898" id="xxxSmartCard" style="stroke:#D4AC0D;stroke-width:3.75;" width="302.5" x="2306.25" y="1089.1016"/><ellipse cx="2343.75" cy="1129.1016" fill="#B4A7E5" rx="27.5" ry="27.5" style="stroke:#B4A7E5;stroke-width:2.5;"/><path d="M2346.25,1121.6016 L2346.25,1136.6016 L2351.25,1136.6016 L2352.4609,1136.6016 L2353.75,1138.1641 L2353.75,1139.1016 L2353.75,1140.0391 L2352.4609,1141.6016 L2351.25,1141.6016 L2336.25,1141.6016 L2335.0391,1141.6016 L2333.75,1140.0391 L2333.75,1139.1016 L2333.75,1138.1641 L2335.0391,1136.6016 L2336.25,1136.6016 L2341.25,1136.6016 L2341.25,1121.6016 L2336.25,1121.6016 L2335.0391,1121.6016 L2333.75,1120.0391 L2333.75,1119.1016 L2333.75,1118.1641 L2335.0391,1116.6016 L2336.25,1116.6016 L2351.25,1116.6016 L2352.4609,1116.6016 L2353.75,1118.1641 L2353.75,1119.1016 L2353.75,1120.0391 L2352.4609,1121.6016 L2351.25,1121.6016 L2346.25,1121.6016 Z " fill="#000000"/><ellipse cx="2391.25" cy="1127.8516" fill="#84BE84" rx="7.5" ry="7.5" style="stroke:#038048;stroke-width:2.5;"/><text fill="#000000" font-family="sans-serif" font-size="30" font-style="italic" lengthAdjust="spacing" textLength="195" x="2406.25" y="1141.377">xxxSmartCard</text><line style="stroke:#D4AC0D;stroke-width:3.75;" x1="2308.75" x2="2606.25" y1="1169.1016" y2="1169.1016"/><text fill="#000000" font-family="sans-serif" font-size="27.5" lengthAdjust="spacing" textLength="22.5" x="2321.25" y="1207.6489">...</text><line style="stroke:#D4AC0D;stroke-width:3.75;" x1="2308.75" x2="2606.25" y1="1223.6914" y2="1223.6914"/><!--MD5=[b9ed339c1442abfa795cdfa9e9a9d6e3]
class xxxCardResourceProfileExtension--><rect codeLine="89" fill="#FEFECE" height="154.5898" id="xxxCardResourceProfileExtension" style="stroke:#D4AC0D;stroke-width:3.75;" width="575" x="3185" y="1089.1016"/><ellipse cx="3222.5" cy="1129.1016" fill="#B4A7E5" rx="27.5" ry="27.5" style="stroke:#B4A7E5;stroke-width:2.5;"/><path d="M3225,1121.6016 L3225,1136.6016 L3230,1136.6016 L3231.2109,1136.6016 L3232.5,1138.1641 L3232.5,1139.1016 L3232.5,1140.0391 L3231.2109,1141.6016 L3230,1141.6016 L3215,1141.6016 L3213.7891,1141.6016 L3212.5,1140.0391 L3212.5,1139.1016 L3212.5,1138.1641 L3213.7891,1136.6016 L3215,1136.6016 L3220,1136.6016 L3220,1121.6016 L3215,1121.6016 L3213.7891,1121.6016 L3212.5,1120.0391 L3212.5,1119.1016 L3212.5,1118.1641 L3213.7891,1116.6016 L3215,1116.6016 L3230,1116.6016 L3231.2109,1116.6016 L3232.5,1118.1641 L3232.5,1119.1016 L3232.5,1120.0391 L3231.2109,1121.6016 L3230,1121.6016 L3225,1121.6016 Z " fill="#000000"/><ellipse cx="3270" cy="1127.8516" fill="#84BE84" rx="7.5" ry="7.5" style="stroke:#038048;stroke-width:2.5;"/><text fill="#000000" font-family="sans-serif" font-size="30" font-style="italic" lengthAdjust="spacing" textLength="467.5" x="3285" y="1141.377">xxxCardResourceProfileExtension</text><line style="stroke:#D4AC0D;stroke-width:3.75;" x1="3187.5" x2="3757.5" y1="1169.1016" y2="1169.1016"/><text fill="#000000" font-family="sans-serif" font-size="27.5" lengthAdjust="spacing" textLength="22.5" x="3200" y="1207.6489">...</text><line style="stroke:#D4AC0D;stroke-width:3.75;" x1="3187.5" x2="3757.5" y1="1223.6914" y2="1223.6914"/><!--MD5=[96c12fe999c27355c48f5d6d4eb4d00c]
class xxxCardSelection--><rect codeLine="92" fill="#FEFECE" height="154.5898" id="xxxCardSelection" style="stroke:#D4AC0D;stroke-width:3.75;" width="347.5" x="1871.25" y="1089.1016"/><ellipse cx="1908.75" cy="1129.1016" fill="#B4A7E5" rx="27.5" ry="27.5" style="stroke:#B4A7E5;stroke-width:2.5;"/><path d="M1911.25,1121.6016 L1911.25,1136.6016 L1916.25,1136.6016 L1917.4609,1136.6016 L1918.75,1138.1641 L1918.75,1139.1016 L1918.75,1140.0391 L1917.4609,1141.6016 L1916.25,1141.6016 L1901.25,1141.6016 L1900.0391,1141.6016 L1898.75,1140.0391 L1898.75,1139.1016 L1898.75,1138.1641 L1900.0391,1136.6016 L1901.25,1136.6016 L1906.25,1136.6016 L1906.25,1121.6016 L1901.25,1121.6016 L1900.0391,1121.6016 L1898.75,1120.0391 L1898.75,1119.1016 L1898.75,1118.1641 L1900.0391,1116.6016 L1901.25,1116.6016 L1916.25,1116.6016 L1917.4609,1116.6016 L1918.75,1118.1641 L1918.75,1119.1016 L1918.75,1120.0391 L1917.4609,1121.6016 L1916.25,1121.6016 L1911.25,1121.6016 Z " fill="#000000"/><ellipse cx="1956.25" cy="1127.8516" fill="#84BE84" rx="7.5" ry="7.5" style="stroke:#038048;stroke-width:2.5;"/><text fill="#000000" font-family="sans-serif" font-size="30" font-style="italic" lengthAdjust="spacing" textLength="240" x="1971.25" y="1141.377">xxxCardSelection</text><line style="stroke:#D4AC0D;stroke-width:3.75;" x1="1873.75" x2="2216.25" y1="1169.1016" y2="1169.1016"/><text fill="#000000" font-family="sans-serif" font-size="27.5" lengthAdjust="spacing" textLength="22.5" x="1886.25" y="1207.6489">...</text><line style="stroke:#D4AC0D;stroke-width:3.75;" x1="1873.75" x2="2216.25" y1="1223.6914" y2="1223.6914"/><!--MD5=[ae929fe69c881de7fe1da2c6010f3e4d]
class xxxCardSelector--><rect codeLine="95" fill="#FEFECE" height="154.5898" id="xxxCardSelector" style="stroke:#D4AC0D;stroke-width:3.75;" width="400" x="2697.5" y="1089.1016"/><ellipse cx="2735" cy="1129.1016" fill="#ADD1B2" rx="27.5" ry="27.5" style="stroke:#ADD1B2;stroke-width:2.5;"/><path d="M2740,1120.3516 Q2740.5078,1119.1016 2741.0938,1118.4766 Q2741.6797,1117.8516 2742.3438,1117.8516 Q2743.5156,1117.8516 2744.2578,1118.5547 Q2745,1119.2578 2745,1120.8984 L2745,1124.8047 Q2745,1126.4453 2744.2969,1127.1484 Q2743.5938,1127.8516 2742.5,1127.8516 Q2741.5234,1127.8516 2740.8984,1127.4219 Q2740.2734,1126.9922 2740,1125.8594 Q2739.8828,1125.0781 2739.4531,1124.6484 Q2738.6719,1123.8281 2737.2656,1123.3594 Q2735.8594,1122.8516 2734.4531,1122.8516 Q2732.6953,1122.8516 2731.2109,1123.5547 Q2729.7656,1124.2578 2728.6328,1125.8203 Q2727.5,1127.3828 2727.5,1129.5313 L2727.5,1131.8359 Q2727.5,1134.4141 2729.6094,1136.1328 Q2731.7188,1137.8516 2735.4688,1137.8516 Q2737.6953,1137.8516 2739.2578,1137.3438 Q2740.1563,1137.0703 2741.1719,1136.1719 Q2741.8359,1135.6641 2742.1875,1135.5078 Q2742.5391,1135.3516 2742.9688,1135.3516 Q2743.7891,1135.3516 2744.375,1136.0156 Q2745,1136.6406 2745,1137.5391 Q2745,1138.3984 2744.1406,1139.4141 Q2742.8906,1140.8984 2740.8984,1141.7188 Q2738.2813,1142.8516 2735.0781,1142.8516 Q2731.3281,1142.8516 2728.3203,1141.3672 Q2725.8984,1140.1953 2724.1797,1137.6563 Q2722.5,1135.1172 2722.5,1132.1094 L2722.5,1129.375 Q2722.5,1126.25 2723.9844,1123.5156 Q2725.5078,1120.7813 2728.125,1119.3359 Q2730.7813,1117.8516 2733.75,1117.8516 Q2735.5469,1117.8516 2737.1094,1118.4766 Q2738.6719,1119.1016 2740,1120.3516 Z " fill="#000000"/><ellipse cx="2782.5" cy="1127.8516" fill="#84BE84" rx="7.5" ry="7.5" style="stroke:#038048;stroke-width:2.5;"/><text fill="#000000" font-family="sans-serif" font-size="30" font-style="italic" font-weight="bold" lengthAdjust="spacing" textLength="60" x="2797.5" y="1141.377">final</text><text fill="#000000" font-family="sans-serif" font-size="30" font-style="italic" lengthAdjust="spacing" textLength="225" x="2865" y="1141.377">xxxCardSelector</text><line style="stroke:#D4AC0D;stroke-width:3.75;" x1="2700" x2="3095" y1="1169.1016" y2="1169.1016"/><text fill="#000000" font-family="sans-serif" font-size="27.5" lengthAdjust="spacing" textLength="22.5" x="2712.5" y="1207.6489">...</text><line style="stroke:#D4AC0D;stroke-width:3.75;" x1="2700" x2="3095" y1="1223.6914" y2="1223.6914"/><!--MD5=[125c2a9664bfb82a01f56afd98fcef0c]
class xxxCardExtension--><rect codeLine="98" fill="#FEFECE" height="223.7695" id="xxxCardExtension" style="stroke:#D4AC0D;stroke-width:3.75;" width="805" x="842.5" y="1054.1016"/><ellipse cx="1063.125" cy="1094.1016" fill="#B4A7E5" rx="27.5" ry="27.5" style="stroke:#B4A7E5;stroke-width:2.5;"/><path d="M1065.625,1086.6016 L1065.625,1101.6016 L1070.625,1101.6016 L1071.8359,1101.6016 L1073.125,1103.1641 L1073.125,1104.1016 L1073.125,1105.0391 L1071.8359,1106.6016 L1070.625,1106.6016 L1055.625,1106.6016 L1054.4141,1106.6016 L1053.125,1105.0391 L1053.125,1104.1016 L1053.125,1103.1641 L1054.4141,1101.6016 L1055.625,1101.6016 L1060.625,1101.6016 L1060.625,1086.6016 L1055.625,1086.6016 L1054.4141,1086.6016 L1053.125,1085.0391 L1053.125,1084.1016 L1053.125,1083.1641 L1054.4141,1081.6016 L1055.625,1081.6016 L1070.625,1081.6016 L1071.8359,1081.6016 L1073.125,1083.1641 L1073.125,1084.1016 L1073.125,1085.0391 L1071.8359,1086.6016 L1070.625,1086.6016 L1065.625,1086.6016 Z " fill="#000000"/><ellipse cx="1126.875" cy="1092.8516" fill="#84BE84" rx="7.5" ry="7.5" style="stroke:#038048;stroke-width:2.5;"/><text fill="#000000" font-family="sans-serif" font-size="30" font-style="italic" font-weight="bold" lengthAdjust="spacing" textLength="60" x="1141.875" y="1106.377">final</text><text fill="#000000" font-family="sans-serif" font-size="30" font-style="italic" lengthAdjust="spacing" textLength="247.5" x="1209.375" y="1106.377">xxxCardExtension</text><line style="stroke:#D4AC0D;stroke-width:3.75;" x1="845" x2="1645" y1="1134.1016" y2="1134.1016"/><line style="stroke:#D4AC0D;stroke-width:2.5;" x1="845" x2="1645" y1="1154.1016" y2="1154.1016"/><ellipse cx="870" cy="1181.6016" fill="#84BE84" rx="7.5" ry="7.5" style="stroke:#038048;stroke-width:2.5;"/><text fill="#000000" font-family="sans-serif" font-size="27.5" lengthAdjust="spacing" textLength="540" x="892.5" y="1192.6489">xxxCardSelection createXxxCardSelection ()</text><ellipse cx="870" cy="1216.1914" fill="#84BE84" rx="7.5" ry="7.5" style="stroke:#038048;stroke-width:2.5;"/><text fill="#000000" font-family="sans-serif" font-size="27.5" lengthAdjust="spacing" textLength="740" x="892.5" y="1227.2388">xxxCardSelection createXxxCardResourceProfileExtension ()</text><text fill="#000000" font-family="sans-serif" font-size="27.5" lengthAdjust="spacing" textLength="22.5" x="892.5" y="1261.8286">...</text><!--MD5=[ebba046afa18336849519919c4fd7f55]
class xxxCardExtensionAdapter--><rect codeLine="142" fill="#EBF5FB" height="154.5898" id="xxxCardExtensionAdapter" style="stroke:#3498DB;stroke-width:3.75;" width="530" x="1107.5" y="1431.6016"/><ellipse cx="1145" cy="1471.6016" fill="#ADD1B2" rx="27.5" ry="27.5" style="stroke:#ADD1B2;stroke-width:2.5;"/><path d="M1150,1462.8516 Q1150.5078,1461.6016 1151.0938,1460.9766 Q1151.6797,1460.3516 1152.3438,1460.3516 Q1153.5156,1460.3516 1154.2578,1461.0547 Q1155,1461.7578 1155,1463.3984 L1155,1467.3047 Q1155,1468.9453 1154.2969,1469.6484 Q1153.5938,1470.3516 1152.5,1470.3516 Q1151.5234,1470.3516 1150.8984,1469.9219 Q1150.2734,1469.4922 1150,1468.3594 Q1149.8828,1467.5781 1149.4531,1467.1484 Q1148.6719,1466.3281 1147.2656,1465.8594 Q1145.8594,1465.3516 1144.4531,1465.3516 Q1142.6953,1465.3516 1141.2109,1466.0547 Q1139.7656,1466.7578 1138.6328,1468.3203 Q1137.5,1469.8828 1137.5,1472.0313 L1137.5,1474.3359 Q1137.5,1476.9141 1139.6094,1478.6328 Q1141.7188,1480.3516 1145.4688,1480.3516 Q1147.6953,1480.3516 1149.2578,1479.8438 Q1150.1563,1479.5703 1151.1719,1478.6719 Q1151.8359,1478.1641 1152.1875,1478.0078 Q1152.5391,1477.8516 1152.9688,1477.8516 Q1153.7891,1477.8516 1154.375,1478.5156 Q1155,1479.1406 1155,1480.0391 Q1155,1480.8984 1154.1406,1481.9141 Q1152.8906,1483.3984 1150.8984,1484.2188 Q1148.2813,1485.3516 1145.0781,1485.3516 Q1141.3281,1485.3516 1138.3203,1483.8672 Q1135.8984,1482.6953 1134.1797,1480.1563 Q1132.5,1477.6172 1132.5,1474.6094 L1132.5,1471.875 Q1132.5,1468.75 1133.9844,1466.0156 Q1135.5078,1463.2813 1138.125,1461.8359 Q1140.7813,1460.3516 1143.75,1460.3516 Q1145.5469,1460.3516 1147.1094,1460.9766 Q1148.6719,1461.6016 1150,1462.8516 Z " fill="#000000"/><polygon fill="#4177AF" points="1192.5,1460.3516,1182.5,1475.3516,1202.5,1475.3516" style="stroke:#1963A0;stroke-width:2.5;"/><text fill="#000000" font-family="sans-serif" font-size="30" font-style="italic" font-weight="bold" lengthAdjust="spacing" textLength="60" x="1207.5" y="1483.877">final</text><text fill="#000000" font-family="sans-serif" font-size="30" font-style="italic" lengthAdjust="spacing" textLength="355" x="1275" y="1483.877">xxxCardExtensionAdapter</text><line style="stroke:#3498DB;stroke-width:3.75;" x1="1110" x2="1635" y1="1511.6016" y2="1511.6016"/><text fill="#000000" font-family="sans-serif" font-size="27.5" lengthAdjust="spacing" textLength="22.5" x="1122.5" y="1550.1489">...</text><line style="stroke:#3498DB;stroke-width:3.75;" x1="1110" x2="1635" y1="1566.1914" y2="1566.1914"/><!--MD5=[b7f723709f4c95e341f6eb59b203b4a1]
class xxxCardSelectionAdapter--><rect codeLine="143" fill="#EBF5FB" height="154.5898" id="xxxCardSelectionAdapter" style="stroke:#3498DB;stroke-width:3.75;" width="522.5" x="1726.25" y="1431.6016"/><ellipse cx="1763.75" cy="1471.6016" fill="#ADD1B2" rx="27.5" ry="27.5" style="stroke:#ADD1B2;stroke-width:2.5;"/><path d="M1768.75,1462.8516 Q1769.2578,1461.6016 1769.8438,1460.9766 Q1770.4297,1460.3516 1771.0938,1460.3516 Q1772.2656,1460.3516 1773.0078,1461.0547 Q1773.75,1461.7578 1773.75,1463.3984 L1773.75,1467.3047 Q1773.75,1468.9453 1773.0469,1469.6484 Q1772.3438,1470.3516 1771.25,1470.3516 Q1770.2734,1470.3516 1769.6484,1469.9219 Q1769.0234,1469.4922 1768.75,1468.3594 Q1768.6328,1467.5781 1768.2031,1467.1484 Q1767.4219,1466.3281 1766.0156,1465.8594 Q1764.6094,1465.3516 1763.2031,1465.3516 Q1761.4453,1465.3516 1759.9609,1466.0547 Q1758.5156,1466.7578 1757.3828,1468.3203 Q1756.25,1469.8828 1756.25,1472.0313 L1756.25,1474.3359 Q1756.25,1476.9141 1758.3594,1478.6328 Q1760.4688,1480.3516 1764.2188,1480.3516 Q1766.4453,1480.3516 1768.0078,1479.8438 Q1768.9063,1479.5703 1769.9219,1478.6719 Q1770.5859,1478.1641 1770.9375,1478.0078 Q1771.2891,1477.8516 1771.7188,1477.8516 Q1772.5391,1477.8516 1773.125,1478.5156 Q1773.75,1479.1406 1773.75,1480.0391 Q1773.75,1480.8984 1772.8906,1481.9141 Q1771.6406,1483.3984 1769.6484,1484.2188 Q1767.0313,1485.3516 1763.8281,1485.3516 Q1760.0781,1485.3516 1757.0703,1483.8672 Q1754.6484,1482.6953 1752.9297,1480.1563 Q1751.25,1477.6172 1751.25,1474.6094 L1751.25,1471.875 Q1751.25,1468.75 1752.7344,1466.0156 Q1754.2578,1463.2813 1756.875,1461.8359 Q1759.5313,1460.3516 1762.5,1460.3516 Q1764.2969,1460.3516 1765.8594,1460.9766 Q1767.4219,1461.6016 1768.75,1462.8516 Z " fill="#000000"/><polygon fill="#4177AF" points="1811.25,1460.3516,1801.25,1475.3516,1821.25,1475.3516" style="stroke:#1963A0;stroke-width:2.5;"/><text fill="#000000" font-family="sans-serif" font-size="30" font-style="italic" font-weight="bold" lengthAdjust="spacing" textLength="60" x="1826.25" y="1483.877">final</text><text fill="#000000" font-family="sans-serif" font-size="30" font-style="italic" lengthAdjust="spacing" textLength="347.5" x="1893.75" y="1483.877">xxxCardSelectionAdapter</text><line style="stroke:#3498DB;stroke-width:3.75;" x1="1728.75" x2="2246.25" y1="1511.6016" y2="1511.6016"/><text fill="#000000" font-family="sans-serif" font-size="27.5" lengthAdjust="spacing" textLength="22.5" x="1741.25" y="1550.1489">...</text><line style="stroke:#3498DB;stroke-width:3.75;" x1="1728.75" x2="2246.25" y1="1566.1914" y2="1566.1914"/><!--MD5=[cce03acc605d094508f66994b4b4a5f2]
class xxxSmartCardAdapter--><rect codeLine="144" fill="#EBF5FB" height="154.5898" id="xxxSmartCardAdapter" style="stroke:#3498DB;stroke-width:3.75;" width="477.5" x="2336.25" y="1431.6016"/><ellipse cx="2373.75" cy="1471.6016" fill="#ADD1B2" rx="27.5" ry="27.5" style="stroke:#ADD1B2;stroke-width:2.5;"/><path d="M2378.75,1462.8516 Q2379.2578,1461.6016 2379.8438,1460.9766 Q2380.4297,1460.3516 2381.0938,1460.3516 Q2382.2656,1460.3516 2383.0078,1461.0547 Q2383.75,1461.7578 2383.75,1463.3984 L2383.75,1467.3047 Q2383.75,1468.9453 2383.0469,1469.6484 Q2382.3438,1470.3516 2381.25,1470.3516 Q2380.2734,1470.3516 2379.6484,1469.9219 Q2379.0234,1469.4922 2378.75,1468.3594 Q2378.6328,1467.5781 2378.2031,1467.1484 Q2377.4219,1466.3281 2376.0156,1465.8594 Q2374.6094,1465.3516 2373.2031,1465.3516 Q2371.4453,1465.3516 2369.9609,1466.0547 Q2368.5156,1466.7578 2367.3828,1468.3203 Q2366.25,1469.8828 2366.25,1472.0313 L2366.25,1474.3359 Q2366.25,1476.9141 2368.3594,1478.6328 Q2370.4688,1480.3516 2374.2188,1480.3516 Q2376.4453,1480.3516 2378.0078,1479.8438 Q2378.9063,1479.5703 2379.9219,1478.6719 Q2380.5859,1478.1641 2380.9375,1478.0078 Q2381.2891,1477.8516 2381.7188,1477.8516 Q2382.5391,1477.8516 2383.125,1478.5156 Q2383.75,1479.1406 2383.75,1480.0391 Q2383.75,1480.8984 2382.8906,1481.9141 Q2381.6406,1483.3984 2379.6484,1484.2188 Q2377.0313,1485.3516 2373.8281,1485.3516 Q2370.0781,1485.3516 2367.0703,1483.8672 Q2364.6484,1482.6953 2362.9297,1480.1563 Q2361.25,1477.6172 2361.25,1474.6094 L2361.25,1471.875 Q2361.25,1468.75 2362.7344,1466.0156 Q2364.2578,1463.2813 2366.875,1461.8359 Q2369.5313,1460.3516 2372.5,1460.3516 Q2374.2969,1460.3516 2375.8594,1460.9766 Q2377.4219,1461.6016 2378.75,1462.8516 Z " fill="#000000"/><polygon fill="#4177AF" points="2421.25,1460.3516,2411.25,1475.3516,2431.25,1475.3516" style="stroke:#1963A0;stroke-width:2.5;"/><text fill="#000000" font-family="sans-serif" font-size="30" font-style="italic" font-weight="bold" lengthAdjust="spacing" textLength="60" x="2436.25" y="1483.877">final</text><text fill="#000000" font-family="sans-serif" font-size="30" font-style="italic" lengthAdjust="spacing" textLength="302.5" x="2503.75" y="1483.877">xxxSmartCardAdapter</text><line style="stroke:#3498DB;stroke-width:3.75;" x1="2338.75" x2="2811.25" y1="1511.6016" y2="1511.6016"/><text fill="#000000" font-family="sans-serif" font-size="27.5" lengthAdjust="spacing" textLength="22.5" x="2351.25" y="1550.1489">...</text><line style="stroke:#3498DB;stroke-width:3.75;" x1="2338.75" x2="2811.25" y1="1566.1914" y2="1566.1914"/><!--MD5=[93924da281e0b72c65fd6d2814e91c31]
class xxxCardResourceProfileExtensionAdapter--><rect codeLine="145" fill="#EBF5FB" height="154.5898" id="xxxCardResourceProfileExtensionAdapter" style="stroke:#3498DB;stroke-width:3.75;" width="750" x="2902.5" y="1431.6016"/><ellipse cx="2940" cy="1471.6016" fill="#ADD1B2" rx="27.5" ry="27.5" style="stroke:#ADD1B2;stroke-width:2.5;"/><path d="M2945,1462.8516 Q2945.5078,1461.6016 2946.0938,1460.9766 Q2946.6797,1460.3516 2947.3438,1460.3516 Q2948.5156,1460.3516 2949.2578,1461.0547 Q2950,1461.7578 2950,1463.3984 L2950,1467.3047 Q2950,1468.9453 2949.2969,1469.6484 Q2948.5938,1470.3516 2947.5,1470.3516 Q2946.5234,1470.3516 2945.8984,1469.9219 Q2945.2734,1469.4922 2945,1468.3594 Q2944.8828,1467.5781 2944.4531,1467.1484 Q2943.6719,1466.3281 2942.2656,1465.8594 Q2940.8594,1465.3516 2939.4531,1465.3516 Q2937.6953,1465.3516 2936.2109,1466.0547 Q2934.7656,1466.7578 2933.6328,1468.3203 Q2932.5,1469.8828 2932.5,1472.0313 L2932.5,1474.3359 Q2932.5,1476.9141 2934.6094,1478.6328 Q2936.7188,1480.3516 2940.4688,1480.3516 Q2942.6953,1480.3516 2944.2578,1479.8438 Q2945.1563,1479.5703 2946.1719,1478.6719 Q2946.8359,1478.1641 2947.1875,1478.0078 Q2947.5391,1477.8516 2947.9688,1477.8516 Q2948.7891,1477.8516 2949.375,1478.5156 Q2950,1479.1406 2950,1480.0391 Q2950,1480.8984 2949.1406,1481.9141 Q2947.8906,1483.3984 2945.8984,1484.2188 Q2943.2813,1485.3516 2940.0781,1485.3516 Q2936.3281,1485.3516 2933.3203,1483.8672 Q2930.8984,1482.6953 2929.1797,1480.1563 Q2927.5,1477.6172 2927.5,1474.6094 L2927.5,1471.875 Q2927.5,1468.75 2928.9844,1466.0156 Q2930.5078,1463.2813 2933.125,1461.8359 Q2935.7813,1460.3516 2938.75,1460.3516 Q2940.5469,1460.3516 2942.1094,1460.9766 Q2943.6719,1461.6016 2945,1462.8516 Z " fill="#000000"/><polygon fill="#4177AF" points="2987.5,1460.3516,2977.5,1475.3516,2997.5,1475.3516" style="stroke:#1963A0;stroke-width:2.5;"/><text fill="#000000" font-family="sans-serif" font-size="30" font-style="italic" font-weight="bold" lengthAdjust="spacing" textLength="60" x="3002.5" y="1483.877">final</text><text fill="#000000" font-family="sans-serif" font-size="30" font-style="italic" lengthAdjust="spacing" textLength="575" x="3070" y="1483.877">xxxCardResourceProfileExtensionAdapter</text><line style="stroke:#3498DB;stroke-width:3.75;" x1="2905" x2="3650" y1="1511.6016" y2="1511.6016"/><text fill="#000000" font-family="sans-serif" font-size="27.5" lengthAdjust="spacing" textLength="22.5" x="2917.5" y="1550.1489">...</text><line style="stroke:#3498DB;stroke-width:3.75;" x1="2905" x2="3650" y1="1566.1914" y2="1566.1914"/><!--MD5=[993f270e2185c326cb3339a5005caff8]
reverse link KeypleSmartCard to SmartCard--><path d="M2408.55,382.6516 C2420,449.6516 2434.4,533.9166 2444.61,593.6641 " fill="none" id="KeypleSmartCard-backto-SmartCard" style="stroke:#A80036;stroke-width:2.5;"/><polygon fill="none" points="2391.1325,384.6191,2399.96,332.3841,2425.6325,378.7241,2391.1325,384.6191" style="stroke:#A80036;stroke-width:2.5;"/><!--MD5=[b0efbbd8a54987d152ca46ad8578f578]
reverse link KeypleCardSelector to CardSelector--><path d="M2837.45,382.6516 C2832.775,449.6516 2826.9,533.9166 2822.75,593.6641 " fill="none" id="KeypleCardSelector-backto-CardSelector" style="stroke:#A80036;stroke-width:2.5;stroke-dasharray:7.0,7.0;"/><polygon fill="none" points="2820,381.0491,2840.95,332.3841,2854.925,383.4791,2820,381.0491" style="stroke:#A80036;stroke-width:2.5;"/><!--MD5=[7b98aeab9a3d660b23153640da6ec114]
reverse link SmartCard to xxxSmartCard--><path d="M2457.5,800.0591 C2457.5,891.3216 2457.5,1011.7016 2457.5,1088.5266 " fill="none" id="SmartCard-backto-xxxSmartCard" style="stroke:#A80036;stroke-width:2.5;"/><polygon fill="none" points="2440,799.5891,2457.5,749.5891,2475,799.5891,2440,799.5891" style="stroke:#A80036;stroke-width:2.5;"/><!--MD5=[4e3989f090d34aa4098b0323f99a4b52]
reverse link KeypleCardResourceProfileExtension to xxxCardResourceProfileExtension--><path d="M3441.75,382.2616 C3448.95,565.1416 3463.325,930.9291 3469.525,1088.7541 " fill="none" id="KeypleCardResourceProfileExtension-backto-xxxCardResourceProfileExtension" style="stroke:#A80036;stroke-width:2.5;"/><polygon fill="none" points="3424.25,382.4616,3439.775,331.8116,3459.225,381.0841,3424.25,382.4616" style="stroke:#A80036;stroke-width:2.5;"/><!--MD5=[4abb779e65060c5bfc44d688ec29c257]
reverse link CardSelection to xxxCardSelection--><path d="M2078.4925,799.4166 C2070.1025,890.7591 2059.0125,1011.5216 2051.94,1088.5266 " fill="none" id="CardSelection-backto-xxxCardSelection" style="stroke:#A80036;stroke-width:2.5;"/><polygon fill="none" points="2061.0675,797.7791,2083.0675,749.5891,2095.92,800.9816,2061.0675,797.7791" style="stroke:#A80036;stroke-width:2.5;"/><!--MD5=[03332bb9a6b06bb71554ad483aefcb1f]
reverse link CardSelector to xxxCardSelector--><path d="M2837.95,799.4166 C2852.875,890.7591 2872.6,1011.5216 2885.15,1088.5266 " fill="none" id="CardSelector-backto-xxxCardSelector" style="stroke:#A80036;stroke-width:2.5;"/><polygon fill="none" points="2820.6,801.7566,2829.825,749.5891,2855.15,796.1166,2820.6,801.7566" style="stroke:#A80036;stroke-width:2.5;"/><!--MD5=[f32ec65005451c0b69c9b7f05ba07707]
reverse link KeypleCardExtension to xxxCardExtension--><path d="M1847.7625,372.2816 C1720.485,539.4791 1462.525,878.3491 1329.1225,1053.5916 " fill="none" id="KeypleCardExtension-backto-xxxCardExtension" style="stroke:#A80036;stroke-width:2.5;"/><polygon fill="none" points="1834.36,360.9966,1878.57,331.8116,1862.2075,382.1966,1834.36,360.9966" style="stroke:#A80036;stroke-width:2.5;"/><!--MD5=[4277f490a7099d6c11ba3057b4f037ca]
reverse link xxxCardExtension to xxxCardExtensionAdapter--><path d="M1304.4625,1326.5041 C1318.2225,1362.9241 1332.2475,1400.0491 1343.96,1431.0566 " fill="none" id="xxxCardExtension-backto-xxxCardExtensionAdapter" style="stroke:#A80036;stroke-width:2.5;stroke-dasharray:7.0,7.0;"/><polygon fill="none" points="1288.0475,1332.5691,1286.7475,1279.6116,1320.79,1320.2016,1288.0475,1332.5691" style="stroke:#A80036;stroke-width:2.5;"/><!--MD5=[39da8af684858c0079c9c0bbde7d48f2]
reverse link CardExtensionSpi to xxxCardExtensionAdapter--><path d="M1561.965,1805.7991 C1536.0975,1761.7441 1505.995,1711.5441 1477.5,1666.6016 C1460.7925,1640.2491 1441.85,1611.8641 1424.6975,1586.6766 " fill="none" id="CardExtensionSpi-backto-xxxCardExtensionAdapter" style="stroke:#A80036;stroke-width:2.5;stroke-dasharray:7.0,7.0;"/><polygon fill="none" points="1577.0875,1796.9941,1587.1375,1849.0061,1546.8475,1814.6141,1577.0875,1796.9941" style="stroke:#A80036;stroke-width:2.5;"/><!--MD5=[4c1f077f6947fb0e92e602f4e61955a7]
link xxxCardExtensionAdapter to CardExtensionSpi--><!--MD5=[df9451b318d6606b19f7d4b575c2effa]
reverse link xxxCardSelection to xxxCardSelectionAdapter--><path d="M2023.59,1294.7716 C2015.78,1340.6066 2007.1975,1390.9891 2000.36,1431.1116 " fill="none" id="xxxCardSelection-backto-xxxCardSelectionAdapter" style="stroke:#A80036;stroke-width:2.5;stroke-dasharray:7.0,7.0;"/><polygon fill="none" points="2006.4475,1291.1941,2032.095,1244.8441,2040.95,1297.0716,2006.4475,1291.1941" style="stroke:#A80036;stroke-width:2.5;"/><!--MD5=[c894073829ba8baf12c92f112cb8555f]
reverse link CardSelectionSpi to xxxCardSelectionAdapter--><path d="M2045.085,1799.5241 C2031.25,1730.3566 2014.495,1646.5716 2002.6325,1587.2616 " fill="none" id="CardSelectionSpi-backto-xxxCardSelectionAdapter" style="stroke:#A80036;stroke-width:2.5;stroke-dasharray:7.0,7.0;"/><polygon fill="none" points="2062.3175,1796.4616,2054.965,1848.9223,2027.9975,1803.3266,2062.3175,1796.4616" style="stroke:#A80036;stroke-width:2.5;"/><!--MD5=[077a447c7901b23dcf03acc3d8a70774]
link xxxCardSelectionAdapter to CardSelectionSpi--><!--MD5=[9002e706f396d6876295fc7061d0da0c]
reverse link xxxSmartCard to xxxSmartCardAdapter--><path d="M2500.475,1292.5466 C2516.65,1338.9716 2534.525,1390.3366 2548.725,1431.1116 " fill="none" id="xxxSmartCard-backto-xxxSmartCardAdapter" style="stroke:#A80036;stroke-width:2.5;stroke-dasharray:7.0,7.0;"/><polygon fill="none" points="2483.7825,1297.8166,2483.87,1244.8441,2516.825,1286.3091,2483.7825,1297.8166" style="stroke:#A80036;stroke-width:2.5;"/><!--MD5=[c3a026247cd8f9cca2ae38e56abcd097]
reverse link SmartCardSpi to xxxSmartCardAdapter--><path d="M2506.475,1817.1316 C2522.65,1745.0416 2543.575,1651.7041 2558.025,1587.2616 " fill="none" id="SmartCardSpi-backto-xxxSmartCardAdapter" style="stroke:#A80036;stroke-width:2.5;stroke-dasharray:7.0,7.0;"/><polygon fill="none" points="2523.5,1821.2566,2495.48,1866.2156,2489.345,1813.5991,2523.5,1821.2566" style="stroke:#A80036;stroke-width:2.5;"/><!--MD5=[bd6c05ee87062384bb574fb05535b09e]
link xxxSmartCardAdapter to SmartCardSpi--><!--MD5=[266998083126b6b042f1ea69c63b210d]
reverse link xxxCardResourceProfileExtension to xxxCardResourceProfileExtensionAdapter--><path d="M3403.3,1288.8516 C3375.925,1336.2316 3345.3,1389.2541 3321.125,1431.1116 " fill="none" id="xxxCardResourceProfileExtension-backto-xxxCardResourceProfileExtensionAdapter" style="stroke:#A80036;stroke-width:2.5;stroke-dasharray:7.0,7.0;"/><polygon fill="none" points="3388.575,1279.3816,3428.75,1244.8441,3418.875,1296.8916,3388.575,1279.3816" style="stroke:#A80036;stroke-width:2.5;"/><!--MD5=[d8b6ecd9f9b7224c49ae818d096fe472]
reverse link CardResourceProfileExtensionSpi to xxxCardResourceProfileExtensionAdapter--><path d="M3086.2,1806.5916 C3131.9,1736.1341 3188.65,1648.6066 3228.425,1587.2616 " fill="none" id="CardResourceProfileExtensionSpi-backto-xxxCardResourceProfileExtensionAdapter" style="stroke:#A80036;stroke-width:2.5;stroke-dasharray:7.0,7.0;"/><polygon fill="none" points="3100.65,1816.4916,3058.75,1848.9223,3071.275,1797.4491,3100.65,1816.4916" style="stroke:#A80036;stroke-width:2.5;"/><!--MD5=[6e3ffe93a4956f59a651f3339a2d4c2a]
link xxxCardResourceProfileExtensionAdapter to CardResourceProfileExtensionSpi--><!--MD5=[a637902cefae91d2c2c244af4fb5aebf]
link xxxCardExtensionProvider to xxxCardExtension--><path codeLine="121" d="M619.7425,1166.6016 C685.64,1166.6016 757.68,1166.6016 828.6675,1166.6016 " fill="none" id="xxxCardExtensionProvider-to-xxxCardExtension" style="stroke:#27AE60;stroke-width:2.5;stroke-dasharray:7.0,7.0;"/><polygon fill="#27AE60" points="841.9075,1166.6016,819.4075,1156.6016,829.4075,1166.6016,819.4075,1176.6016,841.9075,1166.6016" style="stroke:#27AE60;stroke-width:2.5;"/><polygon fill="#000000" points="686.875,1137.041,664.2623,1129.6937,664.2623,1144.3883,686.875,1137.041" style="stroke:#000000;stroke-width:2.5;"/><text fill="#000000" font-family="sans-serif" font-size="32.5" lengthAdjust="spacing" textLength="100" x="696.875" y="1150.3394">provide</text><!--MD5=[3aa200d50e8af772637d2251ae140976]
link xxxCardExtension to xxxCardSelection--><path codeLine="123" d="M1648.515,1166.6016 C1722.055,1166.6016 1795.435,1166.6016 1858.7125,1166.6016 " fill="none" id="xxxCardExtension-to-xxxCardSelection" style="stroke:#27AE60;stroke-width:2.5;stroke-dasharray:7.0,7.0;"/><polygon fill="#27AE60" points="1871.23,1166.6016,1848.73,1156.6016,1858.73,1166.6016,1848.73,1176.6016,1871.23,1166.6016" style="stroke:#27AE60;stroke-width:2.5;"/><polygon fill="#000000" points="1715.625,1137.041,1693.0123,1129.6937,1693.0123,1144.3883,1715.625,1137.041" style="stroke:#000000;stroke-width:2.5;"/><text fill="#000000" font-family="sans-serif" font-size="32.5" lengthAdjust="spacing" textLength="100" x="1725.625" y="1150.3394">provide</text><!--MD5=[4026b0a15db1c12ee5ab85d9b9a03014]
link xxxCardExtension to xxxCardResourceProfileExtension--><path codeLine="124" d="M1441.4475,1054.0116 C1551.1925,997.6116 1692.6475,935.3316 1827.5,906.6016 C2113.3075,845.7116 2866.4,810.8991 3142.5,906.6016 C3241.35,940.8666 3333.05,1018.3641 3394.55,1079.8891 " fill="none" id="xxxCardExtension-to-xxxCardResourceProfileExtension" style="stroke:#27AE60;stroke-width:2.5;stroke-dasharray:7.0,7.0;"/><polygon fill="#27AE60" points="3403.4,1088.8416,3394.6959,1065.8092,3394.6131,1079.9511,3380.4712,1079.8683,3403.4,1088.8416" style="stroke:#27AE60;stroke-width:2.5;"/><polygon fill="#000000" points="2228.7489,852.2066,2206.2355,844.5604,2206.0408,859.2537,2228.7489,852.2066" style="stroke:#000000;stroke-width:2.5;"/><text fill="#000000" font-family="sans-serif" font-size="32.5" lengthAdjust="spacing" textLength="100" x="2238.75" y="865.3394">provide</text><!--MD5=[243ef50cdc6ca4b1d59ce7bbc578be03]
link xxxCardSelection to xxxCardExtensionAdapter--><!--MD5=[6aef92196412bbfccb06d3ea1a2cdc76]
link xxxCardSelection to xxxSmartCardAdapter--><!--MD5=[5f8d653482431c9e43404fc175a1b11c]
@startuml
title
    Keyple 2.0 - Specific Card Extension - 2.0.0 (19/02/2021)
end title

' == THEME ==

'Couleurs issues de : https://htmlcolorcodes.com/fr/tableau-de-couleur/tableau-de-couleur-design-plat/
!define C_GREY1 F8F9F9
!define C_GREY2 F2F3F4
!define C_GREY3 E5E7E9
!define C_GREY4 D7DBDD
!define C_GREY5 CACFD2
!define C_GREY6 BDC3C7
!define C_LINK 3498DB
!define C_USE 27AE60

skinparam Shadowing false
skinparam ClassFontStyle italic
skinparam ClassBorderColor #D4AC0D
skinparam stereotypeABorderColor #A9DCDF
skinparam stereotypeIBorderColor #B4A7E5
skinparam stereotypeCBorderColor #ADD1B2
skinparam stereotypeEBorderColor #EB93DF
' Red
skinparam ClassBackgroundColor<<red>> #FDEDEC
skinparam ClassBorderColor<<red>> #E74C3C
hide <<red>> stereotype
' Purple
skinparam ClassBackgroundColor<<purple>> #F4ECF7
skinparam ClassBorderColor<<purple>> #8E44AD
hide <<purple>> stereotype
' blue
skinparam ClassBackgroundColor<<blue>> #EBF5FB
skinparam ClassBorderColor<<blue>> #3498DB
hide <<blue>> stereotype
' Green
skinparam ClassBackgroundColor<<green>> #E9F7EF
skinparam ClassBorderColor<<green>> #27AE60
hide <<green>> stereotype
' Grey
skinparam ClassBackgroundColor<<grey>> #EAECEE
skinparam ClassBorderColor<<grey>> #2C3E50
hide <<grey>> stereotype

' == CONTENT ==

package "org.eclipse.keyple.core.common" as commonsApi {
    +interface KeypleCardExtension {
    }
    +interface KeypleSmartCard {
    }
    +interface KeypleCardSelector {
    }
    +interface KeypleCardResourceProfileExtension {
    }
}
package "org.eclipse.keyple.core.service.selection.spi" as serviceSelectionSpi {
    +interface CardSelection {
        ...
    }
    +interface SmartCard extends KeypleSmartCard {
        ...
    }
    +class CardSelector implements KeypleCardSelector {
        ...
    }
}
package "org.eclipse.keyple.core.card.spi" as cardSpi {
    +interface CardExtensionSpi {
        ...
    }
    +interface CardSelectionSpi {
        ...
    }
    +interface SmartCardSpi {
    }
    +interface CardResourceProfileExtensionSpi {
        ...
    }
}

package "org.eclipse.keyple.card.xxx (specific extension)" as specificExtension {
    +class "**final** xxxCardExtensionProvider" as xxxCardExtensionProvider {
        +{static} xxxCardExtension getService ()
    }
    +interface xxxSmartCard extends SmartCard {
        ...
    }
    +interface xxxCardResourceProfileExtension extends KeypleCardResourceProfileExtension {
        ...
    }
    +interface xxxCardSelection extends CardSelection {
        ...
    }
    +class "**final** xxxCardSelector" as xxxCardSelector extends CardSelector {
        ...
    }
    +interface "**final** xxxCardExtension" as xxxCardExtension extends KeypleCardExtension {
        - -
        +xxxCardSelection createXxxCardSelection ()
        +xxxCardSelection createXxxCardResourceProfileExtension ()
        ...
    }
    ' Adapters
    ~class "**final** xxxCardExtensionAdapter" as xxxCardExtensionAdapter implements xxxCardExtension, CardExtensionSpi {
        ...
    }
    ~class "**final** xxxCardSelectionAdapter" as xxxCardSelectionAdapter implements xxxCardSelection, CardSelectionSpi {
        ...
    }
    ~class "**final** xxxSmartCardAdapter" as xxxSmartCardAdapter implements xxxSmartCard, SmartCardSpi {
        ...
    }
    ~class "**final** xxxCardResourceProfileExtensionAdapter" as xxxCardResourceProfileExtensionAdapter implements xxxCardResourceProfileExtension, CardResourceProfileExtensionSpi {
        ...
    }
}

' Associations

xxxCardExtensionProvider .right.> xxxCardExtension #C_USE : provide >

xxxCardExtension .right.> xxxCardSelection #C_USE : provide >
xxxCardExtension .right.> xxxCardResourceProfileExtension #C_USE : provide >

' == LAYOUT ==

xxxCardSelection -[hidden]- xxxCardExtensionAdapter
xxxCardSelection -[hidden]- xxxSmartCardAdapter
xxxCardExtensionAdapter -[hidden]- CardExtensionSpi
xxxSmartCardAdapter -[hidden]- SmartCardSpi
xxxCardResourceProfileExtensionAdapter -[hidden]- CardResourceProfileExtensionSpi
xxxCardSelectionAdapter -[hidden]- CardSelectionSpi

' == STYLE ==

package commonsApi #C_GREY1 {}
package specificExtension #C_GREY1 {}
package cardSpi #C_GREY1 {}
package serviceSelectionSpi #C_GREY2 {}

class xxxCardExtensionAdapter <<blue>>
class xxxCardSelectionAdapter <<blue>>
class xxxSmartCardAdapter <<blue>>
class xxxCardResourceProfileExtensionAdapter <<blue>>
interface CardExtensionSpi <<blue>>
interface CardSelectionSpi <<blue>>
interface SmartCardSpi <<blue>>
interface CardResourceProfileExtensionSpi <<blue>>

@enduml

@startuml
title
    Keyple 2.0 - Specific Card Extension - 2.0.0 (19/02/2021)
end title



skinparam Shadowing false
skinparam ClassFontStyle italic
skinparam ClassBorderColor #D4AC0D
skinparam stereotypeABorderColor #A9DCDF
skinparam stereotypeIBorderColor #B4A7E5
skinparam stereotypeCBorderColor #ADD1B2
skinparam stereotypeEBorderColor #EB93DF
skinparam ClassBackgroundColor<<red>> #FDEDEC
skinparam ClassBorderColor<<red>> #E74C3C
hide <<red>> stereotype
skinparam ClassBackgroundColor<<purple>> #F4ECF7
skinparam ClassBorderColor<<purple>> #8E44AD
hide <<purple>> stereotype
skinparam ClassBackgroundColor<<blue>> #EBF5FB
skinparam ClassBorderColor<<blue>> #3498DB
hide <<blue>> stereotype
skinparam ClassBackgroundColor<<green>> #E9F7EF
skinparam ClassBorderColor<<green>> #27AE60
hide <<green>> stereotype
skinparam ClassBackgroundColor<<grey>> #EAECEE
skinparam ClassBorderColor<<grey>> #2C3E50
hide <<grey>> stereotype


package "org.eclipse.keyple.core.common" as commonsApi {
    +interface KeypleCardExtension {
    }
    +interface KeypleSmartCard {
    }
    +interface KeypleCardSelector {
    }
    +interface KeypleCardResourceProfileExtension {
    }
}
package "org.eclipse.keyple.core.service.selection.spi" as serviceSelectionSpi {
    +interface CardSelection {
        ...
    }
    +interface SmartCard extends KeypleSmartCard {
        ...
    }
    +class CardSelector implements KeypleCardSelector {
        ...
    }
}
package "org.eclipse.keyple.core.card.spi" as cardSpi {
    +interface CardExtensionSpi {
        ...
    }
    +interface CardSelectionSpi {
        ...
    }
    +interface SmartCardSpi {
    }
    +interface CardResourceProfileExtensionSpi {
        ...
    }
}

package "org.eclipse.keyple.card.xxx (specific extension)" as specificExtension {
    +class "**final** xxxCardExtensionProvider" as xxxCardExtensionProvider {
        +{static} xxxCardExtension getService ()
    }
    +interface xxxSmartCard extends SmartCard {
        ...
    }
    +interface xxxCardResourceProfileExtension extends KeypleCardResourceProfileExtension {
        ...
    }
    +interface xxxCardSelection extends CardSelection {
        ...
    }
    +class "**final** xxxCardSelector" as xxxCardSelector extends CardSelector {
        ...
    }
    +interface "**final** xxxCardExtension" as xxxCardExtension extends KeypleCardExtension {
        - -
        +xxxCardSelection createXxxCardSelection ()
        +xxxCardSelection createXxxCardResourceProfileExtension ()
        ...
    }
    ~class "**final** xxxCardExtensionAdapter" as xxxCardExtensionAdapter implements xxxCardExtension, CardExtensionSpi {
        ...
    }
    ~class "**final** xxxCardSelectionAdapter" as xxxCardSelectionAdapter implements xxxCardSelection, CardSelectionSpi {
        ...
    }
    ~class "**final** xxxSmartCardAdapter" as xxxSmartCardAdapter implements xxxSmartCard, SmartCardSpi {
        ...
    }
    ~class "**final** xxxCardResourceProfileExtensionAdapter" as xxxCardResourceProfileExtensionAdapter implements xxxCardResourceProfileExtension, CardResourceProfileExtensionSpi {
        ...
    }
}


xxxCardExtensionProvider .right.> xxxCardExtension #27AE60 : provide >

xxxCardExtension .right.> xxxCardSelection #27AE60 : provide >
xxxCardExtension .right.> xxxCardResourceProfileExtension #27AE60 : provide >


xxxCardSelection -[hidden]- xxxCardExtensionAdapter
xxxCardSelection -[hidden]- xxxSmartCardAdapter
xxxCardExtensionAdapter -[hidden]- CardExtensionSpi
xxxSmartCardAdapter -[hidden]- SmartCardSpi
xxxCardResourceProfileExtensionAdapter -[hidden]- CardResourceProfileExtensionSpi
xxxCardSelectionAdapter -[hidden]- CardSelectionSpi


package commonsApi #F8F9F9 {}
package specificExtension #F8F9F9 {}
package cardSpi #F8F9F9 {}
package serviceSelectionSpi #F2F3F4 {}

class xxxCardExtensionAdapter <<blue>>
class xxxCardSelectionAdapter <<blue>>
class xxxSmartCardAdapter <<blue>>
class xxxCardResourceProfileExtensionAdapter <<blue>>
interface CardExtensionSpi <<blue>>
interface CardSelectionSpi <<blue>>
interface SmartCardSpi <<blue>>
interface CardResourceProfileExtensionSpi <<blue>>

@enduml

PlantUML version 1.2021.2(Sun Mar 07 12:10:27 CET 2021)
(GPL source distribution)
Java Runtime: OpenJDK Runtime Environment
JVM: OpenJDK 64-Bit Server VM
Default Encoding: Cp1252
Language: fr
Country: FR
--></g></svg>