<?xml version="1.0" encoding="UTF-8" standalone="no"?><svg xmlns="http://www.w3.org/2000/svg" xmlns:xlink="http://www.w3.org/1999/xlink" contentScriptType="application/ecmascript" contentStyleType="text/css" height="2070px" preserveAspectRatio="none" style="width:1820px;height:2070px;background:#FFFFFF;" version="1.1" viewBox="0 0 1820 2070" width="1820px" zoomAndPan="magnify"><defs><filter height="1" id="bz6zqhbv51t620" width="1" x="0" y="0"><feFlood flood-color="#FFFF00" result="flood"/><feComposite in="SourceGraphic" in2="flood" operator="over"/></filter><filter height="1" id="bz6zqhbv51t621" width="1" x="0" y="0"><feFlood flood-color="#ADD8E6" result="flood"/><feComposite in="SourceGraphic" in2="flood" operator="over"/></filter></defs><g><text fill="#000000" font-family="sans-serif" font-size="45" lengthAdjust="spacing" textLength="955" x="416.25" y="46.7139">Keyple 2.0 - Specific Plugin - 2.0.0 (19/02/2021)</text><rect fill="#DDDDDD" height="157.0703" rx="12.5" ry="12.5" style="stroke:#000000;stroke-width:2.5;" width="557.5" x="613.75" y="76.6016"/><text fill="#000000" font-family="sans-serif" font-size="35" lengthAdjust="spacing" text-decoration="underline" textLength="220" x="628.75" y="125.4346">Colors legend</text><text fill="#000000" font-family="sans-serif" font-size="35" lengthAdjust="spacing" textLength="10" x="858.75" y="125.4346">:</text><ellipse cx="642.5" cy="158.3984" fill="#000000" rx="6.25" ry="6.25" style="stroke:#000000;stroke-width:0.0;"/><text fill="#000000" filter="url(#bz6zqhbv51t620)" font-family="sans-serif" font-size="35" lengthAdjust="spacing" textLength="377.5" x="661.25" y="169.458">Public API for end users</text><ellipse cx="642.5" cy="202.4219" fill="#000000" rx="6.25" ry="6.25" style="stroke:#000000;stroke-width:0.0;"/><text fill="#000000" filter="url(#bz6zqhbv51t621)" font-family="sans-serif" font-size="35" lengthAdjust="spacing" textLength="495" x="661.25" y="213.4814">Private API for internal use only</text><!--MD5=[621c849533070c5aba8aa732369aa9f8]
cluster commonsApi--><polygon fill="#F8F9F9" points="45,271.1719,630,271.1719,647.5,330.1953,1777.5,330.1953,1777.5,561.1719,45,561.1719,45,271.1719" style="stroke:#000000;stroke-width:3.75;"/><line style="stroke:#000000;stroke-width:3.75;" x1="45" x2="647.5" y1="330.1953" y2="330.1953"/><text fill="#000000" font-family="sans-serif" font-size="35" font-weight="bold" lengthAdjust="spacing" textLength="570" x="55" y="312.5049">org.eclipse.keyple.core.common</text><!--MD5=[6cb19e7d8351e03571d64db4601c3623]
cluster pluginSpi--><polygon fill="#F8F9F9" points="325,1768.6719,935,1768.6719,952.5,1827.6953,1415,1827.6953,1415,2053.6719,325,2053.6719,325,1768.6719" style="stroke:#000000;stroke-width:3.75;"/><line style="stroke:#000000;stroke-width:3.75;" x1="325" x2="952.5" y1="1827.6953" y2="1827.6953"/><text fill="#000000" font-family="sans-serif" font-size="35" font-weight="bold" lengthAdjust="spacing" textLength="595" x="335" y="1810.0049">org.eclipse.keyple.core.plugin.spi</text><!--MD5=[f4079738657ebf8f47a9de3e76e08740]
cluster specificPluginApi--><polygon fill="#F8F9F9" points="40,683.6719,860,683.6719,877.5,742.6953,1715,742.6953,1715,1666.1719,40,1666.1719,40,683.6719" style="stroke:#000000;stroke-width:3.75;"/><line style="stroke:#000000;stroke-width:3.75;" x1="40" x2="877.5" y1="742.6953" y2="742.6953"/><text fill="#000000" font-family="sans-serif" font-size="35" font-weight="bold" lengthAdjust="spacing" textLength="805" x="50" y="725.0049">org.eclipse.keyple.plugin.xxx (specific plugin)</text><!--MD5=[c9fcbc22b46e6fe8dd529abbe4ed4a83]
class KeyplePluginExtensionFactory--><rect codeLine="54" fill="#FEFECE" height="120" id="KeyplePluginExtensionFactory" style="stroke:#D4AC0D;stroke-width:3.75;" width="525" x="152.5" y="381.1719"/><ellipse cx="190" cy="421.1719" fill="#B4A7E5" rx="27.5" ry="27.5" style="stroke:#B4A7E5;stroke-width:2.5;"/><path d="M192.5,413.6719 L192.5,428.6719 L197.5,428.6719 L198.7109,428.6719 L200,430.2344 L200,431.1719 L200,432.1094 L198.7109,433.6719 L197.5,433.6719 L182.5,433.6719 L181.2891,433.6719 L180,432.1094 L180,431.1719 L180,430.2344 L181.2891,428.6719 L182.5,428.6719 L187.5,428.6719 L187.5,413.6719 L182.5,413.6719 L181.2891,413.6719 L180,412.1094 L180,411.1719 L180,410.2344 L181.2891,408.6719 L182.5,408.6719 L197.5,408.6719 L198.7109,408.6719 L200,410.2344 L200,411.1719 L200,412.1094 L198.7109,413.6719 L197.5,413.6719 L192.5,413.6719 Z " fill="#000000"/><ellipse cx="237.5" cy="419.9219" fill="#84BE84" rx="7.5" ry="7.5" style="stroke:#038048;stroke-width:2.5;"/><text fill="#000000" font-family="sans-serif" font-size="30" font-style="italic" lengthAdjust="spacing" textLength="417.5" x="252.5" y="433.4473">KeyplePluginExtensionFactory</text><line style="stroke:#D4AC0D;stroke-width:3.75;" x1="155" x2="675" y1="461.1719" y2="461.1719"/><line style="stroke:#D4AC0D;stroke-width:3.75;" x1="155" x2="675" y1="481.1719" y2="481.1719"/><!--MD5=[afffbc881b1d922900a05d5f1575661b]
class KeyplePluginExtension--><rect codeLine="56" fill="#FEFECE" height="120" id="KeyplePluginExtension" style="stroke:#D4AC0D;stroke-width:3.75;" width="425" x="765" y="381.1719"/><ellipse cx="802.5" cy="421.1719" fill="#B4A7E5" rx="27.5" ry="27.5" style="stroke:#B4A7E5;stroke-width:2.5;"/><path d="M805,413.6719 L805,428.6719 L810,428.6719 L811.2109,428.6719 L812.5,430.2344 L812.5,431.1719 L812.5,432.1094 L811.2109,433.6719 L810,433.6719 L795,433.6719 L793.7891,433.6719 L792.5,432.1094 L792.5,431.1719 L792.5,430.2344 L793.7891,428.6719 L795,428.6719 L800,428.6719 L800,413.6719 L795,413.6719 L793.7891,413.6719 L792.5,412.1094 L792.5,411.1719 L792.5,410.2344 L793.7891,408.6719 L795,408.6719 L810,408.6719 L811.2109,408.6719 L812.5,410.2344 L812.5,411.1719 L812.5,412.1094 L811.2109,413.6719 L810,413.6719 L805,413.6719 Z " fill="#000000"/><ellipse cx="850" cy="419.9219" fill="#84BE84" rx="7.5" ry="7.5" style="stroke:#038048;stroke-width:2.5;"/><text fill="#000000" font-family="sans-serif" font-size="30" font-style="italic" lengthAdjust="spacing" textLength="317.5" x="865" y="433.4473">KeyplePluginExtension</text><line style="stroke:#D4AC0D;stroke-width:3.75;" x1="767.5" x2="1187.5" y1="461.1719" y2="461.1719"/><line style="stroke:#D4AC0D;stroke-width:3.75;" x1="767.5" x2="1187.5" y1="481.1719" y2="481.1719"/><!--MD5=[d0367e54e30269e1f6406d1a6d3c359c]
class KeypleReaderExtension--><rect codeLine="58" fill="#FEFECE" height="120" id="KeypleReaderExtension" style="stroke:#D4AC0D;stroke-width:3.75;" width="440" x="1277.5" y="381.1719"/><ellipse cx="1315" cy="421.1719" fill="#B4A7E5" rx="27.5" ry="27.5" style="stroke:#B4A7E5;stroke-width:2.5;"/><path d="M1317.5,413.6719 L1317.5,428.6719 L1322.5,428.6719 L1323.7109,428.6719 L1325,430.2344 L1325,431.1719 L1325,432.1094 L1323.7109,433.6719 L1322.5,433.6719 L1307.5,433.6719 L1306.2891,433.6719 L1305,432.1094 L1305,431.1719 L1305,430.2344 L1306.2891,428.6719 L1307.5,428.6719 L1312.5,428.6719 L1312.5,413.6719 L1307.5,413.6719 L1306.2891,413.6719 L1305,412.1094 L1305,411.1719 L1305,410.2344 L1306.2891,408.6719 L1307.5,408.6719 L1322.5,408.6719 L1323.7109,408.6719 L1325,410.2344 L1325,411.1719 L1325,412.1094 L1323.7109,413.6719 L1322.5,413.6719 L1317.5,413.6719 Z " fill="#000000"/><ellipse cx="1362.5" cy="419.9219" fill="#84BE84" rx="7.5" ry="7.5" style="stroke:#038048;stroke-width:2.5;"/><text fill="#000000" font-family="sans-serif" font-size="30" font-style="italic" lengthAdjust="spacing" textLength="332.5" x="1377.5" y="433.4473">KeypleReaderExtension</text><line style="stroke:#D4AC0D;stroke-width:3.75;" x1="1280" x2="1715" y1="461.1719" y2="461.1719"/><line style="stroke:#D4AC0D;stroke-width:3.75;" x1="1280" x2="1715" y1="481.1719" y2="481.1719"/><!--MD5=[b139ab9773e4f9d5f3343a17f6c03cd6]
class ReaderSpi--><rect codeLine="121" fill="#EBF5FB" height="154.5898" id="ReaderSpi" style="stroke:#3498DB;stroke-width:3.75;" width="255" x="1120" y="1858.6719"/><ellipse cx="1157.5" cy="1898.6719" fill="#B4A7E5" rx="27.5" ry="27.5" style="stroke:#B4A7E5;stroke-width:2.5;"/><path d="M1160,1891.1719 L1160,1906.1719 L1165,1906.1719 L1166.2109,1906.1719 L1167.5,1907.7344 L1167.5,1908.6719 L1167.5,1909.6094 L1166.2109,1911.1719 L1165,1911.1719 L1150,1911.1719 L1148.7891,1911.1719 L1147.5,1909.6094 L1147.5,1908.6719 L1147.5,1907.7344 L1148.7891,1906.1719 L1150,1906.1719 L1155,1906.1719 L1155,1891.1719 L1150,1891.1719 L1148.7891,1891.1719 L1147.5,1889.6094 L1147.5,1888.6719 L1147.5,1887.7344 L1148.7891,1886.1719 L1150,1886.1719 L1165,1886.1719 L1166.2109,1886.1719 L1167.5,1887.7344 L1167.5,1888.6719 L1167.5,1889.6094 L1166.2109,1891.1719 L1165,1891.1719 L1160,1891.1719 Z " fill="#000000"/><ellipse cx="1205" cy="1897.4219" fill="#84BE84" rx="7.5" ry="7.5" style="stroke:#038048;stroke-width:2.5;"/><text fill="#000000" font-family="sans-serif" font-size="30" font-style="italic" lengthAdjust="spacing" textLength="147.5" x="1220" y="1910.9473">ReaderSpi</text><line style="stroke:#3498DB;stroke-width:3.75;" x1="1122.5" x2="1372.5" y1="1938.6719" y2="1938.6719"/><text fill="#000000" font-family="sans-serif" font-size="27.5" lengthAdjust="spacing" textLength="22.5" x="1135" y="1977.2192">...</text><line style="stroke:#3498DB;stroke-width:3.75;" x1="1122.5" x2="1372.5" y1="1993.2617" y2="1993.2617"/><!--MD5=[b7f0fd29174c4bdbe9801878c5229577]
class PluginSpi--><rect codeLine="122" fill="#EBF5FB" height="154.5898" id="PluginSpi" style="stroke:#3498DB;stroke-width:3.75;" width="240" x="792.5" y="1858.6719"/><ellipse cx="830" cy="1898.6719" fill="#B4A7E5" rx="27.5" ry="27.5" style="stroke:#B4A7E5;stroke-width:2.5;"/><path d="M832.5,1891.1719 L832.5,1906.1719 L837.5,1906.1719 L838.7109,1906.1719 L840,1907.7344 L840,1908.6719 L840,1909.6094 L838.7109,1911.1719 L837.5,1911.1719 L822.5,1911.1719 L821.2891,1911.1719 L820,1909.6094 L820,1908.6719 L820,1907.7344 L821.2891,1906.1719 L822.5,1906.1719 L827.5,1906.1719 L827.5,1891.1719 L822.5,1891.1719 L821.2891,1891.1719 L820,1889.6094 L820,1888.6719 L820,1887.7344 L821.2891,1886.1719 L822.5,1886.1719 L837.5,1886.1719 L838.7109,1886.1719 L840,1887.7344 L840,1888.6719 L840,1889.6094 L838.7109,1891.1719 L837.5,1891.1719 L832.5,1891.1719 Z " fill="#000000"/><ellipse cx="877.5" cy="1897.4219" fill="#84BE84" rx="7.5" ry="7.5" style="stroke:#038048;stroke-width:2.5;"/><text fill="#000000" font-family="sans-serif" font-size="30" font-style="italic" lengthAdjust="spacing" textLength="132.5" x="892.5" y="1910.9473">PluginSpi</text><line style="stroke:#3498DB;stroke-width:3.75;" x1="795" x2="1030" y1="1938.6719" y2="1938.6719"/><text fill="#000000" font-family="sans-serif" font-size="27.5" lengthAdjust="spacing" textLength="22.5" x="807.5" y="1977.2192">...</text><line style="stroke:#3498DB;stroke-width:3.75;" x1="795" x2="1030" y1="1993.2617" y2="1993.2617"/><!--MD5=[1dbdc6fbf367d908234c3412457bed60]
class PluginFactorySpi--><rect codeLine="123" fill="#EBF5FB" height="154.5898" id="PluginFactorySpi" style="stroke:#3498DB;stroke-width:3.75;" width="340" x="365" y="1858.6719"/><ellipse cx="402.5" cy="1898.6719" fill="#B4A7E5" rx="27.5" ry="27.5" style="stroke:#B4A7E5;stroke-width:2.5;"/><path d="M405,1891.1719 L405,1906.1719 L410,1906.1719 L411.2109,1906.1719 L412.5,1907.7344 L412.5,1908.6719 L412.5,1909.6094 L411.2109,1911.1719 L410,1911.1719 L395,1911.1719 L393.7891,1911.1719 L392.5,1909.6094 L392.5,1908.6719 L392.5,1907.7344 L393.7891,1906.1719 L395,1906.1719 L400,1906.1719 L400,1891.1719 L395,1891.1719 L393.7891,1891.1719 L392.5,1889.6094 L392.5,1888.6719 L392.5,1887.7344 L393.7891,1886.1719 L395,1886.1719 L410,1886.1719 L411.2109,1886.1719 L412.5,1887.7344 L412.5,1888.6719 L412.5,1889.6094 L411.2109,1891.1719 L410,1891.1719 L405,1891.1719 Z " fill="#000000"/><ellipse cx="450" cy="1897.4219" fill="#84BE84" rx="7.5" ry="7.5" style="stroke:#038048;stroke-width:2.5;"/><text fill="#000000" font-family="sans-serif" font-size="30" font-style="italic" lengthAdjust="spacing" textLength="232.5" x="465" y="1910.9473">PluginFactorySpi</text><line style="stroke:#3498DB;stroke-width:3.75;" x1="367.5" x2="702.5" y1="1938.6719" y2="1938.6719"/><text fill="#000000" font-family="sans-serif" font-size="27.5" lengthAdjust="spacing" textLength="22.5" x="380" y="1977.2192">...</text><line style="stroke:#3498DB;stroke-width:3.75;" x1="367.5" x2="702.5" y1="1993.2617" y2="1993.2617"/><!--MD5=[77bc4349ea6438e8a74c230e5fcea155]
class xxxPluginFactoryProvider--><rect codeLine="75" fill="#FEFECE" height="154.5898" id="xxxPluginFactoryProvider" style="stroke:#D4AC0D;stroke-width:3.75;" width="522.5" x="148.75" y="793.6719"/><ellipse cx="186.25" cy="833.6719" fill="#ADD1B2" rx="27.5" ry="27.5" style="stroke:#ADD1B2;stroke-width:2.5;"/><path d="M191.25,824.9219 Q191.7578,823.6719 192.3438,823.0469 Q192.9297,822.4219 193.5938,822.4219 Q194.7656,822.4219 195.5078,823.125 Q196.25,823.8281 196.25,825.4688 L196.25,829.375 Q196.25,831.0156 195.5469,831.7188 Q194.8438,832.4219 193.75,832.4219 Q192.7734,832.4219 192.1484,831.9922 Q191.5234,831.5625 191.25,830.4297 Q191.1328,829.6484 190.7031,829.2188 Q189.9219,828.3984 188.5156,827.9297 Q187.1094,827.4219 185.7031,827.4219 Q183.9453,827.4219 182.4609,828.125 Q181.0156,828.8281 179.8828,830.3906 Q178.75,831.9531 178.75,834.1016 L178.75,836.4063 Q178.75,838.9844 180.8594,840.7031 Q182.9688,842.4219 186.7188,842.4219 Q188.9453,842.4219 190.5078,841.9141 Q191.4063,841.6406 192.4219,840.7422 Q193.0859,840.2344 193.4375,840.0781 Q193.7891,839.9219 194.2188,839.9219 Q195.0391,839.9219 195.625,840.5859 Q196.25,841.2109 196.25,842.1094 Q196.25,842.9688 195.3906,843.9844 Q194.1406,845.4688 192.1484,846.2891 Q189.5313,847.4219 186.3281,847.4219 Q182.5781,847.4219 179.5703,845.9375 Q177.1484,844.7656 175.4297,842.2266 Q173.75,839.6875 173.75,836.6797 L173.75,833.9453 Q173.75,830.8203 175.2344,828.0859 Q176.7578,825.3516 179.375,823.9063 Q182.0313,822.4219 185,822.4219 Q186.7969,822.4219 188.3594,823.0469 Q189.9219,823.6719 191.25,824.9219 Z " fill="#000000"/><ellipse cx="233.75" cy="832.4219" fill="#84BE84" rx="7.5" ry="7.5" style="stroke:#038048;stroke-width:2.5;"/><text fill="#000000" font-family="sans-serif" font-size="30" font-style="italic" font-weight="bold" lengthAdjust="spacing" textLength="60" x="248.75" y="845.9473">final</text><text fill="#000000" font-family="sans-serif" font-size="30" font-style="italic" lengthAdjust="spacing" textLength="347.5" x="316.25" y="845.9473">xxxPluginFactoryProvider</text><line style="stroke:#D4AC0D;stroke-width:3.75;" x1="151.25" x2="668.75" y1="873.6719" y2="873.6719"/><line style="stroke:#D4AC0D;stroke-width:3.75;" x1="151.25" x2="668.75" y1="893.6719" y2="893.6719"/><ellipse cx="176.25" cy="921.1719" fill="#84BE84" rx="7.5" ry="7.5" style="stroke:#038048;stroke-width:2.5;"/><text fill="#000000" font-family="sans-serif" font-size="27.5" lengthAdjust="spacing" text-decoration="underline" textLength="372.5" x="198.75" y="932.2192">xxxPluginFactory getFactory ()</text><!--MD5=[fed7f4caaf0512ced7ad550cc1121374]
class xxxPluginFactory--><rect codeLine="78" fill="#FEFECE" height="154.5898" id="xxxPluginFactory" style="stroke:#D4AC0D;stroke-width:3.75;" width="340" x="240" y="1143.6719"/><ellipse cx="277.5" cy="1183.6719" fill="#B4A7E5" rx="27.5" ry="27.5" style="stroke:#B4A7E5;stroke-width:2.5;"/><path d="M280,1176.1719 L280,1191.1719 L285,1191.1719 L286.2109,1191.1719 L287.5,1192.7344 L287.5,1193.6719 L287.5,1194.6094 L286.2109,1196.1719 L285,1196.1719 L270,1196.1719 L268.7891,1196.1719 L267.5,1194.6094 L267.5,1193.6719 L267.5,1192.7344 L268.7891,1191.1719 L270,1191.1719 L275,1191.1719 L275,1176.1719 L270,1176.1719 L268.7891,1176.1719 L267.5,1174.6094 L267.5,1173.6719 L267.5,1172.7344 L268.7891,1171.1719 L270,1171.1719 L285,1171.1719 L286.2109,1171.1719 L287.5,1172.7344 L287.5,1173.6719 L287.5,1174.6094 L286.2109,1176.1719 L285,1176.1719 L280,1176.1719 Z " fill="#000000"/><ellipse cx="325" cy="1182.4219" fill="#84BE84" rx="7.5" ry="7.5" style="stroke:#038048;stroke-width:2.5;"/><text fill="#000000" font-family="sans-serif" font-size="30" font-style="italic" lengthAdjust="spacing" textLength="232.5" x="340" y="1195.9473">xxxPluginFactory</text><line style="stroke:#D4AC0D;stroke-width:3.75;" x1="242.5" x2="577.5" y1="1223.6719" y2="1223.6719"/><text fill="#000000" font-family="sans-serif" font-size="27.5" lengthAdjust="spacing" textLength="22.5" x="255" y="1262.2192">...</text><line style="stroke:#D4AC0D;stroke-width:3.75;" x1="242.5" x2="577.5" y1="1278.2617" y2="1278.2617"/><!--MD5=[b6595d9ff200fd5ee11228c478636e60]
class xxxPlugin--><rect codeLine="81" fill="#FEFECE" height="154.5898" id="xxxPlugin" style="stroke:#D4AC0D;stroke-width:3.75;" width="240" x="847.5" y="1143.6719"/><ellipse cx="885" cy="1183.6719" fill="#B4A7E5" rx="27.5" ry="27.5" style="stroke:#B4A7E5;stroke-width:2.5;"/><path d="M887.5,1176.1719 L887.5,1191.1719 L892.5,1191.1719 L893.7109,1191.1719 L895,1192.7344 L895,1193.6719 L895,1194.6094 L893.7109,1196.1719 L892.5,1196.1719 L877.5,1196.1719 L876.2891,1196.1719 L875,1194.6094 L875,1193.6719 L875,1192.7344 L876.2891,1191.1719 L877.5,1191.1719 L882.5,1191.1719 L882.5,1176.1719 L877.5,1176.1719 L876.2891,1176.1719 L875,1174.6094 L875,1173.6719 L875,1172.7344 L876.2891,1171.1719 L877.5,1171.1719 L892.5,1171.1719 L893.7109,1171.1719 L895,1172.7344 L895,1173.6719 L895,1174.6094 L893.7109,1176.1719 L892.5,1176.1719 L887.5,1176.1719 Z " fill="#000000"/><ellipse cx="932.5" cy="1182.4219" fill="#84BE84" rx="7.5" ry="7.5" style="stroke:#038048;stroke-width:2.5;"/><text fill="#000000" font-family="sans-serif" font-size="30" font-style="italic" lengthAdjust="spacing" textLength="132.5" x="947.5" y="1195.9473">xxxPlugin</text><line style="stroke:#D4AC0D;stroke-width:3.75;" x1="850" x2="1085" y1="1223.6719" y2="1223.6719"/><text fill="#000000" font-family="sans-serif" font-size="27.5" lengthAdjust="spacing" textLength="22.5" x="862.5" y="1262.2192">...</text><line style="stroke:#D4AC0D;stroke-width:3.75;" x1="850" x2="1085" y1="1278.2617" y2="1278.2617"/><!--MD5=[03f21e7ee5cc95940abd9e7870696a6e]
class xxxReader--><rect codeLine="84" fill="#FEFECE" height="154.5898" id="xxxReader" style="stroke:#D4AC0D;stroke-width:3.75;" width="255" x="1335" y="1143.6719"/><ellipse cx="1372.5" cy="1183.6719" fill="#B4A7E5" rx="27.5" ry="27.5" style="stroke:#B4A7E5;stroke-width:2.5;"/><path d="M1375,1176.1719 L1375,1191.1719 L1380,1191.1719 L1381.2109,1191.1719 L1382.5,1192.7344 L1382.5,1193.6719 L1382.5,1194.6094 L1381.2109,1196.1719 L1380,1196.1719 L1365,1196.1719 L1363.7891,1196.1719 L1362.5,1194.6094 L1362.5,1193.6719 L1362.5,1192.7344 L1363.7891,1191.1719 L1365,1191.1719 L1370,1191.1719 L1370,1176.1719 L1365,1176.1719 L1363.7891,1176.1719 L1362.5,1174.6094 L1362.5,1173.6719 L1362.5,1172.7344 L1363.7891,1171.1719 L1365,1171.1719 L1380,1171.1719 L1381.2109,1171.1719 L1382.5,1172.7344 L1382.5,1173.6719 L1382.5,1174.6094 L1381.2109,1176.1719 L1380,1176.1719 L1375,1176.1719 Z " fill="#000000"/><ellipse cx="1420" cy="1182.4219" fill="#84BE84" rx="7.5" ry="7.5" style="stroke:#038048;stroke-width:2.5;"/><text fill="#000000" font-family="sans-serif" font-size="30" font-style="italic" lengthAdjust="spacing" textLength="147.5" x="1435" y="1195.9473">xxxReader</text><line style="stroke:#D4AC0D;stroke-width:3.75;" x1="1337.5" x2="1587.5" y1="1223.6719" y2="1223.6719"/><text fill="#000000" font-family="sans-serif" font-size="27.5" lengthAdjust="spacing" textLength="22.5" x="1350" y="1262.2192">...</text><line style="stroke:#D4AC0D;stroke-width:3.75;" x1="1337.5" x2="1587.5" y1="1278.2617" y2="1278.2617"/><!--MD5=[d53123d7850983a38423ef8749767f29]
class xxxPluginFactoryAdapter--><rect codeLine="120" fill="#EBF5FB" height="154.5898" id="xxxPluginFactoryAdapter" style="stroke:#3498DB;stroke-width:3.75;" width="515" x="120" y="1451.1719"/><ellipse cx="157.5" cy="1491.1719" fill="#ADD1B2" rx="27.5" ry="27.5" style="stroke:#ADD1B2;stroke-width:2.5;"/><path d="M162.5,1482.4219 Q163.0078,1481.1719 163.5938,1480.5469 Q164.1797,1479.9219 164.8438,1479.9219 Q166.0156,1479.9219 166.7578,1480.625 Q167.5,1481.3281 167.5,1482.9688 L167.5,1486.875 Q167.5,1488.5156 166.7969,1489.2188 Q166.0938,1489.9219 165,1489.9219 Q164.0234,1489.9219 163.3984,1489.4922 Q162.7734,1489.0625 162.5,1487.9297 Q162.3828,1487.1484 161.9531,1486.7188 Q161.1719,1485.8984 159.7656,1485.4297 Q158.3594,1484.9219 156.9531,1484.9219 Q155.1953,1484.9219 153.7109,1485.625 Q152.2656,1486.3281 151.1328,1487.8906 Q150,1489.4531 150,1491.6016 L150,1493.9063 Q150,1496.4844 152.1094,1498.2031 Q154.2188,1499.9219 157.9688,1499.9219 Q160.1953,1499.9219 161.7578,1499.4141 Q162.6563,1499.1406 163.6719,1498.2422 Q164.3359,1497.7344 164.6875,1497.5781 Q165.0391,1497.4219 165.4688,1497.4219 Q166.2891,1497.4219 166.875,1498.0859 Q167.5,1498.7109 167.5,1499.6094 Q167.5,1500.4688 166.6406,1501.4844 Q165.3906,1502.9688 163.3984,1503.7891 Q160.7813,1504.9219 157.5781,1504.9219 Q153.8281,1504.9219 150.8203,1503.4375 Q148.3984,1502.2656 146.6797,1499.7266 Q145,1497.1875 145,1494.1797 L145,1491.4453 Q145,1488.3203 146.4844,1485.5859 Q148.0078,1482.8516 150.625,1481.4063 Q153.2813,1479.9219 156.25,1479.9219 Q158.0469,1479.9219 159.6094,1480.5469 Q161.1719,1481.1719 162.5,1482.4219 Z " fill="#000000"/><polygon fill="#4177AF" points="205,1479.9219,195,1494.9219,215,1494.9219" style="stroke:#1963A0;stroke-width:2.5;"/><text fill="#000000" font-family="sans-serif" font-size="30" font-style="italic" font-weight="bold" lengthAdjust="spacing" textLength="60" x="220" y="1503.4473">final</text><text fill="#000000" font-family="sans-serif" font-size="30" font-style="italic" lengthAdjust="spacing" textLength="340" x="287.5" y="1503.4473">xxxPluginFactoryAdapter</text><line style="stroke:#3498DB;stroke-width:3.75;" x1="122.5" x2="632.5" y1="1531.1719" y2="1531.1719"/><text fill="#000000" font-family="sans-serif" font-size="27.5" lengthAdjust="spacing" textLength="22.5" x="135" y="1569.7192">...</text><line style="stroke:#3498DB;stroke-width:3.75;" x1="122.5" x2="632.5" y1="1585.7617" y2="1585.7617"/><!--MD5=[8ece71be35db894bbdb7ce101967af56]
class xxxPluginAdapter--><rect codeLine="119" fill="#EBF5FB" height="154.5898" id="xxxPluginAdapter" style="stroke:#3498DB;stroke-width:3.75;" width="415" x="722.5" y="1451.1719"/><ellipse cx="760" cy="1491.1719" fill="#ADD1B2" rx="27.5" ry="27.5" style="stroke:#ADD1B2;stroke-width:2.5;"/><path d="M765,1482.4219 Q765.5078,1481.1719 766.0938,1480.5469 Q766.6797,1479.9219 767.3438,1479.9219 Q768.5156,1479.9219 769.2578,1480.625 Q770,1481.3281 770,1482.9688 L770,1486.875 Q770,1488.5156 769.2969,1489.2188 Q768.5938,1489.9219 767.5,1489.9219 Q766.5234,1489.9219 765.8984,1489.4922 Q765.2734,1489.0625 765,1487.9297 Q764.8828,1487.1484 764.4531,1486.7188 Q763.6719,1485.8984 762.2656,1485.4297 Q760.8594,1484.9219 759.4531,1484.9219 Q757.6953,1484.9219 756.2109,1485.625 Q754.7656,1486.3281 753.6328,1487.8906 Q752.5,1489.4531 752.5,1491.6016 L752.5,1493.9063 Q752.5,1496.4844 754.6094,1498.2031 Q756.7188,1499.9219 760.4688,1499.9219 Q762.6953,1499.9219 764.2578,1499.4141 Q765.1563,1499.1406 766.1719,1498.2422 Q766.8359,1497.7344 767.1875,1497.5781 Q767.5391,1497.4219 767.9688,1497.4219 Q768.7891,1497.4219 769.375,1498.0859 Q770,1498.7109 770,1499.6094 Q770,1500.4688 769.1406,1501.4844 Q767.8906,1502.9688 765.8984,1503.7891 Q763.2813,1504.9219 760.0781,1504.9219 Q756.3281,1504.9219 753.3203,1503.4375 Q750.8984,1502.2656 749.1797,1499.7266 Q747.5,1497.1875 747.5,1494.1797 L747.5,1491.4453 Q747.5,1488.3203 748.9844,1485.5859 Q750.5078,1482.8516 753.125,1481.4063 Q755.7813,1479.9219 758.75,1479.9219 Q760.5469,1479.9219 762.1094,1480.5469 Q763.6719,1481.1719 765,1482.4219 Z " fill="#000000"/><polygon fill="#4177AF" points="807.5,1479.9219,797.5,1494.9219,817.5,1494.9219" style="stroke:#1963A0;stroke-width:2.5;"/><text fill="#000000" font-family="sans-serif" font-size="30" font-style="italic" font-weight="bold" lengthAdjust="spacing" textLength="60" x="822.5" y="1503.4473">final</text><text fill="#000000" font-family="sans-serif" font-size="30" font-style="italic" lengthAdjust="spacing" textLength="240" x="890" y="1503.4473">xxxPluginAdapter</text><line style="stroke:#3498DB;stroke-width:3.75;" x1="725" x2="1135" y1="1531.1719" y2="1531.1719"/><text fill="#000000" font-family="sans-serif" font-size="27.5" lengthAdjust="spacing" textLength="22.5" x="737.5" y="1569.7192">...</text><line style="stroke:#3498DB;stroke-width:3.75;" x1="725" x2="1135" y1="1585.7617" y2="1585.7617"/><!--MD5=[07c06fae09c9cf5c6584283f7934f2e9]
class xxxReaderAdapter--><rect codeLine="118" fill="#EBF5FB" height="154.5898" id="xxxReaderAdapter" style="stroke:#3498DB;stroke-width:3.75;" width="430" x="1225" y="1451.1719"/><ellipse cx="1262.5" cy="1491.1719" fill="#ADD1B2" rx="27.5" ry="27.5" style="stroke:#ADD1B2;stroke-width:2.5;"/><path d="M1267.5,1482.4219 Q1268.0078,1481.1719 1268.5938,1480.5469 Q1269.1797,1479.9219 1269.8438,1479.9219 Q1271.0156,1479.9219 1271.7578,1480.625 Q1272.5,1481.3281 1272.5,1482.9688 L1272.5,1486.875 Q1272.5,1488.5156 1271.7969,1489.2188 Q1271.0938,1489.9219 1270,1489.9219 Q1269.0234,1489.9219 1268.3984,1489.4922 Q1267.7734,1489.0625 1267.5,1487.9297 Q1267.3828,1487.1484 1266.9531,1486.7188 Q1266.1719,1485.8984 1264.7656,1485.4297 Q1263.3594,1484.9219 1261.9531,1484.9219 Q1260.1953,1484.9219 1258.7109,1485.625 Q1257.2656,1486.3281 1256.1328,1487.8906 Q1255,1489.4531 1255,1491.6016 L1255,1493.9063 Q1255,1496.4844 1257.1094,1498.2031 Q1259.2188,1499.9219 1262.9688,1499.9219 Q1265.1953,1499.9219 1266.7578,1499.4141 Q1267.6563,1499.1406 1268.6719,1498.2422 Q1269.3359,1497.7344 1269.6875,1497.5781 Q1270.0391,1497.4219 1270.4688,1497.4219 Q1271.2891,1497.4219 1271.875,1498.0859 Q1272.5,1498.7109 1272.5,1499.6094 Q1272.5,1500.4688 1271.6406,1501.4844 Q1270.3906,1502.9688 1268.3984,1503.7891 Q1265.7813,1504.9219 1262.5781,1504.9219 Q1258.8281,1504.9219 1255.8203,1503.4375 Q1253.3984,1502.2656 1251.6797,1499.7266 Q1250,1497.1875 1250,1494.1797 L1250,1491.4453 Q1250,1488.3203 1251.4844,1485.5859 Q1253.0078,1482.8516 1255.625,1481.4063 Q1258.2813,1479.9219 1261.25,1479.9219 Q1263.0469,1479.9219 1264.6094,1480.5469 Q1266.1719,1481.1719 1267.5,1482.4219 Z " fill="#000000"/><polygon fill="#4177AF" points="1310,1479.9219,1300,1494.9219,1320,1494.9219" style="stroke:#1963A0;stroke-width:2.5;"/><text fill="#000000" font-family="sans-serif" font-size="30" font-style="italic" font-weight="bold" lengthAdjust="spacing" textLength="60" x="1325" y="1503.4473">final</text><text fill="#000000" font-family="sans-serif" font-size="30" font-style="italic" lengthAdjust="spacing" textLength="255" x="1392.5" y="1503.4473">xxxReaderAdapter</text><line style="stroke:#3498DB;stroke-width:3.75;" x1="1227.5" x2="1652.5" y1="1531.1719" y2="1531.1719"/><text fill="#000000" font-family="sans-serif" font-size="27.5" lengthAdjust="spacing" textLength="22.5" x="1240" y="1569.7192">...</text><line style="stroke:#3498DB;stroke-width:3.75;" x1="1227.5" x2="1652.5" y1="1585.7617" y2="1585.7617"/><!--MD5=[a197c206781717b4a594300115978dc2]
reverse link KeyplePluginExtensionFactory to xxxPluginFactory--><path d="M600.67,527.0769 C646.21,556.9869 689.24,595.5369 715,643.6719 C778.9625,763.1869 770.6575,825.0694 715,948.6719 C678.415,1029.9194 603.9575,1096.5969 537.77,1143.3644 " fill="none" id="KeyplePluginExtensionFactory-backto-xxxPluginFactory" style="stroke:#A80036;stroke-width:2.5;"/><polygon fill="none" points="591.6925,542.0994,557.645,501.5144,609.57,512.0094,591.6925,542.0994" style="stroke:#A80036;stroke-width:2.5;"/><!--MD5=[1feb98c6a67c5603dfb07d8bcca8af5c]
reverse link KeyplePluginExtension to xxxPlugin--><path d="M976.11,551.4769 C974.055,710.5869 970.265,1004.3594 968.48,1142.7694 " fill="none" id="KeyplePluginExtension-backto-xxxPlugin" style="stroke:#A80036;stroke-width:2.5;"/><polygon fill="none" points="958.6125,551.0594,976.7575,501.2894,993.61,551.5119,958.6125,551.0594" style="stroke:#A80036;stroke-width:2.5;"/><!--MD5=[0ab2d561ae8ab1eb55d58fc9385da973]
reverse link KeypleReaderExtension to xxxReader--><path d="M1492.6325,551.4769 C1485.445,710.5869 1472.1775,1004.3594 1465.9275,1142.7694 " fill="none" id="KeypleReaderExtension-backto-xxxReader" style="stroke:#A80036;stroke-width:2.5;"/><polygon fill="none" points="1475.16,550.4494,1494.8975,501.2894,1510.125,552.0294,1475.16,550.4494" style="stroke:#A80036;stroke-width:2.5;"/><!--MD5=[a6f494627ac1f6d160b993f842e395ad]
reverse link xxxPluginFactory to xxxPluginFactoryAdapter--><path d="M396.5225,1349.1219 C392.8225,1383.5619 388.9225,1419.8444 385.6275,1450.5344 " fill="none" id="xxxPluginFactory-backto-xxxPluginFactoryAdapter" style="stroke:#A80036;stroke-width:2.5;stroke-dasharray:7.0,7.0;"/><polygon fill="none" points="379.1425,1347.0694,401.8825,1299.2244,413.94,1350.8094,379.1425,1347.0694" style="stroke:#A80036;stroke-width:2.5;"/><!--MD5=[d093d989c17d5030eb0af60f2f7e8d01]
reverse link PluginFactorySpi to xxxPluginFactoryAdapter--><path d="M487.6725,1810.2894 C476.98,1782.5944 465.645,1753.3619 455,1726.1719 C439.595,1686.8219 422.2375,1643.0944 407.8625,1607.0369 " fill="none" id="PluginFactorySpi-backto-xxxPluginFactoryAdapter" style="stroke:#A80036;stroke-width:2.5;stroke-dasharray:7.0,7.0;"/><polygon fill="none" points="504.295,1804.7644,505.93,1857.7124,471.6325,1817.3394,504.295,1804.7644" style="stroke:#A80036;stroke-width:2.5;"/><!--MD5=[3c91dbfb9fee07978691f71bc8cd5e2b]
link xxxPluginFactoryAdapter to PluginFactorySpi--><!--MD5=[271deee5782a9355c6bea53129dbee95]
reverse link xxxPlugin to xxxPluginAdapter--><path d="M951.9475,1349.1219 C947.68,1383.5619 943.18,1419.8444 939.3775,1450.5344 " fill="none" id="xxxPlugin-backto-xxxPluginAdapter" style="stroke:#A80036;stroke-width:2.5;stroke-dasharray:7.0,7.0;"/><polygon fill="none" points="934.615,1346.6919,958.135,1299.2244,969.35,1350.9994,934.615,1346.6919" style="stroke:#A80036;stroke-width:2.5;"/><!--MD5=[ae7d2a44faa546b30b2b33127fda7395]
reverse link PluginSpi to xxxPluginAdapter--><path d="M922.96,1807.1619 C924.765,1781.2169 926.41,1754.0744 927.5,1728.6719 C929.2325,1688.2469 929.9,1643.1269 930.115,1606.2294 " fill="none" id="PluginSpi-backto-xxxPluginAdapter" style="stroke:#A80036;stroke-width:2.5;stroke-dasharray:7.0,7.0;"/><polygon fill="none" points="940.3525,1809.2519,919.15,1857.7986,905.45,1806.6269,940.3525,1809.2519" style="stroke:#A80036;stroke-width:2.5;"/><!--MD5=[75858b59b3be0c77ecba62d772b2e4da]
link xxxPluginAdapter to PluginSpi--><!--MD5=[bc8081b56b498a2c8419014c1c2cae76]
reverse link xxxReader to xxxReaderAdapter--><path d="M1453.17,1349.1219 C1450.6075,1383.5619 1447.9075,1419.8444 1445.625,1450.5344 " fill="none" id="xxxReader-backto-xxxReaderAdapter" style="stroke:#A80036;stroke-width:2.5;stroke-dasharray:7.0,7.0;"/><polygon fill="none" points="1435.72,1347.7894,1456.88,1299.2244,1470.6225,1350.3844,1435.72,1347.7894" style="stroke:#A80036;stroke-width:2.5;"/><!--MD5=[0a19e51effe33bcc6cb4dabf8e9f653f]
reverse link ReaderSpi to xxxReaderAdapter--><path d="M1305.3825,1812.6444 C1337.3625,1745.7794 1376.0975,1664.7844 1403.7925,1606.8794 " fill="none" id="ReaderSpi-backto-xxxReaderAdapter" style="stroke:#A80036;stroke-width:2.5;stroke-dasharray:7.0,7.0;"/><polygon fill="none" points="1320.905,1820.7469,1283.545,1858.3041,1289.33,1805.6469,1320.905,1820.7469" style="stroke:#A80036;stroke-width:2.5;"/><!--MD5=[3e9a5859282d1b950c3a91ee90840c6f]
link xxxReaderAdapter to ReaderSpi--><!--MD5=[1d864dc9092778b2b49207ead16ab856]
link xxxPluginFactoryProvider to xxxPluginFactory--><path codeLine="101" d="M410,949.3844 C410,1002.6369 410,1074.0844 410,1130.0044 " fill="none" id="xxxPluginFactoryProvider-to-xxxPluginFactory" style="stroke:#3498DB;stroke-width:2.5;stroke-dasharray:7.0,7.0;"/><polygon fill="#3498DB" points="410,1143.1369,420,1120.6369,410,1130.6369,400,1120.6369,410,1143.1369" style="stroke:#3498DB;stroke-width:2.5;"/><polygon fill="#000000" points="422.5,1059.1113,429.8473,1036.4986,415.1527,1036.4986,422.5,1059.1113" style="stroke:#000000;stroke-width:2.5;"/><text fill="#000000" font-family="sans-serif" font-size="32.5" lengthAdjust="spacing" textLength="100" x="445" y="1059.9097">provide</text><!--MD5=[f12a7db843c52300ea996d5d7ce2d1a4]
reverse link xxxPluginFactoryAdapter to xxxPluginAdapter--><path codeLine="102" d="M668.445,1528.6719 C686.2,1528.6719 703.9575,1528.6719 721.7125,1528.6719 " fill="none" id="xxxPluginFactoryAdapter-backto-xxxPluginAdapter" style="stroke:#3498DB;stroke-width:2.5;"/><polygon fill="#3498DB" points="635.405,1528.6719,650.405,1538.6719,665.405,1528.6719,650.405,1518.6719,635.405,1528.6719" style="stroke:#3498DB;stroke-width:2.5;"/><text fill="#000000" font-family="sans-serif" font-size="32.5" lengthAdjust="spacing" textLength="17.5" x="684.8826" y="1520.6858">1</text><!--MD5=[bf2e205f614f249ca537db048d149975]
reverse link xxxPluginAdapter to xxxReaderAdapter--><path codeLine="103" d="M1171.13,1528.6719 C1188.8375,1528.6719 1206.5425,1528.6719 1224.2475,1528.6719 " fill="none" id="xxxPluginAdapter-backto-xxxReaderAdapter" style="stroke:#3498DB;stroke-width:2.5;"/><polygon fill="#3498DB" points="1138.1825,1528.6719,1153.1825,1538.6719,1168.1825,1528.6719,1153.1825,1518.6719,1138.1825,1528.6719" style="stroke:#3498DB;stroke-width:2.5;"/><text fill="#000000" font-family="sans-serif" font-size="32.5" lengthAdjust="spacing" textLength="60" x="1144.6641" y="1520.8673">0..N</text><!--MD5=[582bb027a136a6e6186f17ef7f8e0db6]
link commonsApi to specificPluginApi--><!--MD5=[0593702ad70290cbb7aad3e430c9e77d]
@startuml
title
    Keyple 2.0 - Specific Plugin - 2.0.0 (19/02/2021)
end title

' == THEME ==

'Couleurs issues de : https://htmlcolorcodes.com/fr/tableau-de-couleur/tableau-de-couleur-design-plat/
!define C_GREY1 F8F9F9
!define C_GREY2 F2F3F4
!define C_GREY3 E5E7E9
!define C_GREY4 D7DBDD
!define C_GREY5 CACFD2
!define C_GREY6 BDC3C7
!define C_LINK 3498DB
!define C_USE 27AE60

skinparam Shadowing false
skinparam ClassFontStyle italic
skinparam ClassBorderColor #D4AC0D
skinparam stereotypeABorderColor #A9DCDF
skinparam stereotypeIBorderColor #B4A7E5
skinparam stereotypeCBorderColor #ADD1B2
skinparam stereotypeEBorderColor #EB93DF
' Red
skinparam ClassBackgroundColor<<red>> #FDEDEC
skinparam ClassBorderColor<<red>> #E74C3C
hide <<red>> stereotype
' Purple
skinparam ClassBackgroundColor<<purple>> #F4ECF7
skinparam ClassBorderColor<<purple>> #8E44AD
hide <<purple>> stereotype
' blue
skinparam ClassBackgroundColor<<blue>> #EBF5FB
skinparam ClassBorderColor<<blue>> #3498DB
hide <<blue>> stereotype
' Green
skinparam ClassBackgroundColor<<green>> #E9F7EF
skinparam ClassBorderColor<<green>> #27AE60
hide <<green>> stereotype
' Grey
skinparam ClassBackgroundColor<<grey>> #EAECEE
skinparam ClassBorderColor<<grey>> #2C3E50
hide <<grey>> stereotype

' == CONTENT ==

legend top
    __Colors legend__ :
    * <back:yellow>Public API for end users</back>
    * <back:lightBlue>Private API for internal use only</back>
end legend

package "org.eclipse.keyple.core.common" as commonsApi {
    +interface KeyplePluginExtensionFactory {
    }
    +interface KeyplePluginExtension {
    }
    +interface KeypleReaderExtension {
    }
}

package "org.eclipse.keyple.core.plugin.spi" as pluginSpi {
    +interface ReaderSpi {
        ...
    }
    +interface PluginSpi {
        ...
    }
    +interface PluginFactorySpi {
        ...
    }
}

package "org.eclipse.keyple.plugin.xxx (specific plugin)" as specificPluginApi {
    +class "**final** xxxPluginFactoryProvider" as xxxPluginFactoryProvider {
        +{static} xxxPluginFactory getFactory ()
    }
    +interface xxxPluginFactory extends KeyplePluginExtensionFactory {
        ...
    }
    +interface xxxPlugin extends KeyplePluginExtension {
        ...
    }
    +interface xxxReader extends KeypleReaderExtension {
        ...
    }
    ' Adapters
    ~class "**final** xxxPluginFactoryAdapter" as xxxPluginFactoryAdapter implements xxxPluginFactory, PluginFactorySpi {
        ...
    }
    ~class "**final** xxxPluginAdapter" as xxxPluginAdapter implements xxxPlugin, PluginSpi {
        ...
    }
    ~class "**final** xxxReaderAdapter" as xxxReaderAdapter implements xxxReader, ReaderSpi {
        ...
    }
}

' Associations

xxxPluginFactoryProvider ..> xxxPluginFactory #C_LINK : provide >
xxxPluginFactoryAdapter *- "1" xxxPluginAdapter #C_LINK
xxxPluginAdapter *- "0..N" xxxReaderAdapter #C_LINK

' == LAYOUT ==

commonsApi -[hidden]- specificPluginApi
xxxReaderAdapter -[hidden]- ReaderSpi
xxxPluginAdapter -[hidden]- PluginSpi
xxxPluginFactoryAdapter -[hidden]- PluginFactorySpi

' == STYLE ==

package commonsApi #C_GREY1 {}
package pluginSpi #C_GREY1 {}
package specificPluginApi #C_GREY1 {}

class xxxReaderAdapter <<blue>>
class xxxPluginAdapter <<blue>>
class xxxPluginFactoryAdapter <<blue>>
interface ReaderSpi <<blue>>
interface PluginSpi <<blue>>
interface PluginFactorySpi <<blue>>

@enduml

@startuml
title
    Keyple 2.0 - Specific Plugin - 2.0.0 (19/02/2021)
end title



skinparam Shadowing false
skinparam ClassFontStyle italic
skinparam ClassBorderColor #D4AC0D
skinparam stereotypeABorderColor #A9DCDF
skinparam stereotypeIBorderColor #B4A7E5
skinparam stereotypeCBorderColor #ADD1B2
skinparam stereotypeEBorderColor #EB93DF
skinparam ClassBackgroundColor<<red>> #FDEDEC
skinparam ClassBorderColor<<red>> #E74C3C
hide <<red>> stereotype
skinparam ClassBackgroundColor<<purple>> #F4ECF7
skinparam ClassBorderColor<<purple>> #8E44AD
hide <<purple>> stereotype
skinparam ClassBackgroundColor<<blue>> #EBF5FB
skinparam ClassBorderColor<<blue>> #3498DB
hide <<blue>> stereotype
skinparam ClassBackgroundColor<<green>> #E9F7EF
skinparam ClassBorderColor<<green>> #27AE60
hide <<green>> stereotype
skinparam ClassBackgroundColor<<grey>> #EAECEE
skinparam ClassBorderColor<<grey>> #2C3E50
hide <<grey>> stereotype


legend top
    __Colors legend__ :
    * <back:yellow>Public API for end users</back>
    * <back:lightBlue>Private API for internal use only</back>
end legend

package "org.eclipse.keyple.core.common" as commonsApi {
    +interface KeyplePluginExtensionFactory {
    }
    +interface KeyplePluginExtension {
    }
    +interface KeypleReaderExtension {
    }
}

package "org.eclipse.keyple.core.plugin.spi" as pluginSpi {
    +interface ReaderSpi {
        ...
    }
    +interface PluginSpi {
        ...
    }
    +interface PluginFactorySpi {
        ...
    }
}

package "org.eclipse.keyple.plugin.xxx (specific plugin)" as specificPluginApi {
    +class "**final** xxxPluginFactoryProvider" as xxxPluginFactoryProvider {
        +{static} xxxPluginFactory getFactory ()
    }
    +interface xxxPluginFactory extends KeyplePluginExtensionFactory {
        ...
    }
    +interface xxxPlugin extends KeyplePluginExtension {
        ...
    }
    +interface xxxReader extends KeypleReaderExtension {
        ...
    }
    ~class "**final** xxxPluginFactoryAdapter" as xxxPluginFactoryAdapter implements xxxPluginFactory, PluginFactorySpi {
        ...
    }
    ~class "**final** xxxPluginAdapter" as xxxPluginAdapter implements xxxPlugin, PluginSpi {
        ...
    }
    ~class "**final** xxxReaderAdapter" as xxxReaderAdapter implements xxxReader, ReaderSpi {
        ...
    }
}


xxxPluginFactoryProvider ..> xxxPluginFactory #3498DB : provide >
xxxPluginFactoryAdapter *- "1" xxxPluginAdapter #3498DB
xxxPluginAdapter *- "0..N" xxxReaderAdapter #3498DB


commonsApi -[hidden]- specificPluginApi
xxxReaderAdapter -[hidden]- ReaderSpi
xxxPluginAdapter -[hidden]- PluginSpi
xxxPluginFactoryAdapter -[hidden]- PluginFactorySpi


package commonsApi #F8F9F9 {}
package pluginSpi #F8F9F9 {}
package specificPluginApi #F8F9F9 {}

class xxxReaderAdapter <<blue>>
class xxxPluginAdapter <<blue>>
class xxxPluginFactoryAdapter <<blue>>
interface ReaderSpi <<blue>>
interface PluginSpi <<blue>>
interface PluginFactorySpi <<blue>>

@enduml

PlantUML version 1.2021.7(Sun May 23 14:40:07 CEST 2021)
(GPL source distribution)
Java Runtime: OpenJDK Runtime Environment
JVM: Dynamic Code Evolution 64-Bit Server VM
Default Encoding: Cp1252
Language: fr
Country: FR
--></g></svg>