<?xml version="1.0" encoding="UTF-8" standalone="no"?><svg xmlns="http://www.w3.org/2000/svg" xmlns:xlink="http://www.w3.org/1999/xlink" contentScriptType="application/ecmascript" contentStyleType="text/css" height="1520px" preserveAspectRatio="none" style="width:2477px;height:1520px;" version="1.1" viewBox="0 0 2477 1520" width="2477.5px" zoomAndPan="magnify"><defs/><g><text fill="#000000" font-family="sans-serif" font-size="45" lengthAdjust="spacing" textLength="1327.5" x="558.75" y="46.7139">Keyple 2.0 - Specific Distributed Local Service - 2.0.0 (08/03/2021)</text><!--MD5=[621c849533070c5aba8aa732369aa9f8]
cluster commonsApi--><polygon fill="#F8F9F9" points="750,71.6016,1335,71.6016,1352.5,130.625,2435,130.625,2435,361.6016,750,361.6016,750,71.6016" style="stroke:#000000;stroke-width:3.75;"/><line style="stroke:#000000;stroke-width:3.75;" x1="750" x2="1352.5" y1="130.625" y2="130.625"/><text fill="#000000" font-family="sans-serif" font-size="35" font-weight="bold" lengthAdjust="spacing" textLength="570" x="760" y="112.9346">org.eclipse.keyple.core.common</text><!--MD5=[4ab15a897933482ba12a6ad640dff6f8]
cluster distributedLocalSpi--><polygon fill="#F8F9F9" points="1102.5,1219.1016,1887.5,1219.1016,1905,1278.125,2030,1278.125,2030,1504.1016,1102.5,1504.1016,1102.5,1219.1016" style="stroke:#000000;stroke-width:3.75;"/><line style="stroke:#000000;stroke-width:3.75;" x1="1102.5" x2="1905" y1="1278.125" y2="1278.125"/><text fill="#000000" font-family="sans-serif" font-size="35" font-weight="bold" lengthAdjust="spacing" textLength="770" x="1112.5" y="1260.4346">org.eclipse.keyple.core.distributed.local.spi</text><!--MD5=[f58994b942058ed8b057f206ca1af27c]
cluster specificDistributedLocalApi--><polygon fill="#F8F9F9" points="40,484.1016,1352.5,484.1016,1370,543.125,2342.5,543.125,2342.5,1116.6016,40,1116.6016,40,484.1016" style="stroke:#000000;stroke-width:3.75;"/><line style="stroke:#000000;stroke-width:3.75;" x1="40" x2="1370" y1="543.125" y2="543.125"/><text fill="#000000" font-family="sans-serif" font-size="35" font-weight="bold" lengthAdjust="spacing" textLength="1297.5" x="50" y="525.4346">org.eclipse.keyple.distributed.local.xxx (specific distributed local service)</text><!--MD5=[a2300e51c70a09b3b8c0440329c7d6d3]
class KeypleDistributedLocalServiceExtensionFactory--><rect codeLine="48" fill="#FEFECE" height="120" id="KeypleDistributedLocalServiceExtensionFactory" style="stroke:#D4AC0D;stroke-width:3.75;" width="765" x="857.5" y="181.6016"/><ellipse cx="895" cy="221.6016" fill="#B4A7E5" rx="27.5" ry="27.5" style="stroke:#B4A7E5;stroke-width:2.5;"/><path d="M897.5,214.1016 L897.5,229.1016 L902.5,229.1016 L903.7109,229.1016 L905,230.6641 L905,231.6016 L905,232.5391 L903.7109,234.1016 L902.5,234.1016 L887.5,234.1016 L886.2891,234.1016 L885,232.5391 L885,231.6016 L885,230.6641 L886.2891,229.1016 L887.5,229.1016 L892.5,229.1016 L892.5,214.1016 L887.5,214.1016 L886.2891,214.1016 L885,212.5391 L885,211.6016 L885,210.6641 L886.2891,209.1016 L887.5,209.1016 L902.5,209.1016 L903.7109,209.1016 L905,210.6641 L905,211.6016 L905,212.5391 L903.7109,214.1016 L902.5,214.1016 L897.5,214.1016 Z " fill="#000000"/><ellipse cx="942.5" cy="220.3516" fill="#84BE84" rx="7.5" ry="7.5" style="stroke:#038048;stroke-width:2.5;"/><text fill="#000000" font-family="sans-serif" font-size="30" font-style="italic" lengthAdjust="spacing" textLength="657.5" x="957.5" y="233.877">KeypleDistributedLocalServiceExtensionFactory</text><line style="stroke:#D4AC0D;stroke-width:3.75;" x1="860" x2="1620" y1="261.6016" y2="261.6016"/><line style="stroke:#D4AC0D;stroke-width:3.75;" x1="860" x2="1620" y1="281.6016" y2="281.6016"/><!--MD5=[2756593ddab659782225b53cebc4a27a]
class KeypleDistributedLocalServiceExtension--><rect codeLine="50" fill="#FEFECE" height="120" id="KeypleDistributedLocalServiceExtension" style="stroke:#D4AC0D;stroke-width:3.75;" width="665" x="1710" y="181.6016"/><ellipse cx="1747.5" cy="221.6016" fill="#B4A7E5" rx="27.5" ry="27.5" style="stroke:#B4A7E5;stroke-width:2.5;"/><path d="M1750,214.1016 L1750,229.1016 L1755,229.1016 L1756.2109,229.1016 L1757.5,230.6641 L1757.5,231.6016 L1757.5,232.5391 L1756.2109,234.1016 L1755,234.1016 L1740,234.1016 L1738.7891,234.1016 L1737.5,232.5391 L1737.5,231.6016 L1737.5,230.6641 L1738.7891,229.1016 L1740,229.1016 L1745,229.1016 L1745,214.1016 L1740,214.1016 L1738.7891,214.1016 L1737.5,212.5391 L1737.5,211.6016 L1737.5,210.6641 L1738.7891,209.1016 L1740,209.1016 L1755,209.1016 L1756.2109,209.1016 L1757.5,210.6641 L1757.5,211.6016 L1757.5,212.5391 L1756.2109,214.1016 L1755,214.1016 L1750,214.1016 Z " fill="#000000"/><ellipse cx="1795" cy="220.3516" fill="#84BE84" rx="7.5" ry="7.5" style="stroke:#038048;stroke-width:2.5;"/><text fill="#000000" font-family="sans-serif" font-size="30" font-style="italic" lengthAdjust="spacing" textLength="557.5" x="1810" y="233.877">KeypleDistributedLocalServiceExtension</text><line style="stroke:#D4AC0D;stroke-width:3.75;" x1="1712.5" x2="2372.5" y1="261.6016" y2="261.6016"/><line style="stroke:#D4AC0D;stroke-width:3.75;" x1="1712.5" x2="2372.5" y1="281.6016" y2="281.6016"/><!--MD5=[ba23ee47f0072bc0aa0f26e4f66e8703]
class LocalServiceFactorySpi--><rect codeLine="101" fill="#EBF5FB" height="154.5898" id="LocalServiceFactorySpi" style="stroke:#3498DB;stroke-width:3.75;" width="430" x="1142.5" y="1309.1016"/><ellipse cx="1180" cy="1349.1016" fill="#B4A7E5" rx="27.5" ry="27.5" style="stroke:#B4A7E5;stroke-width:2.5;"/><path d="M1182.5,1341.6016 L1182.5,1356.6016 L1187.5,1356.6016 L1188.7109,1356.6016 L1190,1358.1641 L1190,1359.1016 L1190,1360.0391 L1188.7109,1361.6016 L1187.5,1361.6016 L1172.5,1361.6016 L1171.2891,1361.6016 L1170,1360.0391 L1170,1359.1016 L1170,1358.1641 L1171.2891,1356.6016 L1172.5,1356.6016 L1177.5,1356.6016 L1177.5,1341.6016 L1172.5,1341.6016 L1171.2891,1341.6016 L1170,1340.0391 L1170,1339.1016 L1170,1338.1641 L1171.2891,1336.6016 L1172.5,1336.6016 L1187.5,1336.6016 L1188.7109,1336.6016 L1190,1338.1641 L1190,1339.1016 L1190,1340.0391 L1188.7109,1341.6016 L1187.5,1341.6016 L1182.5,1341.6016 Z " fill="#000000"/><ellipse cx="1227.5" cy="1347.8516" fill="#84BE84" rx="7.5" ry="7.5" style="stroke:#038048;stroke-width:2.5;"/><text fill="#000000" font-family="sans-serif" font-size="30" font-style="italic" lengthAdjust="spacing" textLength="322.5" x="1242.5" y="1361.377">LocalServiceFactorySpi</text><line style="stroke:#3498DB;stroke-width:3.75;" x1="1145" x2="1570" y1="1389.1016" y2="1389.1016"/><text fill="#000000" font-family="sans-serif" font-size="27.5" lengthAdjust="spacing" textLength="22.5" x="1157.5" y="1427.6489">...</text><line style="stroke:#3498DB;stroke-width:3.75;" x1="1145" x2="1570" y1="1443.6914" y2="1443.6914"/><!--MD5=[a6e181576af5f47505adeb022c95499b]
class LocalServiceSpi--><rect codeLine="102" fill="#EBF5FB" height="154.5898" id="LocalServiceSpi" style="stroke:#3498DB;stroke-width:3.75;" width="330" x="1660" y="1309.1016"/><ellipse cx="1697.5" cy="1349.1016" fill="#B4A7E5" rx="27.5" ry="27.5" style="stroke:#B4A7E5;stroke-width:2.5;"/><path d="M1700,1341.6016 L1700,1356.6016 L1705,1356.6016 L1706.2109,1356.6016 L1707.5,1358.1641 L1707.5,1359.1016 L1707.5,1360.0391 L1706.2109,1361.6016 L1705,1361.6016 L1690,1361.6016 L1688.7891,1361.6016 L1687.5,1360.0391 L1687.5,1359.1016 L1687.5,1358.1641 L1688.7891,1356.6016 L1690,1356.6016 L1695,1356.6016 L1695,1341.6016 L1690,1341.6016 L1688.7891,1341.6016 L1687.5,1340.0391 L1687.5,1339.1016 L1687.5,1338.1641 L1688.7891,1336.6016 L1690,1336.6016 L1705,1336.6016 L1706.2109,1336.6016 L1707.5,1338.1641 L1707.5,1339.1016 L1707.5,1340.0391 L1706.2109,1341.6016 L1705,1341.6016 L1700,1341.6016 Z " fill="#000000"/><ellipse cx="1745" cy="1347.8516" fill="#84BE84" rx="7.5" ry="7.5" style="stroke:#038048;stroke-width:2.5;"/><text fill="#000000" font-family="sans-serif" font-size="30" font-style="italic" lengthAdjust="spacing" textLength="222.5" x="1760" y="1361.377">LocalServiceSpi</text><line style="stroke:#3498DB;stroke-width:3.75;" x1="1662.5" x2="1987.5" y1="1389.1016" y2="1389.1016"/><text fill="#000000" font-family="sans-serif" font-size="27.5" lengthAdjust="spacing" textLength="22.5" x="1675" y="1427.6489">...</text><line style="stroke:#3498DB;stroke-width:3.75;" x1="1662.5" x2="1987.5" y1="1443.6914" y2="1443.6914"/><!--MD5=[a74a817d9dd53ca876673f5d2607a7ec]
class xxxDistributedLocalServiceFactoryProvider--><rect codeLine="64" fill="#FEFECE" height="154.5898" id="xxxDistributedLocalServiceFactoryProvider" style="stroke:#D4AC0D;stroke-width:3.75;" width="762.5" x="148.75" y="594.1016"/><ellipse cx="186.25" cy="634.1016" fill="#ADD1B2" rx="27.5" ry="27.5" style="stroke:#ADD1B2;stroke-width:2.5;"/><path d="M191.25,625.3516 Q191.7578,624.1016 192.3438,623.4766 Q192.9297,622.8516 193.5938,622.8516 Q194.7656,622.8516 195.5078,623.5547 Q196.25,624.2578 196.25,625.8984 L196.25,629.8047 Q196.25,631.4453 195.5469,632.1484 Q194.8438,632.8516 193.75,632.8516 Q192.7734,632.8516 192.1484,632.4219 Q191.5234,631.9922 191.25,630.8594 Q191.1328,630.0781 190.7031,629.6484 Q189.9219,628.8281 188.5156,628.3594 Q187.1094,627.8516 185.7031,627.8516 Q183.9453,627.8516 182.4609,628.5547 Q181.0156,629.2578 179.8828,630.8203 Q178.75,632.3828 178.75,634.5313 L178.75,636.8359 Q178.75,639.4141 180.8594,641.1328 Q182.9688,642.8516 186.7188,642.8516 Q188.9453,642.8516 190.5078,642.3438 Q191.4063,642.0703 192.4219,641.1719 Q193.0859,640.6641 193.4375,640.5078 Q193.7891,640.3516 194.2188,640.3516 Q195.0391,640.3516 195.625,641.0156 Q196.25,641.6406 196.25,642.5391 Q196.25,643.3984 195.3906,644.4141 Q194.1406,645.8984 192.1484,646.7188 Q189.5313,647.8516 186.3281,647.8516 Q182.5781,647.8516 179.5703,646.3672 Q177.1484,645.1953 175.4297,642.6563 Q173.75,640.1172 173.75,637.1094 L173.75,634.375 Q173.75,631.25 175.2344,628.5156 Q176.7578,625.7813 179.375,624.3359 Q182.0313,622.8516 185,622.8516 Q186.7969,622.8516 188.3594,623.4766 Q189.9219,624.1016 191.25,625.3516 Z " fill="#000000"/><ellipse cx="233.75" cy="632.8516" fill="#84BE84" rx="7.5" ry="7.5" style="stroke:#038048;stroke-width:2.5;"/><text fill="#000000" font-family="sans-serif" font-size="30" font-style="italic" font-weight="bold" lengthAdjust="spacing" textLength="60" x="248.75" y="646.377">final</text><text fill="#000000" font-family="sans-serif" font-size="30" font-style="italic" lengthAdjust="spacing" textLength="587.5" x="316.25" y="646.377">xxxDistributedLocalServiceFactoryProvider</text><line style="stroke:#D4AC0D;stroke-width:3.75;" x1="151.25" x2="908.75" y1="674.1016" y2="674.1016"/><line style="stroke:#D4AC0D;stroke-width:3.75;" x1="151.25" x2="908.75" y1="694.1016" y2="694.1016"/><ellipse cx="176.25" cy="721.6016" fill="#84BE84" rx="7.5" ry="7.5" style="stroke:#038048;stroke-width:2.5;"/><text fill="#000000" font-family="sans-serif" font-size="27.5" lengthAdjust="spacing" text-decoration="underline" textLength="587.5" x="198.75" y="732.6489">xxxDistributedLocalServiceFactory getFactory ()</text><!--MD5=[262abba3cc5e4cd64e86278d3adc4ee0]
class xxxDistributedLocalServiceFactory--><rect codeLine="67" fill="#FEFECE" height="154.5898" id="xxxDistributedLocalServiceFactory" style="stroke:#D4AC0D;stroke-width:3.75;" width="580" x="1135" y="594.1016"/><ellipse cx="1172.5" cy="634.1016" fill="#B4A7E5" rx="27.5" ry="27.5" style="stroke:#B4A7E5;stroke-width:2.5;"/><path d="M1175,626.6016 L1175,641.6016 L1180,641.6016 L1181.2109,641.6016 L1182.5,643.1641 L1182.5,644.1016 L1182.5,645.0391 L1181.2109,646.6016 L1180,646.6016 L1165,646.6016 L1163.7891,646.6016 L1162.5,645.0391 L1162.5,644.1016 L1162.5,643.1641 L1163.7891,641.6016 L1165,641.6016 L1170,641.6016 L1170,626.6016 L1165,626.6016 L1163.7891,626.6016 L1162.5,625.0391 L1162.5,624.1016 L1162.5,623.1641 L1163.7891,621.6016 L1165,621.6016 L1180,621.6016 L1181.2109,621.6016 L1182.5,623.1641 L1182.5,624.1016 L1182.5,625.0391 L1181.2109,626.6016 L1180,626.6016 L1175,626.6016 Z " fill="#000000"/><ellipse cx="1220" cy="632.8516" fill="#84BE84" rx="7.5" ry="7.5" style="stroke:#038048;stroke-width:2.5;"/><text fill="#000000" font-family="sans-serif" font-size="30" font-style="italic" lengthAdjust="spacing" textLength="472.5" x="1235" y="646.377">xxxDistributedLocalServiceFactory</text><line style="stroke:#D4AC0D;stroke-width:3.75;" x1="1137.5" x2="1712.5" y1="674.1016" y2="674.1016"/><text fill="#000000" font-family="sans-serif" font-size="27.5" lengthAdjust="spacing" textLength="22.5" x="1150" y="712.6489">...</text><line style="stroke:#D4AC0D;stroke-width:3.75;" x1="1137.5" x2="1712.5" y1="728.6914" y2="728.6914"/><!--MD5=[a9963d753abb59bff14d2d5130731241]
class xxxDistributedLocalService--><rect codeLine="70" fill="#FEFECE" height="154.5898" id="xxxDistributedLocalService" style="stroke:#D4AC0D;stroke-width:3.75;" width="480" x="1802.5" y="594.1016"/><ellipse cx="1840" cy="634.1016" fill="#B4A7E5" rx="27.5" ry="27.5" style="stroke:#B4A7E5;stroke-width:2.5;"/><path d="M1842.5,626.6016 L1842.5,641.6016 L1847.5,641.6016 L1848.7109,641.6016 L1850,643.1641 L1850,644.1016 L1850,645.0391 L1848.7109,646.6016 L1847.5,646.6016 L1832.5,646.6016 L1831.2891,646.6016 L1830,645.0391 L1830,644.1016 L1830,643.1641 L1831.2891,641.6016 L1832.5,641.6016 L1837.5,641.6016 L1837.5,626.6016 L1832.5,626.6016 L1831.2891,626.6016 L1830,625.0391 L1830,624.1016 L1830,623.1641 L1831.2891,621.6016 L1832.5,621.6016 L1847.5,621.6016 L1848.7109,621.6016 L1850,623.1641 L1850,624.1016 L1850,625.0391 L1848.7109,626.6016 L1847.5,626.6016 L1842.5,626.6016 Z " fill="#000000"/><ellipse cx="1887.5" cy="632.8516" fill="#84BE84" rx="7.5" ry="7.5" style="stroke:#038048;stroke-width:2.5;"/><text fill="#000000" font-family="sans-serif" font-size="30" font-style="italic" lengthAdjust="spacing" textLength="372.5" x="1902.5" y="646.377">xxxDistributedLocalService</text><line style="stroke:#D4AC0D;stroke-width:3.75;" x1="1805" x2="2280" y1="674.1016" y2="674.1016"/><text fill="#000000" font-family="sans-serif" font-size="27.5" lengthAdjust="spacing" textLength="22.5" x="1817.5" y="712.6489">...</text><line style="stroke:#D4AC0D;stroke-width:3.75;" x1="1805" x2="2280" y1="728.6914" y2="728.6914"/><!--MD5=[33fdf7cecd44bc133f8b96a2fe28c994]
class xxxDistributedLocalServiceFactoryAdapter--><rect codeLine="100" fill="#EBF5FB" height="154.5898" id="xxxDistributedLocalServiceFactoryAdapter" style="stroke:#3498DB;stroke-width:3.75;" width="755" x="885" y="901.6016"/><ellipse cx="922.5" cy="941.6016" fill="#ADD1B2" rx="27.5" ry="27.5" style="stroke:#ADD1B2;stroke-width:2.5;"/><path d="M927.5,932.8516 Q928.0078,931.6016 928.5938,930.9766 Q929.1797,930.3516 929.8438,930.3516 Q931.0156,930.3516 931.7578,931.0547 Q932.5,931.7578 932.5,933.3984 L932.5,937.3047 Q932.5,938.9453 931.7969,939.6484 Q931.0938,940.3516 930,940.3516 Q929.0234,940.3516 928.3984,939.9219 Q927.7734,939.4922 927.5,938.3594 Q927.3828,937.5781 926.9531,937.1484 Q926.1719,936.3281 924.7656,935.8594 Q923.3594,935.3516 921.9531,935.3516 Q920.1953,935.3516 918.7109,936.0547 Q917.2656,936.7578 916.1328,938.3203 Q915,939.8828 915,942.0313 L915,944.3359 Q915,946.9141 917.1094,948.6328 Q919.2188,950.3516 922.9688,950.3516 Q925.1953,950.3516 926.7578,949.8438 Q927.6563,949.5703 928.6719,948.6719 Q929.3359,948.1641 929.6875,948.0078 Q930.0391,947.8516 930.4688,947.8516 Q931.2891,947.8516 931.875,948.5156 Q932.5,949.1406 932.5,950.0391 Q932.5,950.8984 931.6406,951.9141 Q930.3906,953.3984 928.3984,954.2188 Q925.7813,955.3516 922.5781,955.3516 Q918.8281,955.3516 915.8203,953.8672 Q913.3984,952.6953 911.6797,950.1563 Q910,947.6172 910,944.6094 L910,941.875 Q910,938.75 911.4844,936.0156 Q913.0078,933.2813 915.625,931.8359 Q918.2813,930.3516 921.25,930.3516 Q923.0469,930.3516 924.6094,930.9766 Q926.1719,931.6016 927.5,932.8516 Z " fill="#000000"/><polygon fill="#4177AF" points="970,930.3516,960,945.3516,980,945.3516" style="stroke:#1963A0;stroke-width:2.5;"/><text fill="#000000" font-family="sans-serif" font-size="30" font-style="italic" font-weight="bold" lengthAdjust="spacing" textLength="60" x="985" y="953.877">final</text><text fill="#000000" font-family="sans-serif" font-size="30" font-style="italic" lengthAdjust="spacing" textLength="580" x="1052.5" y="953.877">xxxDistributedLocalServiceFactoryAdapter</text><line style="stroke:#3498DB;stroke-width:3.75;" x1="887.5" x2="1637.5" y1="981.6016" y2="981.6016"/><text fill="#000000" font-family="sans-serif" font-size="27.5" lengthAdjust="spacing" textLength="22.5" x="900" y="1020.1489">...</text><line style="stroke:#3498DB;stroke-width:3.75;" x1="887.5" x2="1637.5" y1="1036.1914" y2="1036.1914"/><!--MD5=[8f3105d06d3e945a70a28bfcc5abce4d]
class xxxDistributedLocalAdapter--><rect codeLine="99" fill="#EBF5FB" height="154.5898" id="xxxDistributedLocalAdapter" style="stroke:#3498DB;stroke-width:3.75;" width="552.5" x="1728.75" y="901.6016"/><ellipse cx="1766.25" cy="941.6016" fill="#ADD1B2" rx="27.5" ry="27.5" style="stroke:#ADD1B2;stroke-width:2.5;"/><path d="M1771.25,932.8516 Q1771.7578,931.6016 1772.3438,930.9766 Q1772.9297,930.3516 1773.5938,930.3516 Q1774.7656,930.3516 1775.5078,931.0547 Q1776.25,931.7578 1776.25,933.3984 L1776.25,937.3047 Q1776.25,938.9453 1775.5469,939.6484 Q1774.8438,940.3516 1773.75,940.3516 Q1772.7734,940.3516 1772.1484,939.9219 Q1771.5234,939.4922 1771.25,938.3594 Q1771.1328,937.5781 1770.7031,937.1484 Q1769.9219,936.3281 1768.5156,935.8594 Q1767.1094,935.3516 1765.7031,935.3516 Q1763.9453,935.3516 1762.4609,936.0547 Q1761.0156,936.7578 1759.8828,938.3203 Q1758.75,939.8828 1758.75,942.0313 L1758.75,944.3359 Q1758.75,946.9141 1760.8594,948.6328 Q1762.9688,950.3516 1766.7188,950.3516 Q1768.9453,950.3516 1770.5078,949.8438 Q1771.4063,949.5703 1772.4219,948.6719 Q1773.0859,948.1641 1773.4375,948.0078 Q1773.7891,947.8516 1774.2188,947.8516 Q1775.0391,947.8516 1775.625,948.5156 Q1776.25,949.1406 1776.25,950.0391 Q1776.25,950.8984 1775.3906,951.9141 Q1774.1406,953.3984 1772.1484,954.2188 Q1769.5313,955.3516 1766.3281,955.3516 Q1762.5781,955.3516 1759.5703,953.8672 Q1757.1484,952.6953 1755.4297,950.1563 Q1753.75,947.6172 1753.75,944.6094 L1753.75,941.875 Q1753.75,938.75 1755.2344,936.0156 Q1756.7578,933.2813 1759.375,931.8359 Q1762.0313,930.3516 1765,930.3516 Q1766.7969,930.3516 1768.3594,930.9766 Q1769.9219,931.6016 1771.25,932.8516 Z " fill="#000000"/><polygon fill="#4177AF" points="1813.75,930.3516,1803.75,945.3516,1823.75,945.3516" style="stroke:#1963A0;stroke-width:2.5;"/><text fill="#000000" font-family="sans-serif" font-size="30" font-style="italic" font-weight="bold" lengthAdjust="spacing" textLength="60" x="1828.75" y="953.877">final</text><text fill="#000000" font-family="sans-serif" font-size="30" font-style="italic" lengthAdjust="spacing" textLength="377.5" x="1896.25" y="953.877">xxxDistributedLocalAdapter</text><line style="stroke:#3498DB;stroke-width:3.75;" x1="1731.25" x2="2278.75" y1="981.6016" y2="981.6016"/><text fill="#000000" font-family="sans-serif" font-size="27.5" lengthAdjust="spacing" textLength="22.5" x="1743.75" y="1020.1489">...</text><line style="stroke:#3498DB;stroke-width:3.75;" x1="1731.25" x2="2278.75" y1="1036.1914" y2="1036.1914"/><!--MD5=[2093ff23ff253f71aa2c65575f18c674]
reverse link KeypleDistributedLocalServiceExtensionFactory to xxxDistributedLocalServiceFactory--><path d="M1285.695,349.0791 C1318.73,424.9666 1362.575,525.6916 1392.1825,593.7116 " fill="none" id="KeypleDistributedLocalServiceExtensionFactory-backto-xxxDistributedLocalServiceFactory" style="stroke:#A80036;stroke-width:2.5;"/><polygon fill="none" points="1269.245,355.1341,1265.335,302.3041,1301.3375,341.1641,1269.245,355.1341" style="stroke:#A80036;stroke-width:2.5;"/><!--MD5=[90e382a2df282d68530da7c405ea071b]
reverse link KeypleDistributedLocalServiceExtension to xxxDistributedLocalService--><path d="M2042.5,352.3616 C2042.5,427.8491 2042.5,526.6691 2042.5,593.7116 " fill="none" id="KeypleDistributedLocalServiceExtension-backto-xxxDistributedLocalService" style="stroke:#A80036;stroke-width:2.5;"/><polygon fill="none" points="2025,352.3041,2042.5,302.3041,2060,352.3041,2025,352.3041" style="stroke:#A80036;stroke-width:2.5;"/><!--MD5=[7d6d9714923fb9b40dbdfaa77fdb237d]
reverse link xxxDistributedLocalServiceFactory to xxxDistributedLocalServiceFactoryAdapter--><path d="M1360.215,794.7016 C1340.95,830.5666 1320.395,868.8291 1303.1325,900.9641 " fill="none" id="xxxDistributedLocalServiceFactory-backto-xxxDistributedLocalServiceFactoryAdapter" style="stroke:#A80036;stroke-width:2.5;stroke-dasharray:7.0,7.0;"/><polygon fill="none" points="1345.335,785.4191,1384.4125,749.6541,1376.1675,801.9841,1345.335,785.4191" style="stroke:#A80036;stroke-width:2.5;"/><!--MD5=[38fb0a208dad0d9419c533179052e846]
reverse link LocalServiceFactorySpi to xxxDistributedLocalServiceFactoryAdapter--><path d="M1328.0125,1259.1641 C1312.4125,1193.0716 1293.77,1114.0891 1280.37,1057.3091 " fill="none" id="LocalServiceFactorySpi-backto-xxxDistributedLocalServiceFactoryAdapter" style="stroke:#A80036;stroke-width:2.5;stroke-dasharray:7.0,7.0;"/><polygon fill="none" points="1345.2575,1256.0516,1339.7125,1308.7338,1311.1925,1264.0916,1345.2575,1256.0516" style="stroke:#A80036;stroke-width:2.5;"/><!--MD5=[76cf528ba56d5d26d2b0928a9c329221]
reverse link xxxDistributedLocalService to xxxDistributedLocalAdapter--><path d="M2026.9475,799.5516 C2022.68,833.9916 2018.18,870.2741 2014.3775,900.9641 " fill="none" id="xxxDistributedLocalService-backto-xxxDistributedLocalAdapter" style="stroke:#A80036;stroke-width:2.5;stroke-dasharray:7.0,7.0;"/><polygon fill="none" points="2009.615,797.1216,2033.135,749.6541,2044.35,801.4291,2009.615,797.1216" style="stroke:#A80036;stroke-width:2.5;"/><!--MD5=[f13a3444bf21b81d22d04e69d2b3a247]
reverse link LocalServiceSpi to xxxDistributedLocalAdapter--><path d="M1879.125,1263.0741 C1909.0275,1196.2091 1945.2475,1115.2141 1971.1425,1057.3091 " fill="none" id="LocalServiceSpi-backto-xxxDistributedLocalAdapter" style="stroke:#A80036;stroke-width:2.5;stroke-dasharray:7.0,7.0;"/><polygon fill="none" points="1895.0925,1270.2341,1858.705,1308.7338,1863.1425,1255.9466,1895.0925,1270.2341" style="stroke:#A80036;stroke-width:2.5;"/><!--MD5=[fdc022e61a4d7d2ad66d185c8db2c01b]
link xxxDistributedLocalAdapter to LocalServiceSpi--><!--MD5=[bf7d962d3e8541c77acbacb9c75dcadc]
link xxxDistributedLocalServiceFactoryProvider to xxxDistributedLocalServiceFactory--><path codeLine="84" d="M911.5075,671.6016 C981.7775,671.6016 1054.27,671.6016 1121.8425,671.6016 " fill="none" id="xxxDistributedLocalServiceFactoryProvider-to-xxxDistributedLocalServiceFactory" style="stroke:#27AE60;stroke-width:2.5;stroke-dasharray:7.0,7.0;"/><polygon fill="#27AE60" points="1134.4,671.6016,1111.9,661.6016,1121.9,671.6016,1111.9,681.6016,1134.4,671.6016" style="stroke:#27AE60;stroke-width:2.5;"/><polygon fill="#000000" points="979.375,642.041,956.7623,634.6937,956.7623,649.3883,979.375,642.041" style="stroke:#000000;stroke-width:2.5;"/><text fill="#000000" font-family="sans-serif" font-size="32.5" lengthAdjust="spacing" textLength="100" x="989.375" y="655.3394">provide</text><!--MD5=[1377ec179a79e417830e7219346090e1]
reverse link xxxDistributedLocalServiceFactoryAdapter to xxxDistributedLocalAdapter--><path codeLine="85" d="M1673.4,979.1016 C1691.8025,979.1016 1710.205,979.1016 1728.6075,979.1016 " fill="none" id="xxxDistributedLocalServiceFactoryAdapter-backto-xxxDistributedLocalAdapter" style="stroke:#3498DB;stroke-width:2.5;"/><polygon fill="#3498DB" points="1640.275,979.1016,1655.275,989.1016,1670.275,979.1016,1655.275,969.1016,1640.275,979.1016" style="stroke:#3498DB;stroke-width:2.5;"/><text fill="#000000" font-family="sans-serif" font-size="32.5" lengthAdjust="spacing" textLength="17.5" x="1691.0584" y="971.4784">1</text><!--MD5=[36ce7900d6ccaf56444755772fce6b34]
link commonsApi to specificDistributedLocalApi--><!--MD5=[34f96e15e978562302b746a222ece16e]
link xxxDistributedLocalServiceFactoryAdapter to LocalServiceSpi--><!--MD5=[601e5d856341fc5f5c2fd50354623548]
@startuml
title
    Keyple 2.0 - Specific Distributed Local Service - 2.0.0 (08/03/2021)
end title

' == THEME ==

'Couleurs issues de : https://htmlcolorcodes.com/fr/tableau-de-couleur/tableau-de-couleur-design-plat/
!define C_GREY1 F8F9F9
!define C_GREY2 F2F3F4
!define C_GREY3 E5E7E9
!define C_GREY4 D7DBDD
!define C_GREY5 CACFD2
!define C_GREY6 BDC3C7
!define C_LINK 3498DB
!define C_USE 27AE60

skinparam Shadowing false
skinparam ClassFontStyle italic
skinparam ClassBorderColor #D4AC0D
skinparam stereotypeABorderColor #A9DCDF
skinparam stereotypeIBorderColor #B4A7E5
skinparam stereotypeCBorderColor #ADD1B2
skinparam stereotypeEBorderColor #EB93DF
' Red
skinparam ClassBackgroundColor<<red>> #FDEDEC
skinparam ClassBorderColor<<red>> #E74C3C
hide <<red>> stereotype
' Purple
skinparam ClassBackgroundColor<<purple>> #F4ECF7
skinparam ClassBorderColor<<purple>> #8E44AD
hide <<purple>> stereotype
' blue
skinparam ClassBackgroundColor<<blue>> #EBF5FB
skinparam ClassBorderColor<<blue>> #3498DB
hide <<blue>> stereotype
' Green
skinparam ClassBackgroundColor<<green>> #E9F7EF
skinparam ClassBorderColor<<green>> #27AE60
hide <<green>> stereotype
' Grey
skinparam ClassBackgroundColor<<grey>> #EAECEE
skinparam ClassBorderColor<<grey>> #2C3E50
hide <<grey>> stereotype

' == CONTENT ==

package "org.eclipse.keyple.core.common" as commonsApi {
    +interface KeypleDistributedLocalServiceExtensionFactory {
    }
    +interface KeypleDistributedLocalServiceExtension {
    }
}

package "org.eclipse.keyple.core.distributed.local.spi" as distributedLocalSpi {
    +interface LocalServiceFactorySpi {
        ...
    }
    +interface LocalServiceSpi {
        ...
    }
}

package "org.eclipse.keyple.distributed.local.xxx (specific distributed local service)" as specificDistributedLocalApi {
    +class "**final** xxxDistributedLocalServiceFactoryProvider" as xxxDistributedLocalServiceFactoryProvider {
        +{static} xxxDistributedLocalServiceFactory getFactory ()
    }
    +interface xxxDistributedLocalServiceFactory extends KeypleDistributedLocalServiceExtensionFactory {
        ...
    }
    +interface xxxDistributedLocalService extends KeypleDistributedLocalServiceExtension {
        ...
    }
    ' Adapters
    ~class "**final** xxxDistributedLocalServiceFactoryAdapter" as xxxDistributedLocalServiceFactoryAdapter implements xxxDistributedLocalServiceFactory, LocalServiceFactorySpi {
        ...
    }
    ~class "**final** xxxDistributedLocalAdapter" as xxxDistributedLocalAdapter implements xxxDistributedLocalService, LocalServiceSpi {
        ...
    }
}

' Associations

xxxDistributedLocalServiceFactoryProvider .right.> xxxDistributedLocalServiceFactory #C_USE : provide >
xxxDistributedLocalServiceFactoryAdapter *- "1" xxxDistributedLocalAdapter #C_LINK

' == LAYOUT ==

commonsApi -[hidden]- specificDistributedLocalApi
xxxDistributedLocalAdapter -[hidden]- LocalServiceSpi
xxxDistributedLocalServiceFactoryAdapter -[hidden]- LocalServiceSpi

' == STYLE ==

package commonsApi #C_GREY1 {}
package distributedLocalSpi #C_GREY1 {}
package specificDistributedLocalApi #C_GREY1 {}

class xxxDistributedLocalAdapter <<blue>>
class xxxDistributedLocalServiceFactoryAdapter <<blue>>
interface LocalServiceFactorySpi <<blue>>
interface LocalServiceSpi <<blue>>

@enduml

@startuml
title
    Keyple 2.0 - Specific Distributed Local Service - 2.0.0 (08/03/2021)
end title



skinparam Shadowing false
skinparam ClassFontStyle italic
skinparam ClassBorderColor #D4AC0D
skinparam stereotypeABorderColor #A9DCDF
skinparam stereotypeIBorderColor #B4A7E5
skinparam stereotypeCBorderColor #ADD1B2
skinparam stereotypeEBorderColor #EB93DF
skinparam ClassBackgroundColor<<red>> #FDEDEC
skinparam ClassBorderColor<<red>> #E74C3C
hide <<red>> stereotype
skinparam ClassBackgroundColor<<purple>> #F4ECF7
skinparam ClassBorderColor<<purple>> #8E44AD
hide <<purple>> stereotype
skinparam ClassBackgroundColor<<blue>> #EBF5FB
skinparam ClassBorderColor<<blue>> #3498DB
hide <<blue>> stereotype
skinparam ClassBackgroundColor<<green>> #E9F7EF
skinparam ClassBorderColor<<green>> #27AE60
hide <<green>> stereotype
skinparam ClassBackgroundColor<<grey>> #EAECEE
skinparam ClassBorderColor<<grey>> #2C3E50
hide <<grey>> stereotype


package "org.eclipse.keyple.core.common" as commonsApi {
    +interface KeypleDistributedLocalServiceExtensionFactory {
    }
    +interface KeypleDistributedLocalServiceExtension {
    }
}

package "org.eclipse.keyple.core.distributed.local.spi" as distributedLocalSpi {
    +interface LocalServiceFactorySpi {
        ...
    }
    +interface LocalServiceSpi {
        ...
    }
}

package "org.eclipse.keyple.distributed.local.xxx (specific distributed local service)" as specificDistributedLocalApi {
    +class "**final** xxxDistributedLocalServiceFactoryProvider" as xxxDistributedLocalServiceFactoryProvider {
        +{static} xxxDistributedLocalServiceFactory getFactory ()
    }
    +interface xxxDistributedLocalServiceFactory extends KeypleDistributedLocalServiceExtensionFactory {
        ...
    }
    +interface xxxDistributedLocalService extends KeypleDistributedLocalServiceExtension {
        ...
    }
    ~class "**final** xxxDistributedLocalServiceFactoryAdapter" as xxxDistributedLocalServiceFactoryAdapter implements xxxDistributedLocalServiceFactory, LocalServiceFactorySpi {
        ...
    }
    ~class "**final** xxxDistributedLocalAdapter" as xxxDistributedLocalAdapter implements xxxDistributedLocalService, LocalServiceSpi {
        ...
    }
}


xxxDistributedLocalServiceFactoryProvider .right.> xxxDistributedLocalServiceFactory #27AE60 : provide >
xxxDistributedLocalServiceFactoryAdapter *- "1" xxxDistributedLocalAdapter #3498DB


commonsApi -[hidden]- specificDistributedLocalApi
xxxDistributedLocalAdapter -[hidden]- LocalServiceSpi
xxxDistributedLocalServiceFactoryAdapter -[hidden]- LocalServiceSpi


package commonsApi #F8F9F9 {}
package distributedLocalSpi #F8F9F9 {}
package specificDistributedLocalApi #F8F9F9 {}

class xxxDistributedLocalAdapter <<blue>>
class xxxDistributedLocalServiceFactoryAdapter <<blue>>
interface LocalServiceFactorySpi <<blue>>
interface LocalServiceSpi <<blue>>

@enduml

PlantUML version 1.2021.2(Sun Mar 07 12:10:27 CET 2021)
(GPL source distribution)
Java Runtime: OpenJDK Runtime Environment
JVM: OpenJDK 64-Bit Server VM
Default Encoding: Cp1252
Language: fr
Country: FR
--></g></svg>