<?xml version="1.0" encoding="UTF-8" standalone="no"?><svg xmlns="http://www.w3.org/2000/svg" xmlns:xlink="http://www.w3.org/1999/xlink" contentScriptType="application/ecmascript" contentStyleType="text/css" height="1770px" preserveAspectRatio="none" style="width:3677px;height:1770px;background:#FFFFFF;" version="1.1" viewBox="0 0 3677 1770" width="3677.5px" zoomAndPan="magnify"><defs><filter height="1" id="b1i8jw8lfvyms70" width="1" x="0" y="0"><feFlood flood-color="#FFFF00" result="flood"/><feComposite in="SourceGraphic" in2="flood" operator="over"/></filter><filter height="1" id="b1i8jw8lfvyms71" width="1" x="0" y="0"><feFlood flood-color="#ADD8E6" result="flood"/><feComposite in="SourceGraphic" in2="flood" operator="over"/></filter></defs><g><text fill="#000000" font-family="sans-serif" font-size="45" lengthAdjust="spacing" textLength="1135" x="1255" y="46.7139">Keyple 2.0 - Specific Card Extension - 2.0.0 (04/06/2021)</text><rect fill="#DDDDDD" height="157.0703" rx="12.5" ry="12.5" style="stroke:#000000;stroke-width:2.5;" width="557.5" x="1542.5" y="76.6016"/><text fill="#000000" font-family="sans-serif" font-size="35" lengthAdjust="spacing" text-decoration="underline" textLength="220" x="1557.5" y="125.4346">Colors legend</text><text fill="#000000" font-family="sans-serif" font-size="35" lengthAdjust="spacing" textLength="10" x="1787.5" y="125.4346">:</text><ellipse cx="1571.25" cy="158.3984" fill="#000000" rx="6.25" ry="6.25" style="stroke:#000000;stroke-width:0.0;"/><text fill="#000000" filter="url(#b1i8jw8lfvyms70)" font-family="sans-serif" font-size="35" lengthAdjust="spacing" textLength="377.5" x="1590" y="169.458">Public API for end users</text><ellipse cx="1571.25" cy="202.4219" fill="#000000" rx="6.25" ry="6.25" style="stroke:#000000;stroke-width:0.0;"/><text fill="#000000" filter="url(#b1i8jw8lfvyms71)" font-family="sans-serif" font-size="35" lengthAdjust="spacing" textLength="495" x="1590" y="213.4814">Private API for internal use only</text><!--MD5=[621c849533070c5aba8aa732369aa9f8]
cluster commonsApi--><polygon fill="#F8F9F9" points="90,271.1719,675,271.1719,692.5,330.1953,700,330.1953,700,556.1719,90,556.1719,90,271.1719" style="stroke:#000000;stroke-width:3.75;"/><line style="stroke:#000000;stroke-width:3.75;" x1="90" x2="692.5" y1="330.1953" y2="330.1953"/><text fill="#000000" font-family="sans-serif" font-size="35" font-weight="bold" lengthAdjust="spacing" textLength="570" x="100" y="312.5049">org.eclipse.keyple.core.common</text><!--MD5=[00563b8f2a00a15cb90f2d0de7f0608c]
cluster readerSelectionSpi--><polygon fill="#F8F9F9" points="875,271.1719,1665,271.1719,1682.5,330.1953,1690,330.1953,1690,556.1719,875,556.1719,875,271.1719" style="stroke:#000000;stroke-width:3.75;"/><line style="stroke:#000000;stroke-width:3.75;" x1="875" x2="1682.5" y1="330.1953" y2="330.1953"/><text fill="#000000" font-family="sans-serif" font-size="35" font-weight="bold" lengthAdjust="spacing" textLength="775" x="885" y="312.5049">org.calypsonet.terminal.reader.selection.spi</text><!--MD5=[a17c93d7e125af4ebdd10ac0c519bd24]
cluster cardSpi--><polygon fill="#F8F9F9" points="535,1468.6719,1112.5,1468.6719,1130,1527.6953,3175,1527.6953,3175,1753.6719,535,1753.6719,535,1468.6719" style="stroke:#000000;stroke-width:3.75;"/><line style="stroke:#000000;stroke-width:3.75;" x1="535" x2="1130" y1="1527.6953" y2="1527.6953"/><text fill="#000000" font-family="sans-serif" font-size="35" font-weight="bold" lengthAdjust="spacing" textLength="562.5" x="545" y="1510.0049">org.calypsonet.terminal.card.spi</text><!--MD5=[d3c8ee72d6c013b9a0ff8b73b18ac396]
cluster specificExtension--><polygon fill="#F8F9F9" points="40,638.6719,892.5,638.6719,910,697.6953,3635,697.6953,3635,1386.1719,40,1386.1719,40,638.6719" style="stroke:#000000;stroke-width:3.75;"/><line style="stroke:#000000;stroke-width:3.75;" x1="40" x2="910" y1="697.6953" y2="697.6953"/><text fill="#000000" font-family="sans-serif" font-size="35" font-weight="bold" lengthAdjust="spacing" textLength="837.5" x="50" y="680.0049">org.eclipse.keyple.card.xxx (specific extension)</text><!--MD5=[93835d7ffcf6a3787bfc7eb02bc099b1]
class KeypleCardExtension--><rect codeLine="54" fill="#FEFECE" height="154.5898" id="KeypleCardExtension" style="stroke:#D4AC0D;stroke-width:3.75;" width="405" x="180" y="361.1719"/><ellipse cx="217.5" cy="401.1719" fill="#B4A7E5" rx="27.5" ry="27.5" style="stroke:#B4A7E5;stroke-width:2.5;"/><path d="M220,393.6719 L220,408.6719 L225,408.6719 L226.2109,408.6719 L227.5,410.2344 L227.5,411.1719 L227.5,412.1094 L226.2109,413.6719 L225,413.6719 L210,413.6719 L208.7891,413.6719 L207.5,412.1094 L207.5,411.1719 L207.5,410.2344 L208.7891,408.6719 L210,408.6719 L215,408.6719 L215,393.6719 L210,393.6719 L208.7891,393.6719 L207.5,392.1094 L207.5,391.1719 L207.5,390.2344 L208.7891,388.6719 L210,388.6719 L225,388.6719 L226.2109,388.6719 L227.5,390.2344 L227.5,391.1719 L227.5,392.1094 L226.2109,393.6719 L225,393.6719 L220,393.6719 Z " fill="#000000"/><ellipse cx="265" cy="399.9219" fill="#84BE84" rx="7.5" ry="7.5" style="stroke:#038048;stroke-width:2.5;"/><text fill="#000000" font-family="sans-serif" font-size="30" font-style="italic" lengthAdjust="spacing" textLength="297.5" x="280" y="413.4473">KeypleCardExtension</text><line style="stroke:#D4AC0D;stroke-width:3.75;" x1="182.5" x2="582.5" y1="441.1719" y2="441.1719"/><text fill="#000000" font-family="sans-serif" font-size="27.5" lengthAdjust="spacing" textLength="22.5" x="195" y="479.7192">...</text><line style="stroke:#D4AC0D;stroke-width:3.75;" x1="182.5" x2="582.5" y1="495.7617" y2="495.7617"/><!--MD5=[47f0011813555fb489a606ff84d44b55]
class CardSelection--><rect codeLine="59" fill="#FEFECE" height="120" id="CardSelection" style="stroke:#D4AC0D;stroke-width:3.75;" width="302.5" x="958.75" y="378.6719"/><ellipse cx="996.25" cy="418.6719" fill="#B4A7E5" rx="27.5" ry="27.5" style="stroke:#B4A7E5;stroke-width:2.5;"/><path d="M998.75,411.1719 L998.75,426.1719 L1003.75,426.1719 L1004.9609,426.1719 L1006.25,427.7344 L1006.25,428.6719 L1006.25,429.6094 L1004.9609,431.1719 L1003.75,431.1719 L988.75,431.1719 L987.5391,431.1719 L986.25,429.6094 L986.25,428.6719 L986.25,427.7344 L987.5391,426.1719 L988.75,426.1719 L993.75,426.1719 L993.75,411.1719 L988.75,411.1719 L987.5391,411.1719 L986.25,409.6094 L986.25,408.6719 L986.25,407.7344 L987.5391,406.1719 L988.75,406.1719 L1003.75,406.1719 L1004.9609,406.1719 L1006.25,407.7344 L1006.25,408.6719 L1006.25,409.6094 L1004.9609,411.1719 L1003.75,411.1719 L998.75,411.1719 Z " fill="#000000"/><ellipse cx="1043.75" cy="417.4219" fill="#84BE84" rx="7.5" ry="7.5" style="stroke:#038048;stroke-width:2.5;"/><text fill="#000000" font-family="sans-serif" font-size="30" font-style="italic" lengthAdjust="spacing" textLength="195" x="1058.75" y="430.9473">CardSelection</text><line style="stroke:#D4AC0D;stroke-width:3.75;" x1="961.25" x2="1258.75" y1="458.6719" y2="458.6719"/><line style="stroke:#D4AC0D;stroke-width:3.75;" x1="961.25" x2="1258.75" y1="478.6719" y2="478.6719"/><!--MD5=[4d4351d1dd1d596b03b4778d9849998b]
class SmartCard--><rect codeLine="61" fill="#FEFECE" height="154.5898" id="SmartCard" style="stroke:#D4AC0D;stroke-width:3.75;" width="257.5" x="1348.75" y="361.1719"/><ellipse cx="1386.25" cy="401.1719" fill="#B4A7E5" rx="27.5" ry="27.5" style="stroke:#B4A7E5;stroke-width:2.5;"/><path d="M1388.75,393.6719 L1388.75,408.6719 L1393.75,408.6719 L1394.9609,408.6719 L1396.25,410.2344 L1396.25,411.1719 L1396.25,412.1094 L1394.9609,413.6719 L1393.75,413.6719 L1378.75,413.6719 L1377.5391,413.6719 L1376.25,412.1094 L1376.25,411.1719 L1376.25,410.2344 L1377.5391,408.6719 L1378.75,408.6719 L1383.75,408.6719 L1383.75,393.6719 L1378.75,393.6719 L1377.5391,393.6719 L1376.25,392.1094 L1376.25,391.1719 L1376.25,390.2344 L1377.5391,388.6719 L1378.75,388.6719 L1393.75,388.6719 L1394.9609,388.6719 L1396.25,390.2344 L1396.25,391.1719 L1396.25,392.1094 L1394.9609,393.6719 L1393.75,393.6719 L1388.75,393.6719 Z " fill="#000000"/><ellipse cx="1433.75" cy="399.9219" fill="#84BE84" rx="7.5" ry="7.5" style="stroke:#038048;stroke-width:2.5;"/><text fill="#000000" font-family="sans-serif" font-size="30" font-style="italic" lengthAdjust="spacing" textLength="150" x="1448.75" y="413.4473">SmartCard</text><line style="stroke:#D4AC0D;stroke-width:3.75;" x1="1351.25" x2="1603.75" y1="441.1719" y2="441.1719"/><text fill="#000000" font-family="sans-serif" font-size="27.5" lengthAdjust="spacing" textLength="22.5" x="1363.75" y="479.7192">...</text><line style="stroke:#D4AC0D;stroke-width:3.75;" x1="1351.25" x2="1603.75" y1="495.7617" y2="495.7617"/><!--MD5=[e210ee7b55cb4fcef849a017d68619f7]
class CardSelectionSpi--><rect codeLine="155" fill="#EBF5FB" height="154.5898" id="CardSelectionSpi" style="stroke:#3498DB;stroke-width:3.75;" width="347.5" x="576.25" y="1558.6719"/><ellipse cx="613.75" cy="1598.6719" fill="#B4A7E5" rx="27.5" ry="27.5" style="stroke:#B4A7E5;stroke-width:2.5;"/><path d="M616.25,1591.1719 L616.25,1606.1719 L621.25,1606.1719 L622.4609,1606.1719 L623.75,1607.7344 L623.75,1608.6719 L623.75,1609.6094 L622.4609,1611.1719 L621.25,1611.1719 L606.25,1611.1719 L605.0391,1611.1719 L603.75,1609.6094 L603.75,1608.6719 L603.75,1607.7344 L605.0391,1606.1719 L606.25,1606.1719 L611.25,1606.1719 L611.25,1591.1719 L606.25,1591.1719 L605.0391,1591.1719 L603.75,1589.6094 L603.75,1588.6719 L603.75,1587.7344 L605.0391,1586.1719 L606.25,1586.1719 L621.25,1586.1719 L622.4609,1586.1719 L623.75,1587.7344 L623.75,1588.6719 L623.75,1589.6094 L622.4609,1591.1719 L621.25,1591.1719 L616.25,1591.1719 Z " fill="#000000"/><ellipse cx="661.25" cy="1597.4219" fill="#84BE84" rx="7.5" ry="7.5" style="stroke:#038048;stroke-width:2.5;"/><text fill="#000000" font-family="sans-serif" font-size="30" font-style="italic" lengthAdjust="spacing" textLength="240" x="676.25" y="1610.9473">CardSelectionSpi</text><line style="stroke:#3498DB;stroke-width:3.75;" x1="578.75" x2="921.25" y1="1638.6719" y2="1638.6719"/><text fill="#000000" font-family="sans-serif" font-size="27.5" lengthAdjust="spacing" textLength="22.5" x="591.25" y="1677.2192">...</text><line style="stroke:#3498DB;stroke-width:3.75;" x1="578.75" x2="921.25" y1="1693.2617" y2="1693.2617"/><!--MD5=[c089e258773b765d812cd5d8bc232f90]
class SmartCardSpi--><rect codeLine="157" fill="#EBF5FB" height="120" id="SmartCardSpi" style="stroke:#3498DB;stroke-width:3.75;" width="302.5" x="1011.25" y="1576.1719"/><ellipse cx="1048.75" cy="1616.1719" fill="#B4A7E5" rx="27.5" ry="27.5" style="stroke:#B4A7E5;stroke-width:2.5;"/><path d="M1051.25,1608.6719 L1051.25,1623.6719 L1056.25,1623.6719 L1057.4609,1623.6719 L1058.75,1625.2344 L1058.75,1626.1719 L1058.75,1627.1094 L1057.4609,1628.6719 L1056.25,1628.6719 L1041.25,1628.6719 L1040.0391,1628.6719 L1038.75,1627.1094 L1038.75,1626.1719 L1038.75,1625.2344 L1040.0391,1623.6719 L1041.25,1623.6719 L1046.25,1623.6719 L1046.25,1608.6719 L1041.25,1608.6719 L1040.0391,1608.6719 L1038.75,1607.1094 L1038.75,1606.1719 L1038.75,1605.2344 L1040.0391,1603.6719 L1041.25,1603.6719 L1056.25,1603.6719 L1057.4609,1603.6719 L1058.75,1605.2344 L1058.75,1606.1719 L1058.75,1607.1094 L1057.4609,1608.6719 L1056.25,1608.6719 L1051.25,1608.6719 Z " fill="#000000"/><ellipse cx="1096.25" cy="1614.9219" fill="#84BE84" rx="7.5" ry="7.5" style="stroke:#038048;stroke-width:2.5;"/><text fill="#000000" font-family="sans-serif" font-size="30" font-style="italic" lengthAdjust="spacing" textLength="195" x="1111.25" y="1628.4473">SmartCardSpi</text><line style="stroke:#3498DB;stroke-width:3.75;" x1="1013.75" x2="1311.25" y1="1656.1719" y2="1656.1719"/><line style="stroke:#3498DB;stroke-width:3.75;" x1="1013.75" x2="1311.25" y1="1676.1719" y2="1676.1719"/><!--MD5=[dccdbbb850bf03879ac099cfa435f162]
class CardSelectorSpi--><rect codeLine="156" fill="#EBF5FB" height="154.5898" id="CardSelectorSpi" style="stroke:#3498DB;stroke-width:3.75;" width="332.5" x="1401.25" y="1558.6719"/><ellipse cx="1438.75" cy="1598.6719" fill="#B4A7E5" rx="27.5" ry="27.5" style="stroke:#B4A7E5;stroke-width:2.5;"/><path d="M1441.25,1591.1719 L1441.25,1606.1719 L1446.25,1606.1719 L1447.4609,1606.1719 L1448.75,1607.7344 L1448.75,1608.6719 L1448.75,1609.6094 L1447.4609,1611.1719 L1446.25,1611.1719 L1431.25,1611.1719 L1430.0391,1611.1719 L1428.75,1609.6094 L1428.75,1608.6719 L1428.75,1607.7344 L1430.0391,1606.1719 L1431.25,1606.1719 L1436.25,1606.1719 L1436.25,1591.1719 L1431.25,1591.1719 L1430.0391,1591.1719 L1428.75,1589.6094 L1428.75,1588.6719 L1428.75,1587.7344 L1430.0391,1586.1719 L1431.25,1586.1719 L1446.25,1586.1719 L1447.4609,1586.1719 L1448.75,1587.7344 L1448.75,1588.6719 L1448.75,1589.6094 L1447.4609,1591.1719 L1446.25,1591.1719 L1441.25,1591.1719 Z " fill="#000000"/><ellipse cx="1486.25" cy="1597.4219" fill="#84BE84" rx="7.5" ry="7.5" style="stroke:#038048;stroke-width:2.5;"/><text fill="#000000" font-family="sans-serif" font-size="30" font-style="italic" lengthAdjust="spacing" textLength="225" x="1501.25" y="1610.9473">CardSelectorSpi</text><line style="stroke:#3498DB;stroke-width:3.75;" x1="1403.75" x2="1731.25" y1="1638.6719" y2="1638.6719"/><text fill="#000000" font-family="sans-serif" font-size="27.5" lengthAdjust="spacing" textLength="22.5" x="1416.25" y="1677.2192">...</text><line style="stroke:#3498DB;stroke-width:3.75;" x1="1403.75" x2="1731.25" y1="1693.2617" y2="1693.2617"/><!--MD5=[8d87e43a1a915ffb33ab992212a28e16]
class CardSelectionRequestSpi--><rect codeLine="158" fill="#EBF5FB" height="154.5898" id="CardSelectionRequestSpi" style="stroke:#3498DB;stroke-width:3.75;" width="462.5" x="1821.25" y="1558.6719"/><ellipse cx="1858.75" cy="1598.6719" fill="#B4A7E5" rx="27.5" ry="27.5" style="stroke:#B4A7E5;stroke-width:2.5;"/><path d="M1861.25,1591.1719 L1861.25,1606.1719 L1866.25,1606.1719 L1867.4609,1606.1719 L1868.75,1607.7344 L1868.75,1608.6719 L1868.75,1609.6094 L1867.4609,1611.1719 L1866.25,1611.1719 L1851.25,1611.1719 L1850.0391,1611.1719 L1848.75,1609.6094 L1848.75,1608.6719 L1848.75,1607.7344 L1850.0391,1606.1719 L1851.25,1606.1719 L1856.25,1606.1719 L1856.25,1591.1719 L1851.25,1591.1719 L1850.0391,1591.1719 L1848.75,1589.6094 L1848.75,1588.6719 L1848.75,1587.7344 L1850.0391,1586.1719 L1851.25,1586.1719 L1866.25,1586.1719 L1867.4609,1586.1719 L1868.75,1587.7344 L1868.75,1588.6719 L1868.75,1589.6094 L1867.4609,1591.1719 L1866.25,1591.1719 L1861.25,1591.1719 Z " fill="#000000"/><ellipse cx="1906.25" cy="1597.4219" fill="#84BE84" rx="7.5" ry="7.5" style="stroke:#038048;stroke-width:2.5;"/><text fill="#000000" font-family="sans-serif" font-size="30" font-style="italic" lengthAdjust="spacing" textLength="355" x="1921.25" y="1610.9473">CardSelectionRequestSpi</text><line style="stroke:#3498DB;stroke-width:3.75;" x1="1823.75" x2="2281.25" y1="1638.6719" y2="1638.6719"/><text fill="#000000" font-family="sans-serif" font-size="27.5" lengthAdjust="spacing" textLength="22.5" x="1836.25" y="1677.2192">...</text><line style="stroke:#3498DB;stroke-width:3.75;" x1="1823.75" x2="2281.25" y1="1693.2617" y2="1693.2617"/><!--MD5=[b26cc63de5889bffd0c8769786a5769b]
class CardRequestSpi--><rect codeLine="159" fill="#EBF5FB" height="154.5898" id="CardRequestSpi" style="stroke:#3498DB;stroke-width:3.75;" width="335" x="2372.5" y="1558.6719"/><ellipse cx="2410" cy="1598.6719" fill="#B4A7E5" rx="27.5" ry="27.5" style="stroke:#B4A7E5;stroke-width:2.5;"/><path d="M2412.5,1591.1719 L2412.5,1606.1719 L2417.5,1606.1719 L2418.7109,1606.1719 L2420,1607.7344 L2420,1608.6719 L2420,1609.6094 L2418.7109,1611.1719 L2417.5,1611.1719 L2402.5,1611.1719 L2401.2891,1611.1719 L2400,1609.6094 L2400,1608.6719 L2400,1607.7344 L2401.2891,1606.1719 L2402.5,1606.1719 L2407.5,1606.1719 L2407.5,1591.1719 L2402.5,1591.1719 L2401.2891,1591.1719 L2400,1589.6094 L2400,1588.6719 L2400,1587.7344 L2401.2891,1586.1719 L2402.5,1586.1719 L2417.5,1586.1719 L2418.7109,1586.1719 L2420,1587.7344 L2420,1588.6719 L2420,1589.6094 L2418.7109,1591.1719 L2417.5,1591.1719 L2412.5,1591.1719 Z " fill="#000000"/><ellipse cx="2457.5" cy="1597.4219" fill="#84BE84" rx="7.5" ry="7.5" style="stroke:#038048;stroke-width:2.5;"/><text fill="#000000" font-family="sans-serif" font-size="30" font-style="italic" lengthAdjust="spacing" textLength="227.5" x="2472.5" y="1610.9473">CardRequestSpi</text><line style="stroke:#3498DB;stroke-width:3.75;" x1="2375" x2="2705" y1="1638.6719" y2="1638.6719"/><text fill="#000000" font-family="sans-serif" font-size="27.5" lengthAdjust="spacing" textLength="22.5" x="2387.5" y="1677.2192">...</text><line style="stroke:#3498DB;stroke-width:3.75;" x1="2375" x2="2705" y1="1693.2617" y2="1693.2617"/><!--MD5=[1499b49b6a3daea27e4b5ae092e773a3]
class ApduRequestSpi--><rect codeLine="160" fill="#EBF5FB" height="154.5898" id="ApduRequestSpi" style="stroke:#3498DB;stroke-width:3.75;" width="340" x="2795" y="1558.6719"/><ellipse cx="2832.5" cy="1598.6719" fill="#B4A7E5" rx="27.5" ry="27.5" style="stroke:#B4A7E5;stroke-width:2.5;"/><path d="M2835,1591.1719 L2835,1606.1719 L2840,1606.1719 L2841.2109,1606.1719 L2842.5,1607.7344 L2842.5,1608.6719 L2842.5,1609.6094 L2841.2109,1611.1719 L2840,1611.1719 L2825,1611.1719 L2823.7891,1611.1719 L2822.5,1609.6094 L2822.5,1608.6719 L2822.5,1607.7344 L2823.7891,1606.1719 L2825,1606.1719 L2830,1606.1719 L2830,1591.1719 L2825,1591.1719 L2823.7891,1591.1719 L2822.5,1589.6094 L2822.5,1588.6719 L2822.5,1587.7344 L2823.7891,1586.1719 L2825,1586.1719 L2840,1586.1719 L2841.2109,1586.1719 L2842.5,1587.7344 L2842.5,1588.6719 L2842.5,1589.6094 L2841.2109,1591.1719 L2840,1591.1719 L2835,1591.1719 Z " fill="#000000"/><ellipse cx="2880" cy="1597.4219" fill="#84BE84" rx="7.5" ry="7.5" style="stroke:#038048;stroke-width:2.5;"/><text fill="#000000" font-family="sans-serif" font-size="30" font-style="italic" lengthAdjust="spacing" textLength="232.5" x="2895" y="1610.9473">ApduRequestSpi</text><line style="stroke:#3498DB;stroke-width:3.75;" x1="2797.5" x2="3132.5" y1="1638.6719" y2="1638.6719"/><text fill="#000000" font-family="sans-serif" font-size="27.5" lengthAdjust="spacing" textLength="22.5" x="2810" y="1677.2192">...</text><line style="stroke:#3498DB;stroke-width:3.75;" x1="2797.5" x2="3132.5" y1="1693.2617" y2="1693.2617"/><!--MD5=[125c2a9664bfb82a01f56afd98fcef0c]
class xxxCardExtension--><rect codeLine="86" fill="#FEFECE" height="243.7695" id="xxxCardExtension" style="stroke:#D4AC0D;stroke-width:3.75;" width="605" x="80" y="728.6719"/><ellipse cx="200.625" cy="768.6719" fill="#ADD1B2" rx="27.5" ry="27.5" style="stroke:#ADD1B2;stroke-width:2.5;"/><path d="M205.625,759.9219 Q206.1328,758.6719 206.7188,758.0469 Q207.3047,757.4219 207.9688,757.4219 Q209.1406,757.4219 209.8828,758.125 Q210.625,758.8281 210.625,760.4688 L210.625,764.375 Q210.625,766.0156 209.9219,766.7188 Q209.2188,767.4219 208.125,767.4219 Q207.1484,767.4219 206.5234,766.9922 Q205.8984,766.5625 205.625,765.4297 Q205.5078,764.6484 205.0781,764.2188 Q204.2969,763.3984 202.8906,762.9297 Q201.4844,762.4219 200.0781,762.4219 Q198.3203,762.4219 196.8359,763.125 Q195.3906,763.8281 194.2578,765.3906 Q193.125,766.9531 193.125,769.1016 L193.125,771.4063 Q193.125,773.9844 195.2344,775.7031 Q197.3438,777.4219 201.0938,777.4219 Q203.3203,777.4219 204.8828,776.9141 Q205.7813,776.6406 206.7969,775.7422 Q207.4609,775.2344 207.8125,775.0781 Q208.1641,774.9219 208.5938,774.9219 Q209.4141,774.9219 210,775.5859 Q210.625,776.2109 210.625,777.1094 Q210.625,777.9688 209.7656,778.9844 Q208.5156,780.4688 206.5234,781.2891 Q203.9063,782.4219 200.7031,782.4219 Q196.9531,782.4219 193.9453,780.9375 Q191.5234,779.7656 189.8047,777.2266 Q188.125,774.6875 188.125,771.6797 L188.125,768.9453 Q188.125,765.8203 189.6094,763.0859 Q191.1328,760.3516 193.75,758.9063 Q196.4063,757.4219 199.375,757.4219 Q201.1719,757.4219 202.7344,758.0469 Q204.2969,758.6719 205.625,759.9219 Z " fill="#000000"/><ellipse cx="264.375" cy="767.4219" fill="#84BE84" rx="7.5" ry="7.5" style="stroke:#038048;stroke-width:2.5;"/><text fill="#000000" font-family="sans-serif" font-size="30" font-style="italic" font-weight="bold" lengthAdjust="spacing" textLength="60" x="279.375" y="780.9473">final</text><text fill="#000000" font-family="sans-serif" font-size="30" font-style="italic" lengthAdjust="spacing" textLength="247.5" x="346.875" y="780.9473">xxxCardExtension</text><line style="stroke:#D4AC0D;stroke-width:3.75;" x1="82.5" x2="682.5" y1="808.6719" y2="808.6719"/><line style="stroke:#D4AC0D;stroke-width:2.5;" x1="82.5" x2="682.5" y1="828.6719" y2="828.6719"/><ellipse cx="107.5" cy="856.1719" fill="#84BE84" rx="7.5" ry="7.5" style="stroke:#038048;stroke-width:2.5;"/><text fill="#000000" font-family="sans-serif" font-size="27.5" lengthAdjust="spacing" text-decoration="underline" textLength="395" x="130" y="867.2192">xxxCardExtension getInstance ()</text><line style="stroke:#D4AC0D;stroke-width:2.5;stroke-dasharray:1.0,2.0;" x1="82.5" x2="682.5" y1="883.2617" y2="883.2617"/><ellipse cx="107.5" cy="910.7617" fill="#84BE84" rx="7.5" ry="7.5" style="stroke:#038048;stroke-width:2.5;"/><text fill="#000000" font-family="sans-serif" font-size="27.5" lengthAdjust="spacing" textLength="540" x="130" y="921.8091">xxxCardSelection createXxxCardSelection ()</text><text fill="#000000" font-family="sans-serif" font-size="27.5" lengthAdjust="spacing" textLength="22.5" x="130" y="956.3989">...</text><!--MD5=[96c12fe999c27355c48f5d6d4eb4d00c]
class xxxCardSelection--><rect codeLine="93" fill="#FEFECE" height="154.5898" id="xxxCardSelection" style="stroke:#D4AC0D;stroke-width:3.75;" width="347.5" x="908.75" y="773.6719"/><ellipse cx="946.25" cy="813.6719" fill="#B4A7E5" rx="27.5" ry="27.5" style="stroke:#B4A7E5;stroke-width:2.5;"/><path d="M948.75,806.1719 L948.75,821.1719 L953.75,821.1719 L954.9609,821.1719 L956.25,822.7344 L956.25,823.6719 L956.25,824.6094 L954.9609,826.1719 L953.75,826.1719 L938.75,826.1719 L937.5391,826.1719 L936.25,824.6094 L936.25,823.6719 L936.25,822.7344 L937.5391,821.1719 L938.75,821.1719 L943.75,821.1719 L943.75,806.1719 L938.75,806.1719 L937.5391,806.1719 L936.25,804.6094 L936.25,803.6719 L936.25,802.7344 L937.5391,801.1719 L938.75,801.1719 L953.75,801.1719 L954.9609,801.1719 L956.25,802.7344 L956.25,803.6719 L956.25,804.6094 L954.9609,806.1719 L953.75,806.1719 L948.75,806.1719 Z " fill="#000000"/><ellipse cx="993.75" cy="812.4219" fill="#84BE84" rx="7.5" ry="7.5" style="stroke:#038048;stroke-width:2.5;"/><text fill="#000000" font-family="sans-serif" font-size="30" font-style="italic" lengthAdjust="spacing" textLength="240" x="1008.75" y="825.9473">xxxCardSelection</text><line style="stroke:#D4AC0D;stroke-width:3.75;" x1="911.25" x2="1253.75" y1="853.6719" y2="853.6719"/><text fill="#000000" font-family="sans-serif" font-size="27.5" lengthAdjust="spacing" textLength="22.5" x="923.75" y="892.2192">...</text><line style="stroke:#D4AC0D;stroke-width:3.75;" x1="911.25" x2="1253.75" y1="908.2617" y2="908.2617"/><!--MD5=[840dca342d2e2f3185b16a9f6795b3c6]
class xxxSmartCard--><rect codeLine="96" fill="#FEFECE" height="154.5898" id="xxxSmartCard" style="stroke:#D4AC0D;stroke-width:3.75;" width="302.5" x="1343.75" y="773.6719"/><ellipse cx="1381.25" cy="813.6719" fill="#B4A7E5" rx="27.5" ry="27.5" style="stroke:#B4A7E5;stroke-width:2.5;"/><path d="M1383.75,806.1719 L1383.75,821.1719 L1388.75,821.1719 L1389.9609,821.1719 L1391.25,822.7344 L1391.25,823.6719 L1391.25,824.6094 L1389.9609,826.1719 L1388.75,826.1719 L1373.75,826.1719 L1372.5391,826.1719 L1371.25,824.6094 L1371.25,823.6719 L1371.25,822.7344 L1372.5391,821.1719 L1373.75,821.1719 L1378.75,821.1719 L1378.75,806.1719 L1373.75,806.1719 L1372.5391,806.1719 L1371.25,804.6094 L1371.25,803.6719 L1371.25,802.7344 L1372.5391,801.1719 L1373.75,801.1719 L1388.75,801.1719 L1389.9609,801.1719 L1391.25,802.7344 L1391.25,803.6719 L1391.25,804.6094 L1389.9609,806.1719 L1388.75,806.1719 L1383.75,806.1719 Z " fill="#000000"/><ellipse cx="1428.75" cy="812.4219" fill="#84BE84" rx="7.5" ry="7.5" style="stroke:#038048;stroke-width:2.5;"/><text fill="#000000" font-family="sans-serif" font-size="30" font-style="italic" lengthAdjust="spacing" textLength="195" x="1443.75" y="825.9473">xxxSmartCard</text><line style="stroke:#D4AC0D;stroke-width:3.75;" x1="1346.25" x2="1643.75" y1="853.6719" y2="853.6719"/><text fill="#000000" font-family="sans-serif" font-size="27.5" lengthAdjust="spacing" textLength="22.5" x="1358.75" y="892.2192">...</text><line style="stroke:#D4AC0D;stroke-width:3.75;" x1="1346.25" x2="1643.75" y1="908.2617" y2="908.2617"/><!--MD5=[882619f7d194dd02a0d8af00ce730c5c]
class CardSelectionAdapter--><rect codeLine="149" fill="#EBF5FB" height="154.5898" id="CardSelectionAdapter" style="stroke:#3498DB;stroke-width:3.75;" width="477.5" x="141.25" y="1131.1719"/><ellipse cx="178.75" cy="1171.1719" fill="#ADD1B2" rx="27.5" ry="27.5" style="stroke:#ADD1B2;stroke-width:2.5;"/><path d="M183.75,1162.4219 Q184.2578,1161.1719 184.8438,1160.5469 Q185.4297,1159.9219 186.0938,1159.9219 Q187.2656,1159.9219 188.0078,1160.625 Q188.75,1161.3281 188.75,1162.9688 L188.75,1166.875 Q188.75,1168.5156 188.0469,1169.2188 Q187.3438,1169.9219 186.25,1169.9219 Q185.2734,1169.9219 184.6484,1169.4922 Q184.0234,1169.0625 183.75,1167.9297 Q183.6328,1167.1484 183.2031,1166.7188 Q182.4219,1165.8984 181.0156,1165.4297 Q179.6094,1164.9219 178.2031,1164.9219 Q176.4453,1164.9219 174.9609,1165.625 Q173.5156,1166.3281 172.3828,1167.8906 Q171.25,1169.4531 171.25,1171.6016 L171.25,1173.9063 Q171.25,1176.4844 173.3594,1178.2031 Q175.4688,1179.9219 179.2188,1179.9219 Q181.4453,1179.9219 183.0078,1179.4141 Q183.9063,1179.1406 184.9219,1178.2422 Q185.5859,1177.7344 185.9375,1177.5781 Q186.2891,1177.4219 186.7188,1177.4219 Q187.5391,1177.4219 188.125,1178.0859 Q188.75,1178.7109 188.75,1179.6094 Q188.75,1180.4688 187.8906,1181.4844 Q186.6406,1182.9688 184.6484,1183.7891 Q182.0313,1184.9219 178.8281,1184.9219 Q175.0781,1184.9219 172.0703,1183.4375 Q169.6484,1182.2656 167.9297,1179.7266 Q166.25,1177.1875 166.25,1174.1797 L166.25,1171.4453 Q166.25,1168.3203 167.7344,1165.5859 Q169.2578,1162.8516 171.875,1161.4063 Q174.5313,1159.9219 177.5,1159.9219 Q179.2969,1159.9219 180.8594,1160.5469 Q182.4219,1161.1719 183.75,1162.4219 Z " fill="#000000"/><polygon fill="#4177AF" points="226.25,1159.9219,216.25,1174.9219,236.25,1174.9219" style="stroke:#1963A0;stroke-width:2.5;"/><text fill="#000000" font-family="sans-serif" font-size="30" font-style="italic" font-weight="bold" lengthAdjust="spacing" textLength="60" x="241.25" y="1183.4473">final</text><text fill="#000000" font-family="sans-serif" font-size="30" font-style="italic" lengthAdjust="spacing" textLength="302.5" x="308.75" y="1183.4473">CardSelectionAdapter</text><line style="stroke:#3498DB;stroke-width:3.75;" x1="143.75" x2="616.25" y1="1211.1719" y2="1211.1719"/><text fill="#000000" font-family="sans-serif" font-size="27.5" lengthAdjust="spacing" textLength="22.5" x="156.25" y="1249.7192">...</text><line style="stroke:#3498DB;stroke-width:3.75;" x1="143.75" x2="616.25" y1="1265.7617" y2="1265.7617"/><!--MD5=[3d8b98c9b7bd194e7ca23b3bf5b07799]
class SmartCardAdapter--><rect codeLine="151" fill="#EBF5FB" height="154.5898" id="SmartCardAdapter" style="stroke:#3498DB;stroke-width:3.75;" width="432.5" x="706.25" y="1131.1719"/><ellipse cx="743.75" cy="1171.1719" fill="#ADD1B2" rx="27.5" ry="27.5" style="stroke:#ADD1B2;stroke-width:2.5;"/><path d="M748.75,1162.4219 Q749.2578,1161.1719 749.8438,1160.5469 Q750.4297,1159.9219 751.0938,1159.9219 Q752.2656,1159.9219 753.0078,1160.625 Q753.75,1161.3281 753.75,1162.9688 L753.75,1166.875 Q753.75,1168.5156 753.0469,1169.2188 Q752.3438,1169.9219 751.25,1169.9219 Q750.2734,1169.9219 749.6484,1169.4922 Q749.0234,1169.0625 748.75,1167.9297 Q748.6328,1167.1484 748.2031,1166.7188 Q747.4219,1165.8984 746.0156,1165.4297 Q744.6094,1164.9219 743.2031,1164.9219 Q741.4453,1164.9219 739.9609,1165.625 Q738.5156,1166.3281 737.3828,1167.8906 Q736.25,1169.4531 736.25,1171.6016 L736.25,1173.9063 Q736.25,1176.4844 738.3594,1178.2031 Q740.4688,1179.9219 744.2188,1179.9219 Q746.4453,1179.9219 748.0078,1179.4141 Q748.9063,1179.1406 749.9219,1178.2422 Q750.5859,1177.7344 750.9375,1177.5781 Q751.2891,1177.4219 751.7188,1177.4219 Q752.5391,1177.4219 753.125,1178.0859 Q753.75,1178.7109 753.75,1179.6094 Q753.75,1180.4688 752.8906,1181.4844 Q751.6406,1182.9688 749.6484,1183.7891 Q747.0313,1184.9219 743.8281,1184.9219 Q740.0781,1184.9219 737.0703,1183.4375 Q734.6484,1182.2656 732.9297,1179.7266 Q731.25,1177.1875 731.25,1174.1797 L731.25,1171.4453 Q731.25,1168.3203 732.7344,1165.5859 Q734.2578,1162.8516 736.875,1161.4063 Q739.5313,1159.9219 742.5,1159.9219 Q744.2969,1159.9219 745.8594,1160.5469 Q747.4219,1161.1719 748.75,1162.4219 Z " fill="#000000"/><polygon fill="#4177AF" points="791.25,1159.9219,781.25,1174.9219,801.25,1174.9219" style="stroke:#1963A0;stroke-width:2.5;"/><text fill="#000000" font-family="sans-serif" font-size="30" font-style="italic" font-weight="bold" lengthAdjust="spacing" textLength="60" x="806.25" y="1183.4473">final</text><text fill="#000000" font-family="sans-serif" font-size="30" font-style="italic" lengthAdjust="spacing" textLength="257.5" x="873.75" y="1183.4473">SmartCardAdapter</text><line style="stroke:#3498DB;stroke-width:3.75;" x1="708.75" x2="1136.25" y1="1211.1719" y2="1211.1719"/><text fill="#000000" font-family="sans-serif" font-size="27.5" lengthAdjust="spacing" textLength="22.5" x="721.25" y="1249.7192">...</text><line style="stroke:#3498DB;stroke-width:3.75;" x1="708.75" x2="1136.25" y1="1265.7617" y2="1265.7617"/><!--MD5=[fbd938fb4bf01822b3afed4518bf6335]
class CardSelectorAdapter--><rect codeLine="150" fill="#EBF5FB" height="154.5898" id="CardSelectorAdapter" style="stroke:#3498DB;stroke-width:3.75;" width="462.5" x="1281.25" y="1131.1719"/><ellipse cx="1318.75" cy="1171.1719" fill="#ADD1B2" rx="27.5" ry="27.5" style="stroke:#ADD1B2;stroke-width:2.5;"/><path d="M1323.75,1162.4219 Q1324.2578,1161.1719 1324.8438,1160.5469 Q1325.4297,1159.9219 1326.0938,1159.9219 Q1327.2656,1159.9219 1328.0078,1160.625 Q1328.75,1161.3281 1328.75,1162.9688 L1328.75,1166.875 Q1328.75,1168.5156 1328.0469,1169.2188 Q1327.3438,1169.9219 1326.25,1169.9219 Q1325.2734,1169.9219 1324.6484,1169.4922 Q1324.0234,1169.0625 1323.75,1167.9297 Q1323.6328,1167.1484 1323.2031,1166.7188 Q1322.4219,1165.8984 1321.0156,1165.4297 Q1319.6094,1164.9219 1318.2031,1164.9219 Q1316.4453,1164.9219 1314.9609,1165.625 Q1313.5156,1166.3281 1312.3828,1167.8906 Q1311.25,1169.4531 1311.25,1171.6016 L1311.25,1173.9063 Q1311.25,1176.4844 1313.3594,1178.2031 Q1315.4688,1179.9219 1319.2188,1179.9219 Q1321.4453,1179.9219 1323.0078,1179.4141 Q1323.9063,1179.1406 1324.9219,1178.2422 Q1325.5859,1177.7344 1325.9375,1177.5781 Q1326.2891,1177.4219 1326.7188,1177.4219 Q1327.5391,1177.4219 1328.125,1178.0859 Q1328.75,1178.7109 1328.75,1179.6094 Q1328.75,1180.4688 1327.8906,1181.4844 Q1326.6406,1182.9688 1324.6484,1183.7891 Q1322.0313,1184.9219 1318.8281,1184.9219 Q1315.0781,1184.9219 1312.0703,1183.4375 Q1309.6484,1182.2656 1307.9297,1179.7266 Q1306.25,1177.1875 1306.25,1174.1797 L1306.25,1171.4453 Q1306.25,1168.3203 1307.7344,1165.5859 Q1309.2578,1162.8516 1311.875,1161.4063 Q1314.5313,1159.9219 1317.5,1159.9219 Q1319.2969,1159.9219 1320.8594,1160.5469 Q1322.4219,1161.1719 1323.75,1162.4219 Z " fill="#000000"/><polygon fill="#4177AF" points="1366.25,1159.9219,1356.25,1174.9219,1376.25,1174.9219" style="stroke:#1963A0;stroke-width:2.5;"/><text fill="#000000" font-family="sans-serif" font-size="30" font-style="italic" font-weight="bold" lengthAdjust="spacing" textLength="60" x="1381.25" y="1183.4473">final</text><text fill="#000000" font-family="sans-serif" font-size="30" font-style="italic" lengthAdjust="spacing" textLength="287.5" x="1448.75" y="1183.4473">CardSelectorAdapter</text><line style="stroke:#3498DB;stroke-width:3.75;" x1="1283.75" x2="1741.25" y1="1211.1719" y2="1211.1719"/><text fill="#000000" font-family="sans-serif" font-size="27.5" lengthAdjust="spacing" textLength="22.5" x="1296.25" y="1249.7192">...</text><line style="stroke:#3498DB;stroke-width:3.75;" x1="1283.75" x2="1741.25" y1="1265.7617" y2="1265.7617"/><!--MD5=[43ade75bd6d890e787ccdbbbaa69cade]
class CardSelectionRequestAdapter--><rect codeLine="152" fill="#EBF5FB" height="154.5898" id="CardSelectionRequestAdapter" style="stroke:#3498DB;stroke-width:3.75;" width="592.5" x="1831.25" y="1131.1719"/><ellipse cx="1868.75" cy="1171.1719" fill="#ADD1B2" rx="27.5" ry="27.5" style="stroke:#ADD1B2;stroke-width:2.5;"/><path d="M1873.75,1162.4219 Q1874.2578,1161.1719 1874.8438,1160.5469 Q1875.4297,1159.9219 1876.0938,1159.9219 Q1877.2656,1159.9219 1878.0078,1160.625 Q1878.75,1161.3281 1878.75,1162.9688 L1878.75,1166.875 Q1878.75,1168.5156 1878.0469,1169.2188 Q1877.3438,1169.9219 1876.25,1169.9219 Q1875.2734,1169.9219 1874.6484,1169.4922 Q1874.0234,1169.0625 1873.75,1167.9297 Q1873.6328,1167.1484 1873.2031,1166.7188 Q1872.4219,1165.8984 1871.0156,1165.4297 Q1869.6094,1164.9219 1868.2031,1164.9219 Q1866.4453,1164.9219 1864.9609,1165.625 Q1863.5156,1166.3281 1862.3828,1167.8906 Q1861.25,1169.4531 1861.25,1171.6016 L1861.25,1173.9063 Q1861.25,1176.4844 1863.3594,1178.2031 Q1865.4688,1179.9219 1869.2188,1179.9219 Q1871.4453,1179.9219 1873.0078,1179.4141 Q1873.9063,1179.1406 1874.9219,1178.2422 Q1875.5859,1177.7344 1875.9375,1177.5781 Q1876.2891,1177.4219 1876.7188,1177.4219 Q1877.5391,1177.4219 1878.125,1178.0859 Q1878.75,1178.7109 1878.75,1179.6094 Q1878.75,1180.4688 1877.8906,1181.4844 Q1876.6406,1182.9688 1874.6484,1183.7891 Q1872.0313,1184.9219 1868.8281,1184.9219 Q1865.0781,1184.9219 1862.0703,1183.4375 Q1859.6484,1182.2656 1857.9297,1179.7266 Q1856.25,1177.1875 1856.25,1174.1797 L1856.25,1171.4453 Q1856.25,1168.3203 1857.7344,1165.5859 Q1859.2578,1162.8516 1861.875,1161.4063 Q1864.5313,1159.9219 1867.5,1159.9219 Q1869.2969,1159.9219 1870.8594,1160.5469 Q1872.4219,1161.1719 1873.75,1162.4219 Z " fill="#000000"/><polygon fill="#4177AF" points="1916.25,1159.9219,1906.25,1174.9219,1926.25,1174.9219" style="stroke:#1963A0;stroke-width:2.5;"/><text fill="#000000" font-family="sans-serif" font-size="30" font-style="italic" font-weight="bold" lengthAdjust="spacing" textLength="60" x="1931.25" y="1183.4473">final</text><text fill="#000000" font-family="sans-serif" font-size="30" font-style="italic" lengthAdjust="spacing" textLength="417.5" x="1998.75" y="1183.4473">CardSelectionRequestAdapter</text><line style="stroke:#3498DB;stroke-width:3.75;" x1="1833.75" x2="2421.25" y1="1211.1719" y2="1211.1719"/><text fill="#000000" font-family="sans-serif" font-size="27.5" lengthAdjust="spacing" textLength="22.5" x="1846.25" y="1249.7192">...</text><line style="stroke:#3498DB;stroke-width:3.75;" x1="1833.75" x2="2421.25" y1="1265.7617" y2="1265.7617"/><!--MD5=[100e1c59935069e6272495215bd566ac]
class CardRequestAdapter--><rect codeLine="153" fill="#EBF5FB" height="154.5898" id="CardRequestAdapter" style="stroke:#3498DB;stroke-width:3.75;" width="465" x="2512.5" y="1131.1719"/><ellipse cx="2550" cy="1171.1719" fill="#ADD1B2" rx="27.5" ry="27.5" style="stroke:#ADD1B2;stroke-width:2.5;"/><path d="M2555,1162.4219 Q2555.5078,1161.1719 2556.0938,1160.5469 Q2556.6797,1159.9219 2557.3438,1159.9219 Q2558.5156,1159.9219 2559.2578,1160.625 Q2560,1161.3281 2560,1162.9688 L2560,1166.875 Q2560,1168.5156 2559.2969,1169.2188 Q2558.5938,1169.9219 2557.5,1169.9219 Q2556.5234,1169.9219 2555.8984,1169.4922 Q2555.2734,1169.0625 2555,1167.9297 Q2554.8828,1167.1484 2554.4531,1166.7188 Q2553.6719,1165.8984 2552.2656,1165.4297 Q2550.8594,1164.9219 2549.4531,1164.9219 Q2547.6953,1164.9219 2546.2109,1165.625 Q2544.7656,1166.3281 2543.6328,1167.8906 Q2542.5,1169.4531 2542.5,1171.6016 L2542.5,1173.9063 Q2542.5,1176.4844 2544.6094,1178.2031 Q2546.7188,1179.9219 2550.4688,1179.9219 Q2552.6953,1179.9219 2554.2578,1179.4141 Q2555.1563,1179.1406 2556.1719,1178.2422 Q2556.8359,1177.7344 2557.1875,1177.5781 Q2557.5391,1177.4219 2557.9688,1177.4219 Q2558.7891,1177.4219 2559.375,1178.0859 Q2560,1178.7109 2560,1179.6094 Q2560,1180.4688 2559.1406,1181.4844 Q2557.8906,1182.9688 2555.8984,1183.7891 Q2553.2813,1184.9219 2550.0781,1184.9219 Q2546.3281,1184.9219 2543.3203,1183.4375 Q2540.8984,1182.2656 2539.1797,1179.7266 Q2537.5,1177.1875 2537.5,1174.1797 L2537.5,1171.4453 Q2537.5,1168.3203 2538.9844,1165.5859 Q2540.5078,1162.8516 2543.125,1161.4063 Q2545.7813,1159.9219 2548.75,1159.9219 Q2550.5469,1159.9219 2552.1094,1160.5469 Q2553.6719,1161.1719 2555,1162.4219 Z " fill="#000000"/><polygon fill="#4177AF" points="2597.5,1159.9219,2587.5,1174.9219,2607.5,1174.9219" style="stroke:#1963A0;stroke-width:2.5;"/><text fill="#000000" font-family="sans-serif" font-size="30" font-style="italic" font-weight="bold" lengthAdjust="spacing" textLength="60" x="2612.5" y="1183.4473">final</text><text fill="#000000" font-family="sans-serif" font-size="30" font-style="italic" lengthAdjust="spacing" textLength="290" x="2680" y="1183.4473">CardRequestAdapter</text><line style="stroke:#3498DB;stroke-width:3.75;" x1="2515" x2="2975" y1="1211.1719" y2="1211.1719"/><text fill="#000000" font-family="sans-serif" font-size="27.5" lengthAdjust="spacing" textLength="22.5" x="2527.5" y="1249.7192">...</text><line style="stroke:#3498DB;stroke-width:3.75;" x1="2515" x2="2975" y1="1265.7617" y2="1265.7617"/><!--MD5=[702c384917d520aca1ef7db480e71741]
class ApduRequestAdapter--><rect codeLine="154" fill="#EBF5FB" height="154.5898" id="ApduRequestAdapter" style="stroke:#3498DB;stroke-width:3.75;" width="470" x="3065" y="1131.1719"/><ellipse cx="3102.5" cy="1171.1719" fill="#ADD1B2" rx="27.5" ry="27.5" style="stroke:#ADD1B2;stroke-width:2.5;"/><path d="M3107.5,1162.4219 Q3108.0078,1161.1719 3108.5938,1160.5469 Q3109.1797,1159.9219 3109.8438,1159.9219 Q3111.0156,1159.9219 3111.7578,1160.625 Q3112.5,1161.3281 3112.5,1162.9688 L3112.5,1166.875 Q3112.5,1168.5156 3111.7969,1169.2188 Q3111.0938,1169.9219 3110,1169.9219 Q3109.0234,1169.9219 3108.3984,1169.4922 Q3107.7734,1169.0625 3107.5,1167.9297 Q3107.3828,1167.1484 3106.9531,1166.7188 Q3106.1719,1165.8984 3104.7656,1165.4297 Q3103.3594,1164.9219 3101.9531,1164.9219 Q3100.1953,1164.9219 3098.7109,1165.625 Q3097.2656,1166.3281 3096.1328,1167.8906 Q3095,1169.4531 3095,1171.6016 L3095,1173.9063 Q3095,1176.4844 3097.1094,1178.2031 Q3099.2188,1179.9219 3102.9688,1179.9219 Q3105.1953,1179.9219 3106.7578,1179.4141 Q3107.6563,1179.1406 3108.6719,1178.2422 Q3109.3359,1177.7344 3109.6875,1177.5781 Q3110.0391,1177.4219 3110.4688,1177.4219 Q3111.2891,1177.4219 3111.875,1178.0859 Q3112.5,1178.7109 3112.5,1179.6094 Q3112.5,1180.4688 3111.6406,1181.4844 Q3110.3906,1182.9688 3108.3984,1183.7891 Q3105.7813,1184.9219 3102.5781,1184.9219 Q3098.8281,1184.9219 3095.8203,1183.4375 Q3093.3984,1182.2656 3091.6797,1179.7266 Q3090,1177.1875 3090,1174.1797 L3090,1171.4453 Q3090,1168.3203 3091.4844,1165.5859 Q3093.0078,1162.8516 3095.625,1161.4063 Q3098.2813,1159.9219 3101.25,1159.9219 Q3103.0469,1159.9219 3104.6094,1160.5469 Q3106.1719,1161.1719 3107.5,1162.4219 Z " fill="#000000"/><polygon fill="#4177AF" points="3150,1159.9219,3140,1174.9219,3160,1174.9219" style="stroke:#1963A0;stroke-width:2.5;"/><text fill="#000000" font-family="sans-serif" font-size="30" font-style="italic" font-weight="bold" lengthAdjust="spacing" textLength="60" x="3165" y="1183.4473">final</text><text fill="#000000" font-family="sans-serif" font-size="30" font-style="italic" lengthAdjust="spacing" textLength="295" x="3232.5" y="1183.4473">ApduRequestAdapter</text><line style="stroke:#3498DB;stroke-width:3.75;" x1="3067.5" x2="3532.5" y1="1211.1719" y2="1211.1719"/><text fill="#000000" font-family="sans-serif" font-size="27.5" lengthAdjust="spacing" textLength="22.5" x="3080" y="1249.7192">...</text><line style="stroke:#3498DB;stroke-width:3.75;" x1="3067.5" x2="3532.5" y1="1265.7617" y2="1265.7617"/><!--MD5=[f32ec65005451c0b69c9b7f05ba07707]
reverse link KeypleCardExtension to xxxCardExtension--><path d="M382.5,566.9794 C382.5,618.4369 382.5,677.7019 382.5,728.5569 " fill="none" id="KeypleCardExtension-backto-xxxCardExtension" style="stroke:#A80036;stroke-width:2.5;stroke-dasharray:7.0,7.0;"/><polygon fill="none" points="365,566.8644,382.5,516.8644,400,566.8644,365,566.8644" style="stroke:#A80036;stroke-width:2.5;"/><!--MD5=[4abb779e65060c5bfc44d688ec29c257]
reverse link CardSelection to xxxCardSelection--><path d="M1102.7125,549.1519 C1097.9425,619.8594 1091.825,710.4819 1087.5775,773.4394 " fill="none" id="CardSelection-backto-xxxCardSelection" style="stroke:#A80036;stroke-width:2.5;"/><polygon fill="none" points="1085.29,547.3994,1106.1175,498.6919,1120.2125,549.7569,1085.29,547.3994" style="stroke:#A80036;stroke-width:2.5;"/><!--MD5=[7b98aeab9a3d660b23153640da6ec114]
reverse link SmartCard to xxxSmartCard--><path d="M1482.9225,567.4344 C1485.82,634.9219 1489.29,715.7394 1491.7675,773.3844 " fill="none" id="SmartCard-backto-xxxSmartCard" style="stroke:#A80036;stroke-width:2.5;"/><polygon fill="none" points="1465.4125,567.5694,1480.75,516.8644,1500.38,566.0669,1465.4125,567.5694" style="stroke:#A80036;stroke-width:2.5;"/><!--MD5=[f9e88762e83c86988ad219a5e0819efc]
reverse link xxxCardSelection to CardSelectionAdapter--><path d="M862.825,949.4894 C744.1275,1006.6344 602.31,1078.1419 502.8475,1131.1594 " fill="none" id="xxxCardSelection-backto-CardSelectionAdapter" style="stroke:#A80036;stroke-width:2.5;stroke-dasharray:7.0,7.0;"/><polygon fill="none" points="856.06,933.3269,908.72,927.5669,871.145,964.9094,856.06,933.3269" style="stroke:#A80036;stroke-width:2.5;"/><!--MD5=[34e44595bf0a0d32c4918616d2d07cf8]
link xxxCardSelection to CardSelectionAdapter--><!--MD5=[0ef400922815e7dd748cddf286752fa6]
reverse link CardSelectionSpi to CardSelectionAdapter--><path d="M650.845,1520.4469 C585.9925,1446.3944 503.06,1351.6919 446.1475,1286.7069 " fill="none" id="CardSelectionSpi-backto-CardSelectionAdapter" style="stroke:#A80036;stroke-width:2.5;stroke-dasharray:7.0,7.0;"/><polygon fill="none" points="664.025,1508.9369,683.8025,1558.0801,637.695,1531.9944,664.025,1508.9369" style="stroke:#A80036;stroke-width:2.5;"/><!--MD5=[2a1bb015db254be1a47ee043237b6d25]
link CardSelectionAdapter to CardSelectionSpi--><!--MD5=[7350053e91638e88c62e6965795931f1]
reverse link xxxSmartCard to SmartCardAdapter--><path d="M1329.98,955.2769 C1238.86,1011.3819 1127.6375,1079.8644 1044.425,1131.0994 " fill="none" id="xxxSmartCard-backto-SmartCardAdapter" style="stroke:#A80036;stroke-width:2.5;stroke-dasharray:7.0,7.0;"/><polygon fill="none" points="1321.135,940.1744,1372.8875,928.8594,1339.485,969.9769,1321.135,940.1744" style="stroke:#A80036;stroke-width:2.5;"/><!--MD5=[d975716a9aa2ff4786c26b1cb323c8e6]
reverse link SmartCardSpi to SmartCardAdapter--><path d="M1104.4775,1531.5269 C1061.6075,1456.0569 1004.19,1354.9819 965.4075,1286.7069 " fill="none" id="SmartCardSpi-backto-SmartCardAdapter" style="stroke:#A80036;stroke-width:2.5;stroke-dasharray:7.0,7.0;"/><polygon fill="none" points="1120.12,1523.6344,1129.6,1575.7524,1089.6875,1540.9194,1120.12,1523.6344" style="stroke:#A80036;stroke-width:2.5;"/><!--MD5=[8104807d404f27e6fa35e0d2be6883ed]
link SmartCardAdapter to SmartCardSpi--><!--MD5=[ab8e579a1b8e72346f5d186bc80313b4]
reverse link CardSelectorSpi to CardSelectorAdapter--><path d="M1558.6775,1507.7219 C1556.285,1480.7669 1553.3975,1452.4869 1550,1426.1719 C1543.9825,1379.5744 1534.9975,1327.6769 1527.33,1286.5444 " fill="none" id="CardSelectorSpi-backto-CardSelectorAdapter" style="stroke:#A80036;stroke-width:2.5;stroke-dasharray:7.0,7.0;"/><polygon fill="none" points="1576.2025,1507.3419,1562.7775,1558.5869,1541.315,1510.1544,1576.2025,1507.3419" style="stroke:#A80036;stroke-width:2.5;"/><!--MD5=[09ea485f7c1a06d1f3c6537f7fdbbbcb]
link CardSelectorAdapter to CardSelectorSpi--><!--MD5=[4ee34067652aa9a1b27356309ad5cc55]
reverse link CardSelectionRequestSpi to CardSelectionRequestAdapter--><path d="M2074.8125,1507.9794 C2087.5875,1436.0119 2103.1925,1348.0994 2114.0925,1286.7069 " fill="none" id="CardSelectionRequestSpi-backto-CardSelectionRequestAdapter" style="stroke:#A80036;stroke-width:2.5;stroke-dasharray:7.0,7.0;"/><polygon fill="none" points="2091.8875,1511.9094,2065.9175,1558.0801,2057.4275,1505.7919,2091.8875,1511.9094" style="stroke:#A80036;stroke-width:2.5;"/><!--MD5=[e0cd13c02551a52f14d3dde67c444430]
link CardSelectionRequestAdapter to CardSelectionRequestSpi--><!--MD5=[fee7c39d2b7ca32b51cea31894a49b3e]
reverse link CardRequestSpi to CardRequestAdapter--><path d="M2598.95,1512.1744 C2634.225,1439.4519 2677.975,1349.2969 2708.35,1286.7069 " fill="none" id="CardRequestSpi-backto-CardRequestAdapter" style="stroke:#A80036;stroke-width:2.5;stroke-dasharray:7.0,7.0;"/><polygon fill="none" points="2614.25,1520.7344,2576.675,1558.0801,2582.75,1505.4569,2614.25,1520.7344" style="stroke:#A80036;stroke-width:2.5;"/><!--MD5=[d23e39c9eba8f7513b53777eeebf059d]
link CardRequestAdapter to CardRequestSpi--><!--MD5=[2e7b2631130bcf997502918bb0c8ace7]
reverse link ApduRequestSpi to ApduRequestAdapter--><path d="M3056.4,1518.3944 C3114.875,1444.6519 3189.05,1351.0944 3240.1,1286.7069 " fill="none" id="ApduRequestSpi-backto-ApduRequestAdapter" style="stroke:#A80036;stroke-width:2.5;stroke-dasharray:7.0,7.0;"/><polygon fill="none" points="3069.725,1529.7744,3024.925,1558.0801,3042.3,1508.0294,3069.725,1529.7744" style="stroke:#A80036;stroke-width:2.5;"/><!--MD5=[e23e49f2e91f2a61b555fafbc5c430fa]
link ApduRequestAdapter to ApduRequestSpi--><!--MD5=[3aa200d50e8af772637d2251ae140976]
link xxxCardExtension to xxxCardSelection--><path codeLine="126" d="M685.46,851.1719 C756.8175,851.1719 830.835,851.1719 895.35,851.1719 " fill="none" id="xxxCardExtension-to-xxxCardSelection" style="stroke:#3498DB;stroke-width:2.5;stroke-dasharray:7.0,7.0;"/><polygon fill="#3498DB" points="908.1225,851.1719,885.6225,841.1719,895.6225,851.1719,885.6225,861.1719,908.1225,851.1719" style="stroke:#3498DB;stroke-width:2.5;"/><polygon fill="#000000" points="753.125,821.6113,730.5123,814.264,730.5123,828.9586,753.125,821.6113" style="stroke:#000000;stroke-width:2.5;"/><text fill="#000000" font-family="sans-serif" font-size="32.5" lengthAdjust="spacing" textLength="100" x="763.125" y="834.9097">provide</text><!--MD5=[a8f123358b4f5c423a5a9f5f2ff27cd3]
link SmartCardAdapter to CardSelectorAdapter--><!--MD5=[e73f3651d8d188754f924c44117e1652]
@startuml
title
    Keyple 2.0 - Specific Card Extension - 2.0.0 (04/06/2021)
end title

' == THEME ==

'Couleurs issues de : https://htmlcolorcodes.com/fr/tableau-de-couleur/tableau-de-couleur-design-plat/
!define C_GREY1 F8F9F9
!define C_GREY2 F2F3F4
!define C_GREY3 E5E7E9
!define C_GREY4 D7DBDD
!define C_GREY5 CACFD2
!define C_GREY6 BDC3C7
!define C_LINK 3498DB
!define C_USE 27AE60

skinparam Shadowing false
skinparam ClassFontStyle italic
skinparam ClassBorderColor #D4AC0D
skinparam stereotypeABorderColor #A9DCDF
skinparam stereotypeIBorderColor #B4A7E5
skinparam stereotypeCBorderColor #ADD1B2
skinparam stereotypeEBorderColor #EB93DF
' Red
skinparam ClassBackgroundColor<<red>> #FDEDEC
skinparam ClassBorderColor<<red>> #E74C3C
hide <<red>> stereotype
' Purple
skinparam ClassBackgroundColor<<purple>> #F4ECF7
skinparam ClassBorderColor<<purple>> #8E44AD
hide <<purple>> stereotype
' blue
skinparam ClassBackgroundColor<<blue>> #EBF5FB
skinparam ClassBorderColor<<blue>> #3498DB
hide <<blue>> stereotype
' Green
skinparam ClassBackgroundColor<<green>> #E9F7EF
skinparam ClassBorderColor<<green>> #27AE60
hide <<green>> stereotype
' Grey
skinparam ClassBackgroundColor<<grey>> #EAECEE
skinparam ClassBorderColor<<grey>> #2C3E50
hide <<grey>> stereotype

' == CONTENT ==

legend top
    __Colors legend__ :
    * <back:yellow>Public API for end users</back>
    * <back:lightBlue>Private API for internal use only</back>
end legend

package "org.eclipse.keyple.core.common" as commonsApi {
    +interface KeypleCardExtension {
        ...
    }
}
package "org.calypsonet.terminal.reader.selection.spi" as readerSelectionSpi {
    +interface CardSelection {
    }
    +interface SmartCard {
        ...
    }
}
package "org.calypsonet.terminal.card.spi" as cardSpi {
    +interface CardSelectionSpi {
        ...
    }
    +interface SmartCardSpi {
    }
    +interface CardSelectorSpi {
        ...
    }
    +interface CardSelectionRequestSpi {
        ...
    }
    +interface CardRequestSpi {
        ...
    }
    +interface ApduRequestSpi {
        ...
    }
}

package "org.eclipse.keyple.card.xxx (specific extension)" as specificExtension {
    +class "**final** xxxCardExtension" as xxxCardExtension implements KeypleCardExtension {
        - -
        +{static} xxxCardExtension getInstance ()
        ..
        +xxxCardSelection createXxxCardSelection ()
        ...
    }
    +interface xxxCardSelection extends CardSelection {
        ...
    }
    +interface xxxSmartCard extends SmartCard {
        ...
    }
    ' Adapters
    together {
        ~class "**final** CardSelectionAdapter" as CardSelectionAdapter implements xxxCardSelection, CardSelectionSpi {
            ...
        }
        ~class "**final** SmartCardAdapter" as SmartCardAdapter implements xxxSmartCard, SmartCardSpi {
            ...
        }
    }
    together {
        ~class "**final** CardSelectorAdapter" as CardSelectorAdapter implements CardSelectorSpi {
            ...
        }
        ~class "**final** CardSelectionRequestAdapter" as CardSelectionRequestAdapter implements CardSelectionRequestSpi {
            ...
        }
        ~class "**final** CardRequestAdapter" as CardRequestAdapter implements CardRequestSpi {
            ...
        }
        ~class "**final** ApduRequestAdapter" as ApduRequestAdapter implements ApduRequestSpi {
            ...
        }
    }
}

' Associations

xxxCardExtension .right.> xxxCardSelection #C_LINK : provide >

' == LAYOUT ==

CardSelectionAdapter -[hidden]- CardSelectionSpi
SmartCardAdapter -[hidden]- SmartCardSpi
CardSelectorAdapter -[hidden]- CardSelectorSpi
CardSelectionRequestAdapter -[hidden]- CardSelectionRequestSpi
CardRequestAdapter -[hidden]- CardRequestSpi
ApduRequestAdapter -[hidden]- ApduRequestSpi

xxxCardSelection -[hidden]- CardSelectionAdapter

SmartCardAdapter -[hidden]right- CardSelectorAdapter


' == STYLE ==

package commonsApi #C_GREY1 {}
package specificExtension #C_GREY1 {}
package cardSpi #C_GREY1 {}
package readerSelectionSpi #C_GREY1 {}

class CardSelectionAdapter <<blue>>
class CardSelectorAdapter <<blue>>
class SmartCardAdapter <<blue>>
class CardSelectionRequestAdapter <<blue>>
class CardRequestAdapter <<blue>>
class ApduRequestAdapter <<blue>>
interface CardSelectionSpi <<blue>>
interface CardSelectorSpi <<blue>>
interface SmartCardSpi <<blue>>
interface CardSelectionRequestSpi <<blue>>
interface CardRequestSpi <<blue>>
interface ApduRequestSpi <<blue>>

@enduml

@startuml
title
    Keyple 2.0 - Specific Card Extension - 2.0.0 (04/06/2021)
end title



skinparam Shadowing false
skinparam ClassFontStyle italic
skinparam ClassBorderColor #D4AC0D
skinparam stereotypeABorderColor #A9DCDF
skinparam stereotypeIBorderColor #B4A7E5
skinparam stereotypeCBorderColor #ADD1B2
skinparam stereotypeEBorderColor #EB93DF
skinparam ClassBackgroundColor<<red>> #FDEDEC
skinparam ClassBorderColor<<red>> #E74C3C
hide <<red>> stereotype
skinparam ClassBackgroundColor<<purple>> #F4ECF7
skinparam ClassBorderColor<<purple>> #8E44AD
hide <<purple>> stereotype
skinparam ClassBackgroundColor<<blue>> #EBF5FB
skinparam ClassBorderColor<<blue>> #3498DB
hide <<blue>> stereotype
skinparam ClassBackgroundColor<<green>> #E9F7EF
skinparam ClassBorderColor<<green>> #27AE60
hide <<green>> stereotype
skinparam ClassBackgroundColor<<grey>> #EAECEE
skinparam ClassBorderColor<<grey>> #2C3E50
hide <<grey>> stereotype


legend top
    __Colors legend__ :
    * <back:yellow>Public API for end users</back>
    * <back:lightBlue>Private API for internal use only</back>
end legend

package "org.eclipse.keyple.core.common" as commonsApi {
    +interface KeypleCardExtension {
        ...
    }
}
package "org.calypsonet.terminal.reader.selection.spi" as readerSelectionSpi {
    +interface CardSelection {
    }
    +interface SmartCard {
        ...
    }
}
package "org.calypsonet.terminal.card.spi" as cardSpi {
    +interface CardSelectionSpi {
        ...
    }
    +interface SmartCardSpi {
    }
    +interface CardSelectorSpi {
        ...
    }
    +interface CardSelectionRequestSpi {
        ...
    }
    +interface CardRequestSpi {
        ...
    }
    +interface ApduRequestSpi {
        ...
    }
}

package "org.eclipse.keyple.card.xxx (specific extension)" as specificExtension {
    +class "**final** xxxCardExtension" as xxxCardExtension implements KeypleCardExtension {
        - -
        +{static} xxxCardExtension getInstance ()
        ..
        +xxxCardSelection createXxxCardSelection ()
        ...
    }
    +interface xxxCardSelection extends CardSelection {
        ...
    }
    +interface xxxSmartCard extends SmartCard {
        ...
    }
    together {
        ~class "**final** CardSelectionAdapter" as CardSelectionAdapter implements xxxCardSelection, CardSelectionSpi {
            ...
        }
        ~class "**final** SmartCardAdapter" as SmartCardAdapter implements xxxSmartCard, SmartCardSpi {
            ...
        }
    }
    together {
        ~class "**final** CardSelectorAdapter" as CardSelectorAdapter implements CardSelectorSpi {
            ...
        }
        ~class "**final** CardSelectionRequestAdapter" as CardSelectionRequestAdapter implements CardSelectionRequestSpi {
            ...
        }
        ~class "**final** CardRequestAdapter" as CardRequestAdapter implements CardRequestSpi {
            ...
        }
        ~class "**final** ApduRequestAdapter" as ApduRequestAdapter implements ApduRequestSpi {
            ...
        }
    }
}


xxxCardExtension .right.> xxxCardSelection #3498DB : provide >


CardSelectionAdapter -[hidden]- CardSelectionSpi
SmartCardAdapter -[hidden]- SmartCardSpi
CardSelectorAdapter -[hidden]- CardSelectorSpi
CardSelectionRequestAdapter -[hidden]- CardSelectionRequestSpi
CardRequestAdapter -[hidden]- CardRequestSpi
ApduRequestAdapter -[hidden]- ApduRequestSpi

xxxCardSelection -[hidden]- CardSelectionAdapter

SmartCardAdapter -[hidden]right- CardSelectorAdapter



package commonsApi #F8F9F9 {}
package specificExtension #F8F9F9 {}
package cardSpi #F8F9F9 {}
package readerSelectionSpi #F8F9F9 {}

class CardSelectionAdapter <<blue>>
class CardSelectorAdapter <<blue>>
class SmartCardAdapter <<blue>>
class CardSelectionRequestAdapter <<blue>>
class CardRequestAdapter <<blue>>
class ApduRequestAdapter <<blue>>
interface CardSelectionSpi <<blue>>
interface CardSelectorSpi <<blue>>
interface SmartCardSpi <<blue>>
interface CardSelectionRequestSpi <<blue>>
interface CardRequestSpi <<blue>>
interface ApduRequestSpi <<blue>>

@enduml

PlantUML version 1.2021.7(Sun May 23 14:40:07 CEST 2021)
(GPL source distribution)
Java Runtime: OpenJDK Runtime Environment
JVM: Dynamic Code Evolution 64-Bit Server VM
Default Encoding: Cp1252
Language: fr
Country: FR
--></g></svg>