<?xml version="1.0" encoding="UTF-8" standalone="no"?><svg xmlns="http://www.w3.org/2000/svg" xmlns:xlink="http://www.w3.org/1999/xlink" contentScriptType="application/ecmascript" contentStyleType="text/css" height="1520px" preserveAspectRatio="none" style="width:2237px;height:1520px;" version="1.1" viewBox="0 0 2237 1520" width="2237.5px" zoomAndPan="magnify"><defs/><g><text fill="#000000" font-family="sans-serif" font-size="45" lengthAdjust="spacing" textLength="1122.5" x="541.25" y="46.7139">Keyple 2.0 - Specific Remote Plugin - 2.0.0 (08/03/2021)</text><!--MD5=[621c849533070c5aba8aa732369aa9f8]
cluster commonsApi--><polygon fill="#F8F9F9" points="462.5,71.6016,1047.5,71.6016,1065,130.625,2195,130.625,2195,361.6016,462.5,361.6016,462.5,71.6016" style="stroke:#000000;stroke-width:3.75;"/><line style="stroke:#000000;stroke-width:3.75;" x1="462.5" x2="1065" y1="130.625" y2="130.625"/><text fill="#000000" font-family="sans-serif" font-size="35" font-weight="bold" lengthAdjust="spacing" textLength="570" x="472.5" y="112.9346">org.eclipse.keyple.core.common</text><!--MD5=[6cb19e7d8351e03571d64db4601c3623]
cluster pluginSpi--><polygon fill="#F8F9F9" points="417.5,1219.1016,1245,1219.1016,1262.5,1278.125,1837.5,1278.125,1837.5,1504.1016,417.5,1504.1016,417.5,1219.1016" style="stroke:#000000;stroke-width:3.75;"/><line style="stroke:#000000;stroke-width:3.75;" x1="417.5" x2="1262.5" y1="1278.125" y2="1278.125"/><text fill="#000000" font-family="sans-serif" font-size="35" font-weight="bold" lengthAdjust="spacing" textLength="812.5" x="427.5" y="1260.4346">org.eclipse.keyple.core.distributed.remote.spi</text><!--MD5=[f4079738657ebf8f47a9de3e76e08740]
cluster specificPluginApi--><polygon fill="#F8F9F9" points="40,484.1016,860,484.1016,877.5,543.125,1965,543.125,1965,1116.6016,40,1116.6016,40,484.1016" style="stroke:#000000;stroke-width:3.75;"/><line style="stroke:#000000;stroke-width:3.75;" x1="40" x2="877.5" y1="543.125" y2="543.125"/><text fill="#000000" font-family="sans-serif" font-size="35" font-weight="bold" lengthAdjust="spacing" textLength="805" x="50" y="525.4346">org.eclipse.keyple.plugin.xxx (specific plugin)</text><!--MD5=[c9fcbc22b46e6fe8dd529abbe4ed4a83]
class KeyplePluginExtensionFactory--><rect codeLine="48" fill="#FEFECE" height="120" id="KeyplePluginExtensionFactory" style="stroke:#D4AC0D;stroke-width:3.75;" width="525" x="570" y="181.6016"/><ellipse cx="607.5" cy="221.6016" fill="#B4A7E5" rx="27.5" ry="27.5" style="stroke:#B4A7E5;stroke-width:2.5;"/><path d="M610,214.1016 L610,229.1016 L615,229.1016 L616.2109,229.1016 L617.5,230.6641 L617.5,231.6016 L617.5,232.5391 L616.2109,234.1016 L615,234.1016 L600,234.1016 L598.7891,234.1016 L597.5,232.5391 L597.5,231.6016 L597.5,230.6641 L598.7891,229.1016 L600,229.1016 L605,229.1016 L605,214.1016 L600,214.1016 L598.7891,214.1016 L597.5,212.5391 L597.5,211.6016 L597.5,210.6641 L598.7891,209.1016 L600,209.1016 L615,209.1016 L616.2109,209.1016 L617.5,210.6641 L617.5,211.6016 L617.5,212.5391 L616.2109,214.1016 L615,214.1016 L610,214.1016 Z " fill="#000000"/><ellipse cx="655" cy="220.3516" fill="#84BE84" rx="7.5" ry="7.5" style="stroke:#038048;stroke-width:2.5;"/><text fill="#000000" font-family="sans-serif" font-size="30" font-style="italic" lengthAdjust="spacing" textLength="417.5" x="670" y="233.877">KeyplePluginExtensionFactory</text><line style="stroke:#D4AC0D;stroke-width:3.75;" x1="572.5" x2="1092.5" y1="261.6016" y2="261.6016"/><line style="stroke:#D4AC0D;stroke-width:3.75;" x1="572.5" x2="1092.5" y1="281.6016" y2="281.6016"/><!--MD5=[afffbc881b1d922900a05d5f1575661b]
class KeyplePluginExtension--><rect codeLine="50" fill="#FEFECE" height="120" id="KeyplePluginExtension" style="stroke:#D4AC0D;stroke-width:3.75;" width="425" x="1182.5" y="181.6016"/><ellipse cx="1220" cy="221.6016" fill="#B4A7E5" rx="27.5" ry="27.5" style="stroke:#B4A7E5;stroke-width:2.5;"/><path d="M1222.5,214.1016 L1222.5,229.1016 L1227.5,229.1016 L1228.7109,229.1016 L1230,230.6641 L1230,231.6016 L1230,232.5391 L1228.7109,234.1016 L1227.5,234.1016 L1212.5,234.1016 L1211.2891,234.1016 L1210,232.5391 L1210,231.6016 L1210,230.6641 L1211.2891,229.1016 L1212.5,229.1016 L1217.5,229.1016 L1217.5,214.1016 L1212.5,214.1016 L1211.2891,214.1016 L1210,212.5391 L1210,211.6016 L1210,210.6641 L1211.2891,209.1016 L1212.5,209.1016 L1227.5,209.1016 L1228.7109,209.1016 L1230,210.6641 L1230,211.6016 L1230,212.5391 L1228.7109,214.1016 L1227.5,214.1016 L1222.5,214.1016 Z " fill="#000000"/><ellipse cx="1267.5" cy="220.3516" fill="#84BE84" rx="7.5" ry="7.5" style="stroke:#038048;stroke-width:2.5;"/><text fill="#000000" font-family="sans-serif" font-size="30" font-style="italic" lengthAdjust="spacing" textLength="317.5" x="1282.5" y="233.877">KeyplePluginExtension</text><line style="stroke:#D4AC0D;stroke-width:3.75;" x1="1185" x2="1605" y1="261.6016" y2="261.6016"/><line style="stroke:#D4AC0D;stroke-width:3.75;" x1="1185" x2="1605" y1="281.6016" y2="281.6016"/><!--MD5=[d0367e54e30269e1f6406d1a6d3c359c]
class KeypleReaderExtension--><rect codeLine="52" fill="#FEFECE" height="120" id="KeypleReaderExtension" style="stroke:#D4AC0D;stroke-width:3.75;" width="440" x="1695" y="181.6016"/><ellipse cx="1732.5" cy="221.6016" fill="#B4A7E5" rx="27.5" ry="27.5" style="stroke:#B4A7E5;stroke-width:2.5;"/><path d="M1735,214.1016 L1735,229.1016 L1740,229.1016 L1741.2109,229.1016 L1742.5,230.6641 L1742.5,231.6016 L1742.5,232.5391 L1741.2109,234.1016 L1740,234.1016 L1725,234.1016 L1723.7891,234.1016 L1722.5,232.5391 L1722.5,231.6016 L1722.5,230.6641 L1723.7891,229.1016 L1725,229.1016 L1730,229.1016 L1730,214.1016 L1725,214.1016 L1723.7891,214.1016 L1722.5,212.5391 L1722.5,211.6016 L1722.5,210.6641 L1723.7891,209.1016 L1725,209.1016 L1740,209.1016 L1741.2109,209.1016 L1742.5,210.6641 L1742.5,211.6016 L1742.5,212.5391 L1741.2109,214.1016 L1740,214.1016 L1735,214.1016 Z " fill="#000000"/><ellipse cx="1780" cy="220.3516" fill="#84BE84" rx="7.5" ry="7.5" style="stroke:#038048;stroke-width:2.5;"/><text fill="#000000" font-family="sans-serif" font-size="30" font-style="italic" lengthAdjust="spacing" textLength="332.5" x="1795" y="233.877">KeypleReaderExtension</text><line style="stroke:#D4AC0D;stroke-width:3.75;" x1="1697.5" x2="2132.5" y1="261.6016" y2="261.6016"/><line style="stroke:#D4AC0D;stroke-width:3.75;" x1="1697.5" x2="2132.5" y1="281.6016" y2="281.6016"/><!--MD5=[3937379067c1c7d1f35002e0ca836dbd]
class RemoteReaderSpi--><rect codeLine="115" fill="#EBF5FB" height="154.5898" id="RemoteReaderSpi" style="stroke:#3498DB;stroke-width:3.75;" width="365" x="1432.5" y="1309.1016"/><ellipse cx="1470" cy="1349.1016" fill="#B4A7E5" rx="27.5" ry="27.5" style="stroke:#B4A7E5;stroke-width:2.5;"/><path d="M1472.5,1341.6016 L1472.5,1356.6016 L1477.5,1356.6016 L1478.7109,1356.6016 L1480,1358.1641 L1480,1359.1016 L1480,1360.0391 L1478.7109,1361.6016 L1477.5,1361.6016 L1462.5,1361.6016 L1461.2891,1361.6016 L1460,1360.0391 L1460,1359.1016 L1460,1358.1641 L1461.2891,1356.6016 L1462.5,1356.6016 L1467.5,1356.6016 L1467.5,1341.6016 L1462.5,1341.6016 L1461.2891,1341.6016 L1460,1340.0391 L1460,1339.1016 L1460,1338.1641 L1461.2891,1336.6016 L1462.5,1336.6016 L1477.5,1336.6016 L1478.7109,1336.6016 L1480,1338.1641 L1480,1339.1016 L1480,1340.0391 L1478.7109,1341.6016 L1477.5,1341.6016 L1472.5,1341.6016 Z " fill="#000000"/><ellipse cx="1517.5" cy="1347.8516" fill="#84BE84" rx="7.5" ry="7.5" style="stroke:#038048;stroke-width:2.5;"/><text fill="#000000" font-family="sans-serif" font-size="30" font-style="italic" lengthAdjust="spacing" textLength="257.5" x="1532.5" y="1361.377">RemoteReaderSpi</text><line style="stroke:#3498DB;stroke-width:3.75;" x1="1435" x2="1795" y1="1389.1016" y2="1389.1016"/><text fill="#000000" font-family="sans-serif" font-size="27.5" lengthAdjust="spacing" textLength="22.5" x="1447.5" y="1427.6489">...</text><line style="stroke:#3498DB;stroke-width:3.75;" x1="1435" x2="1795" y1="1443.6914" y2="1443.6914"/><!--MD5=[733b899168be945616a1d8aa95c72981]
class RemotePluginSpi--><rect codeLine="116" fill="#EBF5FB" height="154.5898" id="RemotePluginSpi" style="stroke:#3498DB;stroke-width:3.75;" width="350" x="995" y="1309.1016"/><ellipse cx="1032.5" cy="1349.1016" fill="#B4A7E5" rx="27.5" ry="27.5" style="stroke:#B4A7E5;stroke-width:2.5;"/><path d="M1035,1341.6016 L1035,1356.6016 L1040,1356.6016 L1041.2109,1356.6016 L1042.5,1358.1641 L1042.5,1359.1016 L1042.5,1360.0391 L1041.2109,1361.6016 L1040,1361.6016 L1025,1361.6016 L1023.7891,1361.6016 L1022.5,1360.0391 L1022.5,1359.1016 L1022.5,1358.1641 L1023.7891,1356.6016 L1025,1356.6016 L1030,1356.6016 L1030,1341.6016 L1025,1341.6016 L1023.7891,1341.6016 L1022.5,1340.0391 L1022.5,1339.1016 L1022.5,1338.1641 L1023.7891,1336.6016 L1025,1336.6016 L1040,1336.6016 L1041.2109,1336.6016 L1042.5,1338.1641 L1042.5,1339.1016 L1042.5,1340.0391 L1041.2109,1341.6016 L1040,1341.6016 L1035,1341.6016 Z " fill="#000000"/><ellipse cx="1080" cy="1347.8516" fill="#84BE84" rx="7.5" ry="7.5" style="stroke:#038048;stroke-width:2.5;"/><text fill="#000000" font-family="sans-serif" font-size="30" font-style="italic" lengthAdjust="spacing" textLength="242.5" x="1095" y="1361.377">RemotePluginSpi</text><line style="stroke:#3498DB;stroke-width:3.75;" x1="997.5" x2="1342.5" y1="1389.1016" y2="1389.1016"/><text fill="#000000" font-family="sans-serif" font-size="27.5" lengthAdjust="spacing" textLength="22.5" x="1010" y="1427.6489">...</text><line style="stroke:#3498DB;stroke-width:3.75;" x1="997.5" x2="1342.5" y1="1443.6914" y2="1443.6914"/><!--MD5=[c2370bc74128b93bd072b6f31e9991b0]
class RemotePluginFactorySpi--><rect codeLine="117" fill="#EBF5FB" height="154.5898" id="RemotePluginFactorySpi" style="stroke:#3498DB;stroke-width:3.75;" width="450" x="457.5" y="1309.1016"/><ellipse cx="495" cy="1349.1016" fill="#B4A7E5" rx="27.5" ry="27.5" style="stroke:#B4A7E5;stroke-width:2.5;"/><path d="M497.5,1341.6016 L497.5,1356.6016 L502.5,1356.6016 L503.7109,1356.6016 L505,1358.1641 L505,1359.1016 L505,1360.0391 L503.7109,1361.6016 L502.5,1361.6016 L487.5,1361.6016 L486.2891,1361.6016 L485,1360.0391 L485,1359.1016 L485,1358.1641 L486.2891,1356.6016 L487.5,1356.6016 L492.5,1356.6016 L492.5,1341.6016 L487.5,1341.6016 L486.2891,1341.6016 L485,1340.0391 L485,1339.1016 L485,1338.1641 L486.2891,1336.6016 L487.5,1336.6016 L502.5,1336.6016 L503.7109,1336.6016 L505,1338.1641 L505,1339.1016 L505,1340.0391 L503.7109,1341.6016 L502.5,1341.6016 L497.5,1341.6016 Z " fill="#000000"/><ellipse cx="542.5" cy="1347.8516" fill="#84BE84" rx="7.5" ry="7.5" style="stroke:#038048;stroke-width:2.5;"/><text fill="#000000" font-family="sans-serif" font-size="30" font-style="italic" lengthAdjust="spacing" textLength="342.5" x="557.5" y="1361.377">RemotePluginFactorySpi</text><line style="stroke:#3498DB;stroke-width:3.75;" x1="460" x2="905" y1="1389.1016" y2="1389.1016"/><text fill="#000000" font-family="sans-serif" font-size="27.5" lengthAdjust="spacing" textLength="22.5" x="472.5" y="1427.6489">...</text><line style="stroke:#3498DB;stroke-width:3.75;" x1="460" x2="905" y1="1443.6914" y2="1443.6914"/><!--MD5=[77bc4349ea6438e8a74c230e5fcea155]
class xxxPluginFactoryProvider--><rect codeLine="69" fill="#FEFECE" height="154.5898" id="xxxPluginFactoryProvider" style="stroke:#D4AC0D;stroke-width:3.75;" width="522.5" x="148.75" y="594.1016"/><ellipse cx="186.25" cy="634.1016" fill="#ADD1B2" rx="27.5" ry="27.5" style="stroke:#ADD1B2;stroke-width:2.5;"/><path d="M191.25,625.3516 Q191.7578,624.1016 192.3438,623.4766 Q192.9297,622.8516 193.5938,622.8516 Q194.7656,622.8516 195.5078,623.5547 Q196.25,624.2578 196.25,625.8984 L196.25,629.8047 Q196.25,631.4453 195.5469,632.1484 Q194.8438,632.8516 193.75,632.8516 Q192.7734,632.8516 192.1484,632.4219 Q191.5234,631.9922 191.25,630.8594 Q191.1328,630.0781 190.7031,629.6484 Q189.9219,628.8281 188.5156,628.3594 Q187.1094,627.8516 185.7031,627.8516 Q183.9453,627.8516 182.4609,628.5547 Q181.0156,629.2578 179.8828,630.8203 Q178.75,632.3828 178.75,634.5313 L178.75,636.8359 Q178.75,639.4141 180.8594,641.1328 Q182.9688,642.8516 186.7188,642.8516 Q188.9453,642.8516 190.5078,642.3438 Q191.4063,642.0703 192.4219,641.1719 Q193.0859,640.6641 193.4375,640.5078 Q193.7891,640.3516 194.2188,640.3516 Q195.0391,640.3516 195.625,641.0156 Q196.25,641.6406 196.25,642.5391 Q196.25,643.3984 195.3906,644.4141 Q194.1406,645.8984 192.1484,646.7188 Q189.5313,647.8516 186.3281,647.8516 Q182.5781,647.8516 179.5703,646.3672 Q177.1484,645.1953 175.4297,642.6563 Q173.75,640.1172 173.75,637.1094 L173.75,634.375 Q173.75,631.25 175.2344,628.5156 Q176.7578,625.7813 179.375,624.3359 Q182.0313,622.8516 185,622.8516 Q186.7969,622.8516 188.3594,623.4766 Q189.9219,624.1016 191.25,625.3516 Z " fill="#000000"/><ellipse cx="233.75" cy="632.8516" fill="#84BE84" rx="7.5" ry="7.5" style="stroke:#038048;stroke-width:2.5;"/><text fill="#000000" font-family="sans-serif" font-size="30" font-style="italic" font-weight="bold" lengthAdjust="spacing" textLength="60" x="248.75" y="646.377">final</text><text fill="#000000" font-family="sans-serif" font-size="30" font-style="italic" lengthAdjust="spacing" textLength="347.5" x="316.25" y="646.377">xxxPluginFactoryProvider</text><line style="stroke:#D4AC0D;stroke-width:3.75;" x1="151.25" x2="668.75" y1="674.1016" y2="674.1016"/><line style="stroke:#D4AC0D;stroke-width:3.75;" x1="151.25" x2="668.75" y1="694.1016" y2="694.1016"/><ellipse cx="176.25" cy="721.6016" fill="#84BE84" rx="7.5" ry="7.5" style="stroke:#038048;stroke-width:2.5;"/><text fill="#000000" font-family="sans-serif" font-size="27.5" lengthAdjust="spacing" text-decoration="underline" textLength="372.5" x="198.75" y="732.6489">xxxPluginFactory getFactory ()</text><!--MD5=[fed7f4caaf0512ced7ad550cc1121374]
class xxxPluginFactory--><rect codeLine="72" fill="#FEFECE" height="154.5898" id="xxxPluginFactory" style="stroke:#D4AC0D;stroke-width:3.75;" width="340" x="895" y="594.1016"/><ellipse cx="932.5" cy="634.1016" fill="#B4A7E5" rx="27.5" ry="27.5" style="stroke:#B4A7E5;stroke-width:2.5;"/><path d="M935,626.6016 L935,641.6016 L940,641.6016 L941.2109,641.6016 L942.5,643.1641 L942.5,644.1016 L942.5,645.0391 L941.2109,646.6016 L940,646.6016 L925,646.6016 L923.7891,646.6016 L922.5,645.0391 L922.5,644.1016 L922.5,643.1641 L923.7891,641.6016 L925,641.6016 L930,641.6016 L930,626.6016 L925,626.6016 L923.7891,626.6016 L922.5,625.0391 L922.5,624.1016 L922.5,623.1641 L923.7891,621.6016 L925,621.6016 L940,621.6016 L941.2109,621.6016 L942.5,623.1641 L942.5,624.1016 L942.5,625.0391 L941.2109,626.6016 L940,626.6016 L935,626.6016 Z " fill="#000000"/><ellipse cx="980" cy="632.8516" fill="#84BE84" rx="7.5" ry="7.5" style="stroke:#038048;stroke-width:2.5;"/><text fill="#000000" font-family="sans-serif" font-size="30" font-style="italic" lengthAdjust="spacing" textLength="232.5" x="995" y="646.377">xxxPluginFactory</text><line style="stroke:#D4AC0D;stroke-width:3.75;" x1="897.5" x2="1232.5" y1="674.1016" y2="674.1016"/><text fill="#000000" font-family="sans-serif" font-size="27.5" lengthAdjust="spacing" textLength="22.5" x="910" y="712.6489">...</text><line style="stroke:#D4AC0D;stroke-width:3.75;" x1="897.5" x2="1232.5" y1="728.6914" y2="728.6914"/><!--MD5=[b6595d9ff200fd5ee11228c478636e60]
class xxxPlugin--><rect codeLine="75" fill="#FEFECE" height="154.5898" id="xxxPlugin" style="stroke:#D4AC0D;stroke-width:3.75;" width="240" x="1322.5" y="594.1016"/><ellipse cx="1360" cy="634.1016" fill="#B4A7E5" rx="27.5" ry="27.5" style="stroke:#B4A7E5;stroke-width:2.5;"/><path d="M1362.5,626.6016 L1362.5,641.6016 L1367.5,641.6016 L1368.7109,641.6016 L1370,643.1641 L1370,644.1016 L1370,645.0391 L1368.7109,646.6016 L1367.5,646.6016 L1352.5,646.6016 L1351.2891,646.6016 L1350,645.0391 L1350,644.1016 L1350,643.1641 L1351.2891,641.6016 L1352.5,641.6016 L1357.5,641.6016 L1357.5,626.6016 L1352.5,626.6016 L1351.2891,626.6016 L1350,625.0391 L1350,624.1016 L1350,623.1641 L1351.2891,621.6016 L1352.5,621.6016 L1367.5,621.6016 L1368.7109,621.6016 L1370,623.1641 L1370,624.1016 L1370,625.0391 L1368.7109,626.6016 L1367.5,626.6016 L1362.5,626.6016 Z " fill="#000000"/><ellipse cx="1407.5" cy="632.8516" fill="#84BE84" rx="7.5" ry="7.5" style="stroke:#038048;stroke-width:2.5;"/><text fill="#000000" font-family="sans-serif" font-size="30" font-style="italic" lengthAdjust="spacing" textLength="132.5" x="1422.5" y="646.377">xxxPlugin</text><line style="stroke:#D4AC0D;stroke-width:3.75;" x1="1325" x2="1560" y1="674.1016" y2="674.1016"/><text fill="#000000" font-family="sans-serif" font-size="27.5" lengthAdjust="spacing" textLength="22.5" x="1337.5" y="712.6489">...</text><line style="stroke:#D4AC0D;stroke-width:3.75;" x1="1325" x2="1560" y1="728.6914" y2="728.6914"/><!--MD5=[03f21e7ee5cc95940abd9e7870696a6e]
class xxxReader--><rect codeLine="78" fill="#FEFECE" height="154.5898" id="xxxReader" style="stroke:#D4AC0D;stroke-width:3.75;" width="255" x="1650" y="594.1016"/><ellipse cx="1687.5" cy="634.1016" fill="#B4A7E5" rx="27.5" ry="27.5" style="stroke:#B4A7E5;stroke-width:2.5;"/><path d="M1690,626.6016 L1690,641.6016 L1695,641.6016 L1696.2109,641.6016 L1697.5,643.1641 L1697.5,644.1016 L1697.5,645.0391 L1696.2109,646.6016 L1695,646.6016 L1680,646.6016 L1678.7891,646.6016 L1677.5,645.0391 L1677.5,644.1016 L1677.5,643.1641 L1678.7891,641.6016 L1680,641.6016 L1685,641.6016 L1685,626.6016 L1680,626.6016 L1678.7891,626.6016 L1677.5,625.0391 L1677.5,624.1016 L1677.5,623.1641 L1678.7891,621.6016 L1680,621.6016 L1695,621.6016 L1696.2109,621.6016 L1697.5,623.1641 L1697.5,624.1016 L1697.5,625.0391 L1696.2109,626.6016 L1695,626.6016 L1690,626.6016 Z " fill="#000000"/><ellipse cx="1735" cy="632.8516" fill="#84BE84" rx="7.5" ry="7.5" style="stroke:#038048;stroke-width:2.5;"/><text fill="#000000" font-family="sans-serif" font-size="30" font-style="italic" lengthAdjust="spacing" textLength="147.5" x="1750" y="646.377">xxxReader</text><line style="stroke:#D4AC0D;stroke-width:3.75;" x1="1652.5" x2="1902.5" y1="674.1016" y2="674.1016"/><text fill="#000000" font-family="sans-serif" font-size="27.5" lengthAdjust="spacing" textLength="22.5" x="1665" y="712.6489">...</text><line style="stroke:#D4AC0D;stroke-width:3.75;" x1="1652.5" x2="1902.5" y1="728.6914" y2="728.6914"/><!--MD5=[d53123d7850983a38423ef8749767f29]
class xxxPluginFactoryAdapter--><rect codeLine="114" fill="#EBF5FB" height="154.5898" id="xxxPluginFactoryAdapter" style="stroke:#3498DB;stroke-width:3.75;" width="515" x="370" y="901.6016"/><ellipse cx="407.5" cy="941.6016" fill="#ADD1B2" rx="27.5" ry="27.5" style="stroke:#ADD1B2;stroke-width:2.5;"/><path d="M412.5,932.8516 Q413.0078,931.6016 413.5938,930.9766 Q414.1797,930.3516 414.8438,930.3516 Q416.0156,930.3516 416.7578,931.0547 Q417.5,931.7578 417.5,933.3984 L417.5,937.3047 Q417.5,938.9453 416.7969,939.6484 Q416.0938,940.3516 415,940.3516 Q414.0234,940.3516 413.3984,939.9219 Q412.7734,939.4922 412.5,938.3594 Q412.3828,937.5781 411.9531,937.1484 Q411.1719,936.3281 409.7656,935.8594 Q408.3594,935.3516 406.9531,935.3516 Q405.1953,935.3516 403.7109,936.0547 Q402.2656,936.7578 401.1328,938.3203 Q400,939.8828 400,942.0313 L400,944.3359 Q400,946.9141 402.1094,948.6328 Q404.2188,950.3516 407.9688,950.3516 Q410.1953,950.3516 411.7578,949.8438 Q412.6563,949.5703 413.6719,948.6719 Q414.3359,948.1641 414.6875,948.0078 Q415.0391,947.8516 415.4688,947.8516 Q416.2891,947.8516 416.875,948.5156 Q417.5,949.1406 417.5,950.0391 Q417.5,950.8984 416.6406,951.9141 Q415.3906,953.3984 413.3984,954.2188 Q410.7813,955.3516 407.5781,955.3516 Q403.8281,955.3516 400.8203,953.8672 Q398.3984,952.6953 396.6797,950.1563 Q395,947.6172 395,944.6094 L395,941.875 Q395,938.75 396.4844,936.0156 Q398.0078,933.2813 400.625,931.8359 Q403.2813,930.3516 406.25,930.3516 Q408.0469,930.3516 409.6094,930.9766 Q411.1719,931.6016 412.5,932.8516 Z " fill="#000000"/><polygon fill="#4177AF" points="455,930.3516,445,945.3516,465,945.3516" style="stroke:#1963A0;stroke-width:2.5;"/><text fill="#000000" font-family="sans-serif" font-size="30" font-style="italic" font-weight="bold" lengthAdjust="spacing" textLength="60" x="470" y="953.877">final</text><text fill="#000000" font-family="sans-serif" font-size="30" font-style="italic" lengthAdjust="spacing" textLength="340" x="537.5" y="953.877">xxxPluginFactoryAdapter</text><line style="stroke:#3498DB;stroke-width:3.75;" x1="372.5" x2="882.5" y1="981.6016" y2="981.6016"/><text fill="#000000" font-family="sans-serif" font-size="27.5" lengthAdjust="spacing" textLength="22.5" x="385" y="1020.1489">...</text><line style="stroke:#3498DB;stroke-width:3.75;" x1="372.5" x2="882.5" y1="1036.1914" y2="1036.1914"/><!--MD5=[8ece71be35db894bbdb7ce101967af56]
class xxxPluginAdapter--><rect codeLine="113" fill="#EBF5FB" height="154.5898" id="xxxPluginAdapter" style="stroke:#3498DB;stroke-width:3.75;" width="415" x="972.5" y="901.6016"/><ellipse cx="1010" cy="941.6016" fill="#ADD1B2" rx="27.5" ry="27.5" style="stroke:#ADD1B2;stroke-width:2.5;"/><path d="M1015,932.8516 Q1015.5078,931.6016 1016.0938,930.9766 Q1016.6797,930.3516 1017.3438,930.3516 Q1018.5156,930.3516 1019.2578,931.0547 Q1020,931.7578 1020,933.3984 L1020,937.3047 Q1020,938.9453 1019.2969,939.6484 Q1018.5938,940.3516 1017.5,940.3516 Q1016.5234,940.3516 1015.8984,939.9219 Q1015.2734,939.4922 1015,938.3594 Q1014.8828,937.5781 1014.4531,937.1484 Q1013.6719,936.3281 1012.2656,935.8594 Q1010.8594,935.3516 1009.4531,935.3516 Q1007.6953,935.3516 1006.2109,936.0547 Q1004.7656,936.7578 1003.6328,938.3203 Q1002.5,939.8828 1002.5,942.0313 L1002.5,944.3359 Q1002.5,946.9141 1004.6094,948.6328 Q1006.7188,950.3516 1010.4688,950.3516 Q1012.6953,950.3516 1014.2578,949.8438 Q1015.1563,949.5703 1016.1719,948.6719 Q1016.8359,948.1641 1017.1875,948.0078 Q1017.5391,947.8516 1017.9688,947.8516 Q1018.7891,947.8516 1019.375,948.5156 Q1020,949.1406 1020,950.0391 Q1020,950.8984 1019.1406,951.9141 Q1017.8906,953.3984 1015.8984,954.2188 Q1013.2813,955.3516 1010.0781,955.3516 Q1006.3281,955.3516 1003.3203,953.8672 Q1000.8984,952.6953 999.1797,950.1563 Q997.5,947.6172 997.5,944.6094 L997.5,941.875 Q997.5,938.75 998.9844,936.0156 Q1000.5078,933.2813 1003.125,931.8359 Q1005.7813,930.3516 1008.75,930.3516 Q1010.5469,930.3516 1012.1094,930.9766 Q1013.6719,931.6016 1015,932.8516 Z " fill="#000000"/><polygon fill="#4177AF" points="1057.5,930.3516,1047.5,945.3516,1067.5,945.3516" style="stroke:#1963A0;stroke-width:2.5;"/><text fill="#000000" font-family="sans-serif" font-size="30" font-style="italic" font-weight="bold" lengthAdjust="spacing" textLength="60" x="1072.5" y="953.877">final</text><text fill="#000000" font-family="sans-serif" font-size="30" font-style="italic" lengthAdjust="spacing" textLength="240" x="1140" y="953.877">xxxPluginAdapter</text><line style="stroke:#3498DB;stroke-width:3.75;" x1="975" x2="1385" y1="981.6016" y2="981.6016"/><text fill="#000000" font-family="sans-serif" font-size="27.5" lengthAdjust="spacing" textLength="22.5" x="987.5" y="1020.1489">...</text><line style="stroke:#3498DB;stroke-width:3.75;" x1="975" x2="1385" y1="1036.1914" y2="1036.1914"/><!--MD5=[07c06fae09c9cf5c6584283f7934f2e9]
class xxxReaderAdapter--><rect codeLine="112" fill="#EBF5FB" height="154.5898" id="xxxReaderAdapter" style="stroke:#3498DB;stroke-width:3.75;" width="430" x="1475" y="901.6016"/><ellipse cx="1512.5" cy="941.6016" fill="#ADD1B2" rx="27.5" ry="27.5" style="stroke:#ADD1B2;stroke-width:2.5;"/><path d="M1517.5,932.8516 Q1518.0078,931.6016 1518.5938,930.9766 Q1519.1797,930.3516 1519.8438,930.3516 Q1521.0156,930.3516 1521.7578,931.0547 Q1522.5,931.7578 1522.5,933.3984 L1522.5,937.3047 Q1522.5,938.9453 1521.7969,939.6484 Q1521.0938,940.3516 1520,940.3516 Q1519.0234,940.3516 1518.3984,939.9219 Q1517.7734,939.4922 1517.5,938.3594 Q1517.3828,937.5781 1516.9531,937.1484 Q1516.1719,936.3281 1514.7656,935.8594 Q1513.3594,935.3516 1511.9531,935.3516 Q1510.1953,935.3516 1508.7109,936.0547 Q1507.2656,936.7578 1506.1328,938.3203 Q1505,939.8828 1505,942.0313 L1505,944.3359 Q1505,946.9141 1507.1094,948.6328 Q1509.2188,950.3516 1512.9688,950.3516 Q1515.1953,950.3516 1516.7578,949.8438 Q1517.6563,949.5703 1518.6719,948.6719 Q1519.3359,948.1641 1519.6875,948.0078 Q1520.0391,947.8516 1520.4688,947.8516 Q1521.2891,947.8516 1521.875,948.5156 Q1522.5,949.1406 1522.5,950.0391 Q1522.5,950.8984 1521.6406,951.9141 Q1520.3906,953.3984 1518.3984,954.2188 Q1515.7813,955.3516 1512.5781,955.3516 Q1508.8281,955.3516 1505.8203,953.8672 Q1503.3984,952.6953 1501.6797,950.1563 Q1500,947.6172 1500,944.6094 L1500,941.875 Q1500,938.75 1501.4844,936.0156 Q1503.0078,933.2813 1505.625,931.8359 Q1508.2813,930.3516 1511.25,930.3516 Q1513.0469,930.3516 1514.6094,930.9766 Q1516.1719,931.6016 1517.5,932.8516 Z " fill="#000000"/><polygon fill="#4177AF" points="1560,930.3516,1550,945.3516,1570,945.3516" style="stroke:#1963A0;stroke-width:2.5;"/><text fill="#000000" font-family="sans-serif" font-size="30" font-style="italic" font-weight="bold" lengthAdjust="spacing" textLength="60" x="1575" y="953.877">final</text><text fill="#000000" font-family="sans-serif" font-size="30" font-style="italic" lengthAdjust="spacing" textLength="255" x="1642.5" y="953.877">xxxReaderAdapter</text><line style="stroke:#3498DB;stroke-width:3.75;" x1="1477.5" x2="1902.5" y1="981.6016" y2="981.6016"/><text fill="#000000" font-family="sans-serif" font-size="27.5" lengthAdjust="spacing" textLength="22.5" x="1490" y="1020.1489">...</text><line style="stroke:#3498DB;stroke-width:3.75;" x1="1477.5" x2="1902.5" y1="1036.1914" y2="1036.1914"/><!--MD5=[a197c206781717b4a594300115978dc2]
reverse link KeyplePluginExtensionFactory to xxxPluginFactory--><path d="M888.74,346.9066 C930.3875,423.0341 986.19,525.0416 1023.7575,593.7116 " fill="none" id="KeyplePluginExtensionFactory-backto-xxxPluginFactory" style="stroke:#A80036;stroke-width:2.5;"/><polygon fill="none" points="872.985,354.5691,864.34,302.3041,903.69,337.7716,872.985,354.5691" style="stroke:#A80036;stroke-width:2.5;"/><!--MD5=[1feb98c6a67c5603dfb07d8bcca8af5c]
reverse link KeyplePluginExtension to xxxPlugin--><path d="M1407.1,352.3616 C1415.5375,427.8491 1426.58,526.6691 1434.075,593.7116 " fill="none" id="KeyplePluginExtension-backto-xxxPlugin" style="stroke:#A80036;stroke-width:2.5;"/><polygon fill="none" points="1389.6675,353.9391,1401.505,302.3041,1424.45,350.0516,1389.6675,353.9391" style="stroke:#A80036;stroke-width:2.5;"/><!--MD5=[0ab2d561ae8ab1eb55d58fc9385da973]
reverse link KeypleReaderExtension to xxxReader--><path d="M1880.685,350.1691 C1856.1725,425.9291 1823.7925,526.0166 1801.89,593.7116 " fill="none" id="KeypleReaderExtension-backto-xxxReader" style="stroke:#A80036;stroke-width:2.5;"/><polygon fill="none" points="1864.1275,344.4891,1896.17,302.3041,1897.4275,355.2641,1864.1275,344.4891" style="stroke:#A80036;stroke-width:2.5;"/><!--MD5=[a6f494627ac1f6d160b993f842e395ad]
reverse link xxxPluginFactory to xxxPluginFactoryAdapter--><path d="M914.59,778.0991 C855.9425,818.6491 790.0125,864.2366 736.135,901.4866 " fill="none" id="xxxPluginFactory-backto-xxxPluginFactoryAdapter" style="stroke:#A80036;stroke-width:2.5;stroke-dasharray:7.0,7.0;"/><polygon fill="none" points="904.65,763.6966,955.73,749.6541,924.555,792.4841,904.65,763.6966" style="stroke:#A80036;stroke-width:2.5;"/><!--MD5=[853d2f65f74c05f03e15538723aac8c7]
reverse link RemotePluginFactorySpi to xxxPluginFactoryAdapter--><path d="M665.4275,1259.1641 C656.3975,1193.0716 645.605,1114.0891 637.845,1057.3091 " fill="none" id="RemotePluginFactorySpi-backto-xxxPluginFactoryAdapter" style="stroke:#A80036;stroke-width:2.5;stroke-dasharray:7.0,7.0;"/><polygon fill="none" points="682.77,1256.8241,672.2025,1308.7338,648.0925,1261.5641,682.77,1256.8241" style="stroke:#A80036;stroke-width:2.5;"/><!--MD5=[56f8be8360d3a9cf41ab28f3b669e0f5]
link xxxPluginFactoryAdapter to RemotePluginFactorySpi--><!--MD5=[271deee5782a9355c6bea53129dbee95]
reverse link xxxPlugin to xxxPluginAdapter--><path d="M1344.11,787.4841 C1311.2275,825.3791 1275.4,866.6641 1245.6375,900.9641 " fill="none" id="xxxPlugin-backto-xxxPluginAdapter" style="stroke:#A80036;stroke-width:2.5;stroke-dasharray:7.0,7.0;"/><polygon fill="none" points="1330.95,775.9491,1376.9375,749.6541,1357.385,798.8891,1330.95,775.9491" style="stroke:#A80036;stroke-width:2.5;"/><!--MD5=[364e9c4e9858fb1340b2b4c4e56706a0]
reverse link RemotePluginSpi to xxxPluginAdapter--><path d="M1173.1275,1258.1816 C1174.765,1192.2891 1176.715,1113.8091 1178.12,1057.3091 " fill="none" id="RemotePluginSpi-backto-xxxPluginAdapter" style="stroke:#A80036;stroke-width:2.5;stroke-dasharray:7.0,7.0;"/><polygon fill="none" points="1190.61,1259.1841,1171.8725,1308.7338,1155.62,1258.3141,1190.61,1259.1841" style="stroke:#A80036;stroke-width:2.5;"/><!--MD5=[1d19fedf6ba45db993f3e692666ca626]
link xxxPluginAdapter to RemotePluginSpi--><!--MD5=[bc8081b56b498a2c8419014c1c2cae76]
reverse link xxxReader to xxxReaderAdapter--><path d="M1741.565,798.3366 C1731.4975,833.1391 1720.86,869.9116 1711.88,900.9641 " fill="none" id="xxxReader-backto-xxxReaderAdapter" style="stroke:#A80036;stroke-width:2.5;stroke-dasharray:7.0,7.0;"/><polygon fill="none" points="1724.9425,792.8241,1755.645,749.6541,1758.5625,802.5491,1724.9425,792.8241" style="stroke:#A80036;stroke-width:2.5;"/><!--MD5=[7a5d15de137ab20765148895b700334e]
reverse link RemoteReaderSpi to xxxReaderAdapter--><path d="M1638.28,1259.1641 C1650.595,1193.0716 1665.3125,1114.0891 1675.8925,1057.3091 " fill="none" id="RemoteReaderSpi-backto-xxxReaderAdapter" style="stroke:#A80036;stroke-width:2.5;stroke-dasharray:7.0,7.0;"/><polygon fill="none" points="1655.4075,1262.7866,1629.0425,1308.7338,1621,1256.3741,1655.4075,1262.7866" style="stroke:#A80036;stroke-width:2.5;"/><!--MD5=[6417678a62de6f5d626d04e7d040aa68]
link xxxReaderAdapter to RemoteReaderSpi--><!--MD5=[1d864dc9092778b2b49207ead16ab856]
link xxxPluginFactoryProvider to xxxPluginFactory--><path codeLine="95" d="M671.6975,671.6016 C742.185,671.6016 816.9125,671.6016 882.085,671.6016 " fill="none" id="xxxPluginFactoryProvider-to-xxxPluginFactory" style="stroke:#27AE60;stroke-width:2.5;stroke-dasharray:7.0,7.0;"/><polygon fill="#27AE60" points="894.9875,671.6016,872.4875,661.6016,882.4875,671.6016,872.4875,681.6016,894.9875,671.6016" style="stroke:#27AE60;stroke-width:2.5;"/><polygon fill="#000000" points="739.375,642.041,716.7623,634.6937,716.7623,649.3883,739.375,642.041" style="stroke:#000000;stroke-width:2.5;"/><text fill="#000000" font-family="sans-serif" font-size="32.5" lengthAdjust="spacing" textLength="100" x="749.375" y="655.3394">provide</text><!--MD5=[f12a7db843c52300ea996d5d7ce2d1a4]
reverse link xxxPluginFactoryAdapter to xxxPluginAdapter--><path codeLine="96" d="M918.445,979.1016 C936.2,979.1016 953.9575,979.1016 971.7125,979.1016 " fill="none" id="xxxPluginFactoryAdapter-backto-xxxPluginAdapter" style="stroke:#3498DB;stroke-width:2.5;"/><polygon fill="#3498DB" points="885.405,979.1016,900.405,989.1016,915.405,979.1016,900.405,969.1016,885.405,979.1016" style="stroke:#3498DB;stroke-width:2.5;"/><text fill="#000000" font-family="sans-serif" font-size="32.5" lengthAdjust="spacing" textLength="17.5" x="934.8826" y="971.1155">1</text><!--MD5=[bf2e205f614f249ca537db048d149975]
reverse link xxxPluginAdapter to xxxReaderAdapter--><path codeLine="97" d="M1421.13,979.1016 C1438.8375,979.1016 1456.5425,979.1016 1474.2475,979.1016 " fill="none" id="xxxPluginAdapter-backto-xxxReaderAdapter" style="stroke:#3498DB;stroke-width:2.5;"/><polygon fill="#3498DB" points="1388.1825,979.1016,1403.1825,989.1016,1418.1825,979.1016,1403.1825,969.1016,1388.1825,979.1016" style="stroke:#3498DB;stroke-width:2.5;"/><text fill="#000000" font-family="sans-serif" font-size="32.5" lengthAdjust="spacing" textLength="60" x="1394.6641" y="971.297">0..N</text><!--MD5=[582bb027a136a6e6186f17ef7f8e0db6]
link commonsApi to specificPluginApi--><!--MD5=[16b4824d745274b2e635dd9f8a1c2738]
@startuml
title
    Keyple 2.0 - Specific Remote Plugin - 2.0.0 (08/03/2021)
end title

' == THEME ==

'Couleurs issues de : https://htmlcolorcodes.com/fr/tableau-de-couleur/tableau-de-couleur-design-plat/
!define C_GREY1 F8F9F9
!define C_GREY2 F2F3F4
!define C_GREY3 E5E7E9
!define C_GREY4 D7DBDD
!define C_GREY5 CACFD2
!define C_GREY6 BDC3C7
!define C_LINK 3498DB
!define C_USE 27AE60

skinparam Shadowing false
skinparam ClassFontStyle italic
skinparam ClassBorderColor #D4AC0D
skinparam stereotypeABorderColor #A9DCDF
skinparam stereotypeIBorderColor #B4A7E5
skinparam stereotypeCBorderColor #ADD1B2
skinparam stereotypeEBorderColor #EB93DF
' Red
skinparam ClassBackgroundColor<<red>> #FDEDEC
skinparam ClassBorderColor<<red>> #E74C3C
hide <<red>> stereotype
' Purple
skinparam ClassBackgroundColor<<purple>> #F4ECF7
skinparam ClassBorderColor<<purple>> #8E44AD
hide <<purple>> stereotype
' blue
skinparam ClassBackgroundColor<<blue>> #EBF5FB
skinparam ClassBorderColor<<blue>> #3498DB
hide <<blue>> stereotype
' Green
skinparam ClassBackgroundColor<<green>> #E9F7EF
skinparam ClassBorderColor<<green>> #27AE60
hide <<green>> stereotype
' Grey
skinparam ClassBackgroundColor<<grey>> #EAECEE
skinparam ClassBorderColor<<grey>> #2C3E50
hide <<grey>> stereotype

' == CONTENT ==

package "org.eclipse.keyple.core.common" as commonsApi {
    +interface KeyplePluginExtensionFactory {
    }
    +interface KeyplePluginExtension {
    }
    +interface KeypleReaderExtension {
    }
}

package "org.eclipse.keyple.core.distributed.remote.spi" as pluginSpi {
    +interface RemoteReaderSpi {
        ...
    }
    +interface RemotePluginSpi {
        ...
    }
    +interface RemotePluginFactorySpi {
        ...
    }
}

package "org.eclipse.keyple.plugin.xxx (specific plugin)" as specificPluginApi {
    +class "**final** xxxPluginFactoryProvider" as xxxPluginFactoryProvider {
        +{static} xxxPluginFactory getFactory ()
    }
    +interface xxxPluginFactory extends KeyplePluginExtensionFactory {
        ...
    }
    +interface xxxPlugin extends KeyplePluginExtension {
        ...
    }
    +interface xxxReader extends KeypleReaderExtension {
        ...
    }
    ' Adapters
    ~class "**final** xxxPluginFactoryAdapter" as xxxPluginFactoryAdapter implements xxxPluginFactory, RemotePluginFactorySpi {
        ...
    }
    ~class "**final** xxxPluginAdapter" as xxxPluginAdapter implements xxxPlugin, RemotePluginSpi {
        ...
    }
    ~class "**final** xxxReaderAdapter" as xxxReaderAdapter implements xxxReader, RemoteReaderSpi {
        ...
    }
}

' Associations

xxxPluginFactoryProvider .> xxxPluginFactory #C_USE : provide >
xxxPluginFactoryAdapter *- "1" xxxPluginAdapter #C_LINK
xxxPluginAdapter *- "0..N" xxxReaderAdapter #C_LINK

' == LAYOUT ==

commonsApi -[hidden]- specificPluginApi
xxxReaderAdapter -[hidden]- RemoteReaderSpi
xxxPluginAdapter -[hidden]- RemotePluginSpi
xxxPluginFactoryAdapter -[hidden]- RemotePluginFactorySpi

' == STYLE ==

package commonsApi #C_GREY1 {}
package pluginSpi #C_GREY1 {}
package specificPluginApi #C_GREY1 {}

class xxxReaderAdapter <<blue>>
class xxxPluginAdapter <<blue>>
class xxxPluginFactoryAdapter <<blue>>
interface RemoteReaderSpi <<blue>>
interface RemotePluginSpi <<blue>>
interface RemotePluginFactorySpi <<blue>>

@enduml

@startuml
title
    Keyple 2.0 - Specific Remote Plugin - 2.0.0 (08/03/2021)
end title



skinparam Shadowing false
skinparam ClassFontStyle italic
skinparam ClassBorderColor #D4AC0D
skinparam stereotypeABorderColor #A9DCDF
skinparam stereotypeIBorderColor #B4A7E5
skinparam stereotypeCBorderColor #ADD1B2
skinparam stereotypeEBorderColor #EB93DF
skinparam ClassBackgroundColor<<red>> #FDEDEC
skinparam ClassBorderColor<<red>> #E74C3C
hide <<red>> stereotype
skinparam ClassBackgroundColor<<purple>> #F4ECF7
skinparam ClassBorderColor<<purple>> #8E44AD
hide <<purple>> stereotype
skinparam ClassBackgroundColor<<blue>> #EBF5FB
skinparam ClassBorderColor<<blue>> #3498DB
hide <<blue>> stereotype
skinparam ClassBackgroundColor<<green>> #E9F7EF
skinparam ClassBorderColor<<green>> #27AE60
hide <<green>> stereotype
skinparam ClassBackgroundColor<<grey>> #EAECEE
skinparam ClassBorderColor<<grey>> #2C3E50
hide <<grey>> stereotype


package "org.eclipse.keyple.core.common" as commonsApi {
    +interface KeyplePluginExtensionFactory {
    }
    +interface KeyplePluginExtension {
    }
    +interface KeypleReaderExtension {
    }
}

package "org.eclipse.keyple.core.distributed.remote.spi" as pluginSpi {
    +interface RemoteReaderSpi {
        ...
    }
    +interface RemotePluginSpi {
        ...
    }
    +interface RemotePluginFactorySpi {
        ...
    }
}

package "org.eclipse.keyple.plugin.xxx (specific plugin)" as specificPluginApi {
    +class "**final** xxxPluginFactoryProvider" as xxxPluginFactoryProvider {
        +{static} xxxPluginFactory getFactory ()
    }
    +interface xxxPluginFactory extends KeyplePluginExtensionFactory {
        ...
    }
    +interface xxxPlugin extends KeyplePluginExtension {
        ...
    }
    +interface xxxReader extends KeypleReaderExtension {
        ...
    }
    ~class "**final** xxxPluginFactoryAdapter" as xxxPluginFactoryAdapter implements xxxPluginFactory, RemotePluginFactorySpi {
        ...
    }
    ~class "**final** xxxPluginAdapter" as xxxPluginAdapter implements xxxPlugin, RemotePluginSpi {
        ...
    }
    ~class "**final** xxxReaderAdapter" as xxxReaderAdapter implements xxxReader, RemoteReaderSpi {
        ...
    }
}


xxxPluginFactoryProvider .> xxxPluginFactory #27AE60 : provide >
xxxPluginFactoryAdapter *- "1" xxxPluginAdapter #3498DB
xxxPluginAdapter *- "0..N" xxxReaderAdapter #3498DB


commonsApi -[hidden]- specificPluginApi
xxxReaderAdapter -[hidden]- RemoteReaderSpi
xxxPluginAdapter -[hidden]- RemotePluginSpi
xxxPluginFactoryAdapter -[hidden]- RemotePluginFactorySpi


package commonsApi #F8F9F9 {}
package pluginSpi #F8F9F9 {}
package specificPluginApi #F8F9F9 {}

class xxxReaderAdapter <<blue>>
class xxxPluginAdapter <<blue>>
class xxxPluginFactoryAdapter <<blue>>
interface RemoteReaderSpi <<blue>>
interface RemotePluginSpi <<blue>>
interface RemotePluginFactorySpi <<blue>>

@enduml

PlantUML version 1.2021.2(Sun Mar 07 12:10:27 CET 2021)
(GPL source distribution)
Java Runtime: OpenJDK Runtime Environment
JVM: OpenJDK 64-Bit Server VM
Default Encoding: Cp1252
Language: fr
Country: FR
--></g></svg>