<?xml version="1.0" encoding="UTF-8" standalone="no"?><svg xmlns="http://www.w3.org/2000/svg" xmlns:xlink="http://www.w3.org/1999/xlink" contentScriptType="application/ecmascript" contentStyleType="text/css" height="1730px" preserveAspectRatio="none" style="width:3030px;height:1730px;" version="1.1" viewBox="0 0 3030 1730" width="3030px" zoomAndPan="magnify"><defs/><g><text fill="#000000" font-family="sans-serif" font-size="45" lengthAdjust="spacing" textLength="1135" x="931.25" y="46.7139">Keyple 2.0 - Specific Card Extension - 2.0.0 (20/05/2021)</text><!--MD5=[621c849533070c5aba8aa732369aa9f8]
cluster commonsApi--><polygon fill="#F8F9F9" points="90,71.6016,675,71.6016,692.5,130.625,700,130.625,700,406.6016,90,406.6016,90,71.6016" style="stroke:#000000;stroke-width:3.75;"/><line style="stroke:#000000;stroke-width:3.75;" x1="90" x2="692.5" y1="130.625" y2="130.625"/><text fill="#000000" font-family="sans-serif" font-size="35" font-weight="bold" lengthAdjust="spacing" textLength="570" x="100" y="112.9346">org.eclipse.keyple.core.common</text><!--MD5=[00563b8f2a00a15cb90f2d0de7f0608c]
cluster readerSelectionSpi--><polygon fill="#F8F9F9" points="935,71.6016,1725,71.6016,1742.5,130.625,2040,130.625,2040,406.6016,935,406.6016,935,71.6016" style="stroke:#000000;stroke-width:3.75;"/><line style="stroke:#000000;stroke-width:3.75;" x1="935" x2="1742.5" y1="130.625" y2="130.625"/><text fill="#000000" font-family="sans-serif" font-size="35" font-weight="bold" lengthAdjust="spacing" textLength="775" x="945" y="112.9346">org.calypsonet.terminal.reader.selection.spi</text><!--MD5=[a17c93d7e125af4ebdd10ac0c519bd24]
cluster cardSpi--><polygon fill="#F8F9F9" points="762.5,1379.1016,1340,1379.1016,1357.5,1438.125,2002.5,1438.125,2002.5,1714.1016,762.5,1714.1016,762.5,1379.1016" style="stroke:#000000;stroke-width:3.75;"/><line style="stroke:#000000;stroke-width:3.75;" x1="762.5" x2="1357.5" y1="1438.125" y2="1438.125"/><text fill="#000000" font-family="sans-serif" font-size="35" font-weight="bold" lengthAdjust="spacing" textLength="562.5" x="772.5" y="1420.4346">org.calypsonet.terminal.card.spi</text><!--MD5=[8710f69185497842238d7d996e2af2c1]
cluster cardResourceSpi--><polygon fill="#F8F9F9" points="2160,71.6016,2962.5,71.6016,2980,130.625,2987.5,130.625,2987.5,406.6016,2160,406.6016,2160,71.6016" style="stroke:#000000;stroke-width:3.75;"/><line style="stroke:#000000;stroke-width:3.75;" x1="2160" x2="2980" y1="130.625" y2="130.625"/><text fill="#000000" font-family="sans-serif" font-size="35" font-weight="bold" lengthAdjust="spacing" textLength="787.5" x="2170" y="112.9346">org.eclipse.keyple.core.service.resource.spi</text><!--MD5=[d3c8ee72d6c013b9a0ff8b73b18ac396]
cluster specificExtension--><polygon fill="#F8F9F9" points="40,531.6016,892.5,531.6016,910,590.625,2907.5,590.625,2907.5,1296.6016,40,1296.6016,40,531.6016" style="stroke:#000000;stroke-width:3.75;"/><line style="stroke:#000000;stroke-width:3.75;" x1="40" x2="910" y1="590.625" y2="590.625"/><text fill="#000000" font-family="sans-serif" font-size="35" font-weight="bold" lengthAdjust="spacing" textLength="837.5" x="50" y="572.9346">org.eclipse.keyple.card.xxx (specific extension)</text><!--MD5=[93835d7ffcf6a3787bfc7eb02bc099b1]
class KeypleCardExtension--><rect codeLine="48" fill="#FEFECE" height="154.5898" id="KeypleCardExtension" style="stroke:#D4AC0D;stroke-width:3.75;" width="405" x="180" y="211.6016"/><ellipse cx="217.5" cy="251.6016" fill="#B4A7E5" rx="27.5" ry="27.5" style="stroke:#B4A7E5;stroke-width:2.5;"/><path d="M220,244.1016 L220,259.1016 L225,259.1016 L226.2109,259.1016 L227.5,260.6641 L227.5,261.6016 L227.5,262.5391 L226.2109,264.1016 L225,264.1016 L210,264.1016 L208.7891,264.1016 L207.5,262.5391 L207.5,261.6016 L207.5,260.6641 L208.7891,259.1016 L210,259.1016 L215,259.1016 L215,244.1016 L210,244.1016 L208.7891,244.1016 L207.5,242.5391 L207.5,241.6016 L207.5,240.6641 L208.7891,239.1016 L210,239.1016 L225,239.1016 L226.2109,239.1016 L227.5,240.6641 L227.5,241.6016 L227.5,242.5391 L226.2109,244.1016 L225,244.1016 L220,244.1016 Z " fill="#000000"/><ellipse cx="265" cy="250.3516" fill="#84BE84" rx="7.5" ry="7.5" style="stroke:#038048;stroke-width:2.5;"/><text fill="#000000" font-family="sans-serif" font-size="30" font-style="italic" lengthAdjust="spacing" textLength="297.5" x="280" y="263.877">KeypleCardExtension</text><line style="stroke:#D4AC0D;stroke-width:3.75;" x1="182.5" x2="582.5" y1="291.6016" y2="291.6016"/><text fill="#000000" font-family="sans-serif" font-size="27.5" lengthAdjust="spacing" textLength="22.5" x="195" y="330.1489">...</text><line style="stroke:#D4AC0D;stroke-width:3.75;" x1="182.5" x2="582.5" y1="346.1914" y2="346.1914"/><!--MD5=[47f0011813555fb489a606ff84d44b55]
class CardSelection--><rect codeLine="53" fill="#FEFECE" height="154.5898" id="CardSelection" style="stroke:#D4AC0D;stroke-width:3.75;" width="302.5" x="976.25" y="211.6016"/><ellipse cx="1013.75" cy="251.6016" fill="#B4A7E5" rx="27.5" ry="27.5" style="stroke:#B4A7E5;stroke-width:2.5;"/><path d="M1016.25,244.1016 L1016.25,259.1016 L1021.25,259.1016 L1022.4609,259.1016 L1023.75,260.6641 L1023.75,261.6016 L1023.75,262.5391 L1022.4609,264.1016 L1021.25,264.1016 L1006.25,264.1016 L1005.0391,264.1016 L1003.75,262.5391 L1003.75,261.6016 L1003.75,260.6641 L1005.0391,259.1016 L1006.25,259.1016 L1011.25,259.1016 L1011.25,244.1016 L1006.25,244.1016 L1005.0391,244.1016 L1003.75,242.5391 L1003.75,241.6016 L1003.75,240.6641 L1005.0391,239.1016 L1006.25,239.1016 L1021.25,239.1016 L1022.4609,239.1016 L1023.75,240.6641 L1023.75,241.6016 L1023.75,242.5391 L1022.4609,244.1016 L1021.25,244.1016 L1016.25,244.1016 Z " fill="#000000"/><ellipse cx="1061.25" cy="250.3516" fill="#84BE84" rx="7.5" ry="7.5" style="stroke:#038048;stroke-width:2.5;"/><text fill="#000000" font-family="sans-serif" font-size="30" font-style="italic" lengthAdjust="spacing" textLength="195" x="1076.25" y="263.877">CardSelection</text><line style="stroke:#D4AC0D;stroke-width:3.75;" x1="978.75" x2="1276.25" y1="291.6016" y2="291.6016"/><text fill="#000000" font-family="sans-serif" font-size="27.5" lengthAdjust="spacing" textLength="22.5" x="991.25" y="330.1489">...</text><line style="stroke:#D4AC0D;stroke-width:3.75;" x1="978.75" x2="1276.25" y1="346.1914" y2="346.1914"/><!--MD5=[d172dfe3fef1c01713438c88abcc6a2c]
class CardSelector--><rect codeLine="56" fill="#FEFECE" height="154.5898" id="CardSelector" style="stroke:#D4AC0D;stroke-width:3.75;" width="287.5" x="1711.25" y="211.6016"/><ellipse cx="1748.75" cy="251.6016" fill="#B4A7E5" rx="27.5" ry="27.5" style="stroke:#B4A7E5;stroke-width:2.5;"/><path d="M1751.25,244.1016 L1751.25,259.1016 L1756.25,259.1016 L1757.4609,259.1016 L1758.75,260.6641 L1758.75,261.6016 L1758.75,262.5391 L1757.4609,264.1016 L1756.25,264.1016 L1741.25,264.1016 L1740.0391,264.1016 L1738.75,262.5391 L1738.75,261.6016 L1738.75,260.6641 L1740.0391,259.1016 L1741.25,259.1016 L1746.25,259.1016 L1746.25,244.1016 L1741.25,244.1016 L1740.0391,244.1016 L1738.75,242.5391 L1738.75,241.6016 L1738.75,240.6641 L1740.0391,239.1016 L1741.25,239.1016 L1756.25,239.1016 L1757.4609,239.1016 L1758.75,240.6641 L1758.75,241.6016 L1758.75,242.5391 L1757.4609,244.1016 L1756.25,244.1016 L1751.25,244.1016 Z " fill="#000000"/><ellipse cx="1796.25" cy="250.3516" fill="#84BE84" rx="7.5" ry="7.5" style="stroke:#038048;stroke-width:2.5;"/><text fill="#000000" font-family="sans-serif" font-size="30" font-style="italic" lengthAdjust="spacing" textLength="180" x="1811.25" y="263.877">CardSelector</text><line style="stroke:#D4AC0D;stroke-width:3.75;" x1="1713.75" x2="1996.25" y1="291.6016" y2="291.6016"/><text fill="#000000" font-family="sans-serif" font-size="27.5" lengthAdjust="spacing" textLength="22.5" x="1726.25" y="330.1489">...</text><line style="stroke:#D4AC0D;stroke-width:3.75;" x1="1713.75" x2="1996.25" y1="346.1914" y2="346.1914"/><!--MD5=[4d4351d1dd1d596b03b4778d9849998b]
class SmartCard--><rect codeLine="59" fill="#FEFECE" height="154.5898" id="SmartCard" style="stroke:#D4AC0D;stroke-width:3.75;" width="257.5" x="1366.25" y="211.6016"/><ellipse cx="1403.75" cy="251.6016" fill="#B4A7E5" rx="27.5" ry="27.5" style="stroke:#B4A7E5;stroke-width:2.5;"/><path d="M1406.25,244.1016 L1406.25,259.1016 L1411.25,259.1016 L1412.4609,259.1016 L1413.75,260.6641 L1413.75,261.6016 L1413.75,262.5391 L1412.4609,264.1016 L1411.25,264.1016 L1396.25,264.1016 L1395.0391,264.1016 L1393.75,262.5391 L1393.75,261.6016 L1393.75,260.6641 L1395.0391,259.1016 L1396.25,259.1016 L1401.25,259.1016 L1401.25,244.1016 L1396.25,244.1016 L1395.0391,244.1016 L1393.75,242.5391 L1393.75,241.6016 L1393.75,240.6641 L1395.0391,239.1016 L1396.25,239.1016 L1411.25,239.1016 L1412.4609,239.1016 L1413.75,240.6641 L1413.75,241.6016 L1413.75,242.5391 L1412.4609,244.1016 L1411.25,244.1016 L1406.25,244.1016 Z " fill="#000000"/><ellipse cx="1451.25" cy="250.3516" fill="#84BE84" rx="7.5" ry="7.5" style="stroke:#038048;stroke-width:2.5;"/><text fill="#000000" font-family="sans-serif" font-size="30" font-style="italic" lengthAdjust="spacing" textLength="150" x="1466.25" y="263.877">SmartCard</text><line style="stroke:#D4AC0D;stroke-width:3.75;" x1="1368.75" x2="1621.25" y1="291.6016" y2="291.6016"/><text fill="#000000" font-family="sans-serif" font-size="27.5" lengthAdjust="spacing" textLength="22.5" x="1381.25" y="330.1489">...</text><line style="stroke:#D4AC0D;stroke-width:3.75;" x1="1368.75" x2="1621.25" y1="346.1914" y2="346.1914"/><!--MD5=[e210ee7b55cb4fcef849a017d68619f7]
class CardSelectionSpi--><rect codeLine="137" fill="#EBF5FB" height="154.5898" id="CardSelectionSpi" style="stroke:#3498DB;stroke-width:3.75;" width="347.5" x="803.75" y="1519.1016"/><ellipse cx="841.25" cy="1559.1016" fill="#B4A7E5" rx="27.5" ry="27.5" style="stroke:#B4A7E5;stroke-width:2.5;"/><path d="M843.75,1551.6016 L843.75,1566.6016 L848.75,1566.6016 L849.9609,1566.6016 L851.25,1568.1641 L851.25,1569.1016 L851.25,1570.0391 L849.9609,1571.6016 L848.75,1571.6016 L833.75,1571.6016 L832.5391,1571.6016 L831.25,1570.0391 L831.25,1569.1016 L831.25,1568.1641 L832.5391,1566.6016 L833.75,1566.6016 L838.75,1566.6016 L838.75,1551.6016 L833.75,1551.6016 L832.5391,1551.6016 L831.25,1550.0391 L831.25,1549.1016 L831.25,1548.1641 L832.5391,1546.6016 L833.75,1546.6016 L848.75,1546.6016 L849.9609,1546.6016 L851.25,1548.1641 L851.25,1549.1016 L851.25,1550.0391 L849.9609,1551.6016 L848.75,1551.6016 L843.75,1551.6016 Z " fill="#000000"/><ellipse cx="888.75" cy="1557.8516" fill="#84BE84" rx="7.5" ry="7.5" style="stroke:#038048;stroke-width:2.5;"/><text fill="#000000" font-family="sans-serif" font-size="30" font-style="italic" lengthAdjust="spacing" textLength="240" x="903.75" y="1571.377">CardSelectionSpi</text><line style="stroke:#3498DB;stroke-width:3.75;" x1="806.25" x2="1148.75" y1="1599.1016" y2="1599.1016"/><text fill="#000000" font-family="sans-serif" font-size="27.5" lengthAdjust="spacing" textLength="22.5" x="818.75" y="1637.6489">...</text><line style="stroke:#3498DB;stroke-width:3.75;" x1="806.25" x2="1148.75" y1="1653.6914" y2="1653.6914"/><!--MD5=[dccdbbb850bf03879ac099cfa435f162]
class CardSelectorSpi--><rect codeLine="138" fill="#EBF5FB" height="120" id="CardSelectorSpi" style="stroke:#3498DB;stroke-width:3.75;" width="332.5" x="1628.75" y="1536.6016"/><ellipse cx="1666.25" cy="1576.6016" fill="#B4A7E5" rx="27.5" ry="27.5" style="stroke:#B4A7E5;stroke-width:2.5;"/><path d="M1668.75,1569.1016 L1668.75,1584.1016 L1673.75,1584.1016 L1674.9609,1584.1016 L1676.25,1585.6641 L1676.25,1586.6016 L1676.25,1587.5391 L1674.9609,1589.1016 L1673.75,1589.1016 L1658.75,1589.1016 L1657.5391,1589.1016 L1656.25,1587.5391 L1656.25,1586.6016 L1656.25,1585.6641 L1657.5391,1584.1016 L1658.75,1584.1016 L1663.75,1584.1016 L1663.75,1569.1016 L1658.75,1569.1016 L1657.5391,1569.1016 L1656.25,1567.5391 L1656.25,1566.6016 L1656.25,1565.6641 L1657.5391,1564.1016 L1658.75,1564.1016 L1673.75,1564.1016 L1674.9609,1564.1016 L1676.25,1565.6641 L1676.25,1566.6016 L1676.25,1567.5391 L1674.9609,1569.1016 L1673.75,1569.1016 L1668.75,1569.1016 Z " fill="#000000"/><ellipse cx="1713.75" cy="1575.3516" fill="#84BE84" rx="7.5" ry="7.5" style="stroke:#038048;stroke-width:2.5;"/><text fill="#000000" font-family="sans-serif" font-size="30" font-style="italic" lengthAdjust="spacing" textLength="225" x="1728.75" y="1588.877">CardSelectorSpi</text><line style="stroke:#3498DB;stroke-width:3.75;" x1="1631.25" x2="1958.75" y1="1616.6016" y2="1616.6016"/><line style="stroke:#3498DB;stroke-width:3.75;" x1="1631.25" x2="1958.75" y1="1636.6016" y2="1636.6016"/><!--MD5=[c089e258773b765d812cd5d8bc232f90]
class SmartCardSpi--><rect codeLine="139" fill="#EBF5FB" height="120" id="SmartCardSpi" style="stroke:#3498DB;stroke-width:3.75;" width="302.5" x="1238.75" y="1536.6016"/><ellipse cx="1276.25" cy="1576.6016" fill="#B4A7E5" rx="27.5" ry="27.5" style="stroke:#B4A7E5;stroke-width:2.5;"/><path d="M1278.75,1569.1016 L1278.75,1584.1016 L1283.75,1584.1016 L1284.9609,1584.1016 L1286.25,1585.6641 L1286.25,1586.6016 L1286.25,1587.5391 L1284.9609,1589.1016 L1283.75,1589.1016 L1268.75,1589.1016 L1267.5391,1589.1016 L1266.25,1587.5391 L1266.25,1586.6016 L1266.25,1585.6641 L1267.5391,1584.1016 L1268.75,1584.1016 L1273.75,1584.1016 L1273.75,1569.1016 L1268.75,1569.1016 L1267.5391,1569.1016 L1266.25,1567.5391 L1266.25,1566.6016 L1266.25,1565.6641 L1267.5391,1564.1016 L1268.75,1564.1016 L1283.75,1564.1016 L1284.9609,1564.1016 L1286.25,1565.6641 L1286.25,1566.6016 L1286.25,1567.5391 L1284.9609,1569.1016 L1283.75,1569.1016 L1278.75,1569.1016 Z " fill="#000000"/><ellipse cx="1323.75" cy="1575.3516" fill="#84BE84" rx="7.5" ry="7.5" style="stroke:#038048;stroke-width:2.5;"/><text fill="#000000" font-family="sans-serif" font-size="30" font-style="italic" lengthAdjust="spacing" textLength="195" x="1338.75" y="1588.877">SmartCardSpi</text><line style="stroke:#3498DB;stroke-width:3.75;" x1="1241.25" x2="1538.75" y1="1616.6016" y2="1616.6016"/><line style="stroke:#3498DB;stroke-width:3.75;" x1="1241.25" x2="1538.75" y1="1636.6016" y2="1636.6016"/><!--MD5=[38786a1b53b5c21082cda59a8f9072b9]
class CardResourceProfileExtensionSpi--><rect codeLine="73" fill="#FEFECE" height="154.5898" id="CardResourceProfileExtensionSpi" style="stroke:#D4AC0D;stroke-width:3.75;" width="575" x="2257.5" y="211.6016"/><ellipse cx="2295" cy="251.6016" fill="#B4A7E5" rx="27.5" ry="27.5" style="stroke:#B4A7E5;stroke-width:2.5;"/><path d="M2297.5,244.1016 L2297.5,259.1016 L2302.5,259.1016 L2303.7109,259.1016 L2305,260.6641 L2305,261.6016 L2305,262.5391 L2303.7109,264.1016 L2302.5,264.1016 L2287.5,264.1016 L2286.2891,264.1016 L2285,262.5391 L2285,261.6016 L2285,260.6641 L2286.2891,259.1016 L2287.5,259.1016 L2292.5,259.1016 L2292.5,244.1016 L2287.5,244.1016 L2286.2891,244.1016 L2285,242.5391 L2285,241.6016 L2285,240.6641 L2286.2891,239.1016 L2287.5,239.1016 L2302.5,239.1016 L2303.7109,239.1016 L2305,240.6641 L2305,241.6016 L2305,242.5391 L2303.7109,244.1016 L2302.5,244.1016 L2297.5,244.1016 Z " fill="#000000"/><ellipse cx="2342.5" cy="250.3516" fill="#84BE84" rx="7.5" ry="7.5" style="stroke:#038048;stroke-width:2.5;"/><text fill="#000000" font-family="sans-serif" font-size="30" font-style="italic" lengthAdjust="spacing" textLength="467.5" x="2357.5" y="263.877">CardResourceProfileExtensionSpi</text><line style="stroke:#D4AC0D;stroke-width:3.75;" x1="2260" x2="2830" y1="291.6016" y2="291.6016"/><text fill="#000000" font-family="sans-serif" font-size="27.5" lengthAdjust="spacing" textLength="22.5" x="2272.5" y="330.1489">...</text><line style="stroke:#D4AC0D;stroke-width:3.75;" x1="2260" x2="2830" y1="346.1914" y2="346.1914"/><!--MD5=[125c2a9664bfb82a01f56afd98fcef0c]
class xxxCardExtension--><rect codeLine="79" fill="#FEFECE" height="278.3594" id="xxxCardExtension" style="stroke:#D4AC0D;stroke-width:3.75;" width="605" x="80" y="671.6016"/><ellipse cx="200.625" cy="711.6016" fill="#ADD1B2" rx="27.5" ry="27.5" style="stroke:#ADD1B2;stroke-width:2.5;"/><path d="M205.625,702.8516 Q206.1328,701.6016 206.7188,700.9766 Q207.3047,700.3516 207.9688,700.3516 Q209.1406,700.3516 209.8828,701.0547 Q210.625,701.7578 210.625,703.3984 L210.625,707.3047 Q210.625,708.9453 209.9219,709.6484 Q209.2188,710.3516 208.125,710.3516 Q207.1484,710.3516 206.5234,709.9219 Q205.8984,709.4922 205.625,708.3594 Q205.5078,707.5781 205.0781,707.1484 Q204.2969,706.3281 202.8906,705.8594 Q201.4844,705.3516 200.0781,705.3516 Q198.3203,705.3516 196.8359,706.0547 Q195.3906,706.7578 194.2578,708.3203 Q193.125,709.8828 193.125,712.0313 L193.125,714.3359 Q193.125,716.9141 195.2344,718.6328 Q197.3438,720.3516 201.0938,720.3516 Q203.3203,720.3516 204.8828,719.8438 Q205.7813,719.5703 206.7969,718.6719 Q207.4609,718.1641 207.8125,718.0078 Q208.1641,717.8516 208.5938,717.8516 Q209.4141,717.8516 210,718.5156 Q210.625,719.1406 210.625,720.0391 Q210.625,720.8984 209.7656,721.9141 Q208.5156,723.3984 206.5234,724.2188 Q203.9063,725.3516 200.7031,725.3516 Q196.9531,725.3516 193.9453,723.8672 Q191.5234,722.6953 189.8047,720.1563 Q188.125,717.6172 188.125,714.6094 L188.125,711.875 Q188.125,708.75 189.6094,706.0156 Q191.1328,703.2813 193.75,701.8359 Q196.4063,700.3516 199.375,700.3516 Q201.1719,700.3516 202.7344,700.9766 Q204.2969,701.6016 205.625,702.8516 Z " fill="#000000"/><ellipse cx="264.375" cy="710.3516" fill="#84BE84" rx="7.5" ry="7.5" style="stroke:#038048;stroke-width:2.5;"/><text fill="#000000" font-family="sans-serif" font-size="30" font-style="italic" font-weight="bold" lengthAdjust="spacing" textLength="60" x="279.375" y="723.877">final</text><text fill="#000000" font-family="sans-serif" font-size="30" font-style="italic" lengthAdjust="spacing" textLength="247.5" x="346.875" y="723.877">xxxCardExtension</text><line style="stroke:#D4AC0D;stroke-width:3.75;" x1="82.5" x2="682.5" y1="751.6016" y2="751.6016"/><line style="stroke:#D4AC0D;stroke-width:2.5;" x1="82.5" x2="682.5" y1="771.6016" y2="771.6016"/><ellipse cx="107.5" cy="799.1016" fill="#84BE84" rx="7.5" ry="7.5" style="stroke:#038048;stroke-width:2.5;"/><text fill="#000000" font-family="sans-serif" font-size="27.5" lengthAdjust="spacing" text-decoration="underline" textLength="395" x="130" y="810.1489">xxxCardExtension getInstance ()</text><line style="stroke:#D4AC0D;stroke-width:2.5;stroke-dasharray:1.0,2.0;" x1="82.5" x2="682.5" y1="826.1914" y2="826.1914"/><ellipse cx="107.5" cy="853.6914" fill="#84BE84" rx="7.5" ry="7.5" style="stroke:#038048;stroke-width:2.5;"/><text fill="#000000" font-family="sans-serif" font-size="27.5" lengthAdjust="spacing" textLength="540" x="130" y="864.7388">xxxCardSelection createXxxCardSelection ()</text><ellipse cx="107.5" cy="888.2813" fill="#84BE84" rx="7.5" ry="7.5" style="stroke:#038048;stroke-width:2.5;"/><text fill="#000000" font-family="sans-serif" font-size="27.5" lengthAdjust="spacing" textLength="520" x="130" y="899.3286">xxxCardSelector createXxxCardSelector ()</text><text fill="#000000" font-family="sans-serif" font-size="27.5" lengthAdjust="spacing" textLength="22.5" x="130" y="933.9185">...</text><!--MD5=[96c12fe999c27355c48f5d6d4eb4d00c]
class xxxCardSelection--><rect codeLine="87" fill="#FEFECE" height="154.5898" id="xxxCardSelection" style="stroke:#D4AC0D;stroke-width:3.75;" width="347.5" x="908.75" y="732.8516"/><ellipse cx="946.25" cy="772.8516" fill="#B4A7E5" rx="27.5" ry="27.5" style="stroke:#B4A7E5;stroke-width:2.5;"/><path d="M948.75,765.3516 L948.75,780.3516 L953.75,780.3516 L954.9609,780.3516 L956.25,781.9141 L956.25,782.8516 L956.25,783.7891 L954.9609,785.3516 L953.75,785.3516 L938.75,785.3516 L937.5391,785.3516 L936.25,783.7891 L936.25,782.8516 L936.25,781.9141 L937.5391,780.3516 L938.75,780.3516 L943.75,780.3516 L943.75,765.3516 L938.75,765.3516 L937.5391,765.3516 L936.25,763.7891 L936.25,762.8516 L936.25,761.9141 L937.5391,760.3516 L938.75,760.3516 L953.75,760.3516 L954.9609,760.3516 L956.25,761.9141 L956.25,762.8516 L956.25,763.7891 L954.9609,765.3516 L953.75,765.3516 L948.75,765.3516 Z " fill="#000000"/><ellipse cx="993.75" cy="771.6016" fill="#84BE84" rx="7.5" ry="7.5" style="stroke:#038048;stroke-width:2.5;"/><text fill="#000000" font-family="sans-serif" font-size="30" font-style="italic" lengthAdjust="spacing" textLength="240" x="1008.75" y="785.127">xxxCardSelection</text><line style="stroke:#D4AC0D;stroke-width:3.75;" x1="911.25" x2="1253.75" y1="812.8516" y2="812.8516"/><text fill="#000000" font-family="sans-serif" font-size="27.5" lengthAdjust="spacing" textLength="22.5" x="923.75" y="851.3989">...</text><line style="stroke:#D4AC0D;stroke-width:3.75;" x1="911.25" x2="1253.75" y1="867.4414" y2="867.4414"/><!--MD5=[ae929fe69c881de7fe1da2c6010f3e4d]
class xxxCardSelector--><rect codeLine="90" fill="#FEFECE" height="223.7695" id="xxxCardSelector" style="stroke:#D4AC0D;stroke-width:3.75;" width="400" x="1735" y="697.8516"/><ellipse cx="1772.5" cy="737.8516" fill="#B4A7E5" rx="27.5" ry="27.5" style="stroke:#B4A7E5;stroke-width:2.5;"/><path d="M1775,730.3516 L1775,745.3516 L1780,745.3516 L1781.2109,745.3516 L1782.5,746.9141 L1782.5,747.8516 L1782.5,748.7891 L1781.2109,750.3516 L1780,750.3516 L1765,750.3516 L1763.7891,750.3516 L1762.5,748.7891 L1762.5,747.8516 L1762.5,746.9141 L1763.7891,745.3516 L1765,745.3516 L1770,745.3516 L1770,730.3516 L1765,730.3516 L1763.7891,730.3516 L1762.5,728.7891 L1762.5,727.8516 L1762.5,726.9141 L1763.7891,725.3516 L1765,725.3516 L1780,725.3516 L1781.2109,725.3516 L1782.5,726.9141 L1782.5,727.8516 L1782.5,728.7891 L1781.2109,730.3516 L1780,730.3516 L1775,730.3516 Z " fill="#000000"/><ellipse cx="1820" cy="736.6016" fill="#84BE84" rx="7.5" ry="7.5" style="stroke:#038048;stroke-width:2.5;"/><text fill="#000000" font-family="sans-serif" font-size="30" font-style="italic" font-weight="bold" lengthAdjust="spacing" textLength="60" x="1835" y="750.127">final</text><text fill="#000000" font-family="sans-serif" font-size="30" font-style="italic" lengthAdjust="spacing" textLength="225" x="1902.5" y="750.127">xxxCardSelector</text><line style="stroke:#D4AC0D;stroke-width:3.75;" x1="1737.5" x2="2132.5" y1="777.8516" y2="777.8516"/><line style="stroke:#D4AC0D;stroke-width:2.5;" x1="1737.5" x2="2132.5" y1="797.8516" y2="797.8516"/><ellipse cx="1762.5" cy="825.3516" fill="#84BE84" rx="7.5" ry="7.5" style="stroke:#038048;stroke-width:2.5;"/><text fill="#000000" font-family="sans-serif" font-size="27.5" lengthAdjust="spacing" textLength="297.5" x="1785" y="836.3989">xxxCardSelector set... ()</text><ellipse cx="1762.5" cy="859.9414" fill="#84BE84" rx="7.5" ry="7.5" style="stroke:#038048;stroke-width:2.5;"/><text fill="#000000" font-family="sans-serif" font-size="27.5" lengthAdjust="spacing" textLength="297.5" x="1785" y="870.9888">xxxCardSelector set... ()</text><text fill="#000000" font-family="sans-serif" font-size="27.5" lengthAdjust="spacing" textLength="22.5" x="1785" y="905.5786">...</text><!--MD5=[840dca342d2e2f3185b16a9f6795b3c6]
class xxxSmartCard--><rect codeLine="96" fill="#FEFECE" height="154.5898" id="xxxSmartCard" style="stroke:#D4AC0D;stroke-width:3.75;" width="302.5" x="1343.75" y="732.8516"/><ellipse cx="1381.25" cy="772.8516" fill="#B4A7E5" rx="27.5" ry="27.5" style="stroke:#B4A7E5;stroke-width:2.5;"/><path d="M1383.75,765.3516 L1383.75,780.3516 L1388.75,780.3516 L1389.9609,780.3516 L1391.25,781.9141 L1391.25,782.8516 L1391.25,783.7891 L1389.9609,785.3516 L1388.75,785.3516 L1373.75,785.3516 L1372.5391,785.3516 L1371.25,783.7891 L1371.25,782.8516 L1371.25,781.9141 L1372.5391,780.3516 L1373.75,780.3516 L1378.75,780.3516 L1378.75,765.3516 L1373.75,765.3516 L1372.5391,765.3516 L1371.25,763.7891 L1371.25,762.8516 L1371.25,761.9141 L1372.5391,760.3516 L1373.75,760.3516 L1388.75,760.3516 L1389.9609,760.3516 L1391.25,761.9141 L1391.25,762.8516 L1391.25,763.7891 L1389.9609,765.3516 L1388.75,765.3516 L1383.75,765.3516 Z " fill="#000000"/><ellipse cx="1428.75" cy="771.6016" fill="#84BE84" rx="7.5" ry="7.5" style="stroke:#038048;stroke-width:2.5;"/><text fill="#000000" font-family="sans-serif" font-size="30" font-style="italic" lengthAdjust="spacing" textLength="195" x="1443.75" y="785.127">xxxSmartCard</text><line style="stroke:#D4AC0D;stroke-width:3.75;" x1="1346.25" x2="1643.75" y1="812.8516" y2="812.8516"/><text fill="#000000" font-family="sans-serif" font-size="27.5" lengthAdjust="spacing" textLength="22.5" x="1358.75" y="851.3989">...</text><line style="stroke:#D4AC0D;stroke-width:3.75;" x1="1346.25" x2="1643.75" y1="867.4414" y2="867.4414"/><!--MD5=[b9ed339c1442abfa795cdfa9e9a9d6e3]
class xxxCardResourceProfileExtension--><rect codeLine="99" fill="#FEFECE" height="154.5898" id="xxxCardResourceProfileExtension" style="stroke:#D4AC0D;stroke-width:3.75;" width="642.5" x="2223.75" y="732.8516"/><ellipse cx="2261.25" cy="772.8516" fill="#ADD1B2" rx="27.5" ry="27.5" style="stroke:#ADD1B2;stroke-width:2.5;"/><path d="M2266.25,764.1016 Q2266.7578,762.8516 2267.3438,762.2266 Q2267.9297,761.6016 2268.5938,761.6016 Q2269.7656,761.6016 2270.5078,762.3047 Q2271.25,763.0078 2271.25,764.6484 L2271.25,768.5547 Q2271.25,770.1953 2270.5469,770.8984 Q2269.8438,771.6016 2268.75,771.6016 Q2267.7734,771.6016 2267.1484,771.1719 Q2266.5234,770.7422 2266.25,769.6094 Q2266.1328,768.8281 2265.7031,768.3984 Q2264.9219,767.5781 2263.5156,767.1094 Q2262.1094,766.6016 2260.7031,766.6016 Q2258.9453,766.6016 2257.4609,767.3047 Q2256.0156,768.0078 2254.8828,769.5703 Q2253.75,771.1328 2253.75,773.2813 L2253.75,775.5859 Q2253.75,778.1641 2255.8594,779.8828 Q2257.9688,781.6016 2261.7188,781.6016 Q2263.9453,781.6016 2265.5078,781.0938 Q2266.4063,780.8203 2267.4219,779.9219 Q2268.0859,779.4141 2268.4375,779.2578 Q2268.7891,779.1016 2269.2188,779.1016 Q2270.0391,779.1016 2270.625,779.7656 Q2271.25,780.3906 2271.25,781.2891 Q2271.25,782.1484 2270.3906,783.1641 Q2269.1406,784.6484 2267.1484,785.4688 Q2264.5313,786.6016 2261.3281,786.6016 Q2257.5781,786.6016 2254.5703,785.1172 Q2252.1484,783.9453 2250.4297,781.4063 Q2248.75,778.8672 2248.75,775.8594 L2248.75,773.125 Q2248.75,770 2250.2344,767.2656 Q2251.7578,764.5313 2254.375,763.0859 Q2257.0313,761.6016 2260,761.6016 Q2261.7969,761.6016 2263.3594,762.2266 Q2264.9219,762.8516 2266.25,764.1016 Z " fill="#000000"/><polygon fill="#4177AF" points="2308.75,761.6016,2298.75,776.6016,2318.75,776.6016" style="stroke:#1963A0;stroke-width:2.5;"/><text fill="#000000" font-family="sans-serif" font-size="30" font-style="italic" font-weight="bold" lengthAdjust="spacing" textLength="60" x="2323.75" y="785.127">final</text><text fill="#000000" font-family="sans-serif" font-size="30" font-style="italic" lengthAdjust="spacing" textLength="467.5" x="2391.25" y="785.127">xxxCardResourceProfileExtension</text><line style="stroke:#D4AC0D;stroke-width:3.75;" x1="2226.25" x2="2863.75" y1="812.8516" y2="812.8516"/><text fill="#000000" font-family="sans-serif" font-size="27.5" lengthAdjust="spacing" textLength="22.5" x="2238.75" y="851.3989">...</text><line style="stroke:#D4AC0D;stroke-width:3.75;" x1="2226.25" x2="2863.75" y1="867.4414" y2="867.4414"/><!--MD5=[b7f723709f4c95e341f6eb59b203b4a1]
class xxxCardSelectionAdapter--><rect codeLine="134" fill="#EBF5FB" height="154.5898" id="xxxCardSelectionAdapter" style="stroke:#3498DB;stroke-width:3.75;" width="522.5" x="558.75" y="1101.6016"/><ellipse cx="596.25" cy="1141.6016" fill="#ADD1B2" rx="27.5" ry="27.5" style="stroke:#ADD1B2;stroke-width:2.5;"/><path d="M601.25,1132.8516 Q601.7578,1131.6016 602.3438,1130.9766 Q602.9297,1130.3516 603.5938,1130.3516 Q604.7656,1130.3516 605.5078,1131.0547 Q606.25,1131.7578 606.25,1133.3984 L606.25,1137.3047 Q606.25,1138.9453 605.5469,1139.6484 Q604.8438,1140.3516 603.75,1140.3516 Q602.7734,1140.3516 602.1484,1139.9219 Q601.5234,1139.4922 601.25,1138.3594 Q601.1328,1137.5781 600.7031,1137.1484 Q599.9219,1136.3281 598.5156,1135.8594 Q597.1094,1135.3516 595.7031,1135.3516 Q593.9453,1135.3516 592.4609,1136.0547 Q591.0156,1136.7578 589.8828,1138.3203 Q588.75,1139.8828 588.75,1142.0313 L588.75,1144.3359 Q588.75,1146.9141 590.8594,1148.6328 Q592.9688,1150.3516 596.7188,1150.3516 Q598.9453,1150.3516 600.5078,1149.8438 Q601.4063,1149.5703 602.4219,1148.6719 Q603.0859,1148.1641 603.4375,1148.0078 Q603.7891,1147.8516 604.2188,1147.8516 Q605.0391,1147.8516 605.625,1148.5156 Q606.25,1149.1406 606.25,1150.0391 Q606.25,1150.8984 605.3906,1151.9141 Q604.1406,1153.3984 602.1484,1154.2188 Q599.5313,1155.3516 596.3281,1155.3516 Q592.5781,1155.3516 589.5703,1153.8672 Q587.1484,1152.6953 585.4297,1150.1563 Q583.75,1147.6172 583.75,1144.6094 L583.75,1141.875 Q583.75,1138.75 585.2344,1136.0156 Q586.7578,1133.2813 589.375,1131.8359 Q592.0313,1130.3516 595,1130.3516 Q596.7969,1130.3516 598.3594,1130.9766 Q599.9219,1131.6016 601.25,1132.8516 Z " fill="#000000"/><polygon fill="#4177AF" points="643.75,1130.3516,633.75,1145.3516,653.75,1145.3516" style="stroke:#1963A0;stroke-width:2.5;"/><text fill="#000000" font-family="sans-serif" font-size="30" font-style="italic" font-weight="bold" lengthAdjust="spacing" textLength="60" x="658.75" y="1153.877">final</text><text fill="#000000" font-family="sans-serif" font-size="30" font-style="italic" lengthAdjust="spacing" textLength="347.5" x="726.25" y="1153.877">xxxCardSelectionAdapter</text><line style="stroke:#3498DB;stroke-width:3.75;" x1="561.25" x2="1078.75" y1="1181.6016" y2="1181.6016"/><text fill="#000000" font-family="sans-serif" font-size="27.5" lengthAdjust="spacing" textLength="22.5" x="573.75" y="1220.1489">...</text><line style="stroke:#3498DB;stroke-width:3.75;" x1="561.25" x2="1078.75" y1="1236.1914" y2="1236.1914"/><!--MD5=[af1a3a06a73271ce498f794b85ef7cfb]
class xxxCardSelectorAdapter--><rect codeLine="135" fill="#EBF5FB" height="154.5898" id="xxxCardSelectorAdapter" style="stroke:#3498DB;stroke-width:3.75;" width="507.5" x="1733.75" y="1101.6016"/><ellipse cx="1771.25" cy="1141.6016" fill="#ADD1B2" rx="27.5" ry="27.5" style="stroke:#ADD1B2;stroke-width:2.5;"/><path d="M1776.25,1132.8516 Q1776.7578,1131.6016 1777.3438,1130.9766 Q1777.9297,1130.3516 1778.5938,1130.3516 Q1779.7656,1130.3516 1780.5078,1131.0547 Q1781.25,1131.7578 1781.25,1133.3984 L1781.25,1137.3047 Q1781.25,1138.9453 1780.5469,1139.6484 Q1779.8438,1140.3516 1778.75,1140.3516 Q1777.7734,1140.3516 1777.1484,1139.9219 Q1776.5234,1139.4922 1776.25,1138.3594 Q1776.1328,1137.5781 1775.7031,1137.1484 Q1774.9219,1136.3281 1773.5156,1135.8594 Q1772.1094,1135.3516 1770.7031,1135.3516 Q1768.9453,1135.3516 1767.4609,1136.0547 Q1766.0156,1136.7578 1764.8828,1138.3203 Q1763.75,1139.8828 1763.75,1142.0313 L1763.75,1144.3359 Q1763.75,1146.9141 1765.8594,1148.6328 Q1767.9688,1150.3516 1771.7188,1150.3516 Q1773.9453,1150.3516 1775.5078,1149.8438 Q1776.4063,1149.5703 1777.4219,1148.6719 Q1778.0859,1148.1641 1778.4375,1148.0078 Q1778.7891,1147.8516 1779.2188,1147.8516 Q1780.0391,1147.8516 1780.625,1148.5156 Q1781.25,1149.1406 1781.25,1150.0391 Q1781.25,1150.8984 1780.3906,1151.9141 Q1779.1406,1153.3984 1777.1484,1154.2188 Q1774.5313,1155.3516 1771.3281,1155.3516 Q1767.5781,1155.3516 1764.5703,1153.8672 Q1762.1484,1152.6953 1760.4297,1150.1563 Q1758.75,1147.6172 1758.75,1144.6094 L1758.75,1141.875 Q1758.75,1138.75 1760.2344,1136.0156 Q1761.7578,1133.2813 1764.375,1131.8359 Q1767.0313,1130.3516 1770,1130.3516 Q1771.7969,1130.3516 1773.3594,1130.9766 Q1774.9219,1131.6016 1776.25,1132.8516 Z " fill="#000000"/><polygon fill="#4177AF" points="1818.75,1130.3516,1808.75,1145.3516,1828.75,1145.3516" style="stroke:#1963A0;stroke-width:2.5;"/><text fill="#000000" font-family="sans-serif" font-size="30" font-style="italic" font-weight="bold" lengthAdjust="spacing" textLength="60" x="1833.75" y="1153.877">final</text><text fill="#000000" font-family="sans-serif" font-size="30" font-style="italic" lengthAdjust="spacing" textLength="332.5" x="1901.25" y="1153.877">xxxCardSelectorAdapter</text><line style="stroke:#3498DB;stroke-width:3.75;" x1="1736.25" x2="2238.75" y1="1181.6016" y2="1181.6016"/><text fill="#000000" font-family="sans-serif" font-size="27.5" lengthAdjust="spacing" textLength="22.5" x="1748.75" y="1220.1489">...</text><line style="stroke:#3498DB;stroke-width:3.75;" x1="1736.25" x2="2238.75" y1="1236.1914" y2="1236.1914"/><!--MD5=[cce03acc605d094508f66994b4b4a5f2]
class xxxSmartCardAdapter--><rect codeLine="136" fill="#EBF5FB" height="154.5898" id="xxxSmartCardAdapter" style="stroke:#3498DB;stroke-width:3.75;" width="477.5" x="1168.75" y="1101.6016"/><ellipse cx="1206.25" cy="1141.6016" fill="#ADD1B2" rx="27.5" ry="27.5" style="stroke:#ADD1B2;stroke-width:2.5;"/><path d="M1211.25,1132.8516 Q1211.7578,1131.6016 1212.3438,1130.9766 Q1212.9297,1130.3516 1213.5938,1130.3516 Q1214.7656,1130.3516 1215.5078,1131.0547 Q1216.25,1131.7578 1216.25,1133.3984 L1216.25,1137.3047 Q1216.25,1138.9453 1215.5469,1139.6484 Q1214.8438,1140.3516 1213.75,1140.3516 Q1212.7734,1140.3516 1212.1484,1139.9219 Q1211.5234,1139.4922 1211.25,1138.3594 Q1211.1328,1137.5781 1210.7031,1137.1484 Q1209.9219,1136.3281 1208.5156,1135.8594 Q1207.1094,1135.3516 1205.7031,1135.3516 Q1203.9453,1135.3516 1202.4609,1136.0547 Q1201.0156,1136.7578 1199.8828,1138.3203 Q1198.75,1139.8828 1198.75,1142.0313 L1198.75,1144.3359 Q1198.75,1146.9141 1200.8594,1148.6328 Q1202.9688,1150.3516 1206.7188,1150.3516 Q1208.9453,1150.3516 1210.5078,1149.8438 Q1211.4063,1149.5703 1212.4219,1148.6719 Q1213.0859,1148.1641 1213.4375,1148.0078 Q1213.7891,1147.8516 1214.2188,1147.8516 Q1215.0391,1147.8516 1215.625,1148.5156 Q1216.25,1149.1406 1216.25,1150.0391 Q1216.25,1150.8984 1215.3906,1151.9141 Q1214.1406,1153.3984 1212.1484,1154.2188 Q1209.5313,1155.3516 1206.3281,1155.3516 Q1202.5781,1155.3516 1199.5703,1153.8672 Q1197.1484,1152.6953 1195.4297,1150.1563 Q1193.75,1147.6172 1193.75,1144.6094 L1193.75,1141.875 Q1193.75,1138.75 1195.2344,1136.0156 Q1196.7578,1133.2813 1199.375,1131.8359 Q1202.0313,1130.3516 1205,1130.3516 Q1206.7969,1130.3516 1208.3594,1130.9766 Q1209.9219,1131.6016 1211.25,1132.8516 Z " fill="#000000"/><polygon fill="#4177AF" points="1253.75,1130.3516,1243.75,1145.3516,1263.75,1145.3516" style="stroke:#1963A0;stroke-width:2.5;"/><text fill="#000000" font-family="sans-serif" font-size="30" font-style="italic" font-weight="bold" lengthAdjust="spacing" textLength="60" x="1268.75" y="1153.877">final</text><text fill="#000000" font-family="sans-serif" font-size="30" font-style="italic" lengthAdjust="spacing" textLength="302.5" x="1336.25" y="1153.877">xxxSmartCardAdapter</text><line style="stroke:#3498DB;stroke-width:3.75;" x1="1171.25" x2="1643.75" y1="1181.6016" y2="1181.6016"/><text fill="#000000" font-family="sans-serif" font-size="27.5" lengthAdjust="spacing" textLength="22.5" x="1183.75" y="1220.1489">...</text><line style="stroke:#3498DB;stroke-width:3.75;" x1="1171.25" x2="1643.75" y1="1236.1914" y2="1236.1914"/><!--MD5=[f32ec65005451c0b69c9b7f05ba07707]
reverse link KeypleCardExtension to xxxCardExtension--><path d="M382.5,417.1591 C382.5,494.1391 382.5,592.7116 382.5,671.5816 " fill="none" id="KeypleCardExtension-backto-xxxCardExtension" style="stroke:#A80036;stroke-width:2.5;stroke-dasharray:7.0,7.0;"/><polygon fill="none" points="365,416.6691,382.5,366.6691,400,416.6691,365,416.6691" style="stroke:#A80036;stroke-width:2.5;"/><!--MD5=[4abb779e65060c5bfc44d688ec29c257]
reverse link CardSelection to xxxCardSelection--><path d="M1116.6025,416.6116 C1107.995,515.3566 1096.27,649.8816 1089.0525,732.6941 " fill="none" id="CardSelection-backto-xxxCardSelection" style="stroke:#A80036;stroke-width:2.5;"/><polygon fill="none" points="1099.18,414.9591,1120.9575,366.6691,1134.0475,417.9991,1099.18,414.9591" style="stroke:#A80036;stroke-width:2.5;"/><!--MD5=[03332bb9a6b06bb71554ad483aefcb1f]
reverse link CardSelector to xxxCardSelector--><path d="M1874.475,417.2766 C1887.7475,502.9266 1905.155,615.2641 1917.895,697.4666 " fill="none" id="CardSelector-backto-xxxCardSelector" style="stroke:#A80036;stroke-width:2.5;"/><polygon fill="none" points="1856.995,418.7591,1866.6325,366.6691,1891.5825,413.3991,1856.995,418.7591" style="stroke:#A80036;stroke-width:2.5;"/><!--MD5=[7b98aeab9a3d660b23153640da6ec114]
reverse link SmartCard to xxxSmartCard--><path d="M1495,417.2966 C1495,515.9766 1495,650.0716 1495,732.6941 " fill="none" id="SmartCard-backto-xxxSmartCard" style="stroke:#A80036;stroke-width:2.5;"/><polygon fill="none" points="1477.5,416.6691,1495,366.6691,1512.5,416.6691,1477.5,416.6691" style="stroke:#A80036;stroke-width:2.5;"/><!--MD5=[8bc6cb1f4dee831ac87f7cd6f4e65ab4]
reverse link CardResourceProfileExtensionSpi to xxxCardResourceProfileExtension--><path d="M2545,417.2966 C2545,515.9766 2545,650.0716 2545,732.6941 " fill="none" id="CardResourceProfileExtensionSpi-backto-xxxCardResourceProfileExtension" style="stroke:#A80036;stroke-width:2.5;stroke-dasharray:7.0,7.0;"/><polygon fill="none" points="2527.5,416.6691,2545,366.6691,2562.5,416.6691,2527.5,416.6691" style="stroke:#A80036;stroke-width:2.5;"/><!--MD5=[df9451b318d6606b19f7d4b575c2effa]
reverse link xxxCardSelection to xxxCardSelectionAdapter--><path d="M998.66,929.0291 C957.9475,985.4441 910.205,1051.6016 874.32,1101.3291 " fill="none" id="xxxCardSelection-backto-xxxCardSelectionAdapter" style="stroke:#A80036;stroke-width:2.5;stroke-dasharray:7.0,7.0;"/><polygon fill="none" points="984.66,918.5241,1028.11,888.2216,1013.04,939.0066,984.66,918.5241" style="stroke:#A80036;stroke-width:2.5;"/><!--MD5=[c894073829ba8baf12c92f112cb8555f]
reverse link CardSelectionSpi to xxxCardSelectionAdapter--><path d="M930.71,1471.5541 C904.1525,1402.0016 871.755,1317.1516 848.8875,1257.2616 " fill="none" id="CardSelectionSpi-backto-xxxCardSelectionAdapter" style="stroke:#A80036;stroke-width:2.5;stroke-dasharray:7.0,7.0;"/><polygon fill="none" points="947.31,1465.9691,948.795,1518.9223,914.61,1478.4541,947.31,1465.9691" style="stroke:#A80036;stroke-width:2.5;"/><!--MD5=[077a447c7901b23dcf03acc3d8a70774]
link xxxCardSelectionAdapter to CardSelectionSpi--><!--MD5=[60dd982ce17a20de08d28a6d551c7249]
reverse link xxxCardSelector to xxxCardSelectorAdapter--><path d="M1958.1175,973.0216 C1964.5675,1017.7091 1971.2725,1064.1691 1976.6475,1101.4041 " fill="none" id="xxxCardSelector-backto-xxxCardSelectorAdapter" style="stroke:#A80036;stroke-width:2.5;stroke-dasharray:7.0,7.0;"/><polygon fill="none" points="1940.7175,974.9641,1950.895,922.9766,1975.3575,969.9641,1940.7175,974.9641" style="stroke:#A80036;stroke-width:2.5;"/><!--MD5=[4ad6b4cfbda17f934d6963d5b7bc1623]
reverse link CardSelectorSpi to xxxCardSelectorAdapter--><path d="M1843.4525,1490.0416 C1865.3,1443.1491 1891.4325,1387.0816 1915,1336.6016 C1927.065,1310.7591 1940.2775,1282.5016 1952.0775,1257.2741 " fill="none" id="CardSelectorSpi-backto-xxxCardSelectorAdapter" style="stroke:#A80036;stroke-width:2.5;stroke-dasharray:7.0,7.0;"/><polygon fill="none" points="1859.1175,1497.8616,1822.1425,1535.7978,1827.39,1483.0841,1859.1175,1497.8616" style="stroke:#A80036;stroke-width:2.5;"/><!--MD5=[53791ecb059acc39d3531cf7ced56391]
link xxxCardSelectorAdapter to CardSelectorSpi--><!--MD5=[9002e706f396d6876295fc7061d0da0c]
reverse link xxxSmartCard to xxxSmartCardAdapter--><path d="M1465.0425,937.3916 C1451.9325,991.8916 1436.9825,1054.0391 1425.6075,1101.3291 " fill="none" id="xxxSmartCard-backto-xxxSmartCardAdapter" style="stroke:#A80036;stroke-width:2.5;stroke-dasharray:7.0,7.0;"/><polygon fill="none" points="1448.16,932.7416,1476.87,888.2216,1482.19,940.9266,1448.16,932.7416" style="stroke:#A80036;stroke-width:2.5;"/><!--MD5=[c3a026247cd8f9cca2ae38e56abcd097]
reverse link SmartCardSpi to xxxSmartCardAdapter--><path d="M1394.5825,1486.0741 C1397.635,1414.1316 1401.57,1321.3891 1404.29,1257.2616 " fill="none" id="SmartCardSpi-backto-xxxSmartCardAdapter" style="stroke:#A80036;stroke-width:2.5;stroke-dasharray:7.0,7.0;"/><polygon fill="none" points="1412.06,1487.0016,1392.455,1536.2156,1377.09,1485.5191,1412.06,1487.0016" style="stroke:#A80036;stroke-width:2.5;"/><!--MD5=[bd6c05ee87062384bb574fb05535b09e]
link xxxSmartCardAdapter to SmartCardSpi--><!--MD5=[3aa200d50e8af772637d2251ae140976]
link xxxCardExtension to xxxCardSelection--><path codeLine="116" d="M685.46,810.3516 C756.8175,810.3516 830.835,810.3516 895.35,810.3516 " fill="none" id="xxxCardExtension-to-xxxCardSelection" style="stroke:#27AE60;stroke-width:2.5;stroke-dasharray:7.0,7.0;"/><polygon fill="#27AE60" points="908.1225,810.3516,885.6225,800.3516,895.6225,810.3516,885.6225,820.3516,908.1225,810.3516" style="stroke:#27AE60;stroke-width:2.5;"/><polygon fill="#000000" points="753.125,780.791,730.5123,773.4437,730.5123,788.1383,753.125,780.791" style="stroke:#000000;stroke-width:2.5;"/><text fill="#000000" font-family="sans-serif" font-size="32.5" lengthAdjust="spacing" textLength="100" x="763.125" y="794.0894">provide</text><!--MD5=[476352ebd3566abd1561615ed368c50e]
link xxxCardExtension to xxxCardSelector--><path codeLine="117" d="M568.0925,671.1266 C653.765,615.3116 759.695,557.5516 865,529.1016 C1041.9875,481.2841 1523.135,453.1616 1690,529.1016 C1762.1525,561.9391 1821.3225,627.6841 1863.43,687.3566 " fill="none" id="xxxCardExtension-to-xxxCardSelector" style="stroke:#27AE60;stroke-width:2.5;stroke-dasharray:7.0,7.0;"/><polygon fill="#27AE60" points="1870.565,697.6441,1865.9574,673.4569,1863.4404,687.3732,1849.5241,684.8562,1870.565,697.6441" style="stroke:#27AE60;stroke-width:2.5;"/><polygon fill="#000000" points="1266.249,469.6976,1243.7301,462.0676,1243.546,476.7611,1266.249,469.6976" style="stroke:#000000;stroke-width:2.5;"/><text fill="#000000" font-family="sans-serif" font-size="32.5" lengthAdjust="spacing" textLength="100" x="1276.25" y="482.8394">provide</text><!--MD5=[6aef92196412bbfccb06d3ea1a2cdc76]
link xxxCardSelection to xxxSmartCardAdapter--><!--MD5=[bfde9b9408152fc84a8a85d28a5f778b]
@startuml
title
    Keyple 2.0 - Specific Card Extension - 2.0.0 (20/05/2021)
end title

' == THEME ==

'Couleurs issues de : https://htmlcolorcodes.com/fr/tableau-de-couleur/tableau-de-couleur-design-plat/
!define C_GREY1 F8F9F9
!define C_GREY2 F2F3F4
!define C_GREY3 E5E7E9
!define C_GREY4 D7DBDD
!define C_GREY5 CACFD2
!define C_GREY6 BDC3C7
!define C_LINK 3498DB
!define C_USE 27AE60

skinparam Shadowing false
skinparam ClassFontStyle italic
skinparam ClassBorderColor #D4AC0D
skinparam stereotypeABorderColor #A9DCDF
skinparam stereotypeIBorderColor #B4A7E5
skinparam stereotypeCBorderColor #ADD1B2
skinparam stereotypeEBorderColor #EB93DF
' Red
skinparam ClassBackgroundColor<<red>> #FDEDEC
skinparam ClassBorderColor<<red>> #E74C3C
hide <<red>> stereotype
' Purple
skinparam ClassBackgroundColor<<purple>> #F4ECF7
skinparam ClassBorderColor<<purple>> #8E44AD
hide <<purple>> stereotype
' blue
skinparam ClassBackgroundColor<<blue>> #EBF5FB
skinparam ClassBorderColor<<blue>> #3498DB
hide <<blue>> stereotype
' Green
skinparam ClassBackgroundColor<<green>> #E9F7EF
skinparam ClassBorderColor<<green>> #27AE60
hide <<green>> stereotype
' Grey
skinparam ClassBackgroundColor<<grey>> #EAECEE
skinparam ClassBorderColor<<grey>> #2C3E50
hide <<grey>> stereotype

' == CONTENT ==

package "org.eclipse.keyple.core.common" as commonsApi {
    +interface KeypleCardExtension {
        ...
    }
}
package "org.calypsonet.terminal.reader.selection.spi" as readerSelectionSpi {
    +interface CardSelection {
        ...
    }
    +interface CardSelector {
        ...
    }
    +interface SmartCard {
        ...
    }
}
package "org.calypsonet.terminal.card.spi" as cardSpi {
    +interface CardSelectionSpi {
        ...
    }
    +interface CardSelectorSpi {
    }
    +interface SmartCardSpi {
    }
}
package "org.eclipse.keyple.core.service.resource.spi" as cardResourceSpi {
    +interface CardResourceProfileExtensionSpi {
        ...
    }
}

package "org.eclipse.keyple.card.xxx (specific extension)" as specificExtension {
    +class "**final** xxxCardExtension" as xxxCardExtension implements KeypleCardExtension {
        - -
        +{static} xxxCardExtension getInstance ()
        ..
        +xxxCardSelection createXxxCardSelection ()
        +xxxCardSelector createXxxCardSelector ()
        ...
    }
    +interface xxxCardSelection extends CardSelection {
        ...
    }
    +interface "**final** xxxCardSelector" as xxxCardSelector implements CardSelector {
        - -
        +xxxCardSelector set... ()
        +xxxCardSelector set... ()
        ...
    }
    +interface xxxSmartCard extends SmartCard {
        ...
    }
    ~class "**final** xxxCardResourceProfileExtension" as xxxCardResourceProfileExtension implements CardResourceProfileExtensionSpi {
        ...
    }
    ' Adapters
    ~class "**final** xxxCardSelectionAdapter" as xxxCardSelectionAdapter implements xxxCardSelection, CardSelectionSpi {
        ...
    }
    ~class "**final** xxxCardSelectorAdapter" as xxxCardSelectorAdapter implements xxxCardSelector, CardSelectorSpi {
        ...
    }
    ~class "**final** xxxSmartCardAdapter" as xxxSmartCardAdapter implements xxxSmartCard, SmartCardSpi {
        ...
    }
}

' Associations

xxxCardExtension .right.> xxxCardSelection #C_USE : provide >
xxxCardExtension .right.> xxxCardSelector #C_USE : provide >

' == LAYOUT ==

xxxCardSelection -[hidden]- xxxSmartCardAdapter
xxxCardSelectorAdapter -[hidden]- CardSelectorSpi
xxxSmartCardAdapter -[hidden]- SmartCardSpi
xxxCardSelectionAdapter -[hidden]- CardSelectionSpi

' == STYLE ==

package commonsApi #C_GREY1 {}
package specificExtension #C_GREY1 {}
package cardSpi #C_GREY1 {}
package readerSelectionSpi #C_GREY1 {}
package cardResourceSpi #C_GREY1 {}

class xxxCardSelectionAdapter <<blue>>
class xxxCardSelectorAdapter <<blue>>
class xxxSmartCardAdapter <<blue>>
interface CardSelectionSpi <<blue>>
interface CardSelectorSpi <<blue>>
interface SmartCardSpi <<blue>>

@enduml

@startuml
title
    Keyple 2.0 - Specific Card Extension - 2.0.0 (20/05/2021)
end title



skinparam Shadowing false
skinparam ClassFontStyle italic
skinparam ClassBorderColor #D4AC0D
skinparam stereotypeABorderColor #A9DCDF
skinparam stereotypeIBorderColor #B4A7E5
skinparam stereotypeCBorderColor #ADD1B2
skinparam stereotypeEBorderColor #EB93DF
skinparam ClassBackgroundColor<<red>> #FDEDEC
skinparam ClassBorderColor<<red>> #E74C3C
hide <<red>> stereotype
skinparam ClassBackgroundColor<<purple>> #F4ECF7
skinparam ClassBorderColor<<purple>> #8E44AD
hide <<purple>> stereotype
skinparam ClassBackgroundColor<<blue>> #EBF5FB
skinparam ClassBorderColor<<blue>> #3498DB
hide <<blue>> stereotype
skinparam ClassBackgroundColor<<green>> #E9F7EF
skinparam ClassBorderColor<<green>> #27AE60
hide <<green>> stereotype
skinparam ClassBackgroundColor<<grey>> #EAECEE
skinparam ClassBorderColor<<grey>> #2C3E50
hide <<grey>> stereotype


package "org.eclipse.keyple.core.common" as commonsApi {
    +interface KeypleCardExtension {
        ...
    }
}
package "org.calypsonet.terminal.reader.selection.spi" as readerSelectionSpi {
    +interface CardSelection {
        ...
    }
    +interface CardSelector {
        ...
    }
    +interface SmartCard {
        ...
    }
}
package "org.calypsonet.terminal.card.spi" as cardSpi {
    +interface CardSelectionSpi {
        ...
    }
    +interface CardSelectorSpi {
    }
    +interface SmartCardSpi {
    }
}
package "org.eclipse.keyple.core.service.resource.spi" as cardResourceSpi {
    +interface CardResourceProfileExtensionSpi {
        ...
    }
}

package "org.eclipse.keyple.card.xxx (specific extension)" as specificExtension {
    +class "**final** xxxCardExtension" as xxxCardExtension implements KeypleCardExtension {
        - -
        +{static} xxxCardExtension getInstance ()
        ..
        +xxxCardSelection createXxxCardSelection ()
        +xxxCardSelector createXxxCardSelector ()
        ...
    }
    +interface xxxCardSelection extends CardSelection {
        ...
    }
    +interface "**final** xxxCardSelector" as xxxCardSelector implements CardSelector {
        - -
        +xxxCardSelector set... ()
        +xxxCardSelector set... ()
        ...
    }
    +interface xxxSmartCard extends SmartCard {
        ...
    }
    ~class "**final** xxxCardResourceProfileExtension" as xxxCardResourceProfileExtension implements CardResourceProfileExtensionSpi {
        ...
    }
    ~class "**final** xxxCardSelectionAdapter" as xxxCardSelectionAdapter implements xxxCardSelection, CardSelectionSpi {
        ...
    }
    ~class "**final** xxxCardSelectorAdapter" as xxxCardSelectorAdapter implements xxxCardSelector, CardSelectorSpi {
        ...
    }
    ~class "**final** xxxSmartCardAdapter" as xxxSmartCardAdapter implements xxxSmartCard, SmartCardSpi {
        ...
    }
}


xxxCardExtension .right.> xxxCardSelection #27AE60 : provide >
xxxCardExtension .right.> xxxCardSelector #27AE60 : provide >


xxxCardSelection -[hidden]- xxxSmartCardAdapter
xxxCardSelectorAdapter -[hidden]- CardSelectorSpi
xxxSmartCardAdapter -[hidden]- SmartCardSpi
xxxCardSelectionAdapter -[hidden]- CardSelectionSpi


package commonsApi #F8F9F9 {}
package specificExtension #F8F9F9 {}
package cardSpi #F8F9F9 {}
package readerSelectionSpi #F8F9F9 {}
package cardResourceSpi #F8F9F9 {}

class xxxCardSelectionAdapter <<blue>>
class xxxCardSelectorAdapter <<blue>>
class xxxSmartCardAdapter <<blue>>
interface CardSelectionSpi <<blue>>
interface CardSelectorSpi <<blue>>
interface SmartCardSpi <<blue>>

@enduml

PlantUML version 1.2021.5(Sun Apr 25 13:20:28 CEST 2021)
(GPL source distribution)
Java Runtime: OpenJDK Runtime Environment
JVM: Dynamic Code Evolution 64-Bit Server VM
Default Encoding: Cp1252
Language: fr
Country: FR
--></g></svg>