<?xml version="1.0" encoding="UTF-8" standalone="no"?><svg xmlns="http://www.w3.org/2000/svg" xmlns:xlink="http://www.w3.org/1999/xlink" contentScriptType="application/ecmascript" contentStyleType="text/css" height="1720px" preserveAspectRatio="none" style="width:2237px;height:1720px;background:#FFFFFF;" version="1.1" viewBox="0 0 2237 1720" width="2237.5px" zoomAndPan="magnify"><defs><filter height="1" id="bwigkka9n4xc50" width="1" x="0" y="0"><feFlood flood-color="#FFFF00" result="flood"/><feComposite in="SourceGraphic" in2="flood" operator="over"/></filter><filter height="1" id="bwigkka9n4xc51" width="1" x="0" y="0"><feFlood flood-color="#ADD8E6" result="flood"/><feComposite in="SourceGraphic" in2="flood" operator="over"/></filter></defs><g><text fill="#000000" font-family="sans-serif" font-size="45" lengthAdjust="spacing" textLength="1122.5" x="541.25" y="46.7139">Keyple 2.0 - Specific Remote Plugin - 2.0.0 (28/05/2021)</text><rect fill="#DDDDDD" height="157.0703" rx="12.5" ry="12.5" style="stroke:#000000;stroke-width:2.5;" width="557.5" x="822.5" y="76.6016"/><text fill="#000000" font-family="sans-serif" font-size="35" lengthAdjust="spacing" text-decoration="underline" textLength="220" x="837.5" y="125.4346">Colors legend</text><text fill="#000000" font-family="sans-serif" font-size="35" lengthAdjust="spacing" textLength="10" x="1067.5" y="125.4346">:</text><ellipse cx="851.25" cy="158.3984" fill="#000000" rx="6.25" ry="6.25" style="stroke:#000000;stroke-width:0.0;"/><text fill="#000000" filter="url(#bwigkka9n4xc50)" font-family="sans-serif" font-size="35" lengthAdjust="spacing" textLength="377.5" x="870" y="169.458">Public API for end users</text><ellipse cx="851.25" cy="202.4219" fill="#000000" rx="6.25" ry="6.25" style="stroke:#000000;stroke-width:0.0;"/><text fill="#000000" filter="url(#bwigkka9n4xc51)" font-family="sans-serif" font-size="35" lengthAdjust="spacing" textLength="495" x="870" y="213.4814">Private API for internal use only</text><!--MD5=[621c849533070c5aba8aa732369aa9f8]
cluster commonsApi--><polygon fill="#F8F9F9" points="462.5,271.1719,1047.5,271.1719,1065,330.1953,2195,330.1953,2195,561.1719,462.5,561.1719,462.5,271.1719" style="stroke:#000000;stroke-width:3.75;"/><line style="stroke:#000000;stroke-width:3.75;" x1="462.5" x2="1065" y1="330.1953" y2="330.1953"/><text fill="#000000" font-family="sans-serif" font-size="35" font-weight="bold" lengthAdjust="spacing" textLength="570" x="472.5" y="312.5049">org.eclipse.keyple.core.common</text><!--MD5=[6cb19e7d8351e03571d64db4601c3623]
cluster pluginSpi--><polygon fill="#F8F9F9" points="345,1418.6719,1172.5,1418.6719,1190,1477.6953,1880,1477.6953,1880,1703.6719,345,1703.6719,345,1418.6719" style="stroke:#000000;stroke-width:3.75;"/><line style="stroke:#000000;stroke-width:3.75;" x1="345" x2="1190" y1="1477.6953" y2="1477.6953"/><text fill="#000000" font-family="sans-serif" font-size="35" font-weight="bold" lengthAdjust="spacing" textLength="812.5" x="355" y="1460.0049">org.eclipse.keyple.core.distributed.remote.spi</text><!--MD5=[f4079738657ebf8f47a9de3e76e08740]
cluster specificPluginApi--><polygon fill="#F8F9F9" points="40,683.6719,860,683.6719,877.5,742.6953,1965,742.6953,1965,1316.1719,40,1316.1719,40,683.6719" style="stroke:#000000;stroke-width:3.75;"/><line style="stroke:#000000;stroke-width:3.75;" x1="40" x2="877.5" y1="742.6953" y2="742.6953"/><text fill="#000000" font-family="sans-serif" font-size="35" font-weight="bold" lengthAdjust="spacing" textLength="805" x="50" y="725.0049">org.eclipse.keyple.plugin.xxx (specific plugin)</text><!--MD5=[c9fcbc22b46e6fe8dd529abbe4ed4a83]
class KeyplePluginExtensionFactory--><rect codeLine="54" fill="#FEFECE" height="120" id="KeyplePluginExtensionFactory" style="stroke:#D4AC0D;stroke-width:3.75;" width="525" x="570" y="381.1719"/><ellipse cx="607.5" cy="421.1719" fill="#B4A7E5" rx="27.5" ry="27.5" style="stroke:#B4A7E5;stroke-width:2.5;"/><path d="M610,413.6719 L610,428.6719 L615,428.6719 L616.2109,428.6719 L617.5,430.2344 L617.5,431.1719 L617.5,432.1094 L616.2109,433.6719 L615,433.6719 L600,433.6719 L598.7891,433.6719 L597.5,432.1094 L597.5,431.1719 L597.5,430.2344 L598.7891,428.6719 L600,428.6719 L605,428.6719 L605,413.6719 L600,413.6719 L598.7891,413.6719 L597.5,412.1094 L597.5,411.1719 L597.5,410.2344 L598.7891,408.6719 L600,408.6719 L615,408.6719 L616.2109,408.6719 L617.5,410.2344 L617.5,411.1719 L617.5,412.1094 L616.2109,413.6719 L615,413.6719 L610,413.6719 Z " fill="#000000"/><ellipse cx="655" cy="419.9219" fill="#84BE84" rx="7.5" ry="7.5" style="stroke:#038048;stroke-width:2.5;"/><text fill="#000000" font-family="sans-serif" font-size="30" font-style="italic" lengthAdjust="spacing" textLength="417.5" x="670" y="433.4473">KeyplePluginExtensionFactory</text><line style="stroke:#D4AC0D;stroke-width:3.75;" x1="572.5" x2="1092.5" y1="461.1719" y2="461.1719"/><line style="stroke:#D4AC0D;stroke-width:3.75;" x1="572.5" x2="1092.5" y1="481.1719" y2="481.1719"/><!--MD5=[afffbc881b1d922900a05d5f1575661b]
class KeyplePluginExtension--><rect codeLine="56" fill="#FEFECE" height="120" id="KeyplePluginExtension" style="stroke:#D4AC0D;stroke-width:3.75;" width="425" x="1182.5" y="381.1719"/><ellipse cx="1220" cy="421.1719" fill="#B4A7E5" rx="27.5" ry="27.5" style="stroke:#B4A7E5;stroke-width:2.5;"/><path d="M1222.5,413.6719 L1222.5,428.6719 L1227.5,428.6719 L1228.7109,428.6719 L1230,430.2344 L1230,431.1719 L1230,432.1094 L1228.7109,433.6719 L1227.5,433.6719 L1212.5,433.6719 L1211.2891,433.6719 L1210,432.1094 L1210,431.1719 L1210,430.2344 L1211.2891,428.6719 L1212.5,428.6719 L1217.5,428.6719 L1217.5,413.6719 L1212.5,413.6719 L1211.2891,413.6719 L1210,412.1094 L1210,411.1719 L1210,410.2344 L1211.2891,408.6719 L1212.5,408.6719 L1227.5,408.6719 L1228.7109,408.6719 L1230,410.2344 L1230,411.1719 L1230,412.1094 L1228.7109,413.6719 L1227.5,413.6719 L1222.5,413.6719 Z " fill="#000000"/><ellipse cx="1267.5" cy="419.9219" fill="#84BE84" rx="7.5" ry="7.5" style="stroke:#038048;stroke-width:2.5;"/><text fill="#000000" font-family="sans-serif" font-size="30" font-style="italic" lengthAdjust="spacing" textLength="317.5" x="1282.5" y="433.4473">KeyplePluginExtension</text><line style="stroke:#D4AC0D;stroke-width:3.75;" x1="1185" x2="1605" y1="461.1719" y2="461.1719"/><line style="stroke:#D4AC0D;stroke-width:3.75;" x1="1185" x2="1605" y1="481.1719" y2="481.1719"/><!--MD5=[d0367e54e30269e1f6406d1a6d3c359c]
class KeypleReaderExtension--><rect codeLine="58" fill="#FEFECE" height="120" id="KeypleReaderExtension" style="stroke:#D4AC0D;stroke-width:3.75;" width="440" x="1695" y="381.1719"/><ellipse cx="1732.5" cy="421.1719" fill="#B4A7E5" rx="27.5" ry="27.5" style="stroke:#B4A7E5;stroke-width:2.5;"/><path d="M1735,413.6719 L1735,428.6719 L1740,428.6719 L1741.2109,428.6719 L1742.5,430.2344 L1742.5,431.1719 L1742.5,432.1094 L1741.2109,433.6719 L1740,433.6719 L1725,433.6719 L1723.7891,433.6719 L1722.5,432.1094 L1722.5,431.1719 L1722.5,430.2344 L1723.7891,428.6719 L1725,428.6719 L1730,428.6719 L1730,413.6719 L1725,413.6719 L1723.7891,413.6719 L1722.5,412.1094 L1722.5,411.1719 L1722.5,410.2344 L1723.7891,408.6719 L1725,408.6719 L1740,408.6719 L1741.2109,408.6719 L1742.5,410.2344 L1742.5,411.1719 L1742.5,412.1094 L1741.2109,413.6719 L1740,413.6719 L1735,413.6719 Z " fill="#000000"/><ellipse cx="1780" cy="419.9219" fill="#84BE84" rx="7.5" ry="7.5" style="stroke:#038048;stroke-width:2.5;"/><text fill="#000000" font-family="sans-serif" font-size="30" font-style="italic" lengthAdjust="spacing" textLength="332.5" x="1795" y="433.4473">KeypleReaderExtension</text><line style="stroke:#D4AC0D;stroke-width:3.75;" x1="1697.5" x2="2132.5" y1="461.1719" y2="461.1719"/><line style="stroke:#D4AC0D;stroke-width:3.75;" x1="1697.5" x2="2132.5" y1="481.1719" y2="481.1719"/><!--MD5=[3937379067c1c7d1f35002e0ca836dbd]
class RemoteReaderSpi--><rect codeLine="121" fill="#EBF5FB" height="154.5898" id="RemoteReaderSpi" style="stroke:#3498DB;stroke-width:3.75;" width="365" x="1475" y="1508.6719"/><ellipse cx="1512.5" cy="1548.6719" fill="#B4A7E5" rx="27.5" ry="27.5" style="stroke:#B4A7E5;stroke-width:2.5;"/><path d="M1515,1541.1719 L1515,1556.1719 L1520,1556.1719 L1521.2109,1556.1719 L1522.5,1557.7344 L1522.5,1558.6719 L1522.5,1559.6094 L1521.2109,1561.1719 L1520,1561.1719 L1505,1561.1719 L1503.7891,1561.1719 L1502.5,1559.6094 L1502.5,1558.6719 L1502.5,1557.7344 L1503.7891,1556.1719 L1505,1556.1719 L1510,1556.1719 L1510,1541.1719 L1505,1541.1719 L1503.7891,1541.1719 L1502.5,1539.6094 L1502.5,1538.6719 L1502.5,1537.7344 L1503.7891,1536.1719 L1505,1536.1719 L1520,1536.1719 L1521.2109,1536.1719 L1522.5,1537.7344 L1522.5,1538.6719 L1522.5,1539.6094 L1521.2109,1541.1719 L1520,1541.1719 L1515,1541.1719 Z " fill="#000000"/><ellipse cx="1560" cy="1547.4219" fill="#84BE84" rx="7.5" ry="7.5" style="stroke:#038048;stroke-width:2.5;"/><text fill="#000000" font-family="sans-serif" font-size="30" font-style="italic" lengthAdjust="spacing" textLength="257.5" x="1575" y="1560.9473">RemoteReaderSpi</text><line style="stroke:#3498DB;stroke-width:3.75;" x1="1477.5" x2="1837.5" y1="1588.6719" y2="1588.6719"/><text fill="#000000" font-family="sans-serif" font-size="27.5" lengthAdjust="spacing" textLength="22.5" x="1490" y="1627.2192">...</text><line style="stroke:#3498DB;stroke-width:3.75;" x1="1477.5" x2="1837.5" y1="1643.2617" y2="1643.2617"/><!--MD5=[136cd6dbe7577038ede23d483af1b410]
class AbstractRemotePluginSpi--><rect codeLine="122" fill="#EBF5FB" height="154.5898" id="AbstractRemotePluginSpi" style="stroke:#3498DB;stroke-width:3.75;" width="462.5" x="923.75" y="1508.6719"/><ellipse cx="961.25" cy="1548.6719" fill="#B4A7E5" rx="27.5" ry="27.5" style="stroke:#B4A7E5;stroke-width:2.5;"/><path d="M963.75,1541.1719 L963.75,1556.1719 L968.75,1556.1719 L969.9609,1556.1719 L971.25,1557.7344 L971.25,1558.6719 L971.25,1559.6094 L969.9609,1561.1719 L968.75,1561.1719 L953.75,1561.1719 L952.5391,1561.1719 L951.25,1559.6094 L951.25,1558.6719 L951.25,1557.7344 L952.5391,1556.1719 L953.75,1556.1719 L958.75,1556.1719 L958.75,1541.1719 L953.75,1541.1719 L952.5391,1541.1719 L951.25,1539.6094 L951.25,1538.6719 L951.25,1537.7344 L952.5391,1536.1719 L953.75,1536.1719 L968.75,1536.1719 L969.9609,1536.1719 L971.25,1537.7344 L971.25,1538.6719 L971.25,1539.6094 L969.9609,1541.1719 L968.75,1541.1719 L963.75,1541.1719 Z " fill="#000000"/><ellipse cx="1008.75" cy="1547.4219" fill="#84BE84" rx="7.5" ry="7.5" style="stroke:#038048;stroke-width:2.5;"/><text fill="#000000" font-family="sans-serif" font-size="30" font-style="italic" lengthAdjust="spacing" textLength="355" x="1023.75" y="1560.9473">AbstractRemotePluginSpi</text><line style="stroke:#3498DB;stroke-width:3.75;" x1="926.25" x2="1383.75" y1="1588.6719" y2="1588.6719"/><text fill="#000000" font-family="sans-serif" font-size="27.5" lengthAdjust="spacing" textLength="22.5" x="938.75" y="1627.2192">...</text><line style="stroke:#3498DB;stroke-width:3.75;" x1="926.25" x2="1383.75" y1="1643.2617" y2="1643.2617"/><!--MD5=[c2370bc74128b93bd072b6f31e9991b0]
class RemotePluginFactorySpi--><rect codeLine="123" fill="#EBF5FB" height="154.5898" id="RemotePluginFactorySpi" style="stroke:#3498DB;stroke-width:3.75;" width="450" x="385" y="1508.6719"/><ellipse cx="422.5" cy="1548.6719" fill="#B4A7E5" rx="27.5" ry="27.5" style="stroke:#B4A7E5;stroke-width:2.5;"/><path d="M425,1541.1719 L425,1556.1719 L430,1556.1719 L431.2109,1556.1719 L432.5,1557.7344 L432.5,1558.6719 L432.5,1559.6094 L431.2109,1561.1719 L430,1561.1719 L415,1561.1719 L413.7891,1561.1719 L412.5,1559.6094 L412.5,1558.6719 L412.5,1557.7344 L413.7891,1556.1719 L415,1556.1719 L420,1556.1719 L420,1541.1719 L415,1541.1719 L413.7891,1541.1719 L412.5,1539.6094 L412.5,1538.6719 L412.5,1537.7344 L413.7891,1536.1719 L415,1536.1719 L430,1536.1719 L431.2109,1536.1719 L432.5,1537.7344 L432.5,1538.6719 L432.5,1539.6094 L431.2109,1541.1719 L430,1541.1719 L425,1541.1719 Z " fill="#000000"/><ellipse cx="470" cy="1547.4219" fill="#84BE84" rx="7.5" ry="7.5" style="stroke:#038048;stroke-width:2.5;"/><text fill="#000000" font-family="sans-serif" font-size="30" font-style="italic" lengthAdjust="spacing" textLength="342.5" x="485" y="1560.9473">RemotePluginFactorySpi</text><line style="stroke:#3498DB;stroke-width:3.75;" x1="387.5" x2="832.5" y1="1588.6719" y2="1588.6719"/><text fill="#000000" font-family="sans-serif" font-size="27.5" lengthAdjust="spacing" textLength="22.5" x="400" y="1627.2192">...</text><line style="stroke:#3498DB;stroke-width:3.75;" x1="387.5" x2="832.5" y1="1643.2617" y2="1643.2617"/><!--MD5=[77bc4349ea6438e8a74c230e5fcea155]
class xxxPluginFactoryProvider--><rect codeLine="75" fill="#FEFECE" height="154.5898" id="xxxPluginFactoryProvider" style="stroke:#D4AC0D;stroke-width:3.75;" width="522.5" x="148.75" y="793.6719"/><ellipse cx="186.25" cy="833.6719" fill="#ADD1B2" rx="27.5" ry="27.5" style="stroke:#ADD1B2;stroke-width:2.5;"/><path d="M191.25,824.9219 Q191.7578,823.6719 192.3438,823.0469 Q192.9297,822.4219 193.5938,822.4219 Q194.7656,822.4219 195.5078,823.125 Q196.25,823.8281 196.25,825.4688 L196.25,829.375 Q196.25,831.0156 195.5469,831.7188 Q194.8438,832.4219 193.75,832.4219 Q192.7734,832.4219 192.1484,831.9922 Q191.5234,831.5625 191.25,830.4297 Q191.1328,829.6484 190.7031,829.2188 Q189.9219,828.3984 188.5156,827.9297 Q187.1094,827.4219 185.7031,827.4219 Q183.9453,827.4219 182.4609,828.125 Q181.0156,828.8281 179.8828,830.3906 Q178.75,831.9531 178.75,834.1016 L178.75,836.4063 Q178.75,838.9844 180.8594,840.7031 Q182.9688,842.4219 186.7188,842.4219 Q188.9453,842.4219 190.5078,841.9141 Q191.4063,841.6406 192.4219,840.7422 Q193.0859,840.2344 193.4375,840.0781 Q193.7891,839.9219 194.2188,839.9219 Q195.0391,839.9219 195.625,840.5859 Q196.25,841.2109 196.25,842.1094 Q196.25,842.9688 195.3906,843.9844 Q194.1406,845.4688 192.1484,846.2891 Q189.5313,847.4219 186.3281,847.4219 Q182.5781,847.4219 179.5703,845.9375 Q177.1484,844.7656 175.4297,842.2266 Q173.75,839.6875 173.75,836.6797 L173.75,833.9453 Q173.75,830.8203 175.2344,828.0859 Q176.7578,825.3516 179.375,823.9063 Q182.0313,822.4219 185,822.4219 Q186.7969,822.4219 188.3594,823.0469 Q189.9219,823.6719 191.25,824.9219 Z " fill="#000000"/><ellipse cx="233.75" cy="832.4219" fill="#84BE84" rx="7.5" ry="7.5" style="stroke:#038048;stroke-width:2.5;"/><text fill="#000000" font-family="sans-serif" font-size="30" font-style="italic" font-weight="bold" lengthAdjust="spacing" textLength="60" x="248.75" y="845.9473">final</text><text fill="#000000" font-family="sans-serif" font-size="30" font-style="italic" lengthAdjust="spacing" textLength="347.5" x="316.25" y="845.9473">xxxPluginFactoryProvider</text><line style="stroke:#D4AC0D;stroke-width:3.75;" x1="151.25" x2="668.75" y1="873.6719" y2="873.6719"/><line style="stroke:#D4AC0D;stroke-width:3.75;" x1="151.25" x2="668.75" y1="893.6719" y2="893.6719"/><ellipse cx="176.25" cy="921.1719" fill="#84BE84" rx="7.5" ry="7.5" style="stroke:#038048;stroke-width:2.5;"/><text fill="#000000" font-family="sans-serif" font-size="27.5" lengthAdjust="spacing" text-decoration="underline" textLength="372.5" x="198.75" y="932.2192">xxxPluginFactory getFactory ()</text><!--MD5=[fed7f4caaf0512ced7ad550cc1121374]
class xxxPluginFactory--><rect codeLine="78" fill="#FEFECE" height="154.5898" id="xxxPluginFactory" style="stroke:#D4AC0D;stroke-width:3.75;" width="340" x="895" y="793.6719"/><ellipse cx="932.5" cy="833.6719" fill="#B4A7E5" rx="27.5" ry="27.5" style="stroke:#B4A7E5;stroke-width:2.5;"/><path d="M935,826.1719 L935,841.1719 L940,841.1719 L941.2109,841.1719 L942.5,842.7344 L942.5,843.6719 L942.5,844.6094 L941.2109,846.1719 L940,846.1719 L925,846.1719 L923.7891,846.1719 L922.5,844.6094 L922.5,843.6719 L922.5,842.7344 L923.7891,841.1719 L925,841.1719 L930,841.1719 L930,826.1719 L925,826.1719 L923.7891,826.1719 L922.5,824.6094 L922.5,823.6719 L922.5,822.7344 L923.7891,821.1719 L925,821.1719 L940,821.1719 L941.2109,821.1719 L942.5,822.7344 L942.5,823.6719 L942.5,824.6094 L941.2109,826.1719 L940,826.1719 L935,826.1719 Z " fill="#000000"/><ellipse cx="980" cy="832.4219" fill="#84BE84" rx="7.5" ry="7.5" style="stroke:#038048;stroke-width:2.5;"/><text fill="#000000" font-family="sans-serif" font-size="30" font-style="italic" lengthAdjust="spacing" textLength="232.5" x="995" y="845.9473">xxxPluginFactory</text><line style="stroke:#D4AC0D;stroke-width:3.75;" x1="897.5" x2="1232.5" y1="873.6719" y2="873.6719"/><text fill="#000000" font-family="sans-serif" font-size="27.5" lengthAdjust="spacing" textLength="22.5" x="910" y="912.2192">...</text><line style="stroke:#D4AC0D;stroke-width:3.75;" x1="897.5" x2="1232.5" y1="928.2617" y2="928.2617"/><!--MD5=[b6595d9ff200fd5ee11228c478636e60]
class xxxPlugin--><rect codeLine="81" fill="#FEFECE" height="154.5898" id="xxxPlugin" style="stroke:#D4AC0D;stroke-width:3.75;" width="240" x="1322.5" y="793.6719"/><ellipse cx="1360" cy="833.6719" fill="#B4A7E5" rx="27.5" ry="27.5" style="stroke:#B4A7E5;stroke-width:2.5;"/><path d="M1362.5,826.1719 L1362.5,841.1719 L1367.5,841.1719 L1368.7109,841.1719 L1370,842.7344 L1370,843.6719 L1370,844.6094 L1368.7109,846.1719 L1367.5,846.1719 L1352.5,846.1719 L1351.2891,846.1719 L1350,844.6094 L1350,843.6719 L1350,842.7344 L1351.2891,841.1719 L1352.5,841.1719 L1357.5,841.1719 L1357.5,826.1719 L1352.5,826.1719 L1351.2891,826.1719 L1350,824.6094 L1350,823.6719 L1350,822.7344 L1351.2891,821.1719 L1352.5,821.1719 L1367.5,821.1719 L1368.7109,821.1719 L1370,822.7344 L1370,823.6719 L1370,824.6094 L1368.7109,826.1719 L1367.5,826.1719 L1362.5,826.1719 Z " fill="#000000"/><ellipse cx="1407.5" cy="832.4219" fill="#84BE84" rx="7.5" ry="7.5" style="stroke:#038048;stroke-width:2.5;"/><text fill="#000000" font-family="sans-serif" font-size="30" font-style="italic" lengthAdjust="spacing" textLength="132.5" x="1422.5" y="845.9473">xxxPlugin</text><line style="stroke:#D4AC0D;stroke-width:3.75;" x1="1325" x2="1560" y1="873.6719" y2="873.6719"/><text fill="#000000" font-family="sans-serif" font-size="27.5" lengthAdjust="spacing" textLength="22.5" x="1337.5" y="912.2192">...</text><line style="stroke:#D4AC0D;stroke-width:3.75;" x1="1325" x2="1560" y1="928.2617" y2="928.2617"/><!--MD5=[03f21e7ee5cc95940abd9e7870696a6e]
class xxxReader--><rect codeLine="84" fill="#FEFECE" height="154.5898" id="xxxReader" style="stroke:#D4AC0D;stroke-width:3.75;" width="255" x="1650" y="793.6719"/><ellipse cx="1687.5" cy="833.6719" fill="#B4A7E5" rx="27.5" ry="27.5" style="stroke:#B4A7E5;stroke-width:2.5;"/><path d="M1690,826.1719 L1690,841.1719 L1695,841.1719 L1696.2109,841.1719 L1697.5,842.7344 L1697.5,843.6719 L1697.5,844.6094 L1696.2109,846.1719 L1695,846.1719 L1680,846.1719 L1678.7891,846.1719 L1677.5,844.6094 L1677.5,843.6719 L1677.5,842.7344 L1678.7891,841.1719 L1680,841.1719 L1685,841.1719 L1685,826.1719 L1680,826.1719 L1678.7891,826.1719 L1677.5,824.6094 L1677.5,823.6719 L1677.5,822.7344 L1678.7891,821.1719 L1680,821.1719 L1695,821.1719 L1696.2109,821.1719 L1697.5,822.7344 L1697.5,823.6719 L1697.5,824.6094 L1696.2109,826.1719 L1695,826.1719 L1690,826.1719 Z " fill="#000000"/><ellipse cx="1735" cy="832.4219" fill="#84BE84" rx="7.5" ry="7.5" style="stroke:#038048;stroke-width:2.5;"/><text fill="#000000" font-family="sans-serif" font-size="30" font-style="italic" lengthAdjust="spacing" textLength="147.5" x="1750" y="845.9473">xxxReader</text><line style="stroke:#D4AC0D;stroke-width:3.75;" x1="1652.5" x2="1902.5" y1="873.6719" y2="873.6719"/><text fill="#000000" font-family="sans-serif" font-size="27.5" lengthAdjust="spacing" textLength="22.5" x="1665" y="912.2192">...</text><line style="stroke:#D4AC0D;stroke-width:3.75;" x1="1652.5" x2="1902.5" y1="928.2617" y2="928.2617"/><!--MD5=[d53123d7850983a38423ef8749767f29]
class xxxPluginFactoryAdapter--><rect codeLine="120" fill="#EBF5FB" height="154.5898" id="xxxPluginFactoryAdapter" style="stroke:#3498DB;stroke-width:3.75;" width="515" x="370" y="1101.1719"/><ellipse cx="407.5" cy="1141.1719" fill="#ADD1B2" rx="27.5" ry="27.5" style="stroke:#ADD1B2;stroke-width:2.5;"/><path d="M412.5,1132.4219 Q413.0078,1131.1719 413.5938,1130.5469 Q414.1797,1129.9219 414.8438,1129.9219 Q416.0156,1129.9219 416.7578,1130.625 Q417.5,1131.3281 417.5,1132.9688 L417.5,1136.875 Q417.5,1138.5156 416.7969,1139.2188 Q416.0938,1139.9219 415,1139.9219 Q414.0234,1139.9219 413.3984,1139.4922 Q412.7734,1139.0625 412.5,1137.9297 Q412.3828,1137.1484 411.9531,1136.7188 Q411.1719,1135.8984 409.7656,1135.4297 Q408.3594,1134.9219 406.9531,1134.9219 Q405.1953,1134.9219 403.7109,1135.625 Q402.2656,1136.3281 401.1328,1137.8906 Q400,1139.4531 400,1141.6016 L400,1143.9063 Q400,1146.4844 402.1094,1148.2031 Q404.2188,1149.9219 407.9688,1149.9219 Q410.1953,1149.9219 411.7578,1149.4141 Q412.6563,1149.1406 413.6719,1148.2422 Q414.3359,1147.7344 414.6875,1147.5781 Q415.0391,1147.4219 415.4688,1147.4219 Q416.2891,1147.4219 416.875,1148.0859 Q417.5,1148.7109 417.5,1149.6094 Q417.5,1150.4688 416.6406,1151.4844 Q415.3906,1152.9688 413.3984,1153.7891 Q410.7813,1154.9219 407.5781,1154.9219 Q403.8281,1154.9219 400.8203,1153.4375 Q398.3984,1152.2656 396.6797,1149.7266 Q395,1147.1875 395,1144.1797 L395,1141.4453 Q395,1138.3203 396.4844,1135.5859 Q398.0078,1132.8516 400.625,1131.4063 Q403.2813,1129.9219 406.25,1129.9219 Q408.0469,1129.9219 409.6094,1130.5469 Q411.1719,1131.1719 412.5,1132.4219 Z " fill="#000000"/><polygon fill="#4177AF" points="455,1129.9219,445,1144.9219,465,1144.9219" style="stroke:#1963A0;stroke-width:2.5;"/><text fill="#000000" font-family="sans-serif" font-size="30" font-style="italic" font-weight="bold" lengthAdjust="spacing" textLength="60" x="470" y="1153.4473">final</text><text fill="#000000" font-family="sans-serif" font-size="30" font-style="italic" lengthAdjust="spacing" textLength="340" x="537.5" y="1153.4473">xxxPluginFactoryAdapter</text><line style="stroke:#3498DB;stroke-width:3.75;" x1="372.5" x2="882.5" y1="1181.1719" y2="1181.1719"/><text fill="#000000" font-family="sans-serif" font-size="27.5" lengthAdjust="spacing" textLength="22.5" x="385" y="1219.7192">...</text><line style="stroke:#3498DB;stroke-width:3.75;" x1="372.5" x2="882.5" y1="1235.7617" y2="1235.7617"/><!--MD5=[8ece71be35db894bbdb7ce101967af56]
class xxxPluginAdapter--><rect codeLine="119" fill="#EBF5FB" height="154.5898" id="xxxPluginAdapter" style="stroke:#3498DB;stroke-width:3.75;" width="415" x="972.5" y="1101.1719"/><ellipse cx="1010" cy="1141.1719" fill="#ADD1B2" rx="27.5" ry="27.5" style="stroke:#ADD1B2;stroke-width:2.5;"/><path d="M1015,1132.4219 Q1015.5078,1131.1719 1016.0938,1130.5469 Q1016.6797,1129.9219 1017.3438,1129.9219 Q1018.5156,1129.9219 1019.2578,1130.625 Q1020,1131.3281 1020,1132.9688 L1020,1136.875 Q1020,1138.5156 1019.2969,1139.2188 Q1018.5938,1139.9219 1017.5,1139.9219 Q1016.5234,1139.9219 1015.8984,1139.4922 Q1015.2734,1139.0625 1015,1137.9297 Q1014.8828,1137.1484 1014.4531,1136.7188 Q1013.6719,1135.8984 1012.2656,1135.4297 Q1010.8594,1134.9219 1009.4531,1134.9219 Q1007.6953,1134.9219 1006.2109,1135.625 Q1004.7656,1136.3281 1003.6328,1137.8906 Q1002.5,1139.4531 1002.5,1141.6016 L1002.5,1143.9063 Q1002.5,1146.4844 1004.6094,1148.2031 Q1006.7188,1149.9219 1010.4688,1149.9219 Q1012.6953,1149.9219 1014.2578,1149.4141 Q1015.1563,1149.1406 1016.1719,1148.2422 Q1016.8359,1147.7344 1017.1875,1147.5781 Q1017.5391,1147.4219 1017.9688,1147.4219 Q1018.7891,1147.4219 1019.375,1148.0859 Q1020,1148.7109 1020,1149.6094 Q1020,1150.4688 1019.1406,1151.4844 Q1017.8906,1152.9688 1015.8984,1153.7891 Q1013.2813,1154.9219 1010.0781,1154.9219 Q1006.3281,1154.9219 1003.3203,1153.4375 Q1000.8984,1152.2656 999.1797,1149.7266 Q997.5,1147.1875 997.5,1144.1797 L997.5,1141.4453 Q997.5,1138.3203 998.9844,1135.5859 Q1000.5078,1132.8516 1003.125,1131.4063 Q1005.7813,1129.9219 1008.75,1129.9219 Q1010.5469,1129.9219 1012.1094,1130.5469 Q1013.6719,1131.1719 1015,1132.4219 Z " fill="#000000"/><polygon fill="#4177AF" points="1057.5,1129.9219,1047.5,1144.9219,1067.5,1144.9219" style="stroke:#1963A0;stroke-width:2.5;"/><text fill="#000000" font-family="sans-serif" font-size="30" font-style="italic" font-weight="bold" lengthAdjust="spacing" textLength="60" x="1072.5" y="1153.4473">final</text><text fill="#000000" font-family="sans-serif" font-size="30" font-style="italic" lengthAdjust="spacing" textLength="240" x="1140" y="1153.4473">xxxPluginAdapter</text><line style="stroke:#3498DB;stroke-width:3.75;" x1="975" x2="1385" y1="1181.1719" y2="1181.1719"/><text fill="#000000" font-family="sans-serif" font-size="27.5" lengthAdjust="spacing" textLength="22.5" x="987.5" y="1219.7192">...</text><line style="stroke:#3498DB;stroke-width:3.75;" x1="975" x2="1385" y1="1235.7617" y2="1235.7617"/><!--MD5=[07c06fae09c9cf5c6584283f7934f2e9]
class xxxReaderAdapter--><rect codeLine="118" fill="#EBF5FB" height="154.5898" id="xxxReaderAdapter" style="stroke:#3498DB;stroke-width:3.75;" width="430" x="1475" y="1101.1719"/><ellipse cx="1512.5" cy="1141.1719" fill="#ADD1B2" rx="27.5" ry="27.5" style="stroke:#ADD1B2;stroke-width:2.5;"/><path d="M1517.5,1132.4219 Q1518.0078,1131.1719 1518.5938,1130.5469 Q1519.1797,1129.9219 1519.8438,1129.9219 Q1521.0156,1129.9219 1521.7578,1130.625 Q1522.5,1131.3281 1522.5,1132.9688 L1522.5,1136.875 Q1522.5,1138.5156 1521.7969,1139.2188 Q1521.0938,1139.9219 1520,1139.9219 Q1519.0234,1139.9219 1518.3984,1139.4922 Q1517.7734,1139.0625 1517.5,1137.9297 Q1517.3828,1137.1484 1516.9531,1136.7188 Q1516.1719,1135.8984 1514.7656,1135.4297 Q1513.3594,1134.9219 1511.9531,1134.9219 Q1510.1953,1134.9219 1508.7109,1135.625 Q1507.2656,1136.3281 1506.1328,1137.8906 Q1505,1139.4531 1505,1141.6016 L1505,1143.9063 Q1505,1146.4844 1507.1094,1148.2031 Q1509.2188,1149.9219 1512.9688,1149.9219 Q1515.1953,1149.9219 1516.7578,1149.4141 Q1517.6563,1149.1406 1518.6719,1148.2422 Q1519.3359,1147.7344 1519.6875,1147.5781 Q1520.0391,1147.4219 1520.4688,1147.4219 Q1521.2891,1147.4219 1521.875,1148.0859 Q1522.5,1148.7109 1522.5,1149.6094 Q1522.5,1150.4688 1521.6406,1151.4844 Q1520.3906,1152.9688 1518.3984,1153.7891 Q1515.7813,1154.9219 1512.5781,1154.9219 Q1508.8281,1154.9219 1505.8203,1153.4375 Q1503.3984,1152.2656 1501.6797,1149.7266 Q1500,1147.1875 1500,1144.1797 L1500,1141.4453 Q1500,1138.3203 1501.4844,1135.5859 Q1503.0078,1132.8516 1505.625,1131.4063 Q1508.2813,1129.9219 1511.25,1129.9219 Q1513.0469,1129.9219 1514.6094,1130.5469 Q1516.1719,1131.1719 1517.5,1132.4219 Z " fill="#000000"/><polygon fill="#4177AF" points="1560,1129.9219,1550,1144.9219,1570,1144.9219" style="stroke:#1963A0;stroke-width:2.5;"/><text fill="#000000" font-family="sans-serif" font-size="30" font-style="italic" font-weight="bold" lengthAdjust="spacing" textLength="60" x="1575" y="1153.4473">final</text><text fill="#000000" font-family="sans-serif" font-size="30" font-style="italic" lengthAdjust="spacing" textLength="255" x="1642.5" y="1153.4473">xxxReaderAdapter</text><line style="stroke:#3498DB;stroke-width:3.75;" x1="1477.5" x2="1902.5" y1="1181.1719" y2="1181.1719"/><text fill="#000000" font-family="sans-serif" font-size="27.5" lengthAdjust="spacing" textLength="22.5" x="1490" y="1219.7192">...</text><line style="stroke:#3498DB;stroke-width:3.75;" x1="1477.5" x2="1902.5" y1="1235.7617" y2="1235.7617"/><!--MD5=[a197c206781717b4a594300115978dc2]
reverse link KeyplePluginExtensionFactory to xxxPluginFactory--><path d="M888.74,546.4769 C930.3875,622.6044 986.19,724.6119 1023.7575,793.2819 " fill="none" id="KeyplePluginExtensionFactory-backto-xxxPluginFactory" style="stroke:#A80036;stroke-width:2.5;"/><polygon fill="none" points="872.985,554.1394,864.34,501.8744,903.69,537.3419,872.985,554.1394" style="stroke:#A80036;stroke-width:2.5;"/><!--MD5=[1feb98c6a67c5603dfb07d8bcca8af5c]
reverse link KeyplePluginExtension to xxxPlugin--><path d="M1407.1,551.9319 C1415.5375,627.4194 1426.58,726.2394 1434.075,793.2819 " fill="none" id="KeyplePluginExtension-backto-xxxPlugin" style="stroke:#A80036;stroke-width:2.5;"/><polygon fill="none" points="1389.6675,553.5094,1401.505,501.8744,1424.45,549.6219,1389.6675,553.5094" style="stroke:#A80036;stroke-width:2.5;"/><!--MD5=[0ab2d561ae8ab1eb55d58fc9385da973]
reverse link KeypleReaderExtension to xxxReader--><path d="M1880.685,549.7394 C1856.1725,625.4994 1823.7925,725.5869 1801.89,793.2819 " fill="none" id="KeypleReaderExtension-backto-xxxReader" style="stroke:#A80036;stroke-width:2.5;"/><polygon fill="none" points="1864.1275,544.0594,1896.17,501.8744,1897.4275,554.8344,1864.1275,544.0594" style="stroke:#A80036;stroke-width:2.5;"/><!--MD5=[a6f494627ac1f6d160b993f842e395ad]
reverse link xxxPluginFactory to xxxPluginFactoryAdapter--><path d="M914.59,977.6694 C855.9425,1018.2194 790.0125,1063.8069 736.135,1101.0569 " fill="none" id="xxxPluginFactory-backto-xxxPluginFactoryAdapter" style="stroke:#A80036;stroke-width:2.5;stroke-dasharray:7.0,7.0;"/><polygon fill="none" points="904.65,963.2669,955.73,949.2244,924.555,992.0544,904.65,963.2669" style="stroke:#A80036;stroke-width:2.5;"/><!--MD5=[853d2f65f74c05f03e15538723aac8c7]
reverse link RemotePluginFactorySpi to xxxPluginFactoryAdapter--><path d="M644.3175,1458.9669 C648.8925,1431.8419 651.5525,1403.1794 650,1376.1719 C647.73,1336.7069 642.8975,1292.9669 638.2925,1256.9319 " fill="none" id="RemotePluginFactorySpi-backto-xxxPluginFactoryAdapter" style="stroke:#A80036;stroke-width:2.5;stroke-dasharray:7.0,7.0;"/><polygon fill="none" points="661.32,1463.1494,633.765,1508.3936,627.09,1455.8419,661.32,1463.1494" style="stroke:#A80036;stroke-width:2.5;"/><!--MD5=[56f8be8360d3a9cf41ab28f3b669e0f5]
link xxxPluginFactoryAdapter to RemotePluginFactorySpi--><!--MD5=[271deee5782a9355c6bea53129dbee95]
reverse link xxxPlugin to xxxPluginAdapter--><path d="M1344.11,987.0544 C1311.2275,1024.9494 1275.4,1066.2344 1245.6375,1100.5344 " fill="none" id="xxxPlugin-backto-xxxPluginAdapter" style="stroke:#A80036;stroke-width:2.5;stroke-dasharray:7.0,7.0;"/><polygon fill="none" points="1330.95,975.5194,1376.9375,949.2244,1357.385,998.4594,1330.95,975.5194" style="stroke:#A80036;stroke-width:2.5;"/><!--MD5=[2345b3e92fb0f718c8c2cd1158a606bd]
reverse link AbstractRemotePluginSpi to xxxPluginAdapter--><path d="M1162.82,1457.7519 C1166.915,1391.8594 1171.7875,1313.3794 1175.2975,1256.8794 " fill="none" id="AbstractRemotePluginSpi-backto-xxxPluginAdapter" style="stroke:#A80036;stroke-width:2.5;stroke-dasharray:7.0,7.0;"/><polygon fill="none" points="1180.2475,1459.4844,1159.68,1508.3041,1145.315,1457.3144,1180.2475,1459.4844" style="stroke:#A80036;stroke-width:2.5;"/><!--MD5=[a06bd0e5870ac5031eef70094993f293]
link xxxPluginAdapter to AbstractRemotePluginSpi--><!--MD5=[bc8081b56b498a2c8419014c1c2cae76]
reverse link xxxReader to xxxReaderAdapter--><path d="M1741.565,997.9069 C1731.4975,1032.7094 1720.86,1069.4819 1711.88,1100.5344 " fill="none" id="xxxReader-backto-xxxReaderAdapter" style="stroke:#A80036;stroke-width:2.5;stroke-dasharray:7.0,7.0;"/><polygon fill="none" points="1724.9425,992.3944,1755.645,949.2244,1758.5625,1002.1194,1724.9425,992.3944" style="stroke:#A80036;stroke-width:2.5;"/><!--MD5=[7a5d15de137ab20765148895b700334e]
reverse link RemoteReaderSpi to xxxReaderAdapter--><path d="M1674.5925,1457.2594 C1677.63,1431.3069 1680.4675,1404.1369 1682.5,1378.6719 C1685.7225,1338.3119 1687.5675,1293.1969 1688.62,1256.2844 " fill="none" id="RemoteReaderSpi-backto-xxxReaderAdapter" style="stroke:#A80036;stroke-width:2.5;stroke-dasharray:7.0,7.0;"/><polygon fill="none" points="1691.83,1460.4419,1668.2725,1507.8876,1657.1,1456.1044,1691.83,1460.4419" style="stroke:#A80036;stroke-width:2.5;"/><!--MD5=[6417678a62de6f5d626d04e7d040aa68]
link xxxReaderAdapter to RemoteReaderSpi--><!--MD5=[1d864dc9092778b2b49207ead16ab856]
link xxxPluginFactoryProvider to xxxPluginFactory--><path codeLine="101" d="M671.6975,871.1719 C742.185,871.1719 816.9125,871.1719 882.085,871.1719 " fill="none" id="xxxPluginFactoryProvider-to-xxxPluginFactory" style="stroke:#3498DB;stroke-width:2.5;stroke-dasharray:7.0,7.0;"/><polygon fill="#3498DB" points="894.9875,871.1719,872.4875,861.1719,882.4875,871.1719,872.4875,881.1719,894.9875,871.1719" style="stroke:#3498DB;stroke-width:2.5;"/><polygon fill="#000000" points="739.375,841.6113,716.7623,834.264,716.7623,848.9586,739.375,841.6113" style="stroke:#000000;stroke-width:2.5;"/><text fill="#000000" font-family="sans-serif" font-size="32.5" lengthAdjust="spacing" textLength="100" x="749.375" y="854.9097">provide</text><!--MD5=[f12a7db843c52300ea996d5d7ce2d1a4]
reverse link xxxPluginFactoryAdapter to xxxPluginAdapter--><path codeLine="102" d="M918.445,1178.6719 C936.2,1178.6719 953.9575,1178.6719 971.7125,1178.6719 " fill="none" id="xxxPluginFactoryAdapter-backto-xxxPluginAdapter" style="stroke:#3498DB;stroke-width:2.5;"/><polygon fill="#3498DB" points="885.405,1178.6719,900.405,1188.6719,915.405,1178.6719,900.405,1168.6719,885.405,1178.6719" style="stroke:#3498DB;stroke-width:2.5;"/><text fill="#000000" font-family="sans-serif" font-size="32.5" lengthAdjust="spacing" textLength="17.5" x="934.8826" y="1170.6858">1</text><!--MD5=[bf2e205f614f249ca537db048d149975]
reverse link xxxPluginAdapter to xxxReaderAdapter--><path codeLine="103" d="M1421.13,1178.6719 C1438.8375,1178.6719 1456.5425,1178.6719 1474.2475,1178.6719 " fill="none" id="xxxPluginAdapter-backto-xxxReaderAdapter" style="stroke:#3498DB;stroke-width:2.5;"/><polygon fill="#3498DB" points="1388.1825,1178.6719,1403.1825,1188.6719,1418.1825,1178.6719,1403.1825,1168.6719,1388.1825,1178.6719" style="stroke:#3498DB;stroke-width:2.5;"/><text fill="#000000" font-family="sans-serif" font-size="32.5" lengthAdjust="spacing" textLength="60" x="1394.6641" y="1170.8673">0..N</text><!--MD5=[582bb027a136a6e6186f17ef7f8e0db6]
link commonsApi to specificPluginApi--><!--MD5=[23d9751356d8649ec6af0a99699084ea]
@startuml
title
    Keyple 2.0 - Specific Remote Plugin - 2.0.0 (28/05/2021)
end title

' == THEME ==

'Couleurs issues de : https://htmlcolorcodes.com/fr/tableau-de-couleur/tableau-de-couleur-design-plat/
!define C_GREY1 F8F9F9
!define C_GREY2 F2F3F4
!define C_GREY3 E5E7E9
!define C_GREY4 D7DBDD
!define C_GREY5 CACFD2
!define C_GREY6 BDC3C7
!define C_LINK 3498DB
!define C_USE 27AE60

skinparam Shadowing false
skinparam ClassFontStyle italic
skinparam ClassBorderColor #D4AC0D
skinparam stereotypeABorderColor #A9DCDF
skinparam stereotypeIBorderColor #B4A7E5
skinparam stereotypeCBorderColor #ADD1B2
skinparam stereotypeEBorderColor #EB93DF
' Red
skinparam ClassBackgroundColor<<red>> #FDEDEC
skinparam ClassBorderColor<<red>> #E74C3C
hide <<red>> stereotype
' Purple
skinparam ClassBackgroundColor<<purple>> #F4ECF7
skinparam ClassBorderColor<<purple>> #8E44AD
hide <<purple>> stereotype
' blue
skinparam ClassBackgroundColor<<blue>> #EBF5FB
skinparam ClassBorderColor<<blue>> #3498DB
hide <<blue>> stereotype
' Green
skinparam ClassBackgroundColor<<green>> #E9F7EF
skinparam ClassBorderColor<<green>> #27AE60
hide <<green>> stereotype
' Grey
skinparam ClassBackgroundColor<<grey>> #EAECEE
skinparam ClassBorderColor<<grey>> #2C3E50
hide <<grey>> stereotype

' == CONTENT ==

legend top
    __Colors legend__ :
    * <back:yellow>Public API for end users</back>
    * <back:lightBlue>Private API for internal use only</back>
end legend

package "org.eclipse.keyple.core.common" as commonsApi {
    +interface KeyplePluginExtensionFactory {
    }
    +interface KeyplePluginExtension {
    }
    +interface KeypleReaderExtension {
    }
}

package "org.eclipse.keyple.core.distributed.remote.spi" as pluginSpi {
    +interface RemoteReaderSpi {
        ...
    }
    +interface AbstractRemotePluginSpi {
        ...
    }
    +interface RemotePluginFactorySpi {
        ...
    }
}

package "org.eclipse.keyple.plugin.xxx (specific plugin)" as specificPluginApi {
    +class "**final** xxxPluginFactoryProvider" as xxxPluginFactoryProvider {
        +{static} xxxPluginFactory getFactory ()
    }
    +interface xxxPluginFactory extends KeyplePluginExtensionFactory {
        ...
    }
    +interface xxxPlugin extends KeyplePluginExtension {
        ...
    }
    +interface xxxReader extends KeypleReaderExtension {
        ...
    }
    ' Adapters
    ~class "**final** xxxPluginFactoryAdapter" as xxxPluginFactoryAdapter implements xxxPluginFactory, RemotePluginFactorySpi {
        ...
    }
    ~class "**final** xxxPluginAdapter" as xxxPluginAdapter implements xxxPlugin, AbstractRemotePluginSpi {
        ...
    }
    ~class "**final** xxxReaderAdapter" as xxxReaderAdapter implements xxxReader, RemoteReaderSpi {
        ...
    }
}

' Associations

xxxPluginFactoryProvider .> xxxPluginFactory #C_LINK : provide >
xxxPluginFactoryAdapter *- "1" xxxPluginAdapter #C_LINK
xxxPluginAdapter *- "0..N" xxxReaderAdapter #C_LINK

' == LAYOUT ==

commonsApi -[hidden]- specificPluginApi
xxxReaderAdapter -[hidden]- RemoteReaderSpi
xxxPluginAdapter -[hidden]- AbstractRemotePluginSpi
xxxPluginFactoryAdapter -[hidden]- RemotePluginFactorySpi

' == STYLE ==

package commonsApi #C_GREY1 {}
package pluginSpi #C_GREY1 {}
package specificPluginApi #C_GREY1 {}

class xxxReaderAdapter <<blue>>
class xxxPluginAdapter <<blue>>
class xxxPluginFactoryAdapter <<blue>>
interface RemoteReaderSpi <<blue>>
interface AbstractRemotePluginSpi <<blue>>
interface RemotePluginFactorySpi <<blue>>

@enduml

@startuml
title
    Keyple 2.0 - Specific Remote Plugin - 2.0.0 (28/05/2021)
end title



skinparam Shadowing false
skinparam ClassFontStyle italic
skinparam ClassBorderColor #D4AC0D
skinparam stereotypeABorderColor #A9DCDF
skinparam stereotypeIBorderColor #B4A7E5
skinparam stereotypeCBorderColor #ADD1B2
skinparam stereotypeEBorderColor #EB93DF
skinparam ClassBackgroundColor<<red>> #FDEDEC
skinparam ClassBorderColor<<red>> #E74C3C
hide <<red>> stereotype
skinparam ClassBackgroundColor<<purple>> #F4ECF7
skinparam ClassBorderColor<<purple>> #8E44AD
hide <<purple>> stereotype
skinparam ClassBackgroundColor<<blue>> #EBF5FB
skinparam ClassBorderColor<<blue>> #3498DB
hide <<blue>> stereotype
skinparam ClassBackgroundColor<<green>> #E9F7EF
skinparam ClassBorderColor<<green>> #27AE60
hide <<green>> stereotype
skinparam ClassBackgroundColor<<grey>> #EAECEE
skinparam ClassBorderColor<<grey>> #2C3E50
hide <<grey>> stereotype


legend top
    __Colors legend__ :
    * <back:yellow>Public API for end users</back>
    * <back:lightBlue>Private API for internal use only</back>
end legend

package "org.eclipse.keyple.core.common" as commonsApi {
    +interface KeyplePluginExtensionFactory {
    }
    +interface KeyplePluginExtension {
    }
    +interface KeypleReaderExtension {
    }
}

package "org.eclipse.keyple.core.distributed.remote.spi" as pluginSpi {
    +interface RemoteReaderSpi {
        ...
    }
    +interface AbstractRemotePluginSpi {
        ...
    }
    +interface RemotePluginFactorySpi {
        ...
    }
}

package "org.eclipse.keyple.plugin.xxx (specific plugin)" as specificPluginApi {
    +class "**final** xxxPluginFactoryProvider" as xxxPluginFactoryProvider {
        +{static} xxxPluginFactory getFactory ()
    }
    +interface xxxPluginFactory extends KeyplePluginExtensionFactory {
        ...
    }
    +interface xxxPlugin extends KeyplePluginExtension {
        ...
    }
    +interface xxxReader extends KeypleReaderExtension {
        ...
    }
    ~class "**final** xxxPluginFactoryAdapter" as xxxPluginFactoryAdapter implements xxxPluginFactory, RemotePluginFactorySpi {
        ...
    }
    ~class "**final** xxxPluginAdapter" as xxxPluginAdapter implements xxxPlugin, AbstractRemotePluginSpi {
        ...
    }
    ~class "**final** xxxReaderAdapter" as xxxReaderAdapter implements xxxReader, RemoteReaderSpi {
        ...
    }
}


xxxPluginFactoryProvider .> xxxPluginFactory #3498DB : provide >
xxxPluginFactoryAdapter *- "1" xxxPluginAdapter #3498DB
xxxPluginAdapter *- "0..N" xxxReaderAdapter #3498DB


commonsApi -[hidden]- specificPluginApi
xxxReaderAdapter -[hidden]- RemoteReaderSpi
xxxPluginAdapter -[hidden]- AbstractRemotePluginSpi
xxxPluginFactoryAdapter -[hidden]- RemotePluginFactorySpi


package commonsApi #F8F9F9 {}
package pluginSpi #F8F9F9 {}
package specificPluginApi #F8F9F9 {}

class xxxReaderAdapter <<blue>>
class xxxPluginAdapter <<blue>>
class xxxPluginFactoryAdapter <<blue>>
interface RemoteReaderSpi <<blue>>
interface AbstractRemotePluginSpi <<blue>>
interface RemotePluginFactorySpi <<blue>>

@enduml

PlantUML version 1.2021.7(Sun May 23 14:40:07 CEST 2021)
(GPL source distribution)
Java Runtime: OpenJDK Runtime Environment
JVM: Dynamic Code Evolution 64-Bit Server VM
Default Encoding: Cp1252
Language: fr
Country: FR
--></g></svg>