<?xml version="1.0" encoding="UTF-8" standalone="no"?><svg xmlns="http://www.w3.org/2000/svg" xmlns:xlink="http://www.w3.org/1999/xlink" contentScriptType="application/ecmascript" contentStyleType="text/css" height="1095px" preserveAspectRatio="none" style="width:3090px;height:1095px;" version="1.1" viewBox="0 0 3090 1095" width="3090px" zoomAndPan="magnify"><defs/><g><text fill="#000000" font-family="sans-serif" font-size="54" lengthAdjust="spacing" textLength="1356" x="847.5" y="56.0566">Keyple 2.0 - keyple-java-commons-api - 2.0 (28/04/2021)</text><!--MD5=[7442f3b126ee602ae02566c1a49e158a]
cluster api--><polygon fill="#F8F9F9" points="48,85.9219,750,85.9219,771,156.75,3039,156.75,3039,1075.9219,48,1075.9219,48,85.9219" style="stroke:#000000;stroke-width:4.5;"/><line style="stroke:#000000;stroke-width:4.5;" x1="48" x2="771" y1="156.75" y2="156.75"/><text fill="#000000" font-family="sans-serif" font-size="42" font-weight="bold" lengthAdjust="spacing" textLength="684" x="60" y="135.5215">org.eclipse.keyple.core.common</text><!--MD5=[120218adfd8782b0057db0a1b8294250]
class ApiProperties--><rect codeLine="48" fill="#FEFECE" height="185.5078" id="ApiProperties" style="stroke:#D4AC0D;stroke-width:4.5;" width="606" x="96" y="193.9219"/><ellipse cx="141" cy="241.9219" fill="#ADD1B2" rx="33" ry="33" style="stroke:#ADD1B2;stroke-width:3.0;"/><path d="M147,231.4219 Q147.6094,229.9219 148.3125,229.1719 Q149.0156,228.4219 149.8125,228.4219 Q151.2188,228.4219 152.1094,229.2656 Q153,230.1094 153,232.0781 L153,236.7656 Q153,238.7344 152.1563,239.5781 Q151.3125,240.4219 150,240.4219 Q148.8281,240.4219 148.0781,239.9063 Q147.3281,239.3906 147,238.0313 Q146.8594,237.0938 146.3438,236.5781 Q145.4063,235.5938 143.7188,235.0313 Q142.0313,234.4219 140.3438,234.4219 Q138.2344,234.4219 136.4531,235.2656 Q134.7188,236.1094 133.3594,237.9844 Q132,239.8594 132,242.4375 L132,245.2031 Q132,248.2969 134.5313,250.3594 Q137.0625,252.4219 141.5625,252.4219 Q144.2344,252.4219 146.1094,251.8125 Q147.1875,251.4844 148.4063,250.4063 Q149.2031,249.7969 149.625,249.6094 Q150.0469,249.4219 150.5625,249.4219 Q151.5469,249.4219 152.25,250.2188 Q153,250.9688 153,252.0469 Q153,253.0781 151.9688,254.2969 Q150.4688,256.0781 148.0781,257.0625 Q144.9375,258.4219 141.0938,258.4219 Q136.5938,258.4219 132.9844,256.6406 Q130.0781,255.2344 128.0156,252.1875 Q126,249.1406 126,245.5313 L126,242.25 Q126,238.5 127.7813,235.2188 Q129.6094,231.9375 132.75,230.2031 Q135.9375,228.4219 139.5,228.4219 Q141.6563,228.4219 143.5313,229.1719 Q145.4063,229.9219 147,231.4219 Z " fill="#000000"/><ellipse cx="198" cy="240.4219" fill="#84BE84" rx="9" ry="9" style="stroke:#038048;stroke-width:3.0;"/><text fill="#000000" font-family="sans-serif" font-size="36" font-style="italic" font-weight="bold" lengthAdjust="spacing" textLength="72" x="216" y="256.6523">final</text><text fill="#000000" font-family="sans-serif" font-size="36" font-style="italic" lengthAdjust="spacing" textLength="396" x="297" y="256.6523">CommonsApiProperties</text><line style="stroke:#D4AC0D;stroke-width:4.5;" x1="99" x2="699" y1="289.9219" y2="289.9219"/><ellipse cx="129" cy="322.9219" rx="9" ry="9" style="stroke:#038048;stroke-width:3.0;fill:none;"/><text fill="#000000" font-family="sans-serif" font-size="33" font-weight="bold" lengthAdjust="spacing" text-decoration="underline" textLength="69" x="156" y="336.1787">final</text><text fill="#000000" font-family="sans-serif" font-size="33" lengthAdjust="spacing" text-decoration="underline" textLength="228" x="234" y="336.1787">String VERSION</text><line style="stroke:#D4AC0D;stroke-width:4.5;" x1="99" x2="699" y1="355.4297" y2="355.4297"/><!--MD5=[c9fcbc22b46e6fe8dd529abbe4ed4a83]
class KeyplePluginExtensionFactory--><rect codeLine="51" fill="#FEFECE" height="144" id="KeyplePluginExtensionFactory" style="stroke:#D4AC0D;stroke-width:4.5;" width="630" x="807" y="214.9219"/><ellipse cx="852" cy="262.9219" fill="#B4A7E5" rx="33" ry="33" style="stroke:#B4A7E5;stroke-width:3.0;"/><path d="M855,253.9219 L855,271.9219 L861,271.9219 L862.4531,271.9219 L864,273.7969 L864,274.9219 L864,276.0469 L862.4531,277.9219 L861,277.9219 L843,277.9219 L841.5469,277.9219 L840,276.0469 L840,274.9219 L840,273.7969 L841.5469,271.9219 L843,271.9219 L849,271.9219 L849,253.9219 L843,253.9219 L841.5469,253.9219 L840,252.0469 L840,250.9219 L840,249.7969 L841.5469,247.9219 L843,247.9219 L861,247.9219 L862.4531,247.9219 L864,249.7969 L864,250.9219 L864,252.0469 L862.4531,253.9219 L861,253.9219 L855,253.9219 Z " fill="#000000"/><ellipse cx="909" cy="261.4219" fill="#84BE84" rx="9" ry="9" style="stroke:#038048;stroke-width:3.0;"/><text fill="#000000" font-family="sans-serif" font-size="36" font-style="italic" lengthAdjust="spacing" textLength="501" x="927" y="277.6523">KeyplePluginExtensionFactory</text><line style="stroke:#D4AC0D;stroke-width:4.5;" x1="810" x2="1434" y1="310.9219" y2="310.9219"/><line style="stroke:#D4AC0D;stroke-width:4.5;" x1="810" x2="1434" y1="334.9219" y2="334.9219"/><!--MD5=[afffbc881b1d922900a05d5f1575661b]
class KeyplePluginExtension--><rect codeLine="53" fill="#FEFECE" height="144" id="KeyplePluginExtension" style="stroke:#D4AC0D;stroke-width:4.5;" width="510" x="1542" y="214.9219"/><ellipse cx="1587" cy="262.9219" fill="#B4A7E5" rx="33" ry="33" style="stroke:#B4A7E5;stroke-width:3.0;"/><path d="M1590,253.9219 L1590,271.9219 L1596,271.9219 L1597.4531,271.9219 L1599,273.7969 L1599,274.9219 L1599,276.0469 L1597.4531,277.9219 L1596,277.9219 L1578,277.9219 L1576.5469,277.9219 L1575,276.0469 L1575,274.9219 L1575,273.7969 L1576.5469,271.9219 L1578,271.9219 L1584,271.9219 L1584,253.9219 L1578,253.9219 L1576.5469,253.9219 L1575,252.0469 L1575,250.9219 L1575,249.7969 L1576.5469,247.9219 L1578,247.9219 L1596,247.9219 L1597.4531,247.9219 L1599,249.7969 L1599,250.9219 L1599,252.0469 L1597.4531,253.9219 L1596,253.9219 L1590,253.9219 Z " fill="#000000"/><ellipse cx="1644" cy="261.4219" fill="#84BE84" rx="9" ry="9" style="stroke:#038048;stroke-width:3.0;"/><text fill="#000000" font-family="sans-serif" font-size="36" font-style="italic" lengthAdjust="spacing" textLength="381" x="1662" y="277.6523">KeyplePluginExtension</text><line style="stroke:#D4AC0D;stroke-width:4.5;" x1="1545" x2="2049" y1="310.9219" y2="310.9219"/><line style="stroke:#D4AC0D;stroke-width:4.5;" x1="1545" x2="2049" y1="334.9219" y2="334.9219"/><!--MD5=[d0367e54e30269e1f6406d1a6d3c359c]
class KeypleReaderExtension--><rect codeLine="55" fill="#FEFECE" height="144" id="KeypleReaderExtension" style="stroke:#D4AC0D;stroke-width:4.5;" width="528" x="2157" y="214.9219"/><ellipse cx="2202" cy="262.9219" fill="#B4A7E5" rx="33" ry="33" style="stroke:#B4A7E5;stroke-width:3.0;"/><path d="M2205,253.9219 L2205,271.9219 L2211,271.9219 L2212.4531,271.9219 L2214,273.7969 L2214,274.9219 L2214,276.0469 L2212.4531,277.9219 L2211,277.9219 L2193,277.9219 L2191.5469,277.9219 L2190,276.0469 L2190,274.9219 L2190,273.7969 L2191.5469,271.9219 L2193,271.9219 L2199,271.9219 L2199,253.9219 L2193,253.9219 L2191.5469,253.9219 L2190,252.0469 L2190,250.9219 L2190,249.7969 L2191.5469,247.9219 L2193,247.9219 L2211,247.9219 L2212.4531,247.9219 L2214,249.7969 L2214,250.9219 L2214,252.0469 L2212.4531,253.9219 L2211,253.9219 L2205,253.9219 Z " fill="#000000"/><ellipse cx="2259" cy="261.4219" fill="#84BE84" rx="9" ry="9" style="stroke:#038048;stroke-width:3.0;"/><text fill="#000000" font-family="sans-serif" font-size="36" font-style="italic" lengthAdjust="spacing" textLength="399" x="2277" y="277.6523">KeypleReaderExtension</text><line style="stroke:#D4AC0D;stroke-width:4.5;" x1="2160" x2="2682" y1="310.9219" y2="310.9219"/><line style="stroke:#D4AC0D;stroke-width:4.5;" x1="2160" x2="2682" y1="334.9219" y2="334.9219"/><!--MD5=[beb44669502072071023f5a0a635d64f]
class KeypleSmartCard--><rect codeLine="57" fill="#FEFECE" height="144" id="KeypleSmartCard" style="stroke:#D4AC0D;stroke-width:4.5;" width="423" x="97.5" y="559.9219"/><ellipse cx="142.5" cy="607.9219" fill="#B4A7E5" rx="33" ry="33" style="stroke:#B4A7E5;stroke-width:3.0;"/><path d="M145.5,598.9219 L145.5,616.9219 L151.5,616.9219 L152.9531,616.9219 L154.5,618.7969 L154.5,619.9219 L154.5,621.0469 L152.9531,622.9219 L151.5,622.9219 L133.5,622.9219 L132.0469,622.9219 L130.5,621.0469 L130.5,619.9219 L130.5,618.7969 L132.0469,616.9219 L133.5,616.9219 L139.5,616.9219 L139.5,598.9219 L133.5,598.9219 L132.0469,598.9219 L130.5,597.0469 L130.5,595.9219 L130.5,594.7969 L132.0469,592.9219 L133.5,592.9219 L151.5,592.9219 L152.9531,592.9219 L154.5,594.7969 L154.5,595.9219 L154.5,597.0469 L152.9531,598.9219 L151.5,598.9219 L145.5,598.9219 Z " fill="#000000"/><ellipse cx="199.5" cy="606.4219" fill="#84BE84" rx="9" ry="9" style="stroke:#038048;stroke-width:3.0;"/><text fill="#000000" font-family="sans-serif" font-size="36" font-style="italic" lengthAdjust="spacing" textLength="294" x="217.5" y="622.6523">KeypleSmartCard</text><line style="stroke:#D4AC0D;stroke-width:4.5;" x1="100.5" x2="517.5" y1="655.9219" y2="655.9219"/><line style="stroke:#D4AC0D;stroke-width:4.5;" x1="100.5" x2="517.5" y1="679.9219" y2="679.9219"/><!--MD5=[93835d7ffcf6a3787bfc7eb02bc099b1]
class KeypleCardExtension--><rect codeLine="59" fill="#FEFECE" height="144" id="KeypleCardExtension" style="stroke:#D4AC0D;stroke-width:4.5;" width="486" x="627" y="559.9219"/><ellipse cx="672" cy="607.9219" fill="#B4A7E5" rx="33" ry="33" style="stroke:#B4A7E5;stroke-width:3.0;"/><path d="M675,598.9219 L675,616.9219 L681,616.9219 L682.4531,616.9219 L684,618.7969 L684,619.9219 L684,621.0469 L682.4531,622.9219 L681,622.9219 L663,622.9219 L661.5469,622.9219 L660,621.0469 L660,619.9219 L660,618.7969 L661.5469,616.9219 L663,616.9219 L669,616.9219 L669,598.9219 L663,598.9219 L661.5469,598.9219 L660,597.0469 L660,595.9219 L660,594.7969 L661.5469,592.9219 L663,592.9219 L681,592.9219 L682.4531,592.9219 L684,594.7969 L684,595.9219 L684,597.0469 L682.4531,598.9219 L681,598.9219 L675,598.9219 Z " fill="#000000"/><ellipse cx="729" cy="606.4219" fill="#84BE84" rx="9" ry="9" style="stroke:#038048;stroke-width:3.0;"/><text fill="#000000" font-family="sans-serif" font-size="36" font-style="italic" lengthAdjust="spacing" textLength="357" x="747" y="622.6523">KeypleCardExtension</text><line style="stroke:#D4AC0D;stroke-width:4.5;" x1="630" x2="1110" y1="655.9219" y2="655.9219"/><line style="stroke:#D4AC0D;stroke-width:4.5;" x1="630" x2="1110" y1="679.9219" y2="679.9219"/><!--MD5=[c2d32fe8441dbc20026bf98036040c09]
class KeypleCardResourceProfileExtension--><rect codeLine="61" fill="#FEFECE" height="144" id="KeypleCardResourceProfileExtension" style="stroke:#D4AC0D;stroke-width:4.5;" width="750" x="1218" y="559.9219"/><ellipse cx="1263" cy="607.9219" fill="#B4A7E5" rx="33" ry="33" style="stroke:#B4A7E5;stroke-width:3.0;"/><path d="M1266,598.9219 L1266,616.9219 L1272,616.9219 L1273.4531,616.9219 L1275,618.7969 L1275,619.9219 L1275,621.0469 L1273.4531,622.9219 L1272,622.9219 L1254,622.9219 L1252.5469,622.9219 L1251,621.0469 L1251,619.9219 L1251,618.7969 L1252.5469,616.9219 L1254,616.9219 L1260,616.9219 L1260,598.9219 L1254,598.9219 L1252.5469,598.9219 L1251,597.0469 L1251,595.9219 L1251,594.7969 L1252.5469,592.9219 L1254,592.9219 L1272,592.9219 L1273.4531,592.9219 L1275,594.7969 L1275,595.9219 L1275,597.0469 L1273.4531,598.9219 L1272,598.9219 L1266,598.9219 Z " fill="#000000"/><ellipse cx="1320" cy="606.4219" fill="#84BE84" rx="9" ry="9" style="stroke:#038048;stroke-width:3.0;"/><text fill="#000000" font-family="sans-serif" font-size="36" font-style="italic" lengthAdjust="spacing" textLength="621" x="1338" y="622.6523">KeypleCardResourceProfileExtension</text><line style="stroke:#D4AC0D;stroke-width:4.5;" x1="1221" x2="1965" y1="655.9219" y2="655.9219"/><line style="stroke:#D4AC0D;stroke-width:4.5;" x1="1221" x2="1965" y1="679.9219" y2="679.9219"/><!--MD5=[a2300e51c70a09b3b8c0440329c7d6d3]
class KeypleDistributedLocalServiceExtensionFactory--><rect codeLine="63" fill="#FEFECE" height="144" id="KeypleDistributedLocalServiceExtensionFactory" style="stroke:#D4AC0D;stroke-width:4.5;" width="918" x="2073" y="559.9219"/><ellipse cx="2118" cy="607.9219" fill="#B4A7E5" rx="33" ry="33" style="stroke:#B4A7E5;stroke-width:3.0;"/><path d="M2121,598.9219 L2121,616.9219 L2127,616.9219 L2128.4531,616.9219 L2130,618.7969 L2130,619.9219 L2130,621.0469 L2128.4531,622.9219 L2127,622.9219 L2109,622.9219 L2107.5469,622.9219 L2106,621.0469 L2106,619.9219 L2106,618.7969 L2107.5469,616.9219 L2109,616.9219 L2115,616.9219 L2115,598.9219 L2109,598.9219 L2107.5469,598.9219 L2106,597.0469 L2106,595.9219 L2106,594.7969 L2107.5469,592.9219 L2109,592.9219 L2127,592.9219 L2128.4531,592.9219 L2130,594.7969 L2130,595.9219 L2130,597.0469 L2128.4531,598.9219 L2127,598.9219 L2121,598.9219 Z " fill="#000000"/><ellipse cx="2175" cy="606.4219" fill="#84BE84" rx="9" ry="9" style="stroke:#038048;stroke-width:3.0;"/><text fill="#000000" font-family="sans-serif" font-size="36" font-style="italic" lengthAdjust="spacing" textLength="789" x="2193" y="622.6523">KeypleDistributedLocalServiceExtensionFactory</text><line style="stroke:#D4AC0D;stroke-width:4.5;" x1="2076" x2="2988" y1="655.9219" y2="655.9219"/><line style="stroke:#D4AC0D;stroke-width:4.5;" x1="2076" x2="2988" y1="679.9219" y2="679.9219"/><!--MD5=[2756593ddab659782225b53cebc4a27a]
class KeypleDistributedLocalServiceExtension--><rect codeLine="65" fill="#FEFECE" height="144" id="KeypleDistributedLocalServiceExtension" style="stroke:#D4AC0D;stroke-width:4.5;" width="798" x="96" y="883.9219"/><ellipse cx="141" cy="931.9219" fill="#B4A7E5" rx="33" ry="33" style="stroke:#B4A7E5;stroke-width:3.0;"/><path d="M144,922.9219 L144,940.9219 L150,940.9219 L151.4531,940.9219 L153,942.7969 L153,943.9219 L153,945.0469 L151.4531,946.9219 L150,946.9219 L132,946.9219 L130.5469,946.9219 L129,945.0469 L129,943.9219 L129,942.7969 L130.5469,940.9219 L132,940.9219 L138,940.9219 L138,922.9219 L132,922.9219 L130.5469,922.9219 L129,921.0469 L129,919.9219 L129,918.7969 L130.5469,916.9219 L132,916.9219 L150,916.9219 L151.4531,916.9219 L153,918.7969 L153,919.9219 L153,921.0469 L151.4531,922.9219 L150,922.9219 L144,922.9219 Z " fill="#000000"/><ellipse cx="198" cy="930.4219" fill="#84BE84" rx="9" ry="9" style="stroke:#038048;stroke-width:3.0;"/><text fill="#000000" font-family="sans-serif" font-size="36" font-style="italic" lengthAdjust="spacing" textLength="669" x="216" y="946.6523">KeypleDistributedLocalServiceExtension</text><line style="stroke:#D4AC0D;stroke-width:4.5;" x1="99" x2="891" y1="979.9219" y2="979.9219"/><line style="stroke:#D4AC0D;stroke-width:4.5;" x1="99" x2="891" y1="1003.9219" y2="1003.9219"/><!--MD5=[992e355e37ebedcd3769e1f8c146b434]
class KeypleCardSelector--><rect codeLine="67" fill="#FEFECE" height="144" id="KeypleCardSelector" style="stroke:#D4AC0D;stroke-width:4.5;" width="459" x="1000.5" y="883.9219"/><ellipse cx="1045.5" cy="931.9219" fill="#B4A7E5" rx="33" ry="33" style="stroke:#B4A7E5;stroke-width:3.0;"/><path d="M1048.5,922.9219 L1048.5,940.9219 L1054.5,940.9219 L1055.9531,940.9219 L1057.5,942.7969 L1057.5,943.9219 L1057.5,945.0469 L1055.9531,946.9219 L1054.5,946.9219 L1036.5,946.9219 L1035.0469,946.9219 L1033.5,945.0469 L1033.5,943.9219 L1033.5,942.7969 L1035.0469,940.9219 L1036.5,940.9219 L1042.5,940.9219 L1042.5,922.9219 L1036.5,922.9219 L1035.0469,922.9219 L1033.5,921.0469 L1033.5,919.9219 L1033.5,918.7969 L1035.0469,916.9219 L1036.5,916.9219 L1054.5,916.9219 L1055.9531,916.9219 L1057.5,918.7969 L1057.5,919.9219 L1057.5,921.0469 L1055.9531,922.9219 L1054.5,922.9219 L1048.5,922.9219 Z " fill="#000000"/><ellipse cx="1102.5" cy="930.4219" fill="#84BE84" rx="9" ry="9" style="stroke:#038048;stroke-width:3.0;"/><text fill="#000000" font-family="sans-serif" font-size="36" font-style="italic" lengthAdjust="spacing" textLength="330" x="1120.5" y="946.6523">KeypleCardSelector</text><line style="stroke:#D4AC0D;stroke-width:4.5;" x1="1003.5" x2="1456.5" y1="979.9219" y2="979.9219"/><line style="stroke:#D4AC0D;stroke-width:4.5;" x1="1003.5" x2="1456.5" y1="1003.9219" y2="1003.9219"/><!--MD5=[8999ac455343ccac23030d8ddecdd1e9]
class KeyplePluginEvent--><rect codeLine="69" fill="#FEFECE" height="144" id="KeyplePluginEvent" style="stroke:#D4AC0D;stroke-width:4.5;" width="441" x="1564.5" y="883.9219"/><ellipse cx="1609.5" cy="931.9219" fill="#B4A7E5" rx="33" ry="33" style="stroke:#B4A7E5;stroke-width:3.0;"/><path d="M1612.5,922.9219 L1612.5,940.9219 L1618.5,940.9219 L1619.9531,940.9219 L1621.5,942.7969 L1621.5,943.9219 L1621.5,945.0469 L1619.9531,946.9219 L1618.5,946.9219 L1600.5,946.9219 L1599.0469,946.9219 L1597.5,945.0469 L1597.5,943.9219 L1597.5,942.7969 L1599.0469,940.9219 L1600.5,940.9219 L1606.5,940.9219 L1606.5,922.9219 L1600.5,922.9219 L1599.0469,922.9219 L1597.5,921.0469 L1597.5,919.9219 L1597.5,918.7969 L1599.0469,916.9219 L1600.5,916.9219 L1618.5,916.9219 L1619.9531,916.9219 L1621.5,918.7969 L1621.5,919.9219 L1621.5,921.0469 L1619.9531,922.9219 L1618.5,922.9219 L1612.5,922.9219 Z " fill="#000000"/><ellipse cx="1666.5" cy="930.4219" fill="#84BE84" rx="9" ry="9" style="stroke:#038048;stroke-width:3.0;"/><text fill="#000000" font-family="sans-serif" font-size="36" font-style="italic" lengthAdjust="spacing" textLength="312" x="1684.5" y="946.6523">KeyplePluginEvent</text><line style="stroke:#D4AC0D;stroke-width:4.5;" x1="1567.5" x2="2002.5" y1="979.9219" y2="979.9219"/><line style="stroke:#D4AC0D;stroke-width:4.5;" x1="1567.5" x2="2002.5" y1="1003.9219" y2="1003.9219"/><!--MD5=[31820e042815c36821ed3bf317261d9c]
class KeypleReaderEvent--><rect codeLine="71" fill="#FEFECE" height="144" id="KeypleReaderEvent" style="stroke:#D4AC0D;stroke-width:4.5;" width="459" x="2110.5" y="883.9219"/><ellipse cx="2155.5" cy="931.9219" fill="#B4A7E5" rx="33" ry="33" style="stroke:#B4A7E5;stroke-width:3.0;"/><path d="M2158.5,922.9219 L2158.5,940.9219 L2164.5,940.9219 L2165.9531,940.9219 L2167.5,942.7969 L2167.5,943.9219 L2167.5,945.0469 L2165.9531,946.9219 L2164.5,946.9219 L2146.5,946.9219 L2145.0469,946.9219 L2143.5,945.0469 L2143.5,943.9219 L2143.5,942.7969 L2145.0469,940.9219 L2146.5,940.9219 L2152.5,940.9219 L2152.5,922.9219 L2146.5,922.9219 L2145.0469,922.9219 L2143.5,921.0469 L2143.5,919.9219 L2143.5,918.7969 L2145.0469,916.9219 L2146.5,916.9219 L2164.5,916.9219 L2165.9531,916.9219 L2167.5,918.7969 L2167.5,919.9219 L2167.5,921.0469 L2165.9531,922.9219 L2164.5,922.9219 L2158.5,922.9219 Z " fill="#000000"/><ellipse cx="2212.5" cy="930.4219" fill="#84BE84" rx="9" ry="9" style="stroke:#038048;stroke-width:3.0;"/><text fill="#000000" font-family="sans-serif" font-size="36" font-style="italic" lengthAdjust="spacing" textLength="330" x="2230.5" y="946.6523">KeypleReaderEvent</text><line style="stroke:#D4AC0D;stroke-width:4.5;" x1="2113.5" x2="2566.5" y1="979.9219" y2="979.9219"/><line style="stroke:#D4AC0D;stroke-width:4.5;" x1="2113.5" x2="2566.5" y1="1003.9219" y2="1003.9219"/><!--MD5=[7470d7897158c1b951e7c67040d041a6]
link ApiProperties to KeyplePluginExtensionFactory--><!--MD5=[bbc919d66c64d103395bd9c3f156b21e]
link KeyplePluginExtensionFactory to KeyplePluginExtension--><!--MD5=[69f96aa6399ac01b5921c16a0a39b103]
link KeyplePluginExtension to KeypleReaderExtension--><!--MD5=[a8092c9c6b9f39e3f90c4c13ed3ffc20]
link ApiProperties to KeypleSmartCard--><!--MD5=[7ec38bd7d5ee60a4cab3ad1a7c0dd097]
link KeypleSmartCard to KeypleCardExtension--><!--MD5=[4fa3855a1c4240920b4aae4e31711d4c]
link KeypleCardExtension to KeypleCardResourceProfileExtension--><!--MD5=[3f7b9d16bdb76d5be6c3f3f2124225aa]
link KeypleCardResourceProfileExtension to KeypleDistributedLocalServiceExtensionFactory--><!--MD5=[0cc56b37ea4afe503192965f14299e98]
link KeypleSmartCard to KeypleDistributedLocalServiceExtension--><!--MD5=[e77cffe1c115b69260be500d67b0c822]
link KeypleDistributedLocalServiceExtension to KeypleCardSelector--><!--MD5=[c6458e81f2612b96d2fff22416797b84]
link KeypleCardSelector to KeyplePluginEvent--><!--MD5=[9f3aacdec3cfe6be3f601eccda26207c]
link KeyplePluginEvent to KeypleReaderEvent--><!--MD5=[05cffc857afed49fe55aa0137e5684f9]
@startuml
title
    Keyple 2.0 - keyple-java-commons-api - 2.0 (28/04/2021)
end title

' == THEME ==

'Couleurs issues de : https://htmlcolorcodes.com/fr/tableau-de-couleur/tableau-de-couleur-design-plat/
!define C_GREY1 F8F9F9
!define C_GREY2 F2F3F4
!define C_GREY3 E5E7E9
!define C_GREY4 D7DBDD
!define C_GREY5 CACFD2
!define C_GREY6 BDC3C7
!define C_LINK 3498DB
!define C_USE 27AE60

skinparam Shadowing false
skinparam ClassFontStyle italic
skinparam ClassBorderColor #D4AC0D
skinparam stereotypeABorderColor #A9DCDF
skinparam stereotypeIBorderColor #B4A7E5
skinparam stereotypeCBorderColor #ADD1B2
skinparam stereotypeEBorderColor #EB93DF
' Red
skinparam ClassBackgroundColor<<red>> #FDEDEC
skinparam ClassBorderColor<<red>> #E74C3C
hide <<red>> stereotype
' Purple
skinparam ClassBackgroundColor<<purple>> #F4ECF7
skinparam ClassBorderColor<<purple>> #8E44AD
hide <<purple>> stereotype
' blue
skinparam ClassBackgroundColor<<blue>> #EBF5FB
skinparam ClassBorderColor<<blue>> #3498DB
hide <<blue>> stereotype
' Green
skinparam ClassBackgroundColor<<green>> #E9F7EF
skinparam ClassBorderColor<<green>> #27AE60
hide <<green>> stereotype
' Grey
skinparam ClassBackgroundColor<<grey>> #EAECEE
skinparam ClassBorderColor<<grey>> #2C3E50
hide <<grey>> stereotype

' == CONTENT ==

package "org.eclipse.keyple.core.common" as api {
    +class "**final** CommonsApiProperties" as ApiProperties {
        +{static} **final** String VERSION
    }
    +interface KeyplePluginExtensionFactory {
    }
    +interface KeyplePluginExtension {
    }
    +interface KeypleReaderExtension {
    }
    +interface KeypleSmartCard {
    }
    +interface KeypleCardExtension {
    }
    +interface KeypleCardResourceProfileExtension {
    }
    +interface KeypleDistributedLocalServiceExtensionFactory {
    }
    +interface KeypleDistributedLocalServiceExtension {
    }
    +interface KeypleCardSelector {
    }
    +interface KeyplePluginEvent {
    }
    +interface KeypleReaderEvent {
    }
}

' Associations


' == LAYOUT ==


' == STYLE ==

package api #C_GREY1 {}

@enduml

@startuml
title
    Keyple 2.0 - keyple-java-commons-api - 2.0 (28/04/2021)
end title



skinparam Shadowing false
skinparam ClassFontStyle italic
skinparam ClassBorderColor #D4AC0D
skinparam stereotypeABorderColor #A9DCDF
skinparam stereotypeIBorderColor #B4A7E5
skinparam stereotypeCBorderColor #ADD1B2
skinparam stereotypeEBorderColor #EB93DF
skinparam ClassBackgroundColor<<red>> #FDEDEC
skinparam ClassBorderColor<<red>> #E74C3C
hide <<red>> stereotype
skinparam ClassBackgroundColor<<purple>> #F4ECF7
skinparam ClassBorderColor<<purple>> #8E44AD
hide <<purple>> stereotype
skinparam ClassBackgroundColor<<blue>> #EBF5FB
skinparam ClassBorderColor<<blue>> #3498DB
hide <<blue>> stereotype
skinparam ClassBackgroundColor<<green>> #E9F7EF
skinparam ClassBorderColor<<green>> #27AE60
hide <<green>> stereotype
skinparam ClassBackgroundColor<<grey>> #EAECEE
skinparam ClassBorderColor<<grey>> #2C3E50
hide <<grey>> stereotype


package "org.eclipse.keyple.core.common" as api {
    +class "**final** CommonsApiProperties" as ApiProperties {
        +{static} **final** String VERSION
    }
    +interface KeyplePluginExtensionFactory {
    }
    +interface KeyplePluginExtension {
    }
    +interface KeypleReaderExtension {
    }
    +interface KeypleSmartCard {
    }
    +interface KeypleCardExtension {
    }
    +interface KeypleCardResourceProfileExtension {
    }
    +interface KeypleDistributedLocalServiceExtensionFactory {
    }
    +interface KeypleDistributedLocalServiceExtension {
    }
    +interface KeypleCardSelector {
    }
    +interface KeyplePluginEvent {
    }
    +interface KeypleReaderEvent {
    }
}






package api #F8F9F9 {}

@enduml

PlantUML version 1.2021.4(Sun Apr 04 10:49:39 CEST 2021)
(GPL source distribution)
Java Runtime: OpenJDK Runtime Environment
JVM: Dynamic Code Evolution 64-Bit Server VM
Default Encoding: Cp1252
Language: fr
Country: FR
--></g></svg>