<?xml version="1.0" encoding="UTF-8" standalone="no"?><svg xmlns="http://www.w3.org/2000/svg" xmlns:xlink="http://www.w3.org/1999/xlink" contentScriptType="application/ecmascript" contentStyleType="text/css" height="1800px" preserveAspectRatio="none" style="width:1847px;height:1800px;" version="1.1" viewBox="0 0 1847 1800" width="1847.5px" zoomAndPan="magnify"><defs/><g><text fill="#000000" font-family="sans-serif" font-size="45" lengthAdjust="spacing" textLength="1300" x="257.5" y="46.7139">Keyple 2.0 - keyple-java-distributed-remote-api - 2.0 (26/03/2021)</text><!--MD5=[7442f3b126ee602ae02566c1a49e158a]
cluster api--><polygon fill="#F8F9F9" points="40,71.6016,805,71.6016,822.5,130.625,1805,130.625,1805,1784.1016,40,1784.1016,40,71.6016" style="stroke:#000000;stroke-width:3.75;"/><line style="stroke:#000000;stroke-width:3.75;" x1="40" x2="822.5" y1="130.625" y2="130.625"/><text fill="#000000" font-family="sans-serif" font-size="35" font-weight="bold" lengthAdjust="spacing" textLength="750" x="50" y="112.9346">org.eclipse.keyple.core.distributed.remote</text><!--MD5=[f7e0e2453c87923036c1ac2adfb9cbf0]
cluster spi--><polygon fill="#F2F3F4" points="965,181.6016,1032.5,181.6016,1050,240.625,1745,240.625,1745,1724.1016,965,1724.1016,965,181.6016" style="stroke:#000000;stroke-width:3.75;"/><line style="stroke:#000000;stroke-width:3.75;" x1="965" x2="1050" y1="240.625" y2="240.625"/><text fill="#000000" font-family="sans-serif" font-size="35" font-weight="bold" lengthAdjust="spacing" textLength="52.5" x="975" y="222.9346">spi</text><!--MD5=[120218adfd8782b0057db0a1b8294250]
class ApiProperties--><rect codeLine="48" fill="#FEFECE" height="154.5898" id="ApiProperties" style="stroke:#D4AC0D;stroke-width:3.75;" width="620" x="167.5" y="340.3516"/><ellipse cx="205" cy="380.3516" fill="#ADD1B2" rx="27.5" ry="27.5" style="stroke:#ADD1B2;stroke-width:2.5;"/><path d="M210,371.6016 Q210.5078,370.3516 211.0938,369.7266 Q211.6797,369.1016 212.3438,369.1016 Q213.5156,369.1016 214.2578,369.8047 Q215,370.5078 215,372.1484 L215,376.0547 Q215,377.6953 214.2969,378.3984 Q213.5938,379.1016 212.5,379.1016 Q211.5234,379.1016 210.8984,378.6719 Q210.2734,378.2422 210,377.1094 Q209.8828,376.3281 209.4531,375.8984 Q208.6719,375.0781 207.2656,374.6094 Q205.8594,374.1016 204.4531,374.1016 Q202.6953,374.1016 201.2109,374.8047 Q199.7656,375.5078 198.6328,377.0703 Q197.5,378.6328 197.5,380.7813 L197.5,383.0859 Q197.5,385.6641 199.6094,387.3828 Q201.7188,389.1016 205.4688,389.1016 Q207.6953,389.1016 209.2578,388.5938 Q210.1563,388.3203 211.1719,387.4219 Q211.8359,386.9141 212.1875,386.7578 Q212.5391,386.6016 212.9688,386.6016 Q213.7891,386.6016 214.375,387.2656 Q215,387.8906 215,388.7891 Q215,389.6484 214.1406,390.6641 Q212.8906,392.1484 210.8984,392.9688 Q208.2813,394.1016 205.0781,394.1016 Q201.3281,394.1016 198.3203,392.6172 Q195.8984,391.4453 194.1797,388.9063 Q192.5,386.3672 192.5,383.3594 L192.5,380.625 Q192.5,377.5 193.9844,374.7656 Q195.5078,372.0313 198.125,370.5859 Q200.7813,369.1016 203.75,369.1016 Q205.5469,369.1016 207.1094,369.7266 Q208.6719,370.3516 210,371.6016 Z " fill="#000000"/><ellipse cx="252.5" cy="379.1016" fill="#84BE84" rx="7.5" ry="7.5" style="stroke:#038048;stroke-width:2.5;"/><text fill="#000000" font-family="sans-serif" font-size="30" font-style="italic" font-weight="bold" lengthAdjust="spacing" textLength="60" x="267.5" y="392.627">final</text><text fill="#000000" font-family="sans-serif" font-size="30" font-style="italic" lengthAdjust="spacing" textLength="445" x="335" y="392.627">DistributedRemoteApiProperties</text><line style="stroke:#D4AC0D;stroke-width:3.75;" x1="170" x2="785" y1="420.3516" y2="420.3516"/><ellipse cx="195" cy="447.8516" rx="7.5" ry="7.5" style="stroke:#038048;stroke-width:2.5;fill:none;"/><text fill="#000000" font-family="sans-serif" font-size="27.5" font-weight="bold" lengthAdjust="spacing" text-decoration="underline" textLength="57.5" x="217.5" y="458.8989">final</text><text fill="#000000" font-family="sans-serif" font-size="27.5" lengthAdjust="spacing" text-decoration="underline" textLength="190" x="282.5" y="458.8989">String VERSION</text><line style="stroke:#D4AC0D;stroke-width:3.75;" x1="170" x2="785" y1="474.9414" y2="474.9414"/><!--MD5=[3bdcfc6a224040be6cb3c1df3ec20060]
class RemotePluginApi--><rect codeLine="51" fill="#FEFECE" height="154.5898" id="RemotePluginApi" style="stroke:#D4AC0D;stroke-width:3.75;" width="517.5" x="293.75" y="890.3516"/><ellipse cx="406.875" cy="930.3516" fill="#B4A7E5" rx="27.5" ry="27.5" style="stroke:#B4A7E5;stroke-width:2.5;"/><path d="M409.375,922.8516 L409.375,937.8516 L414.375,937.8516 L415.5859,937.8516 L416.875,939.4141 L416.875,940.3516 L416.875,941.2891 L415.5859,942.8516 L414.375,942.8516 L399.375,942.8516 L398.1641,942.8516 L396.875,941.2891 L396.875,940.3516 L396.875,939.4141 L398.1641,937.8516 L399.375,937.8516 L404.375,937.8516 L404.375,922.8516 L399.375,922.8516 L398.1641,922.8516 L396.875,921.2891 L396.875,920.3516 L396.875,919.4141 L398.1641,917.8516 L399.375,917.8516 L414.375,917.8516 L415.5859,917.8516 L416.875,919.4141 L416.875,920.3516 L416.875,921.2891 L415.5859,922.8516 L414.375,922.8516 L409.375,922.8516 Z " fill="#000000"/><ellipse cx="470.625" cy="929.1016" fill="#84BE84" rx="7.5" ry="7.5" style="stroke:#038048;stroke-width:2.5;"/><text fill="#000000" font-family="sans-serif" font-size="30" font-style="italic" lengthAdjust="spacing" textLength="242.5" x="485.625" y="942.627">RemotePluginApi</text><line style="stroke:#D4AC0D;stroke-width:3.75;" x1="296.25" x2="808.75" y1="970.3516" y2="970.3516"/><line style="stroke:#D4AC0D;stroke-width:2.5;" x1="296.25" x2="808.75" y1="990.3516" y2="990.3516"/><ellipse cx="321.25" cy="1017.8516" fill="#84BE84" rx="7.5" ry="7.5" style="stroke:#038048;stroke-width:2.5;"/><text fill="#000000" font-family="sans-serif" font-size="27.5" lengthAdjust="spacing" textLength="452.5" x="343.75" y="1028.8989">void onReaderEvent (String jsonData)</text><!--MD5=[0db98e29c29f308f95f437c44cb51af8]
class ObservableRemotePluginApi--><rect codeLine="55" fill="#FEFECE" height="312.9492" id="ObservableRemotePluginApi" style="stroke:#D4AC0D;stroke-width:3.75;" width="842.5" x="81.25" y="1371.6016"/><ellipse cx="275.625" cy="1411.6016" fill="#B4A7E5" rx="27.5" ry="27.5" style="stroke:#B4A7E5;stroke-width:2.5;"/><path d="M278.125,1404.1016 L278.125,1419.1016 L283.125,1419.1016 L284.3359,1419.1016 L285.625,1420.6641 L285.625,1421.6016 L285.625,1422.5391 L284.3359,1424.1016 L283.125,1424.1016 L268.125,1424.1016 L266.9141,1424.1016 L265.625,1422.5391 L265.625,1421.6016 L265.625,1420.6641 L266.9141,1419.1016 L268.125,1419.1016 L273.125,1419.1016 L273.125,1404.1016 L268.125,1404.1016 L266.9141,1404.1016 L265.625,1402.5391 L265.625,1401.6016 L265.625,1400.6641 L266.9141,1399.1016 L268.125,1399.1016 L283.125,1399.1016 L284.3359,1399.1016 L285.625,1400.6641 L285.625,1401.6016 L285.625,1402.5391 L284.3359,1404.1016 L283.125,1404.1016 L278.125,1404.1016 Z " fill="#000000"/><ellipse cx="339.375" cy="1410.3516" fill="#84BE84" rx="7.5" ry="7.5" style="stroke:#038048;stroke-width:2.5;"/><text fill="#000000" font-family="sans-serif" font-size="30" font-style="italic" lengthAdjust="spacing" textLength="405" x="354.375" y="1423.877">ObservableRemotePluginApi</text><line style="stroke:#D4AC0D;stroke-width:3.75;" x1="83.75" x2="921.25" y1="1451.6016" y2="1451.6016"/><line style="stroke:#D4AC0D;stroke-width:2.5;" x1="83.75" x2="921.25" y1="1471.6016" y2="1471.6016"/><ellipse cx="108.75" cy="1499.1016" fill="#84BE84" rx="7.5" ry="7.5" style="stroke:#038048;stroke-width:2.5;"/><text fill="#000000" font-family="sans-serif" font-size="27.5" lengthAdjust="spacing" textLength="777.5" x="131.25" y="1510.1489">void registerMasterReader (RemoteReaderSpi masterReaderSpi)</text><ellipse cx="108.75" cy="1533.6914" fill="#84BE84" rx="7.5" ry="7.5" style="stroke:#038048;stroke-width:2.5;"/><text fill="#000000" font-family="sans-serif" font-size="27.5" lengthAdjust="spacing" textLength="742.5" x="131.25" y="1544.7388">void registerSlaveReader (RemoteReaderSpi slaveReaderSpi,</text><text fill="#000000" font-family="sans-serif" font-size="27.5" lengthAdjust="spacing" textLength="677.5" x="191.25" y="1579.3286">String masterReaderName, String readerEventJsonData)</text><ellipse cx="108.75" cy="1602.8711" fill="#84BE84" rx="7.5" ry="7.5" style="stroke:#038048;stroke-width:2.5;"/><text fill="#000000" font-family="sans-serif" font-size="27.5" lengthAdjust="spacing" textLength="555" x="131.25" y="1613.9185">boolean unregisterReader (Sting readerName)</text><line style="stroke:#D4AC0D;stroke-width:2.5;stroke-dasharray:1.0,2.0;" x1="83.75" x2="921.25" y1="1629.9609" y2="1629.9609"/><ellipse cx="108.75" cy="1657.4609" fill="#84BE84" rx="7.5" ry="7.5" style="stroke:#038048;stroke-width:2.5;"/><text fill="#000000" font-family="sans-serif" font-size="27.5" lengthAdjust="spacing" textLength="435" x="131.25" y="1668.5083">void onPluginEvent (String jsonData)</text><!--MD5=[c2370bc74128b93bd072b6f31e9991b0]
class RemotePluginFactorySpi--><rect codeLine="65" fill="#FEFECE" height="292.9492" id="RemotePluginFactorySpi" style="stroke:#D4AC0D;stroke-width:3.75;" width="560" x="1075" y="271.6016"/><ellipse cx="1162" cy="311.6016" fill="#B4A7E5" rx="27.5" ry="27.5" style="stroke:#B4A7E5;stroke-width:2.5;"/><path d="M1164.5,304.1016 L1164.5,319.1016 L1169.5,319.1016 L1170.7109,319.1016 L1172,320.6641 L1172,321.6016 L1172,322.5391 L1170.7109,324.1016 L1169.5,324.1016 L1154.5,324.1016 L1153.2891,324.1016 L1152,322.5391 L1152,321.6016 L1152,320.6641 L1153.2891,319.1016 L1154.5,319.1016 L1159.5,319.1016 L1159.5,304.1016 L1154.5,304.1016 L1153.2891,304.1016 L1152,302.5391 L1152,301.6016 L1152,300.6641 L1153.2891,299.1016 L1154.5,299.1016 L1169.5,299.1016 L1170.7109,299.1016 L1172,300.6641 L1172,301.6016 L1172,302.5391 L1170.7109,304.1016 L1169.5,304.1016 L1164.5,304.1016 Z " fill="#000000"/><ellipse cx="1220.5" cy="310.3516" fill="#84BE84" rx="7.5" ry="7.5" style="stroke:#038048;stroke-width:2.5;"/><text fill="#000000" font-family="sans-serif" font-size="30" font-style="italic" lengthAdjust="spacing" textLength="342.5" x="1235.5" y="323.877">RemotePluginFactorySpi</text><line style="stroke:#D4AC0D;stroke-width:3.75;" x1="1077.5" x2="1632.5" y1="351.6016" y2="351.6016"/><line style="stroke:#D4AC0D;stroke-width:3.75;" x1="1077.5" x2="1632.5" y1="371.6016" y2="371.6016"/><ellipse cx="1102.5" cy="399.1016" fill="#84BE84" rx="7.5" ry="7.5" style="stroke:#038048;stroke-width:2.5;"/><text fill="#000000" font-family="sans-serif" font-size="27.5" lengthAdjust="spacing" textLength="495" x="1125" y="410.1489">String getDistributedRemoteApiVersion ()</text><ellipse cx="1102.5" cy="433.6914" fill="#84BE84" rx="7.5" ry="7.5" style="stroke:#038048;stroke-width:2.5;"/><text fill="#000000" font-family="sans-serif" font-size="27.5" lengthAdjust="spacing" textLength="395" x="1125" y="444.7388">String getCommonsApiVersion ()</text><ellipse cx="1102.5" cy="468.2813" fill="#84BE84" rx="7.5" ry="7.5" style="stroke:#038048;stroke-width:2.5;"/><text fill="#000000" font-family="sans-serif" font-size="27.5" lengthAdjust="spacing" textLength="370" x="1125" y="479.3286">String getRemotePluginName ()</text><ellipse cx="1102.5" cy="502.8711" fill="#84BE84" rx="7.5" ry="7.5" style="stroke:#038048;stroke-width:2.5;"/><text fill="#000000" font-family="sans-serif" font-size="27.5" lengthAdjust="spacing" textLength="430" x="1125" y="513.9185">RemotePluginSpi getRemotePlugin ()</text><ellipse cx="1102.5" cy="537.4609" fill="#84BE84" rx="7.5" ry="7.5" style="stroke:#038048;stroke-width:2.5;"/><text fill="#000000" font-family="sans-serif" font-size="27.5" lengthAdjust="spacing" textLength="270" x="1125" y="548.5083">boolean isPoolPlugin ()</text><!--MD5=[733b899168be945616a1d8aa95c72981]
class RemotePluginSpi--><rect codeLine="72" fill="#FEFECE" height="416.7188" id="RemotePluginSpi" style="stroke:#D4AC0D;stroke-width:3.75;" width="700" x="1005" y="759.1016"/><ellipse cx="1209.375" cy="799.1016" fill="#B4A7E5" rx="27.5" ry="27.5" style="stroke:#B4A7E5;stroke-width:2.5;"/><path d="M1211.875,791.6016 L1211.875,806.6016 L1216.875,806.6016 L1218.0859,806.6016 L1219.375,808.1641 L1219.375,809.1016 L1219.375,810.0391 L1218.0859,811.6016 L1216.875,811.6016 L1201.875,811.6016 L1200.6641,811.6016 L1199.375,810.0391 L1199.375,809.1016 L1199.375,808.1641 L1200.6641,806.6016 L1201.875,806.6016 L1206.875,806.6016 L1206.875,791.6016 L1201.875,791.6016 L1200.6641,791.6016 L1199.375,790.0391 L1199.375,789.1016 L1199.375,788.1641 L1200.6641,786.6016 L1201.875,786.6016 L1216.875,786.6016 L1218.0859,786.6016 L1219.375,788.1641 L1219.375,789.1016 L1219.375,790.0391 L1218.0859,791.6016 L1216.875,791.6016 L1211.875,791.6016 Z " fill="#000000"/><ellipse cx="1273.125" cy="797.8516" fill="#84BE84" rx="7.5" ry="7.5" style="stroke:#038048;stroke-width:2.5;"/><text fill="#000000" font-family="sans-serif" font-size="30" font-style="italic" lengthAdjust="spacing" textLength="242.5" x="1288.125" y="811.377">RemotePluginSpi</text><line style="stroke:#D4AC0D;stroke-width:3.75;" x1="1007.5" x2="1702.5" y1="839.1016" y2="839.1016"/><line style="stroke:#D4AC0D;stroke-width:2.5;" x1="1007.5" x2="1702.5" y1="859.1016" y2="859.1016"/><ellipse cx="1032.5" cy="886.6016" fill="#84BE84" rx="7.5" ry="7.5" style="stroke:#038048;stroke-width:2.5;"/><text fill="#000000" font-family="sans-serif" font-size="27.5" lengthAdjust="spacing" textLength="582.5" x="1055" y="897.6489">void connect (RemotePluginApi remotePluginApi)</text><ellipse cx="1032.5" cy="921.1914" fill="#84BE84" rx="7.5" ry="7.5" style="stroke:#038048;stroke-width:2.5;"/><text fill="#000000" font-family="sans-serif" font-size="27.5" lengthAdjust="spacing" textLength="210" x="1055" y="932.2388">String getName ()</text><ellipse cx="1032.5" cy="955.7813" fill="#84BE84" rx="7.5" ry="7.5" style="stroke:#038048;stroke-width:2.5;"/><text fill="#000000" font-family="sans-serif" font-size="27.5" lengthAdjust="spacing" textLength="495" x="1055" y="966.8286">String executeRemotely (String jsonData)</text><ellipse cx="1032.5" cy="990.3711" fill="#84BE84" rx="7.5" ry="7.5" style="stroke:#038048;stroke-width:2.5;"/><text fill="#000000" font-family="sans-serif" font-size="27.5" lengthAdjust="spacing" textLength="495" x="1055" y="1001.4185">RemoteReaderSpi createRemoteReader (</text><text fill="#000000" font-family="sans-serif" font-size="27.5" lengthAdjust="spacing" textLength="575" x="1115" y="1036.0083">String localReaderName, boolean isObservable)</text><line style="stroke:#D4AC0D;stroke-width:2.5;stroke-dasharray:1.0,2.0;" x1="1007.5" x2="1702.5" y1="1052.0508" y2="1052.0508"/><ellipse cx="1032.5" cy="1079.5508" fill="#84BE84" rx="7.5" ry="7.5" style="stroke:#038048;stroke-width:2.5;"/><text fill="#000000" font-family="sans-serif" font-size="27.5" lengthAdjust="spacing" textLength="290" x="1055" y="1090.5981">boolean isObservable ()</text><ellipse cx="1032.5" cy="1114.1406" fill="#84BE84" rx="7.5" ry="7.5" style="stroke:#038048;stroke-width:2.5;"/><text fill="#000000" font-family="sans-serif" font-size="27.5" lengthAdjust="spacing" textLength="372.5" x="1055" y="1125.188">void startPluginsObservation ()</text><ellipse cx="1032.5" cy="1148.7305" fill="#84BE84" rx="7.5" ry="7.5" style="stroke:#038048;stroke-width:2.5;"/><text fill="#000000" font-family="sans-serif" font-size="27.5" lengthAdjust="spacing" textLength="370" x="1055" y="1159.7778">void stopPluginsObservation ()</text><!--MD5=[3937379067c1c7d1f35002e0ca836dbd]
class RemoteReaderSpi--><rect codeLine="84" fill="#FEFECE" height="312.9492" id="RemoteReaderSpi" style="stroke:#D4AC0D;stroke-width:3.75;" width="560" x="1075" y="1371.6016"/><ellipse cx="1201.875" cy="1411.6016" fill="#B4A7E5" rx="27.5" ry="27.5" style="stroke:#B4A7E5;stroke-width:2.5;"/><path d="M1204.375,1404.1016 L1204.375,1419.1016 L1209.375,1419.1016 L1210.5859,1419.1016 L1211.875,1420.6641 L1211.875,1421.6016 L1211.875,1422.5391 L1210.5859,1424.1016 L1209.375,1424.1016 L1194.375,1424.1016 L1193.1641,1424.1016 L1191.875,1422.5391 L1191.875,1421.6016 L1191.875,1420.6641 L1193.1641,1419.1016 L1194.375,1419.1016 L1199.375,1419.1016 L1199.375,1404.1016 L1194.375,1404.1016 L1193.1641,1404.1016 L1191.875,1402.5391 L1191.875,1401.6016 L1191.875,1400.6641 L1193.1641,1399.1016 L1194.375,1399.1016 L1209.375,1399.1016 L1210.5859,1399.1016 L1211.875,1400.6641 L1211.875,1401.6016 L1211.875,1402.5391 L1210.5859,1404.1016 L1209.375,1404.1016 L1204.375,1404.1016 Z " fill="#000000"/><ellipse cx="1265.625" cy="1410.3516" fill="#84BE84" rx="7.5" ry="7.5" style="stroke:#038048;stroke-width:2.5;"/><text fill="#000000" font-family="sans-serif" font-size="30" font-style="italic" lengthAdjust="spacing" textLength="257.5" x="1280.625" y="1423.877">RemoteReaderSpi</text><line style="stroke:#D4AC0D;stroke-width:3.75;" x1="1077.5" x2="1632.5" y1="1451.6016" y2="1451.6016"/><line style="stroke:#D4AC0D;stroke-width:2.5;" x1="1077.5" x2="1632.5" y1="1471.6016" y2="1471.6016"/><ellipse cx="1102.5" cy="1499.1016" fill="#84BE84" rx="7.5" ry="7.5" style="stroke:#038048;stroke-width:2.5;"/><text fill="#000000" font-family="sans-serif" font-size="27.5" lengthAdjust="spacing" textLength="210" x="1125" y="1510.1489">String getName ()</text><ellipse cx="1102.5" cy="1533.6914" fill="#84BE84" rx="7.5" ry="7.5" style="stroke:#038048;stroke-width:2.5;"/><text fill="#000000" font-family="sans-serif" font-size="27.5" lengthAdjust="spacing" textLength="495" x="1125" y="1544.7388">String executeRemotely (String jsonData)</text><line style="stroke:#D4AC0D;stroke-width:2.5;stroke-dasharray:1.0,2.0;" x1="1077.5" x2="1632.5" y1="1560.7813" y2="1560.7813"/><ellipse cx="1102.5" cy="1588.2813" fill="#84BE84" rx="7.5" ry="7.5" style="stroke:#038048;stroke-width:2.5;"/><text fill="#000000" font-family="sans-serif" font-size="27.5" lengthAdjust="spacing" textLength="290" x="1125" y="1599.3286">boolean isObservable ()</text><ellipse cx="1102.5" cy="1622.8711" fill="#84BE84" rx="7.5" ry="7.5" style="stroke:#038048;stroke-width:2.5;"/><text fill="#000000" font-family="sans-serif" font-size="27.5" lengthAdjust="spacing" textLength="375" x="1125" y="1633.9185">void startReaderObservation ()</text><ellipse cx="1102.5" cy="1657.4609" fill="#84BE84" rx="7.5" ry="7.5" style="stroke:#038048;stroke-width:2.5;"/><text fill="#000000" font-family="sans-serif" font-size="27.5" lengthAdjust="spacing" textLength="372.5" x="1125" y="1668.5083">void stopReaderObservation ()</text><!--MD5=[6d28cfb2e11f30f24c6dd92937fa1a7c]
reverse link RemotePluginApi to ObservableRemotePluginApi--><path d="M541.0975,1096.9266 C533.7725,1178.2191 524.2125,1284.3491 516.4375,1370.6391 " fill="none" id="RemotePluginApi-backto-ObservableRemotePluginApi" style="stroke:#A80036;stroke-width:2.5;"/><polygon fill="none" points="523.7375,1094.5866,545.6525,1046.3591,558.595,1097.7266,523.7375,1094.5866" style="stroke:#A80036;stroke-width:2.5;"/><!--MD5=[4174bbe09b6fc05497605efa272e822c]
reverse link ApiProperties to RemotePluginFactorySpi--><path codeLine="98" d="M801.3,417.8516 C891.07,417.8516 987.745,417.8516 1074.7975,417.8516 " fill="none" id="ApiProperties-backto-RemotePluginFactorySpi" style="stroke:#27AE60;stroke-width:2.5;stroke-dasharray:7.0,7.0;"/><polygon fill="#27AE60" points="788.1075,417.8516,810.6075,427.8516,800.6075,417.8516,810.6075,407.8516,788.1075,417.8516" style="stroke:#27AE60;stroke-width:2.5;"/><text fill="#000000" font-family="sans-serif" font-size="32.5" lengthAdjust="spacing" textLength="100" x="881.25" y="361.5894">provide</text><polygon fill="#000000" points="833.75,389.1699,856.3627,396.5172,856.3627,381.8226,833.75,389.1699" style="stroke:#000000;stroke-width:2.5;"/><text fill="#000000" font-family="sans-serif" font-size="32.5" lengthAdjust="spacing" textLength="162.5" x="866.25" y="402.4683">API version</text><!--MD5=[71bd7d84c6f989e29e36bec57e3f046c]
link RemotePluginFactorySpi to RemotePluginSpi--><path codeLine="99" d="M1355,564.2566 C1355,619.9041 1355,684.8316 1355,746.0366 " fill="none" id="RemotePluginFactorySpi-to-RemotePluginSpi" style="stroke:#27AE60;stroke-width:2.5;stroke-dasharray:7.0,7.0;"/><polygon fill="#27AE60" points="1355,759.0366,1365,736.5366,1355,746.5366,1345,736.5366,1355,759.0366" style="stroke:#27AE60;stroke-width:2.5;"/><polygon fill="#000000" points="1367.5,674.541,1374.8473,651.9283,1360.1527,651.9283,1367.5,674.541" style="stroke:#000000;stroke-width:2.5;"/><text fill="#000000" font-family="sans-serif" font-size="32.5" lengthAdjust="spacing" textLength="100" x="1390" y="675.3394">provide</text><!--MD5=[f33d040dcb77d1f7644b5e19c2b3e36f]
link RemotePluginSpi to RemoteReaderSpi--><path codeLine="101" d="M1355,1177.0141 C1355,1236.8966 1355,1301.4966 1355,1358.6091 " fill="none" id="RemotePluginSpi-to-RemoteReaderSpi" style="stroke:#27AE60;stroke-width:2.5;stroke-dasharray:7.0,7.0;"/><polygon fill="#27AE60" points="1355,1371.4316,1365,1348.9316,1355,1358.9316,1345,1348.9316,1355,1371.4316" style="stroke:#27AE60;stroke-width:2.5;"/><polygon fill="#000000" points="1367.5,1287.041,1374.8473,1264.4283,1360.1527,1264.4283,1367.5,1287.041" style="stroke:#000000;stroke-width:2.5;"/><text fill="#000000" font-family="sans-serif" font-size="32.5" lengthAdjust="spacing" textLength="100" x="1390" y="1287.8394">provide</text><!--MD5=[703fd44b470e434ace33754d5a67f1d5]
reverse link RemotePluginApi to RemotePluginSpi--><path codeLine="102" d="M824.9575,967.8516 C882.6375,967.8516 944.29,967.8516 1004.4025,967.8516 " fill="none" id="RemotePluginApi-backto-RemotePluginSpi" style="stroke:#27AE60;stroke-width:2.5;stroke-dasharray:7.0,7.0;"/><polygon fill="#27AE60" points="811.94,967.8516,834.44,977.8516,824.44,967.8516,834.44,957.8516,811.94,967.8516" style="stroke:#27AE60;stroke-width:2.5;"/><polygon fill="#000000" points="863.125,938.291,885.7377,945.6383,885.7377,930.9437,863.125,938.291" style="stroke:#000000;stroke-width:2.5;"/><text fill="#000000" font-family="sans-serif" font-size="32.5" lengthAdjust="spacing" textLength="52.5" x="898.125" y="951.5894">use</text><!--MD5=[36d43ad703d189e4507a4d64a89fef36]
@startuml
title
    Keyple 2.0 - keyple-java-distributed-remote-api - 2.0 (26/03/2021)
end title

' == THEME ==

'Couleurs issues de : https://htmlcolorcodes.com/fr/tableau-de-couleur/tableau-de-couleur-design-plat/
!define C_GREY1 F8F9F9
!define C_GREY2 F2F3F4
!define C_GREY3 E5E7E9
!define C_GREY4 D7DBDD
!define C_GREY5 CACFD2
!define C_GREY6 BDC3C7
!define C_LINK 3498DB
!define C_USE 27AE60

skinparam Shadowing false
skinparam ClassFontStyle italic
skinparam ClassBorderColor #D4AC0D
skinparam stereotypeABorderColor #A9DCDF
skinparam stereotypeIBorderColor #B4A7E5
skinparam stereotypeCBorderColor #ADD1B2
skinparam stereotypeEBorderColor #EB93DF
' Red
skinparam ClassBackgroundColor<<red>> #FDEDEC
skinparam ClassBorderColor<<red>> #E74C3C
hide <<red>> stereotype
' Purple
skinparam ClassBackgroundColor<<purple>> #F4ECF7
skinparam ClassBorderColor<<purple>> #8E44AD
hide <<purple>> stereotype
' blue
skinparam ClassBackgroundColor<<blue>> #EBF5FB
skinparam ClassBorderColor<<blue>> #3498DB
hide <<blue>> stereotype
' Green
skinparam ClassBackgroundColor<<green>> #E9F7EF
skinparam ClassBorderColor<<green>> #27AE60
hide <<green>> stereotype
' Grey
skinparam ClassBackgroundColor<<grey>> #EAECEE
skinparam ClassBorderColor<<grey>> #2C3E50
hide <<grey>> stereotype

' == CONTENT ==

package "org.eclipse.keyple.core.distributed.remote" as api {
    +class "**final** DistributedRemoteApiProperties" as ApiProperties {
        +{static} **final** String VERSION
    }
    +interface RemotePluginApi {
        - -
        +void onReaderEvent (String jsonData)
    }
    +interface ObservableRemotePluginApi extends RemotePluginApi {
        - -
        +void registerMasterReader (RemoteReaderSpi masterReaderSpi)
        +void registerSlaveReader (RemoteReaderSpi slaveReaderSpi,
            \tString masterReaderName, String readerEventJsonData)
        +boolean unregisterReader (Sting readerName)
        ..
        +void onPluginEvent (String jsonData)
    }
    package spi {
        +interface RemotePluginFactorySpi {
            +String getDistributedRemoteApiVersion ()
            +String getCommonsApiVersion ()
            +String getRemotePluginName ()
            +RemotePluginSpi getRemotePlugin ()
            +boolean isPoolPlugin ()
        }
        +interface RemotePluginSpi {
            - -
            +void connect (RemotePluginApi remotePluginApi)
            +String getName ()
            +String executeRemotely (String jsonData)
            +RemoteReaderSpi createRemoteReader (
                \tString localReaderName, boolean isObservable)
            ..
            +boolean isObservable ()
            +void startPluginsObservation ()
            +void stopPluginsObservation ()
        }
        +interface RemoteReaderSpi {
            - -
            +String getName ()
            +String executeRemotely (String jsonData)
            ..
            +boolean isObservable ()
            +void startReaderObservation ()
            +void stopReaderObservation ()
        }
    }
}

' Associations

RemotePluginFactorySpi .left.> ApiProperties #C_USE : provide\nAPI version <
RemotePluginFactorySpi ..> RemotePluginSpi #C_USE : provide >

RemotePluginSpi ..> RemoteReaderSpi #C_USE : provide >
RemotePluginSpi .left.> RemotePluginApi #C_USE : use >

' == LAYOUT ==

'ObservableRemotePluginSpi -[hidden]- RemoteReaderSpi

' == STYLE ==

package api #C_GREY1 {}
package spi #C_GREY2 {}

@enduml

@startuml
title
    Keyple 2.0 - keyple-java-distributed-remote-api - 2.0 (26/03/2021)
end title



skinparam Shadowing false
skinparam ClassFontStyle italic
skinparam ClassBorderColor #D4AC0D
skinparam stereotypeABorderColor #A9DCDF
skinparam stereotypeIBorderColor #B4A7E5
skinparam stereotypeCBorderColor #ADD1B2
skinparam stereotypeEBorderColor #EB93DF
skinparam ClassBackgroundColor<<red>> #FDEDEC
skinparam ClassBorderColor<<red>> #E74C3C
hide <<red>> stereotype
skinparam ClassBackgroundColor<<purple>> #F4ECF7
skinparam ClassBorderColor<<purple>> #8E44AD
hide <<purple>> stereotype
skinparam ClassBackgroundColor<<blue>> #EBF5FB
skinparam ClassBorderColor<<blue>> #3498DB
hide <<blue>> stereotype
skinparam ClassBackgroundColor<<green>> #E9F7EF
skinparam ClassBorderColor<<green>> #27AE60
hide <<green>> stereotype
skinparam ClassBackgroundColor<<grey>> #EAECEE
skinparam ClassBorderColor<<grey>> #2C3E50
hide <<grey>> stereotype


package "org.eclipse.keyple.core.distributed.remote" as api {
    +class "**final** DistributedRemoteApiProperties" as ApiProperties {
        +{static} **final** String VERSION
    }
    +interface RemotePluginApi {
        - -
        +void onReaderEvent (String jsonData)
    }
    +interface ObservableRemotePluginApi extends RemotePluginApi {
        - -
        +void registerMasterReader (RemoteReaderSpi masterReaderSpi)
        +void registerSlaveReader (RemoteReaderSpi slaveReaderSpi,
            \tString masterReaderName, String readerEventJsonData)
        +boolean unregisterReader (Sting readerName)
        ..
        +void onPluginEvent (String jsonData)
    }
    package spi {
        +interface RemotePluginFactorySpi {
            +String getDistributedRemoteApiVersion ()
            +String getCommonsApiVersion ()
            +String getRemotePluginName ()
            +RemotePluginSpi getRemotePlugin ()
            +boolean isPoolPlugin ()
        }
        +interface RemotePluginSpi {
            - -
            +void connect (RemotePluginApi remotePluginApi)
            +String getName ()
            +String executeRemotely (String jsonData)
            +RemoteReaderSpi createRemoteReader (
                \tString localReaderName, boolean isObservable)
            ..
            +boolean isObservable ()
            +void startPluginsObservation ()
            +void stopPluginsObservation ()
        }
        +interface RemoteReaderSpi {
            - -
            +String getName ()
            +String executeRemotely (String jsonData)
            ..
            +boolean isObservable ()
            +void startReaderObservation ()
            +void stopReaderObservation ()
        }
    }
}


RemotePluginFactorySpi .left.> ApiProperties #27AE60 : provide\nAPI version <
RemotePluginFactorySpi ..> RemotePluginSpi #27AE60 : provide >

RemotePluginSpi ..> RemoteReaderSpi #27AE60 : provide >
RemotePluginSpi .left.> RemotePluginApi #27AE60 : use >




package api #F8F9F9 {}
package spi #F2F3F4 {}

@enduml

PlantUML version 1.2021.2(Sun Mar 07 12:10:27 CET 2021)
(GPL source distribution)
Java Runtime: OpenJDK Runtime Environment
JVM: OpenJDK 64-Bit Server VM
Default Encoding: Cp1252
Language: fr
Country: FR
--></g></svg>