<?xml version="1.0" encoding="UTF-8" standalone="no"?><svg xmlns="http://www.w3.org/2000/svg" xmlns:xlink="http://www.w3.org/1999/xlink" contentScriptType="application/ecmascript" contentStyleType="text/css" height="1182.5px" preserveAspectRatio="none" style="width:2340px;height:1182px;" version="1.1" viewBox="0 0 2340 1182" width="2340px" zoomAndPan="magnify"><defs><filter height="1" id="b11l2q1zc21hx70" width="1" x="0" y="0"><feFlood flood-color="#00FFFF" result="flood"/><feComposite in="SourceGraphic" in2="flood" operator="over"/></filter></defs><g><text fill="#000000" font-family="sans-serif" font-size="45" lengthAdjust="spacing" textLength="1255" x="526.25" y="46.7139">Keyple 2.0 - keyple-java-distributed-local-api - 2.0 (11/03/2021)</text><!--MD5=[7442f3b126ee602ae02566c1a49e158a]
cluster api--><polygon fill="#F8F9F9" points="40,71.6016,762.5,71.6016,780,130.625,2297.5,130.625,2297.5,1166.6016,40,1166.6016,40,71.6016" style="stroke:#000000;stroke-width:3.75;"/><line style="stroke:#000000;stroke-width:3.75;" x1="40" x2="780" y1="130.625" y2="130.625"/><text fill="#000000" font-family="sans-serif" font-size="35" font-weight="bold" lengthAdjust="spacing" textLength="707.5" x="50" y="112.9346">org.eclipse.keyple.core.distributed.local</text><!--MD5=[f7e0e2453c87923036c1ac2adfb9cbf0]
cluster spi--><polygon fill="#F2F3F4" points="992.5,181.6016,1060,181.6016,1077.5,240.625,2237.5,240.625,2237.5,1094.1016,992.5,1094.1016,992.5,181.6016" style="stroke:#000000;stroke-width:3.75;"/><line style="stroke:#000000;stroke-width:3.75;" x1="992.5" x2="1077.5" y1="240.625" y2="240.625"/><text fill="#000000" font-family="sans-serif" font-size="35" font-weight="bold" lengthAdjust="spacing" textLength="52.5" x="1002.5" y="222.9346">spi</text><!--MD5=[120218adfd8782b0057db0a1b8294250]
class ApiProperties--><rect codeLine="48" fill="#FEFECE" height="154.5898" id="ApiProperties" style="stroke:#D4AC0D;stroke-width:3.75;" width="585" x="367.5" y="322.8516"/><ellipse cx="405" cy="362.8516" fill="#ADD1B2" rx="27.5" ry="27.5" style="stroke:#ADD1B2;stroke-width:2.5;"/><path d="M410,354.1016 Q410.5078,352.8516 411.0938,352.2266 Q411.6797,351.6016 412.3438,351.6016 Q413.5156,351.6016 414.2578,352.3047 Q415,353.0078 415,354.6484 L415,358.5547 Q415,360.1953 414.2969,360.8984 Q413.5938,361.6016 412.5,361.6016 Q411.5234,361.6016 410.8984,361.1719 Q410.2734,360.7422 410,359.6094 Q409.8828,358.8281 409.4531,358.3984 Q408.6719,357.5781 407.2656,357.1094 Q405.8594,356.6016 404.4531,356.6016 Q402.6953,356.6016 401.2109,357.3047 Q399.7656,358.0078 398.6328,359.5703 Q397.5,361.1328 397.5,363.2813 L397.5,365.5859 Q397.5,368.1641 399.6094,369.8828 Q401.7188,371.6016 405.4688,371.6016 Q407.6953,371.6016 409.2578,371.0938 Q410.1563,370.8203 411.1719,369.9219 Q411.8359,369.4141 412.1875,369.2578 Q412.5391,369.1016 412.9688,369.1016 Q413.7891,369.1016 414.375,369.7656 Q415,370.3906 415,371.2891 Q415,372.1484 414.1406,373.1641 Q412.8906,374.6484 410.8984,375.4688 Q408.2813,376.6016 405.0781,376.6016 Q401.3281,376.6016 398.3203,375.1172 Q395.8984,373.9453 394.1797,371.4063 Q392.5,368.8672 392.5,365.8594 L392.5,363.125 Q392.5,360 393.9844,357.2656 Q395.5078,354.5313 398.125,353.0859 Q400.7813,351.6016 403.75,351.6016 Q405.5469,351.6016 407.1094,352.2266 Q408.6719,352.8516 410,354.1016 Z " fill="#000000"/><ellipse cx="452.5" cy="361.6016" fill="#84BE84" rx="7.5" ry="7.5" style="stroke:#038048;stroke-width:2.5;"/><text fill="#000000" font-family="sans-serif" font-size="30" font-style="italic" font-weight="bold" lengthAdjust="spacing" textLength="60" x="467.5" y="375.127">final</text><text fill="#000000" font-family="sans-serif" font-size="30" font-style="italic" lengthAdjust="spacing" textLength="410" x="535" y="375.127">DistributedLocalApiProperties</text><line style="stroke:#D4AC0D;stroke-width:3.75;" x1="370" x2="950" y1="402.8516" y2="402.8516"/><ellipse cx="395" cy="430.3516" fill="none" rx="7.5" ry="7.5" style="stroke:#038048;stroke-width:2.5;"/><text fill="#000000" font-family="sans-serif" font-size="27.5" font-weight="bold" lengthAdjust="spacing" text-decoration="underline" textLength="57.5" x="417.5" y="441.3989">final</text><text fill="#000000" font-family="sans-serif" font-size="27.5" lengthAdjust="spacing" text-decoration="underline" textLength="190" x="482.5" y="441.3989">String VERSION</text><line style="stroke:#D4AC0D;stroke-width:3.75;" x1="370" x2="950" y1="457.4414" y2="457.4414"/><!--MD5=[a13c0cf38349583a7e8de9bb2d456b2e]
class LocalServiceManager--><rect codeLine="51" fill="#FEFECE" height="402.1289" id="LocalServiceManager" style="stroke:#D4AC0D;stroke-width:3.75;" width="775" x="80" y="724.1016"/><ellipse cx="294.375" cy="764.1016" fill="#B4A7E5" rx="27.5" ry="27.5" style="stroke:#B4A7E5;stroke-width:2.5;"/><path d="M296.875,756.6016 L296.875,771.6016 L301.875,771.6016 L303.0859,771.6016 L304.375,773.1641 L304.375,774.1016 L304.375,775.0391 L303.0859,776.6016 L301.875,776.6016 L286.875,776.6016 L285.6641,776.6016 L284.375,775.0391 L284.375,774.1016 L284.375,773.1641 L285.6641,771.6016 L286.875,771.6016 L291.875,771.6016 L291.875,756.6016 L286.875,756.6016 L285.6641,756.6016 L284.375,755.0391 L284.375,754.1016 L284.375,753.1641 L285.6641,751.6016 L286.875,751.6016 L301.875,751.6016 L303.0859,751.6016 L304.375,753.1641 L304.375,754.1016 L304.375,755.0391 L303.0859,756.6016 L301.875,756.6016 L296.875,756.6016 Z " fill="#000000"/><ellipse cx="358.125" cy="762.8516" fill="#84BE84" rx="7.5" ry="7.5" style="stroke:#038048;stroke-width:2.5;"/><text fill="#000000" font-family="sans-serif" font-size="30" font-style="italic" lengthAdjust="spacing" textLength="297.5" x="373.125" y="776.377">LocalServiceManager</text><line style="stroke:#D4AC0D;stroke-width:3.75;" x1="82.5" x2="852.5" y1="804.1016" y2="804.1016"/><ellipse cx="107.5" cy="831.6016" fill="#84BE84" rx="7.5" ry="7.5" style="stroke:#038048;stroke-width:2.5;"/><text fill="#000000" font-family="sans-serif" font-size="27.5" lengthAdjust="spacing" textLength="710" x="130" y="842.6489">String executeLocally (String readerName, String jsonData)</text><line style="stroke:#D4AC0D;stroke-width:2.5;stroke-dasharray:1.0,2.0;" x1="82.5" x2="852.5" y1="858.6914" y2="858.6914"/><ellipse cx="107.5" cy="886.1914" fill="#84BE84" rx="7.5" ry="7.5" style="stroke:#038048;stroke-width:2.5;"/><text fill="#000000" font-family="sans-serif" font-size="27.5" lengthAdjust="spacing" textLength="602.5" x="130" y="897.2388">boolean isReaderObservable (String readerName)</text><ellipse cx="107.5" cy="920.7813" fill="#84BE84" rx="7.5" ry="7.5" style="stroke:#038048;stroke-width:2.5;"/><text fill="#000000" font-family="sans-serif" font-size="27.5" lengthAdjust="spacing" textLength="600" x="130" y="931.8286">void startReaderObservation (String readerName)</text><ellipse cx="107.5" cy="955.3711" fill="#84BE84" rx="7.5" ry="7.5" style="stroke:#038048;stroke-width:2.5;"/><text fill="#000000" font-family="sans-serif" font-size="27.5" lengthAdjust="spacing" textLength="597.5" x="130" y="966.4185">void stopReaderObservation (String readerName)</text><line style="stroke:#D4AC0D;stroke-width:2.5;stroke-dasharray:1.0,2.0;" x1="82.5" x2="852.5" y1="982.4609" y2="982.4609"/><ellipse cx="107.5" cy="1009.9609" fill="#84BE84" rx="7.5" ry="7.5" style="stroke:#038048;stroke-width:2.5;"/><text fill="#000000" font-family="sans-serif" font-size="27.5" lengthAdjust="spacing" textLength="372.5" x="130" y="1021.0083">void startPluginsObservation ()</text><ellipse cx="107.5" cy="1044.5508" fill="#84BE84" rx="7.5" ry="7.5" style="stroke:#038048;stroke-width:2.5;"/><text fill="#000000" font-family="sans-serif" font-size="27.5" lengthAdjust="spacing" textLength="370" x="130" y="1055.5981">void stopPluginsObservation ()</text><line style="stroke:#D4AC0D;stroke-width:2.5;stroke-dasharray:1.0,2.0;" x1="82.5" x2="852.5" y1="1071.6406" y2="1071.6406"/><ellipse cx="107.5" cy="1099.1406" fill="#84BE84" rx="7.5" ry="7.5" style="stroke:#038048;stroke-width:2.5;"/><text fill="#000000" font-family="sans-serif" font-size="27.5" lengthAdjust="spacing" textLength="627.5" x="130" y="1110.188">void setPoolPluginNames (String... poolPluginNames)</text><!--MD5=[ba23ee47f0072bc0aa0f26e4f66e8703]
class LocalServiceFactorySpi--><rect codeLine="64" fill="#FEFECE" height="258.3594" id="LocalServiceFactorySpi" style="stroke:#D4AC0D;stroke-width:3.75;" width="535" x="1267.5" y="271.6016"/><ellipse cx="1352.25" cy="311.6016" fill="#B4A7E5" rx="27.5" ry="27.5" style="stroke:#B4A7E5;stroke-width:2.5;"/><path d="M1354.75,304.1016 L1354.75,319.1016 L1359.75,319.1016 L1360.9609,319.1016 L1362.25,320.6641 L1362.25,321.6016 L1362.25,322.5391 L1360.9609,324.1016 L1359.75,324.1016 L1344.75,324.1016 L1343.5391,324.1016 L1342.25,322.5391 L1342.25,321.6016 L1342.25,320.6641 L1343.5391,319.1016 L1344.75,319.1016 L1349.75,319.1016 L1349.75,304.1016 L1344.75,304.1016 L1343.5391,304.1016 L1342.25,302.5391 L1342.25,301.6016 L1342.25,300.6641 L1343.5391,299.1016 L1344.75,299.1016 L1359.75,299.1016 L1360.9609,299.1016 L1362.25,300.6641 L1362.25,301.6016 L1362.25,302.5391 L1360.9609,304.1016 L1359.75,304.1016 L1354.75,304.1016 Z " fill="#000000"/><ellipse cx="1410.25" cy="310.3516" fill="#84BE84" rx="7.5" ry="7.5" style="stroke:#038048;stroke-width:2.5;"/><text fill="#000000" font-family="sans-serif" font-size="30" font-style="italic" lengthAdjust="spacing" textLength="322.5" x="1425.25" y="323.877">LocalServiceFactorySpi</text><line style="stroke:#D4AC0D;stroke-width:3.75;" x1="1270" x2="1800" y1="351.6016" y2="351.6016"/><line style="stroke:#D4AC0D;stroke-width:3.75;" x1="1270" x2="1800" y1="371.6016" y2="371.6016"/><ellipse cx="1295" cy="399.1016" fill="#84BE84" rx="7.5" ry="7.5" style="stroke:#038048;stroke-width:2.5;"/><text fill="#000000" font-family="sans-serif" font-size="27.5" lengthAdjust="spacing" textLength="470" x="1317.5" y="410.1489">String getDistributedLocalApiVersion ()</text><ellipse cx="1295" cy="433.6914" fill="#84BE84" rx="7.5" ry="7.5" style="stroke:#038048;stroke-width:2.5;"/><text fill="#000000" font-family="sans-serif" font-size="27.5" lengthAdjust="spacing" textLength="395" x="1317.5" y="444.7388">String getCommonsApiVersion ()</text><ellipse cx="1295" cy="468.2813" fill="#84BE84" rx="7.5" ry="7.5" style="stroke:#038048;stroke-width:2.5;"/><text fill="#000000" font-family="sans-serif" font-size="27.5" lengthAdjust="spacing" textLength="367.5" x="1317.5" y="479.3286">String getLocalServiceName ()</text><ellipse cx="1295" cy="502.8711" fill="#84BE84" rx="7.5" ry="7.5" style="stroke:#038048;stroke-width:2.5;"/><text fill="#000000" font-family="sans-serif" font-size="27.5" lengthAdjust="spacing" textLength="425" x="1317.5" y="513.9185">LocalServiceSpi getLocalService ()</text><!--MD5=[a6e181576af5f47505adeb022c95499b]
class LocalServiceSpi--><rect codeLine="70" fill="#FEFECE" height="258.3594" id="LocalServiceSpi" style="stroke:#D4AC0D;stroke-width:3.75;" width="1165" x="1032.5" y="796.6016"/><ellipse cx="1479.375" cy="836.6016" fill="#B4A7E5" rx="27.5" ry="27.5" style="stroke:#B4A7E5;stroke-width:2.5;"/><path d="M1481.875,829.1016 L1481.875,844.1016 L1486.875,844.1016 L1488.0859,844.1016 L1489.375,845.6641 L1489.375,846.6016 L1489.375,847.5391 L1488.0859,849.1016 L1486.875,849.1016 L1471.875,849.1016 L1470.6641,849.1016 L1469.375,847.5391 L1469.375,846.6016 L1469.375,845.6641 L1470.6641,844.1016 L1471.875,844.1016 L1476.875,844.1016 L1476.875,829.1016 L1471.875,829.1016 L1470.6641,829.1016 L1469.375,827.5391 L1469.375,826.6016 L1469.375,825.6641 L1470.6641,824.1016 L1471.875,824.1016 L1486.875,824.1016 L1488.0859,824.1016 L1489.375,825.6641 L1489.375,826.6016 L1489.375,827.5391 L1488.0859,829.1016 L1486.875,829.1016 L1481.875,829.1016 Z " fill="#000000"/><ellipse cx="1543.125" cy="835.3516" fill="#84BE84" rx="7.5" ry="7.5" style="stroke:#038048;stroke-width:2.5;"/><text fill="#000000" font-family="sans-serif" font-size="30" font-style="italic" lengthAdjust="spacing" textLength="222.5" x="1558.125" y="848.877">LocalServiceSpi</text><line style="stroke:#D4AC0D;stroke-width:3.75;" x1="1035" x2="2195" y1="876.6016" y2="876.6016"/><line style="stroke:#D4AC0D;stroke-width:3.75;" x1="1035" x2="2195" y1="896.6016" y2="896.6016"/><ellipse cx="1060" cy="924.1016" fill="#84BE84" rx="7.5" ry="7.5" style="stroke:#038048;stroke-width:2.5;"/><text fill="#000000" font-family="sans-serif" font-size="27.5" lengthAdjust="spacing" textLength="602.5" x="1082.5" y="935.1489">void setManager (LocalServiceManager manager)</text><ellipse cx="1060" cy="958.6914" fill="#84BE84" rx="7.5" ry="7.5" style="stroke:#038048;stroke-width:2.5;"/><text fill="#000000" font-family="sans-serif" font-size="27.5" lengthAdjust="spacing" textLength="210" x="1082.5" y="969.7388">String getName ()</text><ellipse cx="1060" cy="993.2813" fill="#84BE84" rx="7.5" ry="7.5" style="stroke:#038048;stroke-width:2.5;"/><text fill="#000000" font-family="sans-serif" font-size="27.5" lengthAdjust="spacing" textLength="672.5" x="1082.5" y="1004.3286">void onPluginEvent (String readerName, String jsonData,</text><text fill="#000000" filter="url(#b11l2q1zc21hx70)" font-family="sans-serif" font-size="27.5" lengthAdjust="spacing" textLength="220" x="1762.5" y="1004.3286">KeyplePluginEvent</text><text fill="#000000" font-family="sans-serif" font-size="27.5" lengthAdjust="spacing" textLength="147.5" x="1990" y="1004.3286">pluginEvent)</text><ellipse cx="1060" cy="1027.8711" fill="#84BE84" rx="7.5" ry="7.5" style="stroke:#038048;stroke-width:2.5;"/><text fill="#000000" font-family="sans-serif" font-size="27.5" lengthAdjust="spacing" textLength="690" x="1082.5" y="1038.9185">void onReaderEvent (String readerName, String jsonData,</text><text fill="#000000" filter="url(#b11l2q1zc21hx70)" font-family="sans-serif" font-size="27.5" lengthAdjust="spacing" textLength="237.5" x="1780" y="1038.9185">KeypleReaderEvent</text><text fill="#000000" font-family="sans-serif" font-size="27.5" lengthAdjust="spacing" textLength="157.5" x="2025" y="1038.9185">readerEvent)</text><!--MD5=[e074787443691281e6486459aba16e12]
reverse link ApiProperties to LocalServiceFactorySpi--><path codeLine="81" d="M965.7375,400.3516 C1063.8925,400.3516 1171.8075,400.3516 1267.04,400.3516 " fill="none" id="ApiProperties-backto-LocalServiceFactorySpi" style="stroke:#27AE60;stroke-width:2.5;stroke-dasharray:7.0,7.0;"/><polygon fill="#27AE60" points="952.58,400.3516,975.08,410.3516,965.08,400.3516,975.08,390.3516,952.58,400.3516" style="stroke:#27AE60;stroke-width:2.5;"/><text fill="#000000" font-family="sans-serif" font-size="32.5" lengthAdjust="spacing" textLength="100" x="1060" y="344.0894">provide</text><polygon fill="#000000" points="1012.5,371.6699,1035.1127,379.0172,1035.1127,364.3226,1012.5,371.6699" style="stroke:#000000;stroke-width:2.5;"/><text fill="#000000" font-family="sans-serif" font-size="32.5" lengthAdjust="spacing" textLength="162.5" x="1045" y="384.9683">API version</text><!--MD5=[618e7031c65a5cf122f68545294b0993]
link LocalServiceFactorySpi to LocalServiceSpi--><path codeLine="82" d="M1554.4675,529.3941 C1566.2775,606.1541 1581.3625,704.2116 1593.52,783.2291 " fill="none" id="LocalServiceFactorySpi-to-LocalServiceSpi" style="stroke:#27AE60;stroke-width:2.5;stroke-dasharray:7.0,7.0;"/><polygon fill="#27AE60" points="1595.445,795.7416,1601.9018,771.9811,1593.5413,783.3874,1582.135,775.027,1595.445,795.7416" style="stroke:#27AE60;stroke-width:2.5;"/><polygon fill="#000000" points="1586.9008,639.3957,1590.7241,615.9287,1576.2004,618.1631,1586.9008,639.3957" style="stroke:#000000;stroke-width:2.5;"/><text fill="#000000" font-family="sans-serif" font-size="32.5" lengthAdjust="spacing" textLength="100" x="1607.5" y="640.3394">provide</text><!--MD5=[ac6fd69cf75591a3f31bcf7696da0e56]
reverse link LocalServiceManager to LocalServiceSpi--><path codeLine="84" d="M867.9075,925.3516 C920.9575,925.3516 976.1925,925.3516 1031.545,925.3516 " fill="none" id="LocalServiceManager-backto-LocalServiceSpi" style="stroke:#27AE60;stroke-width:2.5;stroke-dasharray:7.0,7.0;"/><polygon fill="#27AE60" points="855.19,925.3516,877.69,935.3516,867.69,925.3516,877.69,915.3516,855.19,925.3516" style="stroke:#27AE60;stroke-width:2.5;"/><polygon fill="#000000" points="898.75,895.791,921.3627,903.1383,921.3627,888.4437,898.75,895.791" style="stroke:#000000;stroke-width:2.5;"/><text fill="#000000" font-family="sans-serif" font-size="32.5" lengthAdjust="spacing" textLength="52.5" x="933.75" y="909.0894">use</text><!--MD5=[b08a07b217d05363f59e9d19d5366d7d]
@startuml
title
    Keyple 2.0 - keyple-java-distributed-local-api - 2.0 (11/03/2021)
end title

' == THEME ==

'Couleurs issues de : https://htmlcolorcodes.com/fr/tableau-de-couleur/tableau-de-couleur-design-plat/
!define C_GREY1 F8F9F9
!define C_GREY2 F2F3F4
!define C_GREY3 E5E7E9
!define C_GREY4 D7DBDD
!define C_GREY5 CACFD2
!define C_GREY6 BDC3C7
!define C_LINK 3498DB
!define C_USE 27AE60

skinparam Shadowing false
skinparam ClassFontStyle italic
skinparam ClassBorderColor #D4AC0D
skinparam stereotypeABorderColor #A9DCDF
skinparam stereotypeIBorderColor #B4A7E5
skinparam stereotypeCBorderColor #ADD1B2
skinparam stereotypeEBorderColor #EB93DF
' Red
skinparam ClassBackgroundColor<<red>> #FDEDEC
skinparam ClassBorderColor<<red>> #E74C3C
hide <<red>> stereotype
' Purple
skinparam ClassBackgroundColor<<purple>> #F4ECF7
skinparam ClassBorderColor<<purple>> #8E44AD
hide <<purple>> stereotype
' blue
skinparam ClassBackgroundColor<<blue>> #EBF5FB
skinparam ClassBorderColor<<blue>> #3498DB
hide <<blue>> stereotype
' Green
skinparam ClassBackgroundColor<<green>> #E9F7EF
skinparam ClassBorderColor<<green>> #27AE60
hide <<green>> stereotype
' Grey
skinparam ClassBackgroundColor<<grey>> #EAECEE
skinparam ClassBorderColor<<grey>> #2C3E50
hide <<grey>> stereotype

' == CONTENT ==

package "org.eclipse.keyple.core.distributed.local" as api {
    +class "**final** DistributedLocalApiProperties" as ApiProperties {
        +{static} **final** String VERSION
    }
    +interface LocalServiceManager {
        +String executeLocally (String readerName, String jsonData)
        ..
        +boolean isReaderObservable (String readerName)
        +void startReaderObservation (String readerName)
        +void stopReaderObservation (String readerName)
        ..
        +void startPluginsObservation ()
        +void stopPluginsObservation ()
        ..
        +void setPoolPluginNames (String... poolPluginNames)
    }
    package spi {
        +interface LocalServiceFactorySpi {
            +String getDistributedLocalApiVersion ()
            +String getCommonsApiVersion ()
            +String getLocalServiceName ()
            +LocalServiceSpi getLocalService ()
        }
        +interface LocalServiceSpi {
            +void setManager (LocalServiceManager manager)
            +String getName ()
            +void onPluginEvent (String readerName, String jsonData, <back:cyan>KeyplePluginEvent</back> pluginEvent)
            +void onReaderEvent (String readerName, String jsonData, <back:cyan>KeypleReaderEvent</back> readerEvent)
        }
    }
}

' Associations

LocalServiceFactorySpi .left.> ApiProperties #C_USE : provide\nAPI version <
LocalServiceFactorySpi ..> LocalServiceSpi #C_USE : provide >

LocalServiceSpi .left.> LocalServiceManager #C_USE : use >

' == LAYOUT ==

'PoolRemotePluginSpi -[hidden]- ObservableRemotePluginSpi

' == STYLE ==

package api #C_GREY1 {}
package spi #C_GREY2 {}

@enduml

@startuml
title
    Keyple 2.0 - keyple-java-distributed-local-api - 2.0 (11/03/2021)
end title



skinparam Shadowing false
skinparam ClassFontStyle italic
skinparam ClassBorderColor #D4AC0D
skinparam stereotypeABorderColor #A9DCDF
skinparam stereotypeIBorderColor #B4A7E5
skinparam stereotypeCBorderColor #ADD1B2
skinparam stereotypeEBorderColor #EB93DF
skinparam ClassBackgroundColor<<red>> #FDEDEC
skinparam ClassBorderColor<<red>> #E74C3C
hide <<red>> stereotype
skinparam ClassBackgroundColor<<purple>> #F4ECF7
skinparam ClassBorderColor<<purple>> #8E44AD
hide <<purple>> stereotype
skinparam ClassBackgroundColor<<blue>> #EBF5FB
skinparam ClassBorderColor<<blue>> #3498DB
hide <<blue>> stereotype
skinparam ClassBackgroundColor<<green>> #E9F7EF
skinparam ClassBorderColor<<green>> #27AE60
hide <<green>> stereotype
skinparam ClassBackgroundColor<<grey>> #EAECEE
skinparam ClassBorderColor<<grey>> #2C3E50
hide <<grey>> stereotype


package "org.eclipse.keyple.core.distributed.local" as api {
    +class "**final** DistributedLocalApiProperties" as ApiProperties {
        +{static} **final** String VERSION
    }
    +interface LocalServiceManager {
        +String executeLocally (String readerName, String jsonData)
        ..
        +boolean isReaderObservable (String readerName)
        +void startReaderObservation (String readerName)
        +void stopReaderObservation (String readerName)
        ..
        +void startPluginsObservation ()
        +void stopPluginsObservation ()
        ..
        +void setPoolPluginNames (String... poolPluginNames)
    }
    package spi {
        +interface LocalServiceFactorySpi {
            +String getDistributedLocalApiVersion ()
            +String getCommonsApiVersion ()
            +String getLocalServiceName ()
            +LocalServiceSpi getLocalService ()
        }
        +interface LocalServiceSpi {
            +void setManager (LocalServiceManager manager)
            +String getName ()
            +void onPluginEvent (String readerName, String jsonData, <back:cyan>KeyplePluginEvent</back> pluginEvent)
            +void onReaderEvent (String readerName, String jsonData, <back:cyan>KeypleReaderEvent</back> readerEvent)
        }
    }
}


LocalServiceFactorySpi .left.> ApiProperties #27AE60 : provide\nAPI version <
LocalServiceFactorySpi ..> LocalServiceSpi #27AE60 : provide >

LocalServiceSpi .left.> LocalServiceManager #27AE60 : use >




package api #F8F9F9 {}
package spi #F2F3F4 {}

@enduml

PlantUML version 1.2021.01(Tue Feb 02 08:55:08 CET 2021)
(GPL source distribution)
Java Runtime: OpenJDK Runtime Environment
JVM: OpenJDK 64-Bit Server VM
Default Encoding: Cp1252
Language: fr
Country: FR
--></g></svg>