<?xml version="1.0" encoding="UTF-8" standalone="no"?><svg xmlns="http://www.w3.org/2000/svg" xmlns:xlink="http://www.w3.org/1999/xlink" contentScriptType="application/ecmascript" contentStyleType="text/css" height="1382.5px" preserveAspectRatio="none" style="width:2340px;height:1382px;" version="1.1" viewBox="0 0 2340 1382" width="2340px" zoomAndPan="magnify"><defs><filter height="1" id="b16iw90fgghw9x0" width="1" x="0" y="0"><feFlood flood-color="#00FFFF" result="flood"/><feComposite in="SourceGraphic" in2="flood" operator="over"/></filter></defs><g><text fill="#000000" font-family="sans-serif" font-size="45" lengthAdjust="spacing" textLength="1255" x="526.25" y="46.7139">Keyple 2.0 - keyple-java-distributed-local-api - 2.0 (15/03/2021)</text><rect fill="#DDDDDD" height="157.0703" rx="12.5" ry="12.5" style="stroke:#000000;stroke-width:2.5;" width="555" x="875" y="76.6016"/><text fill="#000000" font-family="sans-serif" font-size="35" lengthAdjust="spacing" text-decoration="underline" textLength="220" x="890" y="125.4346">Colors legend</text><text fill="#000000" font-family="sans-serif" font-size="35" lengthAdjust="spacing" textLength="10" x="1120" y="125.4346">:</text><ellipse cx="903.75" cy="158.3984" fill="#000000" rx="6.25" ry="6.25" style="stroke:#000000;stroke-width:0.0;"/><text fill="#000000" font-family="sans-serif" font-size="35" lengthAdjust="spacing" text-decoration="underline" textLength="472.5" x="922.5" y="169.458">External public API references</text><text fill="#000000" font-family="sans-serif" font-size="35" lengthAdjust="spacing" textLength="10" x="1405" y="169.458">:</text><rect fill="#000000" height="8.75" style="stroke:#000000;stroke-width:0.0;" width="8.75" x="942.5" y="201.1719"/><text fill="#000000" filter="url(#b16iw90fgghw9x0)" font-family="sans-serif" font-size="35" font-weight="bold" lengthAdjust="spacing" textLength="445" x="955" y="213.4814">keyple-java-commons-api</text><!--MD5=[7442f3b126ee602ae02566c1a49e158a]
cluster api--><polygon fill="#F8F9F9" points="40,271.1719,762.5,271.1719,780,330.1953,2297.5,330.1953,2297.5,1366.1719,40,1366.1719,40,271.1719" style="stroke:#000000;stroke-width:3.75;"/><line style="stroke:#000000;stroke-width:3.75;" x1="40" x2="780" y1="330.1953" y2="330.1953"/><text fill="#000000" font-family="sans-serif" font-size="35" font-weight="bold" lengthAdjust="spacing" textLength="707.5" x="50" y="312.5049">org.eclipse.keyple.core.distributed.local</text><!--MD5=[f7e0e2453c87923036c1ac2adfb9cbf0]
cluster spi--><polygon fill="#F2F3F4" points="992.5,381.1719,1060,381.1719,1077.5,440.1953,2237.5,440.1953,2237.5,1293.6719,992.5,1293.6719,992.5,381.1719" style="stroke:#000000;stroke-width:3.75;"/><line style="stroke:#000000;stroke-width:3.75;" x1="992.5" x2="1077.5" y1="440.1953" y2="440.1953"/><text fill="#000000" font-family="sans-serif" font-size="35" font-weight="bold" lengthAdjust="spacing" textLength="52.5" x="1002.5" y="422.5049">spi</text><!--MD5=[120218adfd8782b0057db0a1b8294250]
class ApiProperties--><rect codeLine="54" fill="#FEFECE" height="154.5898" id="ApiProperties" style="stroke:#D4AC0D;stroke-width:3.75;" width="585" x="367.5" y="522.4219"/><ellipse cx="405" cy="562.4219" fill="#ADD1B2" rx="27.5" ry="27.5" style="stroke:#ADD1B2;stroke-width:2.5;"/><path d="M410,553.6719 Q410.5078,552.4219 411.0938,551.7969 Q411.6797,551.1719 412.3438,551.1719 Q413.5156,551.1719 414.2578,551.875 Q415,552.5781 415,554.2188 L415,558.125 Q415,559.7656 414.2969,560.4688 Q413.5938,561.1719 412.5,561.1719 Q411.5234,561.1719 410.8984,560.7422 Q410.2734,560.3125 410,559.1797 Q409.8828,558.3984 409.4531,557.9688 Q408.6719,557.1484 407.2656,556.6797 Q405.8594,556.1719 404.4531,556.1719 Q402.6953,556.1719 401.2109,556.875 Q399.7656,557.5781 398.6328,559.1406 Q397.5,560.7031 397.5,562.8516 L397.5,565.1563 Q397.5,567.7344 399.6094,569.4531 Q401.7188,571.1719 405.4688,571.1719 Q407.6953,571.1719 409.2578,570.6641 Q410.1563,570.3906 411.1719,569.4922 Q411.8359,568.9844 412.1875,568.8281 Q412.5391,568.6719 412.9688,568.6719 Q413.7891,568.6719 414.375,569.3359 Q415,569.9609 415,570.8594 Q415,571.7188 414.1406,572.7344 Q412.8906,574.2188 410.8984,575.0391 Q408.2813,576.1719 405.0781,576.1719 Q401.3281,576.1719 398.3203,574.6875 Q395.8984,573.5156 394.1797,570.9766 Q392.5,568.4375 392.5,565.4297 L392.5,562.6953 Q392.5,559.5703 393.9844,556.8359 Q395.5078,554.1016 398.125,552.6563 Q400.7813,551.1719 403.75,551.1719 Q405.5469,551.1719 407.1094,551.7969 Q408.6719,552.4219 410,553.6719 Z " fill="#000000"/><ellipse cx="452.5" cy="561.1719" fill="#84BE84" rx="7.5" ry="7.5" style="stroke:#038048;stroke-width:2.5;"/><text fill="#000000" font-family="sans-serif" font-size="30" font-style="italic" font-weight="bold" lengthAdjust="spacing" textLength="60" x="467.5" y="574.6973">final</text><text fill="#000000" font-family="sans-serif" font-size="30" font-style="italic" lengthAdjust="spacing" textLength="410" x="535" y="574.6973">DistributedLocalApiProperties</text><line style="stroke:#D4AC0D;stroke-width:3.75;" x1="370" x2="950" y1="602.4219" y2="602.4219"/><ellipse cx="395" cy="629.9219" fill="none" rx="7.5" ry="7.5" style="stroke:#038048;stroke-width:2.5;"/><text fill="#000000" font-family="sans-serif" font-size="27.5" font-weight="bold" lengthAdjust="spacing" text-decoration="underline" textLength="57.5" x="417.5" y="640.9692">final</text><text fill="#000000" font-family="sans-serif" font-size="27.5" lengthAdjust="spacing" text-decoration="underline" textLength="190" x="482.5" y="640.9692">String VERSION</text><line style="stroke:#D4AC0D;stroke-width:3.75;" x1="370" x2="950" y1="657.0117" y2="657.0117"/><!--MD5=[a13c0cf38349583a7e8de9bb2d456b2e]
class LocalServiceManager--><rect codeLine="57" fill="#FEFECE" height="402.1289" id="LocalServiceManager" style="stroke:#D4AC0D;stroke-width:3.75;" width="775" x="80" y="923.6719"/><ellipse cx="294.375" cy="963.6719" fill="#B4A7E5" rx="27.5" ry="27.5" style="stroke:#B4A7E5;stroke-width:2.5;"/><path d="M296.875,956.1719 L296.875,971.1719 L301.875,971.1719 L303.0859,971.1719 L304.375,972.7344 L304.375,973.6719 L304.375,974.6094 L303.0859,976.1719 L301.875,976.1719 L286.875,976.1719 L285.6641,976.1719 L284.375,974.6094 L284.375,973.6719 L284.375,972.7344 L285.6641,971.1719 L286.875,971.1719 L291.875,971.1719 L291.875,956.1719 L286.875,956.1719 L285.6641,956.1719 L284.375,954.6094 L284.375,953.6719 L284.375,952.7344 L285.6641,951.1719 L286.875,951.1719 L301.875,951.1719 L303.0859,951.1719 L304.375,952.7344 L304.375,953.6719 L304.375,954.6094 L303.0859,956.1719 L301.875,956.1719 L296.875,956.1719 Z " fill="#000000"/><ellipse cx="358.125" cy="962.4219" fill="#84BE84" rx="7.5" ry="7.5" style="stroke:#038048;stroke-width:2.5;"/><text fill="#000000" font-family="sans-serif" font-size="30" font-style="italic" lengthAdjust="spacing" textLength="297.5" x="373.125" y="975.9473">LocalServiceManager</text><line style="stroke:#D4AC0D;stroke-width:3.75;" x1="82.5" x2="852.5" y1="1003.6719" y2="1003.6719"/><ellipse cx="107.5" cy="1031.1719" fill="#84BE84" rx="7.5" ry="7.5" style="stroke:#038048;stroke-width:2.5;"/><text fill="#000000" font-family="sans-serif" font-size="27.5" lengthAdjust="spacing" textLength="710" x="130" y="1042.2192">String executeLocally (String readerName, String jsonData)</text><line style="stroke:#D4AC0D;stroke-width:2.5;stroke-dasharray:1.0,2.0;" x1="82.5" x2="852.5" y1="1058.2617" y2="1058.2617"/><ellipse cx="107.5" cy="1085.7617" fill="#84BE84" rx="7.5" ry="7.5" style="stroke:#038048;stroke-width:2.5;"/><text fill="#000000" font-family="sans-serif" font-size="27.5" lengthAdjust="spacing" textLength="602.5" x="130" y="1096.8091">boolean isReaderObservable (String readerName)</text><ellipse cx="107.5" cy="1120.3516" fill="#84BE84" rx="7.5" ry="7.5" style="stroke:#038048;stroke-width:2.5;"/><text fill="#000000" font-family="sans-serif" font-size="27.5" lengthAdjust="spacing" textLength="600" x="130" y="1131.3989">void startReaderObservation (String readerName)</text><ellipse cx="107.5" cy="1154.9414" fill="#84BE84" rx="7.5" ry="7.5" style="stroke:#038048;stroke-width:2.5;"/><text fill="#000000" font-family="sans-serif" font-size="27.5" lengthAdjust="spacing" textLength="597.5" x="130" y="1165.9888">void stopReaderObservation (String readerName)</text><line style="stroke:#D4AC0D;stroke-width:2.5;stroke-dasharray:1.0,2.0;" x1="82.5" x2="852.5" y1="1182.0313" y2="1182.0313"/><ellipse cx="107.5" cy="1209.5313" fill="#84BE84" rx="7.5" ry="7.5" style="stroke:#038048;stroke-width:2.5;"/><text fill="#000000" font-family="sans-serif" font-size="27.5" lengthAdjust="spacing" textLength="372.5" x="130" y="1220.5786">void startPluginsObservation ()</text><ellipse cx="107.5" cy="1244.1211" fill="#84BE84" rx="7.5" ry="7.5" style="stroke:#038048;stroke-width:2.5;"/><text fill="#000000" font-family="sans-serif" font-size="27.5" lengthAdjust="spacing" textLength="370" x="130" y="1255.1685">void stopPluginsObservation ()</text><line style="stroke:#D4AC0D;stroke-width:2.5;stroke-dasharray:1.0,2.0;" x1="82.5" x2="852.5" y1="1271.2109" y2="1271.2109"/><ellipse cx="107.5" cy="1298.7109" fill="#84BE84" rx="7.5" ry="7.5" style="stroke:#038048;stroke-width:2.5;"/><text fill="#000000" font-family="sans-serif" font-size="27.5" lengthAdjust="spacing" textLength="627.5" x="130" y="1309.7583">void setPoolPluginNames (String... poolPluginNames)</text><!--MD5=[ba23ee47f0072bc0aa0f26e4f66e8703]
class LocalServiceFactorySpi--><rect codeLine="70" fill="#FEFECE" height="258.3594" id="LocalServiceFactorySpi" style="stroke:#D4AC0D;stroke-width:3.75;" width="535" x="1267.5" y="471.1719"/><ellipse cx="1352.25" cy="511.1719" fill="#B4A7E5" rx="27.5" ry="27.5" style="stroke:#B4A7E5;stroke-width:2.5;"/><path d="M1354.75,503.6719 L1354.75,518.6719 L1359.75,518.6719 L1360.9609,518.6719 L1362.25,520.2344 L1362.25,521.1719 L1362.25,522.1094 L1360.9609,523.6719 L1359.75,523.6719 L1344.75,523.6719 L1343.5391,523.6719 L1342.25,522.1094 L1342.25,521.1719 L1342.25,520.2344 L1343.5391,518.6719 L1344.75,518.6719 L1349.75,518.6719 L1349.75,503.6719 L1344.75,503.6719 L1343.5391,503.6719 L1342.25,502.1094 L1342.25,501.1719 L1342.25,500.2344 L1343.5391,498.6719 L1344.75,498.6719 L1359.75,498.6719 L1360.9609,498.6719 L1362.25,500.2344 L1362.25,501.1719 L1362.25,502.1094 L1360.9609,503.6719 L1359.75,503.6719 L1354.75,503.6719 Z " fill="#000000"/><ellipse cx="1410.25" cy="509.9219" fill="#84BE84" rx="7.5" ry="7.5" style="stroke:#038048;stroke-width:2.5;"/><text fill="#000000" font-family="sans-serif" font-size="30" font-style="italic" lengthAdjust="spacing" textLength="322.5" x="1425.25" y="523.4473">LocalServiceFactorySpi</text><line style="stroke:#D4AC0D;stroke-width:3.75;" x1="1270" x2="1800" y1="551.1719" y2="551.1719"/><line style="stroke:#D4AC0D;stroke-width:3.75;" x1="1270" x2="1800" y1="571.1719" y2="571.1719"/><ellipse cx="1295" cy="598.6719" fill="#84BE84" rx="7.5" ry="7.5" style="stroke:#038048;stroke-width:2.5;"/><text fill="#000000" font-family="sans-serif" font-size="27.5" lengthAdjust="spacing" textLength="470" x="1317.5" y="609.7192">String getDistributedLocalApiVersion ()</text><ellipse cx="1295" cy="633.2617" fill="#84BE84" rx="7.5" ry="7.5" style="stroke:#038048;stroke-width:2.5;"/><text fill="#000000" font-family="sans-serif" font-size="27.5" lengthAdjust="spacing" textLength="395" x="1317.5" y="644.3091">String getCommonsApiVersion ()</text><ellipse cx="1295" cy="667.8516" fill="#84BE84" rx="7.5" ry="7.5" style="stroke:#038048;stroke-width:2.5;"/><text fill="#000000" font-family="sans-serif" font-size="27.5" lengthAdjust="spacing" textLength="367.5" x="1317.5" y="678.8989">String getLocalServiceName ()</text><ellipse cx="1295" cy="702.4414" fill="#84BE84" rx="7.5" ry="7.5" style="stroke:#038048;stroke-width:2.5;"/><text fill="#000000" font-family="sans-serif" font-size="27.5" lengthAdjust="spacing" textLength="425" x="1317.5" y="713.4888">LocalServiceSpi getLocalService ()</text><!--MD5=[a6e181576af5f47505adeb022c95499b]
class LocalServiceSpi--><rect codeLine="76" fill="#FEFECE" height="258.3594" id="LocalServiceSpi" style="stroke:#D4AC0D;stroke-width:3.75;" width="1165" x="1032.5" y="996.1719"/><ellipse cx="1479.375" cy="1036.1719" fill="#B4A7E5" rx="27.5" ry="27.5" style="stroke:#B4A7E5;stroke-width:2.5;"/><path d="M1481.875,1028.6719 L1481.875,1043.6719 L1486.875,1043.6719 L1488.0859,1043.6719 L1489.375,1045.2344 L1489.375,1046.1719 L1489.375,1047.1094 L1488.0859,1048.6719 L1486.875,1048.6719 L1471.875,1048.6719 L1470.6641,1048.6719 L1469.375,1047.1094 L1469.375,1046.1719 L1469.375,1045.2344 L1470.6641,1043.6719 L1471.875,1043.6719 L1476.875,1043.6719 L1476.875,1028.6719 L1471.875,1028.6719 L1470.6641,1028.6719 L1469.375,1027.1094 L1469.375,1026.1719 L1469.375,1025.2344 L1470.6641,1023.6719 L1471.875,1023.6719 L1486.875,1023.6719 L1488.0859,1023.6719 L1489.375,1025.2344 L1489.375,1026.1719 L1489.375,1027.1094 L1488.0859,1028.6719 L1486.875,1028.6719 L1481.875,1028.6719 Z " fill="#000000"/><ellipse cx="1543.125" cy="1034.9219" fill="#84BE84" rx="7.5" ry="7.5" style="stroke:#038048;stroke-width:2.5;"/><text fill="#000000" font-family="sans-serif" font-size="30" font-style="italic" lengthAdjust="spacing" textLength="222.5" x="1558.125" y="1048.4473">LocalServiceSpi</text><line style="stroke:#D4AC0D;stroke-width:3.75;" x1="1035" x2="2195" y1="1076.1719" y2="1076.1719"/><line style="stroke:#D4AC0D;stroke-width:3.75;" x1="1035" x2="2195" y1="1096.1719" y2="1096.1719"/><ellipse cx="1060" cy="1123.6719" fill="#84BE84" rx="7.5" ry="7.5" style="stroke:#038048;stroke-width:2.5;"/><text fill="#000000" font-family="sans-serif" font-size="27.5" lengthAdjust="spacing" textLength="602.5" x="1082.5" y="1134.7192">void setManager (LocalServiceManager manager)</text><ellipse cx="1060" cy="1158.2617" fill="#84BE84" rx="7.5" ry="7.5" style="stroke:#038048;stroke-width:2.5;"/><text fill="#000000" font-family="sans-serif" font-size="27.5" lengthAdjust="spacing" textLength="210" x="1082.5" y="1169.3091">String getName ()</text><ellipse cx="1060" cy="1192.8516" fill="#84BE84" rx="7.5" ry="7.5" style="stroke:#038048;stroke-width:2.5;"/><text fill="#000000" font-family="sans-serif" font-size="27.5" lengthAdjust="spacing" textLength="672.5" x="1082.5" y="1203.8989">void onPluginEvent (String readerName, String jsonData,</text><text fill="#000000" filter="url(#b16iw90fgghw9x0)" font-family="sans-serif" font-size="27.5" lengthAdjust="spacing" textLength="220" x="1762.5" y="1203.8989">KeyplePluginEvent</text><text fill="#000000" font-family="sans-serif" font-size="27.5" lengthAdjust="spacing" textLength="147.5" x="1990" y="1203.8989">pluginEvent)</text><ellipse cx="1060" cy="1227.4414" fill="#84BE84" rx="7.5" ry="7.5" style="stroke:#038048;stroke-width:2.5;"/><text fill="#000000" font-family="sans-serif" font-size="27.5" lengthAdjust="spacing" textLength="690" x="1082.5" y="1238.4888">void onReaderEvent (String readerName, String jsonData,</text><text fill="#000000" filter="url(#b16iw90fgghw9x0)" font-family="sans-serif" font-size="27.5" lengthAdjust="spacing" textLength="237.5" x="1780" y="1238.4888">KeypleReaderEvent</text><text fill="#000000" font-family="sans-serif" font-size="27.5" lengthAdjust="spacing" textLength="157.5" x="2025" y="1238.4888">readerEvent)</text><!--MD5=[e074787443691281e6486459aba16e12]
reverse link ApiProperties to LocalServiceFactorySpi--><path codeLine="87" d="M965.7375,599.9219 C1063.8925,599.9219 1171.8075,599.9219 1267.04,599.9219 " fill="none" id="ApiProperties-backto-LocalServiceFactorySpi" style="stroke:#27AE60;stroke-width:2.5;stroke-dasharray:7.0,7.0;"/><polygon fill="#27AE60" points="952.58,599.9219,975.08,609.9219,965.08,599.9219,975.08,589.9219,952.58,599.9219" style="stroke:#27AE60;stroke-width:2.5;"/><text fill="#000000" font-family="sans-serif" font-size="32.5" lengthAdjust="spacing" textLength="100" x="1060" y="543.6597">provide</text><polygon fill="#000000" points="1012.5,571.2402,1035.1127,578.5876,1035.1127,563.8929,1012.5,571.2402" style="stroke:#000000;stroke-width:2.5;"/><text fill="#000000" font-family="sans-serif" font-size="32.5" lengthAdjust="spacing" textLength="162.5" x="1045" y="584.5386">API version</text><!--MD5=[618e7031c65a5cf122f68545294b0993]
link LocalServiceFactorySpi to LocalServiceSpi--><path codeLine="88" d="M1554.4675,728.9644 C1566.2775,805.7244 1581.3625,903.7819 1593.52,982.7994 " fill="none" id="LocalServiceFactorySpi-to-LocalServiceSpi" style="stroke:#27AE60;stroke-width:2.5;stroke-dasharray:7.0,7.0;"/><polygon fill="#27AE60" points="1595.445,995.3119,1601.9018,971.5514,1593.5413,982.9577,1582.135,974.5973,1595.445,995.3119" style="stroke:#27AE60;stroke-width:2.5;"/><polygon fill="#000000" points="1586.9008,838.966,1590.7241,815.499,1576.2004,817.7335,1586.9008,838.966" style="stroke:#000000;stroke-width:2.5;"/><text fill="#000000" font-family="sans-serif" font-size="32.5" lengthAdjust="spacing" textLength="100" x="1607.5" y="839.9097">provide</text><!--MD5=[ac6fd69cf75591a3f31bcf7696da0e56]
reverse link LocalServiceManager to LocalServiceSpi--><path codeLine="90" d="M867.9075,1124.9219 C920.9575,1124.9219 976.1925,1124.9219 1031.545,1124.9219 " fill="none" id="LocalServiceManager-backto-LocalServiceSpi" style="stroke:#27AE60;stroke-width:2.5;stroke-dasharray:7.0,7.0;"/><polygon fill="#27AE60" points="855.19,1124.9219,877.69,1134.9219,867.69,1124.9219,877.69,1114.9219,855.19,1124.9219" style="stroke:#27AE60;stroke-width:2.5;"/><polygon fill="#000000" points="898.75,1095.3613,921.3627,1102.7086,921.3627,1088.014,898.75,1095.3613" style="stroke:#000000;stroke-width:2.5;"/><text fill="#000000" font-family="sans-serif" font-size="32.5" lengthAdjust="spacing" textLength="52.5" x="933.75" y="1108.6597">use</text><!--MD5=[1a2d537ea27b378717d193c1e1f14719]
@startuml
title
    Keyple 2.0 - keyple-java-distributed-local-api - 2.0 (15/03/2021)
end title

' == THEME ==

'Couleurs issues de : https://htmlcolorcodes.com/fr/tableau-de-couleur/tableau-de-couleur-design-plat/
!define C_GREY1 F8F9F9
!define C_GREY2 F2F3F4
!define C_GREY3 E5E7E9
!define C_GREY4 D7DBDD
!define C_GREY5 CACFD2
!define C_GREY6 BDC3C7
!define C_LINK 3498DB
!define C_USE 27AE60

skinparam Shadowing false
skinparam ClassFontStyle italic
skinparam ClassBorderColor #D4AC0D
skinparam stereotypeABorderColor #A9DCDF
skinparam stereotypeIBorderColor #B4A7E5
skinparam stereotypeCBorderColor #ADD1B2
skinparam stereotypeEBorderColor #EB93DF
' Red
skinparam ClassBackgroundColor<<red>> #FDEDEC
skinparam ClassBorderColor<<red>> #E74C3C
hide <<red>> stereotype
' Purple
skinparam ClassBackgroundColor<<purple>> #F4ECF7
skinparam ClassBorderColor<<purple>> #8E44AD
hide <<purple>> stereotype
' blue
skinparam ClassBackgroundColor<<blue>> #EBF5FB
skinparam ClassBorderColor<<blue>> #3498DB
hide <<blue>> stereotype
' Green
skinparam ClassBackgroundColor<<green>> #E9F7EF
skinparam ClassBorderColor<<green>> #27AE60
hide <<green>> stereotype
' Grey
skinparam ClassBackgroundColor<<grey>> #EAECEE
skinparam ClassBorderColor<<grey>> #2C3E50
hide <<grey>> stereotype

' == CONTENT ==

legend top
    __Colors legend__ :
    * __External public API references__ :
    ** <back:cyan>**keyple-java-commons-api**</back>
end legend

package "org.eclipse.keyple.core.distributed.local" as api {
    +class "**final** DistributedLocalApiProperties" as ApiProperties {
        +{static} **final** String VERSION
    }
    +interface LocalServiceManager {
        +String executeLocally (String readerName, String jsonData)
        ..
        +boolean isReaderObservable (String readerName)
        +void startReaderObservation (String readerName)
        +void stopReaderObservation (String readerName)
        ..
        +void startPluginsObservation ()
        +void stopPluginsObservation ()
        ..
        +void setPoolPluginNames (String... poolPluginNames)
    }
    package spi {
        +interface LocalServiceFactorySpi {
            +String getDistributedLocalApiVersion ()
            +String getCommonsApiVersion ()
            +String getLocalServiceName ()
            +LocalServiceSpi getLocalService ()
        }
        +interface LocalServiceSpi {
            +void setManager (LocalServiceManager manager)
            +String getName ()
            +void onPluginEvent (String readerName, String jsonData, <back:cyan>KeyplePluginEvent</back> pluginEvent)
            +void onReaderEvent (String readerName, String jsonData, <back:cyan>KeypleReaderEvent</back> readerEvent)
        }
    }
}

' Associations

LocalServiceFactorySpi .left.> ApiProperties #C_USE : provide\nAPI version <
LocalServiceFactorySpi ..> LocalServiceSpi #C_USE : provide >

LocalServiceSpi .left.> LocalServiceManager #C_USE : use >

' == LAYOUT ==

'PoolRemotePluginSpi -[hidden]- ObservableRemotePluginSpi

' == STYLE ==

package api #C_GREY1 {}
package spi #C_GREY2 {}

@enduml

@startuml
title
    Keyple 2.0 - keyple-java-distributed-local-api - 2.0 (15/03/2021)
end title



skinparam Shadowing false
skinparam ClassFontStyle italic
skinparam ClassBorderColor #D4AC0D
skinparam stereotypeABorderColor #A9DCDF
skinparam stereotypeIBorderColor #B4A7E5
skinparam stereotypeCBorderColor #ADD1B2
skinparam stereotypeEBorderColor #EB93DF
skinparam ClassBackgroundColor<<red>> #FDEDEC
skinparam ClassBorderColor<<red>> #E74C3C
hide <<red>> stereotype
skinparam ClassBackgroundColor<<purple>> #F4ECF7
skinparam ClassBorderColor<<purple>> #8E44AD
hide <<purple>> stereotype
skinparam ClassBackgroundColor<<blue>> #EBF5FB
skinparam ClassBorderColor<<blue>> #3498DB
hide <<blue>> stereotype
skinparam ClassBackgroundColor<<green>> #E9F7EF
skinparam ClassBorderColor<<green>> #27AE60
hide <<green>> stereotype
skinparam ClassBackgroundColor<<grey>> #EAECEE
skinparam ClassBorderColor<<grey>> #2C3E50
hide <<grey>> stereotype


legend top
    __Colors legend__ :
    * __External public API references__ :
    ** <back:cyan>**keyple-java-commons-api**</back>
end legend

package "org.eclipse.keyple.core.distributed.local" as api {
    +class "**final** DistributedLocalApiProperties" as ApiProperties {
        +{static} **final** String VERSION
    }
    +interface LocalServiceManager {
        +String executeLocally (String readerName, String jsonData)
        ..
        +boolean isReaderObservable (String readerName)
        +void startReaderObservation (String readerName)
        +void stopReaderObservation (String readerName)
        ..
        +void startPluginsObservation ()
        +void stopPluginsObservation ()
        ..
        +void setPoolPluginNames (String... poolPluginNames)
    }
    package spi {
        +interface LocalServiceFactorySpi {
            +String getDistributedLocalApiVersion ()
            +String getCommonsApiVersion ()
            +String getLocalServiceName ()
            +LocalServiceSpi getLocalService ()
        }
        +interface LocalServiceSpi {
            +void setManager (LocalServiceManager manager)
            +String getName ()
            +void onPluginEvent (String readerName, String jsonData, <back:cyan>KeyplePluginEvent</back> pluginEvent)
            +void onReaderEvent (String readerName, String jsonData, <back:cyan>KeypleReaderEvent</back> readerEvent)
        }
    }
}


LocalServiceFactorySpi .left.> ApiProperties #27AE60 : provide\nAPI version <
LocalServiceFactorySpi ..> LocalServiceSpi #27AE60 : provide >

LocalServiceSpi .left.> LocalServiceManager #27AE60 : use >




package api #F8F9F9 {}
package spi #F2F3F4 {}

@enduml

PlantUML version 1.2021.01(Tue Feb 02 08:55:08 CET 2021)
(GPL source distribution)
Java Runtime: OpenJDK Runtime Environment
JVM: OpenJDK 64-Bit Server VM
Default Encoding: Cp1252
Language: fr
Country: FR
--></g></svg>