<?xml version="1.0" encoding="UTF-8" standalone="no"?><svg xmlns="http://www.w3.org/2000/svg" xmlns:xlink="http://www.w3.org/1999/xlink" contentScriptType="application/ecmascript" contentStyleType="text/css" height="1720px" preserveAspectRatio="none" style="width:1817px;height:1720px;" version="1.1" viewBox="0 0 1817 1720" width="1817.5px" zoomAndPan="magnify"><defs/><g><text fill="#000000" font-family="sans-serif" font-size="45" lengthAdjust="spacing" textLength="1300" x="242.5" y="46.7139">Keyple 2.0 - keyple-java-distributed-remote-api - 2.0 (04/03/2021)</text><!--MD5=[7442f3b126ee602ae02566c1a49e158a]
cluster api--><polygon fill="#F8F9F9" points="40,71.6016,805,71.6016,822.5,130.625,1775,130.625,1775,1704.1016,40,1704.1016,40,71.6016" style="stroke:#000000;stroke-width:3.75;"/><line style="stroke:#000000;stroke-width:3.75;" x1="40" x2="822.5" y1="130.625" y2="130.625"/><text fill="#000000" font-family="sans-serif" font-size="35" font-weight="bold" lengthAdjust="spacing" textLength="750" x="50" y="112.9346">org.eclipse.keyple.core.distributed.remote</text><!--MD5=[f7e0e2453c87923036c1ac2adfb9cbf0]
cluster spi--><polygon fill="#F2F3F4" points="965,181.6016,1032.5,181.6016,1050,240.625,1715,240.625,1715,1642.8516,965,1642.8516,965,181.6016" style="stroke:#000000;stroke-width:3.75;"/><line style="stroke:#000000;stroke-width:3.75;" x1="965" x2="1050" y1="240.625" y2="240.625"/><text fill="#000000" font-family="sans-serif" font-size="35" font-weight="bold" lengthAdjust="spacing" textLength="52.5" x="975" y="222.9346">spi</text><!--MD5=[120218adfd8782b0057db0a1b8294250]
class ApiProperties--><rect codeLine="48" fill="#FEFECE" height="154.5898" id="ApiProperties" style="stroke:#D4AC0D;stroke-width:3.75;" width="620" x="152.5" y="340.3516"/><ellipse cx="190" cy="380.3516" fill="#ADD1B2" rx="27.5" ry="27.5" style="stroke:#ADD1B2;stroke-width:2.5;"/><path d="M195,371.6016 Q195.5078,370.3516 196.0938,369.7266 Q196.6797,369.1016 197.3438,369.1016 Q198.5156,369.1016 199.2578,369.8047 Q200,370.5078 200,372.1484 L200,376.0547 Q200,377.6953 199.2969,378.3984 Q198.5938,379.1016 197.5,379.1016 Q196.5234,379.1016 195.8984,378.6719 Q195.2734,378.2422 195,377.1094 Q194.8828,376.3281 194.4531,375.8984 Q193.6719,375.0781 192.2656,374.6094 Q190.8594,374.1016 189.4531,374.1016 Q187.6953,374.1016 186.2109,374.8047 Q184.7656,375.5078 183.6328,377.0703 Q182.5,378.6328 182.5,380.7813 L182.5,383.0859 Q182.5,385.6641 184.6094,387.3828 Q186.7188,389.1016 190.4688,389.1016 Q192.6953,389.1016 194.2578,388.5938 Q195.1563,388.3203 196.1719,387.4219 Q196.8359,386.9141 197.1875,386.7578 Q197.5391,386.6016 197.9688,386.6016 Q198.7891,386.6016 199.375,387.2656 Q200,387.8906 200,388.7891 Q200,389.6484 199.1406,390.6641 Q197.8906,392.1484 195.8984,392.9688 Q193.2813,394.1016 190.0781,394.1016 Q186.3281,394.1016 183.3203,392.6172 Q180.8984,391.4453 179.1797,388.9063 Q177.5,386.3672 177.5,383.3594 L177.5,380.625 Q177.5,377.5 178.9844,374.7656 Q180.5078,372.0313 183.125,370.5859 Q185.7813,369.1016 188.75,369.1016 Q190.5469,369.1016 192.1094,369.7266 Q193.6719,370.3516 195,371.6016 Z " fill="#000000"/><ellipse cx="237.5" cy="379.1016" fill="#84BE84" rx="7.5" ry="7.5" style="stroke:#038048;stroke-width:2.5;"/><text fill="#000000" font-family="sans-serif" font-size="30" font-style="italic" font-weight="bold" lengthAdjust="spacing" textLength="60" x="252.5" y="392.627">final</text><text fill="#000000" font-family="sans-serif" font-size="30" font-style="italic" lengthAdjust="spacing" textLength="445" x="320" y="392.627">DistributedRemoteApiProperties</text><line style="stroke:#D4AC0D;stroke-width:3.75;" x1="155" x2="770" y1="420.3516" y2="420.3516"/><ellipse cx="180" cy="447.8516" fill="none" rx="7.5" ry="7.5" style="stroke:#038048;stroke-width:2.5;"/><text fill="#000000" font-family="sans-serif" font-size="27.5" font-weight="bold" lengthAdjust="spacing" text-decoration="underline" textLength="57.5" x="202.5" y="458.8989">final</text><text fill="#000000" font-family="sans-serif" font-size="27.5" lengthAdjust="spacing" text-decoration="underline" textLength="190" x="267.5" y="458.8989">String VERSION</text><line style="stroke:#D4AC0D;stroke-width:3.75;" x1="155" x2="770" y1="474.9414" y2="474.9414"/><!--MD5=[ebe15ae7262c867cfb29a15853ea90dd]
class RemotePluginManager--><rect codeLine="51" fill="#FEFECE" height="154.5898" id="RemotePluginManager" style="stroke:#D4AC0D;stroke-width:3.75;" width="517.5" x="293.75" y="862.8516"/><ellipse cx="372.875" cy="902.8516" fill="#B4A7E5" rx="27.5" ry="27.5" style="stroke:#B4A7E5;stroke-width:2.5;"/><path d="M375.375,895.3516 L375.375,910.3516 L380.375,910.3516 L381.5859,910.3516 L382.875,911.9141 L382.875,912.8516 L382.875,913.7891 L381.5859,915.3516 L380.375,915.3516 L365.375,915.3516 L364.1641,915.3516 L362.875,913.7891 L362.875,912.8516 L362.875,911.9141 L364.1641,910.3516 L365.375,910.3516 L370.375,910.3516 L370.375,895.3516 L365.375,895.3516 L364.1641,895.3516 L362.875,893.7891 L362.875,892.8516 L362.875,891.9141 L364.1641,890.3516 L365.375,890.3516 L380.375,890.3516 L381.5859,890.3516 L382.875,891.9141 L382.875,892.8516 L382.875,893.7891 L381.5859,895.3516 L380.375,895.3516 L375.375,895.3516 Z " fill="#000000"/><ellipse cx="429.625" cy="901.6016" fill="#84BE84" rx="7.5" ry="7.5" style="stroke:#038048;stroke-width:2.5;"/><text fill="#000000" font-family="sans-serif" font-size="30" font-style="italic" lengthAdjust="spacing" textLength="317.5" x="444.625" y="915.127">RemotePluginManager</text><line style="stroke:#D4AC0D;stroke-width:3.75;" x1="296.25" x2="808.75" y1="942.8516" y2="942.8516"/><line style="stroke:#D4AC0D;stroke-width:2.5;" x1="296.25" x2="808.75" y1="962.8516" y2="962.8516"/><ellipse cx="321.25" cy="990.3516" fill="#84BE84" rx="7.5" ry="7.5" style="stroke:#038048;stroke-width:2.5;"/><text fill="#000000" font-family="sans-serif" font-size="27.5" lengthAdjust="spacing" textLength="452.5" x="343.75" y="1001.3989">void onReaderEvent (String jsonData)</text><!--MD5=[62f7d7f2588c82e83841c1b3d8071c16]
class ObservableRemotePluginManager--><rect codeLine="55" fill="#FEFECE" height="347.5391" id="ObservableRemotePluginManager" style="stroke:#D4AC0D;stroke-width:3.75;" width="842.5" x="81.25" y="1316.6016"/><ellipse cx="238.125" cy="1356.6016" fill="#B4A7E5" rx="27.5" ry="27.5" style="stroke:#B4A7E5;stroke-width:2.5;"/><path d="M240.625,1349.1016 L240.625,1364.1016 L245.625,1364.1016 L246.8359,1364.1016 L248.125,1365.6641 L248.125,1366.6016 L248.125,1367.5391 L246.8359,1369.1016 L245.625,1369.1016 L230.625,1369.1016 L229.4141,1369.1016 L228.125,1367.5391 L228.125,1366.6016 L228.125,1365.6641 L229.4141,1364.1016 L230.625,1364.1016 L235.625,1364.1016 L235.625,1349.1016 L230.625,1349.1016 L229.4141,1349.1016 L228.125,1347.5391 L228.125,1346.6016 L228.125,1345.6641 L229.4141,1344.1016 L230.625,1344.1016 L245.625,1344.1016 L246.8359,1344.1016 L248.125,1345.6641 L248.125,1346.6016 L248.125,1347.5391 L246.8359,1349.1016 L245.625,1349.1016 L240.625,1349.1016 Z " fill="#000000"/><ellipse cx="301.875" cy="1355.3516" fill="#84BE84" rx="7.5" ry="7.5" style="stroke:#038048;stroke-width:2.5;"/><text fill="#000000" font-family="sans-serif" font-size="30" font-style="italic" lengthAdjust="spacing" textLength="480" x="316.875" y="1368.877">ObservableRemotePluginManager</text><line style="stroke:#D4AC0D;stroke-width:3.75;" x1="83.75" x2="921.25" y1="1396.6016" y2="1396.6016"/><line style="stroke:#D4AC0D;stroke-width:2.5;" x1="83.75" x2="921.25" y1="1416.6016" y2="1416.6016"/><ellipse cx="108.75" cy="1444.1016" fill="#84BE84" rx="7.5" ry="7.5" style="stroke:#038048;stroke-width:2.5;"/><text fill="#000000" font-family="sans-serif" font-size="27.5" lengthAdjust="spacing" textLength="777.5" x="131.25" y="1455.1489">void registerMasterReader (RemoteReaderSpi masterReaderSpi)</text><ellipse cx="108.75" cy="1478.6914" fill="#84BE84" rx="7.5" ry="7.5" style="stroke:#038048;stroke-width:2.5;"/><text fill="#000000" font-family="sans-serif" font-size="27.5" lengthAdjust="spacing" textLength="742.5" x="131.25" y="1489.7388">void registerSlaveReader (RemoteReaderSpi slaveReaderSpi,</text><text fill="#000000" font-family="sans-serif" font-size="27.5" lengthAdjust="spacing" textLength="322.5" x="191.25" y="1524.3286">String masterReaderName,</text><text fill="#000000" font-family="sans-serif" font-size="27.5" lengthAdjust="spacing" textLength="347.5" x="191.25" y="1558.9185">String readerEventJsonData)</text><ellipse cx="108.75" cy="1582.4609" fill="#84BE84" rx="7.5" ry="7.5" style="stroke:#038048;stroke-width:2.5;"/><text fill="#000000" font-family="sans-serif" font-size="27.5" lengthAdjust="spacing" textLength="487.5" x="131.25" y="1593.5083">boolean unregisterReader (readerName)</text><line style="stroke:#D4AC0D;stroke-width:2.5;stroke-dasharray:1.0,2.0;" x1="83.75" x2="921.25" y1="1609.5508" y2="1609.5508"/><ellipse cx="108.75" cy="1637.0508" fill="#84BE84" rx="7.5" ry="7.5" style="stroke:#038048;stroke-width:2.5;"/><text fill="#000000" font-family="sans-serif" font-size="27.5" lengthAdjust="spacing" textLength="435" x="131.25" y="1648.0981">void onPluginEvent (String jsonData)</text><!--MD5=[3937379067c1c7d1f35002e0ca836dbd]
class RemoteReaderSpi--><rect codeLine="66" fill="#FEFECE" height="223.7695" id="RemoteReaderSpi" style="stroke:#D4AC0D;stroke-width:3.75;" width="560" x="1060" y="1377.8516"/><ellipse cx="1186.875" cy="1417.8516" fill="#B4A7E5" rx="27.5" ry="27.5" style="stroke:#B4A7E5;stroke-width:2.5;"/><path d="M1189.375,1410.3516 L1189.375,1425.3516 L1194.375,1425.3516 L1195.5859,1425.3516 L1196.875,1426.9141 L1196.875,1427.8516 L1196.875,1428.7891 L1195.5859,1430.3516 L1194.375,1430.3516 L1179.375,1430.3516 L1178.1641,1430.3516 L1176.875,1428.7891 L1176.875,1427.8516 L1176.875,1426.9141 L1178.1641,1425.3516 L1179.375,1425.3516 L1184.375,1425.3516 L1184.375,1410.3516 L1179.375,1410.3516 L1178.1641,1410.3516 L1176.875,1408.7891 L1176.875,1407.8516 L1176.875,1406.9141 L1178.1641,1405.3516 L1179.375,1405.3516 L1194.375,1405.3516 L1195.5859,1405.3516 L1196.875,1406.9141 L1196.875,1407.8516 L1196.875,1408.7891 L1195.5859,1410.3516 L1194.375,1410.3516 L1189.375,1410.3516 Z " fill="#000000"/><ellipse cx="1250.625" cy="1416.6016" fill="#84BE84" rx="7.5" ry="7.5" style="stroke:#038048;stroke-width:2.5;"/><text fill="#000000" font-family="sans-serif" font-size="30" font-style="italic" lengthAdjust="spacing" textLength="257.5" x="1265.625" y="1430.127">RemoteReaderSpi</text><line style="stroke:#D4AC0D;stroke-width:3.75;" x1="1062.5" x2="1617.5" y1="1457.8516" y2="1457.8516"/><line style="stroke:#D4AC0D;stroke-width:3.75;" x1="1062.5" x2="1617.5" y1="1477.8516" y2="1477.8516"/><ellipse cx="1087.5" cy="1505.3516" fill="#84BE84" rx="7.5" ry="7.5" style="stroke:#038048;stroke-width:2.5;"/><text fill="#000000" font-family="sans-serif" font-size="27.5" lengthAdjust="spacing" textLength="210" x="1110" y="1516.3989">String getName ()</text><ellipse cx="1087.5" cy="1539.9414" fill="#84BE84" rx="7.5" ry="7.5" style="stroke:#038048;stroke-width:2.5;"/><text fill="#000000" font-family="sans-serif" font-size="27.5" lengthAdjust="spacing" textLength="290" x="1110" y="1550.9888">boolean isObservable ()</text><ellipse cx="1087.5" cy="1574.5313" fill="#84BE84" rx="7.5" ry="7.5" style="stroke:#038048;stroke-width:2.5;"/><text fill="#000000" font-family="sans-serif" font-size="27.5" lengthAdjust="spacing" textLength="495" x="1110" y="1585.5786">String executeRemotely (String jsonData)</text><!--MD5=[733b899168be945616a1d8aa95c72981]
class RemotePluginSpi--><rect codeLine="71" fill="#FEFECE" height="362.1289" id="RemotePluginSpi" style="stroke:#D4AC0D;stroke-width:3.75;" width="670" x="1005" y="759.1016"/><ellipse cx="1194.375" cy="799.1016" fill="#B4A7E5" rx="27.5" ry="27.5" style="stroke:#B4A7E5;stroke-width:2.5;"/><path d="M1196.875,791.6016 L1196.875,806.6016 L1201.875,806.6016 L1203.0859,806.6016 L1204.375,808.1641 L1204.375,809.1016 L1204.375,810.0391 L1203.0859,811.6016 L1201.875,811.6016 L1186.875,811.6016 L1185.6641,811.6016 L1184.375,810.0391 L1184.375,809.1016 L1184.375,808.1641 L1185.6641,806.6016 L1186.875,806.6016 L1191.875,806.6016 L1191.875,791.6016 L1186.875,791.6016 L1185.6641,791.6016 L1184.375,790.0391 L1184.375,789.1016 L1184.375,788.1641 L1185.6641,786.6016 L1186.875,786.6016 L1201.875,786.6016 L1203.0859,786.6016 L1204.375,788.1641 L1204.375,789.1016 L1204.375,790.0391 L1203.0859,791.6016 L1201.875,791.6016 L1196.875,791.6016 Z " fill="#000000"/><ellipse cx="1258.125" cy="797.8516" fill="#84BE84" rx="7.5" ry="7.5" style="stroke:#038048;stroke-width:2.5;"/><text fill="#000000" font-family="sans-serif" font-size="30" font-style="italic" lengthAdjust="spacing" textLength="242.5" x="1273.125" y="811.377">RemotePluginSpi</text><line style="stroke:#D4AC0D;stroke-width:3.75;" x1="1007.5" x2="1672.5" y1="839.1016" y2="839.1016"/><line style="stroke:#D4AC0D;stroke-width:2.5;" x1="1007.5" x2="1672.5" y1="859.1016" y2="859.1016"/><ellipse cx="1032.5" cy="886.6016" fill="#84BE84" rx="7.5" ry="7.5" style="stroke:#038048;stroke-width:2.5;"/><text fill="#000000" font-family="sans-serif" font-size="27.5" lengthAdjust="spacing" textLength="605" x="1055" y="897.6489">void setManager (RemotePluginManager manager)</text><ellipse cx="1032.5" cy="921.1914" fill="#84BE84" rx="7.5" ry="7.5" style="stroke:#038048;stroke-width:2.5;"/><text fill="#000000" font-family="sans-serif" font-size="27.5" lengthAdjust="spacing" textLength="210" x="1055" y="932.2388">String getName ()</text><ellipse cx="1032.5" cy="955.7813" fill="#84BE84" rx="7.5" ry="7.5" style="stroke:#038048;stroke-width:2.5;"/><text fill="#000000" font-family="sans-serif" font-size="27.5" lengthAdjust="spacing" textLength="290" x="1055" y="966.8286">boolean isObservable ()</text><ellipse cx="1032.5" cy="990.3711" fill="#84BE84" rx="7.5" ry="7.5" style="stroke:#038048;stroke-width:2.5;"/><text fill="#000000" font-family="sans-serif" font-size="27.5" lengthAdjust="spacing" textLength="495" x="1055" y="1001.4185">String executeRemotely (String jsonData)</text><ellipse cx="1032.5" cy="1024.9609" fill="#84BE84" rx="7.5" ry="7.5" style="stroke:#038048;stroke-width:2.5;"/><text fill="#000000" font-family="sans-serif" font-size="27.5" lengthAdjust="spacing" textLength="495" x="1055" y="1036.0083">RemoteReaderSpi createRemoteReader (</text><text fill="#000000" font-family="sans-serif" font-size="27.5" lengthAdjust="spacing" textLength="295" x="1115" y="1070.5981">String localReaderName,</text><text fill="#000000" font-family="sans-serif" font-size="27.5" lengthAdjust="spacing" textLength="272.5" x="1115" y="1105.188">boolean isObservable)</text><!--MD5=[c2370bc74128b93bd072b6f31e9991b0]
class RemotePluginFactorySpi--><rect codeLine="81" fill="#FEFECE" height="292.9492" id="RemotePluginFactorySpi" style="stroke:#D4AC0D;stroke-width:3.75;" width="560" x="1060" y="271.6016"/><ellipse cx="1147" cy="311.6016" fill="#B4A7E5" rx="27.5" ry="27.5" style="stroke:#B4A7E5;stroke-width:2.5;"/><path d="M1149.5,304.1016 L1149.5,319.1016 L1154.5,319.1016 L1155.7109,319.1016 L1157,320.6641 L1157,321.6016 L1157,322.5391 L1155.7109,324.1016 L1154.5,324.1016 L1139.5,324.1016 L1138.2891,324.1016 L1137,322.5391 L1137,321.6016 L1137,320.6641 L1138.2891,319.1016 L1139.5,319.1016 L1144.5,319.1016 L1144.5,304.1016 L1139.5,304.1016 L1138.2891,304.1016 L1137,302.5391 L1137,301.6016 L1137,300.6641 L1138.2891,299.1016 L1139.5,299.1016 L1154.5,299.1016 L1155.7109,299.1016 L1157,300.6641 L1157,301.6016 L1157,302.5391 L1155.7109,304.1016 L1154.5,304.1016 L1149.5,304.1016 Z " fill="#000000"/><ellipse cx="1205.5" cy="310.3516" fill="#84BE84" rx="7.5" ry="7.5" style="stroke:#038048;stroke-width:2.5;"/><text fill="#000000" font-family="sans-serif" font-size="30" font-style="italic" lengthAdjust="spacing" textLength="342.5" x="1220.5" y="323.877">RemotePluginFactorySpi</text><line style="stroke:#D4AC0D;stroke-width:3.75;" x1="1062.5" x2="1617.5" y1="351.6016" y2="351.6016"/><line style="stroke:#D4AC0D;stroke-width:3.75;" x1="1062.5" x2="1617.5" y1="371.6016" y2="371.6016"/><ellipse cx="1087.5" cy="399.1016" fill="#84BE84" rx="7.5" ry="7.5" style="stroke:#038048;stroke-width:2.5;"/><text fill="#000000" font-family="sans-serif" font-size="27.5" lengthAdjust="spacing" textLength="495" x="1110" y="410.1489">String getDistributedRemoteApiVersion ()</text><ellipse cx="1087.5" cy="433.6914" fill="#84BE84" rx="7.5" ry="7.5" style="stroke:#038048;stroke-width:2.5;"/><text fill="#000000" font-family="sans-serif" font-size="27.5" lengthAdjust="spacing" textLength="395" x="1110" y="444.7388">String getCommonsApiVersion ()</text><ellipse cx="1087.5" cy="468.2813" fill="#84BE84" rx="7.5" ry="7.5" style="stroke:#038048;stroke-width:2.5;"/><text fill="#000000" font-family="sans-serif" font-size="27.5" lengthAdjust="spacing" textLength="370" x="1110" y="479.3286">String getRemotePluginName ()</text><ellipse cx="1087.5" cy="502.8711" fill="#84BE84" rx="7.5" ry="7.5" style="stroke:#038048;stroke-width:2.5;"/><text fill="#000000" font-family="sans-serif" font-size="27.5" lengthAdjust="spacing" textLength="270" x="1110" y="513.9185">boolean isPoolPlugin ()</text><ellipse cx="1087.5" cy="537.4609" fill="#84BE84" rx="7.5" ry="7.5" style="stroke:#038048;stroke-width:2.5;"/><text fill="#000000" font-family="sans-serif" font-size="27.5" lengthAdjust="spacing" textLength="430" x="1110" y="548.5083">RemotePluginSpi getRemotePlugin ()</text><!--MD5=[ecf961c3d92ed9dac5479dfd5debe97a]
reverse link RemotePluginManager to ObservableRemotePluginManager--><path d="M540.9075,1069.2041 C534.1675,1142.6641 525.5825,1236.2491 518.24,1316.2991 " fill="none" id="RemotePluginManager-backto-ObservableRemotePluginManager" style="stroke:#A80036;stroke-width:2.5;"/><polygon fill="none" points="523.5525,1066.8241,545.5475,1018.6316,558.4075,1070.0216,523.5525,1066.8241" style="stroke:#A80036;stroke-width:2.5;"/><!--MD5=[4174bbe09b6fc05497605efa272e822c]
reverse link ApiProperties to RemotePluginFactorySpi--><path codeLine="93" d="M786.3,417.8516 C876.07,417.8516 972.745,417.8516 1059.7975,417.8516 " fill="none" id="ApiProperties-backto-RemotePluginFactorySpi" style="stroke:#27AE60;stroke-width:2.5;stroke-dasharray:7.0,7.0;"/><polygon fill="#27AE60" points="773.1075,417.8516,795.6075,427.8516,785.6075,417.8516,795.6075,407.8516,773.1075,417.8516" style="stroke:#27AE60;stroke-width:2.5;"/><text fill="#000000" font-family="sans-serif" font-size="32.5" lengthAdjust="spacing" textLength="100" x="866.25" y="361.5894">provide</text><polygon fill="#000000" points="818.75,389.1699,841.3627,396.5172,841.3627,381.8226,818.75,389.1699" style="stroke:#000000;stroke-width:2.5;"/><text fill="#000000" font-family="sans-serif" font-size="32.5" lengthAdjust="spacing" textLength="162.5" x="851.25" y="402.4683">API version</text><!--MD5=[71bd7d84c6f989e29e36bec57e3f046c]
link RemotePluginFactorySpi to RemotePluginSpi--><path codeLine="94" d="M1340,564.5041 C1340,620.6266 1340,685.7591 1340,745.7616 " fill="none" id="RemotePluginFactorySpi-to-RemotePluginSpi" style="stroke:#27AE60;stroke-width:2.5;stroke-dasharray:7.0,7.0;"/><polygon fill="#27AE60" points="1340,758.4841,1350,735.9841,1340,745.9841,1330,735.9841,1340,758.4841" style="stroke:#27AE60;stroke-width:2.5;"/><polygon fill="#000000" points="1352.5,674.541,1359.8473,651.9283,1345.1527,651.9283,1352.5,674.541" style="stroke:#000000;stroke-width:2.5;"/><text fill="#000000" font-family="sans-serif" font-size="32.5" lengthAdjust="spacing" textLength="100" x="1375" y="675.3394">provide</text><!--MD5=[f33d040dcb77d1f7644b5e19c2b3e36f]
link RemotePluginSpi to RemoteReaderSpi--><path codeLine="96" d="M1340,1122.0591 C1340,1201.5016 1340,1292.9766 1340,1364.5766 " fill="none" id="RemotePluginSpi-to-RemoteReaderSpi" style="stroke:#27AE60;stroke-width:2.5;stroke-dasharray:7.0,7.0;"/><polygon fill="#27AE60" points="1340,1377.7066,1350,1355.2066,1340,1365.2066,1330,1355.2066,1340,1377.7066" style="stroke:#27AE60;stroke-width:2.5;"/><polygon fill="#000000" points="1352.5,1232.041,1359.8473,1209.4283,1345.1527,1209.4283,1352.5,1232.041" style="stroke:#000000;stroke-width:2.5;"/><text fill="#000000" font-family="sans-serif" font-size="32.5" lengthAdjust="spacing" textLength="100" x="1375" y="1232.8394">provide</text><!--MD5=[b1466399e19d221cd449046bbaf544e6]
reverse link RemotePluginManager to RemotePluginSpi--><path codeLine="97" d="M824.57,940.3516 C882.71,940.3516 944.7775,940.3516 1004.9725,940.3516 " fill="none" id="RemotePluginManager-backto-RemotePluginSpi" style="stroke:#27AE60;stroke-width:2.5;stroke-dasharray:7.0,7.0;"/><polygon fill="#27AE60" points="811.4475,940.3516,833.9475,950.3516,823.9475,940.3516,833.9475,930.3516,811.4475,940.3516" style="stroke:#27AE60;stroke-width:2.5;"/><polygon fill="#000000" points="863.125,910.791,885.7377,918.1383,885.7377,903.4437,863.125,910.791" style="stroke:#000000;stroke-width:2.5;"/><text fill="#000000" font-family="sans-serif" font-size="32.5" lengthAdjust="spacing" textLength="52.5" x="898.125" y="924.0894">use</text><!--MD5=[59d8c9776a677b4127f2e3528a5c8c56]
@startuml
title
    Keyple 2.0 - keyple-java-distributed-remote-api - 2.0 (04/03/2021)
end title

' == THEME ==

'Couleurs issues de : https://htmlcolorcodes.com/fr/tableau-de-couleur/tableau-de-couleur-design-plat/
!define C_GREY1 F8F9F9
!define C_GREY2 F2F3F4
!define C_GREY3 E5E7E9
!define C_GREY4 D7DBDD
!define C_GREY5 CACFD2
!define C_GREY6 BDC3C7
!define C_LINK 3498DB
!define C_USE 27AE60

skinparam Shadowing false
skinparam ClassFontStyle italic
skinparam ClassBorderColor #D4AC0D
skinparam stereotypeABorderColor #A9DCDF
skinparam stereotypeIBorderColor #B4A7E5
skinparam stereotypeCBorderColor #ADD1B2
skinparam stereotypeEBorderColor #EB93DF
' Red
skinparam ClassBackgroundColor<<red>> #FDEDEC
skinparam ClassBorderColor<<red>> #E74C3C
hide <<red>> stereotype
' Purple
skinparam ClassBackgroundColor<<purple>> #F4ECF7
skinparam ClassBorderColor<<purple>> #8E44AD
hide <<purple>> stereotype
' blue
skinparam ClassBackgroundColor<<blue>> #EBF5FB
skinparam ClassBorderColor<<blue>> #3498DB
hide <<blue>> stereotype
' Green
skinparam ClassBackgroundColor<<green>> #E9F7EF
skinparam ClassBorderColor<<green>> #27AE60
hide <<green>> stereotype
' Grey
skinparam ClassBackgroundColor<<grey>> #EAECEE
skinparam ClassBorderColor<<grey>> #2C3E50
hide <<grey>> stereotype

' == CONTENT ==

package "org.eclipse.keyple.core.distributed.remote" as api {
    +class "**final** DistributedRemoteApiProperties" as ApiProperties {
        +{static} **final** String VERSION
    }
    +interface RemotePluginManager {
        - -
        +void onReaderEvent (String jsonData)
    }
    +interface ObservableRemotePluginManager extends RemotePluginManager {
        - -
        +void registerMasterReader (RemoteReaderSpi masterReaderSpi)
        +void registerSlaveReader (RemoteReaderSpi slaveReaderSpi,
            \tString masterReaderName,
            \tString readerEventJsonData)
        +boolean unregisterReader (readerName)
        ..
        +void onPluginEvent (String jsonData)
    }
    package spi {
        +interface RemoteReaderSpi {
            +String getName ()
            +boolean isObservable ()
            +String executeRemotely (String jsonData)
        }
        +interface RemotePluginSpi {
            - -
            +void setManager (RemotePluginManager manager)
            +String getName ()
            +boolean isObservable ()
            +String executeRemotely (String jsonData)
            +RemoteReaderSpi createRemoteReader (
                \tString localReaderName,
                \tboolean isObservable)
        }
        +interface RemotePluginFactorySpi {
            +String getDistributedRemoteApiVersion ()
            +String getCommonsApiVersion ()
            +String getRemotePluginName ()
            +boolean isPoolPlugin ()
            +RemotePluginSpi getRemotePlugin ()
        }
    }
}

' Associations

RemotePluginFactorySpi .left.> ApiProperties #C_USE : provide\nAPI version <
RemotePluginFactorySpi ..> RemotePluginSpi #C_USE : provide >

RemotePluginSpi ..> RemoteReaderSpi #C_USE : provide >
RemotePluginSpi .left.> RemotePluginManager #C_USE : use >

' == LAYOUT ==

'ObservableRemotePluginSpi -[hidden]- RemoteReaderSpi

' == STYLE ==

package api #C_GREY1 {}
package spi #C_GREY2 {}

@enduml

@startuml
title
    Keyple 2.0 - keyple-java-distributed-remote-api - 2.0 (04/03/2021)
end title



skinparam Shadowing false
skinparam ClassFontStyle italic
skinparam ClassBorderColor #D4AC0D
skinparam stereotypeABorderColor #A9DCDF
skinparam stereotypeIBorderColor #B4A7E5
skinparam stereotypeCBorderColor #ADD1B2
skinparam stereotypeEBorderColor #EB93DF
skinparam ClassBackgroundColor<<red>> #FDEDEC
skinparam ClassBorderColor<<red>> #E74C3C
hide <<red>> stereotype
skinparam ClassBackgroundColor<<purple>> #F4ECF7
skinparam ClassBorderColor<<purple>> #8E44AD
hide <<purple>> stereotype
skinparam ClassBackgroundColor<<blue>> #EBF5FB
skinparam ClassBorderColor<<blue>> #3498DB
hide <<blue>> stereotype
skinparam ClassBackgroundColor<<green>> #E9F7EF
skinparam ClassBorderColor<<green>> #27AE60
hide <<green>> stereotype
skinparam ClassBackgroundColor<<grey>> #EAECEE
skinparam ClassBorderColor<<grey>> #2C3E50
hide <<grey>> stereotype


package "org.eclipse.keyple.core.distributed.remote" as api {
    +class "**final** DistributedRemoteApiProperties" as ApiProperties {
        +{static} **final** String VERSION
    }
    +interface RemotePluginManager {
        - -
        +void onReaderEvent (String jsonData)
    }
    +interface ObservableRemotePluginManager extends RemotePluginManager {
        - -
        +void registerMasterReader (RemoteReaderSpi masterReaderSpi)
        +void registerSlaveReader (RemoteReaderSpi slaveReaderSpi,
            \tString masterReaderName,
            \tString readerEventJsonData)
        +boolean unregisterReader (readerName)
        ..
        +void onPluginEvent (String jsonData)
    }
    package spi {
        +interface RemoteReaderSpi {
            +String getName ()
            +boolean isObservable ()
            +String executeRemotely (String jsonData)
        }
        +interface RemotePluginSpi {
            - -
            +void setManager (RemotePluginManager manager)
            +String getName ()
            +boolean isObservable ()
            +String executeRemotely (String jsonData)
            +RemoteReaderSpi createRemoteReader (
                \tString localReaderName,
                \tboolean isObservable)
        }
        +interface RemotePluginFactorySpi {
            +String getDistributedRemoteApiVersion ()
            +String getCommonsApiVersion ()
            +String getRemotePluginName ()
            +boolean isPoolPlugin ()
            +RemotePluginSpi getRemotePlugin ()
        }
    }
}


RemotePluginFactorySpi .left.> ApiProperties #27AE60 : provide\nAPI version <
RemotePluginFactorySpi ..> RemotePluginSpi #27AE60 : provide >

RemotePluginSpi ..> RemoteReaderSpi #27AE60 : provide >
RemotePluginSpi .left.> RemotePluginManager #27AE60 : use >




package api #F8F9F9 {}
package spi #F2F3F4 {}

@enduml

PlantUML version 1.2021.01(Tue Feb 02 08:55:08 CET 2021)
(GPL source distribution)
Java Runtime: OpenJDK Runtime Environment
JVM: OpenJDK 64-Bit Server VM
Default Encoding: Cp1252
Language: fr
Country: FR
--></g></svg>