<?xml version="1.0" encoding="UTF-8" standalone="no"?><svg xmlns="http://www.w3.org/2000/svg" xmlns:xlink="http://www.w3.org/1999/xlink" contentScriptType="application/ecmascript" contentStyleType="text/css" height="1107.5px" preserveAspectRatio="none" style="width:1932px;height:1107px;" version="1.1" viewBox="0 0 1932 1107" width="1932.5px" zoomAndPan="magnify"><defs/><g><text fill="#000000" font-family="sans-serif" font-size="45" lengthAdjust="spacing" textLength="1255" x="322.5" y="46.7139">Keyple 2.0 - keyple-java-distributed-local-api - 2.0 (21/05/2021)</text><!--MD5=[7442f3b126ee602ae02566c1a49e158a]
cluster api--><polygon fill="#F8F9F9" points="40,71.6016,762.5,71.6016,780,130.625,1890,130.625,1890,1091.6016,40,1091.6016,40,71.6016" style="stroke:#000000;stroke-width:3.75;"/><line style="stroke:#000000;stroke-width:3.75;" x1="40" x2="780" y1="130.625" y2="130.625"/><text fill="#000000" font-family="sans-serif" font-size="35" font-weight="bold" lengthAdjust="spacing" textLength="707.5" x="50" y="112.9346">org.eclipse.keyple.core.distributed.local</text><!--MD5=[f7e0e2453c87923036c1ac2adfb9cbf0]
cluster spi--><polygon fill="#F2F3F4" points="990,181.6016,1057.5,181.6016,1075,240.625,1830,240.625,1830,1031.6016,990,1031.6016,990,181.6016" style="stroke:#000000;stroke-width:3.75;"/><line style="stroke:#000000;stroke-width:3.75;" x1="990" x2="1075" y1="240.625" y2="240.625"/><text fill="#000000" font-family="sans-serif" font-size="35" font-weight="bold" lengthAdjust="spacing" textLength="52.5" x="1000" y="222.9346">spi</text><!--MD5=[120218adfd8782b0057db0a1b8294250]
class ApiProperties--><rect codeLine="48" fill="#FEFECE" height="154.5898" id="ApiProperties" style="stroke:#D4AC0D;stroke-width:3.75;" width="585" x="270" y="322.8516"/><ellipse cx="307.5" cy="362.8516" fill="#ADD1B2" rx="27.5" ry="27.5" style="stroke:#ADD1B2;stroke-width:2.5;"/><path d="M312.5,354.1016 Q313.0078,352.8516 313.5938,352.2266 Q314.1797,351.6016 314.8438,351.6016 Q316.0156,351.6016 316.7578,352.3047 Q317.5,353.0078 317.5,354.6484 L317.5,358.5547 Q317.5,360.1953 316.7969,360.8984 Q316.0938,361.6016 315,361.6016 Q314.0234,361.6016 313.3984,361.1719 Q312.7734,360.7422 312.5,359.6094 Q312.3828,358.8281 311.9531,358.3984 Q311.1719,357.5781 309.7656,357.1094 Q308.3594,356.6016 306.9531,356.6016 Q305.1953,356.6016 303.7109,357.3047 Q302.2656,358.0078 301.1328,359.5703 Q300,361.1328 300,363.2813 L300,365.5859 Q300,368.1641 302.1094,369.8828 Q304.2188,371.6016 307.9688,371.6016 Q310.1953,371.6016 311.7578,371.0938 Q312.6563,370.8203 313.6719,369.9219 Q314.3359,369.4141 314.6875,369.2578 Q315.0391,369.1016 315.4688,369.1016 Q316.2891,369.1016 316.875,369.7656 Q317.5,370.3906 317.5,371.2891 Q317.5,372.1484 316.6406,373.1641 Q315.3906,374.6484 313.3984,375.4688 Q310.7813,376.6016 307.5781,376.6016 Q303.8281,376.6016 300.8203,375.1172 Q298.3984,373.9453 296.6797,371.4063 Q295,368.8672 295,365.8594 L295,363.125 Q295,360 296.4844,357.2656 Q298.0078,354.5313 300.625,353.0859 Q303.2813,351.6016 306.25,351.6016 Q308.0469,351.6016 309.6094,352.2266 Q311.1719,352.8516 312.5,354.1016 Z " fill="#000000"/><ellipse cx="355" cy="361.6016" fill="#84BE84" rx="7.5" ry="7.5" style="stroke:#038048;stroke-width:2.5;"/><text fill="#000000" font-family="sans-serif" font-size="30" font-style="italic" font-weight="bold" lengthAdjust="spacing" textLength="60" x="370" y="375.127">final</text><text fill="#000000" font-family="sans-serif" font-size="30" font-style="italic" lengthAdjust="spacing" textLength="410" x="437.5" y="375.127">DistributedLocalApiProperties</text><line style="stroke:#D4AC0D;stroke-width:3.75;" x1="272.5" x2="852.5" y1="402.8516" y2="402.8516"/><ellipse cx="297.5" cy="430.3516" rx="7.5" ry="7.5" style="stroke:#038048;stroke-width:2.5;fill:none;"/><text fill="#000000" font-family="sans-serif" font-size="27.5" font-weight="bold" lengthAdjust="spacing" text-decoration="underline" textLength="57.5" x="320" y="441.3989">final</text><text fill="#000000" font-family="sans-serif" font-size="27.5" lengthAdjust="spacing" text-decoration="underline" textLength="190" x="385" y="441.3989">String VERSION</text><line style="stroke:#D4AC0D;stroke-width:3.75;" x1="272.5" x2="852.5" y1="457.4414" y2="457.4414"/><!--MD5=[ebf06438c193d9dcd51c4e6022fc9394]
class LocalServiceApi--><rect codeLine="51" fill="#FEFECE" height="278.3594" id="LocalServiceApi" style="stroke:#D4AC0D;stroke-width:3.75;" width="775" x="80" y="724.1016"/><ellipse cx="331.875" cy="764.1016" fill="#B4A7E5" rx="27.5" ry="27.5" style="stroke:#B4A7E5;stroke-width:2.5;"/><path d="M334.375,756.6016 L334.375,771.6016 L339.375,771.6016 L340.5859,771.6016 L341.875,773.1641 L341.875,774.1016 L341.875,775.0391 L340.5859,776.6016 L339.375,776.6016 L324.375,776.6016 L323.1641,776.6016 L321.875,775.0391 L321.875,774.1016 L321.875,773.1641 L323.1641,771.6016 L324.375,771.6016 L329.375,771.6016 L329.375,756.6016 L324.375,756.6016 L323.1641,756.6016 L321.875,755.0391 L321.875,754.1016 L321.875,753.1641 L323.1641,751.6016 L324.375,751.6016 L339.375,751.6016 L340.5859,751.6016 L341.875,753.1641 L341.875,754.1016 L341.875,755.0391 L340.5859,756.6016 L339.375,756.6016 L334.375,756.6016 Z " fill="#000000"/><ellipse cx="395.625" cy="762.8516" fill="#84BE84" rx="7.5" ry="7.5" style="stroke:#038048;stroke-width:2.5;"/><text fill="#000000" font-family="sans-serif" font-size="30" font-style="italic" lengthAdjust="spacing" textLength="222.5" x="410.625" y="776.377">LocalServiceApi</text><line style="stroke:#D4AC0D;stroke-width:3.75;" x1="82.5" x2="852.5" y1="804.1016" y2="804.1016"/><ellipse cx="107.5" cy="831.6016" fill="#84BE84" rx="7.5" ry="7.5" style="stroke:#038048;stroke-width:2.5;"/><text fill="#000000" font-family="sans-serif" font-size="27.5" lengthAdjust="spacing" textLength="710" x="130" y="842.6489">String executeLocally (String jsonData, String readerName)</text><line style="stroke:#D4AC0D;stroke-width:2.5;stroke-dasharray:1.0,2.0;" x1="82.5" x2="852.5" y1="858.6914" y2="858.6914"/><ellipse cx="107.5" cy="886.1914" fill="#84BE84" rx="7.5" ry="7.5" style="stroke:#038048;stroke-width:2.5;"/><text fill="#000000" font-family="sans-serif" font-size="27.5" lengthAdjust="spacing" textLength="372.5" x="130" y="897.2388">void startPluginsObservation ()</text><ellipse cx="107.5" cy="920.7813" fill="#84BE84" rx="7.5" ry="7.5" style="stroke:#038048;stroke-width:2.5;"/><text fill="#000000" font-family="sans-serif" font-size="27.5" lengthAdjust="spacing" textLength="370" x="130" y="931.8286">void stopPluginsObservation ()</text><line style="stroke:#D4AC0D;stroke-width:2.5;stroke-dasharray:1.0,2.0;" x1="82.5" x2="852.5" y1="947.8711" y2="947.8711"/><ellipse cx="107.5" cy="975.3711" fill="#84BE84" rx="7.5" ry="7.5" style="stroke:#038048;stroke-width:2.5;"/><text fill="#000000" font-family="sans-serif" font-size="27.5" lengthAdjust="spacing" textLength="627.5" x="130" y="986.4185">void setPoolPluginNames (String... poolPluginNames)</text><!--MD5=[ba23ee47f0072bc0aa0f26e4f66e8703]
class LocalServiceFactorySpi--><rect codeLine="60" fill="#FEFECE" height="258.3594" id="LocalServiceFactorySpi" style="stroke:#D4AC0D;stroke-width:3.75;" width="535" x="1142.5" y="271.6016"/><ellipse cx="1227.25" cy="311.6016" fill="#B4A7E5" rx="27.5" ry="27.5" style="stroke:#B4A7E5;stroke-width:2.5;"/><path d="M1229.75,304.1016 L1229.75,319.1016 L1234.75,319.1016 L1235.9609,319.1016 L1237.25,320.6641 L1237.25,321.6016 L1237.25,322.5391 L1235.9609,324.1016 L1234.75,324.1016 L1219.75,324.1016 L1218.5391,324.1016 L1217.25,322.5391 L1217.25,321.6016 L1217.25,320.6641 L1218.5391,319.1016 L1219.75,319.1016 L1224.75,319.1016 L1224.75,304.1016 L1219.75,304.1016 L1218.5391,304.1016 L1217.25,302.5391 L1217.25,301.6016 L1217.25,300.6641 L1218.5391,299.1016 L1219.75,299.1016 L1234.75,299.1016 L1235.9609,299.1016 L1237.25,300.6641 L1237.25,301.6016 L1237.25,302.5391 L1235.9609,304.1016 L1234.75,304.1016 L1229.75,304.1016 Z " fill="#000000"/><ellipse cx="1285.25" cy="310.3516" fill="#84BE84" rx="7.5" ry="7.5" style="stroke:#038048;stroke-width:2.5;"/><text fill="#000000" font-family="sans-serif" font-size="30" font-style="italic" lengthAdjust="spacing" textLength="322.5" x="1300.25" y="323.877">LocalServiceFactorySpi</text><line style="stroke:#D4AC0D;stroke-width:3.75;" x1="1145" x2="1675" y1="351.6016" y2="351.6016"/><line style="stroke:#D4AC0D;stroke-width:3.75;" x1="1145" x2="1675" y1="371.6016" y2="371.6016"/><ellipse cx="1170" cy="399.1016" fill="#84BE84" rx="7.5" ry="7.5" style="stroke:#038048;stroke-width:2.5;"/><text fill="#000000" font-family="sans-serif" font-size="27.5" lengthAdjust="spacing" textLength="470" x="1192.5" y="410.1489">String getDistributedLocalApiVersion ()</text><ellipse cx="1170" cy="433.6914" fill="#84BE84" rx="7.5" ry="7.5" style="stroke:#038048;stroke-width:2.5;"/><text fill="#000000" font-family="sans-serif" font-size="27.5" lengthAdjust="spacing" textLength="395" x="1192.5" y="444.7388">String getCommonsApiVersion ()</text><ellipse cx="1170" cy="468.2813" fill="#84BE84" rx="7.5" ry="7.5" style="stroke:#038048;stroke-width:2.5;"/><text fill="#000000" font-family="sans-serif" font-size="27.5" lengthAdjust="spacing" textLength="367.5" x="1192.5" y="479.3286">String getLocalServiceName ()</text><ellipse cx="1170" cy="502.8711" fill="#84BE84" rx="7.5" ry="7.5" style="stroke:#038048;stroke-width:2.5;"/><text fill="#000000" font-family="sans-serif" font-size="27.5" lengthAdjust="spacing" textLength="425" x="1192.5" y="513.9185">LocalServiceSpi getLocalService ()</text><!--MD5=[a6e181576af5f47505adeb022c95499b]
class LocalServiceSpi--><rect codeLine="66" fill="#FEFECE" height="258.3594" id="LocalServiceSpi" style="stroke:#D4AC0D;stroke-width:3.75;" width="757.5" x="1031.25" y="734.1016"/><ellipse cx="1274.375" cy="774.1016" fill="#B4A7E5" rx="27.5" ry="27.5" style="stroke:#B4A7E5;stroke-width:2.5;"/><path d="M1276.875,766.6016 L1276.875,781.6016 L1281.875,781.6016 L1283.0859,781.6016 L1284.375,783.1641 L1284.375,784.1016 L1284.375,785.0391 L1283.0859,786.6016 L1281.875,786.6016 L1266.875,786.6016 L1265.6641,786.6016 L1264.375,785.0391 L1264.375,784.1016 L1264.375,783.1641 L1265.6641,781.6016 L1266.875,781.6016 L1271.875,781.6016 L1271.875,766.6016 L1266.875,766.6016 L1265.6641,766.6016 L1264.375,765.0391 L1264.375,764.1016 L1264.375,763.1641 L1265.6641,761.6016 L1266.875,761.6016 L1281.875,761.6016 L1283.0859,761.6016 L1284.375,763.1641 L1284.375,764.1016 L1284.375,765.0391 L1283.0859,766.6016 L1281.875,766.6016 L1276.875,766.6016 Z " fill="#000000"/><ellipse cx="1338.125" cy="772.8516" fill="#84BE84" rx="7.5" ry="7.5" style="stroke:#038048;stroke-width:2.5;"/><text fill="#000000" font-family="sans-serif" font-size="30" font-style="italic" lengthAdjust="spacing" textLength="222.5" x="1353.125" y="786.377">LocalServiceSpi</text><line style="stroke:#D4AC0D;stroke-width:3.75;" x1="1033.75" x2="1786.25" y1="814.1016" y2="814.1016"/><line style="stroke:#D4AC0D;stroke-width:3.75;" x1="1033.75" x2="1786.25" y1="834.1016" y2="834.1016"/><ellipse cx="1058.75" cy="861.6016" fill="#84BE84" rx="7.5" ry="7.5" style="stroke:#038048;stroke-width:2.5;"/><text fill="#000000" font-family="sans-serif" font-size="27.5" lengthAdjust="spacing" textLength="575" x="1081.25" y="872.6489">void connect (LocalServiceApi localServiceApi)</text><ellipse cx="1058.75" cy="896.1914" fill="#84BE84" rx="7.5" ry="7.5" style="stroke:#038048;stroke-width:2.5;"/><text fill="#000000" font-family="sans-serif" font-size="27.5" lengthAdjust="spacing" textLength="210" x="1081.25" y="907.2388">String getName ()</text><ellipse cx="1058.75" cy="930.7813" fill="#84BE84" rx="7.5" ry="7.5" style="stroke:#038048;stroke-width:2.5;"/><text fill="#000000" font-family="sans-serif" font-size="27.5" lengthAdjust="spacing" textLength="675" x="1081.25" y="941.8286">void onPluginEvent (String readerName, String jsonData)</text><ellipse cx="1058.75" cy="965.3711" fill="#84BE84" rx="7.5" ry="7.5" style="stroke:#038048;stroke-width:2.5;"/><text fill="#000000" font-family="sans-serif" font-size="27.5" lengthAdjust="spacing" textLength="692.5" x="1081.25" y="976.4185">void onReaderEvent (String readerName, String jsonData)</text><!--MD5=[e074787443691281e6486459aba16e12]
reverse link ApiProperties to LocalServiceFactorySpi--><path codeLine="77" d="M868.495,400.3516 C957.9825,400.3516 1055.08,400.3516 1142.0175,400.3516 " fill="none" id="ApiProperties-backto-LocalServiceFactorySpi" style="stroke:#27AE60;stroke-width:2.5;stroke-dasharray:7.0,7.0;"/><polygon fill="#27AE60" points="855.3475,400.3516,877.8475,410.3516,867.8475,400.3516,877.8475,390.3516,855.3475,400.3516" style="stroke:#27AE60;stroke-width:2.5;"/><text fill="#000000" font-family="sans-serif" font-size="32.5" lengthAdjust="spacing" textLength="100" x="948.75" y="344.0894">provide</text><polygon fill="#000000" points="901.25,371.6699,923.8627,379.0172,923.8627,364.3226,901.25,371.6699" style="stroke:#000000;stroke-width:2.5;"/><text fill="#000000" font-family="sans-serif" font-size="32.5" lengthAdjust="spacing" textLength="162.5" x="933.75" y="384.9683">API version</text><!--MD5=[618e7031c65a5cf122f68545294b0993]
link LocalServiceFactorySpi to LocalServiceSpi--><path codeLine="78" d="M1410,530.2916 C1410,589.5316 1410,660.1341 1410,720.8066 " fill="none" id="LocalServiceFactorySpi-to-LocalServiceSpi" style="stroke:#27AE60;stroke-width:2.5;stroke-dasharray:7.0,7.0;"/><polygon fill="#27AE60" points="1410,733.5966,1420,711.0966,1410,721.0966,1400,711.0966,1410,733.5966" style="stroke:#27AE60;stroke-width:2.5;"/><polygon fill="#000000" points="1422.5,639.541,1429.8473,616.9283,1415.1527,616.9283,1422.5,639.541" style="stroke:#000000;stroke-width:2.5;"/><text fill="#000000" font-family="sans-serif" font-size="32.5" lengthAdjust="spacing" textLength="100" x="1445" y="640.3394">provide</text><!--MD5=[5eb5da64408f485a31a23c2c58ced4bb]
reverse link LocalServiceApi to LocalServiceSpi--><path codeLine="80" d="M868.5175,862.8516 C922.2875,862.8516 977.305,862.8516 1030.6825,862.8516 " fill="none" id="LocalServiceApi-backto-LocalServiceSpi" style="stroke:#27AE60;stroke-width:2.5;stroke-dasharray:7.0,7.0;"/><polygon fill="#27AE60" points="855.6125,862.8516,878.1125,872.8516,868.1125,862.8516,878.1125,852.8516,855.6125,862.8516" style="stroke:#27AE60;stroke-width:2.5;"/><polygon fill="#000000" points="898.125,833.291,920.7377,840.6383,920.7377,825.9437,898.125,833.291" style="stroke:#000000;stroke-width:2.5;"/><text fill="#000000" font-family="sans-serif" font-size="32.5" lengthAdjust="spacing" textLength="52.5" x="933.125" y="846.5894">use</text><!--MD5=[040470006fd6da8032b6b3c47ae306ca]
@startuml
title
    Keyple 2.0 - keyple-java-distributed-local-api - 2.0 (21/05/2021)
end title

' == THEME ==

'Couleurs issues de : https://htmlcolorcodes.com/fr/tableau-de-couleur/tableau-de-couleur-design-plat/
!define C_GREY1 F8F9F9
!define C_GREY2 F2F3F4
!define C_GREY3 E5E7E9
!define C_GREY4 D7DBDD
!define C_GREY5 CACFD2
!define C_GREY6 BDC3C7
!define C_LINK 3498DB
!define C_USE 27AE60

skinparam Shadowing false
skinparam ClassFontStyle italic
skinparam ClassBorderColor #D4AC0D
skinparam stereotypeABorderColor #A9DCDF
skinparam stereotypeIBorderColor #B4A7E5
skinparam stereotypeCBorderColor #ADD1B2
skinparam stereotypeEBorderColor #EB93DF
' Red
skinparam ClassBackgroundColor<<red>> #FDEDEC
skinparam ClassBorderColor<<red>> #E74C3C
hide <<red>> stereotype
' Purple
skinparam ClassBackgroundColor<<purple>> #F4ECF7
skinparam ClassBorderColor<<purple>> #8E44AD
hide <<purple>> stereotype
' blue
skinparam ClassBackgroundColor<<blue>> #EBF5FB
skinparam ClassBorderColor<<blue>> #3498DB
hide <<blue>> stereotype
' Green
skinparam ClassBackgroundColor<<green>> #E9F7EF
skinparam ClassBorderColor<<green>> #27AE60
hide <<green>> stereotype
' Grey
skinparam ClassBackgroundColor<<grey>> #EAECEE
skinparam ClassBorderColor<<grey>> #2C3E50
hide <<grey>> stereotype

' == CONTENT ==

package "org.eclipse.keyple.core.distributed.local" as api {
    +class "**final** DistributedLocalApiProperties" as ApiProperties {
        +{static} **final** String VERSION
    }
    +interface LocalServiceApi {
        +String executeLocally (String jsonData, String readerName)
        ..
        +void startPluginsObservation ()
        +void stopPluginsObservation ()
        ..
        +void setPoolPluginNames (String... poolPluginNames)
    }
    package spi {
        +interface LocalServiceFactorySpi {
            +String getDistributedLocalApiVersion ()
            +String getCommonsApiVersion ()
            +String getLocalServiceName ()
            +LocalServiceSpi getLocalService ()
        }
        +interface LocalServiceSpi {
            +void connect (LocalServiceApi localServiceApi)
            +String getName ()
            +void onPluginEvent (String readerName, String jsonData)
            +void onReaderEvent (String readerName, String jsonData)
        }
    }
}

' Associations

LocalServiceFactorySpi .left.> ApiProperties #C_USE : provide\nAPI version <
LocalServiceFactorySpi ..> LocalServiceSpi #C_USE : provide >

LocalServiceSpi .left.> LocalServiceApi #C_USE : use >

' == LAYOUT ==

'PoolRemotePluginSpi -[hidden]- ObservableRemotePluginSpi

' == STYLE ==

package api #C_GREY1 {}
package spi #C_GREY2 {}

@enduml

@startuml
title
    Keyple 2.0 - keyple-java-distributed-local-api - 2.0 (21/05/2021)
end title



skinparam Shadowing false
skinparam ClassFontStyle italic
skinparam ClassBorderColor #D4AC0D
skinparam stereotypeABorderColor #A9DCDF
skinparam stereotypeIBorderColor #B4A7E5
skinparam stereotypeCBorderColor #ADD1B2
skinparam stereotypeEBorderColor #EB93DF
skinparam ClassBackgroundColor<<red>> #FDEDEC
skinparam ClassBorderColor<<red>> #E74C3C
hide <<red>> stereotype
skinparam ClassBackgroundColor<<purple>> #F4ECF7
skinparam ClassBorderColor<<purple>> #8E44AD
hide <<purple>> stereotype
skinparam ClassBackgroundColor<<blue>> #EBF5FB
skinparam ClassBorderColor<<blue>> #3498DB
hide <<blue>> stereotype
skinparam ClassBackgroundColor<<green>> #E9F7EF
skinparam ClassBorderColor<<green>> #27AE60
hide <<green>> stereotype
skinparam ClassBackgroundColor<<grey>> #EAECEE
skinparam ClassBorderColor<<grey>> #2C3E50
hide <<grey>> stereotype


package "org.eclipse.keyple.core.distributed.local" as api {
    +class "**final** DistributedLocalApiProperties" as ApiProperties {
        +{static} **final** String VERSION
    }
    +interface LocalServiceApi {
        +String executeLocally (String jsonData, String readerName)
        ..
        +void startPluginsObservation ()
        +void stopPluginsObservation ()
        ..
        +void setPoolPluginNames (String... poolPluginNames)
    }
    package spi {
        +interface LocalServiceFactorySpi {
            +String getDistributedLocalApiVersion ()
            +String getCommonsApiVersion ()
            +String getLocalServiceName ()
            +LocalServiceSpi getLocalService ()
        }
        +interface LocalServiceSpi {
            +void connect (LocalServiceApi localServiceApi)
            +String getName ()
            +void onPluginEvent (String readerName, String jsonData)
            +void onReaderEvent (String readerName, String jsonData)
        }
    }
}


LocalServiceFactorySpi .left.> ApiProperties #27AE60 : provide\nAPI version <
LocalServiceFactorySpi ..> LocalServiceSpi #27AE60 : provide >

LocalServiceSpi .left.> LocalServiceApi #27AE60 : use >




package api #F8F9F9 {}
package spi #F2F3F4 {}

@enduml

PlantUML version 1.2021.5(Sun Apr 25 13:20:28 CEST 2021)
(GPL source distribution)
Java Runtime: OpenJDK Runtime Environment
JVM: Dynamic Code Evolution 64-Bit Server VM
Default Encoding: Cp1252
Language: fr
Country: FR
--></g></svg>