<?xml version="1.0" encoding="UTF-8" standalone="no"?><svg xmlns="http://www.w3.org/2000/svg" xmlns:xlink="http://www.w3.org/1999/xlink" contentScriptType="application/ecmascript" contentStyleType="text/css" height="1852.5px" preserveAspectRatio="none" style="width:1817px;height:1852px;" version="1.1" viewBox="0 0 1817 1852" width="1817.5px" zoomAndPan="magnify"><defs/><g><text fill="#000000" font-family="sans-serif" font-size="45" lengthAdjust="spacing" textLength="1300" x="242.5" y="46.7139">Keyple 2.0 - keyple-java-distributed-remote-api - 2.0 (11/03/2021)</text><!--MD5=[7442f3b126ee602ae02566c1a49e158a]
cluster api--><polygon fill="#F8F9F9" points="40,71.6016,805,71.6016,822.5,130.625,1775,130.625,1775,1836.6016,40,1836.6016,40,71.6016" style="stroke:#000000;stroke-width:3.75;"/><line style="stroke:#000000;stroke-width:3.75;" x1="40" x2="822.5" y1="130.625" y2="130.625"/><text fill="#000000" font-family="sans-serif" font-size="35" font-weight="bold" lengthAdjust="spacing" textLength="750" x="50" y="112.9346">org.eclipse.keyple.core.distributed.remote</text><!--MD5=[f7e0e2453c87923036c1ac2adfb9cbf0]
cluster spi--><polygon fill="#F2F3F4" points="965,181.6016,1032.5,181.6016,1050,240.625,1715,240.625,1715,1776.6016,965,1776.6016,965,181.6016" style="stroke:#000000;stroke-width:3.75;"/><line style="stroke:#000000;stroke-width:3.75;" x1="965" x2="1050" y1="240.625" y2="240.625"/><text fill="#000000" font-family="sans-serif" font-size="35" font-weight="bold" lengthAdjust="spacing" textLength="52.5" x="975" y="222.9346">spi</text><!--MD5=[120218adfd8782b0057db0a1b8294250]
class ApiProperties--><rect codeLine="48" fill="#FEFECE" height="154.5898" id="ApiProperties" style="stroke:#D4AC0D;stroke-width:3.75;" width="620" x="152.5" y="340.3516"/><ellipse cx="190" cy="380.3516" fill="#ADD1B2" rx="27.5" ry="27.5" style="stroke:#ADD1B2;stroke-width:2.5;"/><path d="M195,371.6016 Q195.5078,370.3516 196.0938,369.7266 Q196.6797,369.1016 197.3438,369.1016 Q198.5156,369.1016 199.2578,369.8047 Q200,370.5078 200,372.1484 L200,376.0547 Q200,377.6953 199.2969,378.3984 Q198.5938,379.1016 197.5,379.1016 Q196.5234,379.1016 195.8984,378.6719 Q195.2734,378.2422 195,377.1094 Q194.8828,376.3281 194.4531,375.8984 Q193.6719,375.0781 192.2656,374.6094 Q190.8594,374.1016 189.4531,374.1016 Q187.6953,374.1016 186.2109,374.8047 Q184.7656,375.5078 183.6328,377.0703 Q182.5,378.6328 182.5,380.7813 L182.5,383.0859 Q182.5,385.6641 184.6094,387.3828 Q186.7188,389.1016 190.4688,389.1016 Q192.6953,389.1016 194.2578,388.5938 Q195.1563,388.3203 196.1719,387.4219 Q196.8359,386.9141 197.1875,386.7578 Q197.5391,386.6016 197.9688,386.6016 Q198.7891,386.6016 199.375,387.2656 Q200,387.8906 200,388.7891 Q200,389.6484 199.1406,390.6641 Q197.8906,392.1484 195.8984,392.9688 Q193.2813,394.1016 190.0781,394.1016 Q186.3281,394.1016 183.3203,392.6172 Q180.8984,391.4453 179.1797,388.9063 Q177.5,386.3672 177.5,383.3594 L177.5,380.625 Q177.5,377.5 178.9844,374.7656 Q180.5078,372.0313 183.125,370.5859 Q185.7813,369.1016 188.75,369.1016 Q190.5469,369.1016 192.1094,369.7266 Q193.6719,370.3516 195,371.6016 Z " fill="#000000"/><ellipse cx="237.5" cy="379.1016" fill="#84BE84" rx="7.5" ry="7.5" style="stroke:#038048;stroke-width:2.5;"/><text fill="#000000" font-family="sans-serif" font-size="30" font-style="italic" font-weight="bold" lengthAdjust="spacing" textLength="60" x="252.5" y="392.627">final</text><text fill="#000000" font-family="sans-serif" font-size="30" font-style="italic" lengthAdjust="spacing" textLength="445" x="320" y="392.627">DistributedRemoteApiProperties</text><line style="stroke:#D4AC0D;stroke-width:3.75;" x1="155" x2="770" y1="420.3516" y2="420.3516"/><ellipse cx="180" cy="447.8516" fill="none" rx="7.5" ry="7.5" style="stroke:#038048;stroke-width:2.5;"/><text fill="#000000" font-family="sans-serif" font-size="27.5" font-weight="bold" lengthAdjust="spacing" text-decoration="underline" textLength="57.5" x="202.5" y="458.8989">final</text><text fill="#000000" font-family="sans-serif" font-size="27.5" lengthAdjust="spacing" text-decoration="underline" textLength="190" x="267.5" y="458.8989">String VERSION</text><line style="stroke:#D4AC0D;stroke-width:3.75;" x1="155" x2="770" y1="474.9414" y2="474.9414"/><!--MD5=[ebe15ae7262c867cfb29a15853ea90dd]
class RemotePluginManager--><rect codeLine="51" fill="#FEFECE" height="154.5898" id="RemotePluginManager" style="stroke:#D4AC0D;stroke-width:3.75;" width="517.5" x="293.75" y="907.8516"/><ellipse cx="372.875" cy="947.8516" fill="#B4A7E5" rx="27.5" ry="27.5" style="stroke:#B4A7E5;stroke-width:2.5;"/><path d="M375.375,940.3516 L375.375,955.3516 L380.375,955.3516 L381.5859,955.3516 L382.875,956.9141 L382.875,957.8516 L382.875,958.7891 L381.5859,960.3516 L380.375,960.3516 L365.375,960.3516 L364.1641,960.3516 L362.875,958.7891 L362.875,957.8516 L362.875,956.9141 L364.1641,955.3516 L365.375,955.3516 L370.375,955.3516 L370.375,940.3516 L365.375,940.3516 L364.1641,940.3516 L362.875,938.7891 L362.875,937.8516 L362.875,936.9141 L364.1641,935.3516 L365.375,935.3516 L380.375,935.3516 L381.5859,935.3516 L382.875,936.9141 L382.875,937.8516 L382.875,938.7891 L381.5859,940.3516 L380.375,940.3516 L375.375,940.3516 Z " fill="#000000"/><ellipse cx="429.625" cy="946.6016" fill="#84BE84" rx="7.5" ry="7.5" style="stroke:#038048;stroke-width:2.5;"/><text fill="#000000" font-family="sans-serif" font-size="30" font-style="italic" lengthAdjust="spacing" textLength="317.5" x="444.625" y="960.127">RemotePluginManager</text><line style="stroke:#D4AC0D;stroke-width:3.75;" x1="296.25" x2="808.75" y1="987.8516" y2="987.8516"/><line style="stroke:#D4AC0D;stroke-width:2.5;" x1="296.25" x2="808.75" y1="1007.8516" y2="1007.8516"/><ellipse cx="321.25" cy="1035.3516" fill="#84BE84" rx="7.5" ry="7.5" style="stroke:#038048;stroke-width:2.5;"/><text fill="#000000" font-family="sans-serif" font-size="27.5" lengthAdjust="spacing" textLength="452.5" x="343.75" y="1046.3989">void onReaderEvent (String jsonData)</text><!--MD5=[62f7d7f2588c82e83841c1b3d8071c16]
class ObservableRemotePluginManager--><rect codeLine="55" fill="#FEFECE" height="347.5391" id="ObservableRemotePluginManager" style="stroke:#D4AC0D;stroke-width:3.75;" width="842.5" x="81.25" y="1406.6016"/><ellipse cx="238.125" cy="1446.6016" fill="#B4A7E5" rx="27.5" ry="27.5" style="stroke:#B4A7E5;stroke-width:2.5;"/><path d="M240.625,1439.1016 L240.625,1454.1016 L245.625,1454.1016 L246.8359,1454.1016 L248.125,1455.6641 L248.125,1456.6016 L248.125,1457.5391 L246.8359,1459.1016 L245.625,1459.1016 L230.625,1459.1016 L229.4141,1459.1016 L228.125,1457.5391 L228.125,1456.6016 L228.125,1455.6641 L229.4141,1454.1016 L230.625,1454.1016 L235.625,1454.1016 L235.625,1439.1016 L230.625,1439.1016 L229.4141,1439.1016 L228.125,1437.5391 L228.125,1436.6016 L228.125,1435.6641 L229.4141,1434.1016 L230.625,1434.1016 L245.625,1434.1016 L246.8359,1434.1016 L248.125,1435.6641 L248.125,1436.6016 L248.125,1437.5391 L246.8359,1439.1016 L245.625,1439.1016 L240.625,1439.1016 Z " fill="#000000"/><ellipse cx="301.875" cy="1445.3516" fill="#84BE84" rx="7.5" ry="7.5" style="stroke:#038048;stroke-width:2.5;"/><text fill="#000000" font-family="sans-serif" font-size="30" font-style="italic" lengthAdjust="spacing" textLength="480" x="316.875" y="1458.877">ObservableRemotePluginManager</text><line style="stroke:#D4AC0D;stroke-width:3.75;" x1="83.75" x2="921.25" y1="1486.6016" y2="1486.6016"/><line style="stroke:#D4AC0D;stroke-width:2.5;" x1="83.75" x2="921.25" y1="1506.6016" y2="1506.6016"/><ellipse cx="108.75" cy="1534.1016" fill="#84BE84" rx="7.5" ry="7.5" style="stroke:#038048;stroke-width:2.5;"/><text fill="#000000" font-family="sans-serif" font-size="27.5" lengthAdjust="spacing" textLength="777.5" x="131.25" y="1545.1489">void registerMasterReader (RemoteReaderSpi masterReaderSpi)</text><ellipse cx="108.75" cy="1568.6914" fill="#84BE84" rx="7.5" ry="7.5" style="stroke:#038048;stroke-width:2.5;"/><text fill="#000000" font-family="sans-serif" font-size="27.5" lengthAdjust="spacing" textLength="742.5" x="131.25" y="1579.7388">void registerSlaveReader (RemoteReaderSpi slaveReaderSpi,</text><text fill="#000000" font-family="sans-serif" font-size="27.5" lengthAdjust="spacing" textLength="322.5" x="191.25" y="1614.3286">String masterReaderName,</text><text fill="#000000" font-family="sans-serif" font-size="27.5" lengthAdjust="spacing" textLength="347.5" x="191.25" y="1648.9185">String readerEventJsonData)</text><ellipse cx="108.75" cy="1672.4609" fill="#84BE84" rx="7.5" ry="7.5" style="stroke:#038048;stroke-width:2.5;"/><text fill="#000000" font-family="sans-serif" font-size="27.5" lengthAdjust="spacing" textLength="487.5" x="131.25" y="1683.5083">boolean unregisterReader (readerName)</text><line style="stroke:#D4AC0D;stroke-width:2.5;stroke-dasharray:1.0,2.0;" x1="83.75" x2="921.25" y1="1699.5508" y2="1699.5508"/><ellipse cx="108.75" cy="1727.0508" fill="#84BE84" rx="7.5" ry="7.5" style="stroke:#038048;stroke-width:2.5;"/><text fill="#000000" font-family="sans-serif" font-size="27.5" lengthAdjust="spacing" textLength="435" x="131.25" y="1738.0981">void onPluginEvent (String jsonData)</text><!--MD5=[c2370bc74128b93bd072b6f31e9991b0]
class RemotePluginFactorySpi--><rect codeLine="66" fill="#FEFECE" height="292.9492" id="RemotePluginFactorySpi" style="stroke:#D4AC0D;stroke-width:3.75;" width="560" x="1060" y="271.6016"/><ellipse cx="1147" cy="311.6016" fill="#B4A7E5" rx="27.5" ry="27.5" style="stroke:#B4A7E5;stroke-width:2.5;"/><path d="M1149.5,304.1016 L1149.5,319.1016 L1154.5,319.1016 L1155.7109,319.1016 L1157,320.6641 L1157,321.6016 L1157,322.5391 L1155.7109,324.1016 L1154.5,324.1016 L1139.5,324.1016 L1138.2891,324.1016 L1137,322.5391 L1137,321.6016 L1137,320.6641 L1138.2891,319.1016 L1139.5,319.1016 L1144.5,319.1016 L1144.5,304.1016 L1139.5,304.1016 L1138.2891,304.1016 L1137,302.5391 L1137,301.6016 L1137,300.6641 L1138.2891,299.1016 L1139.5,299.1016 L1154.5,299.1016 L1155.7109,299.1016 L1157,300.6641 L1157,301.6016 L1157,302.5391 L1155.7109,304.1016 L1154.5,304.1016 L1149.5,304.1016 Z " fill="#000000"/><ellipse cx="1205.5" cy="310.3516" fill="#84BE84" rx="7.5" ry="7.5" style="stroke:#038048;stroke-width:2.5;"/><text fill="#000000" font-family="sans-serif" font-size="30" font-style="italic" lengthAdjust="spacing" textLength="342.5" x="1220.5" y="323.877">RemotePluginFactorySpi</text><line style="stroke:#D4AC0D;stroke-width:3.75;" x1="1062.5" x2="1617.5" y1="351.6016" y2="351.6016"/><line style="stroke:#D4AC0D;stroke-width:3.75;" x1="1062.5" x2="1617.5" y1="371.6016" y2="371.6016"/><ellipse cx="1087.5" cy="399.1016" fill="#84BE84" rx="7.5" ry="7.5" style="stroke:#038048;stroke-width:2.5;"/><text fill="#000000" font-family="sans-serif" font-size="27.5" lengthAdjust="spacing" textLength="495" x="1110" y="410.1489">String getDistributedRemoteApiVersion ()</text><ellipse cx="1087.5" cy="433.6914" fill="#84BE84" rx="7.5" ry="7.5" style="stroke:#038048;stroke-width:2.5;"/><text fill="#000000" font-family="sans-serif" font-size="27.5" lengthAdjust="spacing" textLength="395" x="1110" y="444.7388">String getCommonsApiVersion ()</text><ellipse cx="1087.5" cy="468.2813" fill="#84BE84" rx="7.5" ry="7.5" style="stroke:#038048;stroke-width:2.5;"/><text fill="#000000" font-family="sans-serif" font-size="27.5" lengthAdjust="spacing" textLength="370" x="1110" y="479.3286">String getRemotePluginName ()</text><ellipse cx="1087.5" cy="502.8711" fill="#84BE84" rx="7.5" ry="7.5" style="stroke:#038048;stroke-width:2.5;"/><text fill="#000000" font-family="sans-serif" font-size="27.5" lengthAdjust="spacing" textLength="430" x="1110" y="513.9185">RemotePluginSpi getRemotePlugin ()</text><ellipse cx="1087.5" cy="537.4609" fill="#84BE84" rx="7.5" ry="7.5" style="stroke:#038048;stroke-width:2.5;"/><text fill="#000000" font-family="sans-serif" font-size="27.5" lengthAdjust="spacing" textLength="270" x="1110" y="548.5083">boolean isPoolPlugin ()</text><!--MD5=[733b899168be945616a1d8aa95c72981]
class RemotePluginSpi--><rect codeLine="73" fill="#FEFECE" height="451.3086" id="RemotePluginSpi" style="stroke:#D4AC0D;stroke-width:3.75;" width="670" x="1005" y="759.1016"/><ellipse cx="1194.375" cy="799.1016" fill="#B4A7E5" rx="27.5" ry="27.5" style="stroke:#B4A7E5;stroke-width:2.5;"/><path d="M1196.875,791.6016 L1196.875,806.6016 L1201.875,806.6016 L1203.0859,806.6016 L1204.375,808.1641 L1204.375,809.1016 L1204.375,810.0391 L1203.0859,811.6016 L1201.875,811.6016 L1186.875,811.6016 L1185.6641,811.6016 L1184.375,810.0391 L1184.375,809.1016 L1184.375,808.1641 L1185.6641,806.6016 L1186.875,806.6016 L1191.875,806.6016 L1191.875,791.6016 L1186.875,791.6016 L1185.6641,791.6016 L1184.375,790.0391 L1184.375,789.1016 L1184.375,788.1641 L1185.6641,786.6016 L1186.875,786.6016 L1201.875,786.6016 L1203.0859,786.6016 L1204.375,788.1641 L1204.375,789.1016 L1204.375,790.0391 L1203.0859,791.6016 L1201.875,791.6016 L1196.875,791.6016 Z " fill="#000000"/><ellipse cx="1258.125" cy="797.8516" fill="#84BE84" rx="7.5" ry="7.5" style="stroke:#038048;stroke-width:2.5;"/><text fill="#000000" font-family="sans-serif" font-size="30" font-style="italic" lengthAdjust="spacing" textLength="242.5" x="1273.125" y="811.377">RemotePluginSpi</text><line style="stroke:#D4AC0D;stroke-width:3.75;" x1="1007.5" x2="1672.5" y1="839.1016" y2="839.1016"/><line style="stroke:#D4AC0D;stroke-width:2.5;" x1="1007.5" x2="1672.5" y1="859.1016" y2="859.1016"/><ellipse cx="1032.5" cy="886.6016" fill="#84BE84" rx="7.5" ry="7.5" style="stroke:#038048;stroke-width:2.5;"/><text fill="#000000" font-family="sans-serif" font-size="27.5" lengthAdjust="spacing" textLength="605" x="1055" y="897.6489">void setManager (RemotePluginManager manager)</text><ellipse cx="1032.5" cy="921.1914" fill="#84BE84" rx="7.5" ry="7.5" style="stroke:#038048;stroke-width:2.5;"/><text fill="#000000" font-family="sans-serif" font-size="27.5" lengthAdjust="spacing" textLength="210" x="1055" y="932.2388">String getName ()</text><ellipse cx="1032.5" cy="955.7813" fill="#84BE84" rx="7.5" ry="7.5" style="stroke:#038048;stroke-width:2.5;"/><text fill="#000000" font-family="sans-serif" font-size="27.5" lengthAdjust="spacing" textLength="495" x="1055" y="966.8286">String executeRemotely (String jsonData)</text><ellipse cx="1032.5" cy="990.3711" fill="#84BE84" rx="7.5" ry="7.5" style="stroke:#038048;stroke-width:2.5;"/><text fill="#000000" font-family="sans-serif" font-size="27.5" lengthAdjust="spacing" textLength="495" x="1055" y="1001.4185">RemoteReaderSpi createRemoteReader (</text><text fill="#000000" font-family="sans-serif" font-size="27.5" lengthAdjust="spacing" textLength="295" x="1115" y="1036.0083">String localReaderName,</text><text fill="#000000" font-family="sans-serif" font-size="27.5" lengthAdjust="spacing" textLength="272.5" x="1115" y="1070.5981">boolean isObservable)</text><line style="stroke:#D4AC0D;stroke-width:2.5;stroke-dasharray:1.0,2.0;" x1="1007.5" x2="1672.5" y1="1086.6406" y2="1086.6406"/><ellipse cx="1032.5" cy="1114.1406" fill="#84BE84" rx="7.5" ry="7.5" style="stroke:#038048;stroke-width:2.5;"/><text fill="#000000" font-family="sans-serif" font-size="27.5" lengthAdjust="spacing" textLength="290" x="1055" y="1125.188">boolean isObservable ()</text><ellipse cx="1032.5" cy="1148.7305" fill="#84BE84" rx="7.5" ry="7.5" style="stroke:#038048;stroke-width:2.5;"/><text fill="#000000" font-family="sans-serif" font-size="27.5" lengthAdjust="spacing" textLength="372.5" x="1055" y="1159.7778">void startPluginsObservation ()</text><ellipse cx="1032.5" cy="1183.3203" fill="#84BE84" rx="7.5" ry="7.5" style="stroke:#038048;stroke-width:2.5;"/><text fill="#000000" font-family="sans-serif" font-size="27.5" lengthAdjust="spacing" textLength="370" x="1055" y="1194.3677">void stopPluginsObservation ()</text><!--MD5=[3937379067c1c7d1f35002e0ca836dbd]
class RemoteReaderSpi--><rect codeLine="86" fill="#FEFECE" height="312.9492" id="RemoteReaderSpi" style="stroke:#D4AC0D;stroke-width:3.75;" width="560" x="1060" y="1424.1016"/><ellipse cx="1186.875" cy="1464.1016" fill="#B4A7E5" rx="27.5" ry="27.5" style="stroke:#B4A7E5;stroke-width:2.5;"/><path d="M1189.375,1456.6016 L1189.375,1471.6016 L1194.375,1471.6016 L1195.5859,1471.6016 L1196.875,1473.1641 L1196.875,1474.1016 L1196.875,1475.0391 L1195.5859,1476.6016 L1194.375,1476.6016 L1179.375,1476.6016 L1178.1641,1476.6016 L1176.875,1475.0391 L1176.875,1474.1016 L1176.875,1473.1641 L1178.1641,1471.6016 L1179.375,1471.6016 L1184.375,1471.6016 L1184.375,1456.6016 L1179.375,1456.6016 L1178.1641,1456.6016 L1176.875,1455.0391 L1176.875,1454.1016 L1176.875,1453.1641 L1178.1641,1451.6016 L1179.375,1451.6016 L1194.375,1451.6016 L1195.5859,1451.6016 L1196.875,1453.1641 L1196.875,1454.1016 L1196.875,1455.0391 L1195.5859,1456.6016 L1194.375,1456.6016 L1189.375,1456.6016 Z " fill="#000000"/><ellipse cx="1250.625" cy="1462.8516" fill="#84BE84" rx="7.5" ry="7.5" style="stroke:#038048;stroke-width:2.5;"/><text fill="#000000" font-family="sans-serif" font-size="30" font-style="italic" lengthAdjust="spacing" textLength="257.5" x="1265.625" y="1476.377">RemoteReaderSpi</text><line style="stroke:#D4AC0D;stroke-width:3.75;" x1="1062.5" x2="1617.5" y1="1504.1016" y2="1504.1016"/><line style="stroke:#D4AC0D;stroke-width:2.5;" x1="1062.5" x2="1617.5" y1="1524.1016" y2="1524.1016"/><ellipse cx="1087.5" cy="1551.6016" fill="#84BE84" rx="7.5" ry="7.5" style="stroke:#038048;stroke-width:2.5;"/><text fill="#000000" font-family="sans-serif" font-size="27.5" lengthAdjust="spacing" textLength="210" x="1110" y="1562.6489">String getName ()</text><ellipse cx="1087.5" cy="1586.1914" fill="#84BE84" rx="7.5" ry="7.5" style="stroke:#038048;stroke-width:2.5;"/><text fill="#000000" font-family="sans-serif" font-size="27.5" lengthAdjust="spacing" textLength="495" x="1110" y="1597.2388">String executeRemotely (String jsonData)</text><line style="stroke:#D4AC0D;stroke-width:2.5;stroke-dasharray:1.0,2.0;" x1="1062.5" x2="1617.5" y1="1613.2813" y2="1613.2813"/><ellipse cx="1087.5" cy="1640.7813" fill="#84BE84" rx="7.5" ry="7.5" style="stroke:#038048;stroke-width:2.5;"/><text fill="#000000" font-family="sans-serif" font-size="27.5" lengthAdjust="spacing" textLength="290" x="1110" y="1651.8286">boolean isObservable ()</text><ellipse cx="1087.5" cy="1675.3711" fill="#84BE84" rx="7.5" ry="7.5" style="stroke:#038048;stroke-width:2.5;"/><text fill="#000000" font-family="sans-serif" font-size="27.5" lengthAdjust="spacing" textLength="375" x="1110" y="1686.4185">void startReaderObservation ()</text><ellipse cx="1087.5" cy="1709.9609" fill="#84BE84" rx="7.5" ry="7.5" style="stroke:#038048;stroke-width:2.5;"/><text fill="#000000" font-family="sans-serif" font-size="27.5" lengthAdjust="spacing" textLength="372.5" x="1110" y="1721.0083">void stopReaderObservation ()</text><!--MD5=[ecf961c3d92ed9dac5479dfd5debe97a]
reverse link RemotePluginManager to ObservableRemotePluginManager--><path d="M541.82,1113.8691 C534.6125,1198.9266 525.0075,1312.2616 517.095,1405.6266 " fill="none" id="RemotePluginManager-backto-ObservableRemotePluginManager" style="stroke:#A80036;stroke-width:2.5;"/><polygon fill="none" points="524.405,1112.1191,546.065,1063.7766,559.28,1115.0741,524.405,1112.1191" style="stroke:#A80036;stroke-width:2.5;"/><!--MD5=[4174bbe09b6fc05497605efa272e822c]
reverse link ApiProperties to RemotePluginFactorySpi--><path codeLine="100" d="M786.3,417.8516 C876.07,417.8516 972.745,417.8516 1059.7975,417.8516 " fill="none" id="ApiProperties-backto-RemotePluginFactorySpi" style="stroke:#27AE60;stroke-width:2.5;stroke-dasharray:7.0,7.0;"/><polygon fill="#27AE60" points="773.1075,417.8516,795.6075,427.8516,785.6075,417.8516,795.6075,407.8516,773.1075,417.8516" style="stroke:#27AE60;stroke-width:2.5;"/><text fill="#000000" font-family="sans-serif" font-size="32.5" lengthAdjust="spacing" textLength="100" x="866.25" y="361.5894">provide</text><polygon fill="#000000" points="818.75,389.1699,841.3627,396.5172,841.3627,381.8226,818.75,389.1699" style="stroke:#000000;stroke-width:2.5;"/><text fill="#000000" font-family="sans-serif" font-size="32.5" lengthAdjust="spacing" textLength="162.5" x="851.25" y="402.4683">API version</text><!--MD5=[71bd7d84c6f989e29e36bec57e3f046c]
link RemotePluginFactorySpi to RemotePluginSpi--><path codeLine="101" d="M1340,564.4791 C1340,619.4841 1340,683.7516 1340,745.1791 " fill="none" id="RemotePluginFactorySpi-to-RemotePluginSpi" style="stroke:#27AE60;stroke-width:2.5;stroke-dasharray:7.0,7.0;"/><polygon fill="#27AE60" points="1340,758.2391,1350,735.7391,1340,745.7391,1330,735.7391,1340,758.2391" style="stroke:#27AE60;stroke-width:2.5;"/><polygon fill="#000000" points="1352.5,674.541,1359.8473,651.9283,1345.1527,651.9283,1352.5,674.541" style="stroke:#000000;stroke-width:2.5;"/><text fill="#000000" font-family="sans-serif" font-size="32.5" lengthAdjust="spacing" textLength="100" x="1375" y="675.3394">provide</text><!--MD5=[f33d040dcb77d1f7644b5e19c2b3e36f]
link RemotePluginSpi to RemoteReaderSpi--><path codeLine="103" d="M1340,1211.7466 C1340,1277.7891 1340,1348.8866 1340,1410.6991 " fill="none" id="RemotePluginSpi-to-RemoteReaderSpi" style="stroke:#27AE60;stroke-width:2.5;stroke-dasharray:7.0,7.0;"/><polygon fill="#27AE60" points="1340,1423.7441,1350,1401.2441,1340,1411.2441,1330,1401.2441,1340,1423.7441" style="stroke:#27AE60;stroke-width:2.5;"/><polygon fill="#000000" points="1352.5,1322.041,1359.8473,1299.4283,1345.1527,1299.4283,1352.5,1322.041" style="stroke:#000000;stroke-width:2.5;"/><text fill="#000000" font-family="sans-serif" font-size="32.5" lengthAdjust="spacing" textLength="100" x="1375" y="1322.8394">provide</text><!--MD5=[b1466399e19d221cd449046bbaf544e6]
reverse link RemotePluginManager to RemotePluginSpi--><path codeLine="104" d="M824.57,985.3516 C882.71,985.3516 944.7775,985.3516 1004.9725,985.3516 " fill="none" id="RemotePluginManager-backto-RemotePluginSpi" style="stroke:#27AE60;stroke-width:2.5;stroke-dasharray:7.0,7.0;"/><polygon fill="#27AE60" points="811.4475,985.3516,833.9475,995.3516,823.9475,985.3516,833.9475,975.3516,811.4475,985.3516" style="stroke:#27AE60;stroke-width:2.5;"/><polygon fill="#000000" points="863.125,955.791,885.7377,963.1383,885.7377,948.4437,863.125,955.791" style="stroke:#000000;stroke-width:2.5;"/><text fill="#000000" font-family="sans-serif" font-size="32.5" lengthAdjust="spacing" textLength="52.5" x="898.125" y="969.0894">use</text><!--MD5=[d0651089d3ad80f4a81d92a3b2b2e067]
@startuml
title
    Keyple 2.0 - keyple-java-distributed-remote-api - 2.0 (11/03/2021)
end title

' == THEME ==

'Couleurs issues de : https://htmlcolorcodes.com/fr/tableau-de-couleur/tableau-de-couleur-design-plat/
!define C_GREY1 F8F9F9
!define C_GREY2 F2F3F4
!define C_GREY3 E5E7E9
!define C_GREY4 D7DBDD
!define C_GREY5 CACFD2
!define C_GREY6 BDC3C7
!define C_LINK 3498DB
!define C_USE 27AE60

skinparam Shadowing false
skinparam ClassFontStyle italic
skinparam ClassBorderColor #D4AC0D
skinparam stereotypeABorderColor #A9DCDF
skinparam stereotypeIBorderColor #B4A7E5
skinparam stereotypeCBorderColor #ADD1B2
skinparam stereotypeEBorderColor #EB93DF
' Red
skinparam ClassBackgroundColor<<red>> #FDEDEC
skinparam ClassBorderColor<<red>> #E74C3C
hide <<red>> stereotype
' Purple
skinparam ClassBackgroundColor<<purple>> #F4ECF7
skinparam ClassBorderColor<<purple>> #8E44AD
hide <<purple>> stereotype
' blue
skinparam ClassBackgroundColor<<blue>> #EBF5FB
skinparam ClassBorderColor<<blue>> #3498DB
hide <<blue>> stereotype
' Green
skinparam ClassBackgroundColor<<green>> #E9F7EF
skinparam ClassBorderColor<<green>> #27AE60
hide <<green>> stereotype
' Grey
skinparam ClassBackgroundColor<<grey>> #EAECEE
skinparam ClassBorderColor<<grey>> #2C3E50
hide <<grey>> stereotype

' == CONTENT ==

package "org.eclipse.keyple.core.distributed.remote" as api {
    +class "**final** DistributedRemoteApiProperties" as ApiProperties {
        +{static} **final** String VERSION
    }
    +interface RemotePluginManager {
        - -
        +void onReaderEvent (String jsonData)
    }
    +interface ObservableRemotePluginManager extends RemotePluginManager {
        - -
        +void registerMasterReader (RemoteReaderSpi masterReaderSpi)
        +void registerSlaveReader (RemoteReaderSpi slaveReaderSpi,
            \tString masterReaderName,
            \tString readerEventJsonData)
        +boolean unregisterReader (readerName)
        ..
        +void onPluginEvent (String jsonData)
    }
    package spi {
        +interface RemotePluginFactorySpi {
            +String getDistributedRemoteApiVersion ()
            +String getCommonsApiVersion ()
            +String getRemotePluginName ()
            +RemotePluginSpi getRemotePlugin ()
            +boolean isPoolPlugin ()
        }
        +interface RemotePluginSpi {
            - -
            +void setManager (RemotePluginManager manager)
            +String getName ()
            +String executeRemotely (String jsonData)
            +RemoteReaderSpi createRemoteReader (
                \tString localReaderName,
                \tboolean isObservable)
            ..
            +boolean isObservable ()
            +void startPluginsObservation ()
            +void stopPluginsObservation ()
        }
        +interface RemoteReaderSpi {
            - -
            +String getName ()
            +String executeRemotely (String jsonData)
            ..
            +boolean isObservable ()
            +void startReaderObservation ()
            +void stopReaderObservation ()
        }
    }
}

' Associations

RemotePluginFactorySpi .left.> ApiProperties #C_USE : provide\nAPI version <
RemotePluginFactorySpi ..> RemotePluginSpi #C_USE : provide >

RemotePluginSpi ..> RemoteReaderSpi #C_USE : provide >
RemotePluginSpi .left.> RemotePluginManager #C_USE : use >

' == LAYOUT ==

'ObservableRemotePluginSpi -[hidden]- RemoteReaderSpi

' == STYLE ==

package api #C_GREY1 {}
package spi #C_GREY2 {}

@enduml

@startuml
title
    Keyple 2.0 - keyple-java-distributed-remote-api - 2.0 (11/03/2021)
end title



skinparam Shadowing false
skinparam ClassFontStyle italic
skinparam ClassBorderColor #D4AC0D
skinparam stereotypeABorderColor #A9DCDF
skinparam stereotypeIBorderColor #B4A7E5
skinparam stereotypeCBorderColor #ADD1B2
skinparam stereotypeEBorderColor #EB93DF
skinparam ClassBackgroundColor<<red>> #FDEDEC
skinparam ClassBorderColor<<red>> #E74C3C
hide <<red>> stereotype
skinparam ClassBackgroundColor<<purple>> #F4ECF7
skinparam ClassBorderColor<<purple>> #8E44AD
hide <<purple>> stereotype
skinparam ClassBackgroundColor<<blue>> #EBF5FB
skinparam ClassBorderColor<<blue>> #3498DB
hide <<blue>> stereotype
skinparam ClassBackgroundColor<<green>> #E9F7EF
skinparam ClassBorderColor<<green>> #27AE60
hide <<green>> stereotype
skinparam ClassBackgroundColor<<grey>> #EAECEE
skinparam ClassBorderColor<<grey>> #2C3E50
hide <<grey>> stereotype


package "org.eclipse.keyple.core.distributed.remote" as api {
    +class "**final** DistributedRemoteApiProperties" as ApiProperties {
        +{static} **final** String VERSION
    }
    +interface RemotePluginManager {
        - -
        +void onReaderEvent (String jsonData)
    }
    +interface ObservableRemotePluginManager extends RemotePluginManager {
        - -
        +void registerMasterReader (RemoteReaderSpi masterReaderSpi)
        +void registerSlaveReader (RemoteReaderSpi slaveReaderSpi,
            \tString masterReaderName,
            \tString readerEventJsonData)
        +boolean unregisterReader (readerName)
        ..
        +void onPluginEvent (String jsonData)
    }
    package spi {
        +interface RemotePluginFactorySpi {
            +String getDistributedRemoteApiVersion ()
            +String getCommonsApiVersion ()
            +String getRemotePluginName ()
            +RemotePluginSpi getRemotePlugin ()
            +boolean isPoolPlugin ()
        }
        +interface RemotePluginSpi {
            - -
            +void setManager (RemotePluginManager manager)
            +String getName ()
            +String executeRemotely (String jsonData)
            +RemoteReaderSpi createRemoteReader (
                \tString localReaderName,
                \tboolean isObservable)
            ..
            +boolean isObservable ()
            +void startPluginsObservation ()
            +void stopPluginsObservation ()
        }
        +interface RemoteReaderSpi {
            - -
            +String getName ()
            +String executeRemotely (String jsonData)
            ..
            +boolean isObservable ()
            +void startReaderObservation ()
            +void stopReaderObservation ()
        }
    }
}


RemotePluginFactorySpi .left.> ApiProperties #27AE60 : provide\nAPI version <
RemotePluginFactorySpi ..> RemotePluginSpi #27AE60 : provide >

RemotePluginSpi ..> RemoteReaderSpi #27AE60 : provide >
RemotePluginSpi .left.> RemotePluginManager #27AE60 : use >




package api #F8F9F9 {}
package spi #F2F3F4 {}

@enduml

PlantUML version 1.2021.01(Tue Feb 02 08:55:08 CET 2021)
(GPL source distribution)
Java Runtime: OpenJDK Runtime Environment
JVM: OpenJDK 64-Bit Server VM
Default Encoding: Cp1252
Language: fr
Country: FR
--></g></svg>