<?xml version="1.0" encoding="UTF-8" standalone="no"?><svg xmlns="http://www.w3.org/2000/svg" xmlns:xlink="http://www.w3.org/1999/xlink" contentScriptType="application/ecmascript" contentStyleType="text/css" height="1730px" preserveAspectRatio="none" style="width:1967px;height:1730px;" version="1.1" viewBox="0 0 1967 1730" width="1967.5px" zoomAndPan="magnify"><defs/><g><text fill="#000000" font-family="sans-serif" font-size="45" lengthAdjust="spacing" textLength="1300" x="317.5" y="46.7139">Keyple 2.0 - keyple-java-distributed-remote-api - 2.0 (21/05/2021)</text><!--MD5=[7442f3b126ee602ae02566c1a49e158a]
cluster api--><polygon fill="#F8F9F9" points="40,71.6016,805,71.6016,822.5,130.625,1925,130.625,1925,1714.1016,40,1714.1016,40,71.6016" style="stroke:#000000;stroke-width:3.75;"/><line style="stroke:#000000;stroke-width:3.75;" x1="40" x2="822.5" y1="130.625" y2="130.625"/><text fill="#000000" font-family="sans-serif" font-size="35" font-weight="bold" lengthAdjust="spacing" textLength="750" x="50" y="112.9346">org.eclipse.keyple.core.distributed.remote</text><!--MD5=[f7e0e2453c87923036c1ac2adfb9cbf0]
cluster spi--><polygon fill="#F2F3F4" points="925,181.6016,992.5,181.6016,1010,240.625,1865,240.625,1865,1654.1016,925,1654.1016,925,181.6016" style="stroke:#000000;stroke-width:3.75;"/><line style="stroke:#000000;stroke-width:3.75;" x1="925" x2="1010" y1="240.625" y2="240.625"/><text fill="#000000" font-family="sans-serif" font-size="35" font-weight="bold" lengthAdjust="spacing" textLength="52.5" x="935" y="222.9346">spi</text><!--MD5=[120218adfd8782b0057db0a1b8294250]
class ApiProperties--><rect codeLine="48" fill="#FEFECE" height="154.5898" id="ApiProperties" style="stroke:#D4AC0D;stroke-width:3.75;" width="620" x="207.5" y="357.8516"/><ellipse cx="245" cy="397.8516" fill="#ADD1B2" rx="27.5" ry="27.5" style="stroke:#ADD1B2;stroke-width:2.5;"/><path d="M250,389.1016 Q250.5078,387.8516 251.0938,387.2266 Q251.6797,386.6016 252.3438,386.6016 Q253.5156,386.6016 254.2578,387.3047 Q255,388.0078 255,389.6484 L255,393.5547 Q255,395.1953 254.2969,395.8984 Q253.5938,396.6016 252.5,396.6016 Q251.5234,396.6016 250.8984,396.1719 Q250.2734,395.7422 250,394.6094 Q249.8828,393.8281 249.4531,393.3984 Q248.6719,392.5781 247.2656,392.1094 Q245.8594,391.6016 244.4531,391.6016 Q242.6953,391.6016 241.2109,392.3047 Q239.7656,393.0078 238.6328,394.5703 Q237.5,396.1328 237.5,398.2813 L237.5,400.5859 Q237.5,403.1641 239.6094,404.8828 Q241.7188,406.6016 245.4688,406.6016 Q247.6953,406.6016 249.2578,406.0938 Q250.1563,405.8203 251.1719,404.9219 Q251.8359,404.4141 252.1875,404.2578 Q252.5391,404.1016 252.9688,404.1016 Q253.7891,404.1016 254.375,404.7656 Q255,405.3906 255,406.2891 Q255,407.1484 254.1406,408.1641 Q252.8906,409.6484 250.8984,410.4688 Q248.2813,411.6016 245.0781,411.6016 Q241.3281,411.6016 238.3203,410.1172 Q235.8984,408.9453 234.1797,406.4063 Q232.5,403.8672 232.5,400.8594 L232.5,398.125 Q232.5,395 233.9844,392.2656 Q235.5078,389.5313 238.125,388.0859 Q240.7813,386.6016 243.75,386.6016 Q245.5469,386.6016 247.1094,387.2266 Q248.6719,387.8516 250,389.1016 Z " fill="#000000"/><ellipse cx="292.5" cy="396.6016" fill="#84BE84" rx="7.5" ry="7.5" style="stroke:#038048;stroke-width:2.5;"/><text fill="#000000" font-family="sans-serif" font-size="30" font-style="italic" font-weight="bold" lengthAdjust="spacing" textLength="60" x="307.5" y="410.127">final</text><text fill="#000000" font-family="sans-serif" font-size="30" font-style="italic" lengthAdjust="spacing" textLength="445" x="375" y="410.127">DistributedRemoteApiProperties</text><line style="stroke:#D4AC0D;stroke-width:3.75;" x1="210" x2="825" y1="437.8516" y2="437.8516"/><ellipse cx="235" cy="465.3516" rx="7.5" ry="7.5" style="stroke:#038048;stroke-width:2.5;fill:none;"/><text fill="#000000" font-family="sans-serif" font-size="27.5" font-weight="bold" lengthAdjust="spacing" text-decoration="underline" textLength="57.5" x="257.5" y="476.3989">final</text><text fill="#000000" font-family="sans-serif" font-size="27.5" lengthAdjust="spacing" text-decoration="underline" textLength="190" x="322.5" y="476.3989">String VERSION</text><line style="stroke:#D4AC0D;stroke-width:3.75;" x1="210" x2="825" y1="492.4414" y2="492.4414"/><!--MD5=[3bdcfc6a224040be6cb3c1df3ec20060]
class RemotePluginApi--><rect codeLine="51" fill="#FEFECE" height="154.5898" id="RemotePluginApi" style="stroke:#D4AC0D;stroke-width:3.75;" width="517.5" x="258.75" y="890.3516"/><ellipse cx="371.875" cy="930.3516" fill="#B4A7E5" rx="27.5" ry="27.5" style="stroke:#B4A7E5;stroke-width:2.5;"/><path d="M374.375,922.8516 L374.375,937.8516 L379.375,937.8516 L380.5859,937.8516 L381.875,939.4141 L381.875,940.3516 L381.875,941.2891 L380.5859,942.8516 L379.375,942.8516 L364.375,942.8516 L363.1641,942.8516 L361.875,941.2891 L361.875,940.3516 L361.875,939.4141 L363.1641,937.8516 L364.375,937.8516 L369.375,937.8516 L369.375,922.8516 L364.375,922.8516 L363.1641,922.8516 L361.875,921.2891 L361.875,920.3516 L361.875,919.4141 L363.1641,917.8516 L364.375,917.8516 L379.375,917.8516 L380.5859,917.8516 L381.875,919.4141 L381.875,920.3516 L381.875,921.2891 L380.5859,922.8516 L379.375,922.8516 L374.375,922.8516 Z " fill="#000000"/><ellipse cx="435.625" cy="929.1016" fill="#84BE84" rx="7.5" ry="7.5" style="stroke:#038048;stroke-width:2.5;"/><text fill="#000000" font-family="sans-serif" font-size="30" font-style="italic" lengthAdjust="spacing" textLength="242.5" x="450.625" y="942.627">RemotePluginApi</text><line style="stroke:#D4AC0D;stroke-width:3.75;" x1="261.25" x2="773.75" y1="970.3516" y2="970.3516"/><line style="stroke:#D4AC0D;stroke-width:2.5;" x1="261.25" x2="773.75" y1="990.3516" y2="990.3516"/><ellipse cx="286.25" cy="1017.8516" fill="#84BE84" rx="7.5" ry="7.5" style="stroke:#038048;stroke-width:2.5;"/><text fill="#000000" font-family="sans-serif" font-size="27.5" lengthAdjust="spacing" textLength="452.5" x="308.75" y="1028.8989">void onReaderEvent (String jsonData)</text><!--MD5=[0db98e29c29f308f95f437c44cb51af8]
class ObservableRemotePluginApi--><rect codeLine="55" fill="#FEFECE" height="243.7695" id="ObservableRemotePluginApi" style="stroke:#D4AC0D;stroke-width:3.75;" width="802.5" x="81.25" y="1352.8516"/><ellipse cx="255.625" cy="1392.8516" fill="#B4A7E5" rx="27.5" ry="27.5" style="stroke:#B4A7E5;stroke-width:2.5;"/><path d="M258.125,1385.3516 L258.125,1400.3516 L263.125,1400.3516 L264.3359,1400.3516 L265.625,1401.9141 L265.625,1402.8516 L265.625,1403.7891 L264.3359,1405.3516 L263.125,1405.3516 L248.125,1405.3516 L246.9141,1405.3516 L245.625,1403.7891 L245.625,1402.8516 L245.625,1401.9141 L246.9141,1400.3516 L248.125,1400.3516 L253.125,1400.3516 L253.125,1385.3516 L248.125,1385.3516 L246.9141,1385.3516 L245.625,1383.7891 L245.625,1382.8516 L245.625,1381.9141 L246.9141,1380.3516 L248.125,1380.3516 L263.125,1380.3516 L264.3359,1380.3516 L265.625,1381.9141 L265.625,1382.8516 L265.625,1383.7891 L264.3359,1385.3516 L263.125,1385.3516 L258.125,1385.3516 Z " fill="#000000"/><ellipse cx="319.375" cy="1391.6016" fill="#84BE84" rx="7.5" ry="7.5" style="stroke:#038048;stroke-width:2.5;"/><text fill="#000000" font-family="sans-serif" font-size="30" font-style="italic" lengthAdjust="spacing" textLength="405" x="334.375" y="1405.127">ObservableRemotePluginApi</text><line style="stroke:#D4AC0D;stroke-width:3.75;" x1="83.75" x2="881.25" y1="1432.8516" y2="1432.8516"/><line style="stroke:#D4AC0D;stroke-width:2.5;" x1="83.75" x2="881.25" y1="1452.8516" y2="1452.8516"/><ellipse cx="108.75" cy="1480.3516" fill="#84BE84" rx="7.5" ry="7.5" style="stroke:#038048;stroke-width:2.5;"/><text fill="#000000" font-family="sans-serif" font-size="27.5" lengthAdjust="spacing" textLength="435" x="131.25" y="1491.3989">void onPluginEvent (String jsonData)</text><line style="stroke:#D4AC0D;stroke-width:2.5;stroke-dasharray:1.0,2.0;" x1="83.75" x2="881.25" y1="1507.4414" y2="1507.4414"/><ellipse cx="108.75" cy="1534.9414" fill="#84BE84" rx="7.5" ry="7.5" style="stroke:#038048;stroke-width:2.5;"/><text fill="#000000" font-family="sans-serif" font-size="27.5" lengthAdjust="spacing" textLength="737.5" x="131.25" y="1545.9888">void addRemoteReader (RemoteReaderSpi remoteReaderSpi)</text><ellipse cx="108.75" cy="1569.5313" fill="#84BE84" rx="7.5" ry="7.5" style="stroke:#038048;stroke-width:2.5;"/><text fill="#000000" font-family="sans-serif" font-size="27.5" lengthAdjust="spacing" textLength="702.5" x="131.25" y="1580.5786">boolean removeRemoteReader (Sting remoteReaderName)</text><!--MD5=[c2370bc74128b93bd072b6f31e9991b0]
class RemotePluginFactorySpi--><rect codeLine="63" fill="#FEFECE" height="327.5391" id="RemotePluginFactorySpi" style="stroke:#D4AC0D;stroke-width:3.75;" width="560" x="1115" y="271.6016"/><ellipse cx="1202" cy="311.6016" fill="#B4A7E5" rx="27.5" ry="27.5" style="stroke:#B4A7E5;stroke-width:2.5;"/><path d="M1204.5,304.1016 L1204.5,319.1016 L1209.5,319.1016 L1210.7109,319.1016 L1212,320.6641 L1212,321.6016 L1212,322.5391 L1210.7109,324.1016 L1209.5,324.1016 L1194.5,324.1016 L1193.2891,324.1016 L1192,322.5391 L1192,321.6016 L1192,320.6641 L1193.2891,319.1016 L1194.5,319.1016 L1199.5,319.1016 L1199.5,304.1016 L1194.5,304.1016 L1193.2891,304.1016 L1192,302.5391 L1192,301.6016 L1192,300.6641 L1193.2891,299.1016 L1194.5,299.1016 L1209.5,299.1016 L1210.7109,299.1016 L1212,300.6641 L1212,301.6016 L1212,302.5391 L1210.7109,304.1016 L1209.5,304.1016 L1204.5,304.1016 Z " fill="#000000"/><ellipse cx="1260.5" cy="310.3516" fill="#84BE84" rx="7.5" ry="7.5" style="stroke:#038048;stroke-width:2.5;"/><text fill="#000000" font-family="sans-serif" font-size="30" font-style="italic" lengthAdjust="spacing" textLength="342.5" x="1275.5" y="323.877">RemotePluginFactorySpi</text><line style="stroke:#D4AC0D;stroke-width:3.75;" x1="1117.5" x2="1672.5" y1="351.6016" y2="351.6016"/><line style="stroke:#D4AC0D;stroke-width:3.75;" x1="1117.5" x2="1672.5" y1="371.6016" y2="371.6016"/><ellipse cx="1142.5" cy="399.1016" fill="#84BE84" rx="7.5" ry="7.5" style="stroke:#038048;stroke-width:2.5;"/><text fill="#000000" font-family="sans-serif" font-size="27.5" lengthAdjust="spacing" textLength="495" x="1165" y="410.1489">String getDistributedRemoteApiVersion ()</text><ellipse cx="1142.5" cy="433.6914" fill="#84BE84" rx="7.5" ry="7.5" style="stroke:#038048;stroke-width:2.5;"/><text fill="#000000" font-family="sans-serif" font-size="27.5" lengthAdjust="spacing" textLength="395" x="1165" y="444.7388">String getCommonsApiVersion ()</text><ellipse cx="1142.5" cy="468.2813" fill="#84BE84" rx="7.5" ry="7.5" style="stroke:#038048;stroke-width:2.5;"/><text fill="#000000" font-family="sans-serif" font-size="27.5" lengthAdjust="spacing" textLength="370" x="1165" y="479.3286">String getRemotePluginName ()</text><ellipse cx="1142.5" cy="502.8711" fill="#84BE84" rx="7.5" ry="7.5" style="stroke:#038048;stroke-width:2.5;"/><text fill="#000000" font-family="sans-serif" font-size="27.5" lengthAdjust="spacing" textLength="430" x="1165" y="513.9185">RemotePluginSpi getRemotePlugin ()</text><ellipse cx="1142.5" cy="537.4609" fill="#84BE84" rx="7.5" ry="7.5" style="stroke:#038048;stroke-width:2.5;"/><text fill="#000000" font-family="sans-serif" font-size="27.5" lengthAdjust="spacing" textLength="270" x="1165" y="548.5083">boolean isPoolPlugin ()</text><ellipse cx="1142.5" cy="572.0508" fill="#84BE84" rx="7.5" ry="7.5" style="stroke:#038048;stroke-width:2.5;"/><text fill="#000000" font-family="sans-serif" font-size="27.5" lengthAdjust="spacing" textLength="360" x="1165" y="583.0981">boolean isObservablePlugin ()</text><!--MD5=[733b899168be945616a1d8aa95c72981]
class RemotePluginSpi--><rect codeLine="71" fill="#FEFECE" height="347.5391" id="RemotePluginSpi" style="stroke:#D4AC0D;stroke-width:3.75;" width="857.5" x="966.25" y="794.1016"/><ellipse cx="1249.375" cy="834.1016" fill="#B4A7E5" rx="27.5" ry="27.5" style="stroke:#B4A7E5;stroke-width:2.5;"/><path d="M1251.875,826.6016 L1251.875,841.6016 L1256.875,841.6016 L1258.0859,841.6016 L1259.375,843.1641 L1259.375,844.1016 L1259.375,845.0391 L1258.0859,846.6016 L1256.875,846.6016 L1241.875,846.6016 L1240.6641,846.6016 L1239.375,845.0391 L1239.375,844.1016 L1239.375,843.1641 L1240.6641,841.6016 L1241.875,841.6016 L1246.875,841.6016 L1246.875,826.6016 L1241.875,826.6016 L1240.6641,826.6016 L1239.375,825.0391 L1239.375,824.1016 L1239.375,823.1641 L1240.6641,821.6016 L1241.875,821.6016 L1256.875,821.6016 L1258.0859,821.6016 L1259.375,823.1641 L1259.375,824.1016 L1259.375,825.0391 L1258.0859,826.6016 L1256.875,826.6016 L1251.875,826.6016 Z " fill="#000000"/><ellipse cx="1313.125" cy="832.8516" fill="#84BE84" rx="7.5" ry="7.5" style="stroke:#038048;stroke-width:2.5;"/><text fill="#000000" font-family="sans-serif" font-size="30" font-style="italic" lengthAdjust="spacing" textLength="242.5" x="1328.125" y="846.377">RemotePluginSpi</text><line style="stroke:#D4AC0D;stroke-width:3.75;" x1="968.75" x2="1821.25" y1="874.1016" y2="874.1016"/><line style="stroke:#D4AC0D;stroke-width:2.5;" x1="968.75" x2="1821.25" y1="894.1016" y2="894.1016"/><ellipse cx="993.75" cy="921.6016" fill="#84BE84" rx="7.5" ry="7.5" style="stroke:#038048;stroke-width:2.5;"/><text fill="#000000" font-family="sans-serif" font-size="27.5" lengthAdjust="spacing" textLength="582.5" x="1016.25" y="932.6489">void connect (RemotePluginApi remotePluginApi)</text><ellipse cx="993.75" cy="956.1914" fill="#84BE84" rx="7.5" ry="7.5" style="stroke:#038048;stroke-width:2.5;"/><text fill="#000000" font-family="sans-serif" font-size="27.5" lengthAdjust="spacing" textLength="210" x="1016.25" y="967.2388">String getName ()</text><ellipse cx="993.75" cy="990.7813" fill="#84BE84" rx="7.5" ry="7.5" style="stroke:#038048;stroke-width:2.5;"/><text fill="#000000" font-family="sans-serif" font-size="27.5" lengthAdjust="spacing" textLength="495" x="1016.25" y="1001.8286">String executeRemotely (String jsonData)</text><ellipse cx="993.75" cy="1025.3711" fill="#84BE84" rx="7.5" ry="7.5" style="stroke:#038048;stroke-width:2.5;"/><text fill="#000000" font-family="sans-serif" font-size="27.5" lengthAdjust="spacing" textLength="792.5" x="1016.25" y="1036.4185">RemoteReaderSpi createRemoteReader (String localReaderName)</text><line style="stroke:#D4AC0D;stroke-width:2.5;stroke-dasharray:1.0,2.0;" x1="968.75" x2="1821.25" y1="1052.4609" y2="1052.4609"/><ellipse cx="993.75" cy="1079.9609" fill="#84BE84" rx="7.5" ry="7.5" style="stroke:#038048;stroke-width:2.5;"/><text fill="#000000" font-family="sans-serif" font-size="27.5" lengthAdjust="spacing" textLength="372.5" x="1016.25" y="1091.0083">void startPluginsObservation ()</text><ellipse cx="993.75" cy="1114.5508" fill="#84BE84" rx="7.5" ry="7.5" style="stroke:#038048;stroke-width:2.5;"/><text fill="#000000" font-family="sans-serif" font-size="27.5" lengthAdjust="spacing" textLength="370" x="1016.25" y="1125.5981">void stopPluginsObservation ()</text><!--MD5=[3937379067c1c7d1f35002e0ca836dbd]
class RemoteReaderSpi--><rect codeLine="81" fill="#FEFECE" height="278.3594" id="RemoteReaderSpi" style="stroke:#D4AC0D;stroke-width:3.75;" width="560" x="1115" y="1336.6016"/><ellipse cx="1241.875" cy="1376.6016" fill="#B4A7E5" rx="27.5" ry="27.5" style="stroke:#B4A7E5;stroke-width:2.5;"/><path d="M1244.375,1369.1016 L1244.375,1384.1016 L1249.375,1384.1016 L1250.5859,1384.1016 L1251.875,1385.6641 L1251.875,1386.6016 L1251.875,1387.5391 L1250.5859,1389.1016 L1249.375,1389.1016 L1234.375,1389.1016 L1233.1641,1389.1016 L1231.875,1387.5391 L1231.875,1386.6016 L1231.875,1385.6641 L1233.1641,1384.1016 L1234.375,1384.1016 L1239.375,1384.1016 L1239.375,1369.1016 L1234.375,1369.1016 L1233.1641,1369.1016 L1231.875,1367.5391 L1231.875,1366.6016 L1231.875,1365.6641 L1233.1641,1364.1016 L1234.375,1364.1016 L1249.375,1364.1016 L1250.5859,1364.1016 L1251.875,1365.6641 L1251.875,1366.6016 L1251.875,1367.5391 L1250.5859,1369.1016 L1249.375,1369.1016 L1244.375,1369.1016 Z " fill="#000000"/><ellipse cx="1305.625" cy="1375.3516" fill="#84BE84" rx="7.5" ry="7.5" style="stroke:#038048;stroke-width:2.5;"/><text fill="#000000" font-family="sans-serif" font-size="30" font-style="italic" lengthAdjust="spacing" textLength="257.5" x="1320.625" y="1388.877">RemoteReaderSpi</text><line style="stroke:#D4AC0D;stroke-width:3.75;" x1="1117.5" x2="1672.5" y1="1416.6016" y2="1416.6016"/><line style="stroke:#D4AC0D;stroke-width:2.5;" x1="1117.5" x2="1672.5" y1="1436.6016" y2="1436.6016"/><ellipse cx="1142.5" cy="1464.1016" fill="#84BE84" rx="7.5" ry="7.5" style="stroke:#038048;stroke-width:2.5;"/><text fill="#000000" font-family="sans-serif" font-size="27.5" lengthAdjust="spacing" textLength="210" x="1165" y="1475.1489">String getName ()</text><ellipse cx="1142.5" cy="1498.6914" fill="#84BE84" rx="7.5" ry="7.5" style="stroke:#038048;stroke-width:2.5;"/><text fill="#000000" font-family="sans-serif" font-size="27.5" lengthAdjust="spacing" textLength="495" x="1165" y="1509.7388">String executeRemotely (String jsonData)</text><line style="stroke:#D4AC0D;stroke-width:2.5;stroke-dasharray:1.0,2.0;" x1="1117.5" x2="1672.5" y1="1525.7813" y2="1525.7813"/><ellipse cx="1142.5" cy="1553.2813" fill="#84BE84" rx="7.5" ry="7.5" style="stroke:#038048;stroke-width:2.5;"/><text fill="#000000" font-family="sans-serif" font-size="27.5" lengthAdjust="spacing" textLength="375" x="1165" y="1564.3286">void startReaderObservation ()</text><ellipse cx="1142.5" cy="1587.8711" fill="#84BE84" rx="7.5" ry="7.5" style="stroke:#038048;stroke-width:2.5;"/><text fill="#000000" font-family="sans-serif" font-size="27.5" lengthAdjust="spacing" textLength="372.5" x="1165" y="1598.9185">void stopReaderObservation ()</text><!--MD5=[6d28cfb2e11f30f24c6dd92937fa1a7c]
reverse link RemotePluginApi to ObservableRemotePluginApi--><path d="M508.7625,1095.7941 C503.3025,1174.2041 496.305,1274.6516 490.9075,1352.1516 " fill="none" id="RemotePluginApi-backto-ObservableRemotePluginApi" style="stroke:#A80036;stroke-width:2.5;"/><polygon fill="none" points="491.3275,1094.2441,512.26,1045.5816,526.2425,1096.6766,491.3275,1094.2441" style="stroke:#A80036;stroke-width:2.5;"/><!--MD5=[4174bbe09b6fc05497605efa272e822c]
reverse link ApiProperties to RemotePluginFactorySpi--><path codeLine="94" d="M841.3,435.3516 C931.07,435.3516 1027.745,435.3516 1114.7975,435.3516 " fill="none" id="ApiProperties-backto-RemotePluginFactorySpi" style="stroke:#27AE60;stroke-width:2.5;stroke-dasharray:7.0,7.0;"/><polygon fill="#27AE60" points="828.1075,435.3516,850.6075,445.3516,840.6075,435.3516,850.6075,425.3516,828.1075,435.3516" style="stroke:#27AE60;stroke-width:2.5;"/><text fill="#000000" font-family="sans-serif" font-size="32.5" lengthAdjust="spacing" textLength="100" x="921.25" y="379.0894">provide</text><polygon fill="#000000" points="873.75,406.6699,896.3627,414.0172,896.3627,399.3226,873.75,406.6699" style="stroke:#000000;stroke-width:2.5;"/><text fill="#000000" font-family="sans-serif" font-size="32.5" lengthAdjust="spacing" textLength="162.5" x="906.25" y="419.9683">API version</text><!--MD5=[71bd7d84c6f989e29e36bec57e3f046c]
link RemotePluginFactorySpi to RemotePluginSpi--><path codeLine="95" d="M1395,599.7041 C1395,657.1016 1395,722.1041 1395,781.2216 " fill="none" id="RemotePluginFactorySpi-to-RemotePluginSpi" style="stroke:#27AE60;stroke-width:2.5;stroke-dasharray:7.0,7.0;"/><polygon fill="#27AE60" points="1395,793.7416,1405,771.2416,1395,781.2416,1385,771.2416,1395,793.7416" style="stroke:#27AE60;stroke-width:2.5;"/><polygon fill="#000000" points="1407.5,709.541,1414.8473,686.9283,1400.1527,686.9283,1407.5,709.541" style="stroke:#000000;stroke-width:2.5;"/><text fill="#000000" font-family="sans-serif" font-size="32.5" lengthAdjust="spacing" textLength="100" x="1430" y="710.3394">provide</text><!--MD5=[f33d040dcb77d1f7644b5e19c2b3e36f]
link RemotePluginSpi to RemoteReaderSpi--><path codeLine="97" d="M1395,1141.8791 C1395,1200.8241 1395,1266.2991 1395,1323.3516 " fill="none" id="RemotePluginSpi-to-RemoteReaderSpi" style="stroke:#27AE60;stroke-width:2.5;stroke-dasharray:7.0,7.0;"/><polygon fill="#27AE60" points="1395,1336.1466,1405,1313.6466,1395,1323.6466,1385,1313.6466,1395,1336.1466" style="stroke:#27AE60;stroke-width:2.5;"/><polygon fill="#000000" points="1407.5,1252.041,1414.8473,1229.4283,1400.1527,1229.4283,1407.5,1252.041" style="stroke:#000000;stroke-width:2.5;"/><text fill="#000000" font-family="sans-serif" font-size="32.5" lengthAdjust="spacing" textLength="100" x="1430" y="1252.8394">provide</text><!--MD5=[703fd44b470e434ace33754d5a67f1d5]
reverse link RemotePluginApi to RemotePluginSpi--><path codeLine="98" d="M789.82,967.8516 C845.69,967.8516 905.79,967.8516 965.655,967.8516 " fill="none" id="RemotePluginApi-backto-RemotePluginSpi" style="stroke:#27AE60;stroke-width:2.5;stroke-dasharray:7.0,7.0;"/><polygon fill="#27AE60" points="777.2175,967.8516,799.7175,977.8516,789.7175,967.8516,799.7175,957.8516,777.2175,967.8516" style="stroke:#27AE60;stroke-width:2.5;"/><polygon fill="#000000" points="826.25,938.291,848.8627,945.6383,848.8627,930.9437,826.25,938.291" style="stroke:#000000;stroke-width:2.5;"/><text fill="#000000" font-family="sans-serif" font-size="32.5" lengthAdjust="spacing" textLength="52.5" x="861.25" y="951.5894">use</text><!--MD5=[93a073bb5d1c0ce150871c22c387fa23]
@startuml
title
    Keyple 2.0 - keyple-java-distributed-remote-api - 2.0 (21/05/2021)
end title

' == THEME ==

'Couleurs issues de : https://htmlcolorcodes.com/fr/tableau-de-couleur/tableau-de-couleur-design-plat/
!define C_GREY1 F8F9F9
!define C_GREY2 F2F3F4
!define C_GREY3 E5E7E9
!define C_GREY4 D7DBDD
!define C_GREY5 CACFD2
!define C_GREY6 BDC3C7
!define C_LINK 3498DB
!define C_USE 27AE60

skinparam Shadowing false
skinparam ClassFontStyle italic
skinparam ClassBorderColor #D4AC0D
skinparam stereotypeABorderColor #A9DCDF
skinparam stereotypeIBorderColor #B4A7E5
skinparam stereotypeCBorderColor #ADD1B2
skinparam stereotypeEBorderColor #EB93DF
' Red
skinparam ClassBackgroundColor<<red>> #FDEDEC
skinparam ClassBorderColor<<red>> #E74C3C
hide <<red>> stereotype
' Purple
skinparam ClassBackgroundColor<<purple>> #F4ECF7
skinparam ClassBorderColor<<purple>> #8E44AD
hide <<purple>> stereotype
' blue
skinparam ClassBackgroundColor<<blue>> #EBF5FB
skinparam ClassBorderColor<<blue>> #3498DB
hide <<blue>> stereotype
' Green
skinparam ClassBackgroundColor<<green>> #E9F7EF
skinparam ClassBorderColor<<green>> #27AE60
hide <<green>> stereotype
' Grey
skinparam ClassBackgroundColor<<grey>> #EAECEE
skinparam ClassBorderColor<<grey>> #2C3E50
hide <<grey>> stereotype

' == CONTENT ==

package "org.eclipse.keyple.core.distributed.remote" as api {
    +class "**final** DistributedRemoteApiProperties" as ApiProperties {
        +{static} **final** String VERSION
    }
    +interface RemotePluginApi {
        - -
        +void onReaderEvent (String jsonData)
    }
    +interface ObservableRemotePluginApi extends RemotePluginApi {
        - -
        +void onPluginEvent (String jsonData)
        ..
        +void addRemoteReader (RemoteReaderSpi remoteReaderSpi)
        +boolean removeRemoteReader (Sting remoteReaderName)
    }
    package spi {
        +interface RemotePluginFactorySpi {
            +String getDistributedRemoteApiVersion ()
            +String getCommonsApiVersion ()
            +String getRemotePluginName ()
            +RemotePluginSpi getRemotePlugin ()
            +boolean isPoolPlugin ()
            +boolean isObservablePlugin ()
        }
        +interface RemotePluginSpi {
            - -
            +void connect (RemotePluginApi remotePluginApi)
            +String getName ()
            +String executeRemotely (String jsonData)
            +RemoteReaderSpi createRemoteReader (String localReaderName)
            ..
            +void startPluginsObservation ()
            +void stopPluginsObservation ()
        }
        +interface RemoteReaderSpi {
            - -
            +String getName ()
            +String executeRemotely (String jsonData)
            ..
            +void startReaderObservation ()
            +void stopReaderObservation ()
        }
    }
}

' Associations

RemotePluginFactorySpi .left.> ApiProperties #C_USE : provide\nAPI version <
RemotePluginFactorySpi ..> RemotePluginSpi #C_USE : provide >

RemotePluginSpi ..> RemoteReaderSpi #C_USE : provide >
RemotePluginSpi .left.> RemotePluginApi #C_USE : use >

' == LAYOUT ==

'ObservableRemotePluginSpi -[hidden]- RemoteReaderSpi

' == STYLE ==

package api #C_GREY1 {}
package spi #C_GREY2 {}

@enduml

@startuml
title
    Keyple 2.0 - keyple-java-distributed-remote-api - 2.0 (21/05/2021)
end title



skinparam Shadowing false
skinparam ClassFontStyle italic
skinparam ClassBorderColor #D4AC0D
skinparam stereotypeABorderColor #A9DCDF
skinparam stereotypeIBorderColor #B4A7E5
skinparam stereotypeCBorderColor #ADD1B2
skinparam stereotypeEBorderColor #EB93DF
skinparam ClassBackgroundColor<<red>> #FDEDEC
skinparam ClassBorderColor<<red>> #E74C3C
hide <<red>> stereotype
skinparam ClassBackgroundColor<<purple>> #F4ECF7
skinparam ClassBorderColor<<purple>> #8E44AD
hide <<purple>> stereotype
skinparam ClassBackgroundColor<<blue>> #EBF5FB
skinparam ClassBorderColor<<blue>> #3498DB
hide <<blue>> stereotype
skinparam ClassBackgroundColor<<green>> #E9F7EF
skinparam ClassBorderColor<<green>> #27AE60
hide <<green>> stereotype
skinparam ClassBackgroundColor<<grey>> #EAECEE
skinparam ClassBorderColor<<grey>> #2C3E50
hide <<grey>> stereotype


package "org.eclipse.keyple.core.distributed.remote" as api {
    +class "**final** DistributedRemoteApiProperties" as ApiProperties {
        +{static} **final** String VERSION
    }
    +interface RemotePluginApi {
        - -
        +void onReaderEvent (String jsonData)
    }
    +interface ObservableRemotePluginApi extends RemotePluginApi {
        - -
        +void onPluginEvent (String jsonData)
        ..
        +void addRemoteReader (RemoteReaderSpi remoteReaderSpi)
        +boolean removeRemoteReader (Sting remoteReaderName)
    }
    package spi {
        +interface RemotePluginFactorySpi {
            +String getDistributedRemoteApiVersion ()
            +String getCommonsApiVersion ()
            +String getRemotePluginName ()
            +RemotePluginSpi getRemotePlugin ()
            +boolean isPoolPlugin ()
            +boolean isObservablePlugin ()
        }
        +interface RemotePluginSpi {
            - -
            +void connect (RemotePluginApi remotePluginApi)
            +String getName ()
            +String executeRemotely (String jsonData)
            +RemoteReaderSpi createRemoteReader (String localReaderName)
            ..
            +void startPluginsObservation ()
            +void stopPluginsObservation ()
        }
        +interface RemoteReaderSpi {
            - -
            +String getName ()
            +String executeRemotely (String jsonData)
            ..
            +void startReaderObservation ()
            +void stopReaderObservation ()
        }
    }
}


RemotePluginFactorySpi .left.> ApiProperties #27AE60 : provide\nAPI version <
RemotePluginFactorySpi ..> RemotePluginSpi #27AE60 : provide >

RemotePluginSpi ..> RemoteReaderSpi #27AE60 : provide >
RemotePluginSpi .left.> RemotePluginApi #27AE60 : use >




package api #F8F9F9 {}
package spi #F2F3F4 {}

@enduml

PlantUML version 1.2021.5(Sun Apr 25 13:20:28 CEST 2021)
(GPL source distribution)
Java Runtime: OpenJDK Runtime Environment
JVM: Dynamic Code Evolution 64-Bit Server VM
Default Encoding: Cp1252
Language: fr
Country: FR
--></g></svg>