<?xml version="1.0" encoding="UTF-8" standalone="no"?><svg xmlns="http://www.w3.org/2000/svg" xmlns:xlink="http://www.w3.org/1999/xlink" contentScriptType="application/ecmascript" contentStyleType="text/css" height="1652.5px" preserveAspectRatio="none" style="width:2705px;height:1652px;" version="1.1" viewBox="0 0 2705 1652" width="2705px" zoomAndPan="magnify"><defs><filter height="1" id="b1jmz16udc04890" width="1" x="0" y="0"><feFlood flood-color="#90EE90" result="flood"/><feComposite in="SourceGraphic" in2="flood" operator="over"/></filter><filter height="1" id="b1jmz16udc04891" width="1" x="0" y="0"><feFlood flood-color="#FFC0CB" result="flood"/><feComposite in="SourceGraphic" in2="flood" operator="over"/></filter></defs><g><text fill="#000000" font-family="sans-serif" font-size="45" lengthAdjust="spacing" textLength="1282.5" x="695" y="46.7139">Keyple 2.0 - keyple-java-distributed-network - 2.0.0 (15/03/2021)</text><rect fill="#DDDDDD" height="69.0234" rx="12.5" ry="12.5" style="stroke:#000000;stroke-width:2.5;" width="732.5" x="968.75" y="76.6016"/><text fill="#000000" font-family="sans-serif" font-size="35" lengthAdjust="spacing" textLength="140" x="983.75" y="125.4346">Legend :</text><text fill="#000000" filter="url(#b1jmz16udc04890)" font-family="sans-serif" font-size="35" font-weight="bold" lengthAdjust="spacing" textLength="250" x="1133.75" y="125.4346">Sync Node API</text><text fill="#000000" font-family="sans-serif" font-size="35" lengthAdjust="spacing" textLength="12.5" x="1393.75" y="125.4346">-</text><text fill="#000000" filter="url(#b1jmz16udc04891)" font-family="sans-serif" font-size="35" font-weight="bold" lengthAdjust="spacing" textLength="270" x="1416.25" y="125.4346">Async Node API</text><!--MD5=[3fb92fba1735106d511c1d05a9f83ed2]
cluster root--><polygon fill="#F8F9F9" points="40,183.125,580,183.125,597.5,242.1484,2662.5,242.1484,2662.5,1635.625,40,1635.625,40,183.125" style="stroke:#000000;stroke-width:3.75;"/><line style="stroke:#000000;stroke-width:3.75;" x1="40" x2="597.5" y1="242.1484" y2="242.1484"/><text fill="#000000" font-family="sans-serif" font-size="35" font-weight="bold" lengthAdjust="spacing" textLength="525" x="50" y="224.458">org.eclipse.keyple.distributed</text><!--MD5=[f7e0e2453c87923036c1ac2adfb9cbf0]
cluster spi--><polygon fill="#F2F3F4" points="600,690.625,667.5,690.625,685,749.6484,2602.5,749.6484,2602.5,1045.625,600,1045.625,600,690.625" style="stroke:#000000;stroke-width:3.75;"/><line style="stroke:#000000;stroke-width:3.75;" x1="600" x2="685" y1="749.6484" y2="749.6484"/><text fill="#000000" font-family="sans-serif" font-size="35" font-weight="bold" lengthAdjust="spacing" textLength="52.5" x="610" y="731.958">spi</text><!--MD5=[f5644b98fc2cac15db0816ab2936d10f]
class AsyncNodeClient--><rect codeLine="53" fill="#FDEDEC" height="258.3594" id="AsyncNodeClient" style="stroke:#E74C3C;stroke-width:3.75;" width="645" x="1977.5" y="273.125"/><ellipse cx="2156.875" cy="313.125" fill="#B4A7E5" rx="27.5" ry="27.5" style="stroke:#B4A7E5;stroke-width:2.5;"/><path d="M2159.375,305.625 L2159.375,320.625 L2164.375,320.625 L2165.5859,320.625 L2166.875,322.1875 L2166.875,323.125 L2166.875,324.0625 L2165.5859,325.625 L2164.375,325.625 L2149.375,325.625 L2148.1641,325.625 L2146.875,324.0625 L2146.875,323.125 L2146.875,322.1875 L2148.1641,320.625 L2149.375,320.625 L2154.375,320.625 L2154.375,305.625 L2149.375,305.625 L2148.1641,305.625 L2146.875,304.0625 L2146.875,303.125 L2146.875,302.1875 L2148.1641,300.625 L2149.375,300.625 L2164.375,300.625 L2165.5859,300.625 L2166.875,302.1875 L2166.875,303.125 L2166.875,304.0625 L2165.5859,305.625 L2164.375,305.625 L2159.375,305.625 Z " fill="#000000"/><ellipse cx="2220.625" cy="311.875" fill="#84BE84" rx="7.5" ry="7.5" style="stroke:#038048;stroke-width:2.5;"/><text fill="#000000" font-family="sans-serif" font-size="30" font-style="italic" lengthAdjust="spacing" textLength="237.5" x="2235.625" y="325.4004">AsyncNodeClient</text><line style="stroke:#E74C3C;stroke-width:3.75;" x1="1980" x2="2620" y1="353.125" y2="353.125"/><line style="stroke:#E74C3C;stroke-width:3.75;" x1="1980" x2="2620" y1="373.125" y2="373.125"/><ellipse cx="2005" cy="400.625" fill="#84BE84" rx="7.5" ry="7.5" style="stroke:#038048;stroke-width:2.5;"/><text fill="#000000" font-family="sans-serif" font-size="27.5" lengthAdjust="spacing" textLength="372.5" x="2027.5" y="411.6724">void onOpen (String sessionId)</text><ellipse cx="2005" cy="435.2148" fill="#84BE84" rx="7.5" ry="7.5" style="stroke:#038048;stroke-width:2.5;"/><text fill="#000000" font-family="sans-serif" font-size="27.5" lengthAdjust="spacing" textLength="432.5" x="2027.5" y="446.2622">void onMessage (MessageDto msg)</text><ellipse cx="2005" cy="469.8047" fill="#84BE84" rx="7.5" ry="7.5" style="stroke:#038048;stroke-width:2.5;"/><text fill="#000000" font-family="sans-serif" font-size="27.5" lengthAdjust="spacing" textLength="375" x="2027.5" y="480.8521">void onClose (String sessionId)</text><ellipse cx="2005" cy="504.3945" fill="#84BE84" rx="7.5" ry="7.5" style="stroke:#038048;stroke-width:2.5;"/><text fill="#000000" font-family="sans-serif" font-size="27.5" lengthAdjust="spacing" textLength="580" x="2027.5" y="515.4419">void onError (String sessionId, Throwable error)</text><!--MD5=[0a2f2fb2edeec6d0e98aba29aa655f31]
class AsyncNodeServer--><rect codeLine="59" fill="#FDEDEC" height="189.1797" id="AsyncNodeServer" style="stroke:#E74C3C;stroke-width:3.75;" width="645" x="1245" y="306.875"/><ellipse cx="1419.375" cy="346.875" fill="#B4A7E5" rx="27.5" ry="27.5" style="stroke:#B4A7E5;stroke-width:2.5;"/><path d="M1421.875,339.375 L1421.875,354.375 L1426.875,354.375 L1428.0859,354.375 L1429.375,355.9375 L1429.375,356.875 L1429.375,357.8125 L1428.0859,359.375 L1426.875,359.375 L1411.875,359.375 L1410.6641,359.375 L1409.375,357.8125 L1409.375,356.875 L1409.375,355.9375 L1410.6641,354.375 L1411.875,354.375 L1416.875,354.375 L1416.875,339.375 L1411.875,339.375 L1410.6641,339.375 L1409.375,337.8125 L1409.375,336.875 L1409.375,335.9375 L1410.6641,334.375 L1411.875,334.375 L1426.875,334.375 L1428.0859,334.375 L1429.375,335.9375 L1429.375,336.875 L1429.375,337.8125 L1428.0859,339.375 L1426.875,339.375 L1421.875,339.375 Z " fill="#000000"/><ellipse cx="1483.125" cy="345.625" fill="#84BE84" rx="7.5" ry="7.5" style="stroke:#038048;stroke-width:2.5;"/><text fill="#000000" font-family="sans-serif" font-size="30" font-style="italic" lengthAdjust="spacing" textLength="247.5" x="1498.125" y="359.1504">AsyncNodeServer</text><line style="stroke:#E74C3C;stroke-width:3.75;" x1="1247.5" x2="1887.5" y1="386.875" y2="386.875"/><line style="stroke:#E74C3C;stroke-width:3.75;" x1="1247.5" x2="1887.5" y1="406.875" y2="406.875"/><ellipse cx="1272.5" cy="434.375" fill="#84BE84" rx="7.5" ry="7.5" style="stroke:#038048;stroke-width:2.5;"/><text fill="#000000" font-family="sans-serif" font-size="27.5" lengthAdjust="spacing" textLength="432.5" x="1295" y="445.4224">void onMessage (MessageDto msg)</text><ellipse cx="1272.5" cy="468.9648" fill="#84BE84" rx="7.5" ry="7.5" style="stroke:#038048;stroke-width:2.5;"/><text fill="#000000" font-family="sans-serif" font-size="27.5" lengthAdjust="spacing" textLength="580" x="1295" y="480.0122">void onError (String sessionId, Throwable error)</text><!--MD5=[93e80188d33ab05d87f81cd0d94a3bc4]
class SyncNodeClient--><rect codeLine="63" fill="#E9F7EF" height="120" id="SyncNodeClient" style="stroke:#27AE60;stroke-width:3.75;" width="330" x="827.5" y="341.875"/><ellipse cx="865" cy="381.875" fill="#B4A7E5" rx="27.5" ry="27.5" style="stroke:#B4A7E5;stroke-width:2.5;"/><path d="M867.5,374.375 L867.5,389.375 L872.5,389.375 L873.7109,389.375 L875,390.9375 L875,391.875 L875,392.8125 L873.7109,394.375 L872.5,394.375 L857.5,394.375 L856.2891,394.375 L855,392.8125 L855,391.875 L855,390.9375 L856.2891,389.375 L857.5,389.375 L862.5,389.375 L862.5,374.375 L857.5,374.375 L856.2891,374.375 L855,372.8125 L855,371.875 L855,370.9375 L856.2891,369.375 L857.5,369.375 L872.5,369.375 L873.7109,369.375 L875,370.9375 L875,371.875 L875,372.8125 L873.7109,374.375 L872.5,374.375 L867.5,374.375 Z " fill="#000000"/><ellipse cx="912.5" cy="380.625" fill="#84BE84" rx="7.5" ry="7.5" style="stroke:#038048;stroke-width:2.5;"/><text fill="#000000" font-family="sans-serif" font-size="30" font-style="italic" lengthAdjust="spacing" textLength="222.5" x="927.5" y="394.1504">SyncNodeClient</text><line style="stroke:#27AE60;stroke-width:3.75;" x1="830" x2="1155" y1="421.875" y2="421.875"/><line style="stroke:#27AE60;stroke-width:3.75;" x1="830" x2="1155" y1="441.875" y2="441.875"/><!--MD5=[6c35b9bf176c1aee30f526a9a385796d]
class SyncNodeServer--><rect codeLine="65" fill="#E9F7EF" height="154.5898" id="SyncNodeServer" style="stroke:#27AE60;stroke-width:3.75;" width="660" x="80" y="324.375"/><ellipse cx="269.375" cy="364.375" fill="#B4A7E5" rx="27.5" ry="27.5" style="stroke:#B4A7E5;stroke-width:2.5;"/><path d="M271.875,356.875 L271.875,371.875 L276.875,371.875 L278.0859,371.875 L279.375,373.4375 L279.375,374.375 L279.375,375.3125 L278.0859,376.875 L276.875,376.875 L261.875,376.875 L260.6641,376.875 L259.375,375.3125 L259.375,374.375 L259.375,373.4375 L260.6641,371.875 L261.875,371.875 L266.875,371.875 L266.875,356.875 L261.875,356.875 L260.6641,356.875 L259.375,355.3125 L259.375,354.375 L259.375,353.4375 L260.6641,351.875 L261.875,351.875 L276.875,351.875 L278.0859,351.875 L279.375,353.4375 L279.375,354.375 L279.375,355.3125 L278.0859,356.875 L276.875,356.875 L271.875,356.875 Z " fill="#000000"/><ellipse cx="333.125" cy="363.125" fill="#84BE84" rx="7.5" ry="7.5" style="stroke:#038048;stroke-width:2.5;"/><text fill="#000000" font-family="sans-serif" font-size="30" font-style="italic" lengthAdjust="spacing" textLength="232.5" x="348.125" y="376.6504">SyncNodeServer</text><line style="stroke:#27AE60;stroke-width:3.75;" x1="82.5" x2="737.5" y1="404.375" y2="404.375"/><line style="stroke:#27AE60;stroke-width:3.75;" x1="82.5" x2="737.5" y1="424.375" y2="424.375"/><ellipse cx="107.5" cy="451.875" fill="#84BE84" rx="7.5" ry="7.5" style="stroke:#038048;stroke-width:2.5;"/><text fill="#000000" font-family="sans-serif" font-size="27.5" lengthAdjust="spacing" textLength="595" x="130" y="462.9224">List&lt;MessageDto&gt; onRequest (MessageDto msg)</text><!--MD5=[f1362ea87dac9fe50fe8caadfc737c53]
class MessageDto--><rect codeLine="83" fill="#FEFECE" height="431.3086" id="MessageDto" style="stroke:#D4AC0D;stroke-width:3.75;" width="380" x="790" y="1163.125"/><ellipse cx="873.625" cy="1203.125" fill="#ADD1B2" rx="27.5" ry="27.5" style="stroke:#ADD1B2;stroke-width:2.5;"/><path d="M878.625,1194.375 Q879.1328,1193.125 879.7188,1192.5 Q880.3047,1191.875 880.9688,1191.875 Q882.1406,1191.875 882.8828,1192.5781 Q883.625,1193.2813 883.625,1194.9219 L883.625,1198.8281 Q883.625,1200.4688 882.9219,1201.1719 Q882.2188,1201.875 881.125,1201.875 Q880.1484,1201.875 879.5234,1201.4453 Q878.8984,1201.0156 878.625,1199.8828 Q878.5078,1199.1016 878.0781,1198.6719 Q877.2969,1197.8516 875.8906,1197.3828 Q874.4844,1196.875 873.0781,1196.875 Q871.3203,1196.875 869.8359,1197.5781 Q868.3906,1198.2813 867.2578,1199.8438 Q866.125,1201.4063 866.125,1203.5547 L866.125,1205.8594 Q866.125,1208.4375 868.2344,1210.1563 Q870.3438,1211.875 874.0938,1211.875 Q876.3203,1211.875 877.8828,1211.3672 Q878.7813,1211.0938 879.7969,1210.1953 Q880.4609,1209.6875 880.8125,1209.5313 Q881.1641,1209.375 881.5938,1209.375 Q882.4141,1209.375 883,1210.0391 Q883.625,1210.6641 883.625,1211.5625 Q883.625,1212.4219 882.7656,1213.4375 Q881.5156,1214.9219 879.5234,1215.7422 Q876.9063,1216.875 873.7031,1216.875 Q869.9531,1216.875 866.9453,1215.3906 Q864.5234,1214.2188 862.8047,1211.6797 Q861.125,1209.1406 861.125,1206.1328 L861.125,1203.3984 Q861.125,1200.2734 862.6094,1197.5391 Q864.1328,1194.8047 866.75,1193.3594 Q869.4063,1191.875 872.375,1191.875 Q874.1719,1191.875 875.7344,1192.5 Q877.2969,1193.125 878.625,1194.375 Z " fill="#000000"/><ellipse cx="931.375" cy="1201.875" fill="#84BE84" rx="7.5" ry="7.5" style="stroke:#038048;stroke-width:2.5;"/><text fill="#000000" font-family="sans-serif" font-size="30" font-style="italic" lengthAdjust="spacing" textLength="170" x="946.375" y="1215.4004">MessageDto</text><line style="stroke:#D4AC0D;stroke-width:3.75;" x1="792.5" x2="1167.5" y1="1243.125" y2="1243.125"/><ellipse cx="817.5" cy="1270.625" fill="none" rx="7.5" ry="7.5" style="stroke:#038048;stroke-width:2.5;"/><text fill="#000000" font-family="sans-serif" font-size="27.5" lengthAdjust="spacing" textLength="192.5" x="840" y="1281.6724">String sessionId</text><ellipse cx="817.5" cy="1305.2148" fill="none" rx="7.5" ry="7.5" style="stroke:#038048;stroke-width:2.5;"/><text fill="#000000" font-family="sans-serif" font-size="27.5" lengthAdjust="spacing" textLength="150" x="840" y="1316.2622">String action</text><ellipse cx="817.5" cy="1339.8047" fill="none" rx="7.5" ry="7.5" style="stroke:#038048;stroke-width:2.5;"/><text fill="#000000" font-family="sans-serif" font-size="27.5" lengthAdjust="spacing" textLength="222.5" x="840" y="1350.8521">String clientNodeId</text><ellipse cx="817.5" cy="1374.3945" fill="none" rx="7.5" ry="7.5" style="stroke:#038048;stroke-width:2.5;"/><text fill="#000000" font-family="sans-serif" font-size="27.5" lengthAdjust="spacing" textLength="240" x="840" y="1385.4419">String serverNodeId</text><ellipse cx="817.5" cy="1408.9844" fill="none" rx="7.5" ry="7.5" style="stroke:#038048;stroke-width:2.5;"/><text fill="#000000" font-family="sans-serif" font-size="27.5" lengthAdjust="spacing" textLength="287.5" x="840" y="1420.0317">String localReaderName</text><ellipse cx="817.5" cy="1443.5742" fill="none" rx="7.5" ry="7.5" style="stroke:#038048;stroke-width:2.5;"/><text fill="#000000" font-family="sans-serif" font-size="27.5" lengthAdjust="spacing" textLength="315" x="840" y="1454.6216">String remoteReaderName</text><ellipse cx="817.5" cy="1478.1641" fill="none" rx="7.5" ry="7.5" style="stroke:#038048;stroke-width:2.5;"/><text fill="#000000" font-family="sans-serif" font-size="27.5" lengthAdjust="spacing" textLength="137.5" x="840" y="1489.2114">String body</text><line style="stroke:#D4AC0D;stroke-width:3.75;" x1="792.5" x2="1167.5" y1="1505.2539" y2="1505.2539"/><ellipse cx="817.5" cy="1532.7539" fill="#84BE84" rx="7.5" ry="7.5" style="stroke:#038048;stroke-width:2.5;"/><text fill="#000000" font-family="sans-serif" font-size="27.5" lengthAdjust="spacing" textLength="127.5" x="840" y="1543.8013">getters()...</text><ellipse cx="817.5" cy="1567.3438" fill="#84BE84" rx="7.5" ry="7.5" style="stroke:#038048;stroke-width:2.5;"/><text fill="#000000" font-family="sans-serif" font-size="27.5" lengthAdjust="spacing" textLength="127.5" x="840" y="1578.3911">setters()...</text><!--MD5=[0d0c35d29dfc84ebf3b01a70ae8beab8]
class NodeCommunicationException--><rect codeLine="95" fill="#FEFECE" height="209.6484" id="NodeCommunicationException" style="stroke:#D4AC0D;stroke-width:3.75;" width="867.5" x="1258.75" y="1274.375"/><ellipse cx="1453.125" cy="1324.6094" fill="#ADD1B2" rx="27.5" ry="27.5" style="stroke:#ADD1B2;stroke-width:2.5;"/><path d="M1458.125,1315.8594 Q1458.6328,1314.6094 1459.2188,1313.9844 Q1459.8047,1313.3594 1460.4688,1313.3594 Q1461.6406,1313.3594 1462.3828,1314.0625 Q1463.125,1314.7656 1463.125,1316.4063 L1463.125,1320.3125 Q1463.125,1321.9531 1462.4219,1322.6563 Q1461.7188,1323.3594 1460.625,1323.3594 Q1459.6484,1323.3594 1459.0234,1322.9297 Q1458.3984,1322.5 1458.125,1321.3672 Q1458.0078,1320.5859 1457.5781,1320.1563 Q1456.7969,1319.3359 1455.3906,1318.8672 Q1453.9844,1318.3594 1452.5781,1318.3594 Q1450.8203,1318.3594 1449.3359,1319.0625 Q1447.8906,1319.7656 1446.7578,1321.3281 Q1445.625,1322.8906 1445.625,1325.0391 L1445.625,1327.3438 Q1445.625,1329.9219 1447.7344,1331.6406 Q1449.8438,1333.3594 1453.5938,1333.3594 Q1455.8203,1333.3594 1457.3828,1332.8516 Q1458.2813,1332.5781 1459.2969,1331.6797 Q1459.9609,1331.1719 1460.3125,1331.0156 Q1460.6641,1330.8594 1461.0938,1330.8594 Q1461.9141,1330.8594 1462.5,1331.5234 Q1463.125,1332.1484 1463.125,1333.0469 Q1463.125,1333.9063 1462.2656,1334.9219 Q1461.0156,1336.4063 1459.0234,1337.2266 Q1456.4063,1338.3594 1453.2031,1338.3594 Q1449.4531,1338.3594 1446.4453,1336.875 Q1444.0234,1335.7031 1442.3047,1333.1641 Q1440.625,1330.625 1440.625,1327.6172 L1440.625,1324.8828 Q1440.625,1321.7578 1442.1094,1319.0234 Q1443.6328,1316.2891 1446.25,1314.8438 Q1448.9063,1313.3594 1451.875,1313.3594 Q1453.6719,1313.3594 1455.2344,1313.9844 Q1456.7969,1314.6094 1458.125,1315.8594 Z " fill="#000000"/><ellipse cx="1516.875" cy="1323.3594" fill="#84BE84" rx="7.5" ry="7.5" style="stroke:#038048;stroke-width:2.5;"/><text fill="#000000" font-family="sans-serif" font-size="30" font-style="italic" lengthAdjust="spacing" textLength="322.5" x="1585.625" y="1318.0176">&lt;&lt;RuntimeException&gt;&gt;</text><text fill="#000000" font-family="sans-serif" font-size="30" font-style="italic" lengthAdjust="spacing" textLength="430" x="1531.875" y="1355.752">NodeCommunicationException</text><line style="stroke:#D4AC0D;stroke-width:3.75;" x1="1261.25" x2="2123.75" y1="1374.8438" y2="1374.8438"/><line style="stroke:#D4AC0D;stroke-width:3.75;" x1="1261.25" x2="2123.75" y1="1394.8438" y2="1394.8438"/><ellipse cx="1286.25" cy="1422.3438" fill="#84BE84" rx="7.5" ry="7.5" style="stroke:#038048;stroke-width:2.5;"/><text fill="#000000" font-family="sans-serif" font-size="27.5" lengthAdjust="spacing" textLength="575" x="1308.75" y="1433.3911">NodeCommunicationException (String message)</text><ellipse cx="1286.25" cy="1456.9336" fill="#84BE84" rx="7.5" ry="7.5" style="stroke:#038048;stroke-width:2.5;"/><text fill="#000000" font-family="sans-serif" font-size="27.5" lengthAdjust="spacing" textLength="802.5" x="1308.75" y="1467.981">NodeCommunicationException (String message, Throwable cause)</text><!--MD5=[329ccc2f1fdfefaca176e329ee6267b3]
class AsyncEndpointClientSpi--><rect codeLine="70" fill="#FDEDEC" height="223.7695" id="AsyncEndpointClientSpi" style="stroke:#E74C3C;stroke-width:3.75;" width="527.5" x="2033.75" y="780.625"/><ellipse cx="2111.75" cy="820.625" fill="#B4A7E5" rx="27.5" ry="27.5" style="stroke:#B4A7E5;stroke-width:2.5;"/><path d="M2114.25,813.125 L2114.25,828.125 L2119.25,828.125 L2120.4609,828.125 L2121.75,829.6875 L2121.75,830.625 L2121.75,831.5625 L2120.4609,833.125 L2119.25,833.125 L2104.25,833.125 L2103.0391,833.125 L2101.75,831.5625 L2101.75,830.625 L2101.75,829.6875 L2103.0391,828.125 L2104.25,828.125 L2109.25,828.125 L2109.25,813.125 L2104.25,813.125 L2103.0391,813.125 L2101.75,811.5625 L2101.75,810.625 L2101.75,809.6875 L2103.0391,808.125 L2104.25,808.125 L2119.25,808.125 L2120.4609,808.125 L2121.75,809.6875 L2121.75,810.625 L2121.75,811.5625 L2120.4609,813.125 L2119.25,813.125 L2114.25,813.125 Z " fill="#000000"/><ellipse cx="2168.25" cy="819.375" fill="#84BE84" rx="7.5" ry="7.5" style="stroke:#038048;stroke-width:2.5;"/><text fill="#000000" font-family="sans-serif" font-size="30" font-style="italic" lengthAdjust="spacing" textLength="330" x="2183.25" y="832.9004">AsyncEndpointClientSpi</text><line style="stroke:#E74C3C;stroke-width:3.75;" x1="2036.25" x2="2558.75" y1="860.625" y2="860.625"/><line style="stroke:#E74C3C;stroke-width:3.75;" x1="2036.25" x2="2558.75" y1="880.625" y2="880.625"/><ellipse cx="2061.25" cy="908.125" fill="#84BE84" rx="7.5" ry="7.5" style="stroke:#038048;stroke-width:2.5;"/><text fill="#000000" font-family="sans-serif" font-size="27.5" lengthAdjust="spacing" textLength="435" x="2083.75" y="919.1724">void openSession (String sessionId)</text><ellipse cx="2061.25" cy="942.7148" fill="#84BE84" rx="7.5" ry="7.5" style="stroke:#038048;stroke-width:2.5;"/><text fill="#000000" font-family="sans-serif" font-size="27.5" lengthAdjust="spacing" textLength="462.5" x="2083.75" y="953.7622">void sendMessage (MessageDto msg)</text><ellipse cx="2061.25" cy="977.3047" fill="#84BE84" rx="7.5" ry="7.5" style="stroke:#038048;stroke-width:2.5;"/><text fill="#000000" font-family="sans-serif" font-size="27.5" lengthAdjust="spacing" textLength="440" x="2083.75" y="988.3521">void closeSession (String sessionId)</text><!--MD5=[4ecd91beb1b1fb8385b120d0543d61f5]
class AsyncEndpointServerSpi--><rect codeLine="75" fill="#FDEDEC" height="154.5898" id="AsyncEndpointServerSpi" style="stroke:#E74C3C;stroke-width:3.75;" width="527.5" x="1418.75" y="815.625"/><ellipse cx="1492.25" cy="855.625" fill="#B4A7E5" rx="27.5" ry="27.5" style="stroke:#B4A7E5;stroke-width:2.5;"/><path d="M1494.75,848.125 L1494.75,863.125 L1499.75,863.125 L1500.9609,863.125 L1502.25,864.6875 L1502.25,865.625 L1502.25,866.5625 L1500.9609,868.125 L1499.75,868.125 L1484.75,868.125 L1483.5391,868.125 L1482.25,866.5625 L1482.25,865.625 L1482.25,864.6875 L1483.5391,863.125 L1484.75,863.125 L1489.75,863.125 L1489.75,848.125 L1484.75,848.125 L1483.5391,848.125 L1482.25,846.5625 L1482.25,845.625 L1482.25,844.6875 L1483.5391,843.125 L1484.75,843.125 L1499.75,843.125 L1500.9609,843.125 L1502.25,844.6875 L1502.25,845.625 L1502.25,846.5625 L1500.9609,848.125 L1499.75,848.125 L1494.75,848.125 Z " fill="#000000"/><ellipse cx="1547.75" cy="854.375" fill="#84BE84" rx="7.5" ry="7.5" style="stroke:#038048;stroke-width:2.5;"/><text fill="#000000" font-family="sans-serif" font-size="30" font-style="italic" lengthAdjust="spacing" textLength="340" x="1562.75" y="867.9004">AsyncEndpointServerSpi</text><line style="stroke:#E74C3C;stroke-width:3.75;" x1="1421.25" x2="1943.75" y1="895.625" y2="895.625"/><line style="stroke:#E74C3C;stroke-width:3.75;" x1="1421.25" x2="1943.75" y1="915.625" y2="915.625"/><ellipse cx="1446.25" cy="943.125" fill="#84BE84" rx="7.5" ry="7.5" style="stroke:#038048;stroke-width:2.5;"/><text fill="#000000" font-family="sans-serif" font-size="27.5" lengthAdjust="spacing" textLength="462.5" x="1468.75" y="954.1724">void sendMessage (MessageDto msg)</text><!--MD5=[c36e65bfe3f8fe8d38ea1e2298781c58]
class SyncEndpointClientSpi--><rect codeLine="78" fill="#E9F7EF" height="154.5898" id="SyncEndpointClientSpi" style="stroke:#27AE60;stroke-width:3.75;" width="690" x="640" y="815.625"/><ellipse cx="803.125" cy="855.625" fill="#B4A7E5" rx="27.5" ry="27.5" style="stroke:#B4A7E5;stroke-width:2.5;"/><path d="M805.625,848.125 L805.625,863.125 L810.625,863.125 L811.8359,863.125 L813.125,864.6875 L813.125,865.625 L813.125,866.5625 L811.8359,868.125 L810.625,868.125 L795.625,868.125 L794.4141,868.125 L793.125,866.5625 L793.125,865.625 L793.125,864.6875 L794.4141,863.125 L795.625,863.125 L800.625,863.125 L800.625,848.125 L795.625,848.125 L794.4141,848.125 L793.125,846.5625 L793.125,845.625 L793.125,844.6875 L794.4141,843.125 L795.625,843.125 L810.625,843.125 L811.8359,843.125 L813.125,844.6875 L813.125,845.625 L813.125,846.5625 L811.8359,848.125 L810.625,848.125 L805.625,848.125 Z " fill="#000000"/><ellipse cx="866.875" cy="854.375" fill="#84BE84" rx="7.5" ry="7.5" style="stroke:#038048;stroke-width:2.5;"/><text fill="#000000" font-family="sans-serif" font-size="30" font-style="italic" lengthAdjust="spacing" textLength="315" x="881.875" y="867.9004">SyncEndpointClientSpi</text><line style="stroke:#27AE60;stroke-width:3.75;" x1="642.5" x2="1327.5" y1="895.625" y2="895.625"/><line style="stroke:#27AE60;stroke-width:3.75;" x1="642.5" x2="1327.5" y1="915.625" y2="915.625"/><ellipse cx="667.5" cy="943.125" fill="#84BE84" rx="7.5" ry="7.5" style="stroke:#038048;stroke-width:2.5;"/><text fill="#000000" font-family="sans-serif" font-size="27.5" lengthAdjust="spacing" textLength="625" x="690" y="954.1724">List&lt;MessageDto&gt; sendRequest (MessageDto msg)</text><!--MD5=[701b1a3708528458ab7e0816ee62a401]
link SyncNodeClient to SyncEndpointClientSpi--><path codeLine="102" d="M991.61,462.0625 C990.31,546.33 987.8825,703.765 986.3575,802.565 " fill="none" id="SyncNodeClient-to-SyncEndpointClientSpi" style="stroke:#3498DB;stroke-width:2.5;"/><polygon fill="#3498DB" points="986.1575,815.5075,996.5035,793.1645,986.3504,803.009,976.5059,792.8559,986.1575,815.5075" style="stroke:#3498DB;stroke-width:2.5;"/><polygon fill="#000000" points="999.8072,641.063,1007.5024,618.5663,992.8095,618.3396,999.8072,641.063" style="stroke:#000000;stroke-width:2.5;"/><text fill="#000000" font-family="sans-serif" font-size="32.5" lengthAdjust="spacing" textLength="52.5" x="1022.5" y="641.8628">use</text><!--MD5=[c6e9bf3b531c9f4881a0ca5ea0574c56]
link AsyncNodeClient to AsyncEndpointClientSpi--><path codeLine="103" d="M2299.35,530.8625 C2298.975,603.71 2298.5075,694.87 2298.135,767.1975 " fill="none" id="AsyncNodeClient-to-AsyncEndpointClientSpi" style="stroke:#3498DB;stroke-width:2.5;"/><polygon fill="#3498DB" points="2298.0675,780.475,2308.1831,758.0267,2298.1318,767.9752,2288.1833,757.9239,2298.0675,780.475" style="stroke:#3498DB;stroke-width:2.5;"/><polygon fill="#000000" points="2309.9357,641.0643,2317.3992,618.4896,2302.7048,618.4141,2309.9357,641.0643" style="stroke:#000000;stroke-width:2.5;"/><text fill="#000000" font-family="sans-serif" font-size="32.5" lengthAdjust="spacing" textLength="52.5" x="2332.5" y="641.8628">use</text><!--MD5=[0d16d4679a9ac88f03a68b047e5f96fe]
link AsyncNodeServer to AsyncEndpointServerSpi--><path codeLine="104" d="M1589.4025,496.98 C1610.21,584.9625 1641.2725,716.3 1661.705,802.7025 " fill="none" id="AsyncNodeServer-to-AsyncEndpointServerSpi" style="stroke:#3498DB;stroke-width:2.5;"/><polygon fill="#3498DB" points="1664.64,815.1125,1669.1966,790.9157,1661.7649,802.9476,1649.7329,795.5159,1664.64,815.1125" style="stroke:#3498DB;stroke-width:2.5;"/><polygon fill="#000000" points="1640.3769,640.7289,1642.3227,617.0322,1628.0225,620.4142,1640.3769,640.7289" style="stroke:#000000;stroke-width:2.5;"/><text fill="#000000" font-family="sans-serif" font-size="32.5" lengthAdjust="spacing" textLength="52.5" x="1660" y="641.8628">use</text><!--MD5=[178dea3c90517d6fbc6a859e0c6c290d]
link SyncEndpointClientSpi to MessageDto--><!--MD5=[98e16a86307e57faef5c9f97902ab470]
link AsyncEndpointServerSpi to NodeCommunicationException--><!--MD5=[d3faddfbef852791cc8673f912f4942d]
@startuml
title
    Keyple 2.0 - keyple-java-distributed-network - 2.0.0 (15/03/2021)
end title

' == THEME ==

'Couleurs issues de : https://htmlcolorcodes.com/fr/tableau-de-couleur/tableau-de-couleur-design-plat/
!define C_GREY1 F8F9F9
!define C_GREY2 F2F3F4
!define C_GREY3 E5E7E9
!define C_GREY4 D7DBDD
!define C_GREY5 CACFD2
!define C_GREY6 BDC3C7
!define C_LINK 3498DB
!define C_USE 27AE60

skinparam Shadowing false
skinparam ClassFontStyle italic
skinparam ClassBorderColor #D4AC0D
skinparam stereotypeABorderColor #A9DCDF
skinparam stereotypeIBorderColor #B4A7E5
skinparam stereotypeCBorderColor #ADD1B2
skinparam stereotypeEBorderColor #EB93DF
' Red
skinparam ClassBackgroundColor<<red>> #FDEDEC
skinparam ClassBorderColor<<red>> #E74C3C
hide <<red>> stereotype
' Purple
skinparam ClassBackgroundColor<<purple>> #F4ECF7
skinparam ClassBorderColor<<purple>> #8E44AD
hide <<purple>> stereotype
' blue
skinparam ClassBackgroundColor<<blue>> #EBF5FB
skinparam ClassBorderColor<<blue>> #3498DB
hide <<blue>> stereotype
' Green
skinparam ClassBackgroundColor<<green>> #E9F7EF
skinparam ClassBorderColor<<green>> #27AE60
hide <<green>> stereotype
' Grey
skinparam ClassBackgroundColor<<grey>> #EAECEE
skinparam ClassBorderColor<<grey>> #2C3E50
hide <<grey>> stereotype

' == CONTENT ==

legend top
    Legend : <back:lightGreen>**Sync Node API**</back> - <back:pink>**Async Node API**</back>
end legend

package "org.eclipse.keyple.distributed" as root {
    ' Nodes & Senders
    +interface AsyncNodeClient {
        +void onOpen (String sessionId)
        +void onMessage (MessageDto msg)
        +void onClose (String sessionId)
        +void onError (String sessionId, Throwable error)
    }
    +interface AsyncNodeServer {
        +void onMessage (MessageDto msg)
        +void onError (String sessionId, Throwable error)
    }
    +interface SyncNodeClient {
    }
    +interface SyncNodeServer {
        +List<MessageDto> onRequest (MessageDto msg)
    }
    ' SPI
    package spi {
        +interface AsyncEndpointClientSpi {
            +void openSession (String sessionId)
            +void sendMessage (MessageDto msg)
            +void closeSession (String sessionId)
        }
        +interface AsyncEndpointServerSpi {
            +void sendMessage (MessageDto msg)
        }
        +interface SyncEndpointClientSpi {
            +List<MessageDto> sendRequest (MessageDto msg)
        }
    }
    ' DTO
    +class MessageDto {
        + String sessionId
        + String action
        + String clientNodeId
        + String serverNodeId
        + String localReaderName
        + String remoteReaderName
        + String body
        + getters()...
        + setters()...
    }
    ' Exceptions
    +class "<<RuntimeException>>\nNodeCommunicationException" as NodeCommunicationException {
        +NodeCommunicationException (String message)
        +NodeCommunicationException (String message, Throwable cause)
    }
}

' Associations
SyncNodeClient - -> SyncEndpointClientSpi #C_LINK : use >
AsyncNodeClient - -> AsyncEndpointClientSpi #C_LINK : use >
AsyncNodeServer - -> AsyncEndpointServerSpi #C_LINK : use >

' == LAYOUT ==

SyncEndpointClientSpi -[hidden]- MessageDto
AsyncEndpointServerSpi -[hidden]- NodeCommunicationException

' == STYLE ==

package root #C_GREY1 {}
package spi #C_GREY2 {}

AsyncNodeClient <<red>>
AsyncNodeServer <<red>>
AsyncEndpointClientSpi <<red>>
AsyncEndpointServerSpi <<red>>

SyncNodeServer <<green>>
SyncNodeClient <<green>>
SyncEndpointClientSpi <<green>>

@enduml

@startuml
title
    Keyple 2.0 - keyple-java-distributed-network - 2.0.0 (15/03/2021)
end title



skinparam Shadowing false
skinparam ClassFontStyle italic
skinparam ClassBorderColor #D4AC0D
skinparam stereotypeABorderColor #A9DCDF
skinparam stereotypeIBorderColor #B4A7E5
skinparam stereotypeCBorderColor #ADD1B2
skinparam stereotypeEBorderColor #EB93DF
skinparam ClassBackgroundColor<<red>> #FDEDEC
skinparam ClassBorderColor<<red>> #E74C3C
hide <<red>> stereotype
skinparam ClassBackgroundColor<<purple>> #F4ECF7
skinparam ClassBorderColor<<purple>> #8E44AD
hide <<purple>> stereotype
skinparam ClassBackgroundColor<<blue>> #EBF5FB
skinparam ClassBorderColor<<blue>> #3498DB
hide <<blue>> stereotype
skinparam ClassBackgroundColor<<green>> #E9F7EF
skinparam ClassBorderColor<<green>> #27AE60
hide <<green>> stereotype
skinparam ClassBackgroundColor<<grey>> #EAECEE
skinparam ClassBorderColor<<grey>> #2C3E50
hide <<grey>> stereotype


legend top
    Legend : <back:lightGreen>**Sync Node API**</back> - <back:pink>**Async Node API**</back>
end legend

package "org.eclipse.keyple.distributed" as root {
    +interface AsyncNodeClient {
        +void onOpen (String sessionId)
        +void onMessage (MessageDto msg)
        +void onClose (String sessionId)
        +void onError (String sessionId, Throwable error)
    }
    +interface AsyncNodeServer {
        +void onMessage (MessageDto msg)
        +void onError (String sessionId, Throwable error)
    }
    +interface SyncNodeClient {
    }
    +interface SyncNodeServer {
        +List<MessageDto> onRequest (MessageDto msg)
    }
    package spi {
        +interface AsyncEndpointClientSpi {
            +void openSession (String sessionId)
            +void sendMessage (MessageDto msg)
            +void closeSession (String sessionId)
        }
        +interface AsyncEndpointServerSpi {
            +void sendMessage (MessageDto msg)
        }
        +interface SyncEndpointClientSpi {
            +List<MessageDto> sendRequest (MessageDto msg)
        }
    }
    +class MessageDto {
        + String sessionId
        + String action
        + String clientNodeId
        + String serverNodeId
        + String localReaderName
        + String remoteReaderName
        + String body
        + getters()...
        + setters()...
    }
    +class "<<RuntimeException>>\nNodeCommunicationException" as NodeCommunicationException {
        +NodeCommunicationException (String message)
        +NodeCommunicationException (String message, Throwable cause)
    }
}

SyncNodeClient - -> SyncEndpointClientSpi #3498DB : use >
AsyncNodeClient - -> AsyncEndpointClientSpi #3498DB : use >
AsyncNodeServer - -> AsyncEndpointServerSpi #3498DB : use >


SyncEndpointClientSpi -[hidden]- MessageDto
AsyncEndpointServerSpi -[hidden]- NodeCommunicationException


package root #F8F9F9 {}
package spi #F2F3F4 {}

AsyncNodeClient <<red>>
AsyncNodeServer <<red>>
AsyncEndpointClientSpi <<red>>
AsyncEndpointServerSpi <<red>>

SyncNodeServer <<green>>
SyncNodeClient <<green>>
SyncEndpointClientSpi <<green>>

@enduml

PlantUML version 1.2021.01(Tue Feb 02 08:55:08 CET 2021)
(GPL source distribution)
Java Runtime: OpenJDK Runtime Environment
JVM: OpenJDK 64-Bit Server VM
Default Encoding: Cp1252
Language: fr
Country: FR
--></g></svg>