<?xml version="1.0" encoding="UTF-8" standalone="no"?><svg xmlns="http://www.w3.org/2000/svg" xmlns:xlink="http://www.w3.org/1999/xlink" contentScriptType="application/ecmascript" contentStyleType="text/css" height="2527.5px" preserveAspectRatio="none" style="width:2285px;height:2527px;" version="1.1" viewBox="0 0 2285 2527" width="2285px" zoomAndPan="magnify"><defs><filter height="1" id="b1rp4rumclx9ja0" width="1" x="0" y="0"><feFlood flood-color="#90EE90" result="flood"/><feComposite in="SourceGraphic" in2="flood" operator="over"/></filter><filter height="1" id="b1rp4rumclx9ja1" width="1" x="0" y="0"><feFlood flood-color="#DDA0DD" result="flood"/><feComposite in="SourceGraphic" in2="flood" operator="over"/></filter><filter height="1" id="b1rp4rumclx9ja2" width="1" x="0" y="0"><feFlood flood-color="#FFFF00" result="flood"/><feComposite in="SourceGraphic" in2="flood" operator="over"/></filter><filter height="1" id="b1rp4rumclx9ja3" width="1" x="0" y="0"><feFlood flood-color="#00FFFF" result="flood"/><feComposite in="SourceGraphic" in2="flood" operator="over"/></filter></defs><g><text fill="#000000" font-family="sans-serif" font-size="45" lengthAdjust="spacing" textLength="1217.5" x="517.5" y="46.7139">Keyple 2.0 - keyple-java-distributed-local - 2.0.0 (21/05/2021)</text><rect fill="#DDDDDD" height="377.1875" rx="12.5" ry="12.5" style="stroke:#000000;stroke-width:2.5;" width="655" x="797.5" y="76.6016"/><text fill="#000000" font-family="sans-serif" font-size="35" lengthAdjust="spacing" text-decoration="underline" textLength="220" x="812.5" y="125.4346">Colors legend</text><text fill="#000000" font-family="sans-serif" font-size="35" lengthAdjust="spacing" textLength="10" x="1042.5" y="125.4346">:</text><ellipse cx="826.25" cy="158.3984" fill="#000000" rx="6.25" ry="6.25" style="stroke:#000000;stroke-width:0.0;"/><text fill="#000000" font-family="sans-serif" font-size="35" lengthAdjust="spacing" text-decoration="underline" textLength="327.5" x="845" y="169.458">Configuration modes</text><text fill="#000000" font-family="sans-serif" font-size="35" lengthAdjust="spacing" textLength="10" x="1182.5" y="169.458">:</text><rect fill="#000000" height="8.75" style="stroke:#000000;stroke-width:0.0;" width="8.75" x="865" y="201.1719"/><text fill="#000000" filter="url(#b1rp4rumclx9ja0)" font-family="sans-serif" font-size="35" font-weight="bold" lengthAdjust="spacing" textLength="327.5" x="877.5" y="213.4814">Reader Client Side</text><rect fill="#000000" height="8.75" style="stroke:#000000;stroke-width:0.0;" width="8.75" x="865" y="245.1953"/><text fill="#000000" filter="url(#b1rp4rumclx9ja1)" font-family="sans-serif" font-size="35" font-weight="bold" lengthAdjust="spacing" textLength="345" x="877.5" y="257.5049">Reader Server Side</text><rect fill="#000000" height="8.75" style="stroke:#000000;stroke-width:0.0;" width="8.75" x="865" y="289.2188"/><text fill="#000000" filter="url(#b1rp4rumclx9ja1)" font-family="sans-serif" font-size="35" font-weight="bold" lengthAdjust="spacing" textLength="432.5" x="877.5" y="301.5283">Pool Reader Server Side</text><ellipse cx="826.25" cy="334.4922" fill="#000000" rx="6.25" ry="6.25" style="stroke:#000000;stroke-width:0.0;"/><text fill="#000000" font-family="sans-serif" font-size="35" lengthAdjust="spacing" text-decoration="underline" textLength="370" x="845" y="345.5518">External API references</text><text fill="#000000" font-family="sans-serif" font-size="35" lengthAdjust="spacing" textLength="10" x="1225" y="345.5518">:</text><rect fill="#000000" height="8.75" style="stroke:#000000;stroke-width:0.0;" width="8.75" x="865" y="377.2656"/><text fill="#000000" filter="url(#b1rp4rumclx9ja2)" font-family="sans-serif" font-size="35" font-weight="bold" lengthAdjust="spacing" textLength="560" x="877.5" y="389.5752">keyple-java-distributed-network</text><rect fill="#000000" height="8.75" style="stroke:#000000;stroke-width:0.0;" width="8.75" x="865" y="421.2891"/><text fill="#000000" filter="url(#b1rp4rumclx9ja3)" font-family="sans-serif" font-size="35" font-weight="bold" lengthAdjust="spacing" textLength="445" x="877.5" y="433.5986">keyple-java-commons-api</text><!--MD5=[3fb92fba1735106d511c1d05a9f83ed2]
cluster root--><polygon fill="#F8F9F9" points="40,491.2891,580,491.2891,597.5,550.3125,2242.5,550.3125,2242.5,2511.2891,40,2511.2891,40,491.2891" style="stroke:#000000;stroke-width:3.75;"/><line style="stroke:#000000;stroke-width:3.75;" x1="40" x2="597.5" y1="550.3125" y2="550.3125"/><text fill="#000000" font-family="sans-serif" font-size="35" font-weight="bold" lengthAdjust="spacing" textLength="525" x="50" y="532.6221">org.eclipse.keyple.distributed</text><!--MD5=[657218de26726cf2cc3eddb35d9875a6]
class LocalServiceClient--><rect codeLine="131" fill="#E9F7EF" height="402.5977" id="LocalServiceClient" style="stroke:#27AE60;stroke-width:3.75;" width="735" x="390" y="2068.7891"/><ellipse cx="427.5" cy="2119.0234" fill="#B4A7E5" rx="27.5" ry="27.5" style="stroke:#B4A7E5;stroke-width:2.5;"/><path d="M430,2111.5234 L430,2126.5234 L435,2126.5234 L436.2109,2126.5234 L437.5,2128.0859 L437.5,2129.0234 L437.5,2129.9609 L436.2109,2131.5234 L435,2131.5234 L420,2131.5234 L418.7891,2131.5234 L417.5,2129.9609 L417.5,2129.0234 L417.5,2128.0859 L418.7891,2126.5234 L420,2126.5234 L425,2126.5234 L425,2111.5234 L420,2111.5234 L418.7891,2111.5234 L417.5,2109.9609 L417.5,2109.0234 L417.5,2108.0859 L418.7891,2106.5234 L420,2106.5234 L435,2106.5234 L436.2109,2106.5234 L437.5,2108.0859 L437.5,2109.0234 L437.5,2109.9609 L436.2109,2111.5234 L435,2111.5234 L430,2111.5234 Z " fill="#000000"/><ellipse cx="475" cy="2117.7734" fill="#84BE84" rx="7.5" ry="7.5" style="stroke:#038048;stroke-width:2.5;"/><text fill="#000000" font-family="sans-serif" font-size="30" font-style="italic" lengthAdjust="spacing" textLength="35" x="490" y="2112.4316">&lt;&lt;</text><text fill="#000000" filter="url(#b1rp4rumclx9ja3)" font-family="sans-serif" font-size="30" font-style="italic" lengthAdjust="spacing" textLength="557.5" x="525" y="2112.4316">KeypleDistributedLocalServiceExtension</text><text fill="#000000" font-family="sans-serif" font-size="30" font-style="italic" lengthAdjust="spacing" textLength="35" x="1082.5" y="2112.4316">&gt;&gt;</text><text fill="#000000" font-family="sans-serif" font-size="30" font-style="italic" lengthAdjust="spacing" textLength="257.5" x="675" y="2150.166">LocalServiceClient</text><line style="stroke:#27AE60;stroke-width:3.75;" x1="392.5" x2="1122.5" y1="2169.2578" y2="2169.2578"/><line style="stroke:#27AE60;stroke-width:2.5;" x1="392.5" x2="1122.5" y1="2189.2578" y2="2189.2578"/><ellipse cx="417.5" cy="2216.7578" fill="#84BE84" rx="7.5" ry="7.5" style="stroke:#038048;stroke-width:2.5;"/><text fill="#000000" filter="url(#b1rp4rumclx9ja2)" font-family="sans-serif" font-size="27.5" lengthAdjust="spacing" textLength="207.5" x="440" y="2227.8052">AsyncNodeClient</text><text fill="#000000" font-family="sans-serif" font-size="27.5" lengthAdjust="spacing" textLength="207.5" x="655" y="2227.8052">getAsyncNode ()</text><line style="stroke:#27AE60;stroke-width:2.5;stroke-dasharray:1.0,2.0;" x1="392.5" x2="1122.5" y1="2243.8477" y2="2243.8477"/><ellipse cx="417.5" cy="2271.3477" fill="#84BE84" rx="7.5" ry="7.5" style="stroke:#038048;stroke-width:2.5;"/><text fill="#000000" font-family="sans-serif" font-size="27.5" lengthAdjust="spacing" textLength="372.5" x="440" y="2282.395">&lt;T&gt; T executeRemoteService (</text><text fill="#000000" font-family="sans-serif" font-size="27.5" lengthAdjust="spacing" textLength="195" x="500" y="2316.9849">String serviceId,</text><text fill="#000000" font-family="sans-serif" font-size="27.5" lengthAdjust="spacing" textLength="295" x="500" y="2351.5747">String localReaderName,</text><text fill="#000000" font-family="sans-serif" font-size="27.5" lengthAdjust="spacing" textLength="300" x="500" y="2386.1646">Object initialCardContent,</text><text fill="#000000" font-family="sans-serif" font-size="27.5" lengthAdjust="spacing" textLength="205" x="500" y="2420.7544">Object inputData,</text><text fill="#000000" font-family="sans-serif" font-size="27.5" lengthAdjust="spacing" textLength="327.5" x="500" y="2455.3442">Class&lt;T&gt; outputDataClass)</text><!--MD5=[4d142d173e80d1ead80837db61750bd6]
class LocalServiceServer--><rect codeLine="137" fill="#F4ECF7" height="209.6484" id="LocalServiceServer" style="stroke:#8E44AD;stroke-width:3.75;" width="735" x="1312.5" y="2165.0391"/><ellipse cx="1350" cy="2215.2734" fill="#B4A7E5" rx="27.5" ry="27.5" style="stroke:#B4A7E5;stroke-width:2.5;"/><path d="M1352.5,2207.7734 L1352.5,2222.7734 L1357.5,2222.7734 L1358.7109,2222.7734 L1360,2224.3359 L1360,2225.2734 L1360,2226.2109 L1358.7109,2227.7734 L1357.5,2227.7734 L1342.5,2227.7734 L1341.2891,2227.7734 L1340,2226.2109 L1340,2225.2734 L1340,2224.3359 L1341.2891,2222.7734 L1342.5,2222.7734 L1347.5,2222.7734 L1347.5,2207.7734 L1342.5,2207.7734 L1341.2891,2207.7734 L1340,2206.2109 L1340,2205.2734 L1340,2204.3359 L1341.2891,2202.7734 L1342.5,2202.7734 L1357.5,2202.7734 L1358.7109,2202.7734 L1360,2204.3359 L1360,2205.2734 L1360,2206.2109 L1358.7109,2207.7734 L1357.5,2207.7734 L1352.5,2207.7734 Z " fill="#000000"/><ellipse cx="1397.5" cy="2214.0234" fill="#84BE84" rx="7.5" ry="7.5" style="stroke:#038048;stroke-width:2.5;"/><text fill="#000000" font-family="sans-serif" font-size="30" font-style="italic" lengthAdjust="spacing" textLength="35" x="1412.5" y="2208.6816">&lt;&lt;</text><text fill="#000000" filter="url(#b1rp4rumclx9ja3)" font-family="sans-serif" font-size="30" font-style="italic" lengthAdjust="spacing" textLength="557.5" x="1447.5" y="2208.6816">KeypleDistributedLocalServiceExtension</text><text fill="#000000" font-family="sans-serif" font-size="30" font-style="italic" lengthAdjust="spacing" textLength="35" x="2005" y="2208.6816">&gt;&gt;</text><text fill="#000000" font-family="sans-serif" font-size="30" font-style="italic" lengthAdjust="spacing" textLength="267.5" x="1592.5" y="2246.416">LocalServiceServer</text><line style="stroke:#8E44AD;stroke-width:3.75;" x1="1315" x2="2045" y1="2265.5078" y2="2265.5078"/><line style="stroke:#8E44AD;stroke-width:3.75;" x1="1315" x2="2045" y1="2285.5078" y2="2285.5078"/><ellipse cx="1340" cy="2313.0078" fill="#84BE84" rx="7.5" ry="7.5" style="stroke:#038048;stroke-width:2.5;"/><text fill="#000000" filter="url(#b1rp4rumclx9ja2)" font-family="sans-serif" font-size="27.5" lengthAdjust="spacing" textLength="207.5" x="1362.5" y="2324.0552">SyncNodeServer</text><text fill="#000000" font-family="sans-serif" font-size="27.5" lengthAdjust="spacing" textLength="190" x="1577.5" y="2324.0552">getSyncNode ()</text><ellipse cx="1340" cy="2347.5977" fill="#84BE84" rx="7.5" ry="7.5" style="stroke:#038048;stroke-width:2.5;"/><text fill="#000000" filter="url(#b1rp4rumclx9ja2)" font-family="sans-serif" font-size="27.5" lengthAdjust="spacing" textLength="225" x="1362.5" y="2358.645">AsyncNodeServer</text><text fill="#000000" font-family="sans-serif" font-size="27.5" lengthAdjust="spacing" textLength="207.5" x="1595" y="2358.645">getAsyncNode ()</text><!--MD5=[036a0aa259ccc1197747131a6a90e800]
class LocalServiceClientFactory--><rect codeLine="132" fill="#E9F7EF" height="140.4688" id="LocalServiceClientFactory" style="stroke:#27AE60;stroke-width:3.75;" width="835" x="340" y="1728.7891"/><ellipse cx="377.5" cy="1779.0234" fill="#B4A7E5" rx="27.5" ry="27.5" style="stroke:#B4A7E5;stroke-width:2.5;"/><path d="M380,1771.5234 L380,1786.5234 L385,1786.5234 L386.2109,1786.5234 L387.5,1788.0859 L387.5,1789.0234 L387.5,1789.9609 L386.2109,1791.5234 L385,1791.5234 L370,1791.5234 L368.7891,1791.5234 L367.5,1789.9609 L367.5,1789.0234 L367.5,1788.0859 L368.7891,1786.5234 L370,1786.5234 L375,1786.5234 L375,1771.5234 L370,1771.5234 L368.7891,1771.5234 L367.5,1769.9609 L367.5,1769.0234 L367.5,1768.0859 L368.7891,1766.5234 L370,1766.5234 L385,1766.5234 L386.2109,1766.5234 L387.5,1768.0859 L387.5,1769.0234 L387.5,1769.9609 L386.2109,1771.5234 L385,1771.5234 L380,1771.5234 Z " fill="#000000"/><ellipse cx="425" cy="1777.7734" fill="#84BE84" rx="7.5" ry="7.5" style="stroke:#038048;stroke-width:2.5;"/><text fill="#000000" font-family="sans-serif" font-size="30" font-style="italic" lengthAdjust="spacing" textLength="35" x="440" y="1772.4316">&lt;&lt;</text><text fill="#000000" filter="url(#b1rp4rumclx9ja3)" font-family="sans-serif" font-size="30" font-style="italic" lengthAdjust="spacing" textLength="657.5" x="475" y="1772.4316">KeypleDistributedLocalServiceExtensionFactory</text><text fill="#000000" font-family="sans-serif" font-size="30" font-style="italic" lengthAdjust="spacing" textLength="35" x="1132.5" y="1772.4316">&gt;&gt;</text><text fill="#000000" font-family="sans-serif" font-size="30" font-style="italic" lengthAdjust="spacing" textLength="357.5" x="625" y="1810.166">LocalServiceClientFactory</text><line style="stroke:#27AE60;stroke-width:3.75;" x1="342.5" x2="1172.5" y1="1829.2578" y2="1829.2578"/><line style="stroke:#27AE60;stroke-width:3.75;" x1="342.5" x2="1172.5" y1="1849.2578" y2="1849.2578"/><!--MD5=[840028d9c0a4586bfa073ca5e4418222]
class LocalServiceServerFactory--><rect codeLine="138" fill="#F4ECF7" height="140.4688" id="LocalServiceServerFactory" style="stroke:#8E44AD;stroke-width:3.75;" width="835" x="1262.5" y="1728.7891"/><ellipse cx="1300" cy="1779.0234" fill="#B4A7E5" rx="27.5" ry="27.5" style="stroke:#B4A7E5;stroke-width:2.5;"/><path d="M1302.5,1771.5234 L1302.5,1786.5234 L1307.5,1786.5234 L1308.7109,1786.5234 L1310,1788.0859 L1310,1789.0234 L1310,1789.9609 L1308.7109,1791.5234 L1307.5,1791.5234 L1292.5,1791.5234 L1291.2891,1791.5234 L1290,1789.9609 L1290,1789.0234 L1290,1788.0859 L1291.2891,1786.5234 L1292.5,1786.5234 L1297.5,1786.5234 L1297.5,1771.5234 L1292.5,1771.5234 L1291.2891,1771.5234 L1290,1769.9609 L1290,1769.0234 L1290,1768.0859 L1291.2891,1766.5234 L1292.5,1766.5234 L1307.5,1766.5234 L1308.7109,1766.5234 L1310,1768.0859 L1310,1769.0234 L1310,1769.9609 L1308.7109,1771.5234 L1307.5,1771.5234 L1302.5,1771.5234 Z " fill="#000000"/><ellipse cx="1347.5" cy="1777.7734" fill="#84BE84" rx="7.5" ry="7.5" style="stroke:#038048;stroke-width:2.5;"/><text fill="#000000" font-family="sans-serif" font-size="30" font-style="italic" lengthAdjust="spacing" textLength="35" x="1362.5" y="1772.4316">&lt;&lt;</text><text fill="#000000" filter="url(#b1rp4rumclx9ja3)" font-family="sans-serif" font-size="30" font-style="italic" lengthAdjust="spacing" textLength="657.5" x="1397.5" y="1772.4316">KeypleDistributedLocalServiceExtensionFactory</text><text fill="#000000" font-family="sans-serif" font-size="30" font-style="italic" lengthAdjust="spacing" textLength="35" x="2055" y="1772.4316">&gt;&gt;</text><text fill="#000000" font-family="sans-serif" font-size="30" font-style="italic" lengthAdjust="spacing" textLength="367.5" x="1542.5" y="1810.166">LocalServiceServerFactory</text><line style="stroke:#8E44AD;stroke-width:3.75;" x1="1265" x2="2095" y1="1829.2578" y2="1829.2578"/><line style="stroke:#8E44AD;stroke-width:3.75;" x1="1265" x2="2095" y1="1849.2578" y2="1849.2578"/><!--MD5=[45da2647461317707e3821eb296cac07]
class LocalServiceClientFactoryBuilder--><rect codeLine="133" fill="#E9F7EF" height="154.5898" id="LocalServiceClientFactoryBuilder" style="stroke:#27AE60;stroke-width:3.75;" width="630" x="360" y="641.2891"/><ellipse cx="397.5" cy="681.2891" fill="#ADD1B2" rx="27.5" ry="27.5" style="stroke:#ADD1B2;stroke-width:2.5;"/><path d="M402.5,672.5391 Q403.0078,671.2891 403.5938,670.6641 Q404.1797,670.0391 404.8438,670.0391 Q406.0156,670.0391 406.7578,670.7422 Q407.5,671.4453 407.5,673.0859 L407.5,676.9922 Q407.5,678.6328 406.7969,679.3359 Q406.0938,680.0391 405,680.0391 Q404.0234,680.0391 403.3984,679.6094 Q402.7734,679.1797 402.5,678.0469 Q402.3828,677.2656 401.9531,676.8359 Q401.1719,676.0156 399.7656,675.5469 Q398.3594,675.0391 396.9531,675.0391 Q395.1953,675.0391 393.7109,675.7422 Q392.2656,676.4453 391.1328,678.0078 Q390,679.5703 390,681.7188 L390,684.0234 Q390,686.6016 392.1094,688.3203 Q394.2188,690.0391 397.9688,690.0391 Q400.1953,690.0391 401.7578,689.5313 Q402.6563,689.2578 403.6719,688.3594 Q404.3359,687.8516 404.6875,687.6953 Q405.0391,687.5391 405.4688,687.5391 Q406.2891,687.5391 406.875,688.2031 Q407.5,688.8281 407.5,689.7266 Q407.5,690.5859 406.6406,691.6016 Q405.3906,693.0859 403.3984,693.9063 Q400.7813,695.0391 397.5781,695.0391 Q393.8281,695.0391 390.8203,693.5547 Q388.3984,692.3828 386.6797,689.8438 Q385,687.3047 385,684.2969 L385,681.5625 Q385,678.4375 386.4844,675.7031 Q388.0078,672.9688 390.625,671.5234 Q393.2813,670.0391 396.25,670.0391 Q398.0469,670.0391 399.6094,670.6641 Q401.1719,671.2891 402.5,672.5391 Z " fill="#000000"/><ellipse cx="445" cy="680.0391" fill="#84BE84" rx="7.5" ry="7.5" style="stroke:#038048;stroke-width:2.5;"/><text fill="#000000" font-family="sans-serif" font-size="30" font-style="italic" font-weight="bold" lengthAdjust="spacing" textLength="60" x="460" y="693.5645">final</text><text fill="#000000" font-family="sans-serif" font-size="30" font-style="italic" lengthAdjust="spacing" textLength="455" x="527.5" y="693.5645">LocalServiceClientFactoryBuilder</text><line style="stroke:#27AE60;stroke-width:3.75;" x1="362.5" x2="987.5" y1="721.2891" y2="721.2891"/><line style="stroke:#27AE60;stroke-width:3.75;" x1="362.5" x2="987.5" y1="741.2891" y2="741.2891"/><ellipse cx="387.5" cy="768.7891" fill="#84BE84" rx="7.5" ry="7.5" style="stroke:#038048;stroke-width:2.5;"/><text fill="#000000" font-family="sans-serif" font-size="27.5" lengthAdjust="spacing" text-decoration="underline" textLength="525" x="410" y="779.8364">NodeStep builder (String localServiceName)</text><!--MD5=[fca05c5e823d186a63ae40dce67a8e2c]
class LocalServiceClientFactoryNodeStep--><rect codeLine="134" fill="#E9F7EF" height="189.1797" id="LocalServiceClientFactoryNodeStep" style="stroke:#27AE60;stroke-width:3.75;" width="1070" x="140" y="991.2891"/><ellipse cx="581.875" cy="1031.2891" fill="#B4A7E5" rx="27.5" ry="27.5" style="stroke:#B4A7E5;stroke-width:2.5;"/><path d="M584.375,1023.7891 L584.375,1038.7891 L589.375,1038.7891 L590.5859,1038.7891 L591.875,1040.3516 L591.875,1041.2891 L591.875,1042.2266 L590.5859,1043.7891 L589.375,1043.7891 L574.375,1043.7891 L573.1641,1043.7891 L571.875,1042.2266 L571.875,1041.2891 L571.875,1040.3516 L573.1641,1038.7891 L574.375,1038.7891 L579.375,1038.7891 L579.375,1023.7891 L574.375,1023.7891 L573.1641,1023.7891 L571.875,1022.2266 L571.875,1021.2891 L571.875,1020.3516 L573.1641,1018.7891 L574.375,1018.7891 L589.375,1018.7891 L590.5859,1018.7891 L591.875,1020.3516 L591.875,1021.2891 L591.875,1022.2266 L590.5859,1023.7891 L589.375,1023.7891 L584.375,1023.7891 Z " fill="#000000"/><ellipse cx="645.625" cy="1030.0391" fill="#84BE84" rx="7.5" ry="7.5" style="stroke:#038048;stroke-width:2.5;"/><text fill="#000000" font-family="sans-serif" font-size="30" font-style="italic" lengthAdjust="spacing" textLength="137.5" x="660.625" y="1043.5645">NodeStep</text><line style="stroke:#27AE60;stroke-width:3.75;" x1="142.5" x2="1207.5" y1="1071.2891" y2="1071.2891"/><line style="stroke:#27AE60;stroke-width:3.75;" x1="142.5" x2="1207.5" y1="1091.2891" y2="1091.2891"/><ellipse cx="167.5" cy="1118.7891" fill="#84BE84" rx="7.5" ry="7.5" style="stroke:#038048;stroke-width:2.5;"/><text fill="#000000" font-family="sans-serif" font-size="27.5" lengthAdjust="spacing" textLength="340" x="190" y="1129.8364">BuilderStep withSyncNode (</text><text fill="#000000" filter="url(#b1rp4rumclx9ja2)" font-family="sans-serif" font-size="27.5" lengthAdjust="spacing" textLength="267.5" x="530" y="1129.8364">SyncEndpointClientSpi</text><text fill="#000000" font-family="sans-serif" font-size="27.5" lengthAdjust="spacing" textLength="112.5" x="805" y="1129.8364">endpoint)</text><ellipse cx="167.5" cy="1153.3789" fill="#84BE84" rx="7.5" ry="7.5" style="stroke:#038048;stroke-width:2.5;"/><text fill="#000000" font-family="sans-serif" font-size="27.5" lengthAdjust="spacing" textLength="357.5" x="190" y="1164.4263">BuilderStep withAsyncNode (</text><text fill="#000000" filter="url(#b1rp4rumclx9ja2)" font-family="sans-serif" font-size="27.5" lengthAdjust="spacing" textLength="285" x="547.5" y="1164.4263">AsyncEndpointClientSpi</text><text fill="#000000" font-family="sans-serif" font-size="27.5" lengthAdjust="spacing" textLength="355" x="840" y="1164.4263">endpoint, int timeoutSeconds)</text><!--MD5=[5b2c542e0dbcba69b09e7b8ad787363b]
class LocalServiceClientFactoryBuilderStep--><rect codeLine="135" fill="#E9F7EF" height="154.5898" id="LocalServiceClientFactoryBuilderStep" style="stroke:#27AE60;stroke-width:3.75;" width="470" x="515" y="1351.2891"/><ellipse cx="645.625" cy="1391.2891" fill="#B4A7E5" rx="27.5" ry="27.5" style="stroke:#B4A7E5;stroke-width:2.5;"/><path d="M648.125,1383.7891 L648.125,1398.7891 L653.125,1398.7891 L654.3359,1398.7891 L655.625,1400.3516 L655.625,1401.2891 L655.625,1402.2266 L654.3359,1403.7891 L653.125,1403.7891 L638.125,1403.7891 L636.9141,1403.7891 L635.625,1402.2266 L635.625,1401.2891 L635.625,1400.3516 L636.9141,1398.7891 L638.125,1398.7891 L643.125,1398.7891 L643.125,1383.7891 L638.125,1383.7891 L636.9141,1383.7891 L635.625,1382.2266 L635.625,1381.2891 L635.625,1380.3516 L636.9141,1378.7891 L638.125,1378.7891 L653.125,1378.7891 L654.3359,1378.7891 L655.625,1380.3516 L655.625,1381.2891 L655.625,1382.2266 L654.3359,1383.7891 L653.125,1383.7891 L648.125,1383.7891 Z " fill="#000000"/><ellipse cx="709.375" cy="1390.0391" fill="#84BE84" rx="7.5" ry="7.5" style="stroke:#038048;stroke-width:2.5;"/><text fill="#000000" font-family="sans-serif" font-size="30" font-style="italic" lengthAdjust="spacing" textLength="160" x="724.375" y="1403.5645">BuilderStep</text><line style="stroke:#27AE60;stroke-width:3.75;" x1="517.5" x2="982.5" y1="1431.2891" y2="1431.2891"/><line style="stroke:#27AE60;stroke-width:3.75;" x1="517.5" x2="982.5" y1="1451.2891" y2="1451.2891"/><ellipse cx="542.5" cy="1478.7891" fill="#84BE84" rx="7.5" ry="7.5" style="stroke:#038048;stroke-width:2.5;"/><text fill="#000000" font-family="sans-serif" font-size="27.5" lengthAdjust="spacing" textLength="405" x="565" y="1489.8364">LocalServiceClientFactory build ()</text><!--MD5=[0b7969af8a911da52ed06a1d4b108be2]
class LocalServiceServerFactoryBuilder--><rect codeLine="139" fill="#F4ECF7" height="154.5898" id="LocalServiceServerFactoryBuilder" style="stroke:#8E44AD;stroke-width:3.75;" width="640" x="1400" y="641.2891"/><ellipse cx="1437.5" cy="681.2891" fill="#ADD1B2" rx="27.5" ry="27.5" style="stroke:#ADD1B2;stroke-width:2.5;"/><path d="M1442.5,672.5391 Q1443.0078,671.2891 1443.5938,670.6641 Q1444.1797,670.0391 1444.8438,670.0391 Q1446.0156,670.0391 1446.7578,670.7422 Q1447.5,671.4453 1447.5,673.0859 L1447.5,676.9922 Q1447.5,678.6328 1446.7969,679.3359 Q1446.0938,680.0391 1445,680.0391 Q1444.0234,680.0391 1443.3984,679.6094 Q1442.7734,679.1797 1442.5,678.0469 Q1442.3828,677.2656 1441.9531,676.8359 Q1441.1719,676.0156 1439.7656,675.5469 Q1438.3594,675.0391 1436.9531,675.0391 Q1435.1953,675.0391 1433.7109,675.7422 Q1432.2656,676.4453 1431.1328,678.0078 Q1430,679.5703 1430,681.7188 L1430,684.0234 Q1430,686.6016 1432.1094,688.3203 Q1434.2188,690.0391 1437.9688,690.0391 Q1440.1953,690.0391 1441.7578,689.5313 Q1442.6563,689.2578 1443.6719,688.3594 Q1444.3359,687.8516 1444.6875,687.6953 Q1445.0391,687.5391 1445.4688,687.5391 Q1446.2891,687.5391 1446.875,688.2031 Q1447.5,688.8281 1447.5,689.7266 Q1447.5,690.5859 1446.6406,691.6016 Q1445.3906,693.0859 1443.3984,693.9063 Q1440.7813,695.0391 1437.5781,695.0391 Q1433.8281,695.0391 1430.8203,693.5547 Q1428.3984,692.3828 1426.6797,689.8438 Q1425,687.3047 1425,684.2969 L1425,681.5625 Q1425,678.4375 1426.4844,675.7031 Q1428.0078,672.9688 1430.625,671.5234 Q1433.2813,670.0391 1436.25,670.0391 Q1438.0469,670.0391 1439.6094,670.6641 Q1441.1719,671.2891 1442.5,672.5391 Z " fill="#000000"/><ellipse cx="1485" cy="680.0391" fill="#84BE84" rx="7.5" ry="7.5" style="stroke:#038048;stroke-width:2.5;"/><text fill="#000000" font-family="sans-serif" font-size="30" font-style="italic" font-weight="bold" lengthAdjust="spacing" textLength="60" x="1500" y="693.5645">final</text><text fill="#000000" font-family="sans-serif" font-size="30" font-style="italic" lengthAdjust="spacing" textLength="465" x="1567.5" y="693.5645">LocalServiceServerFactoryBuilder</text><line style="stroke:#8E44AD;stroke-width:3.75;" x1="1402.5" x2="2037.5" y1="721.2891" y2="721.2891"/><line style="stroke:#8E44AD;stroke-width:3.75;" x1="1402.5" x2="2037.5" y1="741.2891" y2="741.2891"/><ellipse cx="1427.5" cy="768.7891" fill="#84BE84" rx="7.5" ry="7.5" style="stroke:#038048;stroke-width:2.5;"/><text fill="#000000" font-family="sans-serif" font-size="27.5" lengthAdjust="spacing" text-decoration="underline" textLength="525" x="1450" y="779.8364">NodeStep builder (String localServiceName)</text><!--MD5=[27a12c03f9620a97e76e302bd37814cc]
class LocalServiceServerFactoryNodeStep--><rect codeLine="140" fill="#F4ECF7" height="189.1797" id="LocalServiceServerFactoryNodeStep" style="stroke:#8E44AD;stroke-width:3.75;" width="845" x="1297.5" y="991.2891"/><ellipse cx="1626.875" cy="1031.2891" fill="#B4A7E5" rx="27.5" ry="27.5" style="stroke:#B4A7E5;stroke-width:2.5;"/><path d="M1629.375,1023.7891 L1629.375,1038.7891 L1634.375,1038.7891 L1635.5859,1038.7891 L1636.875,1040.3516 L1636.875,1041.2891 L1636.875,1042.2266 L1635.5859,1043.7891 L1634.375,1043.7891 L1619.375,1043.7891 L1618.1641,1043.7891 L1616.875,1042.2266 L1616.875,1041.2891 L1616.875,1040.3516 L1618.1641,1038.7891 L1619.375,1038.7891 L1624.375,1038.7891 L1624.375,1023.7891 L1619.375,1023.7891 L1618.1641,1023.7891 L1616.875,1022.2266 L1616.875,1021.2891 L1616.875,1020.3516 L1618.1641,1018.7891 L1619.375,1018.7891 L1634.375,1018.7891 L1635.5859,1018.7891 L1636.875,1020.3516 L1636.875,1021.2891 L1636.875,1022.2266 L1635.5859,1023.7891 L1634.375,1023.7891 L1629.375,1023.7891 Z " fill="#000000"/><ellipse cx="1690.625" cy="1030.0391" fill="#84BE84" rx="7.5" ry="7.5" style="stroke:#038048;stroke-width:2.5;"/><text fill="#000000" font-family="sans-serif" font-size="30" font-style="italic" lengthAdjust="spacing" textLength="137.5" x="1705.625" y="1043.5645">NodeStep</text><line style="stroke:#8E44AD;stroke-width:3.75;" x1="1300" x2="2140" y1="1071.2891" y2="1071.2891"/><line style="stroke:#8E44AD;stroke-width:3.75;" x1="1300" x2="2140" y1="1091.2891" y2="1091.2891"/><ellipse cx="1325" cy="1118.7891" fill="#84BE84" rx="7.5" ry="7.5" style="stroke:#038048;stroke-width:2.5;"/><text fill="#000000" font-family="sans-serif" font-size="27.5" lengthAdjust="spacing" textLength="350" x="1347.5" y="1129.8364">BuilderStep withSyncNode ()</text><ellipse cx="1325" cy="1153.3789" fill="#84BE84" rx="7.5" ry="7.5" style="stroke:#038048;stroke-width:2.5;"/><text fill="#000000" font-family="sans-serif" font-size="27.5" lengthAdjust="spacing" textLength="357.5" x="1347.5" y="1164.4263">BuilderStep withAsyncNode (</text><text fill="#000000" filter="url(#b1rp4rumclx9ja2)" font-family="sans-serif" font-size="27.5" lengthAdjust="spacing" textLength="302.5" x="1705" y="1164.4263">AsyncEndpointServerSpi</text><text fill="#000000" font-family="sans-serif" font-size="27.5" lengthAdjust="spacing" textLength="112.5" x="2015" y="1164.4263">endpoint)</text><!--MD5=[ad11ceb944313691c530a2f0bc495c08]
class LocalServiceServerFactoryBuilderStep--><rect codeLine="141" fill="#F4ECF7" height="189.1797" id="LocalServiceServerFactoryBuilderStep" style="stroke:#8E44AD;stroke-width:3.75;" width="727.5" x="1323.75" y="1333.7891"/><ellipse cx="1583.125" cy="1373.7891" fill="#B4A7E5" rx="27.5" ry="27.5" style="stroke:#B4A7E5;stroke-width:2.5;"/><path d="M1585.625,1366.2891 L1585.625,1381.2891 L1590.625,1381.2891 L1591.8359,1381.2891 L1593.125,1382.8516 L1593.125,1383.7891 L1593.125,1384.7266 L1591.8359,1386.2891 L1590.625,1386.2891 L1575.625,1386.2891 L1574.4141,1386.2891 L1573.125,1384.7266 L1573.125,1383.7891 L1573.125,1382.8516 L1574.4141,1381.2891 L1575.625,1381.2891 L1580.625,1381.2891 L1580.625,1366.2891 L1575.625,1366.2891 L1574.4141,1366.2891 L1573.125,1364.7266 L1573.125,1363.7891 L1573.125,1362.8516 L1574.4141,1361.2891 L1575.625,1361.2891 L1590.625,1361.2891 L1591.8359,1361.2891 L1593.125,1362.8516 L1593.125,1363.7891 L1593.125,1364.7266 L1591.8359,1366.2891 L1590.625,1366.2891 L1585.625,1366.2891 Z " fill="#000000"/><ellipse cx="1646.875" cy="1372.5391" fill="#84BE84" rx="7.5" ry="7.5" style="stroke:#038048;stroke-width:2.5;"/><text fill="#000000" font-family="sans-serif" font-size="30" font-style="italic" lengthAdjust="spacing" textLength="160" x="1661.875" y="1386.0645">BuilderStep</text><line style="stroke:#8E44AD;stroke-width:3.75;" x1="1326.25" x2="2048.75" y1="1413.7891" y2="1413.7891"/><line style="stroke:#8E44AD;stroke-width:3.75;" x1="1326.25" x2="2048.75" y1="1433.7891" y2="1433.7891"/><ellipse cx="1351.25" cy="1461.2891" fill="#84BE84" rx="7.5" ry="7.5" style="stroke:#038048;stroke-width:2.5;"/><text fill="#000000" font-family="sans-serif" font-size="27.5" lengthAdjust="spacing" textLength="662.5" x="1373.75" y="1472.3364">BuilderStep withPoolPlugins (String... poolPluginNames)</text><ellipse cx="1351.25" cy="1495.8789" fill="#84BE84" rx="7.5" ry="7.5" style="stroke:#038048;stroke-width:2.5;"/><text fill="#000000" font-family="sans-serif" font-size="27.5" lengthAdjust="spacing" textLength="422.5" x="1373.75" y="1506.9263">LocalServiceServerFactory build ()</text><!--MD5=[967476ac58eebd5431d0e323c0a47ed1]
link LocalServiceClientFactoryBuilder to LocalServiceClientFactoryNodeStep--><path codeLine="114" d="M675,796.3991 C675,848.8416 675,919.5841 675,977.7591 " fill="none" id="LocalServiceClientFactoryBuilder-to-LocalServiceClientFactoryNodeStep" style="stroke:#27AE60;stroke-width:2.5;stroke-dasharray:7.0,7.0;"/><polygon fill="#27AE60" points="675,990.7316,685,968.2316,675,978.2316,665,968.2316,675,990.7316" style="stroke:#27AE60;stroke-width:2.5;"/><polygon fill="#000000" points="687.5,906.7285,694.8473,884.1158,680.1527,884.1158,687.5,906.7285" style="stroke:#000000;stroke-width:2.5;"/><text fill="#000000" font-family="sans-serif" font-size="32.5" lengthAdjust="spacing" textLength="100" x="710" y="907.5269">provide</text><!--MD5=[5403c7fdf8a9123dbc2f35f1155c18d8]
link LocalServiceClientFactoryNodeStep to LocalServiceClientFactoryBuilderStep--><path codeLine="115" d="M695.6925,1181.9066 C706.4725,1230.4166 719.59,1289.4391 730.23,1337.3266 " fill="none" id="LocalServiceClientFactoryNodeStep-to-LocalServiceClientFactoryBuilderStep" style="stroke:#27AE60;stroke-width:2.5;stroke-dasharray:7.0,7.0;"/><polygon fill="#27AE60" points="733.1625,1350.5216,738.0389,1326.3871,730.4486,1338.3197,718.516,1330.7294,733.1625,1350.5216" style="stroke:#27AE60;stroke-width:2.5;"/><!--MD5=[37446715fc7bdfdc77d861e6a2f41596]
link LocalServiceClientFactoryBuilderStep to LocalServiceClientFactory--><path codeLine="116" d="M751.555,1506.9166 C752.805,1567.7391 754.555,1653.0141 755.835,1715.2341 " fill="none" id="LocalServiceClientFactoryBuilderStep-to-LocalServiceClientFactory" style="stroke:#27AE60;stroke-width:2.5;stroke-dasharray:7.0,7.0;"/><polygon fill="#27AE60" points="756.1,1728.1441,765.6351,1705.4432,755.8429,1715.6467,745.6394,1705.8545,756.1,1728.1441" style="stroke:#27AE60;stroke-width:2.5;"/><polygon fill="#000000" points="765.2568,1639.2259,772.138,1616.467,757.4465,1616.7689,765.2568,1639.2259" style="stroke:#000000;stroke-width:2.5;"/><text fill="#000000" font-family="sans-serif" font-size="32.5" lengthAdjust="spacing" textLength="90" x="787.5" y="1640.0269">create</text><!--MD5=[14e226f9dbad5070dced9be6f533deea]
link LocalServiceClientFactory to LocalServiceClient--><path codeLine="117" d="M757.5,1869.0866 C757.5,1918.5416 757.5,1988.4491 757.5,2055.9291 " fill="none" id="LocalServiceClientFactory-to-LocalServiceClient" style="stroke:#27AE60;stroke-width:2.5;stroke-dasharray:7.0,7.0;"/><polygon fill="#27AE60" points="757.5,2068.4966,767.5,2045.9966,757.5,2055.9966,747.5,2045.9966,757.5,2068.4966" style="stroke:#27AE60;stroke-width:2.5;"/><polygon fill="#000000" points="770,1984.2285,777.3473,1961.6158,762.6527,1961.6158,770,1984.2285" style="stroke:#000000;stroke-width:2.5;"/><text fill="#000000" font-family="sans-serif" font-size="32.5" lengthAdjust="spacing" textLength="90" x="792.5" y="1985.0269">create</text><!--MD5=[6e77fd2e65b40661f4fc5b724475af74]
link LocalServiceServerFactoryBuilder to LocalServiceServerFactoryNodeStep--><path codeLine="119" d="M1720,796.3991 C1720,848.8416 1720,919.5841 1720,977.7591 " fill="none" id="LocalServiceServerFactoryBuilder-to-LocalServiceServerFactoryNodeStep" style="stroke:#27AE60;stroke-width:2.5;stroke-dasharray:7.0,7.0;"/><polygon fill="#27AE60" points="1720,990.7316,1730,968.2316,1720,978.2316,1710,968.2316,1720,990.7316" style="stroke:#27AE60;stroke-width:2.5;"/><polygon fill="#000000" points="1732.5,906.7285,1739.8473,884.1158,1725.1527,884.1158,1732.5,906.7285" style="stroke:#000000;stroke-width:2.5;"/><text fill="#000000" font-family="sans-serif" font-size="32.5" lengthAdjust="spacing" textLength="100" x="1755" y="907.5269">provide</text><!--MD5=[c2a403638aade61f3a045efd4b2af633]
link LocalServiceServerFactoryNodeStep to LocalServiceServerFactoryBuilderStep--><path codeLine="120" d="M1711.0325,1181.9066 C1706.9125,1224.6966 1702.005,1275.6691 1697.74,1319.9616 " fill="none" id="LocalServiceServerFactoryNodeStep-to-LocalServiceServerFactoryBuilderStep" style="stroke:#27AE60;stroke-width:2.5;stroke-dasharray:7.0,7.0;"/><polygon fill="#27AE60" points="1696.4375,1333.4766,1708.5512,1312.0404,1697.6374,1321.0343,1688.6436,1310.1205,1696.4375,1333.4766" style="stroke:#27AE60;stroke-width:2.5;"/><!--MD5=[9d31cf5bbe5c4225777ab9b980a48b45]
link LocalServiceServerFactoryBuilderStep to LocalServiceServerFactoryBuilderStep--><path codeLine="121" d="M2051.335,1400.1041 C2103.605,1404.7016 2138.75,1414.2616 2138.75,1428.7891 C2138.75,1442.0666 2109.385,1451.1966 2064.42,1456.1791 " fill="none" id="LocalServiceServerFactoryBuilderStep-to-LocalServiceServerFactoryBuilderStep" style="stroke:#27AE60;stroke-width:2.5;stroke-dasharray:7.0,7.0;"/><polygon fill="#27AE60" points="2051.335,1457.4741,2074.7111,1465.2075,2063.7741,1456.2419,2072.7397,1445.3049,2051.335,1457.4741" style="stroke:#27AE60;stroke-width:2.5;"/><!--MD5=[325da26a680e487776806951768b4688]
link LocalServiceServerFactoryBuilderStep to LocalServiceServerFactory--><path codeLine="122" d="M1685.5875,1524.3391 C1684.375,1583.3891 1682.82,1659.0416 1681.66,1715.5566 " fill="none" id="LocalServiceServerFactoryBuilderStep-to-LocalServiceServerFactory" style="stroke:#27AE60;stroke-width:2.5;stroke-dasharray:7.0,7.0;"/><polygon fill="#27AE60" points="1681.3875,1728.7616,1691.8483,1706.4721,1681.6447,1716.2642,1671.8525,1706.0606,1681.3875,1728.7616" style="stroke:#27AE60;stroke-width:2.5;"/><polygon fill="#000000" points="1694.7433,1639.2259,1702.5534,1616.7688,1687.8619,1616.4671,1694.7433,1639.2259" style="stroke:#000000;stroke-width:2.5;"/><text fill="#000000" font-family="sans-serif" font-size="32.5" lengthAdjust="spacing" textLength="90" x="1717.5" y="1640.0269">create</text><!--MD5=[60c6a7daaa78c2d9dcf5788f57812ec6]
link LocalServiceServerFactory to LocalServiceServer--><path codeLine="123" d="M1680,1869.0866 C1680,1942.9891 1680,2062.5616 1680,2151.4641 " fill="none" id="LocalServiceServerFactory-to-LocalServiceServer" style="stroke:#27AE60;stroke-width:2.5;stroke-dasharray:7.0,7.0;"/><polygon fill="#27AE60" points="1680,2164.3491,1690,2141.8491,1680,2151.8491,1670,2141.8491,1680,2164.3491" style="stroke:#27AE60;stroke-width:2.5;"/><polygon fill="#000000" points="1692.5,1984.2285,1699.8473,1961.6158,1685.1527,1961.6158,1692.5,1984.2285" style="stroke:#000000;stroke-width:2.5;"/><text fill="#000000" font-family="sans-serif" font-size="32.5" lengthAdjust="spacing" textLength="90" x="1715" y="1985.0269">create</text><!--MD5=[726d2e2cff8bc153372b139d1f2ad771]
@startuml
title
    Keyple 2.0 - keyple-java-distributed-local - 2.0.0 (21/05/2021)
end title

' == THEME ==

'Couleurs issues de : https://htmlcolorcodes.com/fr/tableau-de-couleur/tableau-de-couleur-design-plat/
!define C_GREY1 F8F9F9
!define C_GREY2 F2F3F4
!define C_GREY3 E5E7E9
!define C_GREY4 D7DBDD
!define C_GREY5 CACFD2
!define C_GREY6 BDC3C7
!define C_LINK 3498DB
!define C_USE 27AE60

skinparam Shadowing false
skinparam ClassFontStyle italic
skinparam ClassBorderColor #D4AC0D
skinparam stereotypeABorderColor #A9DCDF
skinparam stereotypeIBorderColor #B4A7E5
skinparam stereotypeCBorderColor #ADD1B2
skinparam stereotypeEBorderColor #EB93DF
' Red
skinparam ClassBackgroundColor<<red>> #FDEDEC
skinparam ClassBorderColor<<red>> #E74C3C
hide <<red>> stereotype
' Purple
skinparam ClassBackgroundColor<<purple>> #F4ECF7
skinparam ClassBorderColor<<purple>> #8E44AD
hide <<purple>> stereotype
' blue
skinparam ClassBackgroundColor<<blue>> #EBF5FB
skinparam ClassBorderColor<<blue>> #3498DB
hide <<blue>> stereotype
' Green
skinparam ClassBackgroundColor<<green>> #E9F7EF
skinparam ClassBorderColor<<green>> #27AE60
hide <<green>> stereotype
' Grey
skinparam ClassBackgroundColor<<grey>> #EAECEE
skinparam ClassBorderColor<<grey>> #2C3E50
hide <<grey>> stereotype

' == CONTENT ==

legend top
    __Colors legend__ :
    * __Configuration modes__ :
    ** <back:lightGreen>**Reader Client Side**</back>
    ** <back:plum>**Reader Server Side**</back>
    ** <back:plum>**Pool Reader Server Side**</back>
    * __External API references__ :
    ** <back:yellow>**keyple-java-distributed-network**</back>
    ** <back:cyan>**keyple-java-commons-api**</back>
end legend

package "org.eclipse.keyple.distributed" as root {

    +interface "<<<back:cyan>KeypleDistributedLocalServiceExtension</back>>>\nLocalServiceClient" as LocalServiceClient {
        - -
        +<back:yellow>AsyncNodeClient</back> getAsyncNode ()
        ..
        +<T> T executeRemoteService (
            \tString serviceId,
            \tString localReaderName,
            \tObject initialCardContent,
            \tObject inputData,
            \tClass<T> outputDataClass)
    }

    +interface "<<<back:cyan>KeypleDistributedLocalServiceExtension</back>>>\nLocalServiceServer" as LocalServiceServer {
        +<back:yellow>SyncNodeServer</back> getSyncNode ()
        +<back:yellow>AsyncNodeServer</back> getAsyncNode ()
    }

    ' Factories
    together {
        +interface "<<<back:cyan>KeypleDistributedLocalServiceExtensionFactory</back>>>\nLocalServiceClientFactory" as LocalServiceClientFactory {
        }
        +interface "<<<back:cyan>KeypleDistributedLocalServiceExtensionFactory</back>>>\nLocalServiceServerFactory" as LocalServiceServerFactory {
        }
    }

    ' Factories builders
    together {
        +class "**final** LocalServiceClientFactoryBuilder" as LocalServiceClientFactoryBuilder {
            + {static} NodeStep builder (String localServiceName)
        }
        +interface "NodeStep" as LocalServiceClientFactoryNodeStep {
            + BuilderStep withSyncNode (<back:yellow>SyncEndpointClientSpi</back> endpoint)
            + BuilderStep withAsyncNode (<back:yellow>AsyncEndpointClientSpi</back> endpoint, int timeoutSeconds)
        }
        +interface "BuilderStep" as LocalServiceClientFactoryBuilderStep {
            + LocalServiceClientFactory build ()
        }

        +class "**final** LocalServiceServerFactoryBuilder" as LocalServiceServerFactoryBuilder {
            + {static} NodeStep builder (String localServiceName)
        }
        +interface "NodeStep" as LocalServiceServerFactoryNodeStep {
            + BuilderStep withSyncNode ()
            + BuilderStep withAsyncNode (<back:yellow>AsyncEndpointServerSpi</back> endpoint)
        }
        +interface "BuilderStep" as LocalServiceServerFactoryBuilderStep {
            + BuilderStep withPoolPlugins (String... poolPluginNames)
            + LocalServiceServerFactory build ()
        }
    }
}

' Associations

LocalServiceClientFactoryBuilder ..> LocalServiceClientFactoryNodeStep #C_USE : provide >
LocalServiceClientFactoryNodeStep ..> LocalServiceClientFactoryBuilderStep #C_USE
LocalServiceClientFactoryBuilderStep ..> LocalServiceClientFactory #C_USE : create >
LocalServiceClientFactory ..> LocalServiceClient #C_USE : create >

LocalServiceServerFactoryBuilder ..> LocalServiceServerFactoryNodeStep #C_USE : provide >
LocalServiceServerFactoryNodeStep ..> LocalServiceServerFactoryBuilderStep #C_USE
LocalServiceServerFactoryBuilderStep ..> LocalServiceServerFactoryBuilderStep #C_USE
LocalServiceServerFactoryBuilderStep ..> LocalServiceServerFactory #C_USE : create >
LocalServiceServerFactory ..> LocalServiceServer #C_USE : create >

' == LAYOUT ==

' == STYLE ==

package root #C_GREY1 {}

interface LocalServiceClient <<green>>
interface LocalServiceClientFactory <<green>>
class LocalServiceClientFactoryBuilder <<green>>
interface LocalServiceClientFactoryNodeStep <<green>>
interface LocalServiceClientFactoryBuilderStep <<green>>

interface LocalServiceServer <<purple>>
interface LocalServiceServerFactory <<purple>>
class LocalServiceServerFactoryBuilder <<purple>>
interface LocalServiceServerFactoryNodeStep <<purple>>
interface LocalServiceServerFactoryBuilderStep <<purple>>

@enduml

@startuml
title
    Keyple 2.0 - keyple-java-distributed-local - 2.0.0 (21/05/2021)
end title



skinparam Shadowing false
skinparam ClassFontStyle italic
skinparam ClassBorderColor #D4AC0D
skinparam stereotypeABorderColor #A9DCDF
skinparam stereotypeIBorderColor #B4A7E5
skinparam stereotypeCBorderColor #ADD1B2
skinparam stereotypeEBorderColor #EB93DF
skinparam ClassBackgroundColor<<red>> #FDEDEC
skinparam ClassBorderColor<<red>> #E74C3C
hide <<red>> stereotype
skinparam ClassBackgroundColor<<purple>> #F4ECF7
skinparam ClassBorderColor<<purple>> #8E44AD
hide <<purple>> stereotype
skinparam ClassBackgroundColor<<blue>> #EBF5FB
skinparam ClassBorderColor<<blue>> #3498DB
hide <<blue>> stereotype
skinparam ClassBackgroundColor<<green>> #E9F7EF
skinparam ClassBorderColor<<green>> #27AE60
hide <<green>> stereotype
skinparam ClassBackgroundColor<<grey>> #EAECEE
skinparam ClassBorderColor<<grey>> #2C3E50
hide <<grey>> stereotype


legend top
    __Colors legend__ :
    * __Configuration modes__ :
    ** <back:lightGreen>**Reader Client Side**</back>
    ** <back:plum>**Reader Server Side**</back>
    ** <back:plum>**Pool Reader Server Side**</back>
    * __External API references__ :
    ** <back:yellow>**keyple-java-distributed-network**</back>
    ** <back:cyan>**keyple-java-commons-api**</back>
end legend

package "org.eclipse.keyple.distributed" as root {

    +interface "<<<back:cyan>KeypleDistributedLocalServiceExtension</back>>>\nLocalServiceClient" as LocalServiceClient {
        - -
        +<back:yellow>AsyncNodeClient</back> getAsyncNode ()
        ..
        +<T> T executeRemoteService (
            \tString serviceId,
            \tString localReaderName,
            \tObject initialCardContent,
            \tObject inputData,
            \tClass<T> outputDataClass)
    }

    +interface "<<<back:cyan>KeypleDistributedLocalServiceExtension</back>>>\nLocalServiceServer" as LocalServiceServer {
        +<back:yellow>SyncNodeServer</back> getSyncNode ()
        +<back:yellow>AsyncNodeServer</back> getAsyncNode ()
    }

    together {
        +interface "<<<back:cyan>KeypleDistributedLocalServiceExtensionFactory</back>>>\nLocalServiceClientFactory" as LocalServiceClientFactory {
        }
        +interface "<<<back:cyan>KeypleDistributedLocalServiceExtensionFactory</back>>>\nLocalServiceServerFactory" as LocalServiceServerFactory {
        }
    }

    together {
        +class "**final** LocalServiceClientFactoryBuilder" as LocalServiceClientFactoryBuilder {
            + {static} NodeStep builder (String localServiceName)
        }
        +interface "NodeStep" as LocalServiceClientFactoryNodeStep {
            + BuilderStep withSyncNode (<back:yellow>SyncEndpointClientSpi</back> endpoint)
            + BuilderStep withAsyncNode (<back:yellow>AsyncEndpointClientSpi</back> endpoint, int timeoutSeconds)
        }
        +interface "BuilderStep" as LocalServiceClientFactoryBuilderStep {
            + LocalServiceClientFactory build ()
        }

        +class "**final** LocalServiceServerFactoryBuilder" as LocalServiceServerFactoryBuilder {
            + {static} NodeStep builder (String localServiceName)
        }
        +interface "NodeStep" as LocalServiceServerFactoryNodeStep {
            + BuilderStep withSyncNode ()
            + BuilderStep withAsyncNode (<back:yellow>AsyncEndpointServerSpi</back> endpoint)
        }
        +interface "BuilderStep" as LocalServiceServerFactoryBuilderStep {
            + BuilderStep withPoolPlugins (String... poolPluginNames)
            + LocalServiceServerFactory build ()
        }
    }
}


LocalServiceClientFactoryBuilder ..> LocalServiceClientFactoryNodeStep #27AE60 : provide >
LocalServiceClientFactoryNodeStep ..> LocalServiceClientFactoryBuilderStep #27AE60
LocalServiceClientFactoryBuilderStep ..> LocalServiceClientFactory #27AE60 : create >
LocalServiceClientFactory ..> LocalServiceClient #27AE60 : create >

LocalServiceServerFactoryBuilder ..> LocalServiceServerFactoryNodeStep #27AE60 : provide >
LocalServiceServerFactoryNodeStep ..> LocalServiceServerFactoryBuilderStep #27AE60
LocalServiceServerFactoryBuilderStep ..> LocalServiceServerFactoryBuilderStep #27AE60
LocalServiceServerFactoryBuilderStep ..> LocalServiceServerFactory #27AE60 : create >
LocalServiceServerFactory ..> LocalServiceServer #27AE60 : create >



package root #F8F9F9 {}

interface LocalServiceClient <<green>>
interface LocalServiceClientFactory <<green>>
class LocalServiceClientFactoryBuilder <<green>>
interface LocalServiceClientFactoryNodeStep <<green>>
interface LocalServiceClientFactoryBuilderStep <<green>>

interface LocalServiceServer <<purple>>
interface LocalServiceServerFactory <<purple>>
class LocalServiceServerFactoryBuilder <<purple>>
interface LocalServiceServerFactoryNodeStep <<purple>>
interface LocalServiceServerFactoryBuilderStep <<purple>>

@enduml

PlantUML version 1.2021.5(Sun Apr 25 13:20:28 CEST 2021)
(GPL source distribution)
Java Runtime: OpenJDK Runtime Environment
JVM: Dynamic Code Evolution 64-Bit Server VM
Default Encoding: Cp1252
Language: fr
Country: FR
--></g></svg>