<?xml version="1.0" encoding="UTF-8" standalone="no"?><svg xmlns="http://www.w3.org/2000/svg" xmlns:xlink="http://www.w3.org/1999/xlink" contentScriptType="application/ecmascript" contentStyleType="text/css" height="1365px" preserveAspectRatio="none" style="width:3932px;height:1365px;" version="1.1" viewBox="0 0 3932 1365" width="3932.5px" zoomAndPan="magnify"><defs><filter height="1" id="bzqd330d41wwz0" width="1" x="0" y="0"><feFlood flood-color="#00FFFF" result="flood"/><feComposite in="SourceGraphic" in2="flood" operator="over"/></filter></defs><g><text fill="#000000" font-family="sans-serif" font-size="45" lengthAdjust="spacing" textLength="980" x="1460.625" y="46.7139">Keyple 2.0 - Modules dependencies - 19/02/2021</text><!--MD5=[fa748c0050d71d88d66b284603ec55cc]
cluster packMain--><polygon fill="#F8F9F9" points="191.25,254.1016,723.75,254.1016,741.25,313.125,3891.25,313.125,3891.25,976.6016,191.25,976.6016,191.25,254.1016" style="stroke:#000000;stroke-width:3.75;"/><line style="stroke:#000000;stroke-width:3.75;" x1="191.25" x2="741.25" y1="313.125" y2="313.125"/><text fill="#000000" font-family="sans-serif" font-size="35" font-weight="bold" lengthAdjust="spacing" textLength="517.5" x="201.25" y="295.4346">Components having adapters</text><!--MD5=[867378565e6f99e68f2ca6b68bfc0810]
cluster packApi--><polygon fill="#F8F9F9" points="701.25,1056.6016,1786.25,1056.6016,1803.75,1115.625,3518.75,1115.625,3518.75,1349.1016,701.25,1349.1016,701.25,1056.6016" style="stroke:#000000;stroke-width:3.75;"/><line style="stroke:#000000;stroke-width:3.75;" x1="701.25" x2="1803.75" y1="1115.625" y2="1115.625"/><text fill="#000000" font-family="sans-serif" font-size="35" font-weight="bold" lengthAdjust="spacing" textLength="1070" x="711.25" y="1097.9346">Keyple Internal APIs/SPIs (hidden for the specific application)</text><!--MD5=[37c33c71ce9550fe283f62c54b59719b]
entity application--><rect fill="#EBF5FB" height="119.0234" style="stroke:#3498DB;stroke-width:3.75;" width="405" x="1881.25" y="424.1016"/><rect fill="#EBF5FB" height="25" style="stroke:#3498DB;stroke-width:3.75;" width="37.5" x="2236.25" y="436.6016"/><rect fill="#EBF5FB" height="5" style="stroke:#3498DB;stroke-width:3.75;" width="10" x="2231.25" y="441.6016"/><rect fill="#EBF5FB" height="5" style="stroke:#3498DB;stroke-width:3.75;" width="10" x="2231.25" y="451.6016"/><text fill="#000000" font-family="sans-serif" font-size="35" lengthAdjust="spacing" textLength="305" x="1918.75" y="510.4346">Specific Application</text><!--MD5=[38bfa9dc6018363cafe15f923a4b8db9]
entity service--><rect fill="#FEFECE" height="163.0469" style="stroke:#D4AC0D;stroke-width:3.75;" width="612.5" x="1727.5" y="694.1016"/><rect fill="#FEFECE" height="25" style="stroke:#D4AC0D;stroke-width:3.75;" width="37.5" x="2290" y="706.6016"/><rect fill="#FEFECE" height="5" style="stroke:#D4AC0D;stroke-width:3.75;" width="10" x="2285" y="711.6016"/><rect fill="#FEFECE" height="5" style="stroke:#D4AC0D;stroke-width:3.75;" width="10" x="2285" y="721.6016"/><text fill="#000000" font-family="sans-serif" font-size="35" font-weight="bold" lengthAdjust="spacing" textLength="345" x="1765" y="780.4346">keyple-java-service</text><text fill="#000000" font-family="sans-serif" font-size="35" lengthAdjust="spacing" textLength="57.5" x="1765" y="824.458">use</text><text fill="#000000" filter="url(#bzqd330d41wwz0)" font-family="sans-serif" font-size="35" font-weight="bold" lengthAdjust="spacing" textLength="445" x="1832.5" y="824.458">keyple-java-commons-api</text><!--MD5=[8e6a9284dc1da0ef8b54fdd8dc5bfba7]
entity plugin--><rect fill="#FDEDEC" height="163.0469" style="stroke:#E74C3C;stroke-width:3.75;" width="612.5" x="272.5" y="694.1016"/><rect fill="#FDEDEC" height="25" style="stroke:#E74C3C;stroke-width:3.75;" width="37.5" x="835" y="706.6016"/><rect fill="#FDEDEC" height="5" style="stroke:#E74C3C;stroke-width:3.75;" width="10" x="830" y="711.6016"/><rect fill="#FDEDEC" height="5" style="stroke:#E74C3C;stroke-width:3.75;" width="10" x="830" y="721.6016"/><text fill="#000000" font-family="sans-serif" font-size="35" lengthAdjust="spacing" textLength="390" x="310" y="780.4346">Specific Plugin (PCSC...)</text><text fill="#000000" font-family="sans-serif" font-size="35" lengthAdjust="spacing" textLength="57.5" x="310" y="824.458">use</text><text fill="#000000" filter="url(#bzqd330d41wwz0)" font-family="sans-serif" font-size="35" font-weight="bold" lengthAdjust="spacing" textLength="445" x="377.5" y="824.458">keyple-java-commons-api</text><!--MD5=[535f43d417660373b2263710d106a2e4]
entity extension--><rect fill="#E9F7EF" height="163.0469" style="stroke:#27AE60;stroke-width:3.75;" width="665" x="973.75" y="694.1016"/><rect fill="#E9F7EF" height="25" style="stroke:#27AE60;stroke-width:3.75;" width="37.5" x="1588.75" y="706.6016"/><rect fill="#E9F7EF" height="5" style="stroke:#27AE60;stroke-width:3.75;" width="10" x="1583.75" y="711.6016"/><rect fill="#E9F7EF" height="5" style="stroke:#27AE60;stroke-width:3.75;" width="10" x="1583.75" y="721.6016"/><text fill="#000000" font-family="sans-serif" font-size="35" lengthAdjust="spacing" textLength="565" x="1011.25" y="780.4346">Specific Card Extension (Calypso...)</text><text fill="#000000" font-family="sans-serif" font-size="35" lengthAdjust="spacing" textLength="57.5" x="1011.25" y="824.458">use</text><text fill="#000000" filter="url(#bzqd330d41wwz0)" font-family="sans-serif" font-size="35" font-weight="bold" lengthAdjust="spacing" textLength="445" x="1078.75" y="824.458">keyple-java-commons-api</text><!--MD5=[d4fd26f9614fa07fe76bdcffa998e3d3]
entity local--><rect fill="#F4ECF7" height="163.0469" style="stroke:#8E44AD;stroke-width:3.75;" width="612.5" x="3157.5" y="694.1016"/><rect fill="#F4ECF7" height="25" style="stroke:#8E44AD;stroke-width:3.75;" width="37.5" x="3720" y="706.6016"/><rect fill="#F4ECF7" height="5" style="stroke:#8E44AD;stroke-width:3.75;" width="10" x="3715" y="711.6016"/><rect fill="#F4ECF7" height="5" style="stroke:#8E44AD;stroke-width:3.75;" width="10" x="3715" y="721.6016"/><text fill="#000000" font-family="sans-serif" font-size="35" font-weight="bold" lengthAdjust="spacing" textLength="500" x="3195" y="780.4346">keyple-java-distributed-local</text><text fill="#000000" font-family="sans-serif" font-size="35" lengthAdjust="spacing" textLength="57.5" x="3195" y="824.458">use</text><text fill="#000000" filter="url(#bzqd330d41wwz0)" font-family="sans-serif" font-size="35" font-weight="bold" lengthAdjust="spacing" textLength="445" x="3262.5" y="824.458">keyple-java-commons-api</text><!--MD5=[57220784cd10fd02b95ed95124c16164]
entity network--><rect fill="#F4ECF7" height="119.0234" style="stroke:#8E44AD;stroke-width:3.75;" width="660" x="2426.25" y="424.1016"/><rect fill="#F4ECF7" height="25" style="stroke:#8E44AD;stroke-width:3.75;" width="37.5" x="3036.25" y="436.6016"/><rect fill="#F4ECF7" height="5" style="stroke:#8E44AD;stroke-width:3.75;" width="10" x="3031.25" y="441.6016"/><rect fill="#F4ECF7" height="5" style="stroke:#8E44AD;stroke-width:3.75;" width="10" x="3031.25" y="451.6016"/><text fill="#000000" font-family="sans-serif" font-size="35" font-weight="bold" lengthAdjust="spacing" textLength="560" x="2463.75" y="510.4346">keyple-java-distributed-network</text><!--MD5=[200d7cc177ce404b822df68e5d127056]
entity remote--><rect fill="#F4ECF7" height="163.0469" style="stroke:#8E44AD;stroke-width:3.75;" width="642.5" x="2427.5" y="694.1016"/><rect fill="#F4ECF7" height="25" style="stroke:#8E44AD;stroke-width:3.75;" width="37.5" x="3020" y="706.6016"/><rect fill="#F4ECF7" height="5" style="stroke:#8E44AD;stroke-width:3.75;" width="10" x="3015" y="711.6016"/><rect fill="#F4ECF7" height="5" style="stroke:#8E44AD;stroke-width:3.75;" width="10" x="3015" y="721.6016"/><text fill="#000000" font-family="sans-serif" font-size="35" font-weight="bold" lengthAdjust="spacing" textLength="542.5" x="2465" y="780.4346">keyple-java-distributed-remote</text><text fill="#000000" font-family="sans-serif" font-size="35" lengthAdjust="spacing" textLength="57.5" x="2465" y="824.458">use</text><text fill="#000000" filter="url(#bzqd330d41wwz0)" font-family="sans-serif" font-size="35" font-weight="bold" lengthAdjust="spacing" textLength="445" x="2532.5" y="824.458">keyple-java-commons-api</text><!--MD5=[c91beeae9d23cda8fa2ee4b23a5f449e]
entity pluginApi--><rect fill="#FEFECE" height="119.0234" style="stroke:#D4AC0D;stroke-width:3.75;" width="487.5" x="742.5" y="1167.8516"/><rect fill="#FEFECE" height="25" style="stroke:#D4AC0D;stroke-width:3.75;" width="37.5" x="1180" y="1180.3516"/><rect fill="#FEFECE" height="5" style="stroke:#D4AC0D;stroke-width:3.75;" width="10" x="1175" y="1185.3516"/><rect fill="#FEFECE" height="5" style="stroke:#D4AC0D;stroke-width:3.75;" width="10" x="1175" y="1195.3516"/><text fill="#000000" font-family="sans-serif" font-size="35" font-weight="bold" lengthAdjust="spacing" textLength="387.5" x="780" y="1254.1846">keyple-java-plugin-api</text><!--MD5=[f74f7ef7641fa41957945dcfb119390e]
entity cardApi--><rect fill="#FEFECE" height="163.0469" style="stroke:#D4AC0D;stroke-width:3.75;" width="612.5" x="1317.5" y="1146.6016"/><rect fill="#FEFECE" height="25" style="stroke:#D4AC0D;stroke-width:3.75;" width="37.5" x="1880" y="1159.1016"/><rect fill="#FEFECE" height="5" style="stroke:#D4AC0D;stroke-width:3.75;" width="10" x="1875" y="1164.1016"/><rect fill="#FEFECE" height="5" style="stroke:#D4AC0D;stroke-width:3.75;" width="10" x="1875" y="1174.1016"/><text fill="#000000" font-family="sans-serif" font-size="35" font-weight="bold" lengthAdjust="spacing" textLength="355" x="1355" y="1232.9346">keyple-java-card-api</text><text fill="#000000" font-family="sans-serif" font-size="35" lengthAdjust="spacing" textLength="57.5" x="1355" y="1276.958">use</text><text fill="#000000" filter="url(#bzqd330d41wwz0)" font-family="sans-serif" font-size="35" font-weight="bold" lengthAdjust="spacing" textLength="445" x="1422.5" y="1276.958">keyple-java-commons-api</text><!--MD5=[7befd9ad872e32f647489e758c0991a9]
entity distributedLocalApi--><rect fill="#FEFECE" height="163.0469" style="stroke:#D4AC0D;stroke-width:3.75;" width="665" x="2813.75" y="1146.6016"/><rect fill="#FEFECE" height="25" style="stroke:#D4AC0D;stroke-width:3.75;" width="37.5" x="3428.75" y="1159.1016"/><rect fill="#FEFECE" height="5" style="stroke:#D4AC0D;stroke-width:3.75;" width="10" x="3423.75" y="1164.1016"/><rect fill="#FEFECE" height="5" style="stroke:#D4AC0D;stroke-width:3.75;" width="10" x="3423.75" y="1174.1016"/><text fill="#000000" font-family="sans-serif" font-size="35" font-weight="bold" lengthAdjust="spacing" textLength="565" x="2851.25" y="1232.9346">keyple-java-distributed-local-api</text><text fill="#000000" font-family="sans-serif" font-size="35" lengthAdjust="spacing" textLength="57.5" x="2851.25" y="1276.958">use</text><text fill="#000000" filter="url(#bzqd330d41wwz0)" font-family="sans-serif" font-size="35" font-weight="bold" lengthAdjust="spacing" textLength="445" x="2918.75" y="1276.958">keyple-java-commons-api</text><!--MD5=[04ffbea9664a4d8b3a5d5b2bcefdf330]
entity distributedRemoteApi--><rect fill="#FEFECE" height="119.0234" style="stroke:#D4AC0D;stroke-width:3.75;" width="707.5" x="2017.5" y="1167.8516"/><rect fill="#FEFECE" height="25" style="stroke:#D4AC0D;stroke-width:3.75;" width="37.5" x="2675" y="1180.3516"/><rect fill="#FEFECE" height="5" style="stroke:#D4AC0D;stroke-width:3.75;" width="10" x="2670" y="1185.3516"/><rect fill="#FEFECE" height="5" style="stroke:#D4AC0D;stroke-width:3.75;" width="10" x="2670" y="1195.3516"/><text fill="#000000" font-family="sans-serif" font-size="35" font-weight="bold" lengthAdjust="spacing" textLength="607.5" x="2055" y="1254.1846">keyple-java-distributed-remote-api</text><!--MD5=[fd35d086f3360a91061ab5b89379d40a]
entity util--><rect fill="#FEFECE" height="119.0234" style="stroke:#D4AC0D;stroke-width:3.75;" width="387.5" x="17.5" y="74.1016"/><rect fill="#FEFECE" height="25" style="stroke:#D4AC0D;stroke-width:3.75;" width="37.5" x="355" y="86.6016"/><rect fill="#FEFECE" height="5" style="stroke:#D4AC0D;stroke-width:3.75;" width="10" x="350" y="91.6016"/><rect fill="#FEFECE" height="5" style="stroke:#D4AC0D;stroke-width:3.75;" width="10" x="350" y="101.6016"/><text fill="#000000" font-family="sans-serif" font-size="35" font-weight="bold" lengthAdjust="spacing" textLength="287.5" x="55" y="160.4346">keyple-java-utils</text><!--MD5=[2aaab67f118e87aa91a4fe667771ad2c]
link application to plugin--><path d="M1880.2775,542.1341 C1877.25,542.8041 1874.24,543.4616 1871.25,544.1016 C1456.5,632.9541 1345.3125,614.1741 928.75,694.1016 C918.8575,695.9991 908.82,697.9716 898.6925,700.0016 " fill="none" id="application-to-plugin" style="stroke:#3498DB;stroke-width:2.5;"/><polygon fill="#3498DB" points="885.82,702.6016,909.8563,707.9409,898.0717,700.1226,905.89,688.3381,885.82,702.6016" style="stroke:#3498DB;stroke-width:2.5;"/><!--MD5=[3e74ac74fdcdfc5064d05984678346c7]
link application to service--><path d="M2073.6325,544.5291 C2066.7975,583.6516 2057.6325,636.1291 2049.81,680.9091 " fill="none" id="application-to-service" style="stroke:#3498DB;stroke-width:2.5;"/><polygon fill="#3498DB" points="2047.6425,693.3166,2061.3643,672.8724,2049.793,681.0029,2041.6625,669.4316,2047.6425,693.3166" style="stroke:#3498DB;stroke-width:2.5;"/><!--MD5=[a7759acb4cc58629cc6ce6f72b51fab6]
link application to extension--><path d="M1927.3475,544.1841 C1814.15,585.8591 1659.4425,642.8191 1532.75,689.4616 " fill="none" id="application-to-extension" style="stroke:#3498DB;stroke-width:2.5;"/><polygon fill="#3498DB" points="1520.58,693.9416,1545.1494,695.5525,1532.3103,689.6231,1538.2398,676.784,1520.58,693.9416" style="stroke:#3498DB;stroke-width:2.5;"/><!--MD5=[046f6ae6203124f84c131388280c948c]
link application to local--><path d="M2286.3075,526.0091 C2494.22,566.7866 2826.975,632.9591 3113.75,694.1016 C3124.05,696.2941 3134.5,698.5416 3145.05,700.8266 " fill="none" id="application-to-local" style="stroke:#3498DB;stroke-width:2.5;"/><polygon fill="#3498DB" points="3157.475,703.5216,3137.6393,688.934,3145.2651,700.844,3133.3552,708.4698,3157.475,703.5216" style="stroke:#3498DB;stroke-width:2.5;"/><!--MD5=[4154da97319af6ee8de72a8c460b84b7]
reverse link network to application--><path d="M2413.015,484.1016 C2370.905,484.1016 2328.7925,484.1016 2286.6825,484.1016 " fill="none" id="network-backto-application" style="stroke:#3498DB;stroke-width:2.5;"/><polygon fill="#3498DB" points="2426.085,484.1016,2403.585,474.1016,2413.585,484.1016,2403.585,494.1016,2426.085,484.1016" style="stroke:#3498DB;stroke-width:2.5;"/><!--MD5=[857646e20610b5e7f2f3841a40697034]
link application to remote--><path d="M2217.5225,544.1841 C2313.95,585.6916 2445.5975,642.3591 2553.7,688.8966 " fill="none" id="application-to-remote" style="stroke:#3498DB;stroke-width:2.5;"/><polygon fill="#3498DB" points="2565.425,693.9416,2548.6936,675.8775,2553.9385,689.0111,2540.8049,694.256,2565.425,693.9416" style="stroke:#3498DB;stroke-width:2.5;"/><!--MD5=[b84145f68a9638efe3b1cde23adb3c4f]
link extension to cardApi--><path d="M1362.2825,856.8266 C1417.6525,934.8691 1502.2425,1054.0941 1560.1175,1135.6641 " fill="none" id="extension-to-cardApi" style="stroke:#27AE60;stroke-width:2.5;"/><polygon fill="#27AE60" points="1567.745,1146.4158,1562.8806,1122.279,1560.5117,1136.2213,1546.5693,1133.8523,1567.745,1146.4158" style="stroke:#27AE60;stroke-width:2.5;"/><!--MD5=[fabadde203f6882db6cc8cc1a1329160]
link extension to service--><path d="M1639.45,775.3516 C1664.37,775.3516 1689.2925,775.3516 1714.2125,775.3516 " fill="none" id="extension-to-service" style="stroke:#27AE60;stroke-width:2.5;"/><polygon fill="#27AE60" points="1727.245,775.3516,1704.745,765.3516,1714.745,775.3516,1704.745,785.3516,1727.245,775.3516" style="stroke:#27AE60;stroke-width:2.5;"/><!--MD5=[e41df91f541512673a0e31599b8ee993]
link plugin to pluginApi--><path d="M650.665,856.8266 C728.61,942.4216 851.6625,1077.5541 925.1125,1158.2141 " fill="none" id="plugin-to-pluginApi" style="stroke:#E74C3C;stroke-width:2.5;"/><polygon fill="#E74C3C" points="933.82,1167.7738,926.0656,1144.4046,925.4042,1158.5313,911.2776,1157.8699,933.82,1167.7738" style="stroke:#E74C3C;stroke-width:2.5;"/><!--MD5=[dd1eccd1e7426faad07553cf68d2ac5f]
link service to pluginApi--><path d="M1946.9425,856.7766 C1879.7475,912.5591 1781.5075,983.1341 1681.25,1016.6016 C1509.25,1074.0166 1446.1575,980.4241 1273.75,1036.6016 C1194.6525,1062.3741 1116.4925,1116.0041 1061.68,1159.5323 " fill="none" id="service-to-pluginApi" style="stroke:#D4AC0D;stroke-width:2.5;"/><polygon fill="#D4AC0D" points="1051.72,1167.5336,1075.5235,1161.2373,1061.4647,1159.7047,1062.9973,1145.6458,1051.72,1167.5336" style="stroke:#D4AC0D;stroke-width:2.5;"/><!--MD5=[2523936cee4f99c1b1f73b34e1a6b0f7]
link service to cardApi--><path d="M1961.395,856.8266 C1889.6,935.1866 1779.765,1055.0666 1705.01,1136.6616 " fill="none" id="service-to-cardApi" style="stroke:#D4AC0D;stroke-width:2.5;"/><polygon fill="#D4AC0D" points="1696.07,1146.4158,1718.6437,1136.5833,1704.515,1137.2,1703.8983,1123.0713,1696.07,1146.4158" style="stroke:#D4AC0D;stroke-width:2.5;"/><!--MD5=[911ff9493972b9d616a6a191b3acdad0]
link service to distributedRemoteApi--><path d="M2093.3125,856.8266 C2157.605,942.0716 2258.955,1076.4541 2319.8725,1157.2278 " fill="none" id="service-to-distributedRemoteApi" style="stroke:#D4AC0D;stroke-width:2.5;"/><polygon fill="#D4AC0D" points="2327.825,1167.7738,2322.2633,1143.788,2320.2993,1157.7931,2306.2942,1155.8291,2327.825,1167.7738" style="stroke:#D4AC0D;stroke-width:2.5;"/><!--MD5=[35229a0a0734c85a6b51f1905fa13c02]
link service to distributedLocalApi--><path d="M2120.59,856.6816 C2187.7975,912.4166 2286.045,982.9741 2386.25,1016.6016 C2466.9425,1043.6816 2686.45,1014.8891 2768.75,1036.6016 C2853.15,1058.8691 2940.75,1101.2841 3010.275,1140.2748 " fill="none" id="service-to-distributedLocalApi" style="stroke:#D4AC0D;stroke-width:2.5;"/><polygon fill="#D4AC0D" points="3021.3,1146.4996,3006.6734,1126.6927,3010.4306,1140.3266,2996.7967,1144.0838,3021.3,1146.4996" style="stroke:#D4AC0D;stroke-width:2.5;"/><!--MD5=[6b8af92c48757bac50848b7abb7c7576]
reverse link network to local--><path d="M2910.575,549.0391 C3015.75,591.5891 3155.825,648.2691 3268.725,693.9416 " fill="none" id="network-backto-local" style="stroke:#8E44AD;stroke-width:2.5;"/><polygon fill="#8E44AD" points="2898.575,544.1841,2915.6956,561.8797,2910.1661,548.8634,2923.1825,543.3339,2898.575,544.1841" style="stroke:#8E44AD;stroke-width:2.5;"/><!--MD5=[f8b0df4bff9d8c01b39b5fe2d94c34a6]
link local to distributedLocalApi--><path d="M3407.725,856.8266 C3352.35,934.8691 3267.75,1054.0941 3209.875,1135.6641 " fill="none" id="local-to-distributedLocalApi" style="stroke:#8E44AD;stroke-width:2.5;"/><polygon fill="#8E44AD" points="3202.25,1146.4158,3223.434,1133.8663,3209.4901,1136.2261,3207.1304,1122.2822,3202.25,1146.4158" style="stroke:#8E44AD;stroke-width:2.5;"/><!--MD5=[eaffbedb458b00db5e9113ca809c1ddf]
reverse link network to remote--><path d="M2754.375,558.0366 C2753.3,599.1516 2751.95,650.9091 2750.825,693.3166 " fill="none" id="network-backto-remote" style="stroke:#8E44AD;stroke-width:2.5;"/><polygon fill="#8E44AD" points="2754.725,544.5291,2744.1372,566.7585,2754.3965,557.0247,2764.1303,567.2841,2754.725,544.5291" style="stroke:#8E44AD;stroke-width:2.5;"/><!--MD5=[167487473dec959b258d2eb14d4f8ae2]
link remote to distributedRemoteApi--><path d="M2682.125,856.8266 C2609.925,942.4216 2495.93,1077.5541 2427.885,1158.2141 " fill="none" id="remote-to-distributedRemoteApi" style="stroke:#8E44AD;stroke-width:2.5;"/><polygon fill="#8E44AD" points="2419.82,1167.7738,2441.972,1157.0248,2427.8804,1158.2198,2426.6855,1144.1282,2419.82,1167.7738" style="stroke:#8E44AD;stroke-width:2.5;"/><!--MD5=[109eb4672719e4a56f32411882888b63]
reverse link util to packMain--><path d="M211.25,207.2766 C211.25,219.6878 211.25,233.1945 211.25,247.3396 C211.25,249.1077 211.25,250.8858 211.25,252.673 C211.25,253.1198 211.25,253.5672 211.25,254.0151 " fill="none" id="util-backto-packMain" style="stroke:#A80036;stroke-width:2.5;"/><polygon fill="#A80036" points="211.25,194.3466,201.25,216.8466,211.25,206.8466,221.25,216.8466,211.25,194.3466" style="stroke:#A80036;stroke-width:2.5;"/><!--MD5=[78357df8bfb07c7aa12e614442f98ec1]
@startuml
title
    Keyple 2.0 - Modules dependencies - 19/02/2021
end title

' == THEME ==

'Couleurs issues de : https://htmlcolorcodes.com/fr/tableau-de-couleur/tableau-de-couleur-design-plat/
!define C_GREY1 F8F9F9
!define COLOR_YELLOW D4AC0D
!define COLOR_RED E74C3C
!define COLOR_PURPLE 8E44AD
!define COLOR_BLUE 3498DB
!define COLOR_GREEN 27AE60
!define COLOR_GREY 2C3E50
skinparam Shadowing false
skinparam component {
    BorderColor #D4AC0D
    ' Red
    BackgroundColor<<red>> #FDEDEC
    BorderColor<<red>> #E74C3C
    ' Purple
    BackgroundColor<<purple>> #F4ECF7
    BorderColor<<purple>> #8E44AD
    ' blue
    BackgroundColor<<blue>> #EBF5FB
    BorderColor<<blue>> #3498DB
    ' Green
    BackgroundColor<<green>> #E9F7EF
    BorderColor<<green>> #27AE60
    ' Grey
    BackgroundColor<<grey>> #EAECEE
    BorderColor<<grey>> #2C3E50
}
skinparam interface {
    BorderColor #D4AC0D
    ' Red
    BackgroundColor<<red>> #FDEDEC
    BorderColor<<red>> #E74C3C
    ' Purple
    BackgroundColor<<purple>> #F4ECF7
    BorderColor<<purple>> #8E44AD
    ' blue
    BackgroundColor<<blue>> #EBF5FB
    BorderColor<<blue>> #3498DB
    ' Green
    BackgroundColor<<green>> #E9F7EF
    BorderColor<<green>> #27AE60
    ' Grey
    BackgroundColor<<grey>> #EAECEE
    BorderColor<<grey>> #2C3E50
}
hide <<red>> stereotype
hide <<purple>> stereotype
hide <<blue>> stereotype
hide <<green>> stereotype
hide <<grey>> stereotype

' == COMPONENTS ==

package "Components having adapters" as packMain #C_GREY1 {
    [Specific Application] as application <<blue>>
    [**keyple-java-service**\nuse <back:cyan>**keyple-java-commons-api**</back>] as service
    [Specific Plugin (PCSC...)\nuse <back:cyan>**keyple-java-commons-api**</back>] as plugin <<red>>
    [Specific Card Extension (Calypso...)\nuse <back:cyan>**keyple-java-commons-api**</back>] as extension <<green>>
    together {
        [**keyple-java-distributed-local**\nuse <back:cyan>**keyple-java-commons-api**</back>] as local <<purple>>
        [**keyple-java-distributed-network**] as network <<purple>>
        [**keyple-java-distributed-remote**\nuse <back:cyan>**keyple-java-commons-api**</back>] as remote <<purple>>
    }
}
package "Keyple Internal APIs/SPIs (hidden for the specific application)" as packApi #C_GREY1 {
    [**keyple-java-plugin-api**] as pluginApi
    [**keyple-java-card-api**\nuse <back:cyan>**keyple-java-commons-api**</back>] as cardApi
    [**keyple-java-distributed-local-api**\nuse <back:cyan>**keyple-java-commons-api**</back>] as distributedLocalApi
    [**keyple-java-distributed-remote-api**] as distributedRemoteApi
}
[**keyple-java-utils**] as util

' == ASSOCIATIONS ==

application - -> plugin #COLOR_BLUE
application - -> service #COLOR_BLUE
application - -> extension #COLOR_BLUE
application - -> local #COLOR_BLUE
application -left-> network #COLOR_BLUE
application - -> remote #COLOR_BLUE

extension - -> cardApi #COLOR_GREEN
extension -right-> service #COLOR_GREEN

plugin - -> pluginApi #COLOR_RED

service - -> pluginApi #COLOR_YELLOW
service - -> cardApi #COLOR_YELLOW
service - -> distributedRemoteApi #COLOR_YELLOW
service - -> distributedLocalApi #COLOR_YELLOW

local -up-> network #COLOR_PURPLE
local - -> distributedLocalApi #COLOR_PURPLE

remote -up-> network #COLOR_PURPLE
remote - -> distributedRemoteApi #COLOR_PURPLE

packMain -up-> util

' == LAYOUT ==

@enduml

@startuml
title
    Keyple 2.0 - Modules dependencies - 19/02/2021
end title


skinparam Shadowing false
skinparam component {
    BorderColor #D4AC0D
    BackgroundColor<<red>> #FDEDEC
    BorderColor<<red>> #E74C3C
    BackgroundColor<<purple>> #F4ECF7
    BorderColor<<purple>> #8E44AD
    BackgroundColor<<blue>> #EBF5FB
    BorderColor<<blue>> #3498DB
    BackgroundColor<<green>> #E9F7EF
    BorderColor<<green>> #27AE60
    BackgroundColor<<grey>> #EAECEE
    BorderColor<<grey>> #2C3E50
}
skinparam interface {
    BorderColor #D4AC0D
    BackgroundColor<<red>> #FDEDEC
    BorderColor<<red>> #E74C3C
    BackgroundColor<<purple>> #F4ECF7
    BorderColor<<purple>> #8E44AD
    BackgroundColor<<blue>> #EBF5FB
    BorderColor<<blue>> #3498DB
    BackgroundColor<<green>> #E9F7EF
    BorderColor<<green>> #27AE60
    BackgroundColor<<grey>> #EAECEE
    BorderColor<<grey>> #2C3E50
}
hide <<red>> stereotype
hide <<purple>> stereotype
hide <<blue>> stereotype
hide <<green>> stereotype
hide <<grey>> stereotype


package "Components having adapters" as packMain #F8F9F9 {
    [Specific Application] as application <<blue>>
    [**keyple-java-service**\nuse <back:cyan>**keyple-java-commons-api**</back>] as service
    [Specific Plugin (PCSC...)\nuse <back:cyan>**keyple-java-commons-api**</back>] as plugin <<red>>
    [Specific Card Extension (Calypso...)\nuse <back:cyan>**keyple-java-commons-api**</back>] as extension <<green>>
    together {
        [**keyple-java-distributed-local**\nuse <back:cyan>**keyple-java-commons-api**</back>] as local <<purple>>
        [**keyple-java-distributed-network**] as network <<purple>>
        [**keyple-java-distributed-remote**\nuse <back:cyan>**keyple-java-commons-api**</back>] as remote <<purple>>
    }
}
package "Keyple Internal APIs/SPIs (hidden for the specific application)" as packApi #F8F9F9 {
    [**keyple-java-plugin-api**] as pluginApi
    [**keyple-java-card-api**\nuse <back:cyan>**keyple-java-commons-api**</back>] as cardApi
    [**keyple-java-distributed-local-api**\nuse <back:cyan>**keyple-java-commons-api**</back>] as distributedLocalApi
    [**keyple-java-distributed-remote-api**] as distributedRemoteApi
}
[**keyple-java-utils**] as util


application - -> plugin #3498DB
application - -> service #3498DB
application - -> extension #3498DB
application - -> local #3498DB
application -left-> network #3498DB
application - -> remote #3498DB

extension - -> cardApi #27AE60
extension -right-> service #27AE60

plugin - -> pluginApi #E74C3C

service - -> pluginApi #D4AC0D
service - -> cardApi #D4AC0D
service - -> distributedRemoteApi #D4AC0D
service - -> distributedLocalApi #D4AC0D

local -up-> network #8E44AD
local - -> distributedLocalApi #8E44AD

remote -up-> network #8E44AD
remote - -> distributedRemoteApi #8E44AD

packMain -up-> util


@enduml

PlantUML version 1.2021.01(Tue Feb 02 08:55:08 CET 2021)
(GPL source distribution)
Java Runtime: OpenJDK Runtime Environment
JVM: OpenJDK 64-Bit Server VM
Default Encoding: Cp1252
Language: fr
Country: FR
--></g></svg>