<?xml version="1.0" encoding="UTF-8" standalone="no"?><svg xmlns="http://www.w3.org/2000/svg" xmlns:xlink="http://www.w3.org/1999/xlink" contentScriptType="application/ecmascript" contentStyleType="text/css" height="1305px" preserveAspectRatio="none" style="width:4152px;height:1305px;" version="1.1" viewBox="0 0 4152 1305" width="4152.5px" zoomAndPan="magnify"><defs><filter height="1" id="ba71wgr8ds7eg0" width="1" x="0" y="0"><feFlood flood-color="#00FFFF" result="flood"/><feComposite in="SourceGraphic" in2="flood" operator="over"/></filter></defs><g><text fill="#000000" font-family="sans-serif" font-size="45" lengthAdjust="spacing" textLength="980" x="1570.625" y="46.7139">Keyple 2.0 - Modules dependencies - 05/02/2021</text><!--MD5=[fa748c0050d71d88d66b284603ec55cc]
cluster packMain--><polygon fill="#FFFFFF" points="148.75,254.1016,681.25,254.1016,698.75,313.125,4111.25,313.125,4111.25,916.6016,148.75,916.6016,148.75,254.1016" style="stroke:#000000;stroke-width:3.75;"/><line style="stroke:#000000;stroke-width:3.75;" x1="148.75" x2="698.75" y1="313.125" y2="313.125"/><text fill="#000000" font-family="sans-serif" font-size="35" font-weight="bold" lengthAdjust="spacing" textLength="517.5" x="158.75" y="295.4346">Components having adapters</text><!--MD5=[0ce6da3c2c739942a6dbf20c6d0899b1]
cluster Keyple Internal APIs/SPIs (hidden for the specific application)--><polygon fill="#FFFFFF" points="593.75,996.6016,1678.75,996.6016,1696.25,1055.625,3073.75,1055.625,3073.75,1289.1016,593.75,1289.1016,593.75,996.6016" style="stroke:#000000;stroke-width:3.75;"/><line style="stroke:#000000;stroke-width:3.75;" x1="593.75" x2="1696.25" y1="1055.625" y2="1055.625"/><text fill="#000000" font-family="sans-serif" font-size="35" font-weight="bold" lengthAdjust="spacing" textLength="1070" x="603.75" y="1037.9346">Keyple Internal APIs/SPIs (hidden for the specific application)</text><!--MD5=[37c33c71ce9550fe283f62c54b59719b]
entity application--><rect fill="#EBF5FB" height="119.0234" style="stroke:#3498DB;stroke-width:3.75;" width="405" x="2001.25" y="364.1016"/><rect fill="#EBF5FB" height="25" style="stroke:#3498DB;stroke-width:3.75;" width="37.5" x="2356.25" y="376.6016"/><rect fill="#EBF5FB" height="5" style="stroke:#3498DB;stroke-width:3.75;" width="10" x="2351.25" y="381.6016"/><rect fill="#EBF5FB" height="5" style="stroke:#3498DB;stroke-width:3.75;" width="10" x="2351.25" y="391.6016"/><text fill="#000000" font-family="sans-serif" font-size="35" lengthAdjust="spacing" textLength="305" x="2038.75" y="450.4346">Specific Application</text><!--MD5=[38bfa9dc6018363cafe15f923a4b8db9]
entity service--><rect fill="#FEFECE" height="163.0469" style="stroke:#D4AC0D;stroke-width:3.75;" width="527.5" x="982.5" y="634.1016"/><rect fill="#FEFECE" height="25" style="stroke:#D4AC0D;stroke-width:3.75;" width="37.5" x="1460" y="646.6016"/><rect fill="#FEFECE" height="5" style="stroke:#D4AC0D;stroke-width:3.75;" width="10" x="1455" y="651.6016"/><rect fill="#FEFECE" height="5" style="stroke:#D4AC0D;stroke-width:3.75;" width="10" x="1455" y="661.6016"/><text fill="#000000" font-family="sans-serif" font-size="35" font-weight="bold" lengthAdjust="spacing" textLength="260" x="1020" y="720.4346">keyple-service</text><text fill="#000000" font-family="sans-serif" font-size="35" lengthAdjust="spacing" textLength="57.5" x="1020" y="764.458">use</text><text fill="#000000" filter="url(#ba71wgr8ds7eg0)" font-family="sans-serif" font-size="35" font-weight="bold" lengthAdjust="spacing" textLength="360" x="1087.5" y="764.458">keyple-commons-api</text><!--MD5=[8e6a9284dc1da0ef8b54fdd8dc5bfba7]
entity plugin--><rect fill="#FDEDEC" height="163.0469" style="stroke:#E74C3C;stroke-width:3.75;" width="527.5" x="3522.5" y="634.1016"/><rect fill="#FDEDEC" height="25" style="stroke:#E74C3C;stroke-width:3.75;" width="37.5" x="4000" y="646.6016"/><rect fill="#FDEDEC" height="5" style="stroke:#E74C3C;stroke-width:3.75;" width="10" x="3995" y="651.6016"/><rect fill="#FDEDEC" height="5" style="stroke:#E74C3C;stroke-width:3.75;" width="10" x="3995" y="661.6016"/><text fill="#000000" font-family="sans-serif" font-size="35" lengthAdjust="spacing" textLength="390" x="3560" y="720.4346">Specific Plugin (PCSC...)</text><text fill="#000000" font-family="sans-serif" font-size="35" lengthAdjust="spacing" textLength="57.5" x="3560" y="764.458">use</text><text fill="#000000" filter="url(#ba71wgr8ds7eg0)" font-family="sans-serif" font-size="35" font-weight="bold" lengthAdjust="spacing" textLength="360" x="3627.5" y="764.458">keyple-commons-api</text><!--MD5=[535f43d417660373b2263710d106a2e4]
entity extension--><rect fill="#E9F7EF" height="163.0469" style="stroke:#27AE60;stroke-width:3.75;" width="665" x="228.75" y="634.1016"/><rect fill="#E9F7EF" height="25" style="stroke:#27AE60;stroke-width:3.75;" width="37.5" x="843.75" y="646.6016"/><rect fill="#E9F7EF" height="5" style="stroke:#27AE60;stroke-width:3.75;" width="10" x="838.75" y="651.6016"/><rect fill="#E9F7EF" height="5" style="stroke:#27AE60;stroke-width:3.75;" width="10" x="838.75" y="661.6016"/><text fill="#000000" font-family="sans-serif" font-size="35" lengthAdjust="spacing" textLength="565" x="266.25" y="720.4346">Specific Card Extension (Calypso...)</text><text fill="#000000" font-family="sans-serif" font-size="35" lengthAdjust="spacing" textLength="57.5" x="266.25" y="764.458">use</text><text fill="#000000" filter="url(#ba71wgr8ds7eg0)" font-family="sans-serif" font-size="35" font-weight="bold" lengthAdjust="spacing" textLength="360" x="333.75" y="764.458">keyple-commons-api</text><!--MD5=[d4fd26f9614fa07fe76bdcffa998e3d3]
entity local--><rect fill="#F4ECF7" height="163.0469" style="stroke:#8E44AD;stroke-width:3.75;" width="527.5" x="2907.5" y="634.1016"/><rect fill="#F4ECF7" height="25" style="stroke:#8E44AD;stroke-width:3.75;" width="37.5" x="3385" y="646.6016"/><rect fill="#F4ECF7" height="5" style="stroke:#8E44AD;stroke-width:3.75;" width="10" x="3380" y="651.6016"/><rect fill="#F4ECF7" height="5" style="stroke:#8E44AD;stroke-width:3.75;" width="10" x="3380" y="661.6016"/><text fill="#000000" font-family="sans-serif" font-size="35" font-weight="bold" lengthAdjust="spacing" textLength="415" x="2945" y="720.4346">keyple-distributed-local</text><text fill="#000000" font-family="sans-serif" font-size="35" lengthAdjust="spacing" textLength="57.5" x="2945" y="764.458">use</text><text fill="#000000" filter="url(#ba71wgr8ds7eg0)" font-family="sans-serif" font-size="35" font-weight="bold" lengthAdjust="spacing" textLength="360" x="3012.5" y="764.458">keyple-commons-api</text><!--MD5=[57220784cd10fd02b95ed95124c16164]
entity network--><rect fill="#F4ECF7" height="119.0234" style="stroke:#8E44AD;stroke-width:3.75;" width="575" x="2243.75" y="655.3516"/><rect fill="#F4ECF7" height="25" style="stroke:#8E44AD;stroke-width:3.75;" width="37.5" x="2768.75" y="667.8516"/><rect fill="#F4ECF7" height="5" style="stroke:#8E44AD;stroke-width:3.75;" width="10" x="2763.75" y="672.8516"/><rect fill="#F4ECF7" height="5" style="stroke:#8E44AD;stroke-width:3.75;" width="10" x="2763.75" y="682.8516"/><text fill="#000000" font-family="sans-serif" font-size="35" font-weight="bold" lengthAdjust="spacing" textLength="475" x="2281.25" y="741.6846">keyple-distributed-network</text><!--MD5=[200d7cc177ce404b822df68e5d127056]
entity remote--><rect fill="#F4ECF7" height="163.0469" style="stroke:#8E44AD;stroke-width:3.75;" width="557.5" x="1597.5" y="634.1016"/><rect fill="#F4ECF7" height="25" style="stroke:#8E44AD;stroke-width:3.75;" width="37.5" x="2105" y="646.6016"/><rect fill="#F4ECF7" height="5" style="stroke:#8E44AD;stroke-width:3.75;" width="10" x="2100" y="651.6016"/><rect fill="#F4ECF7" height="5" style="stroke:#8E44AD;stroke-width:3.75;" width="10" x="2100" y="661.6016"/><text fill="#000000" font-family="sans-serif" font-size="35" font-weight="bold" lengthAdjust="spacing" textLength="457.5" x="1635" y="720.4346">keyple-distributed-remote</text><text fill="#000000" font-family="sans-serif" font-size="35" lengthAdjust="spacing" textLength="57.5" x="1635" y="764.458">use</text><text fill="#000000" filter="url(#ba71wgr8ds7eg0)" font-family="sans-serif" font-size="35" font-weight="bold" lengthAdjust="spacing" textLength="360" x="1702.5" y="764.458">keyple-commons-api</text><!--MD5=[c91beeae9d23cda8fa2ee4b23a5f449e]
entity pluginApi--><rect fill="#FEFECE" height="119.0234" style="stroke:#D4AC0D;stroke-width:3.75;" width="402.5" x="2630" y="1107.8516"/><rect fill="#FEFECE" height="25" style="stroke:#D4AC0D;stroke-width:3.75;" width="37.5" x="2982.5" y="1120.3516"/><rect fill="#FEFECE" height="5" style="stroke:#D4AC0D;stroke-width:3.75;" width="10" x="2977.5" y="1125.3516"/><rect fill="#FEFECE" height="5" style="stroke:#D4AC0D;stroke-width:3.75;" width="10" x="2977.5" y="1135.3516"/><text fill="#000000" font-family="sans-serif" font-size="35" font-weight="bold" lengthAdjust="spacing" textLength="302.5" x="2667.5" y="1194.1846">keyple-plugin-api</text><!--MD5=[f74f7ef7641fa41957945dcfb119390e]
entity cardApi--><rect fill="#FEFECE" height="163.0469" style="stroke:#D4AC0D;stroke-width:3.75;" width="527.5" x="635" y="1086.6016"/><rect fill="#FEFECE" height="25" style="stroke:#D4AC0D;stroke-width:3.75;" width="37.5" x="1112.5" y="1099.1016"/><rect fill="#FEFECE" height="5" style="stroke:#D4AC0D;stroke-width:3.75;" width="10" x="1107.5" y="1104.1016"/><rect fill="#FEFECE" height="5" style="stroke:#D4AC0D;stroke-width:3.75;" width="10" x="1107.5" y="1114.1016"/><text fill="#000000" font-family="sans-serif" font-size="35" font-weight="bold" lengthAdjust="spacing" textLength="270" x="672.5" y="1172.9346">keyple-card-api</text><text fill="#000000" font-family="sans-serif" font-size="35" lengthAdjust="spacing" textLength="57.5" x="672.5" y="1216.958">use</text><text fill="#000000" filter="url(#ba71wgr8ds7eg0)" font-family="sans-serif" font-size="35" font-weight="bold" lengthAdjust="spacing" textLength="360" x="740" y="1216.958">keyple-commons-api</text><!--MD5=[7befd9ad872e32f647489e758c0991a9]
entity distributedLocalApi--><rect fill="#FEFECE" height="163.0469" style="stroke:#D4AC0D;stroke-width:3.75;" width="580" x="1961.25" y="1086.6016"/><rect fill="#FEFECE" height="25" style="stroke:#D4AC0D;stroke-width:3.75;" width="37.5" x="2491.25" y="1099.1016"/><rect fill="#FEFECE" height="5" style="stroke:#D4AC0D;stroke-width:3.75;" width="10" x="2486.25" y="1104.1016"/><rect fill="#FEFECE" height="5" style="stroke:#D4AC0D;stroke-width:3.75;" width="10" x="2486.25" y="1114.1016"/><text fill="#000000" font-family="sans-serif" font-size="35" font-weight="bold" lengthAdjust="spacing" textLength="480" x="1998.75" y="1172.9346">keyple-distributed-local-api</text><text fill="#000000" font-family="sans-serif" font-size="35" lengthAdjust="spacing" textLength="57.5" x="1998.75" y="1216.958">use</text><text fill="#000000" filter="url(#ba71wgr8ds7eg0)" font-family="sans-serif" font-size="35" font-weight="bold" lengthAdjust="spacing" textLength="360" x="2066.25" y="1216.958">keyple-commons-api</text><!--MD5=[04ffbea9664a4d8b3a5d5b2bcefdf330]
entity distributedRemoteApi--><rect fill="#FEFECE" height="119.0234" style="stroke:#D4AC0D;stroke-width:3.75;" width="622.5" x="1250" y="1107.8516"/><rect fill="#FEFECE" height="25" style="stroke:#D4AC0D;stroke-width:3.75;" width="37.5" x="1822.5" y="1120.3516"/><rect fill="#FEFECE" height="5" style="stroke:#D4AC0D;stroke-width:3.75;" width="10" x="1817.5" y="1125.3516"/><rect fill="#FEFECE" height="5" style="stroke:#D4AC0D;stroke-width:3.75;" width="10" x="1817.5" y="1135.3516"/><text fill="#000000" font-family="sans-serif" font-size="35" font-weight="bold" lengthAdjust="spacing" textLength="522.5" x="1287.5" y="1194.1846">keyple-distributed-remote-api</text><!--MD5=[815e17c207bbf712f7f26918c1feb6f8]
entity utils--><rect fill="#FEFECE" height="119.0234" style="stroke:#D4AC0D;stroke-width:3.75;" width="302.5" x="17.5" y="74.1016"/><rect fill="#FEFECE" height="25" style="stroke:#D4AC0D;stroke-width:3.75;" width="37.5" x="270" y="86.6016"/><rect fill="#FEFECE" height="5" style="stroke:#D4AC0D;stroke-width:3.75;" width="10" x="265" y="91.6016"/><rect fill="#FEFECE" height="5" style="stroke:#D4AC0D;stroke-width:3.75;" width="10" x="265" y="101.6016"/><text fill="#000000" font-family="sans-serif" font-size="35" font-weight="bold" lengthAdjust="spacing" textLength="202.5" x="55" y="160.4346">keyple-utils</text><!--MD5=[2aaab67f118e87aa91a4fe667771ad2c]
link application to plugin--><path d="M2406.8225,431.1341 C2661.05,441.1066 3107.925,472.9116 3476.25,574.1016 C3525.25,587.5666 3576.4,607.6941 3622.7,628.4691 " fill="none" id="application-to-plugin" style="stroke:#3498DB;stroke-width:2.5;"/><polygon fill="#3498DB" points="3634.375,633.7616,3618.0363,615.3415,3622.9973,628.585,3609.7538,633.5459,3634.375,633.7616" style="stroke:#3498DB;stroke-width:2.5;"/><!--MD5=[3e74ac74fdcdfc5064d05984678346c7]
link application to service--><path d="M2000.2325,481.9391 C1997.22,482.6716 1994.225,483.3916 1991.25,484.1016 C1799.21,529.9066 1744.12,513.4191 1556.25,574.1016 C1510.09,589.0116 1461.585,608.6666 1417.01,628.4791 " fill="none" id="application-to-service" style="stroke:#3498DB;stroke-width:2.5;"/><polygon fill="#3498DB" points="1404.545,634.0666,1429.167,633.9866,1415.9511,628.9527,1420.9849,615.7368,1404.545,634.0666" style="stroke:#3498DB;stroke-width:2.5;"/><!--MD5=[a7759acb4cc58629cc6ce6f72b51fab6]
link application to extension--><path d="M2000.3375,482.4391 C1997.29,483.0141 1994.26,483.5691 1991.25,484.1016 C1528.9175,565.7416 1397.045,472.2141 938.75,574.1016 C878.615,587.4716 815.095,608.1041 757.6625,629.4066 " fill="none" id="application-to-extension" style="stroke:#3498DB;stroke-width:2.5;"/><polygon fill="#3498DB" points="745.5025,633.9616,770.0803,635.4394,757.2093,629.5796,763.0691,616.7086,745.5025,633.9616" style="stroke:#3498DB;stroke-width:2.5;"/><!--MD5=[046f6ae6203124f84c131388280c948c]
link application to local--><path d="M2406.665,460.8416 C2538.725,485.8266 2713.675,524.0541 2863.75,574.1016 C2908.95,589.1741 2956.475,608.6791 3000.275,628.2766 " fill="none" id="application-to-local" style="stroke:#3498DB;stroke-width:2.5;"/><polygon fill="#3498DB" points="3012.525,633.8016,2996.1298,615.4318,3001.1314,628.66,2987.9033,633.6616,3012.525,633.8016" style="stroke:#3498DB;stroke-width:2.5;"/><!--MD5=[bd9f6eb1697b1f1e2665eeca2d41e048]
link application to network--><path d="M2270.025,484.5291 C2323.7375,531.4766 2399.45,597.6516 2455.5425,646.6816 " fill="none" id="application-to-network" style="stroke:#3498DB;stroke-width:2.5;"/><polygon fill="#3498DB" points="2465.075,655.0116,2454.7193,632.6731,2455.6649,646.7835,2441.5544,647.7292,2465.075,655.0116" style="stroke:#3498DB;stroke-width:2.5;"/><!--MD5=[857646e20610b5e7f2f3841a40697034]
link application to remote--><path d="M2137.475,484.5291 C2091.375,524.8216 2029.07,579.2816 1976.87,624.9066 " fill="none" id="application-to-remote" style="stroke:#3498DB;stroke-width:2.5;"/><polygon fill="#3498DB" points="1967.245,633.3166,1990.7656,626.0342,1976.6551,625.0885,1977.6007,610.9781,1967.245,633.3166" style="stroke:#3498DB;stroke-width:2.5;"/><!--MD5=[b84145f68a9638efe3b1cde23adb3c4f]
link extension to cardApi--><path d="M620.8125,796.8266 C679.67,874.8691 769.59,994.0941 831.1075,1075.6641 " fill="none" id="extension-to-cardApi" style="stroke:#27AE60;stroke-width:2.5;"/><polygon fill="#27AE60" points="839.2175,1086.4158,833.6544,1062.4304,831.6912,1076.4356,817.686,1074.4724,839.2175,1086.4158" style="stroke:#27AE60;stroke-width:2.5;"/><!--MD5=[fabadde203f6882db6cc8cc1a1329160]
link extension to service--><path d="M894.385,715.3516 C919.355,715.3516 944.325,715.3516 969.2925,715.3516 " fill="none" id="extension-to-service" style="stroke:#27AE60;stroke-width:2.5;"/><polygon fill="#27AE60" points="982.35,715.3516,959.85,705.3516,969.85,715.3516,959.85,725.3516,982.35,715.3516" style="stroke:#27AE60;stroke-width:2.5;"/><!--MD5=[e41df91f541512673a0e31599b8ee993]
link plugin to pluginApi--><path d="M3700.3,797.1141 C3640.975,848.3916 3558.3,913.4016 3476.25,956.6016 C3340.05,1028.3141 3174.675,1081.2366 3045.475,1115.8508 " fill="none" id="plugin-to-pluginApi" style="stroke:#E74C3C;stroke-width:2.5;"/><polygon fill="#E74C3C" points="3033.1,1119.1436,3057.4148,1123.0219,3045.1797,1115.9294,3052.2722,1103.6944,3033.1,1119.1436" style="stroke:#E74C3C;stroke-width:2.5;"/><!--MD5=[dd1eccd1e7426faad07553cf68d2ac5f]
link service to pluginApi--><path d="M1320.5575,797.5191 C1378.6125,853.6791 1464.6,924.4041 1556.25,956.6016 C1664.245,994.5416 2478.2575,938.6516 2586.25,976.6016 C2655.95,1001.0941 2721.5,1053.7841 2767.225,1097.2863 " fill="none" id="service-to-pluginApi" style="stroke:#D4AC0D;stroke-width:2.5;"/><polygon fill="#D4AC0D" points="2777.25,1106.9826,2768.0121,1084.1591,2768.2585,1098.2991,2754.1185,1098.5455,2777.25,1106.9826" style="stroke:#D4AC0D;stroke-width:2.5;"/><!--MD5=[2523936cee4f99c1b1f73b34e1a6b0f7]
link service to cardApi--><path d="M1184.925,796.8266 C1124.32,874.8691 1031.7375,994.0941 968.395,1075.6641 " fill="none" id="service-to-cardApi" style="stroke:#D4AC0D;stroke-width:2.5;"/><polygon fill="#D4AC0D" points="960.0475,1086.4158,981.7471,1074.7807,967.7154,1076.5439,965.9521,1062.5121,960.0475,1086.4158" style="stroke:#D4AC0D;stroke-width:2.5;"/><!--MD5=[911ff9493972b9d616a6a191b3acdad0]
link service to distributedRemoteApi--><path d="M1301.84,796.8266 C1361.8475,882.0716 1456.44,1016.4541 1513.2975,1097.2278 " fill="none" id="service-to-distributedRemoteApi" style="stroke:#D4AC0D;stroke-width:2.5;"/><polygon fill="#D4AC0D" points="1520.72,1107.7738,1515.9455,1083.619,1513.5247,1097.5524,1499.5913,1095.1316,1520.72,1107.7738" style="stroke:#D4AC0D;stroke-width:2.5;"/><!--MD5=[35229a0a0734c85a6b51f1905fa13c02]
link service to distributedLocalApi--><path d="M1322.1325,797.7241 C1380.3425,853.2091 1465.8325,922.9916 1556.25,956.6016 C1631.3525,984.5191 1839.3425,954.1291 1916.25,976.6016 C1991.955,998.7241 2069.135,1040.6291 2130.3025,1079.3446 " fill="none" id="service-to-distributedLocalApi" style="stroke:#D4AC0D;stroke-width:2.5;"/><polygon fill="#D4AC0D" points="2141.535,1086.5311,2127.9709,1065.982,2131.0054,1079.7947,2117.1927,1082.8293,2141.535,1086.5311" style="stroke:#D4AC0D;stroke-width:2.5;"/><!--MD5=[6b8af92c48757bac50848b7abb7c7576]
reverse link network to local--><path d="M2832.925,715.3516 C2857.675,715.3516 2882.4,715.3516 2907.125,715.3516 " fill="none" id="network-backto-local" style="stroke:#8E44AD;stroke-width:2.5;"/><polygon fill="#8E44AD" points="2820,715.3516,2842.5,725.3516,2832.5,715.3516,2842.5,705.3516,2820,715.3516" style="stroke:#8E44AD;stroke-width:2.5;"/><!--MD5=[f8b0df4bff9d8c01b39b5fe2d94c34a6]
link local to distributedLocalApi--><path d="M3095.925,797.2816 C3038.175,852.5466 2953.375,922.2466 2863.75,956.6016 C2748.3,1000.8641 2704.65,940.9441 2586.25,976.6016 C2511.0325,999.2541 2434.18,1040.9641 2373.09,1079.4241 " fill="none" id="local-to-distributedLocalApi" style="stroke:#8E44AD;stroke-width:2.5;"/><polygon fill="#8E44AD" points="2361.87,1086.5623,2386.2212,1082.9195,2372.4159,1079.8515,2375.4839,1066.0462,2361.87,1086.5623" style="stroke:#8E44AD;stroke-width:2.5;"/><!--MD5=[64fd2d2448bb982cff61e25e19624583]
link remote to network--><path d="M2155.1375,715.3516 C2180.16,715.3516 2205.18,715.3516 2230.2025,715.3516 " fill="none" id="remote-to-network" style="stroke:#8E44AD;stroke-width:2.5;"/><polygon fill="#8E44AD" points="2243.2875,715.3516,2220.7875,705.3516,2230.7875,715.3516,2220.7875,725.3516,2243.2875,715.3516" style="stroke:#8E44AD;stroke-width:2.5;"/><!--MD5=[167487473dec959b258d2eb14d4f8ae2]
link remote to distributedRemoteApi--><path d="M1820.66,796.8266 C1760.6525,882.0716 1666.06,1016.4541 1609.2025,1097.2278 " fill="none" id="remote-to-distributedRemoteApi" style="stroke:#8E44AD;stroke-width:2.5;"/><polygon fill="#8E44AD" points="1601.78,1107.7738,1622.9087,1095.1316,1608.9753,1097.5524,1606.5545,1083.619,1601.78,1107.7738" style="stroke:#8E44AD;stroke-width:2.5;"/><!--MD5=[6fdf7ed957469b98b5ae7e80002d1d76]
reverse link utils to packMain--><path d="M168.75,206.9816 C168.75,217.1844 168.75,228.057 168.75,239.2882 C168.75,242.0961 168.75,244.9263 168.75,247.7741 C168.75,249.198 168.75,250.6263 168.75,252.0584 C168.75,252.4164 168.75,252.7747 168.75,253.1331 " fill="none" id="utils-backto-packMain" style="stroke:#A80036;stroke-width:2.5;"/><polygon fill="#A80036" points="168.75,194.2766,158.75,216.7766,168.75,206.7766,178.75,216.7766,168.75,194.2766" style="stroke:#A80036;stroke-width:2.5;"/><!--MD5=[5552d798f7d7e0a626d77719b1af7fd5]
@startuml
title
    Keyple 2.0 - Modules dependencies - 05/02/2021
end title

' == THEME ==

'Couleurs issues de : https://htmlcolorcodes.com/fr/tableau-de-couleur/tableau-de-couleur-design-plat/
!define COLOR_YELLOW D4AC0D
!define COLOR_RED E74C3C
!define COLOR_PURPLE 8E44AD
!define COLOR_BLUE 3498DB
!define COLOR_GREEN 27AE60
!define COLOR_GREY 2C3E50
skinparam Shadowing false
skinparam component {
    BorderColor #D4AC0D
    ' Red
    BackgroundColor<<red>> #FDEDEC
    BorderColor<<red>> #E74C3C
    ' Purple
    BackgroundColor<<purple>> #F4ECF7
    BorderColor<<purple>> #8E44AD
    ' blue
    BackgroundColor<<blue>> #EBF5FB
    BorderColor<<blue>> #3498DB
    ' Green
    BackgroundColor<<green>> #E9F7EF
    BorderColor<<green>> #27AE60
    ' Grey
    BackgroundColor<<grey>> #EAECEE
    BorderColor<<grey>> #2C3E50
}
skinparam interface {
    BorderColor #D4AC0D
    ' Red
    BackgroundColor<<red>> #FDEDEC
    BorderColor<<red>> #E74C3C
    ' Purple
    BackgroundColor<<purple>> #F4ECF7
    BorderColor<<purple>> #8E44AD
    ' blue
    BackgroundColor<<blue>> #EBF5FB
    BorderColor<<blue>> #3498DB
    ' Green
    BackgroundColor<<green>> #E9F7EF
    BorderColor<<green>> #27AE60
    ' Grey
    BackgroundColor<<grey>> #EAECEE
    BorderColor<<grey>> #2C3E50
}
hide <<red>> stereotype
hide <<purple>> stereotype
hide <<blue>> stereotype
hide <<green>> stereotype
hide <<grey>> stereotype

' == COMPONENTS ==

package "Components having adapters" as packMain {
    [Specific Application] as application <<blue>>
    [**keyple-service**\nuse <back:cyan>**keyple-commons-api**</back>] as service
    [Specific Plugin (PCSC...)\nuse <back:cyan>**keyple-commons-api**</back>] as plugin <<red>>
    [Specific Card Extension (Calypso...)\nuse <back:cyan>**keyple-commons-api**</back>] as extension <<green>>
    together {
        [**keyple-distributed-local**\nuse <back:cyan>**keyple-commons-api**</back>] as local <<purple>>
        [**keyple-distributed-network**] as network <<purple>>
        [**keyple-distributed-remote**\nuse <back:cyan>**keyple-commons-api**</back>] as remote <<purple>>
    }
}
package "Keyple Internal APIs/SPIs (hidden for the specific application)" {
    [**keyple-plugin-api**] as pluginApi
    [**keyple-card-api**\nuse <back:cyan>**keyple-commons-api**</back>] as cardApi
    [**keyple-distributed-local-api**\nuse <back:cyan>**keyple-commons-api**</back>] as distributedLocalApi
    [**keyple-distributed-remote-api**] as distributedRemoteApi
}
[**keyple-utils**] as utils

' == ASSOCIATIONS ==

application - -> plugin #COLOR_BLUE
application - -> service #COLOR_BLUE
application - -> extension #COLOR_BLUE
application - -> local #COLOR_BLUE
application - -> network #COLOR_BLUE
application - -> remote #COLOR_BLUE

extension - -> cardApi #COLOR_GREEN
extension -right-> service #COLOR_GREEN

plugin - -> pluginApi #COLOR_RED

service - -> pluginApi #COLOR_YELLOW
service - -> cardApi #COLOR_YELLOW
service - -> distributedRemoteApi #COLOR_YELLOW
service - -> distributedLocalApi #COLOR_YELLOW

local -left-> network #COLOR_PURPLE
local - -> distributedLocalApi #COLOR_PURPLE

remote -right-> network #COLOR_PURPLE
remote - -> distributedRemoteApi #COLOR_PURPLE

packMain -up-> utils

@enduml

@startuml
title
    Keyple 2.0 - Modules dependencies - 05/02/2021
end title


skinparam Shadowing false
skinparam component {
    BorderColor #D4AC0D
    BackgroundColor<<red>> #FDEDEC
    BorderColor<<red>> #E74C3C
    BackgroundColor<<purple>> #F4ECF7
    BorderColor<<purple>> #8E44AD
    BackgroundColor<<blue>> #EBF5FB
    BorderColor<<blue>> #3498DB
    BackgroundColor<<green>> #E9F7EF
    BorderColor<<green>> #27AE60
    BackgroundColor<<grey>> #EAECEE
    BorderColor<<grey>> #2C3E50
}
skinparam interface {
    BorderColor #D4AC0D
    BackgroundColor<<red>> #FDEDEC
    BorderColor<<red>> #E74C3C
    BackgroundColor<<purple>> #F4ECF7
    BorderColor<<purple>> #8E44AD
    BackgroundColor<<blue>> #EBF5FB
    BorderColor<<blue>> #3498DB
    BackgroundColor<<green>> #E9F7EF
    BorderColor<<green>> #27AE60
    BackgroundColor<<grey>> #EAECEE
    BorderColor<<grey>> #2C3E50
}
hide <<red>> stereotype
hide <<purple>> stereotype
hide <<blue>> stereotype
hide <<green>> stereotype
hide <<grey>> stereotype


package "Components having adapters" as packMain {
    [Specific Application] as application <<blue>>
    [**keyple-service**\nuse <back:cyan>**keyple-commons-api**</back>] as service
    [Specific Plugin (PCSC...)\nuse <back:cyan>**keyple-commons-api**</back>] as plugin <<red>>
    [Specific Card Extension (Calypso...)\nuse <back:cyan>**keyple-commons-api**</back>] as extension <<green>>
    together {
        [**keyple-distributed-local**\nuse <back:cyan>**keyple-commons-api**</back>] as local <<purple>>
        [**keyple-distributed-network**] as network <<purple>>
        [**keyple-distributed-remote**\nuse <back:cyan>**keyple-commons-api**</back>] as remote <<purple>>
    }
}
package "Keyple Internal APIs/SPIs (hidden for the specific application)" {
    [**keyple-plugin-api**] as pluginApi
    [**keyple-card-api**\nuse <back:cyan>**keyple-commons-api**</back>] as cardApi
    [**keyple-distributed-local-api**\nuse <back:cyan>**keyple-commons-api**</back>] as distributedLocalApi
    [**keyple-distributed-remote-api**] as distributedRemoteApi
}
[**keyple-utils**] as utils


application - -> plugin #3498DB
application - -> service #3498DB
application - -> extension #3498DB
application - -> local #3498DB
application - -> network #3498DB
application - -> remote #3498DB

extension - -> cardApi #27AE60
extension -right-> service #27AE60

plugin - -> pluginApi #E74C3C

service - -> pluginApi #D4AC0D
service - -> cardApi #D4AC0D
service - -> distributedRemoteApi #D4AC0D
service - -> distributedLocalApi #D4AC0D

local -left-> network #8E44AD
local - -> distributedLocalApi #8E44AD

remote -right-> network #8E44AD
remote - -> distributedRemoteApi #8E44AD

packMain -up-> utils

@enduml

PlantUML version 1.2021.01(Tue Feb 02 08:55:08 CET 2021)
(GPL source distribution)
Java Runtime: OpenJDK Runtime Environment
JVM: OpenJDK 64-Bit Server VM
Default Encoding: Cp1252
Language: fr
Country: FR
--></g></svg>