<?xml version="1.0" encoding="UTF-8" standalone="no"?><svg xmlns="http://www.w3.org/2000/svg" xmlns:xlink="http://www.w3.org/1999/xlink" contentScriptType="application/ecmascript" contentStyleType="text/css" height="1395px" preserveAspectRatio="none" style="width:4015px;height:1395px;" version="1.1" viewBox="0 0 4015 1395" width="4015px" zoomAndPan="magnify"><defs><filter height="1" id="b1t3dur7pfnzk0" width="1" x="0" y="0"><feFlood flood-color="#00FFFF" result="flood"/><feComposite in="SourceGraphic" in2="flood" operator="over"/></filter></defs><g><text fill="#000000" font-family="sans-serif" font-size="45" lengthAdjust="spacing" textLength="980" x="1501.875" y="46.7139">Keyple 2.0 - Modules dependencies - 02/02/2021</text><!--MD5=[fa748c0050d71d88d66b284603ec55cc]
cluster packMain--><polygon fill="#FFFFFF" points="148.75,254.1016,681.25,254.1016,698.75,313.125,3973.75,313.125,3973.75,961.6016,148.75,961.6016,148.75,254.1016" style="stroke:#000000;stroke-width:3.75;"/><line style="stroke:#000000;stroke-width:3.75;" x1="148.75" x2="698.75" y1="313.125" y2="313.125"/><text fill="#000000" font-family="sans-serif" font-size="35" font-weight="bold" lengthAdjust="spacing" textLength="517.5" x="158.75" y="295.4346">Components having adapters</text><!--MD5=[0ce6da3c2c739942a6dbf20c6d0899b1]
cluster Keyple Internal APIs/SPIs (hidden for the specific application)--><polygon fill="#FFFFFF" points="496.25,1041.6016,1581.25,1041.6016,1598.75,1100.625,2841.25,1100.625,2841.25,1379.1016,496.25,1379.1016,496.25,1041.6016" style="stroke:#000000;stroke-width:3.75;"/><line style="stroke:#000000;stroke-width:3.75;" x1="496.25" x2="1598.75" y1="1100.625" y2="1100.625"/><text fill="#000000" font-family="sans-serif" font-size="35" font-weight="bold" lengthAdjust="spacing" textLength="1070" x="506.25" y="1082.9346">Keyple Internal APIs/SPIs (hidden for the specific application)</text><!--MD5=[37c33c71ce9550fe283f62c54b59719b]
entity application--><rect fill="#EBF5FB" height="119.0234" style="stroke:#3498DB;stroke-width:3.75;" width="405" x="1863.75" y="364.1016"/><rect fill="#EBF5FB" height="25" style="stroke:#3498DB;stroke-width:3.75;" width="37.5" x="2218.75" y="376.6016"/><rect fill="#EBF5FB" height="5" style="stroke:#3498DB;stroke-width:3.75;" width="10" x="2213.75" y="381.6016"/><rect fill="#EBF5FB" height="5" style="stroke:#3498DB;stroke-width:3.75;" width="10" x="2213.75" y="391.6016"/><text fill="#000000" font-family="sans-serif" font-size="35" lengthAdjust="spacing" textLength="305" x="1901.25" y="450.4346">Specific Application</text><!--MD5=[38bfa9dc6018363cafe15f923a4b8db9]
entity service--><rect fill="#FEFECE" height="207.0703" style="stroke:#D4AC0D;stroke-width:3.75;" width="527.5" x="845" y="634.1016"/><rect fill="#FEFECE" height="25" style="stroke:#D4AC0D;stroke-width:3.75;" width="37.5" x="1322.5" y="646.6016"/><rect fill="#FEFECE" height="5" style="stroke:#D4AC0D;stroke-width:3.75;" width="10" x="1317.5" y="651.6016"/><rect fill="#FEFECE" height="5" style="stroke:#D4AC0D;stroke-width:3.75;" width="10" x="1317.5" y="661.6016"/><text fill="#000000" font-family="sans-serif" font-size="35" font-weight="bold" lengthAdjust="spacing" textLength="260" x="882.5" y="720.4346">keyple-service</text><text fill="#000000" font-family="sans-serif" font-size="35" lengthAdjust="spacing" textLength="180" x="882.5" y="764.458">Service API</text><text fill="#000000" font-family="sans-serif" font-size="35" lengthAdjust="spacing" textLength="57.5" x="882.5" y="808.4814">use</text><text fill="#000000" filter="url(#b1t3dur7pfnzk0)" font-family="sans-serif" font-size="35" font-weight="bold" lengthAdjust="spacing" textLength="360" x="950" y="808.4814">keyple-commons-api</text><!--MD5=[8e6a9284dc1da0ef8b54fdd8dc5bfba7]
entity plugin--><rect fill="#FDEDEC" height="207.0703" style="stroke:#E74C3C;stroke-width:3.75;" width="527.5" x="3385" y="634.1016"/><rect fill="#FDEDEC" height="25" style="stroke:#E74C3C;stroke-width:3.75;" width="37.5" x="3862.5" y="646.6016"/><rect fill="#FDEDEC" height="5" style="stroke:#E74C3C;stroke-width:3.75;" width="10" x="3857.5" y="651.6016"/><rect fill="#FDEDEC" height="5" style="stroke:#E74C3C;stroke-width:3.75;" width="10" x="3857.5" y="661.6016"/><text fill="#000000" font-family="sans-serif" font-size="35" lengthAdjust="spacing" textLength="230" x="3422.5" y="720.4346">Specific Plugin</text><text fill="#000000" font-family="sans-serif" font-size="35" lengthAdjust="spacing" textLength="150" x="3422.5" y="764.458">(PCSC...)</text><text fill="#000000" font-family="sans-serif" font-size="35" lengthAdjust="spacing" textLength="57.5" x="3422.5" y="808.4814">use</text><text fill="#000000" filter="url(#b1t3dur7pfnzk0)" font-family="sans-serif" font-size="35" font-weight="bold" lengthAdjust="spacing" textLength="360" x="3490" y="808.4814">keyple-commons-api</text><!--MD5=[535f43d417660373b2263710d106a2e4]
entity extension--><rect fill="#E9F7EF" height="207.0703" style="stroke:#27AE60;stroke-width:3.75;" width="527.5" x="230" y="634.1016"/><rect fill="#E9F7EF" height="25" style="stroke:#27AE60;stroke-width:3.75;" width="37.5" x="707.5" y="646.6016"/><rect fill="#E9F7EF" height="5" style="stroke:#27AE60;stroke-width:3.75;" width="10" x="702.5" y="651.6016"/><rect fill="#E9F7EF" height="5" style="stroke:#27AE60;stroke-width:3.75;" width="10" x="702.5" y="661.6016"/><text fill="#000000" font-family="sans-serif" font-size="35" lengthAdjust="spacing" textLength="372.5" x="267.5" y="720.4346">Specific Card Extension</text><text fill="#000000" font-family="sans-serif" font-size="35" lengthAdjust="spacing" textLength="182.5" x="267.5" y="764.458">(Calypso...)</text><text fill="#000000" font-family="sans-serif" font-size="35" lengthAdjust="spacing" textLength="57.5" x="267.5" y="808.4814">use</text><text fill="#000000" filter="url(#b1t3dur7pfnzk0)" font-family="sans-serif" font-size="35" font-weight="bold" lengthAdjust="spacing" textLength="360" x="335" y="808.4814">keyple-commons-api</text><!--MD5=[d4fd26f9614fa07fe76bdcffa998e3d3]
entity local--><rect fill="#F4ECF7" height="207.0703" style="stroke:#8E44AD;stroke-width:3.75;" width="527.5" x="2770" y="634.1016"/><rect fill="#F4ECF7" height="25" style="stroke:#8E44AD;stroke-width:3.75;" width="37.5" x="3247.5" y="646.6016"/><rect fill="#F4ECF7" height="5" style="stroke:#8E44AD;stroke-width:3.75;" width="10" x="3242.5" y="651.6016"/><rect fill="#F4ECF7" height="5" style="stroke:#8E44AD;stroke-width:3.75;" width="10" x="3242.5" y="661.6016"/><text fill="#000000" font-family="sans-serif" font-size="35" font-weight="bold" lengthAdjust="spacing" textLength="415" x="2807.5" y="720.4346">keyple-distributed-local</text><text fill="#000000" font-family="sans-serif" font-size="35" lengthAdjust="spacing" textLength="265" x="2807.5" y="764.458">Distributed Local</text><text fill="#000000" font-family="sans-serif" font-size="35" lengthAdjust="spacing" textLength="57.5" x="2807.5" y="808.4814">use</text><text fill="#000000" filter="url(#b1t3dur7pfnzk0)" font-family="sans-serif" font-size="35" font-weight="bold" lengthAdjust="spacing" textLength="360" x="2875" y="808.4814">keyple-commons-api</text><!--MD5=[57220784cd10fd02b95ed95124c16164]
entity network--><rect fill="#F4ECF7" height="163.0469" style="stroke:#8E44AD;stroke-width:3.75;" width="575" x="2106.25" y="656.6016"/><rect fill="#F4ECF7" height="25" style="stroke:#8E44AD;stroke-width:3.75;" width="37.5" x="2631.25" y="669.1016"/><rect fill="#F4ECF7" height="5" style="stroke:#8E44AD;stroke-width:3.75;" width="10" x="2626.25" y="674.1016"/><rect fill="#F4ECF7" height="5" style="stroke:#8E44AD;stroke-width:3.75;" width="10" x="2626.25" y="684.1016"/><text fill="#000000" font-family="sans-serif" font-size="35" font-weight="bold" lengthAdjust="spacing" textLength="475" x="2143.75" y="742.9346">keyple-distributed-network</text><text fill="#000000" font-family="sans-serif" font-size="35" lengthAdjust="spacing" textLength="305" x="2143.75" y="786.958">Distributed Network</text><!--MD5=[200d7cc177ce404b822df68e5d127056]
entity remote--><rect fill="#F4ECF7" height="207.0703" style="stroke:#8E44AD;stroke-width:3.75;" width="557.5" x="1460" y="634.1016"/><rect fill="#F4ECF7" height="25" style="stroke:#8E44AD;stroke-width:3.75;" width="37.5" x="1967.5" y="646.6016"/><rect fill="#F4ECF7" height="5" style="stroke:#8E44AD;stroke-width:3.75;" width="10" x="1962.5" y="651.6016"/><rect fill="#F4ECF7" height="5" style="stroke:#8E44AD;stroke-width:3.75;" width="10" x="1962.5" y="661.6016"/><text fill="#000000" font-family="sans-serif" font-size="35" font-weight="bold" lengthAdjust="spacing" textLength="457.5" x="1497.5" y="720.4346">keyple-distributed-remote</text><text fill="#000000" font-family="sans-serif" font-size="35" lengthAdjust="spacing" textLength="302.5" x="1497.5" y="764.458">Distributed Remote</text><text fill="#000000" font-family="sans-serif" font-size="35" lengthAdjust="spacing" textLength="57.5" x="1497.5" y="808.4814">use</text><text fill="#000000" filter="url(#b1t3dur7pfnzk0)" font-family="sans-serif" font-size="35" font-weight="bold" lengthAdjust="spacing" textLength="360" x="1565" y="808.4814">keyple-commons-api</text><!--MD5=[c91beeae9d23cda8fa2ee4b23a5f449e]
entity pluginApi--><rect fill="#FEFECE" height="163.0469" style="stroke:#D4AC0D;stroke-width:3.75;" width="402.5" x="2397.5" y="1154.1016"/><rect fill="#FEFECE" height="25" style="stroke:#D4AC0D;stroke-width:3.75;" width="37.5" x="2750" y="1166.6016"/><rect fill="#FEFECE" height="5" style="stroke:#D4AC0D;stroke-width:3.75;" width="10" x="2745" y="1171.6016"/><rect fill="#FEFECE" height="5" style="stroke:#D4AC0D;stroke-width:3.75;" width="10" x="2745" y="1181.6016"/><text fill="#000000" font-family="sans-serif" font-size="35" font-weight="bold" lengthAdjust="spacing" textLength="302.5" x="2435" y="1240.4346">keyple-plugin-api</text><text fill="#000000" font-family="sans-serif" font-size="35" lengthAdjust="spacing" textLength="160" x="2435" y="1284.458">Plugin API</text><!--MD5=[f74f7ef7641fa41957945dcfb119390e]
entity cardApi--><rect fill="#FEFECE" height="207.0703" style="stroke:#D4AC0D;stroke-width:3.75;" width="527.5" x="537.5" y="1131.6016"/><rect fill="#FEFECE" height="25" style="stroke:#D4AC0D;stroke-width:3.75;" width="37.5" x="1015" y="1144.1016"/><rect fill="#FEFECE" height="5" style="stroke:#D4AC0D;stroke-width:3.75;" width="10" x="1010" y="1149.1016"/><rect fill="#FEFECE" height="5" style="stroke:#D4AC0D;stroke-width:3.75;" width="10" x="1010" y="1159.1016"/><text fill="#000000" font-family="sans-serif" font-size="35" font-weight="bold" lengthAdjust="spacing" textLength="270" x="575" y="1217.9346">keyple-card-api</text><text fill="#000000" font-family="sans-serif" font-size="35" lengthAdjust="spacing" textLength="140" x="575" y="1261.958">Card API</text><text fill="#000000" font-family="sans-serif" font-size="35" lengthAdjust="spacing" textLength="57.5" x="575" y="1305.9814">use</text><text fill="#000000" filter="url(#b1t3dur7pfnzk0)" font-family="sans-serif" font-size="35" font-weight="bold" lengthAdjust="spacing" textLength="360" x="642.5" y="1305.9814">keyple-commons-api</text><!--MD5=[8bfb21d906e2755d8ddd0d1f0358b8e6]
entity localServiceApi--><rect fill="#FEFECE" height="207.0703" style="stroke:#D4AC0D;stroke-width:3.75;" width="527.5" x="1782.5" y="1131.6016"/><rect fill="#FEFECE" height="25" style="stroke:#D4AC0D;stroke-width:3.75;" width="37.5" x="2260" y="1144.1016"/><rect fill="#FEFECE" height="5" style="stroke:#D4AC0D;stroke-width:3.75;" width="10" x="2255" y="1149.1016"/><rect fill="#FEFECE" height="5" style="stroke:#D4AC0D;stroke-width:3.75;" width="10" x="2255" y="1159.1016"/><text fill="#000000" font-family="sans-serif" font-size="35" font-weight="bold" lengthAdjust="spacing" textLength="420" x="1820" y="1217.9346">keyple-local-service-api</text><text fill="#000000" font-family="sans-serif" font-size="35" lengthAdjust="spacing" textLength="275" x="1820" y="1261.958">Local Service API</text><text fill="#000000" font-family="sans-serif" font-size="35" lengthAdjust="spacing" textLength="57.5" x="1820" y="1305.9814">use</text><text fill="#000000" filter="url(#b1t3dur7pfnzk0)" font-family="sans-serif" font-size="35" font-weight="bold" lengthAdjust="spacing" textLength="360" x="1887.5" y="1305.9814">keyple-commons-api</text><!--MD5=[fac916c9b0445ff0eb0cb01939afd64e]
entity remotePluginApi--><rect fill="#FEFECE" height="163.0469" style="stroke:#D4AC0D;stroke-width:3.75;" width="540" x="1153.75" y="1154.1016"/><rect fill="#FEFECE" height="25" style="stroke:#D4AC0D;stroke-width:3.75;" width="37.5" x="1643.75" y="1166.6016"/><rect fill="#FEFECE" height="5" style="stroke:#D4AC0D;stroke-width:3.75;" width="10" x="1638.75" y="1171.6016"/><rect fill="#FEFECE" height="5" style="stroke:#D4AC0D;stroke-width:3.75;" width="10" x="1638.75" y="1181.6016"/><text fill="#000000" font-family="sans-serif" font-size="35" font-weight="bold" lengthAdjust="spacing" textLength="440" x="1191.25" y="1240.4346">keyple-remote-plugin-api</text><text fill="#000000" font-family="sans-serif" font-size="35" lengthAdjust="spacing" textLength="292.5" x="1191.25" y="1284.458">Remote Plugin API</text><!--MD5=[815e17c207bbf712f7f26918c1feb6f8]
entity utils--><rect fill="#FEFECE" height="119.0234" style="stroke:#D4AC0D;stroke-width:3.75;" width="302.5" x="17.5" y="74.1016"/><rect fill="#FEFECE" height="25" style="stroke:#D4AC0D;stroke-width:3.75;" width="37.5" x="270" y="86.6016"/><rect fill="#FEFECE" height="5" style="stroke:#D4AC0D;stroke-width:3.75;" width="10" x="265" y="91.6016"/><rect fill="#FEFECE" height="5" style="stroke:#D4AC0D;stroke-width:3.75;" width="10" x="265" y="101.6016"/><text fill="#000000" font-family="sans-serif" font-size="35" font-weight="bold" lengthAdjust="spacing" textLength="202.5" x="55" y="160.4346">keyple-utils</text><!--MD5=[2aaab67f118e87aa91a4fe667771ad2c]
link application to plugin--><path d="M2269.2275,427.6016 C2524.325,433.9266 2973.025,461.9641 3338.75,574.1016 C3382.5,587.5116 3427.35,607.0141 3468.9,627.8566 " fill="none" id="application-to-plugin" style="stroke:#3498DB;stroke-width:2.5;"/><polygon fill="#3498DB" points="3480.525,633.7641,3464.9699,614.6777,3469.3734,628.1168,3455.9343,632.5202,3480.525,633.7641" style="stroke:#3498DB;stroke-width:2.5;"/><!--MD5=[3e74ac74fdcdfc5064d05984678346c7]
link application to service--><path d="M1862.7325,481.9391 C1859.72,482.6716 1856.725,483.3916 1853.75,484.1016 C1661.71,529.9066 1604.755,507.9216 1418.75,574.1016 C1377.4775,588.7866 1334.825,608.0166 1294.8525,628.0591 " fill="none" id="application-to-service" style="stroke:#3498DB;stroke-width:2.5;"/><polygon fill="#3498DB" points="1283.6525,633.7316,1308.2432,632.4878,1294.8041,628.0843,1299.2076,614.6452,1283.6525,633.7316" style="stroke:#3498DB;stroke-width:2.5;"/><!--MD5=[a7759acb4cc58629cc6ce6f72b51fab6]
link application to extension--><path d="M1862.8375,482.4391 C1859.79,483.0141 1856.76,483.5691 1853.75,484.1016 C1391.4175,565.7416 1251.91,442.4916 801.25,574.1016 C756.8225,587.0766 711.3825,606.7741 669.535,627.9941 " fill="none" id="application-to-extension" style="stroke:#3498DB;stroke-width:2.5;"/><polygon fill="#3498DB" points="657.8325,634.0141,682.4148,632.6132,668.9478,628.2957,673.2653,614.8287,657.8325,634.0141" style="stroke:#3498DB;stroke-width:2.5;"/><!--MD5=[046f6ae6203124f84c131388280c948c]
link application to local--><path d="M2269.4675,457.7391 C2402.0325,481.5041 2577.425,519.5391 2726.25,574.1016 C2766.525,588.8641 2808.15,607.8741 2847.275,627.6316 " fill="none" id="application-to-local" style="stroke:#3498DB;stroke-width:2.5;"/><polygon fill="#3498DB" points="2859.325,633.7816,2843.8723,614.6122,2848.2038,628.0747,2834.7413,632.4062,2859.325,633.7816" style="stroke:#3498DB;stroke-width:2.5;"/><!--MD5=[bd9f6eb1697b1f1e2665eeca2d41e048]
link application to network--><path d="M2127.85,484.6741 C2176.545,530.5816 2245.3025,595.4041 2300.7,647.6291 " fill="none" id="application-to-network" style="stroke:#3498DB;stroke-width:2.5;"/><polygon fill="#3498DB" points="2310.175,656.5616,2300.6622,633.8513,2301.0793,647.9873,2286.9433,648.4044,2310.175,656.5616" style="stroke:#3498DB;stroke-width:2.5;"/><!--MD5=[857646e20610b5e7f2f3841a40697034]
link application to remote--><path d="M2004.65,484.6741 C1962.96,523.9791 1906.56,577.1491 1856.4325,624.4066 " fill="none" id="application-to-remote" style="stroke:#3498DB;stroke-width:2.5;"/><polygon fill="#3498DB" points="1846.495,633.7741,1869.7267,625.6169,1855.5907,625.1998,1856.0078,611.0638,1846.495,633.7741" style="stroke:#3498DB;stroke-width:2.5;"/><!--MD5=[b84145f68a9638efe3b1cde23adb3c4f]
link extension to cardApi--><path d="M557.465,842.3991 C607.97,923.2916 678.4925,1036.2391 730.7,1119.8566 " fill="none" id="extension-to-cardApi" style="stroke:#27AE60;stroke-width:2.5;"/><polygon fill="#27AE60" points="737.6175,1130.9366,734.188,1106.5544,730.9993,1120.3324,717.2213,1117.1436,737.6175,1130.9366" style="stroke:#27AE60;stroke-width:2.5;"/><!--MD5=[fabadde203f6882db6cc8cc1a1329160]
link extension to service--><path d="M758.0075,737.8516 C782.51,737.8516 807.01,737.8516 831.51,737.8516 " fill="none" id="extension-to-service" style="stroke:#27AE60;stroke-width:2.5;"/><polygon fill="#27AE60" points="844.3225,737.8516,821.8225,727.8516,831.8225,737.8516,821.8225,747.8516,844.3225,737.8516" style="stroke:#27AE60;stroke-width:2.5;"/><!--MD5=[e41df91f541512673a0e31599b8ee993]
link plugin to pluginApi--><path d="M3549.6,841.6941 C3492.225,895.5166 3416.2,959.1316 3338.75,1001.6016 C3172.875,1092.5591 2966.075,1153.3466 2813.3,1189.6736 " fill="none" id="plugin-to-pluginApi" style="stroke:#E74C3C;stroke-width:2.5;"/><polygon fill="#E74C3C" points="2800.55,1192.6796,2824.7529,1197.2037,2812.711,1189.7881,2820.1266,1177.7461,2800.55,1192.6796" style="stroke:#E74C3C;stroke-width:2.5;"/><!--MD5=[dd1eccd1e7426faad07553cf68d2ac5f]
link service to pluginApi--><path d="M1195.305,841.7691 C1252.125,900.3691 1331.8275,968.8016 1418.75,1001.6016 C1515.97,1038.2866 2256.7375,984.3666 2353.75,1021.6016 C2420.1125,1047.0716 2480.7375,1098.9916 2525.075,1144.9816 " fill="none" id="service-to-pluginApi" style="stroke:#D4AC0D;stroke-width:2.5;"/><polygon fill="#D4AC0D" points="2533.725,1154.0916,2525.4925,1130.8865,2525.1213,1145.0237,2510.984,1144.6524,2533.725,1154.0916" style="stroke:#D4AC0D;stroke-width:2.5;"/><!--MD5=[2523936cee4f99c1b1f73b34e1a6b0f7]
link service to cardApi--><path d="M1045.035,842.3991 C994.53,923.2916 924.0075,1036.2391 871.8,1119.8566 " fill="none" id="service-to-cardApi" style="stroke:#D4AC0D;stroke-width:2.5;"/><polygon fill="#D4AC0D" points="864.8825,1130.9366,885.2787,1117.1436,871.5007,1120.3324,868.312,1106.5544,864.8825,1130.9366" style="stroke:#D4AC0D;stroke-width:2.5;"/><!--MD5=[c9d6d34772ffa273f7ad95dda05cf1c8]
link service to remotePluginApi--><path d="M1174.0175,842.3991 C1230.585,930.8416 1311.6625,1057.6041 1365.9325,1142.4516 " fill="none" id="service-to-remotePluginApi" style="stroke:#D4AC0D;stroke-width:2.5;"/><polygon fill="#D4AC0D" points="1373.075,1153.6216,1369.377,1129.2787,1366.3403,1143.091,1352.528,1140.0543,1373.075,1153.6216" style="stroke:#D4AC0D;stroke-width:2.5;"/><!--MD5=[f138bb517403ea09353b2f2a71104985]
link service to localServiceApi--><path d="M1197.0975,841.8266 C1254.01,899.6616 1333.18,967.2666 1418.75,1001.6016 C1549.97,1054.2541 1602.5125,975.7116 1736.25,1021.6016 C1801.51,1043.9941 1865.845,1084.0291 1918.845,1123.2716 " fill="none" id="service-to-localServiceApi" style="stroke:#D4AC0D;stroke-width:2.5;"/><polygon fill="#D4AC0D" points="1929.29,1131.1041,1917.2851,1109.6068,1919.2883,1123.6063,1905.2887,1125.6095,1929.29,1131.1041" style="stroke:#D4AC0D;stroke-width:2.5;"/><!--MD5=[6b8af92c48757bac50848b7abb7c7576]
reverse link network to local--><path d="M2695.425,737.8516 C2720.175,737.8516 2744.9,737.8516 2769.625,737.8516 " fill="none" id="network-backto-local" style="stroke:#8E44AD;stroke-width:2.5;"/><polygon fill="#8E44AD" points="2682.5,737.8516,2705,747.8516,2695,737.8516,2705,727.8516,2682.5,737.8516" style="stroke:#8E44AD;stroke-width:2.5;"/><!--MD5=[c08723a0c1f1b6ef4be0eaa76aef758e]
link local to localServiceApi--><path d="M2946.375,842.1041 C2890.025,900.0391 2811.5,967.6541 2726.25,1001.6016 C2649.225,1032.2691 2432.2325,994.9116 2353.75,1021.6016 C2288.5,1043.7891 2224.3675,1084.0291 2171.6975,1123.4816 " fill="none" id="local-to-localServiceApi" style="stroke:#8E44AD;stroke-width:2.5;"/><polygon fill="#8E44AD" points="2161.3175,1131.3566,2185.2879,1125.7291,2171.2775,1123.8035,2173.2031,1109.7931,2161.3175,1131.3566" style="stroke:#8E44AD;stroke-width:2.5;"/><!--MD5=[64fd2d2448bb982cff61e25e19624583]
link remote to network--><path d="M2017.6375,737.8516 C2042.66,737.8516 2067.68,737.8516 2092.7025,737.8516 " fill="none" id="remote-to-network" style="stroke:#8E44AD;stroke-width:2.5;"/><polygon fill="#8E44AD" points="2105.7875,737.8516,2083.2875,727.8516,2093.2875,737.8516,2083.2875,747.8516,2105.7875,737.8516" style="stroke:#8E44AD;stroke-width:2.5;"/><!--MD5=[6147394c4e552ea9834ff128597fc5a8]
link remote to remotePluginApi--><path d="M1673.4825,842.3991 C1616.915,930.8416 1535.8375,1057.6041 1481.5675,1142.4516 " fill="none" id="remote-to-remotePluginApi" style="stroke:#8E44AD;stroke-width:2.5;"/><polygon fill="#8E44AD" points="1474.425,1153.6216,1494.972,1140.0543,1481.1597,1143.091,1478.123,1129.2787,1474.425,1153.6216" style="stroke:#8E44AD;stroke-width:2.5;"/><!--MD5=[6fdf7ed957469b98b5ae7e80002d1d76]
reverse link utils to packMain--><path d="M168.75,206.9816 C168.75,217.1844 168.75,228.057 168.75,239.2882 C168.75,242.0961 168.75,244.9263 168.75,247.7741 C168.75,249.198 168.75,250.6263 168.75,252.0584 C168.75,252.4164 168.75,252.7747 168.75,253.1331 " fill="none" id="utils-backto-packMain" style="stroke:#A80036;stroke-width:2.5;"/><polygon fill="#A80036" points="168.75,194.2766,158.75,216.7766,168.75,206.7766,178.75,216.7766,168.75,194.2766" style="stroke:#A80036;stroke-width:2.5;"/><!--MD5=[186ea388debf21d9ed7b455ed6834205]
@startuml
title
    Keyple 2.0 - Modules dependencies - 02/02/2021
end title

' == THEME ==

'Couleurs issues de : https://htmlcolorcodes.com/fr/tableau-de-couleur/tableau-de-couleur-design-plat/
!define COLOR_YELLOW D4AC0D
!define COLOR_RED E74C3C
!define COLOR_PURPLE 8E44AD
!define COLOR_BLUE 3498DB
!define COLOR_GREEN 27AE60
!define COLOR_GREY 2C3E50
skinparam Shadowing false
skinparam component {
    BorderColor #D4AC0D
    ' Red
    BackgroundColor<<red>> #FDEDEC
    BorderColor<<red>> #E74C3C
    ' Purple
    BackgroundColor<<purple>> #F4ECF7
    BorderColor<<purple>> #8E44AD
    ' blue
    BackgroundColor<<blue>> #EBF5FB
    BorderColor<<blue>> #3498DB
    ' Green
    BackgroundColor<<green>> #E9F7EF
    BorderColor<<green>> #27AE60
    ' Grey
    BackgroundColor<<grey>> #EAECEE
    BorderColor<<grey>> #2C3E50
}
skinparam interface {
    BorderColor #D4AC0D
    ' Red
    BackgroundColor<<red>> #FDEDEC
    BorderColor<<red>> #E74C3C
    ' Purple
    BackgroundColor<<purple>> #F4ECF7
    BorderColor<<purple>> #8E44AD
    ' blue
    BackgroundColor<<blue>> #EBF5FB
    BorderColor<<blue>> #3498DB
    ' Green
    BackgroundColor<<green>> #E9F7EF
    BorderColor<<green>> #27AE60
    ' Grey
    BackgroundColor<<grey>> #EAECEE
    BorderColor<<grey>> #2C3E50
}
hide <<red>> stereotype
hide <<purple>> stereotype
hide <<blue>> stereotype
hide <<green>> stereotype
hide <<grey>> stereotype

' == COMPONENTS ==

package "Components having adapters" as packMain {
    [Specific Application] as application <<blue>>
    [**keyple-service**\nService API\nuse <back:cyan>**keyple-commons-api**</back>] as service
    [Specific Plugin\n(PCSC...)\nuse <back:cyan>**keyple-commons-api**</back>] as plugin <<red>>
    [Specific Card Extension\n(Calypso...)\nuse <back:cyan>**keyple-commons-api**</back>] as extension <<green>>
    together {
        [**keyple-distributed-local**\nDistributed Local\nuse <back:cyan>**keyple-commons-api**</back>] as local <<purple>>
        [**keyple-distributed-network**\nDistributed Network] as network <<purple>>
        [**keyple-distributed-remote**\nDistributed Remote\nuse <back:cyan>**keyple-commons-api**</back>] as remote <<purple>>
    }
}
package "Keyple Internal APIs/SPIs (hidden for the specific application)" {
    [**keyple-plugin-api**\nPlugin API] as pluginApi
    [**keyple-card-api**\nCard API\nuse <back:cyan>**keyple-commons-api**</back>] as cardApi
    [**keyple-local-service-api**\nLocal Service API\nuse <back:cyan>**keyple-commons-api**</back>] as localServiceApi
    [**keyple-remote-plugin-api**\nRemote Plugin API] as remotePluginApi
}
[**keyple-utils**] as utils

' == ASSOCIATIONS ==

application - -> plugin #COLOR_BLUE
application - -> service #COLOR_BLUE
application - -> extension #COLOR_BLUE
application - -> local #COLOR_BLUE
application - -> network #COLOR_BLUE
application - -> remote #COLOR_BLUE

extension - -> cardApi #COLOR_GREEN
extension -right-> service #COLOR_GREEN

plugin - -> pluginApi #COLOR_RED

service - -> pluginApi #COLOR_YELLOW
service - -> cardApi #COLOR_YELLOW
service - -> remotePluginApi #COLOR_YELLOW
service - -> localServiceApi #COLOR_YELLOW

local -left-> network #COLOR_PURPLE
local - -> localServiceApi #COLOR_PURPLE

remote -right-> network #COLOR_PURPLE
remote - -> remotePluginApi #COLOR_PURPLE

packMain -up-> utils

@enduml

@startuml
title
    Keyple 2.0 - Modules dependencies - 02/02/2021
end title


skinparam Shadowing false
skinparam component {
    BorderColor #D4AC0D
    BackgroundColor<<red>> #FDEDEC
    BorderColor<<red>> #E74C3C
    BackgroundColor<<purple>> #F4ECF7
    BorderColor<<purple>> #8E44AD
    BackgroundColor<<blue>> #EBF5FB
    BorderColor<<blue>> #3498DB
    BackgroundColor<<green>> #E9F7EF
    BorderColor<<green>> #27AE60
    BackgroundColor<<grey>> #EAECEE
    BorderColor<<grey>> #2C3E50
}
skinparam interface {
    BorderColor #D4AC0D
    BackgroundColor<<red>> #FDEDEC
    BorderColor<<red>> #E74C3C
    BackgroundColor<<purple>> #F4ECF7
    BorderColor<<purple>> #8E44AD
    BackgroundColor<<blue>> #EBF5FB
    BorderColor<<blue>> #3498DB
    BackgroundColor<<green>> #E9F7EF
    BorderColor<<green>> #27AE60
    BackgroundColor<<grey>> #EAECEE
    BorderColor<<grey>> #2C3E50
}
hide <<red>> stereotype
hide <<purple>> stereotype
hide <<blue>> stereotype
hide <<green>> stereotype
hide <<grey>> stereotype


package "Components having adapters" as packMain {
    [Specific Application] as application <<blue>>
    [**keyple-service**\nService API\nuse <back:cyan>**keyple-commons-api**</back>] as service
    [Specific Plugin\n(PCSC...)\nuse <back:cyan>**keyple-commons-api**</back>] as plugin <<red>>
    [Specific Card Extension\n(Calypso...)\nuse <back:cyan>**keyple-commons-api**</back>] as extension <<green>>
    together {
        [**keyple-distributed-local**\nDistributed Local\nuse <back:cyan>**keyple-commons-api**</back>] as local <<purple>>
        [**keyple-distributed-network**\nDistributed Network] as network <<purple>>
        [**keyple-distributed-remote**\nDistributed Remote\nuse <back:cyan>**keyple-commons-api**</back>] as remote <<purple>>
    }
}
package "Keyple Internal APIs/SPIs (hidden for the specific application)" {
    [**keyple-plugin-api**\nPlugin API] as pluginApi
    [**keyple-card-api**\nCard API\nuse <back:cyan>**keyple-commons-api**</back>] as cardApi
    [**keyple-local-service-api**\nLocal Service API\nuse <back:cyan>**keyple-commons-api**</back>] as localServiceApi
    [**keyple-remote-plugin-api**\nRemote Plugin API] as remotePluginApi
}
[**keyple-utils**] as utils


application - -> plugin #3498DB
application - -> service #3498DB
application - -> extension #3498DB
application - -> local #3498DB
application - -> network #3498DB
application - -> remote #3498DB

extension - -> cardApi #27AE60
extension -right-> service #27AE60

plugin - -> pluginApi #E74C3C

service - -> pluginApi #D4AC0D
service - -> cardApi #D4AC0D
service - -> remotePluginApi #D4AC0D
service - -> localServiceApi #D4AC0D

local -left-> network #8E44AD
local - -> localServiceApi #8E44AD

remote -right-> network #8E44AD
remote - -> remotePluginApi #8E44AD

packMain -up-> utils

@enduml

PlantUML version 1.2021.00(Sun Jan 10 11:25:05 CET 2021)
(GPL source distribution)
Java Runtime: OpenJDK Runtime Environment
JVM: OpenJDK 64-Bit Server VM
Default Encoding: Cp1252
Language: fr
Country: FR
--></g></svg>