<?xml version="1.0" encoding="UTF-8" standalone="no"?><svg xmlns="http://www.w3.org/2000/svg" xmlns:xlink="http://www.w3.org/1999/xlink" contentScriptType="application/ecmascript" contentStyleType="text/css" height="1305px" preserveAspectRatio="none" style="width:4620px;height:1305px;" version="1.1" viewBox="0 0 4620 1305" width="4620px" zoomAndPan="magnify"><defs><filter height="1" id="b1gatxdrykxmls0" width="1" x="0" y="0"><feFlood flood-color="#00FFFF" result="flood"/><feComposite in="SourceGraphic" in2="flood" operator="over"/></filter></defs><g><text fill="#000000" font-family="sans-serif" font-size="45" lengthAdjust="spacing" textLength="980" x="1804.375" y="46.7139">Keyple 2.0 - Modules dependencies - 05/02/2021</text><!--MD5=[fa748c0050d71d88d66b284603ec55cc]
cluster packMain--><polygon fill="#FFFFFF" points="191.25,254.1016,723.75,254.1016,741.25,313.125,4578.75,313.125,4578.75,916.6016,191.25,916.6016,191.25,254.1016" style="stroke:#000000;stroke-width:3.75;"/><line style="stroke:#000000;stroke-width:3.75;" x1="191.25" x2="741.25" y1="313.125" y2="313.125"/><text fill="#000000" font-family="sans-serif" font-size="35" font-weight="bold" lengthAdjust="spacing" textLength="517.5" x="201.25" y="295.4346">Components having adapters</text><!--MD5=[0ce6da3c2c739942a6dbf20c6d0899b1]
cluster Keyple Internal APIs/SPIs (hidden for the specific application)--><polygon fill="#FFFFFF" points="603.75,996.6016,1688.75,996.6016,1706.25,1055.625,3423.75,1055.625,3423.75,1289.1016,603.75,1289.1016,603.75,996.6016" style="stroke:#000000;stroke-width:3.75;"/><line style="stroke:#000000;stroke-width:3.75;" x1="603.75" x2="1706.25" y1="1055.625" y2="1055.625"/><text fill="#000000" font-family="sans-serif" font-size="35" font-weight="bold" lengthAdjust="spacing" textLength="1070" x="613.75" y="1037.9346">Keyple Internal APIs/SPIs (hidden for the specific application)</text><!--MD5=[37c33c71ce9550fe283f62c54b59719b]
entity application--><rect fill="#EBF5FB" height="119.0234" style="stroke:#3498DB;stroke-width:3.75;" width="405" x="2213.75" y="364.1016"/><rect fill="#EBF5FB" height="25" style="stroke:#3498DB;stroke-width:3.75;" width="37.5" x="2568.75" y="376.6016"/><rect fill="#EBF5FB" height="5" style="stroke:#3498DB;stroke-width:3.75;" width="10" x="2563.75" y="381.6016"/><rect fill="#EBF5FB" height="5" style="stroke:#3498DB;stroke-width:3.75;" width="10" x="2563.75" y="391.6016"/><text fill="#000000" font-family="sans-serif" font-size="35" lengthAdjust="spacing" textLength="305" x="2251.25" y="450.4346">Specific Application</text><!--MD5=[38bfa9dc6018363cafe15f923a4b8db9]
entity service--><rect fill="#FEFECE" height="163.0469" style="stroke:#D4AC0D;stroke-width:3.75;" width="612.5" x="1025" y="634.1016"/><rect fill="#FEFECE" height="25" style="stroke:#D4AC0D;stroke-width:3.75;" width="37.5" x="1587.5" y="646.6016"/><rect fill="#FEFECE" height="5" style="stroke:#D4AC0D;stroke-width:3.75;" width="10" x="1582.5" y="651.6016"/><rect fill="#FEFECE" height="5" style="stroke:#D4AC0D;stroke-width:3.75;" width="10" x="1582.5" y="661.6016"/><text fill="#000000" font-family="sans-serif" font-size="35" font-weight="bold" lengthAdjust="spacing" textLength="345" x="1062.5" y="720.4346">keyple-java-service</text><text fill="#000000" font-family="sans-serif" font-size="35" lengthAdjust="spacing" textLength="57.5" x="1062.5" y="764.458">use</text><text fill="#000000" filter="url(#b1gatxdrykxmls0)" font-family="sans-serif" font-size="35" font-weight="bold" lengthAdjust="spacing" textLength="445" x="1130" y="764.458">keyple-java-commons-api</text><!--MD5=[8e6a9284dc1da0ef8b54fdd8dc5bfba7]
entity plugin--><rect fill="#FDEDEC" height="163.0469" style="stroke:#E74C3C;stroke-width:3.75;" width="612.5" x="3905" y="634.1016"/><rect fill="#FDEDEC" height="25" style="stroke:#E74C3C;stroke-width:3.75;" width="37.5" x="4467.5" y="646.6016"/><rect fill="#FDEDEC" height="5" style="stroke:#E74C3C;stroke-width:3.75;" width="10" x="4462.5" y="651.6016"/><rect fill="#FDEDEC" height="5" style="stroke:#E74C3C;stroke-width:3.75;" width="10" x="4462.5" y="661.6016"/><text fill="#000000" font-family="sans-serif" font-size="35" lengthAdjust="spacing" textLength="390" x="3942.5" y="720.4346">Specific Plugin (PCSC...)</text><text fill="#000000" font-family="sans-serif" font-size="35" lengthAdjust="spacing" textLength="57.5" x="3942.5" y="764.458">use</text><text fill="#000000" filter="url(#b1gatxdrykxmls0)" font-family="sans-serif" font-size="35" font-weight="bold" lengthAdjust="spacing" textLength="445" x="4010" y="764.458">keyple-java-commons-api</text><!--MD5=[535f43d417660373b2263710d106a2e4]
entity extension--><rect fill="#E9F7EF" height="163.0469" style="stroke:#27AE60;stroke-width:3.75;" width="665" x="271.25" y="634.1016"/><rect fill="#E9F7EF" height="25" style="stroke:#27AE60;stroke-width:3.75;" width="37.5" x="886.25" y="646.6016"/><rect fill="#E9F7EF" height="5" style="stroke:#27AE60;stroke-width:3.75;" width="10" x="881.25" y="651.6016"/><rect fill="#E9F7EF" height="5" style="stroke:#27AE60;stroke-width:3.75;" width="10" x="881.25" y="661.6016"/><text fill="#000000" font-family="sans-serif" font-size="35" lengthAdjust="spacing" textLength="565" x="308.75" y="720.4346">Specific Card Extension (Calypso...)</text><text fill="#000000" font-family="sans-serif" font-size="35" lengthAdjust="spacing" textLength="57.5" x="308.75" y="764.458">use</text><text fill="#000000" filter="url(#b1gatxdrykxmls0)" font-family="sans-serif" font-size="35" font-weight="bold" lengthAdjust="spacing" textLength="445" x="376.25" y="764.458">keyple-java-commons-api</text><!--MD5=[d4fd26f9614fa07fe76bdcffa998e3d3]
entity local--><rect fill="#F4ECF7" height="163.0469" style="stroke:#8E44AD;stroke-width:3.75;" width="612.5" x="3205" y="634.1016"/><rect fill="#F4ECF7" height="25" style="stroke:#8E44AD;stroke-width:3.75;" width="37.5" x="3767.5" y="646.6016"/><rect fill="#F4ECF7" height="5" style="stroke:#8E44AD;stroke-width:3.75;" width="10" x="3762.5" y="651.6016"/><rect fill="#F4ECF7" height="5" style="stroke:#8E44AD;stroke-width:3.75;" width="10" x="3762.5" y="661.6016"/><text fill="#000000" font-family="sans-serif" font-size="35" font-weight="bold" lengthAdjust="spacing" textLength="500" x="3242.5" y="720.4346">keyple-java-distributed-local</text><text fill="#000000" font-family="sans-serif" font-size="35" lengthAdjust="spacing" textLength="57.5" x="3242.5" y="764.458">use</text><text fill="#000000" filter="url(#b1gatxdrykxmls0)" font-family="sans-serif" font-size="35" font-weight="bold" lengthAdjust="spacing" textLength="445" x="3310" y="764.458">keyple-java-commons-api</text><!--MD5=[57220784cd10fd02b95ed95124c16164]
entity network--><rect fill="#F4ECF7" height="119.0234" style="stroke:#8E44AD;stroke-width:3.75;" width="660" x="2456.25" y="655.3516"/><rect fill="#F4ECF7" height="25" style="stroke:#8E44AD;stroke-width:3.75;" width="37.5" x="3066.25" y="667.8516"/><rect fill="#F4ECF7" height="5" style="stroke:#8E44AD;stroke-width:3.75;" width="10" x="3061.25" y="672.8516"/><rect fill="#F4ECF7" height="5" style="stroke:#8E44AD;stroke-width:3.75;" width="10" x="3061.25" y="682.8516"/><text fill="#000000" font-family="sans-serif" font-size="35" font-weight="bold" lengthAdjust="spacing" textLength="560" x="2493.75" y="741.6846">keyple-java-distributed-network</text><!--MD5=[200d7cc177ce404b822df68e5d127056]
entity remote--><rect fill="#F4ECF7" height="163.0469" style="stroke:#8E44AD;stroke-width:3.75;" width="642.5" x="1725" y="634.1016"/><rect fill="#F4ECF7" height="25" style="stroke:#8E44AD;stroke-width:3.75;" width="37.5" x="2317.5" y="646.6016"/><rect fill="#F4ECF7" height="5" style="stroke:#8E44AD;stroke-width:3.75;" width="10" x="2312.5" y="651.6016"/><rect fill="#F4ECF7" height="5" style="stroke:#8E44AD;stroke-width:3.75;" width="10" x="2312.5" y="661.6016"/><text fill="#000000" font-family="sans-serif" font-size="35" font-weight="bold" lengthAdjust="spacing" textLength="542.5" x="1762.5" y="720.4346">keyple-java-distributed-remote</text><text fill="#000000" font-family="sans-serif" font-size="35" lengthAdjust="spacing" textLength="57.5" x="1762.5" y="764.458">use</text><text fill="#000000" filter="url(#b1gatxdrykxmls0)" font-family="sans-serif" font-size="35" font-weight="bold" lengthAdjust="spacing" textLength="445" x="1830" y="764.458">keyple-java-commons-api</text><!--MD5=[c91beeae9d23cda8fa2ee4b23a5f449e]
entity pluginApi--><rect fill="#FEFECE" height="119.0234" style="stroke:#D4AC0D;stroke-width:3.75;" width="487.5" x="2895" y="1107.8516"/><rect fill="#FEFECE" height="25" style="stroke:#D4AC0D;stroke-width:3.75;" width="37.5" x="3332.5" y="1120.3516"/><rect fill="#FEFECE" height="5" style="stroke:#D4AC0D;stroke-width:3.75;" width="10" x="3327.5" y="1125.3516"/><rect fill="#FEFECE" height="5" style="stroke:#D4AC0D;stroke-width:3.75;" width="10" x="3327.5" y="1135.3516"/><text fill="#000000" font-family="sans-serif" font-size="35" font-weight="bold" lengthAdjust="spacing" textLength="387.5" x="2932.5" y="1194.1846">keyple-java-plugin-api</text><!--MD5=[f74f7ef7641fa41957945dcfb119390e]
entity cardApi--><rect fill="#FEFECE" height="163.0469" style="stroke:#D4AC0D;stroke-width:3.75;" width="612.5" x="645" y="1086.6016"/><rect fill="#FEFECE" height="25" style="stroke:#D4AC0D;stroke-width:3.75;" width="37.5" x="1207.5" y="1099.1016"/><rect fill="#FEFECE" height="5" style="stroke:#D4AC0D;stroke-width:3.75;" width="10" x="1202.5" y="1104.1016"/><rect fill="#FEFECE" height="5" style="stroke:#D4AC0D;stroke-width:3.75;" width="10" x="1202.5" y="1114.1016"/><text fill="#000000" font-family="sans-serif" font-size="35" font-weight="bold" lengthAdjust="spacing" textLength="355" x="682.5" y="1172.9346">keyple-java-card-api</text><text fill="#000000" font-family="sans-serif" font-size="35" lengthAdjust="spacing" textLength="57.5" x="682.5" y="1216.958">use</text><text fill="#000000" filter="url(#b1gatxdrykxmls0)" font-family="sans-serif" font-size="35" font-weight="bold" lengthAdjust="spacing" textLength="445" x="750" y="1216.958">keyple-java-commons-api</text><!--MD5=[7befd9ad872e32f647489e758c0991a9]
entity distributedLocalApi--><rect fill="#FEFECE" height="163.0469" style="stroke:#D4AC0D;stroke-width:3.75;" width="665" x="2141.25" y="1086.6016"/><rect fill="#FEFECE" height="25" style="stroke:#D4AC0D;stroke-width:3.75;" width="37.5" x="2756.25" y="1099.1016"/><rect fill="#FEFECE" height="5" style="stroke:#D4AC0D;stroke-width:3.75;" width="10" x="2751.25" y="1104.1016"/><rect fill="#FEFECE" height="5" style="stroke:#D4AC0D;stroke-width:3.75;" width="10" x="2751.25" y="1114.1016"/><text fill="#000000" font-family="sans-serif" font-size="35" font-weight="bold" lengthAdjust="spacing" textLength="565" x="2178.75" y="1172.9346">keyple-java-distributed-local-api</text><text fill="#000000" font-family="sans-serif" font-size="35" lengthAdjust="spacing" textLength="57.5" x="2178.75" y="1216.958">use</text><text fill="#000000" filter="url(#b1gatxdrykxmls0)" font-family="sans-serif" font-size="35" font-weight="bold" lengthAdjust="spacing" textLength="445" x="2246.25" y="1216.958">keyple-java-commons-api</text><!--MD5=[04ffbea9664a4d8b3a5d5b2bcefdf330]
entity distributedRemoteApi--><rect fill="#FEFECE" height="119.0234" style="stroke:#D4AC0D;stroke-width:3.75;" width="707.5" x="1345" y="1107.8516"/><rect fill="#FEFECE" height="25" style="stroke:#D4AC0D;stroke-width:3.75;" width="37.5" x="2002.5" y="1120.3516"/><rect fill="#FEFECE" height="5" style="stroke:#D4AC0D;stroke-width:3.75;" width="10" x="1997.5" y="1125.3516"/><rect fill="#FEFECE" height="5" style="stroke:#D4AC0D;stroke-width:3.75;" width="10" x="1997.5" y="1135.3516"/><text fill="#000000" font-family="sans-serif" font-size="35" font-weight="bold" lengthAdjust="spacing" textLength="607.5" x="1382.5" y="1194.1846">keyple-java-distributed-remote-api</text><!--MD5=[815e17c207bbf712f7f26918c1feb6f8]
entity utils--><rect fill="#FEFECE" height="119.0234" style="stroke:#D4AC0D;stroke-width:3.75;" width="387.5" x="17.5" y="74.1016"/><rect fill="#FEFECE" height="25" style="stroke:#D4AC0D;stroke-width:3.75;" width="37.5" x="355" y="86.6016"/><rect fill="#FEFECE" height="5" style="stroke:#D4AC0D;stroke-width:3.75;" width="10" x="350" y="91.6016"/><rect fill="#FEFECE" height="5" style="stroke:#D4AC0D;stroke-width:3.75;" width="10" x="350" y="101.6016"/><text fill="#000000" font-family="sans-serif" font-size="35" font-weight="bold" lengthAdjust="spacing" textLength="287.5" x="55" y="160.4346">keyple-java-utils</text><!--MD5=[2aaab67f118e87aa91a4fe667771ad2c]
link application to plugin--><path d="M2619.875,430.0041 C2901.95,438.6366 3425.775,468.8591 3858.75,574.1016 C3914.6,587.6766 3973.4,608.1516 4026.625,629.2366 " fill="none" id="application-to-plugin" style="stroke:#3498DB;stroke-width:2.5;"/><polygon fill="#3498DB" points="4038.6,634.0266,4021.4232,616.3855,4026.994,629.3842,4013.9954,634.955,4038.6,634.0266" style="stroke:#3498DB;stroke-width:2.5;"/><!--MD5=[3e74ac74fdcdfc5064d05984678346c7]
link application to service--><path d="M2212.765,482.0766 C2209.7425,482.7641 2206.735,483.4416 2203.75,484.1016 C1974.745,534.7866 1909.6,510.8216 1683.75,574.1016 C1630.4675,589.0316 1574.1325,609.1341 1522.5075,629.3991 " fill="none" id="application-to-service" style="stroke:#3498DB;stroke-width:2.5;"/><polygon fill="#3498DB" points="1510.8775,633.9966,1535.4782,635.0229,1522.5018,629.4004,1528.1244,616.424,1510.8775,633.9966" style="stroke:#3498DB;stroke-width:2.5;"/><!--MD5=[a7759acb4cc58629cc6ce6f72b51fab6]
link application to extension--><path d="M2212.845,482.4891 C2209.7975,483.0491 2206.765,483.5866 2203.75,484.1016 C1666.6975,575.6691 1513.7575,459.0116 981.25,574.1016 C920.72,587.1841 856.82,607.8566 799.15,629.2866 " fill="none" id="application-to-extension" style="stroke:#3498DB;stroke-width:2.5;"/><polygon fill="#3498DB" points="786.9425,633.8691,811.5216,635.3247,798.6453,629.4765,804.4935,616.6002,786.9425,633.8691" style="stroke:#3498DB;stroke-width:2.5;"/><!--MD5=[046f6ae6203124f84c131388280c948c]
link application to local--><path d="M2619.45,456.5691 C2770.6,481.3266 2981.025,521.0166 3161.25,574.1016 C3213.2,589.4041 3268.2,609.3366 3318.8,629.2966 " fill="none" id="application-to-local" style="stroke:#3498DB;stroke-width:2.5;"/><polygon fill="#3498DB" points="3330.9,634.0966,3313.7176,616.461,3319.2926,629.4579,3306.2957,635.0329,3330.9,634.0966" style="stroke:#3498DB;stroke-width:2.5;"/><!--MD5=[bd9f6eb1697b1f1e2665eeca2d41e048]
link application to network--><path d="M2491.125,484.5291 C2552.05,531.6691 2638.05,598.1991 2701.5,647.2866 " fill="none" id="application-to-network" style="stroke:#3498DB;stroke-width:2.5;"/><polygon fill="#3498DB" points="2711.475,655.0116,2699.7909,633.3383,2701.5858,647.366,2687.5581,649.1609,2711.475,655.0116" style="stroke:#3498DB;stroke-width:2.5;"/><!--MD5=[857646e20610b5e7f2f3841a40697034]
link application to remote--><path d="M2341.375,484.5291 C2288.8775,525.1441 2217.775,580.1516 2158.5175,625.9966 " fill="none" id="application-to-remote" style="stroke:#3498DB;stroke-width:2.5;"/><polygon fill="#3498DB" points="2148.3575,633.8566,2172.2728,627.9993,2158.2446,626.2083,2160.0356,612.18,2148.3575,633.8566" style="stroke:#3498DB;stroke-width:2.5;"/><!--MD5=[b84145f68a9638efe3b1cde23adb3c4f]
link extension to cardApi--><path d="M665.075,796.8266 C725.68,874.8691 818.2625,994.0941 881.605,1075.6641 " fill="none" id="extension-to-cardApi" style="stroke:#27AE60;stroke-width:2.5;"/><polygon fill="#27AE60" points="889.9525,1086.4158,884.0479,1062.5121,882.2846,1076.5439,868.2529,1074.7807,889.9525,1086.4158" style="stroke:#27AE60;stroke-width:2.5;"/><!--MD5=[fabadde203f6882db6cc8cc1a1329160]
link extension to service--><path d="M936.95,715.3516 C961.87,715.3516 986.7925,715.3516 1011.7125,715.3516 " fill="none" id="extension-to-service" style="stroke:#27AE60;stroke-width:2.5;"/><polygon fill="#27AE60" points="1024.745,715.3516,1002.245,705.3516,1012.245,715.3516,1002.245,725.3516,1024.745,715.3516" style="stroke:#27AE60;stroke-width:2.5;"/><!--MD5=[e41df91f541512673a0e31599b8ee993]
link plugin to pluginApi--><path d="M4112.975,796.7716 C4044.925,848.2316 3950.425,913.5841 3858.75,956.6016 C3711.5,1025.7016 3536.425,1077.0841 3395.775,1111.5816 " fill="none" id="plugin-to-pluginApi" style="stroke:#E74C3C;stroke-width:2.5;"/><polygon fill="#E74C3C" points="3383.15,1114.6588,3407.3795,1119.0386,3395.2935,1111.6949,3402.6372,1099.6089,3383.15,1114.6588" style="stroke:#E74C3C;stroke-width:2.5;"/><!--MD5=[dd1eccd1e7426faad07553cf68d2ac5f]
link service to pluginApi--><path d="M1417.05,797.1241 C1484.105,853.4791 1582.6175,924.6266 1683.75,956.6016 C1807.455,995.7141 2727.275,938.3791 2851.25,976.6016 C2931.275,1001.2766 3009.925,1055.5766 3064.675,1099.6323 " fill="none" id="service-to-pluginApi" style="stroke:#D4AC0D;stroke-width:2.5;"/><polygon fill="#D4AC0D" points="3074.625,1107.7296,3063.5427,1085.7425,3064.9503,1099.8144,3050.8784,1101.222,3074.625,1107.7296" style="stroke:#D4AC0D;stroke-width:2.5;"/><!--MD5=[2523936cee4f99c1b1f73b34e1a6b0f7]
link service to cardApi--><path d="M1264.1875,796.8266 C1197.6475,875.1866 1095.8475,995.0666 1026.5625,1076.6616 " fill="none" id="service-to-cardApi" style="stroke:#D4AC0D;stroke-width:2.5;"/><polygon fill="#D4AC0D" points="1018.28,1086.4158,1040.4652,1075.7356,1026.37,1076.8868,1025.2188,1062.7916,1018.28,1086.4158" style="stroke:#D4AC0D;stroke-width:2.5;"/><!--MD5=[911ff9493972b9d616a6a191b3acdad0]
link service to distributedRemoteApi--><path d="M1396.105,796.8266 C1466.1125,882.0716 1576.4725,1016.4541 1642.805,1097.2278 " fill="none" id="service-to-distributedRemoteApi" style="stroke:#D4AC0D;stroke-width:2.5;"/><polygon fill="#D4AC0D" points="1651.465,1107.7738,1644.9098,1084.0403,1643.5304,1098.115,1629.4557,1096.7356,1651.465,1107.7738" style="stroke:#D4AC0D;stroke-width:2.5;"/><!--MD5=[35229a0a0734c85a6b51f1905fa13c02]
link service to distributedLocalApi--><path d="M1418.0525,796.7941 C1485.2425,852.5866 1583.4825,923.1641 1683.75,956.6016 C1770.81,985.6341 2007.4675,953.3591 2096.25,976.6016 C2180.6925,998.7091 2268.29,1041.1141 2337.8225,1080.1376 " fill="none" id="service-to-distributedLocalApi" style="stroke:#D4AC0D;stroke-width:2.5;"/><polygon fill="#D4AC0D" points="2348.8225,1086.3681,2334.1741,1066.5773,2337.9463,1080.2071,2324.3165,1083.9792,2348.8225,1086.3681" style="stroke:#D4AC0D;stroke-width:2.5;"/><!--MD5=[6b8af92c48757bac50848b7abb7c7576]
reverse link network to local--><path d="M3129.925,715.3516 C3154.85,715.3516 3179.775,715.3516 3204.7,715.3516 " fill="none" id="network-backto-local" style="stroke:#8E44AD;stroke-width:2.5;"/><polygon fill="#8E44AD" points="3116.9,715.3516,3139.4,725.3516,3129.4,715.3516,3139.4,705.3516,3116.9,715.3516" style="stroke:#8E44AD;stroke-width:2.5;"/><!--MD5=[f8b0df4bff9d8c01b39b5fe2d94c34a6]
link local to distributedLocalApi--><path d="M3424.3,796.9091 C3357.575,852.3741 3260.35,922.4841 3161.25,956.6016 C3030.7,1001.5416 2984.525,940.5691 2851.25,976.6016 C2767.325,999.2916 2680.1,1041.4966 2610.675,1080.2506 " fill="none" id="local-to-distributedLocalApi" style="stroke:#8E44AD;stroke-width:2.5;"/><polygon fill="#8E44AD" points="2599.675,1086.4373,2624.1855,1084.0955,2610.563,1080.2972,2614.3613,1066.6747,2599.675,1086.4373" style="stroke:#8E44AD;stroke-width:2.5;"/><!--MD5=[64fd2d2448bb982cff61e25e19624583]
link remote to network--><path d="M2367.8325,715.3516 C2392.885,715.3516 2417.9375,715.3516 2442.99,715.3516 " fill="none" id="remote-to-network" style="stroke:#8E44AD;stroke-width:2.5;"/><polygon fill="#8E44AD" points="2456.0925,715.3516,2433.5925,705.3516,2443.5925,715.3516,2433.5925,725.3516,2456.0925,715.3516" style="stroke:#8E44AD;stroke-width:2.5;"/><!--MD5=[167487473dec959b258d2eb14d4f8ae2]
link remote to distributedRemoteApi--><path d="M1984.925,796.8266 C1918.725,882.0716 1814.3725,1016.4541 1751.65,1097.2278 " fill="none" id="remote-to-distributedRemoteApi" style="stroke:#8E44AD;stroke-width:2.5;"/><polygon fill="#8E44AD" points="1743.46,1107.7738,1765.1591,1096.1377,1751.1274,1097.9016,1749.3635,1083.8699,1743.46,1107.7738" style="stroke:#8E44AD;stroke-width:2.5;"/><!--MD5=[6fdf7ed957469b98b5ae7e80002d1d76]
reverse link utils to packMain--><path d="M211.25,206.9816 C211.25,217.1844 211.25,228.057 211.25,239.2882 C211.25,242.0961 211.25,244.9263 211.25,247.7741 C211.25,249.198 211.25,250.6263 211.25,252.0584 C211.25,252.4164 211.25,252.7747 211.25,253.1331 " fill="none" id="utils-backto-packMain" style="stroke:#A80036;stroke-width:2.5;"/><polygon fill="#A80036" points="211.25,194.2766,201.25,216.7766,211.25,206.7766,221.25,216.7766,211.25,194.2766" style="stroke:#A80036;stroke-width:2.5;"/><!--MD5=[609315d086004493cfdfa83ba36e7e15]
@startuml
title
    Keyple 2.0 - Modules dependencies - 05/02/2021
end title

' == THEME ==

'Couleurs issues de : https://htmlcolorcodes.com/fr/tableau-de-couleur/tableau-de-couleur-design-plat/
!define COLOR_YELLOW D4AC0D
!define COLOR_RED E74C3C
!define COLOR_PURPLE 8E44AD
!define COLOR_BLUE 3498DB
!define COLOR_GREEN 27AE60
!define COLOR_GREY 2C3E50
skinparam Shadowing false
skinparam component {
    BorderColor #D4AC0D
    ' Red
    BackgroundColor<<red>> #FDEDEC
    BorderColor<<red>> #E74C3C
    ' Purple
    BackgroundColor<<purple>> #F4ECF7
    BorderColor<<purple>> #8E44AD
    ' blue
    BackgroundColor<<blue>> #EBF5FB
    BorderColor<<blue>> #3498DB
    ' Green
    BackgroundColor<<green>> #E9F7EF
    BorderColor<<green>> #27AE60
    ' Grey
    BackgroundColor<<grey>> #EAECEE
    BorderColor<<grey>> #2C3E50
}
skinparam interface {
    BorderColor #D4AC0D
    ' Red
    BackgroundColor<<red>> #FDEDEC
    BorderColor<<red>> #E74C3C
    ' Purple
    BackgroundColor<<purple>> #F4ECF7
    BorderColor<<purple>> #8E44AD
    ' blue
    BackgroundColor<<blue>> #EBF5FB
    BorderColor<<blue>> #3498DB
    ' Green
    BackgroundColor<<green>> #E9F7EF
    BorderColor<<green>> #27AE60
    ' Grey
    BackgroundColor<<grey>> #EAECEE
    BorderColor<<grey>> #2C3E50
}
hide <<red>> stereotype
hide <<purple>> stereotype
hide <<blue>> stereotype
hide <<green>> stereotype
hide <<grey>> stereotype

' == COMPONENTS ==

package "Components having adapters" as packMain {
    [Specific Application] as application <<blue>>
    [**keyple-java-service**\nuse <back:cyan>**keyple-java-commons-api**</back>] as service
    [Specific Plugin (PCSC...)\nuse <back:cyan>**keyple-java-commons-api**</back>] as plugin <<red>>
    [Specific Card Extension (Calypso...)\nuse <back:cyan>**keyple-java-commons-api**</back>] as extension <<green>>
    together {
        [**keyple-java-distributed-local**\nuse <back:cyan>**keyple-java-commons-api**</back>] as local <<purple>>
        [**keyple-java-distributed-network**] as network <<purple>>
        [**keyple-java-distributed-remote**\nuse <back:cyan>**keyple-java-commons-api**</back>] as remote <<purple>>
    }
}
package "Keyple Internal APIs/SPIs (hidden for the specific application)" {
    [**keyple-java-plugin-api**] as pluginApi
    [**keyple-java-card-api**\nuse <back:cyan>**keyple-java-commons-api**</back>] as cardApi
    [**keyple-java-distributed-local-api**\nuse <back:cyan>**keyple-java-commons-api**</back>] as distributedLocalApi
    [**keyple-java-distributed-remote-api**] as distributedRemoteApi
}
[**keyple-java-utils**] as utils

' == ASSOCIATIONS ==

application - -> plugin #COLOR_BLUE
application - -> service #COLOR_BLUE
application - -> extension #COLOR_BLUE
application - -> local #COLOR_BLUE
application - -> network #COLOR_BLUE
application - -> remote #COLOR_BLUE

extension - -> cardApi #COLOR_GREEN
extension -right-> service #COLOR_GREEN

plugin - -> pluginApi #COLOR_RED

service - -> pluginApi #COLOR_YELLOW
service - -> cardApi #COLOR_YELLOW
service - -> distributedRemoteApi #COLOR_YELLOW
service - -> distributedLocalApi #COLOR_YELLOW

local -left-> network #COLOR_PURPLE
local - -> distributedLocalApi #COLOR_PURPLE

remote -right-> network #COLOR_PURPLE
remote - -> distributedRemoteApi #COLOR_PURPLE

packMain -up-> utils

@enduml

@startuml
title
    Keyple 2.0 - Modules dependencies - 05/02/2021
end title


skinparam Shadowing false
skinparam component {
    BorderColor #D4AC0D
    BackgroundColor<<red>> #FDEDEC
    BorderColor<<red>> #E74C3C
    BackgroundColor<<purple>> #F4ECF7
    BorderColor<<purple>> #8E44AD
    BackgroundColor<<blue>> #EBF5FB
    BorderColor<<blue>> #3498DB
    BackgroundColor<<green>> #E9F7EF
    BorderColor<<green>> #27AE60
    BackgroundColor<<grey>> #EAECEE
    BorderColor<<grey>> #2C3E50
}
skinparam interface {
    BorderColor #D4AC0D
    BackgroundColor<<red>> #FDEDEC
    BorderColor<<red>> #E74C3C
    BackgroundColor<<purple>> #F4ECF7
    BorderColor<<purple>> #8E44AD
    BackgroundColor<<blue>> #EBF5FB
    BorderColor<<blue>> #3498DB
    BackgroundColor<<green>> #E9F7EF
    BorderColor<<green>> #27AE60
    BackgroundColor<<grey>> #EAECEE
    BorderColor<<grey>> #2C3E50
}
hide <<red>> stereotype
hide <<purple>> stereotype
hide <<blue>> stereotype
hide <<green>> stereotype
hide <<grey>> stereotype


package "Components having adapters" as packMain {
    [Specific Application] as application <<blue>>
    [**keyple-java-service**\nuse <back:cyan>**keyple-java-commons-api**</back>] as service
    [Specific Plugin (PCSC...)\nuse <back:cyan>**keyple-java-commons-api**</back>] as plugin <<red>>
    [Specific Card Extension (Calypso...)\nuse <back:cyan>**keyple-java-commons-api**</back>] as extension <<green>>
    together {
        [**keyple-java-distributed-local**\nuse <back:cyan>**keyple-java-commons-api**</back>] as local <<purple>>
        [**keyple-java-distributed-network**] as network <<purple>>
        [**keyple-java-distributed-remote**\nuse <back:cyan>**keyple-java-commons-api**</back>] as remote <<purple>>
    }
}
package "Keyple Internal APIs/SPIs (hidden for the specific application)" {
    [**keyple-java-plugin-api**] as pluginApi
    [**keyple-java-card-api**\nuse <back:cyan>**keyple-java-commons-api**</back>] as cardApi
    [**keyple-java-distributed-local-api**\nuse <back:cyan>**keyple-java-commons-api**</back>] as distributedLocalApi
    [**keyple-java-distributed-remote-api**] as distributedRemoteApi
}
[**keyple-java-utils**] as utils


application - -> plugin #3498DB
application - -> service #3498DB
application - -> extension #3498DB
application - -> local #3498DB
application - -> network #3498DB
application - -> remote #3498DB

extension - -> cardApi #27AE60
extension -right-> service #27AE60

plugin - -> pluginApi #E74C3C

service - -> pluginApi #D4AC0D
service - -> cardApi #D4AC0D
service - -> distributedRemoteApi #D4AC0D
service - -> distributedLocalApi #D4AC0D

local -left-> network #8E44AD
local - -> distributedLocalApi #8E44AD

remote -right-> network #8E44AD
remote - -> distributedRemoteApi #8E44AD

packMain -up-> utils

@enduml

PlantUML version 1.2021.01(Tue Feb 02 08:55:08 CET 2021)
(GPL source distribution)
Java Runtime: OpenJDK Runtime Environment
JVM: OpenJDK 64-Bit Server VM
Default Encoding: Cp1252
Language: fr
Country: FR
--></g></svg>