<?xml version="1.0" encoding="UTF-8" standalone="no"?><svg xmlns="http://www.w3.org/2000/svg" xmlns:xlink="http://www.w3.org/1999/xlink" contentScriptType="application/ecmascript" contentStyleType="text/css" height="1322.5px" preserveAspectRatio="none" style="width:4050px;height:1322px;" version="1.1" viewBox="0 0 4050 1322" width="4050px" zoomAndPan="magnify"><defs><filter height="1" id="b1sjk50sys0al70" width="1" x="0" y="0"><feFlood flood-color="#00FFFF" result="flood"/><feComposite in="SourceGraphic" in2="flood" operator="over"/></filter></defs><g><text fill="#000000" font-family="sans-serif" font-size="45" lengthAdjust="spacing" textLength="980" x="1519.375" y="46.7139">Keyple 2.0 - Modules dependencies - 21/05/2021</text><!--MD5=[fa748c0050d71d88d66b284603ec55cc]
cluster packMain--><polygon fill="#F8F9F9" points="191.25,254.1016,723.75,254.1016,741.25,313.125,4008.75,313.125,4008.75,976.6016,191.25,976.6016,191.25,254.1016" style="stroke:#000000;stroke-width:3.75;"/><line style="stroke:#000000;stroke-width:3.75;" x1="191.25" x2="741.25" y1="313.125" y2="313.125"/><text fill="#000000" font-family="sans-serif" font-size="35" font-weight="bold" lengthAdjust="spacing" textLength="517.5" x="201.25" y="295.4346">Components having adapters</text><!--MD5=[867378565e6f99e68f2ca6b68bfc0810]
cluster packApi--><polygon fill="#F8F9F9" points="731.25,1056.6016,1686.25,1056.6016,1703.75,1115.625,3623.75,1115.625,3623.75,1306.6016,731.25,1306.6016,731.25,1056.6016" style="stroke:#000000;stroke-width:3.75;"/><line style="stroke:#000000;stroke-width:3.75;" x1="731.25" x2="1703.75" y1="1115.625" y2="1115.625"/><text fill="#000000" font-family="sans-serif" font-size="35" font-weight="bold" lengthAdjust="spacing" textLength="940" x="741.25" y="1097.9346">Internal APIs/SPIs (hidden for the specific application)</text><!--MD5=[37c33c71ce9550fe283f62c54b59719b]
entity application--><rect fill="#EBF5FB" height="119.0234" style="stroke:#3498DB;stroke-width:3.75;" width="405" x="1898.75" y="424.1016"/><rect fill="#EBF5FB" height="25" style="stroke:#3498DB;stroke-width:3.75;" width="37.5" x="2253.75" y="436.6016"/><rect fill="#EBF5FB" height="5" style="stroke:#3498DB;stroke-width:3.75;" width="10" x="2248.75" y="441.6016"/><rect fill="#EBF5FB" height="5" style="stroke:#3498DB;stroke-width:3.75;" width="10" x="2248.75" y="451.6016"/><text fill="#000000" font-family="sans-serif" font-size="35" lengthAdjust="spacing" textLength="305" x="1936.25" y="510.4346">Specific Application</text><!--MD5=[8e6a9284dc1da0ef8b54fdd8dc5bfba7]
entity plugin--><rect fill="#FDEDEC" height="163.0469" style="stroke:#E74C3C;stroke-width:3.75;" width="612.5" x="1845" y="694.1016"/><rect fill="#FDEDEC" height="25" style="stroke:#E74C3C;stroke-width:3.75;" width="37.5" x="2407.5" y="706.6016"/><rect fill="#FDEDEC" height="5" style="stroke:#E74C3C;stroke-width:3.75;" width="10" x="2402.5" y="711.6016"/><rect fill="#FDEDEC" height="5" style="stroke:#E74C3C;stroke-width:3.75;" width="10" x="2402.5" y="721.6016"/><text fill="#000000" font-family="sans-serif" font-size="35" lengthAdjust="spacing" textLength="390" x="1882.5" y="780.4346">Specific Plugin (PCSC...)</text><text fill="#000000" font-family="sans-serif" font-size="35" lengthAdjust="spacing" textLength="57.5" x="1882.5" y="824.458">use</text><text fill="#000000" filter="url(#b1sjk50sys0al70)" font-family="sans-serif" font-size="35" font-weight="bold" lengthAdjust="spacing" textLength="445" x="1950" y="824.458">keyple-java-commons-api</text><!--MD5=[535f43d417660373b2263710d106a2e4]
entity extension--><rect fill="#E9F7EF" height="163.0469" style="stroke:#27AE60;stroke-width:3.75;" width="665" x="391.25" y="694.1016"/><rect fill="#E9F7EF" height="25" style="stroke:#27AE60;stroke-width:3.75;" width="37.5" x="1006.25" y="706.6016"/><rect fill="#E9F7EF" height="5" style="stroke:#27AE60;stroke-width:3.75;" width="10" x="1001.25" y="711.6016"/><rect fill="#E9F7EF" height="5" style="stroke:#27AE60;stroke-width:3.75;" width="10" x="1001.25" y="721.6016"/><text fill="#000000" font-family="sans-serif" font-size="35" lengthAdjust="spacing" textLength="565" x="428.75" y="780.4346">Specific Card Extension (Calypso...)</text><text fill="#000000" font-family="sans-serif" font-size="35" lengthAdjust="spacing" textLength="57.5" x="428.75" y="824.458">use</text><text fill="#000000" filter="url(#b1sjk50sys0al70)" font-family="sans-serif" font-size="35" font-weight="bold" lengthAdjust="spacing" textLength="445" x="496.25" y="824.458">keyple-java-commons-api</text><!--MD5=[0fda63aba32982abbdb07b83db27d91d]
entity readerApi--><rect fill="#FDF2E9" height="119.0234" style="stroke:#E67E22;stroke-width:3.75;" width="725" x="1038.75" y="424.1016"/><rect fill="#FDF2E9" height="25" style="stroke:#E67E22;stroke-width:3.75;" width="37.5" x="1713.75" y="436.6016"/><rect fill="#FDF2E9" height="5" style="stroke:#E67E22;stroke-width:3.75;" width="10" x="1708.75" y="441.6016"/><rect fill="#FDF2E9" height="5" style="stroke:#E67E22;stroke-width:3.75;" width="10" x="1708.75" y="451.6016"/><text fill="#000000" font-family="sans-serif" font-size="35" font-weight="bold" lengthAdjust="spacing" textLength="625" x="1076.25" y="510.4346">calypsonet-terminal-reader-java-api</text><!--MD5=[38bfa9dc6018363cafe15f923a4b8db9]
entity service--><rect fill="#FEFECE" height="163.0469" style="stroke:#D4AC0D;stroke-width:3.75;" width="612.5" x="1145" y="694.1016"/><rect fill="#FEFECE" height="25" style="stroke:#D4AC0D;stroke-width:3.75;" width="37.5" x="1707.5" y="706.6016"/><rect fill="#FEFECE" height="5" style="stroke:#D4AC0D;stroke-width:3.75;" width="10" x="1702.5" y="711.6016"/><rect fill="#FEFECE" height="5" style="stroke:#D4AC0D;stroke-width:3.75;" width="10" x="1702.5" y="721.6016"/><text fill="#000000" font-family="sans-serif" font-size="35" font-weight="bold" lengthAdjust="spacing" textLength="345" x="1182.5" y="780.4346">keyple-java-service</text><text fill="#000000" font-family="sans-serif" font-size="35" lengthAdjust="spacing" textLength="57.5" x="1182.5" y="824.458">use</text><text fill="#000000" filter="url(#b1sjk50sys0al70)" font-family="sans-serif" font-size="35" font-weight="bold" lengthAdjust="spacing" textLength="445" x="1250" y="824.458">keyple-java-commons-api</text><!--MD5=[91a1a4d9fd79d02b8727f340600b76ba]
entity serviceResource--><rect fill="#EAECEE" height="119.0234" style="stroke:#2C3E50;stroke-width:3.75;" width="617.5" x="332.5" y="424.1016"/><rect fill="#EAECEE" height="25" style="stroke:#2C3E50;stroke-width:3.75;" width="37.5" x="900" y="436.6016"/><rect fill="#EAECEE" height="5" style="stroke:#2C3E50;stroke-width:3.75;" width="10" x="895" y="441.6016"/><rect fill="#EAECEE" height="5" style="stroke:#2C3E50;stroke-width:3.75;" width="10" x="895" y="451.6016"/><text fill="#000000" font-family="sans-serif" font-size="35" font-weight="bold" lengthAdjust="spacing" textLength="517.5" x="370" y="510.4346">keyple-java-service-resource</text><!--MD5=[d4fd26f9614fa07fe76bdcffa998e3d3]
entity local--><rect fill="#F4ECF7" height="163.0469" style="stroke:#8E44AD;stroke-width:3.75;" width="612.5" x="2545" y="694.1016"/><rect fill="#F4ECF7" height="25" style="stroke:#8E44AD;stroke-width:3.75;" width="37.5" x="3107.5" y="706.6016"/><rect fill="#F4ECF7" height="5" style="stroke:#8E44AD;stroke-width:3.75;" width="10" x="3102.5" y="711.6016"/><rect fill="#F4ECF7" height="5" style="stroke:#8E44AD;stroke-width:3.75;" width="10" x="3102.5" y="721.6016"/><text fill="#000000" font-family="sans-serif" font-size="35" font-weight="bold" lengthAdjust="spacing" textLength="500" x="2582.5" y="780.4346">keyple-java-distributed-local</text><text fill="#000000" font-family="sans-serif" font-size="35" lengthAdjust="spacing" textLength="57.5" x="2582.5" y="824.458">use</text><text fill="#000000" filter="url(#b1sjk50sys0al70)" font-family="sans-serif" font-size="35" font-weight="bold" lengthAdjust="spacing" textLength="445" x="2650" y="824.458">keyple-java-commons-api</text><!--MD5=[57220784cd10fd02b95ed95124c16164]
entity network--><rect fill="#F4ECF7" height="119.0234" style="stroke:#8E44AD;stroke-width:3.75;" width="660" x="2543.75" y="424.1016"/><rect fill="#F4ECF7" height="25" style="stroke:#8E44AD;stroke-width:3.75;" width="37.5" x="3153.75" y="436.6016"/><rect fill="#F4ECF7" height="5" style="stroke:#8E44AD;stroke-width:3.75;" width="10" x="3148.75" y="441.6016"/><rect fill="#F4ECF7" height="5" style="stroke:#8E44AD;stroke-width:3.75;" width="10" x="3148.75" y="451.6016"/><text fill="#000000" font-family="sans-serif" font-size="35" font-weight="bold" lengthAdjust="spacing" textLength="560" x="2581.25" y="510.4346">keyple-java-distributed-network</text><!--MD5=[200d7cc177ce404b822df68e5d127056]
entity remote--><rect fill="#F4ECF7" height="163.0469" style="stroke:#8E44AD;stroke-width:3.75;" width="642.5" x="3245" y="694.1016"/><rect fill="#F4ECF7" height="25" style="stroke:#8E44AD;stroke-width:3.75;" width="37.5" x="3837.5" y="706.6016"/><rect fill="#F4ECF7" height="5" style="stroke:#8E44AD;stroke-width:3.75;" width="10" x="3832.5" y="711.6016"/><rect fill="#F4ECF7" height="5" style="stroke:#8E44AD;stroke-width:3.75;" width="10" x="3832.5" y="721.6016"/><text fill="#000000" font-family="sans-serif" font-size="35" font-weight="bold" lengthAdjust="spacing" textLength="542.5" x="3282.5" y="780.4346">keyple-java-distributed-remote</text><text fill="#000000" font-family="sans-serif" font-size="35" lengthAdjust="spacing" textLength="57.5" x="3282.5" y="824.458">use</text><text fill="#000000" filter="url(#b1sjk50sys0al70)" font-family="sans-serif" font-size="35" font-weight="bold" lengthAdjust="spacing" textLength="445" x="3350" y="824.458">keyple-java-commons-api</text><!--MD5=[c91beeae9d23cda8fa2ee4b23a5f449e]
entity pluginApi--><rect fill="#FEFECE" height="119.0234" style="stroke:#D4AC0D;stroke-width:3.75;" width="487.5" x="1545" y="1146.6016"/><rect fill="#FEFECE" height="25" style="stroke:#D4AC0D;stroke-width:3.75;" width="37.5" x="1982.5" y="1159.1016"/><rect fill="#FEFECE" height="5" style="stroke:#D4AC0D;stroke-width:3.75;" width="10" x="1977.5" y="1164.1016"/><rect fill="#FEFECE" height="5" style="stroke:#D4AC0D;stroke-width:3.75;" width="10" x="1977.5" y="1174.1016"/><text fill="#000000" font-family="sans-serif" font-size="35" font-weight="bold" lengthAdjust="spacing" textLength="387.5" x="1582.5" y="1232.9346">keyple-java-plugin-api</text><!--MD5=[f74f7ef7641fa41957945dcfb119390e]
entity cardApi--><rect fill="#FDF2E9" height="119.0234" style="stroke:#E67E22;stroke-width:3.75;" width="685" x="771.25" y="1146.6016"/><rect fill="#FDF2E9" height="25" style="stroke:#E67E22;stroke-width:3.75;" width="37.5" x="1406.25" y="1159.1016"/><rect fill="#FDF2E9" height="5" style="stroke:#E67E22;stroke-width:3.75;" width="10" x="1401.25" y="1164.1016"/><rect fill="#FDF2E9" height="5" style="stroke:#E67E22;stroke-width:3.75;" width="10" x="1401.25" y="1174.1016"/><text fill="#000000" font-family="sans-serif" font-size="35" font-weight="bold" lengthAdjust="spacing" textLength="585" x="808.75" y="1232.9346">calypsonet-terminal-card-java-api</text><!--MD5=[7befd9ad872e32f647489e758c0991a9]
entity distributedLocalApi--><rect fill="#FEFECE" height="119.0234" style="stroke:#D4AC0D;stroke-width:3.75;" width="665" x="2121.25" y="1146.6016"/><rect fill="#FEFECE" height="25" style="stroke:#D4AC0D;stroke-width:3.75;" width="37.5" x="2736.25" y="1159.1016"/><rect fill="#FEFECE" height="5" style="stroke:#D4AC0D;stroke-width:3.75;" width="10" x="2731.25" y="1164.1016"/><rect fill="#FEFECE" height="5" style="stroke:#D4AC0D;stroke-width:3.75;" width="10" x="2731.25" y="1174.1016"/><text fill="#000000" font-family="sans-serif" font-size="35" font-weight="bold" lengthAdjust="spacing" textLength="565" x="2158.75" y="1232.9346">keyple-java-distributed-local-api</text><!--MD5=[04ffbea9664a4d8b3a5d5b2bcefdf330]
entity distributedRemoteApi--><rect fill="#FEFECE" height="119.0234" style="stroke:#D4AC0D;stroke-width:3.75;" width="707.5" x="2875" y="1146.6016"/><rect fill="#FEFECE" height="25" style="stroke:#D4AC0D;stroke-width:3.75;" width="37.5" x="3532.5" y="1159.1016"/><rect fill="#FEFECE" height="5" style="stroke:#D4AC0D;stroke-width:3.75;" width="10" x="3527.5" y="1164.1016"/><rect fill="#FEFECE" height="5" style="stroke:#D4AC0D;stroke-width:3.75;" width="10" x="3527.5" y="1174.1016"/><text fill="#000000" font-family="sans-serif" font-size="35" font-weight="bold" lengthAdjust="spacing" textLength="607.5" x="2912.5" y="1232.9346">keyple-java-distributed-remote-api</text><!--MD5=[fd35d086f3360a91061ab5b89379d40a]
entity util--><rect fill="#FEFECE" height="119.0234" style="stroke:#D4AC0D;stroke-width:3.75;" width="387.5" x="17.5" y="74.1016"/><rect fill="#FEFECE" height="25" style="stroke:#D4AC0D;stroke-width:3.75;" width="37.5" x="355" y="86.6016"/><rect fill="#FEFECE" height="5" style="stroke:#D4AC0D;stroke-width:3.75;" width="10" x="350" y="91.6016"/><rect fill="#FEFECE" height="5" style="stroke:#D4AC0D;stroke-width:3.75;" width="10" x="350" y="101.6016"/><text fill="#000000" font-family="sans-serif" font-size="35" font-weight="bold" lengthAdjust="spacing" textLength="287.5" x="55" y="160.4346">keyple-java-utils</text><!--MD5=[2aaab67f118e87aa91a4fe667771ad2c]
link application to plugin--><path d="M2111.3675,544.5291 C2118.2025,583.6516 2127.3675,636.1291 2135.19,680.9091 " fill="none" id="application-to-plugin" style="stroke:#3498DB;stroke-width:2.5;"/><polygon fill="#3498DB" points="2137.3575,693.3166,2143.3375,669.4316,2135.207,681.0029,2123.6357,672.8724,2137.3575,693.3166" style="stroke:#3498DB;stroke-width:2.5;"/><!--MD5=[3e74ac74fdcdfc5064d05984678346c7]
link application to service--><path d="M1970.495,544.1841 C1876.4225,585.6116 1748.0525,642.1441 1642.49,688.6316 " fill="none" id="application-to-service" style="stroke:#3498DB;stroke-width:2.5;"/><polygon fill="#3498DB" points="1631.045,693.6716,1655.667,693.7587,1642.4855,688.6353,1647.609,675.4538,1631.045,693.6716" style="stroke:#3498DB;stroke-width:2.5;"/><!--MD5=[66d2f20ef1e370a244d1d877bf3fc024]
reverse link serviceResource to application--><path d="M699.1275,413.8216 C769.5125,336.1991 896.51,220.0091 1037.5,204.1016 C1117.2725,195.1016 1680.2275,195.1016 1760,204.1016 C1779.82,206.3391 1786.065,204.8766 1803.75,214.1016 C1904.55,266.6866 1997.5975,361.7691 2051.8975,423.9116 " fill="none" id="serviceResource-backto-application" style="stroke:#3498DB;stroke-width:2.5;"/><polygon fill="#3498DB" points="689.995,424.0291,712.4495,413.9273,698.3292,414.7129,697.5436,400.5926,689.995,424.0291" style="stroke:#3498DB;stroke-width:2.5;"/><!--MD5=[db23a741fbf4de00f2351072712c6d6c]
link application to readerApi--><path d="M1898.5175,484.1016 C1857.9525,484.1016 1817.39,484.1016 1776.8275,484.1016 " fill="none" id="application-to-readerApi" style="stroke:#3498DB;stroke-width:2.5;"/><polygon fill="#3498DB" points="1764.2375,484.1016,1786.7375,494.1016,1776.7375,484.1016,1786.7375,474.1016,1764.2375,484.1016" style="stroke:#3498DB;stroke-width:2.5;"/><!--MD5=[a7759acb4cc58629cc6ce6f72b51fab6]
link application to extension--><path d="M1898.22,528.6641 C1696.1725,570.5391 1377.26,636.6766 1101.25,694.1016 C1090.885,696.2591 1080.3625,698.4491 1069.7375,700.6616 " fill="none" id="application-to-extension" style="stroke:#3498DB;stroke-width:2.5;"/><polygon fill="#3498DB" points="1057.22,703.2666,1081.2852,708.4738,1069.4579,700.7204,1077.2114,688.8931,1057.22,703.2666" style="stroke:#3498DB;stroke-width:2.5;"/><!--MD5=[046f6ae6203124f84c131388280c948c]
link application to local--><path d="M2252.1225,544.1841 C2361.3125,585.8591 2510.55,642.8191 2632.75,689.4616 " fill="none" id="application-to-local" style="stroke:#3498DB;stroke-width:2.5;"/><polygon fill="#3498DB" points="2644.5,693.9416,2627.0075,676.6135,2632.8121,689.5095,2619.9161,695.3141,2644.5,693.9416" style="stroke:#3498DB;stroke-width:2.5;"/><!--MD5=[4154da97319af6ee8de72a8c460b84b7]
reverse link network to application--><path d="M2530.275,484.1016 C2454.9125,484.1016 2379.5475,484.1016 2304.1825,484.1016 " fill="none" id="network-backto-application" style="stroke:#3498DB;stroke-width:2.5;"/><polygon fill="#3498DB" points="2543.35,484.1016,2520.85,474.1016,2530.85,484.1016,2520.85,494.1016,2543.35,484.1016" style="stroke:#3498DB;stroke-width:2.5;"/><!--MD5=[857646e20610b5e7f2f3841a40697034]
link application to remote--><path d="M2304.2975,523.2666 C2525.275,563.5516 2888.85,630.9466 3201.25,694.1016 C3211.525,696.1791 3221.95,698.3091 3232.5,700.4741 " fill="none" id="application-to-remote" style="stroke:#3498DB;stroke-width:2.5;"/><polygon fill="#3498DB" points="3244.9,703.0341,3224.8556,688.7346,3232.6527,700.5332,3220.8542,708.3303,3244.9,703.0341" style="stroke:#3498DB;stroke-width:2.5;"/><!--MD5=[b84145f68a9638efe3b1cde23adb3c4f]
link extension to cardApi--><path d="M796.1925,857.0266 C869.7675,937.4416 982.49,1060.6416 1051.9725,1136.5821 " fill="none" id="extension-to-cardApi" style="stroke:#27AE60;stroke-width:2.5;"/><polygon fill="#27AE60" points="1061.0625,1146.5168,1053.2511,1123.1666,1052.6242,1137.2949,1038.4959,1136.668,1061.0625,1146.5168" style="stroke:#27AE60;stroke-width:2.5;"/><!--MD5=[39b1edf8889298d7473da6cfa063b6c7]
reverse link readerApi to extension--><path d="M1252.8575,549.2991 C1152.22,591.8191 1018.395,648.3616 910.5125,693.9416 " fill="none" id="readerApi-backto-extension" style="stroke:#27AE60;stroke-width:2.5;"/><polygon fill="#27AE60" points="1264.9625,544.1841,1240.3446,543.7283,1253.4478,549.0485,1248.1277,562.1518,1264.9625,544.1841" style="stroke:#27AE60;stroke-width:2.5;"/><!--MD5=[05d0944eb5037f285fc00ff169c3449f]
reverse link serviceResource to extension--><path d="M661.53,556.9641 C673.4275,598.2516 688.4975,650.5391 700.8275,693.3166 " fill="none" id="serviceResource-backto-extension" style="stroke:#27AE60;stroke-width:2.5;"/><polygon fill="#27AE60" points="657.945,544.5291,654.5655,568.9182,661.4059,556.5404,673.7837,563.3808,657.945,544.5291" style="stroke:#27AE60;stroke-width:2.5;"/><!--MD5=[e41df91f541512673a0e31599b8ee993]
link plugin to pluginApi--><path d="M2083.915,857.0266 C2015.5275,937.4416 1910.755,1060.6416 1846.1725,1136.5821 " fill="none" id="plugin-to-pluginApi" style="stroke:#E74C3C;stroke-width:2.5;"/><polygon fill="#E74C3C" points="1837.7225,1146.5168,1859.9172,1135.8564,1845.821,1136.995,1844.6824,1122.8988,1837.7225,1146.5168" style="stroke:#E74C3C;stroke-width:2.5;"/><!--MD5=[3bb137f5d2fdf2eddbf56d075b4f5976]
reverse link readerApi to service--><path d="M1413.54,556.9641 C1420.7525,598.2516 1429.885,650.5391 1437.3575,693.3166 " fill="none" id="readerApi-backto-service" style="stroke:#D4AC0D;stroke-width:2.5;"/><polygon fill="#D4AC0D" points="1411.3675,544.5291,1405.3863,568.4137,1413.5174,556.8428,1425.0883,564.9739,1411.3675,544.5291" style="stroke:#D4AC0D;stroke-width:2.5;"/><!--MD5=[dd1eccd1e7426faad07553cf68d2ac5f]
link service to pluginApi--><path d="M1513.94,857.0266 C1577.6125,937.4416 1675.16,1060.6416 1735.29,1136.5821 " fill="none" id="service-to-pluginApi" style="stroke:#D4AC0D;stroke-width:2.5;"/><polygon fill="#D4AC0D" points="1743.155,1146.5168,1737.0277,1122.6693,1735.3954,1136.7169,1721.3478,1135.0846,1743.155,1146.5168" style="stroke:#D4AC0D;stroke-width:2.5;"/><!--MD5=[2523936cee4f99c1b1f73b34e1a6b0f7]
link service to cardApi--><path d="M1388.56,857.0266 C1324.8875,937.4416 1227.34,1060.6416 1167.21,1136.5821 " fill="none" id="service-to-cardApi" style="stroke:#D4AC0D;stroke-width:2.5;"/><polygon fill="#D4AC0D" points="1159.345,1146.5168,1181.1522,1135.0846,1167.1046,1136.7169,1165.4723,1122.6693,1159.345,1146.5168" style="stroke:#D4AC0D;stroke-width:2.5;"/><!--MD5=[911ff9493972b9d616a6a191b3acdad0]
link service to distributedRemoteApi--><path d="M1526.9975,857.5516 C1586.1125,913.7316 1673.535,984.4616 1766.25,1016.6016 C1877.8125,1055.2766 2713.2,1012.2541 2828.75,1036.6016 C2927.75,1057.4641 3033.05,1102.5841 3110.75,1140.7426 " fill="none" id="service-to-distributedRemoteApi" style="stroke:#D4AC0D;stroke-width:2.5;"/><polygon fill="#D4AC0D" points="3122,1146.3183,3106.3075,1127.3447,3110.8079,1140.7517,3097.401,1145.2521,3122,1146.3183" style="stroke:#D4AC0D;stroke-width:2.5;"/><!--MD5=[35229a0a0734c85a6b51f1905fa13c02]
link service to distributedLocalApi--><path d="M1528.69,857.4891 C1588.005,912.8566 1674.935,982.5966 1766.25,1016.6016 C1895.6325,1064.7841 1942.1775,1003.6466 2076.25,1036.6016 C2168.4475,1059.2641 2266.2675,1103.2958 2339.2225,1140.5278 " fill="none" id="service-to-distributedLocalApi" style="stroke:#D4AC0D;stroke-width:2.5;"/><polygon fill="#D4AC0D" points="2350.715,1146.4406,2335.2865,1127.2517,2339.601,1140.7196,2326.1331,1145.0341,2350.715,1146.4406" style="stroke:#D4AC0D;stroke-width:2.5;"/><!--MD5=[cfe32774c3c647fd7ab4615241b7e640]
link serviceResource to readerApi--><path d="M950.7425,484.1016 C975.7175,484.1016 1000.695,484.1016 1025.67,484.1016 " fill="none" id="serviceResource-to-readerApi" style="stroke:#2C3E50;stroke-width:2.5;"/><polygon fill="#2C3E50" points="1038.7325,484.1016,1016.2325,474.1016,1026.2325,484.1016,1016.2325,494.1016,1038.7325,484.1016" style="stroke:#2C3E50;stroke-width:2.5;"/><!--MD5=[ded5d3d861a905cc39dafceb68152eca]
link serviceResource to service--><path d="M804.19,544.1841 C922.3575,585.9441 1083.945,643.0466 1216.08,689.7441 " fill="none" id="serviceResource-to-service" style="stroke:#2C3E50;stroke-width:2.5;"/><polygon fill="#2C3E50" points="1227.9625,693.9416,1210.0793,677.017,1216.1766,689.7772,1203.4163,695.8745,1227.9625,693.9416" style="stroke:#2C3E50;stroke-width:2.5;"/><!--MD5=[6b8af92c48757bac50848b7abb7c7576]
reverse link network to local--><path d="M2868.125,558.0366 C2864.9,599.1516 2860.825,650.9091 2857.5,693.3166 " fill="none" id="network-backto-local" style="stroke:#8E44AD;stroke-width:2.5;"/><polygon fill="#8E44AD" points="2869.2,544.5291,2857.4635,566.174,2868.2181,556.9904,2877.4017,567.7451,2869.2,544.5291" style="stroke:#8E44AD;stroke-width:2.5;"/><!--MD5=[f8b0df4bff9d8c01b39b5fe2d94c34a6]
link local to distributedLocalApi--><path d="M2777.425,857.0266 C2702.425,937.4416 2587.525,1060.6416 2516.715,1136.5821 " fill="none" id="local-to-distributedLocalApi" style="stroke:#8E44AD;stroke-width:2.5;"/><polygon fill="#8E44AD" points="2507.45,1146.5168,2530.1082,1136.8807,2515.9747,1137.3746,2515.4808,1123.2411,2507.45,1146.5168" style="stroke:#8E44AD;stroke-width:2.5;"/><!--MD5=[eaffbedb458b00db5e9113ca809c1ddf]
reverse link network to remote--><path d="M3024.8,549.0391 C3127.725,591.5891 3264.85,648.2691 3375.35,693.9416 " fill="none" id="network-backto-remote" style="stroke:#8E44AD;stroke-width:2.5;"/><polygon fill="#8E44AD" points="3013.05,544.1841,3030.0084,562.0352,3024.5979,548.9689,3037.6642,543.5585,3013.05,544.1841" style="stroke:#8E44AD;stroke-width:2.5;"/><!--MD5=[167487473dec959b258d2eb14d4f8ae2]
link remote to distributedRemoteApi--><path d="M3503.55,857.0266 C3439.9,937.4416 3342.35,1060.6416 3282.2,1136.5821 " fill="none" id="remote-to-distributedRemoteApi" style="stroke:#8E44AD;stroke-width:2.5;"/><polygon fill="#8E44AD" points="3274.35,1146.5168,3296.1653,1135.1001,3282.1165,1136.7224,3280.4942,1122.6736,3274.35,1146.5168" style="stroke:#8E44AD;stroke-width:2.5;"/><!--MD5=[109eb4672719e4a56f32411882888b63]
reverse link util to packMain--><path d="M211.25,207.2766 C211.25,219.6878 211.25,233.1945 211.25,247.3396 C211.25,249.1077 211.25,250.8858 211.25,252.673 C211.25,253.1198 211.25,253.5672 211.25,254.0151 " fill="none" id="util-backto-packMain" style="stroke:#A80036;stroke-width:2.5;"/><polygon fill="#A80036" points="211.25,194.3466,201.25,216.8466,211.25,206.8466,221.25,216.8466,211.25,194.3466" style="stroke:#A80036;stroke-width:2.5;"/><!--MD5=[10d61679184d2895ab532355f1254d59]
@startuml
title
    Keyple 2.0 - Modules dependencies - 21/05/2021
end title

' == THEME ==

'Couleurs issues de : https://htmlcolorcodes.com/fr/tableau-de-couleur/tableau-de-couleur-design-plat/
!define C_GREY1 F8F9F9
!define COLOR_YELLOW D4AC0D
!define COLOR_RED E74C3C
!define COLOR_PURPLE 8E44AD
!define COLOR_BLUE 3498DB
!define COLOR_GREEN 27AE60
!define COLOR_GREY 2C3E50
skinparam Shadowing false
skinparam component {
    BorderColor #D4AC0D
    ' Red
    BackgroundColor<<red>> #FDEDEC
    BorderColor<<red>> #E74C3C
    ' Purple
    BackgroundColor<<purple>> #F4ECF7
    BorderColor<<purple>> #8E44AD
    ' blue
    BackgroundColor<<blue>> #EBF5FB
    BorderColor<<blue>> #3498DB
    ' Green
    BackgroundColor<<green>> #E9F7EF
    BorderColor<<green>> #27AE60
    ' Orange
    BackgroundColor<<orange>> #FDF2E9
    BorderColor<<orange>> #E67E22
    ' Grey
    BackgroundColor<<grey>> #EAECEE
    BorderColor<<grey>> #2C3E50
}
skinparam interface {
    BorderColor #D4AC0D
    ' Red
    BackgroundColor<<red>> #FDEDEC
    BorderColor<<red>> #E74C3C
    ' Purple
    BackgroundColor<<purple>> #F4ECF7
    BorderColor<<purple>> #8E44AD
    ' blue
    BackgroundColor<<blue>> #EBF5FB
    BorderColor<<blue>> #3498DB
    ' Green
    BackgroundColor<<green>> #E9F7EF
    BorderColor<<green>> #27AE60
    ' Orange
    BackgroundColor<<orange>> #FDF2E9
    BorderColor<<orange>> #E67E22
    ' Grey
    BackgroundColor<<grey>> #EAECEE
    BorderColor<<grey>> #2C3E50
}
hide <<red>> stereotype
hide <<purple>> stereotype
hide <<blue>> stereotype
hide <<green>> stereotype
hide <<orange>> stereotype
hide <<grey>> stereotype

' == COMPONENTS ==

package "Components having adapters" as packMain #C_GREY1 {
    [Specific Application] as application <<blue>>
    [Specific Plugin (PCSC...)\nuse <back:cyan>**keyple-java-commons-api**</back>] as plugin <<red>>
    together {
        [Specific Card Extension (Calypso...)\nuse <back:cyan>**keyple-java-commons-api**</back>] as extension <<green>>
        [**calypsonet-terminal-reader-java-api**] as readerApi <<orange>>
        [**keyple-java-service**\nuse <back:cyan>**keyple-java-commons-api**</back>] as service
        [**keyple-java-service-resource**] as serviceResource <<grey>>
    }
    together {
        [**keyple-java-distributed-local**\nuse <back:cyan>**keyple-java-commons-api**</back>] as local <<purple>>
        [**keyple-java-distributed-network**] as network <<purple>>
        [**keyple-java-distributed-remote**\nuse <back:cyan>**keyple-java-commons-api**</back>] as remote <<purple>>
    }
}
package "Internal APIs/SPIs (hidden for the specific application)" as packApi #C_GREY1 {
    [**keyple-java-plugin-api**] as pluginApi
    [**calypsonet-terminal-card-java-api**] as cardApi <<orange>>
    [**keyple-java-distributed-local-api**] as distributedLocalApi
    [**keyple-java-distributed-remote-api**] as distributedRemoteApi
}
[**keyple-java-utils**] as util

' == ASSOCIATIONS ==

application - -> plugin #COLOR_BLUE
application - -> service #COLOR_BLUE
application -left-> serviceResource #COLOR_BLUE
application - -> readerApi #COLOR_BLUE
application - -> extension #COLOR_BLUE
application - -> local #COLOR_BLUE
application -left-> network #COLOR_BLUE
application - -> remote #COLOR_BLUE

extension - -> cardApi #COLOR_GREEN
extension -up-> readerApi #COLOR_GREEN
extension -up-> serviceResource #COLOR_GREEN

plugin - -> pluginApi #COLOR_RED

service -up-> readerApi #COLOR_YELLOW
service - -> pluginApi #COLOR_YELLOW
service - -> cardApi #COLOR_YELLOW
service - -> distributedRemoteApi #COLOR_YELLOW
service - -> distributedLocalApi #COLOR_YELLOW

serviceResource -right-> readerApi #COLOR_GREY
serviceResource - -> service #COLOR_GREY

local -up-> network #COLOR_PURPLE
local - -> distributedLocalApi #COLOR_PURPLE

remote -up-> network #COLOR_PURPLE
remote - -> distributedRemoteApi #COLOR_PURPLE

packMain -up-> util

' == LAYOUT ==

@enduml

@startuml
title
    Keyple 2.0 - Modules dependencies - 21/05/2021
end title


skinparam Shadowing false
skinparam component {
    BorderColor #D4AC0D
    BackgroundColor<<red>> #FDEDEC
    BorderColor<<red>> #E74C3C
    BackgroundColor<<purple>> #F4ECF7
    BorderColor<<purple>> #8E44AD
    BackgroundColor<<blue>> #EBF5FB
    BorderColor<<blue>> #3498DB
    BackgroundColor<<green>> #E9F7EF
    BorderColor<<green>> #27AE60
    BackgroundColor<<orange>> #FDF2E9
    BorderColor<<orange>> #E67E22
    BackgroundColor<<grey>> #EAECEE
    BorderColor<<grey>> #2C3E50
}
skinparam interface {
    BorderColor #D4AC0D
    BackgroundColor<<red>> #FDEDEC
    BorderColor<<red>> #E74C3C
    BackgroundColor<<purple>> #F4ECF7
    BorderColor<<purple>> #8E44AD
    BackgroundColor<<blue>> #EBF5FB
    BorderColor<<blue>> #3498DB
    BackgroundColor<<green>> #E9F7EF
    BorderColor<<green>> #27AE60
    BackgroundColor<<orange>> #FDF2E9
    BorderColor<<orange>> #E67E22
    BackgroundColor<<grey>> #EAECEE
    BorderColor<<grey>> #2C3E50
}
hide <<red>> stereotype
hide <<purple>> stereotype
hide <<blue>> stereotype
hide <<green>> stereotype
hide <<orange>> stereotype
hide <<grey>> stereotype


package "Components having adapters" as packMain #F8F9F9 {
    [Specific Application] as application <<blue>>
    [Specific Plugin (PCSC...)\nuse <back:cyan>**keyple-java-commons-api**</back>] as plugin <<red>>
    together {
        [Specific Card Extension (Calypso...)\nuse <back:cyan>**keyple-java-commons-api**</back>] as extension <<green>>
        [**calypsonet-terminal-reader-java-api**] as readerApi <<orange>>
        [**keyple-java-service**\nuse <back:cyan>**keyple-java-commons-api**</back>] as service
        [**keyple-java-service-resource**] as serviceResource <<grey>>
    }
    together {
        [**keyple-java-distributed-local**\nuse <back:cyan>**keyple-java-commons-api**</back>] as local <<purple>>
        [**keyple-java-distributed-network**] as network <<purple>>
        [**keyple-java-distributed-remote**\nuse <back:cyan>**keyple-java-commons-api**</back>] as remote <<purple>>
    }
}
package "Internal APIs/SPIs (hidden for the specific application)" as packApi #F8F9F9 {
    [**keyple-java-plugin-api**] as pluginApi
    [**calypsonet-terminal-card-java-api**] as cardApi <<orange>>
    [**keyple-java-distributed-local-api**] as distributedLocalApi
    [**keyple-java-distributed-remote-api**] as distributedRemoteApi
}
[**keyple-java-utils**] as util


application - -> plugin #3498DB
application - -> service #3498DB
application -left-> serviceResource #3498DB
application - -> readerApi #3498DB
application - -> extension #3498DB
application - -> local #3498DB
application -left-> network #3498DB
application - -> remote #3498DB

extension - -> cardApi #27AE60
extension -up-> readerApi #27AE60
extension -up-> serviceResource #27AE60

plugin - -> pluginApi #E74C3C

service -up-> readerApi #D4AC0D
service - -> pluginApi #D4AC0D
service - -> cardApi #D4AC0D
service - -> distributedRemoteApi #D4AC0D
service - -> distributedLocalApi #D4AC0D

serviceResource -right-> readerApi #2C3E50
serviceResource - -> service #2C3E50

local -up-> network #8E44AD
local - -> distributedLocalApi #8E44AD

remote -up-> network #8E44AD
remote - -> distributedRemoteApi #8E44AD

packMain -up-> util


@enduml

PlantUML version 1.2021.5(Sun Apr 25 13:20:28 CEST 2021)
(GPL source distribution)
Java Runtime: OpenJDK Runtime Environment
JVM: Dynamic Code Evolution 64-Bit Server VM
Default Encoding: Cp1252
Language: fr
Country: FR
--></g></svg>