<?xml version="1.0" encoding="UTF-8" standalone="no"?><svg xmlns="http://www.w3.org/2000/svg" xmlns:xlink="http://www.w3.org/1999/xlink" contentScriptType="application/ecmascript" contentStyleType="text/css" height="1365px" preserveAspectRatio="none" style="width:3990px;height:1365px;" version="1.1" viewBox="0 0 3990 1365" width="3990px" zoomAndPan="magnify"><defs><filter height="1" id="b7aidb6h3gemu0" width="1" x="0" y="0"><feFlood flood-color="#00FFFF" result="flood"/><feComposite in="SourceGraphic" in2="flood" operator="over"/></filter></defs><g><text fill="#000000" font-family="sans-serif" font-size="45" lengthAdjust="spacing" textLength="980" x="1489.375" y="46.7139">Keyple 2.0 - Modules dependencies - 20/05/2021</text><!--MD5=[fa748c0050d71d88d66b284603ec55cc]
cluster packMain--><polygon fill="#F8F9F9" points="191.25,254.1016,723.75,254.1016,741.25,313.125,3948.75,313.125,3948.75,976.6016,191.25,976.6016,191.25,254.1016" style="stroke:#000000;stroke-width:3.75;"/><line style="stroke:#000000;stroke-width:3.75;" x1="191.25" x2="741.25" y1="313.125" y2="313.125"/><text fill="#000000" font-family="sans-serif" font-size="35" font-weight="bold" lengthAdjust="spacing" textLength="517.5" x="201.25" y="295.4346">Components having adapters</text><!--MD5=[867378565e6f99e68f2ca6b68bfc0810]
cluster packApi--><polygon fill="#F8F9F9" points="786.25,1056.6016,1741.25,1056.6016,1758.75,1115.625,3523.75,1115.625,3523.75,1349.1016,786.25,1349.1016,786.25,1056.6016" style="stroke:#000000;stroke-width:3.75;"/><line style="stroke:#000000;stroke-width:3.75;" x1="786.25" x2="1758.75" y1="1115.625" y2="1115.625"/><text fill="#000000" font-family="sans-serif" font-size="35" font-weight="bold" lengthAdjust="spacing" textLength="940" x="796.25" y="1097.9346">Internal APIs/SPIs (hidden for the specific application)</text><!--MD5=[37c33c71ce9550fe283f62c54b59719b]
entity application--><rect fill="#EBF5FB" height="119.0234" style="stroke:#3498DB;stroke-width:3.75;" width="405" x="1833.75" y="424.1016"/><rect fill="#EBF5FB" height="25" style="stroke:#3498DB;stroke-width:3.75;" width="37.5" x="2188.75" y="436.6016"/><rect fill="#EBF5FB" height="5" style="stroke:#3498DB;stroke-width:3.75;" width="10" x="2183.75" y="441.6016"/><rect fill="#EBF5FB" height="5" style="stroke:#3498DB;stroke-width:3.75;" width="10" x="2183.75" y="451.6016"/><text fill="#000000" font-family="sans-serif" font-size="35" lengthAdjust="spacing" textLength="305" x="1871.25" y="510.4346">Specific Application</text><!--MD5=[8e6a9284dc1da0ef8b54fdd8dc5bfba7]
entity plugin--><rect fill="#FDEDEC" height="163.0469" style="stroke:#E74C3C;stroke-width:3.75;" width="612.5" x="1785" y="694.1016"/><rect fill="#FDEDEC" height="25" style="stroke:#E74C3C;stroke-width:3.75;" width="37.5" x="2347.5" y="706.6016"/><rect fill="#FDEDEC" height="5" style="stroke:#E74C3C;stroke-width:3.75;" width="10" x="2342.5" y="711.6016"/><rect fill="#FDEDEC" height="5" style="stroke:#E74C3C;stroke-width:3.75;" width="10" x="2342.5" y="721.6016"/><text fill="#000000" font-family="sans-serif" font-size="35" lengthAdjust="spacing" textLength="390" x="1822.5" y="780.4346">Specific Plugin (PCSC...)</text><text fill="#000000" font-family="sans-serif" font-size="35" lengthAdjust="spacing" textLength="57.5" x="1822.5" y="824.458">use</text><text fill="#000000" filter="url(#b7aidb6h3gemu0)" font-family="sans-serif" font-size="35" font-weight="bold" lengthAdjust="spacing" textLength="445" x="1890" y="824.458">keyple-java-commons-api</text><!--MD5=[535f43d417660373b2263710d106a2e4]
entity extension--><rect fill="#E9F7EF" height="163.0469" style="stroke:#27AE60;stroke-width:3.75;" width="665" x="331.25" y="694.1016"/><rect fill="#E9F7EF" height="25" style="stroke:#27AE60;stroke-width:3.75;" width="37.5" x="946.25" y="706.6016"/><rect fill="#E9F7EF" height="5" style="stroke:#27AE60;stroke-width:3.75;" width="10" x="941.25" y="711.6016"/><rect fill="#E9F7EF" height="5" style="stroke:#27AE60;stroke-width:3.75;" width="10" x="941.25" y="721.6016"/><text fill="#000000" font-family="sans-serif" font-size="35" lengthAdjust="spacing" textLength="565" x="368.75" y="780.4346">Specific Card Extension (Calypso...)</text><text fill="#000000" font-family="sans-serif" font-size="35" lengthAdjust="spacing" textLength="57.5" x="368.75" y="824.458">use</text><text fill="#000000" filter="url(#b7aidb6h3gemu0)" font-family="sans-serif" font-size="35" font-weight="bold" lengthAdjust="spacing" textLength="445" x="436.25" y="824.458">keyple-java-commons-api</text><!--MD5=[0fda63aba32982abbdb07b83db27d91d]
entity readerApi--><rect fill="#FDF2E9" height="119.0234" style="stroke:#E67E22;stroke-width:3.75;" width="570" x="1116.25" y="424.1016"/><rect fill="#FDF2E9" height="25" style="stroke:#E67E22;stroke-width:3.75;" width="37.5" x="1636.25" y="436.6016"/><rect fill="#FDF2E9" height="5" style="stroke:#E67E22;stroke-width:3.75;" width="10" x="1631.25" y="441.6016"/><rect fill="#FDF2E9" height="5" style="stroke:#E67E22;stroke-width:3.75;" width="10" x="1631.25" y="451.6016"/><text fill="#000000" font-family="sans-serif" font-size="35" font-weight="bold" lengthAdjust="spacing" textLength="470" x="1153.75" y="510.4346">calypsonet-java-reader-api</text><!--MD5=[38bfa9dc6018363cafe15f923a4b8db9]
entity service--><rect fill="#FEFECE" height="163.0469" style="stroke:#D4AC0D;stroke-width:3.75;" width="612.5" x="1085" y="694.1016"/><rect fill="#FEFECE" height="25" style="stroke:#D4AC0D;stroke-width:3.75;" width="37.5" x="1647.5" y="706.6016"/><rect fill="#FEFECE" height="5" style="stroke:#D4AC0D;stroke-width:3.75;" width="10" x="1642.5" y="711.6016"/><rect fill="#FEFECE" height="5" style="stroke:#D4AC0D;stroke-width:3.75;" width="10" x="1642.5" y="721.6016"/><text fill="#000000" font-family="sans-serif" font-size="35" font-weight="bold" lengthAdjust="spacing" textLength="345" x="1122.5" y="780.4346">keyple-java-service</text><text fill="#000000" font-family="sans-serif" font-size="35" lengthAdjust="spacing" textLength="57.5" x="1122.5" y="824.458">use</text><text fill="#000000" filter="url(#b7aidb6h3gemu0)" font-family="sans-serif" font-size="35" font-weight="bold" lengthAdjust="spacing" textLength="445" x="1190" y="824.458">keyple-java-commons-api</text><!--MD5=[91a1a4d9fd79d02b8727f340600b76ba]
entity serviceResource--><rect fill="#EAECEE" height="119.0234" style="stroke:#2C3E50;stroke-width:3.75;" width="617.5" x="410" y="424.1016"/><rect fill="#EAECEE" height="25" style="stroke:#2C3E50;stroke-width:3.75;" width="37.5" x="977.5" y="436.6016"/><rect fill="#EAECEE" height="5" style="stroke:#2C3E50;stroke-width:3.75;" width="10" x="972.5" y="441.6016"/><rect fill="#EAECEE" height="5" style="stroke:#2C3E50;stroke-width:3.75;" width="10" x="972.5" y="451.6016"/><text fill="#000000" font-family="sans-serif" font-size="35" font-weight="bold" lengthAdjust="spacing" textLength="517.5" x="447.5" y="510.4346">keyple-java-service-resource</text><!--MD5=[d4fd26f9614fa07fe76bdcffa998e3d3]
entity local--><rect fill="#F4ECF7" height="163.0469" style="stroke:#8E44AD;stroke-width:3.75;" width="612.5" x="2485" y="694.1016"/><rect fill="#F4ECF7" height="25" style="stroke:#8E44AD;stroke-width:3.75;" width="37.5" x="3047.5" y="706.6016"/><rect fill="#F4ECF7" height="5" style="stroke:#8E44AD;stroke-width:3.75;" width="10" x="3042.5" y="711.6016"/><rect fill="#F4ECF7" height="5" style="stroke:#8E44AD;stroke-width:3.75;" width="10" x="3042.5" y="721.6016"/><text fill="#000000" font-family="sans-serif" font-size="35" font-weight="bold" lengthAdjust="spacing" textLength="500" x="2522.5" y="780.4346">keyple-java-distributed-local</text><text fill="#000000" font-family="sans-serif" font-size="35" lengthAdjust="spacing" textLength="57.5" x="2522.5" y="824.458">use</text><text fill="#000000" filter="url(#b7aidb6h3gemu0)" font-family="sans-serif" font-size="35" font-weight="bold" lengthAdjust="spacing" textLength="445" x="2590" y="824.458">keyple-java-commons-api</text><!--MD5=[57220784cd10fd02b95ed95124c16164]
entity network--><rect fill="#F4ECF7" height="119.0234" style="stroke:#8E44AD;stroke-width:3.75;" width="660" x="2483.75" y="424.1016"/><rect fill="#F4ECF7" height="25" style="stroke:#8E44AD;stroke-width:3.75;" width="37.5" x="3093.75" y="436.6016"/><rect fill="#F4ECF7" height="5" style="stroke:#8E44AD;stroke-width:3.75;" width="10" x="3088.75" y="441.6016"/><rect fill="#F4ECF7" height="5" style="stroke:#8E44AD;stroke-width:3.75;" width="10" x="3088.75" y="451.6016"/><text fill="#000000" font-family="sans-serif" font-size="35" font-weight="bold" lengthAdjust="spacing" textLength="560" x="2521.25" y="510.4346">keyple-java-distributed-network</text><!--MD5=[200d7cc177ce404b822df68e5d127056]
entity remote--><rect fill="#F4ECF7" height="163.0469" style="stroke:#8E44AD;stroke-width:3.75;" width="642.5" x="3185" y="694.1016"/><rect fill="#F4ECF7" height="25" style="stroke:#8E44AD;stroke-width:3.75;" width="37.5" x="3777.5" y="706.6016"/><rect fill="#F4ECF7" height="5" style="stroke:#8E44AD;stroke-width:3.75;" width="10" x="3772.5" y="711.6016"/><rect fill="#F4ECF7" height="5" style="stroke:#8E44AD;stroke-width:3.75;" width="10" x="3772.5" y="721.6016"/><text fill="#000000" font-family="sans-serif" font-size="35" font-weight="bold" lengthAdjust="spacing" textLength="542.5" x="3222.5" y="780.4346">keyple-java-distributed-remote</text><text fill="#000000" font-family="sans-serif" font-size="35" lengthAdjust="spacing" textLength="57.5" x="3222.5" y="824.458">use</text><text fill="#000000" filter="url(#b7aidb6h3gemu0)" font-family="sans-serif" font-size="35" font-weight="bold" lengthAdjust="spacing" textLength="445" x="3290" y="824.458">keyple-java-commons-api</text><!--MD5=[c91beeae9d23cda8fa2ee4b23a5f449e]
entity pluginApi--><rect fill="#FEFECE" height="119.0234" style="stroke:#D4AC0D;stroke-width:3.75;" width="487.5" x="1445" y="1167.8516"/><rect fill="#FEFECE" height="25" style="stroke:#D4AC0D;stroke-width:3.75;" width="37.5" x="1882.5" y="1180.3516"/><rect fill="#FEFECE" height="5" style="stroke:#D4AC0D;stroke-width:3.75;" width="10" x="1877.5" y="1185.3516"/><rect fill="#FEFECE" height="5" style="stroke:#D4AC0D;stroke-width:3.75;" width="10" x="1877.5" y="1195.3516"/><text fill="#000000" font-family="sans-serif" font-size="35" font-weight="bold" lengthAdjust="spacing" textLength="387.5" x="1482.5" y="1254.1846">keyple-java-plugin-api</text><!--MD5=[f74f7ef7641fa41957945dcfb119390e]
entity cardApi--><rect fill="#FDF2E9" height="119.0234" style="stroke:#E67E22;stroke-width:3.75;" width="530" x="826.25" y="1167.8516"/><rect fill="#FDF2E9" height="25" style="stroke:#E67E22;stroke-width:3.75;" width="37.5" x="1306.25" y="1180.3516"/><rect fill="#FDF2E9" height="5" style="stroke:#E67E22;stroke-width:3.75;" width="10" x="1301.25" y="1185.3516"/><rect fill="#FDF2E9" height="5" style="stroke:#E67E22;stroke-width:3.75;" width="10" x="1301.25" y="1195.3516"/><text fill="#000000" font-family="sans-serif" font-size="35" font-weight="bold" lengthAdjust="spacing" textLength="430" x="863.75" y="1254.1846">calypsonet-java-card-api</text><!--MD5=[7befd9ad872e32f647489e758c0991a9]
entity distributedLocalApi--><rect fill="#FEFECE" height="163.0469" style="stroke:#D4AC0D;stroke-width:3.75;" width="665" x="2021.25" y="1146.6016"/><rect fill="#FEFECE" height="25" style="stroke:#D4AC0D;stroke-width:3.75;" width="37.5" x="2636.25" y="1159.1016"/><rect fill="#FEFECE" height="5" style="stroke:#D4AC0D;stroke-width:3.75;" width="10" x="2631.25" y="1164.1016"/><rect fill="#FEFECE" height="5" style="stroke:#D4AC0D;stroke-width:3.75;" width="10" x="2631.25" y="1174.1016"/><text fill="#000000" font-family="sans-serif" font-size="35" font-weight="bold" lengthAdjust="spacing" textLength="565" x="2058.75" y="1232.9346">keyple-java-distributed-local-api</text><text fill="#000000" font-family="sans-serif" font-size="35" lengthAdjust="spacing" textLength="57.5" x="2058.75" y="1276.958">use</text><text fill="#000000" filter="url(#b7aidb6h3gemu0)" font-family="sans-serif" font-size="35" font-weight="bold" lengthAdjust="spacing" textLength="445" x="2126.25" y="1276.958">keyple-java-commons-api</text><!--MD5=[04ffbea9664a4d8b3a5d5b2bcefdf330]
entity distributedRemoteApi--><rect fill="#FEFECE" height="119.0234" style="stroke:#D4AC0D;stroke-width:3.75;" width="707.5" x="2775" y="1167.8516"/><rect fill="#FEFECE" height="25" style="stroke:#D4AC0D;stroke-width:3.75;" width="37.5" x="3432.5" y="1180.3516"/><rect fill="#FEFECE" height="5" style="stroke:#D4AC0D;stroke-width:3.75;" width="10" x="3427.5" y="1185.3516"/><rect fill="#FEFECE" height="5" style="stroke:#D4AC0D;stroke-width:3.75;" width="10" x="3427.5" y="1195.3516"/><text fill="#000000" font-family="sans-serif" font-size="35" font-weight="bold" lengthAdjust="spacing" textLength="607.5" x="2812.5" y="1254.1846">keyple-java-distributed-remote-api</text><!--MD5=[fd35d086f3360a91061ab5b89379d40a]
entity util--><rect fill="#FEFECE" height="119.0234" style="stroke:#D4AC0D;stroke-width:3.75;" width="387.5" x="17.5" y="74.1016"/><rect fill="#FEFECE" height="25" style="stroke:#D4AC0D;stroke-width:3.75;" width="37.5" x="355" y="86.6016"/><rect fill="#FEFECE" height="5" style="stroke:#D4AC0D;stroke-width:3.75;" width="10" x="350" y="91.6016"/><rect fill="#FEFECE" height="5" style="stroke:#D4AC0D;stroke-width:3.75;" width="10" x="350" y="101.6016"/><text fill="#000000" font-family="sans-serif" font-size="35" font-weight="bold" lengthAdjust="spacing" textLength="287.5" x="55" y="160.4346">keyple-java-utils</text><!--MD5=[2aaab67f118e87aa91a4fe667771ad2c]
link application to plugin--><path d="M2047.38,544.5291 C2054.8975,583.6516 2064.98,636.1291 2073.585,680.9091 " fill="none" id="application-to-plugin" style="stroke:#3498DB;stroke-width:2.5;"/><polygon fill="#3498DB" points="2075.9675,693.3166,2081.545,669.3344,2073.6102,681.0408,2061.9038,673.1061,2075.9675,693.3166" style="stroke:#3498DB;stroke-width:2.5;"/><!--MD5=[3e74ac74fdcdfc5064d05984678346c7]
link application to service--><path d="M1906.5,544.1841 C1813.34,585.5291 1686.285,641.9141 1581.6575,688.3491 " fill="none" id="application-to-service" style="stroke:#3498DB;stroke-width:2.5;"/><polygon fill="#3498DB" points="1569.6625,693.6716,1594.2846,693.6858,1581.0881,688.6015,1586.1725,675.4049,1569.6625,693.6716" style="stroke:#3498DB;stroke-width:2.5;"/><!--MD5=[66d2f20ef1e370a244d1d877bf3fc024]
reverse link serviceResource to application--><path d="M776.6275,413.8216 C847.0125,336.1991 974.01,220.0091 1115,204.1016 C1183.8775,196.3291 1677.295,182.0416 1738.75,214.1016 C1839.55,266.6866 1932.5975,361.7691 1986.8975,423.9116 " fill="none" id="serviceResource-backto-application" style="stroke:#3498DB;stroke-width:2.5;"/><polygon fill="#3498DB" points="767.495,424.0291,789.9495,413.9273,775.8292,414.7129,775.0436,400.5926,767.495,424.0291" style="stroke:#3498DB;stroke-width:2.5;"/><!--MD5=[db23a741fbf4de00f2351072712c6d6c]
link application to readerApi--><path d="M1833.37,484.1016 C1788.6225,484.1016 1743.8725,484.1016 1699.125,484.1016 " fill="none" id="application-to-readerApi" style="stroke:#3498DB;stroke-width:2.5;"/><polygon fill="#3498DB" points="1686.505,484.1016,1709.005,494.1016,1699.005,484.1016,1709.005,474.1016,1686.505,484.1016" style="stroke:#3498DB;stroke-width:2.5;"/><!--MD5=[a7759acb4cc58629cc6ce6f72b51fab6]
link application to extension--><path d="M1833.2975,528.9216 C1632.2225,570.8516 1315.4775,636.9041 1041.25,694.1016 C1030.8875,696.2641 1020.3625,698.4591 1009.74,700.6741 " fill="none" id="application-to-extension" style="stroke:#3498DB;stroke-width:2.5;"/><polygon fill="#3498DB" points="997.225,703.2841,1021.2934,708.4765,1009.4614,700.7304,1017.2075,688.8983,997.225,703.2841" style="stroke:#3498DB;stroke-width:2.5;"/><!--MD5=[046f6ae6203124f84c131388280c948c]
link application to local--><path d="M2188.1275,544.1841 C2298.0475,585.8591 2448.28,642.8191 2571.3,689.4616 " fill="none" id="application-to-local" style="stroke:#3498DB;stroke-width:2.5;"/><polygon fill="#3498DB" points="2583.125,693.9416,2565.6272,676.6188,2571.4358,689.513,2558.5416,695.3216,2583.125,693.9416" style="stroke:#3498DB;stroke-width:2.5;"/><!--MD5=[4154da97319af6ee8de72a8c460b84b7]
reverse link network to application--><path d="M2470.32,484.1016 C2393.2075,484.1016 2316.0925,484.1016 2238.9775,484.1016 " fill="none" id="network-backto-application" style="stroke:#3498DB;stroke-width:2.5;"/><polygon fill="#3498DB" points="2483.705,484.1016,2461.205,474.1016,2471.205,484.1016,2461.205,494.1016,2483.705,484.1016" style="stroke:#3498DB;stroke-width:2.5;"/><!--MD5=[857646e20610b5e7f2f3841a40697034]
link application to remote--><path d="M2239.215,523.0266 C2461.1025,563.2391 2826.975,630.7041 3141.25,694.1016 C3151.525,696.1741 3161.95,698.2991 3172.5,700.4641 " fill="none" id="application-to-remote" style="stroke:#3498DB;stroke-width:2.5;"/><polygon fill="#3498DB" points="3184.9,703.0191,3164.8957,688.6636,3172.6598,700.4839,3160.8395,708.2479,3184.9,703.0191" style="stroke:#3498DB;stroke-width:2.5;"/><!--MD5=[b84145f68a9638efe3b1cde23adb3c4f]
link extension to cardApi--><path d="M739.195,856.8266 C820.965,942.4216 950.0575,1077.5541 1027.1125,1158.2141 " fill="none" id="extension-to-cardApi" style="stroke:#27AE60;stroke-width:2.5;"/><polygon fill="#27AE60" points="1036.245,1167.7738,1027.9345,1144.5966,1027.6108,1158.735,1013.4724,1158.4113,1036.245,1167.7738" style="stroke:#27AE60;stroke-width:2.5;"/><!--MD5=[39b1edf8889298d7473da6cfa063b6c7]
reverse link readerApi to extension--><path d="M1241.05,548.7816 C1131.3525,591.3591 984.965,648.1766 867.0525,693.9416 " fill="none" id="readerApi-backto-extension" style="stroke:#27AE60;stroke-width:2.5;"/><polygon fill="#27AE60" points="1252.8925,544.1841,1228.2989,542.9998,1241.2389,548.7055,1235.5332,561.6455,1252.8925,544.1841" style="stroke:#27AE60;stroke-width:2.5;"/><!--MD5=[05d0944eb5037f285fc00ff169c3449f]
reverse link serviceResource to extension--><path d="M705.23,556.9641 C697.2975,598.2516 687.25,650.5391 679.0325,693.3166 " fill="none" id="serviceResource-backto-extension" style="stroke:#27AE60;stroke-width:2.5;"/><polygon fill="#27AE60" points="707.62,544.5291,693.5563,564.7395,705.2627,556.8048,713.1975,568.5112,707.62,544.5291" style="stroke:#27AE60;stroke-width:2.5;"/><!--MD5=[e41df91f541512673a0e31599b8ee993]
link plugin to pluginApi--><path d="M2020.2175,856.8266 C1943.23,942.4216 1821.685,1077.5541 1749.135,1158.2141 " fill="none" id="plugin-to-pluginApi" style="stroke:#E74C3C;stroke-width:2.5;"/><polygon fill="#E74C3C" points="1740.5375,1167.7738,1763.0196,1157.7336,1748.8972,1158.4805,1748.1503,1144.3581,1740.5375,1167.7738" style="stroke:#E74C3C;stroke-width:2.5;"/><!--MD5=[3bb137f5d2fdf2eddbf56d075b4f5976]
reverse link readerApi to service--><path d="M1398.755,558.0366 C1397.3175,599.1516 1395.51,650.9091 1394.0275,693.3166 " fill="none" id="readerApi-backto-service" style="stroke:#D4AC0D;stroke-width:2.5;"/><polygon fill="#D4AC0D" points="1399.2275,544.5291,1388.4493,566.6668,1398.7918,557.0215,1408.4372,567.3639,1399.2275,544.5291" style="stroke:#D4AC0D;stroke-width:2.5;"/><!--MD5=[dd1eccd1e7426faad07553cf68d2ac5f]
link service to pluginApi--><path d="M1443.7525,856.8266 C1500.425,942.0716 1589.7625,1076.4541 1643.46,1157.2278 " fill="none" id="service-to-pluginApi" style="stroke:#D4AC0D;stroke-width:2.5;"/><polygon fill="#D4AC0D" points="1650.4725,1167.7738,1646.3447,1143.5001,1643.5527,1157.3639,1629.6889,1154.5718,1650.4725,1167.7738" style="stroke:#D4AC0D;stroke-width:2.5;"/><!--MD5=[2523936cee4f99c1b1f73b34e1a6b0f7]
link service to cardApi--><path d="M1338.3075,856.8266 C1281.1575,942.0716 1191.07,1076.4541 1136.92,1157.2278 " fill="none" id="service-to-cardApi" style="stroke:#D4AC0D;stroke-width:2.5;"/><polygon fill="#D4AC0D" points="1129.85,1167.7738,1150.6836,1154.6508,1136.8093,1157.3902,1134.0698,1143.516,1129.85,1167.7738" style="stroke:#D4AC0D;stroke-width:2.5;"/><!--MD5=[911ff9493972b9d616a6a191b3acdad0]
link service to distributedRemoteApi--><path d="M1467.005,857.5316 C1526.1225,913.7016 1613.5475,984.4266 1706.25,1016.6016 C1813.6,1053.8591 2618.125,1010.6716 2728.75,1036.6016 C2834.925,1061.4866 2946.4,1116.8491 3024.625,1161.2156 " fill="none" id="service-to-distributedRemoteApi" style="stroke:#D4AC0D;stroke-width:2.5;"/><polygon fill="#D4AC0D" points="3035.9,1167.6768,3021.3456,1147.8168,3025.0531,1161.4643,3011.4056,1165.1718,3035.9,1167.6768" style="stroke:#D4AC0D;stroke-width:2.5;"/><!--MD5=[35229a0a0734c85a6b51f1905fa13c02]
link service to distributedLocalApi--><path d="M1468.16,856.6491 C1527.5375,911.9791 1614.7775,982.0391 1706.25,1016.6016 C1818.8125,1059.1316 1860.2425,1004.6466 1976.25,1036.6016 C2059.735,1059.5991 2146.5875,1101.5866 2215.9075,1140.1308 " fill="none" id="service-to-distributedLocalApi" style="stroke:#D4AC0D;stroke-width:2.5;"/><polygon fill="#D4AC0D" points="2226.88,1146.2841,2212.1474,1126.5559,2215.9776,1140.1695,2202.3641,1143.9997,2226.88,1146.2841" style="stroke:#D4AC0D;stroke-width:2.5;"/><!--MD5=[cfe32774c3c647fd7ab4615241b7e640]
link serviceResource to readerApi--><path d="M1028.0075,484.1016 C1053.045,484.1016 1078.085,484.1016 1103.1225,484.1016 " fill="none" id="serviceResource-to-readerApi" style="stroke:#2C3E50;stroke-width:2.5;"/><polygon fill="#2C3E50" points="1116.215,484.1016,1093.715,474.1016,1103.715,484.1016,1093.715,494.1016,1116.215,484.1016" style="stroke:#2C3E50;stroke-width:2.5;"/><!--MD5=[ded5d3d861a905cc39dafceb68152eca]
link serviceResource to service--><path d="M854.0325,544.1841 C951.545,585.6916 1084.6775,642.3591 1194.0125,688.8966 " fill="none" id="serviceResource-to-service" style="stroke:#2C3E50;stroke-width:2.5;"/><polygon fill="#2C3E50" points="1205.865,693.9416,1189.0808,675.9266,1194.3641,689.0447,1181.2459,694.328,1205.865,693.9416" style="stroke:#2C3E50;stroke-width:2.5;"/><!--MD5=[6b8af92c48757bac50848b7abb7c7576]
reverse link network to local--><path d="M2808.125,558.0366 C2804.9,599.1516 2800.825,650.9091 2797.5,693.3166 " fill="none" id="network-backto-local" style="stroke:#8E44AD;stroke-width:2.5;"/><polygon fill="#8E44AD" points="2809.2,544.5291,2797.4635,566.174,2808.2181,556.9904,2817.4017,567.7451,2809.2,544.5291" style="stroke:#8E44AD;stroke-width:2.5;"/><!--MD5=[f8b0df4bff9d8c01b39b5fe2d94c34a6]
link local to distributedLocalApi--><path d="M2714.05,856.8266 C2637.425,935.1866 2520.225,1055.0666 2440.46,1136.6616 " fill="none" id="local-to-distributedLocalApi" style="stroke:#8E44AD;stroke-width:2.5;"/><polygon fill="#8E44AD" points="2430.9225,1146.4158,2453.8035,1137.3212,2439.6622,1137.4789,2439.5045,1123.3377,2430.9225,1146.4158" style="stroke:#8E44AD;stroke-width:2.5;"/><!--MD5=[eaffbedb458b00db5e9113ca809c1ddf]
reverse link network to remote--><path d="M2964.8,549.0391 C3067.725,591.5891 3204.85,648.2691 3315.35,693.9416 " fill="none" id="network-backto-remote" style="stroke:#8E44AD;stroke-width:2.5;"/><polygon fill="#8E44AD" points="2953.05,544.1841,2970.0084,562.0352,2964.5979,548.9689,2977.6642,543.5585,2953.05,544.1841" style="stroke:#8E44AD;stroke-width:2.5;"/><!--MD5=[167487473dec959b258d2eb14d4f8ae2]
link remote to distributedRemoteApi--><path d="M3439.625,856.8266 C3367.425,942.4216 3253.425,1077.5541 3185.375,1158.2141 " fill="none" id="remote-to-distributedRemoteApi" style="stroke:#8E44AD;stroke-width:2.5;"/><polygon fill="#8E44AD" points="3177.325,1167.7738,3199.4671,1157.0045,3185.3766,1158.2123,3184.1687,1144.1219,3177.325,1167.7738" style="stroke:#8E44AD;stroke-width:2.5;"/><!--MD5=[109eb4672719e4a56f32411882888b63]
reverse link util to packMain--><path d="M211.25,207.2766 C211.25,219.6878 211.25,233.1945 211.25,247.3396 C211.25,249.1077 211.25,250.8858 211.25,252.673 C211.25,253.1198 211.25,253.5672 211.25,254.0151 " fill="none" id="util-backto-packMain" style="stroke:#A80036;stroke-width:2.5;"/><polygon fill="#A80036" points="211.25,194.3466,201.25,216.8466,211.25,206.8466,221.25,216.8466,211.25,194.3466" style="stroke:#A80036;stroke-width:2.5;"/><!--MD5=[4054363e0bae043f8e5a18746ad0e73c]
@startuml
title
    Keyple 2.0 - Modules dependencies - 20/05/2021
end title

' == THEME ==

'Couleurs issues de : https://htmlcolorcodes.com/fr/tableau-de-couleur/tableau-de-couleur-design-plat/
!define C_GREY1 F8F9F9
!define COLOR_YELLOW D4AC0D
!define COLOR_RED E74C3C
!define COLOR_PURPLE 8E44AD
!define COLOR_BLUE 3498DB
!define COLOR_GREEN 27AE60
!define COLOR_GREY 2C3E50
skinparam Shadowing false
skinparam component {
    BorderColor #D4AC0D
    ' Red
    BackgroundColor<<red>> #FDEDEC
    BorderColor<<red>> #E74C3C
    ' Purple
    BackgroundColor<<purple>> #F4ECF7
    BorderColor<<purple>> #8E44AD
    ' blue
    BackgroundColor<<blue>> #EBF5FB
    BorderColor<<blue>> #3498DB
    ' Green
    BackgroundColor<<green>> #E9F7EF
    BorderColor<<green>> #27AE60
    ' Orange
    BackgroundColor<<orange>> #FDF2E9
    BorderColor<<orange>> #E67E22
    ' Grey
    BackgroundColor<<grey>> #EAECEE
    BorderColor<<grey>> #2C3E50
}
skinparam interface {
    BorderColor #D4AC0D
    ' Red
    BackgroundColor<<red>> #FDEDEC
    BorderColor<<red>> #E74C3C
    ' Purple
    BackgroundColor<<purple>> #F4ECF7
    BorderColor<<purple>> #8E44AD
    ' blue
    BackgroundColor<<blue>> #EBF5FB
    BorderColor<<blue>> #3498DB
    ' Green
    BackgroundColor<<green>> #E9F7EF
    BorderColor<<green>> #27AE60
    ' Orange
    BackgroundColor<<orange>> #FDF2E9
    BorderColor<<orange>> #E67E22
    ' Grey
    BackgroundColor<<grey>> #EAECEE
    BorderColor<<grey>> #2C3E50
}
hide <<red>> stereotype
hide <<purple>> stereotype
hide <<blue>> stereotype
hide <<green>> stereotype
hide <<orange>> stereotype
hide <<grey>> stereotype

' == COMPONENTS ==

package "Components having adapters" as packMain #C_GREY1 {
    [Specific Application] as application <<blue>>
    [Specific Plugin (PCSC...)\nuse <back:cyan>**keyple-java-commons-api**</back>] as plugin <<red>>
    together {
        [Specific Card Extension (Calypso...)\nuse <back:cyan>**keyple-java-commons-api**</back>] as extension <<green>>
        [**calypsonet-java-reader-api**] as readerApi <<orange>>
        [**keyple-java-service**\nuse <back:cyan>**keyple-java-commons-api**</back>] as service
        [**keyple-java-service-resource**] as serviceResource <<grey>>
    }
    together {
        [**keyple-java-distributed-local**\nuse <back:cyan>**keyple-java-commons-api**</back>] as local <<purple>>
        [**keyple-java-distributed-network**] as network <<purple>>
        [**keyple-java-distributed-remote**\nuse <back:cyan>**keyple-java-commons-api**</back>] as remote <<purple>>
    }
}
package "Internal APIs/SPIs (hidden for the specific application)" as packApi #C_GREY1 {
    [**keyple-java-plugin-api**] as pluginApi
    [**calypsonet-java-card-api**] as cardApi <<orange>>
    [**keyple-java-distributed-local-api**\nuse <back:cyan>**keyple-java-commons-api**</back>] as distributedLocalApi
    [**keyple-java-distributed-remote-api**] as distributedRemoteApi
}
[**keyple-java-utils**] as util

' == ASSOCIATIONS ==

application - -> plugin #COLOR_BLUE
application - -> service #COLOR_BLUE
application -left-> serviceResource #COLOR_BLUE
application - -> readerApi #COLOR_BLUE
application - -> extension #COLOR_BLUE
application - -> local #COLOR_BLUE
application -left-> network #COLOR_BLUE
application - -> remote #COLOR_BLUE

extension - -> cardApi #COLOR_GREEN
extension -up-> readerApi #COLOR_GREEN
extension -up-> serviceResource #COLOR_GREEN

plugin - -> pluginApi #COLOR_RED

service -up-> readerApi #COLOR_YELLOW
service - -> pluginApi #COLOR_YELLOW
service - -> cardApi #COLOR_YELLOW
service - -> distributedRemoteApi #COLOR_YELLOW
service - -> distributedLocalApi #COLOR_YELLOW

serviceResource -right-> readerApi #COLOR_GREY
serviceResource - -> service #COLOR_GREY

local -up-> network #COLOR_PURPLE
local - -> distributedLocalApi #COLOR_PURPLE

remote -up-> network #COLOR_PURPLE
remote - -> distributedRemoteApi #COLOR_PURPLE

packMain -up-> util

' == LAYOUT ==

@enduml

@startuml
title
    Keyple 2.0 - Modules dependencies - 20/05/2021
end title


skinparam Shadowing false
skinparam component {
    BorderColor #D4AC0D
    BackgroundColor<<red>> #FDEDEC
    BorderColor<<red>> #E74C3C
    BackgroundColor<<purple>> #F4ECF7
    BorderColor<<purple>> #8E44AD
    BackgroundColor<<blue>> #EBF5FB
    BorderColor<<blue>> #3498DB
    BackgroundColor<<green>> #E9F7EF
    BorderColor<<green>> #27AE60
    BackgroundColor<<orange>> #FDF2E9
    BorderColor<<orange>> #E67E22
    BackgroundColor<<grey>> #EAECEE
    BorderColor<<grey>> #2C3E50
}
skinparam interface {
    BorderColor #D4AC0D
    BackgroundColor<<red>> #FDEDEC
    BorderColor<<red>> #E74C3C
    BackgroundColor<<purple>> #F4ECF7
    BorderColor<<purple>> #8E44AD
    BackgroundColor<<blue>> #EBF5FB
    BorderColor<<blue>> #3498DB
    BackgroundColor<<green>> #E9F7EF
    BorderColor<<green>> #27AE60
    BackgroundColor<<orange>> #FDF2E9
    BorderColor<<orange>> #E67E22
    BackgroundColor<<grey>> #EAECEE
    BorderColor<<grey>> #2C3E50
}
hide <<red>> stereotype
hide <<purple>> stereotype
hide <<blue>> stereotype
hide <<green>> stereotype
hide <<orange>> stereotype
hide <<grey>> stereotype


package "Components having adapters" as packMain #F8F9F9 {
    [Specific Application] as application <<blue>>
    [Specific Plugin (PCSC...)\nuse <back:cyan>**keyple-java-commons-api**</back>] as plugin <<red>>
    together {
        [Specific Card Extension (Calypso...)\nuse <back:cyan>**keyple-java-commons-api**</back>] as extension <<green>>
        [**calypsonet-java-reader-api**] as readerApi <<orange>>
        [**keyple-java-service**\nuse <back:cyan>**keyple-java-commons-api**</back>] as service
        [**keyple-java-service-resource**] as serviceResource <<grey>>
    }
    together {
        [**keyple-java-distributed-local**\nuse <back:cyan>**keyple-java-commons-api**</back>] as local <<purple>>
        [**keyple-java-distributed-network**] as network <<purple>>
        [**keyple-java-distributed-remote**\nuse <back:cyan>**keyple-java-commons-api**</back>] as remote <<purple>>
    }
}
package "Internal APIs/SPIs (hidden for the specific application)" as packApi #F8F9F9 {
    [**keyple-java-plugin-api**] as pluginApi
    [**calypsonet-java-card-api**] as cardApi <<orange>>
    [**keyple-java-distributed-local-api**\nuse <back:cyan>**keyple-java-commons-api**</back>] as distributedLocalApi
    [**keyple-java-distributed-remote-api**] as distributedRemoteApi
}
[**keyple-java-utils**] as util


application - -> plugin #3498DB
application - -> service #3498DB
application -left-> serviceResource #3498DB
application - -> readerApi #3498DB
application - -> extension #3498DB
application - -> local #3498DB
application -left-> network #3498DB
application - -> remote #3498DB

extension - -> cardApi #27AE60
extension -up-> readerApi #27AE60
extension -up-> serviceResource #27AE60

plugin - -> pluginApi #E74C3C

service -up-> readerApi #D4AC0D
service - -> pluginApi #D4AC0D
service - -> cardApi #D4AC0D
service - -> distributedRemoteApi #D4AC0D
service - -> distributedLocalApi #D4AC0D

serviceResource -right-> readerApi #2C3E50
serviceResource - -> service #2C3E50

local -up-> network #8E44AD
local - -> distributedLocalApi #8E44AD

remote -up-> network #8E44AD
remote - -> distributedRemoteApi #8E44AD

packMain -up-> util


@enduml

PlantUML version 1.2021.5(Sun Apr 25 13:20:28 CEST 2021)
(GPL source distribution)
Java Runtime: OpenJDK Runtime Environment
JVM: Dynamic Code Evolution 64-Bit Server VM
Default Encoding: Cp1252
Language: fr
Country: FR
--></g></svg>