<?xml version="1.0" encoding="UTF-8" standalone="no"?><svg xmlns="http://www.w3.org/2000/svg" xmlns:xlink="http://www.w3.org/1999/xlink" contentScriptType="application/ecmascript" contentStyleType="text/css" height="912.5px" preserveAspectRatio="none" style="width:2550px;height:912px;" version="1.1" viewBox="0 0 2550 912" width="2550px" zoomAndPan="magnify"><defs/><g><text fill="#000000" font-family="sans-serif" font-size="45" lengthAdjust="spacing" textLength="1130" x="693.75" y="46.7139">Keyple 2.0 - keyple-java-commons-api - 2.0 (09/02/2021)</text><!--MD5=[7442f3b126ee602ae02566c1a49e158a]
cluster api--><polygon fill="#F8F9F9" points="40,71.6016,645,71.6016,662.5,130.625,2507.5,130.625,2507.5,896.6016,40,896.6016,40,71.6016" style="stroke:#000000;stroke-width:3.75;"/><line style="stroke:#000000;stroke-width:3.75;" x1="40" x2="662.5" y1="130.625" y2="130.625"/><text fill="#000000" font-family="sans-serif" font-size="35" font-weight="bold" lengthAdjust="spacing" textLength="590" x="50" y="112.9346">org.eclipse.keyple.core.commons</text><!--MD5=[120218adfd8782b0057db0a1b8294250]
class ApiProperties--><rect codeLine="49" fill="#FEFECE" height="154.5898" id="ApiProperties" style="stroke:#D4AC0D;stroke-width:3.75;" width="505" x="80" y="161.6016"/><ellipse cx="117.5" cy="201.6016" fill="#ADD1B2" rx="27.5" ry="27.5" style="stroke:#ADD1B2;stroke-width:2.5;"/><path d="M122.5,192.8516 Q123.0078,191.6016 123.5938,190.9766 Q124.1797,190.3516 124.8438,190.3516 Q126.0156,190.3516 126.7578,191.0547 Q127.5,191.7578 127.5,193.3984 L127.5,197.3047 Q127.5,198.9453 126.7969,199.6484 Q126.0938,200.3516 125,200.3516 Q124.0234,200.3516 123.3984,199.9219 Q122.7734,199.4922 122.5,198.3594 Q122.3828,197.5781 121.9531,197.1484 Q121.1719,196.3281 119.7656,195.8594 Q118.3594,195.3516 116.9531,195.3516 Q115.1953,195.3516 113.7109,196.0547 Q112.2656,196.7578 111.1328,198.3203 Q110,199.8828 110,202.0313 L110,204.3359 Q110,206.9141 112.1094,208.6328 Q114.2188,210.3516 117.9688,210.3516 Q120.1953,210.3516 121.7578,209.8438 Q122.6563,209.5703 123.6719,208.6719 Q124.3359,208.1641 124.6875,208.0078 Q125.0391,207.8516 125.4688,207.8516 Q126.2891,207.8516 126.875,208.5156 Q127.5,209.1406 127.5,210.0391 Q127.5,210.8984 126.6406,211.9141 Q125.3906,213.3984 123.3984,214.2188 Q120.7813,215.3516 117.5781,215.3516 Q113.8281,215.3516 110.8203,213.8672 Q108.3984,212.6953 106.6797,210.1563 Q105,207.6172 105,204.6094 L105,201.875 Q105,198.75 106.4844,196.0156 Q108.0078,193.2813 110.625,191.8359 Q113.2813,190.3516 116.25,190.3516 Q118.0469,190.3516 119.6094,190.9766 Q121.1719,191.6016 122.5,192.8516 Z " fill="#000000"/><ellipse cx="165" cy="200.3516" fill="#84BE84" rx="7.5" ry="7.5" style="stroke:#038048;stroke-width:2.5;"/><text fill="#000000" font-family="sans-serif" font-size="30" font-style="italic" font-weight="bold" lengthAdjust="spacing" textLength="60" x="180" y="213.877">final</text><text fill="#000000" font-family="sans-serif" font-size="30" font-style="italic" lengthAdjust="spacing" textLength="330" x="247.5" y="213.877">CommonsApiProperties</text><line style="stroke:#D4AC0D;stroke-width:3.75;" x1="82.5" x2="582.5" y1="241.6016" y2="241.6016"/><ellipse cx="107.5" cy="269.1016" fill="none" rx="7.5" ry="7.5" style="stroke:#038048;stroke-width:2.5;"/><text fill="#000000" font-family="sans-serif" font-size="27.5" font-weight="bold" lengthAdjust="spacing" text-decoration="underline" textLength="57.5" x="130" y="280.1489">final</text><text fill="#000000" font-family="sans-serif" font-size="27.5" lengthAdjust="spacing" text-decoration="underline" textLength="190" x="195" y="280.1489">String VERSION</text><line style="stroke:#D4AC0D;stroke-width:3.75;" x1="82.5" x2="582.5" y1="296.1914" y2="296.1914"/><!--MD5=[8322abeb999888483b6b56e890df9c6a]
class KeyplePluginFactory--><rect codeLine="52" fill="#FEFECE" height="120" id="KeyplePluginFactory" style="stroke:#D4AC0D;stroke-width:3.75;" width="390" x="672.5" y="179.1016"/><ellipse cx="710" cy="219.1016" fill="#B4A7E5" rx="27.5" ry="27.5" style="stroke:#B4A7E5;stroke-width:2.5;"/><path d="M712.5,211.6016 L712.5,226.6016 L717.5,226.6016 L718.7109,226.6016 L720,228.1641 L720,229.1016 L720,230.0391 L718.7109,231.6016 L717.5,231.6016 L702.5,231.6016 L701.2891,231.6016 L700,230.0391 L700,229.1016 L700,228.1641 L701.2891,226.6016 L702.5,226.6016 L707.5,226.6016 L707.5,211.6016 L702.5,211.6016 L701.2891,211.6016 L700,210.0391 L700,209.1016 L700,208.1641 L701.2891,206.6016 L702.5,206.6016 L717.5,206.6016 L718.7109,206.6016 L720,208.1641 L720,209.1016 L720,210.0391 L718.7109,211.6016 L717.5,211.6016 L712.5,211.6016 Z " fill="#000000"/><ellipse cx="757.5" cy="217.8516" fill="#84BE84" rx="7.5" ry="7.5" style="stroke:#038048;stroke-width:2.5;"/><text fill="#000000" font-family="sans-serif" font-size="30" font-style="italic" lengthAdjust="spacing" textLength="282.5" x="772.5" y="231.377">KeyplePluginFactory</text><line style="stroke:#D4AC0D;stroke-width:3.75;" x1="675" x2="1060" y1="259.1016" y2="259.1016"/><line style="stroke:#D4AC0D;stroke-width:3.75;" x1="675" x2="1060" y1="279.1016" y2="279.1016"/><!--MD5=[e767d71dd6c644ebbe02fe42896e6818]
class KeyplePlugin--><rect codeLine="54" fill="#FEFECE" height="120" id="KeyplePlugin" style="stroke:#D4AC0D;stroke-width:3.75;" width="290" x="1150" y="179.1016"/><ellipse cx="1187.5" cy="219.1016" fill="#B4A7E5" rx="27.5" ry="27.5" style="stroke:#B4A7E5;stroke-width:2.5;"/><path d="M1190,211.6016 L1190,226.6016 L1195,226.6016 L1196.2109,226.6016 L1197.5,228.1641 L1197.5,229.1016 L1197.5,230.0391 L1196.2109,231.6016 L1195,231.6016 L1180,231.6016 L1178.7891,231.6016 L1177.5,230.0391 L1177.5,229.1016 L1177.5,228.1641 L1178.7891,226.6016 L1180,226.6016 L1185,226.6016 L1185,211.6016 L1180,211.6016 L1178.7891,211.6016 L1177.5,210.0391 L1177.5,209.1016 L1177.5,208.1641 L1178.7891,206.6016 L1180,206.6016 L1195,206.6016 L1196.2109,206.6016 L1197.5,208.1641 L1197.5,209.1016 L1197.5,210.0391 L1196.2109,211.6016 L1195,211.6016 L1190,211.6016 Z " fill="#000000"/><ellipse cx="1235" cy="217.8516" fill="#84BE84" rx="7.5" ry="7.5" style="stroke:#038048;stroke-width:2.5;"/><text fill="#000000" font-family="sans-serif" font-size="30" font-style="italic" lengthAdjust="spacing" textLength="182.5" x="1250" y="231.377">KeyplePlugin</text><line style="stroke:#D4AC0D;stroke-width:3.75;" x1="1152.5" x2="1437.5" y1="259.1016" y2="259.1016"/><line style="stroke:#D4AC0D;stroke-width:3.75;" x1="1152.5" x2="1437.5" y1="279.1016" y2="279.1016"/><!--MD5=[d43c4cfc380800cd4ea82de477c52aec]
class KeypleReader--><rect codeLine="56" fill="#FEFECE" height="120" id="KeypleReader" style="stroke:#D4AC0D;stroke-width:3.75;" width="305" x="1527.5" y="179.1016"/><ellipse cx="1565" cy="219.1016" fill="#B4A7E5" rx="27.5" ry="27.5" style="stroke:#B4A7E5;stroke-width:2.5;"/><path d="M1567.5,211.6016 L1567.5,226.6016 L1572.5,226.6016 L1573.7109,226.6016 L1575,228.1641 L1575,229.1016 L1575,230.0391 L1573.7109,231.6016 L1572.5,231.6016 L1557.5,231.6016 L1556.2891,231.6016 L1555,230.0391 L1555,229.1016 L1555,228.1641 L1556.2891,226.6016 L1557.5,226.6016 L1562.5,226.6016 L1562.5,211.6016 L1557.5,211.6016 L1556.2891,211.6016 L1555,210.0391 L1555,209.1016 L1555,208.1641 L1556.2891,206.6016 L1557.5,206.6016 L1572.5,206.6016 L1573.7109,206.6016 L1575,208.1641 L1575,209.1016 L1575,210.0391 L1573.7109,211.6016 L1572.5,211.6016 L1567.5,211.6016 Z " fill="#000000"/><ellipse cx="1612.5" cy="217.8516" fill="#84BE84" rx="7.5" ry="7.5" style="stroke:#038048;stroke-width:2.5;"/><text fill="#000000" font-family="sans-serif" font-size="30" font-style="italic" lengthAdjust="spacing" textLength="197.5" x="1627.5" y="231.377">KeypleReader</text><line style="stroke:#D4AC0D;stroke-width:3.75;" x1="1530" x2="1830" y1="259.1016" y2="259.1016"/><line style="stroke:#D4AC0D;stroke-width:3.75;" x1="1530" x2="1830" y1="279.1016" y2="279.1016"/><!--MD5=[93835d7ffcf6a3787bfc7eb02bc099b1]
class KeypleCardExtension--><rect codeLine="58" fill="#FEFECE" height="120" id="KeypleCardExtension" style="stroke:#D4AC0D;stroke-width:3.75;" width="405" x="80" y="466.6016"/><ellipse cx="117.5" cy="506.6016" fill="#B4A7E5" rx="27.5" ry="27.5" style="stroke:#B4A7E5;stroke-width:2.5;"/><path d="M120,499.1016 L120,514.1016 L125,514.1016 L126.2109,514.1016 L127.5,515.6641 L127.5,516.6016 L127.5,517.5391 L126.2109,519.1016 L125,519.1016 L110,519.1016 L108.7891,519.1016 L107.5,517.5391 L107.5,516.6016 L107.5,515.6641 L108.7891,514.1016 L110,514.1016 L115,514.1016 L115,499.1016 L110,499.1016 L108.7891,499.1016 L107.5,497.5391 L107.5,496.6016 L107.5,495.6641 L108.7891,494.1016 L110,494.1016 L125,494.1016 L126.2109,494.1016 L127.5,495.6641 L127.5,496.6016 L127.5,497.5391 L126.2109,499.1016 L125,499.1016 L120,499.1016 Z " fill="#000000"/><ellipse cx="165" cy="505.3516" fill="#84BE84" rx="7.5" ry="7.5" style="stroke:#038048;stroke-width:2.5;"/><text fill="#000000" font-family="sans-serif" font-size="30" font-style="italic" lengthAdjust="spacing" textLength="297.5" x="180" y="518.877">KeypleCardExtension</text><line style="stroke:#D4AC0D;stroke-width:3.75;" x1="82.5" x2="482.5" y1="546.6016" y2="546.6016"/><line style="stroke:#D4AC0D;stroke-width:3.75;" x1="82.5" x2="482.5" y1="566.6016" y2="566.6016"/><!--MD5=[475418646885104c408c8d9729cc983e]
class KeypleDistributedLocalServiceFactory--><rect codeLine="60" fill="#FEFECE" height="120" id="KeypleDistributedLocalServiceFactory" style="stroke:#D4AC0D;stroke-width:3.75;" width="630" x="572.5" y="466.6016"/><ellipse cx="610" cy="506.6016" fill="#B4A7E5" rx="27.5" ry="27.5" style="stroke:#B4A7E5;stroke-width:2.5;"/><path d="M612.5,499.1016 L612.5,514.1016 L617.5,514.1016 L618.7109,514.1016 L620,515.6641 L620,516.6016 L620,517.5391 L618.7109,519.1016 L617.5,519.1016 L602.5,519.1016 L601.2891,519.1016 L600,517.5391 L600,516.6016 L600,515.6641 L601.2891,514.1016 L602.5,514.1016 L607.5,514.1016 L607.5,499.1016 L602.5,499.1016 L601.2891,499.1016 L600,497.5391 L600,496.6016 L600,495.6641 L601.2891,494.1016 L602.5,494.1016 L617.5,494.1016 L618.7109,494.1016 L620,495.6641 L620,496.6016 L620,497.5391 L618.7109,499.1016 L617.5,499.1016 L612.5,499.1016 Z " fill="#000000"/><ellipse cx="657.5" cy="505.3516" fill="#84BE84" rx="7.5" ry="7.5" style="stroke:#038048;stroke-width:2.5;"/><text fill="#000000" font-family="sans-serif" font-size="30" font-style="italic" lengthAdjust="spacing" textLength="522.5" x="672.5" y="518.877">KeypleDistributedLocalServiceFactory</text><line style="stroke:#D4AC0D;stroke-width:3.75;" x1="575" x2="1200" y1="546.6016" y2="546.6016"/><line style="stroke:#D4AC0D;stroke-width:3.75;" x1="575" x2="1200" y1="566.6016" y2="566.6016"/><!--MD5=[de8083dfdee6b5889ad326ea3c53d521]
class KeypleDistributedLocalService--><rect codeLine="62" fill="#FEFECE" height="120" id="KeypleDistributedLocalService" style="stroke:#D4AC0D;stroke-width:3.75;" width="530" x="1290" y="466.6016"/><ellipse cx="1327.5" cy="506.6016" fill="#B4A7E5" rx="27.5" ry="27.5" style="stroke:#B4A7E5;stroke-width:2.5;"/><path d="M1330,499.1016 L1330,514.1016 L1335,514.1016 L1336.2109,514.1016 L1337.5,515.6641 L1337.5,516.6016 L1337.5,517.5391 L1336.2109,519.1016 L1335,519.1016 L1320,519.1016 L1318.7891,519.1016 L1317.5,517.5391 L1317.5,516.6016 L1317.5,515.6641 L1318.7891,514.1016 L1320,514.1016 L1325,514.1016 L1325,499.1016 L1320,499.1016 L1318.7891,499.1016 L1317.5,497.5391 L1317.5,496.6016 L1317.5,495.6641 L1318.7891,494.1016 L1320,494.1016 L1335,494.1016 L1336.2109,494.1016 L1337.5,495.6641 L1337.5,496.6016 L1337.5,497.5391 L1336.2109,499.1016 L1335,499.1016 L1330,499.1016 Z " fill="#000000"/><ellipse cx="1375" cy="505.3516" fill="#84BE84" rx="7.5" ry="7.5" style="stroke:#038048;stroke-width:2.5;"/><text fill="#000000" font-family="sans-serif" font-size="30" font-style="italic" lengthAdjust="spacing" textLength="422.5" x="1390" y="518.877">KeypleDistributedLocalService</text><line style="stroke:#D4AC0D;stroke-width:3.75;" x1="1292.5" x2="1817.5" y1="546.6016" y2="546.6016"/><line style="stroke:#D4AC0D;stroke-width:3.75;" x1="1292.5" x2="1817.5" y1="566.6016" y2="566.6016"/><!--MD5=[437c51bbf6e2bf6156e4fbcc869abdb6]
class KeypleDefaultSelectionsRequest--><rect codeLine="64" fill="#FEFECE" height="120" id="KeypleDefaultSelectionsRequest" style="stroke:#D4AC0D;stroke-width:3.75;" width="557.5" x="1908.75" y="466.6016"/><ellipse cx="1946.25" cy="506.6016" fill="#B4A7E5" rx="27.5" ry="27.5" style="stroke:#B4A7E5;stroke-width:2.5;"/><path d="M1948.75,499.1016 L1948.75,514.1016 L1953.75,514.1016 L1954.9609,514.1016 L1956.25,515.6641 L1956.25,516.6016 L1956.25,517.5391 L1954.9609,519.1016 L1953.75,519.1016 L1938.75,519.1016 L1937.5391,519.1016 L1936.25,517.5391 L1936.25,516.6016 L1936.25,515.6641 L1937.5391,514.1016 L1938.75,514.1016 L1943.75,514.1016 L1943.75,499.1016 L1938.75,499.1016 L1937.5391,499.1016 L1936.25,497.5391 L1936.25,496.6016 L1936.25,495.6641 L1937.5391,494.1016 L1938.75,494.1016 L1953.75,494.1016 L1954.9609,494.1016 L1956.25,495.6641 L1956.25,496.6016 L1956.25,497.5391 L1954.9609,499.1016 L1953.75,499.1016 L1948.75,499.1016 Z " fill="#000000"/><ellipse cx="1993.75" cy="505.3516" fill="#84BE84" rx="7.5" ry="7.5" style="stroke:#038048;stroke-width:2.5;"/><text fill="#000000" font-family="sans-serif" font-size="30" font-style="italic" lengthAdjust="spacing" textLength="450" x="2008.75" y="518.877">KeypleDefaultSelectionsRequest</text><line style="stroke:#D4AC0D;stroke-width:3.75;" x1="1911.25" x2="2463.75" y1="546.6016" y2="546.6016"/><line style="stroke:#D4AC0D;stroke-width:3.75;" x1="1911.25" x2="2463.75" y1="566.6016" y2="566.6016"/><!--MD5=[e13364fcb1ead131fce1b6af697186e5]
class KeypleDefaultSelectionsResponse--><rect codeLine="66" fill="#FEFECE" height="120" id="KeypleDefaultSelectionsResponse" style="stroke:#D4AC0D;stroke-width:3.75;" width="582.5" x="81.25" y="736.6016"/><ellipse cx="118.75" cy="776.6016" fill="#B4A7E5" rx="27.5" ry="27.5" style="stroke:#B4A7E5;stroke-width:2.5;"/><path d="M121.25,769.1016 L121.25,784.1016 L126.25,784.1016 L127.4609,784.1016 L128.75,785.6641 L128.75,786.6016 L128.75,787.5391 L127.4609,789.1016 L126.25,789.1016 L111.25,789.1016 L110.0391,789.1016 L108.75,787.5391 L108.75,786.6016 L108.75,785.6641 L110.0391,784.1016 L111.25,784.1016 L116.25,784.1016 L116.25,769.1016 L111.25,769.1016 L110.0391,769.1016 L108.75,767.5391 L108.75,766.6016 L108.75,765.6641 L110.0391,764.1016 L111.25,764.1016 L126.25,764.1016 L127.4609,764.1016 L128.75,765.6641 L128.75,766.6016 L128.75,767.5391 L127.4609,769.1016 L126.25,769.1016 L121.25,769.1016 Z " fill="#000000"/><ellipse cx="166.25" cy="775.3516" fill="#84BE84" rx="7.5" ry="7.5" style="stroke:#038048;stroke-width:2.5;"/><text fill="#000000" font-family="sans-serif" font-size="30" font-style="italic" lengthAdjust="spacing" textLength="475" x="181.25" y="788.877">KeypleDefaultSelectionsResponse</text><line style="stroke:#D4AC0D;stroke-width:3.75;" x1="83.75" x2="661.25" y1="816.6016" y2="816.6016"/><line style="stroke:#D4AC0D;stroke-width:3.75;" x1="83.75" x2="661.25" y1="836.6016" y2="836.6016"/><!--MD5=[992e355e37ebedcd3769e1f8c146b434]
class KeypleCardSelector--><rect codeLine="68" fill="#FEFECE" height="120" id="KeypleCardSelector" style="stroke:#D4AC0D;stroke-width:3.75;" width="382.5" x="751.25" y="736.6016"/><ellipse cx="788.75" cy="776.6016" fill="#B4A7E5" rx="27.5" ry="27.5" style="stroke:#B4A7E5;stroke-width:2.5;"/><path d="M791.25,769.1016 L791.25,784.1016 L796.25,784.1016 L797.4609,784.1016 L798.75,785.6641 L798.75,786.6016 L798.75,787.5391 L797.4609,789.1016 L796.25,789.1016 L781.25,789.1016 L780.0391,789.1016 L778.75,787.5391 L778.75,786.6016 L778.75,785.6641 L780.0391,784.1016 L781.25,784.1016 L786.25,784.1016 L786.25,769.1016 L781.25,769.1016 L780.0391,769.1016 L778.75,767.5391 L778.75,766.6016 L778.75,765.6641 L780.0391,764.1016 L781.25,764.1016 L796.25,764.1016 L797.4609,764.1016 L798.75,765.6641 L798.75,766.6016 L798.75,767.5391 L797.4609,769.1016 L796.25,769.1016 L791.25,769.1016 Z " fill="#000000"/><ellipse cx="836.25" cy="775.3516" fill="#84BE84" rx="7.5" ry="7.5" style="stroke:#038048;stroke-width:2.5;"/><text fill="#000000" font-family="sans-serif" font-size="30" font-style="italic" lengthAdjust="spacing" textLength="275" x="851.25" y="788.877">KeypleCardSelector</text><line style="stroke:#D4AC0D;stroke-width:3.75;" x1="753.75" x2="1131.25" y1="816.6016" y2="816.6016"/><line style="stroke:#D4AC0D;stroke-width:3.75;" x1="753.75" x2="1131.25" y1="836.6016" y2="836.6016"/><!--MD5=[8999ac455343ccac23030d8ddecdd1e9]
class KeyplePluginEvent--><rect codeLine="70" fill="#FEFECE" height="120" id="KeyplePluginEvent" style="stroke:#D4AC0D;stroke-width:3.75;" width="367.5" x="1221.25" y="736.6016"/><ellipse cx="1258.75" cy="776.6016" fill="#B4A7E5" rx="27.5" ry="27.5" style="stroke:#B4A7E5;stroke-width:2.5;"/><path d="M1261.25,769.1016 L1261.25,784.1016 L1266.25,784.1016 L1267.4609,784.1016 L1268.75,785.6641 L1268.75,786.6016 L1268.75,787.5391 L1267.4609,789.1016 L1266.25,789.1016 L1251.25,789.1016 L1250.0391,789.1016 L1248.75,787.5391 L1248.75,786.6016 L1248.75,785.6641 L1250.0391,784.1016 L1251.25,784.1016 L1256.25,784.1016 L1256.25,769.1016 L1251.25,769.1016 L1250.0391,769.1016 L1248.75,767.5391 L1248.75,766.6016 L1248.75,765.6641 L1250.0391,764.1016 L1251.25,764.1016 L1266.25,764.1016 L1267.4609,764.1016 L1268.75,765.6641 L1268.75,766.6016 L1268.75,767.5391 L1267.4609,769.1016 L1266.25,769.1016 L1261.25,769.1016 Z " fill="#000000"/><ellipse cx="1306.25" cy="775.3516" fill="#84BE84" rx="7.5" ry="7.5" style="stroke:#038048;stroke-width:2.5;"/><text fill="#000000" font-family="sans-serif" font-size="30" font-style="italic" lengthAdjust="spacing" textLength="260" x="1321.25" y="788.877">KeyplePluginEvent</text><line style="stroke:#D4AC0D;stroke-width:3.75;" x1="1223.75" x2="1586.25" y1="816.6016" y2="816.6016"/><line style="stroke:#D4AC0D;stroke-width:3.75;" x1="1223.75" x2="1586.25" y1="836.6016" y2="836.6016"/><!--MD5=[31820e042815c36821ed3bf317261d9c]
class KeypleReaderEvent--><rect codeLine="72" fill="#FEFECE" height="120" id="KeypleReaderEvent" style="stroke:#D4AC0D;stroke-width:3.75;" width="382.5" x="1676.25" y="736.6016"/><ellipse cx="1713.75" cy="776.6016" fill="#B4A7E5" rx="27.5" ry="27.5" style="stroke:#B4A7E5;stroke-width:2.5;"/><path d="M1716.25,769.1016 L1716.25,784.1016 L1721.25,784.1016 L1722.4609,784.1016 L1723.75,785.6641 L1723.75,786.6016 L1723.75,787.5391 L1722.4609,789.1016 L1721.25,789.1016 L1706.25,789.1016 L1705.0391,789.1016 L1703.75,787.5391 L1703.75,786.6016 L1703.75,785.6641 L1705.0391,784.1016 L1706.25,784.1016 L1711.25,784.1016 L1711.25,769.1016 L1706.25,769.1016 L1705.0391,769.1016 L1703.75,767.5391 L1703.75,766.6016 L1703.75,765.6641 L1705.0391,764.1016 L1706.25,764.1016 L1721.25,764.1016 L1722.4609,764.1016 L1723.75,765.6641 L1723.75,766.6016 L1723.75,767.5391 L1722.4609,769.1016 L1721.25,769.1016 L1716.25,769.1016 Z " fill="#000000"/><ellipse cx="1761.25" cy="775.3516" fill="#84BE84" rx="7.5" ry="7.5" style="stroke:#038048;stroke-width:2.5;"/><text fill="#000000" font-family="sans-serif" font-size="30" font-style="italic" lengthAdjust="spacing" textLength="275" x="1776.25" y="788.877">KeypleReaderEvent</text><line style="stroke:#D4AC0D;stroke-width:3.75;" x1="1678.75" x2="2056.25" y1="816.6016" y2="816.6016"/><line style="stroke:#D4AC0D;stroke-width:3.75;" x1="1678.75" x2="2056.25" y1="836.6016" y2="836.6016"/><!--MD5=[f517fae8878da5a74dcd00491ba27f17]
link ApiProperties to KeyplePluginFactory--><!--MD5=[655640dc488a50c08e603fdbab1e598e]
link KeyplePluginFactory to KeyplePlugin--><!--MD5=[e509a75a9e50b5264f2d1c6681a0a2e0]
link KeyplePlugin to KeypleReader--><!--MD5=[1dc4ae9f8cebb7322170e22d55bc3f0b]
link ApiProperties to KeypleCardExtension--><!--MD5=[23c311cf8bfeae5a04d4a6f97fbd1279]
link KeypleCardExtension to KeypleDistributedLocalServiceFactory--><!--MD5=[884d3a34119482e0c29e65ad2095a4ff]
link KeypleDistributedLocalServiceFactory to KeypleDistributedLocalService--><!--MD5=[e589fd1f90fd79c996ec6f04bb7808d0]
link KeypleDistributedLocalService to KeypleDefaultSelectionsRequest--><!--MD5=[53a9528e1322e781ba30798f943a4a51]
link KeypleCardExtension to KeypleDefaultSelectionsResponse--><!--MD5=[0ce06fbaa27741def1fb106c718a3684]
link KeypleDefaultSelectionsResponse to KeypleCardSelector--><!--MD5=[c6458e81f2612b96d2fff22416797b84]
link KeypleCardSelector to KeyplePluginEvent--><!--MD5=[9f3aacdec3cfe6be3f601eccda26207c]
link KeyplePluginEvent to KeypleReaderEvent--><!--MD5=[6dd83bb5e815f89f8fe4cd2fa530a839]
@startuml
title
    Keyple 2.0 - keyple-java-commons-api - 2.0 (09/02/2021)
end title

' == THEME ==

'Couleurs issues de : https://htmlcolorcodes.com/fr/tableau-de-couleur/tableau-de-couleur-design-plat/
!define C_GREY1 F8F9F9
!define C_GREY2 F2F3F4
!define C_GREY3 E5E7E9
!define C_GREY4 D7DBDD
!define C_GREY5 CACFD2
!define C_GREY6 BDC3C7
!define C_LINK 3498DB
!define C_USE 27AE60

skinparam Shadowing false
skinparam ClassFontStyle italic
skinparam ClassBorderColor #D4AC0D
skinparam stereotypeABorderColor #A9DCDF
skinparam stereotypeIBorderColor #B4A7E5
skinparam stereotypeCBorderColor #ADD1B2
skinparam stereotypeEBorderColor #EB93DF
' Red
skinparam ClassBackgroundColor<<red>> #FDEDEC
skinparam ClassBorderColor<<red>> #E74C3C
hide <<red>> stereotype
' Purple
skinparam ClassBackgroundColor<<purple>> #F4ECF7
skinparam ClassBorderColor<<purple>> #8E44AD
hide <<purple>> stereotype
' blue
skinparam ClassBackgroundColor<<blue>> #EBF5FB
skinparam ClassBorderColor<<blue>> #3498DB
hide <<blue>> stereotype
' Green
skinparam ClassBackgroundColor<<green>> #E9F7EF
skinparam ClassBorderColor<<green>> #27AE60
hide <<green>> stereotype
' Grey
skinparam ClassBackgroundColor<<grey>> #EAECEE
skinparam ClassBorderColor<<grey>> #2C3E50
hide <<grey>> stereotype

' == CONTENT ==


package "org.eclipse.keyple.core.commons" as api {
    +class "**final** CommonsApiProperties" as ApiProperties {
        +{static} **final** String VERSION
    }
    +interface KeyplePluginFactory {
    }
    +interface KeyplePlugin {
    }
    +interface KeypleReader {
    }
    +interface KeypleCardExtension {
    }
    +interface KeypleDistributedLocalServiceFactory {
    }
    +interface KeypleDistributedLocalService {
    }
    +interface KeypleDefaultSelectionsRequest {
    }
    +interface KeypleDefaultSelectionsResponse {
    }
    +interface KeypleCardSelector {
    }
    +interface KeyplePluginEvent {
    }
    +interface KeypleReaderEvent {
    }
}

' Associations


' == LAYOUT ==


' == STYLE ==

package api #C_GREY1 {}

@enduml

@startuml
title
    Keyple 2.0 - keyple-java-commons-api - 2.0 (09/02/2021)
end title



skinparam Shadowing false
skinparam ClassFontStyle italic
skinparam ClassBorderColor #D4AC0D
skinparam stereotypeABorderColor #A9DCDF
skinparam stereotypeIBorderColor #B4A7E5
skinparam stereotypeCBorderColor #ADD1B2
skinparam stereotypeEBorderColor #EB93DF
skinparam ClassBackgroundColor<<red>> #FDEDEC
skinparam ClassBorderColor<<red>> #E74C3C
hide <<red>> stereotype
skinparam ClassBackgroundColor<<purple>> #F4ECF7
skinparam ClassBorderColor<<purple>> #8E44AD
hide <<purple>> stereotype
skinparam ClassBackgroundColor<<blue>> #EBF5FB
skinparam ClassBorderColor<<blue>> #3498DB
hide <<blue>> stereotype
skinparam ClassBackgroundColor<<green>> #E9F7EF
skinparam ClassBorderColor<<green>> #27AE60
hide <<green>> stereotype
skinparam ClassBackgroundColor<<grey>> #EAECEE
skinparam ClassBorderColor<<grey>> #2C3E50
hide <<grey>> stereotype



package "org.eclipse.keyple.core.commons" as api {
    +class "**final** CommonsApiProperties" as ApiProperties {
        +{static} **final** String VERSION
    }
    +interface KeyplePluginFactory {
    }
    +interface KeyplePlugin {
    }
    +interface KeypleReader {
    }
    +interface KeypleCardExtension {
    }
    +interface KeypleDistributedLocalServiceFactory {
    }
    +interface KeypleDistributedLocalService {
    }
    +interface KeypleDefaultSelectionsRequest {
    }
    +interface KeypleDefaultSelectionsResponse {
    }
    +interface KeypleCardSelector {
    }
    +interface KeyplePluginEvent {
    }
    +interface KeypleReaderEvent {
    }
}






package api #F8F9F9 {}

@enduml

PlantUML version 1.2021.01(Tue Feb 02 08:55:08 CET 2021)
(GPL source distribution)
Java Runtime: OpenJDK Runtime Environment
JVM: OpenJDK 64-Bit Server VM
Default Encoding: Cp1252
Language: fr
Country: FR
--></g></svg>