<?xml version="1.0" encoding="UTF-8" standalone="no"?><svg xmlns="http://www.w3.org/2000/svg" xmlns:xlink="http://www.w3.org/1999/xlink" contentScriptType="application/ecmascript" contentStyleType="text/css" height="1747.5px" preserveAspectRatio="none" style="width:3400px;height:1747px;" version="1.1" viewBox="0 0 3400 1747" width="3400px" zoomAndPan="magnify"><defs/><g><text fill="#000000" font-family="sans-serif" font-size="45" lengthAdjust="spacing" textLength="1025" x="1171.25" y="46.7139">Keyple 2.0 - Specific Extension - 2.0.0 (05/02/2021)</text><!--MD5=[621c849533070c5aba8aa732369aa9f8]
cluster commonsApi--><polygon fill="#F8F9F9" points="1952.5,71.6016,2467.5,71.6016,2485,130.625,2910,130.625,2910,321.6016,1952.5,321.6016,1952.5,71.6016" style="stroke:#000000;stroke-width:3.75;"/><line style="stroke:#000000;stroke-width:3.75;" x1="1952.5" x2="2485" y1="130.625" y2="130.625"/><text fill="#000000" font-family="sans-serif" font-size="35" font-weight="bold" lengthAdjust="spacing" textLength="500" x="1962.5" y="112.9346">org.eclipse.keyple.commons</text><!--MD5=[1713dcaf7bcd1f6045401bf8106829bd]
cluster serviceSelectionSpi--><polygon fill="#F2F3F4" points="2050,404.1016,2765,404.1016,2782.5,463.125,3245,463.125,3245,689.1016,2050,689.1016,2050,404.1016" style="stroke:#000000;stroke-width:3.75;"/><line style="stroke:#000000;stroke-width:3.75;" x1="2050" x2="2782.5" y1="463.125" y2="463.125"/><text fill="#000000" font-family="sans-serif" font-size="35" font-weight="bold" lengthAdjust="spacing" textLength="700" x="2060" y="445.4346">org.eclipse.keyple.service.selection.spi</text><!--MD5=[a17c93d7e125af4ebdd10ac0c519bd24]
cluster cardSpi--><polygon fill="#F8F9F9" points="1350,1446.6016,1837.5,1446.6016,1855,1505.625,2822.5,1505.625,2822.5,1731.6016,1350,1731.6016,1350,1446.6016" style="stroke:#000000;stroke-width:3.75;"/><line style="stroke:#000000;stroke-width:3.75;" x1="1350" x2="1855" y1="1505.625" y2="1505.625"/><text fill="#000000" font-family="sans-serif" font-size="35" font-weight="bold" lengthAdjust="spacing" textLength="472.5" x="1360" y="1487.9346">org.eclipse.keyple.card.spi</text><!--MD5=[d3c8ee72d6c013b9a0ff8b73b18ac396]
cluster specificExtension--><polygon fill="#F8F9F9" points="40,771.6016,377.5,771.6016,395,830.625,3357.5,830.625,3357.5,1364.1016,40,1364.1016,40,771.6016" style="stroke:#000000;stroke-width:3.75;"/><line style="stroke:#000000;stroke-width:3.75;" x1="40" x2="395" y1="830.625" y2="830.625"/><text fill="#000000" font-family="sans-serif" font-size="35" font-weight="bold" lengthAdjust="spacing" textLength="322.5" x="50" y="812.9346">specific.extension</text><!--MD5=[93835d7ffcf6a3787bfc7eb02bc099b1]
class KeypleCardExtension--><rect codeLine="48" fill="#FEFECE" height="120" id="KeypleCardExtension" style="stroke:#D4AC0D;stroke-width:3.75;" width="405" x="1992.5" y="161.6016"/><ellipse cx="2030" cy="201.6016" fill="#B4A7E5" rx="27.5" ry="27.5" style="stroke:#B4A7E5;stroke-width:2.5;"/><path d="M2032.5,194.1016 L2032.5,209.1016 L2037.5,209.1016 L2038.7109,209.1016 L2040,210.6641 L2040,211.6016 L2040,212.5391 L2038.7109,214.1016 L2037.5,214.1016 L2022.5,214.1016 L2021.2891,214.1016 L2020,212.5391 L2020,211.6016 L2020,210.6641 L2021.2891,209.1016 L2022.5,209.1016 L2027.5,209.1016 L2027.5,194.1016 L2022.5,194.1016 L2021.2891,194.1016 L2020,192.5391 L2020,191.6016 L2020,190.6641 L2021.2891,189.1016 L2022.5,189.1016 L2037.5,189.1016 L2038.7109,189.1016 L2040,190.6641 L2040,191.6016 L2040,192.5391 L2038.7109,194.1016 L2037.5,194.1016 L2032.5,194.1016 Z " fill="#000000"/><ellipse cx="2077.5" cy="200.3516" fill="#84BE84" rx="7.5" ry="7.5" style="stroke:#038048;stroke-width:2.5;"/><text fill="#000000" font-family="sans-serif" font-size="30" font-style="italic" lengthAdjust="spacing" textLength="297.5" x="2092.5" y="213.877">KeypleCardExtension</text><line style="stroke:#D4AC0D;stroke-width:3.75;" x1="1995" x2="2395" y1="241.6016" y2="241.6016"/><line style="stroke:#D4AC0D;stroke-width:3.75;" x1="1995" x2="2395" y1="261.6016" y2="261.6016"/><!--MD5=[992e355e37ebedcd3769e1f8c146b434]
class KeypleCardSelector--><rect codeLine="50" fill="#FEFECE" height="120" id="KeypleCardSelector" style="stroke:#D4AC0D;stroke-width:3.75;" width="382.5" x="2486.25" y="161.6016"/><ellipse cx="2523.75" cy="201.6016" fill="#B4A7E5" rx="27.5" ry="27.5" style="stroke:#B4A7E5;stroke-width:2.5;"/><path d="M2526.25,194.1016 L2526.25,209.1016 L2531.25,209.1016 L2532.4609,209.1016 L2533.75,210.6641 L2533.75,211.6016 L2533.75,212.5391 L2532.4609,214.1016 L2531.25,214.1016 L2516.25,214.1016 L2515.0391,214.1016 L2513.75,212.5391 L2513.75,211.6016 L2513.75,210.6641 L2515.0391,209.1016 L2516.25,209.1016 L2521.25,209.1016 L2521.25,194.1016 L2516.25,194.1016 L2515.0391,194.1016 L2513.75,192.5391 L2513.75,191.6016 L2513.75,190.6641 L2515.0391,189.1016 L2516.25,189.1016 L2531.25,189.1016 L2532.4609,189.1016 L2533.75,190.6641 L2533.75,191.6016 L2533.75,192.5391 L2532.4609,194.1016 L2531.25,194.1016 L2526.25,194.1016 Z " fill="#000000"/><ellipse cx="2571.25" cy="200.3516" fill="#84BE84" rx="7.5" ry="7.5" style="stroke:#038048;stroke-width:2.5;"/><text fill="#000000" font-family="sans-serif" font-size="30" font-style="italic" lengthAdjust="spacing" textLength="275" x="2586.25" y="213.877">KeypleCardSelector</text><line style="stroke:#D4AC0D;stroke-width:3.75;" x1="2488.75" x2="2866.25" y1="241.6016" y2="241.6016"/><line style="stroke:#D4AC0D;stroke-width:3.75;" x1="2488.75" x2="2866.25" y1="261.6016" y2="261.6016"/><!--MD5=[e210ee7b55cb4fcef849a017d68619f7]
class CardSelectionSpi--><rect codeLine="54" fill="#FEFECE" height="154.5898" id="CardSelectionSpi" style="stroke:#D4AC0D;stroke-width:3.75;" width="347.5" x="2091.25" y="494.1016"/><ellipse cx="2128.75" cy="534.1016" fill="#B4A7E5" rx="27.5" ry="27.5" style="stroke:#B4A7E5;stroke-width:2.5;"/><path d="M2131.25,526.6016 L2131.25,541.6016 L2136.25,541.6016 L2137.4609,541.6016 L2138.75,543.1641 L2138.75,544.1016 L2138.75,545.0391 L2137.4609,546.6016 L2136.25,546.6016 L2121.25,546.6016 L2120.0391,546.6016 L2118.75,545.0391 L2118.75,544.1016 L2118.75,543.1641 L2120.0391,541.6016 L2121.25,541.6016 L2126.25,541.6016 L2126.25,526.6016 L2121.25,526.6016 L2120.0391,526.6016 L2118.75,525.0391 L2118.75,524.1016 L2118.75,523.1641 L2120.0391,521.6016 L2121.25,521.6016 L2136.25,521.6016 L2137.4609,521.6016 L2138.75,523.1641 L2138.75,524.1016 L2138.75,525.0391 L2137.4609,526.6016 L2136.25,526.6016 L2131.25,526.6016 Z " fill="#000000"/><ellipse cx="2176.25" cy="532.8516" fill="#84BE84" rx="7.5" ry="7.5" style="stroke:#038048;stroke-width:2.5;"/><text fill="#000000" font-family="sans-serif" font-size="30" font-style="italic" lengthAdjust="spacing" textLength="240" x="2191.25" y="546.377">CardSelectionSpi</text><line style="stroke:#D4AC0D;stroke-width:3.75;" x1="2093.75" x2="2436.25" y1="574.1016" y2="574.1016"/><text fill="#000000" font-family="sans-serif" font-size="27.5" lengthAdjust="spacing" textLength="22.5" x="2106.25" y="612.6489">...</text><line style="stroke:#D4AC0D;stroke-width:3.75;" x1="2093.75" x2="2436.25" y1="628.6914" y2="628.6914"/><!--MD5=[c089e258773b765d812cd5d8bc232f90]
class SmartCardSpi--><rect codeLine="57" fill="#FEFECE" height="154.5898" id="SmartCardSpi" style="stroke:#D4AC0D;stroke-width:3.75;" width="302.5" x="2526.25" y="494.1016"/><ellipse cx="2563.75" cy="534.1016" fill="#B4A7E5" rx="27.5" ry="27.5" style="stroke:#B4A7E5;stroke-width:2.5;"/><path d="M2566.25,526.6016 L2566.25,541.6016 L2571.25,541.6016 L2572.4609,541.6016 L2573.75,543.1641 L2573.75,544.1016 L2573.75,545.0391 L2572.4609,546.6016 L2571.25,546.6016 L2556.25,546.6016 L2555.0391,546.6016 L2553.75,545.0391 L2553.75,544.1016 L2553.75,543.1641 L2555.0391,541.6016 L2556.25,541.6016 L2561.25,541.6016 L2561.25,526.6016 L2556.25,526.6016 L2555.0391,526.6016 L2553.75,525.0391 L2553.75,524.1016 L2553.75,523.1641 L2555.0391,521.6016 L2556.25,521.6016 L2571.25,521.6016 L2572.4609,521.6016 L2573.75,523.1641 L2573.75,524.1016 L2573.75,525.0391 L2572.4609,526.6016 L2571.25,526.6016 L2566.25,526.6016 Z " fill="#000000"/><ellipse cx="2611.25" cy="532.8516" fill="#84BE84" rx="7.5" ry="7.5" style="stroke:#038048;stroke-width:2.5;"/><text fill="#000000" font-family="sans-serif" font-size="30" font-style="italic" lengthAdjust="spacing" textLength="195" x="2626.25" y="546.377">SmartCardSpi</text><line style="stroke:#D4AC0D;stroke-width:3.75;" x1="2528.75" x2="2826.25" y1="574.1016" y2="574.1016"/><text fill="#000000" font-family="sans-serif" font-size="27.5" lengthAdjust="spacing" textLength="22.5" x="2541.25" y="612.6489">...</text><line style="stroke:#D4AC0D;stroke-width:3.75;" x1="2528.75" x2="2826.25" y1="628.6914" y2="628.6914"/><!--MD5=[d172dfe3fef1c01713438c88abcc6a2c]
class CardSelector--><rect codeLine="60" fill="#FEFECE" height="154.5898" id="CardSelector" style="stroke:#D4AC0D;stroke-width:3.75;" width="287.5" x="2916.25" y="494.1016"/><ellipse cx="2953.75" cy="534.1016" fill="#ADD1B2" rx="27.5" ry="27.5" style="stroke:#ADD1B2;stroke-width:2.5;"/><path d="M2958.75,525.3516 Q2959.2578,524.1016 2959.8438,523.4766 Q2960.4297,522.8516 2961.0938,522.8516 Q2962.2656,522.8516 2963.0078,523.5547 Q2963.75,524.2578 2963.75,525.8984 L2963.75,529.8047 Q2963.75,531.4453 2963.0469,532.1484 Q2962.3438,532.8516 2961.25,532.8516 Q2960.2734,532.8516 2959.6484,532.4219 Q2959.0234,531.9922 2958.75,530.8594 Q2958.6328,530.0781 2958.2031,529.6484 Q2957.4219,528.8281 2956.0156,528.3594 Q2954.6094,527.8516 2953.2031,527.8516 Q2951.4453,527.8516 2949.9609,528.5547 Q2948.5156,529.2578 2947.3828,530.8203 Q2946.25,532.3828 2946.25,534.5313 L2946.25,536.8359 Q2946.25,539.4141 2948.3594,541.1328 Q2950.4688,542.8516 2954.2188,542.8516 Q2956.4453,542.8516 2958.0078,542.3438 Q2958.9063,542.0703 2959.9219,541.1719 Q2960.5859,540.6641 2960.9375,540.5078 Q2961.2891,540.3516 2961.7188,540.3516 Q2962.5391,540.3516 2963.125,541.0156 Q2963.75,541.6406 2963.75,542.5391 Q2963.75,543.3984 2962.8906,544.4141 Q2961.6406,545.8984 2959.6484,546.7188 Q2957.0313,547.8516 2953.8281,547.8516 Q2950.0781,547.8516 2947.0703,546.3672 Q2944.6484,545.1953 2942.9297,542.6563 Q2941.25,540.1172 2941.25,537.1094 L2941.25,534.375 Q2941.25,531.25 2942.7344,528.5156 Q2944.2578,525.7813 2946.875,524.3359 Q2949.5313,522.8516 2952.5,522.8516 Q2954.2969,522.8516 2955.8594,523.4766 Q2957.4219,524.1016 2958.75,525.3516 Z " fill="#000000"/><ellipse cx="3001.25" cy="532.8516" fill="#84BE84" rx="7.5" ry="7.5" style="stroke:#038048;stroke-width:2.5;"/><text fill="#000000" font-family="sans-serif" font-size="30" font-style="italic" lengthAdjust="spacing" textLength="180" x="3016.25" y="546.377">CardSelector</text><line style="stroke:#D4AC0D;stroke-width:3.75;" x1="2918.75" x2="3201.25" y1="574.1016" y2="574.1016"/><text fill="#000000" font-family="sans-serif" font-size="27.5" lengthAdjust="spacing" textLength="22.5" x="2931.25" y="612.6489">...</text><line style="stroke:#D4AC0D;stroke-width:3.75;" x1="2918.75" x2="3201.25" y1="628.6914" y2="628.6914"/><!--MD5=[266955a256f69cd9e8835259646fbe13]
class CardExtensionSpi--><rect codeLine="132" fill="#EBF5FB" height="154.5898" id="CardExtensionSpi" style="stroke:#3498DB;stroke-width:3.75;" width="355" x="1390" y="1536.6016"/><ellipse cx="1427.5" cy="1576.6016" fill="#B4A7E5" rx="27.5" ry="27.5" style="stroke:#B4A7E5;stroke-width:2.5;"/><path d="M1430,1569.1016 L1430,1584.1016 L1435,1584.1016 L1436.2109,1584.1016 L1437.5,1585.6641 L1437.5,1586.6016 L1437.5,1587.5391 L1436.2109,1589.1016 L1435,1589.1016 L1420,1589.1016 L1418.7891,1589.1016 L1417.5,1587.5391 L1417.5,1586.6016 L1417.5,1585.6641 L1418.7891,1584.1016 L1420,1584.1016 L1425,1584.1016 L1425,1569.1016 L1420,1569.1016 L1418.7891,1569.1016 L1417.5,1567.5391 L1417.5,1566.6016 L1417.5,1565.6641 L1418.7891,1564.1016 L1420,1564.1016 L1435,1564.1016 L1436.2109,1564.1016 L1437.5,1565.6641 L1437.5,1566.6016 L1437.5,1567.5391 L1436.2109,1569.1016 L1435,1569.1016 L1430,1569.1016 Z " fill="#000000"/><ellipse cx="1475" cy="1575.3516" fill="#84BE84" rx="7.5" ry="7.5" style="stroke:#038048;stroke-width:2.5;"/><text fill="#000000" font-family="sans-serif" font-size="30" font-style="italic" lengthAdjust="spacing" textLength="247.5" x="1490" y="1588.877">CardExtensionSpi</text><line style="stroke:#3498DB;stroke-width:3.75;" x1="1392.5" x2="1742.5" y1="1616.6016" y2="1616.6016"/><text fill="#000000" font-family="sans-serif" font-size="27.5" lengthAdjust="spacing" textLength="22.5" x="1405" y="1655.1489">...</text><line style="stroke:#3498DB;stroke-width:3.75;" x1="1392.5" x2="1742.5" y1="1671.1914" y2="1671.1914"/><!--MD5=[3a5c4711d15e91aef89fd13bbee31039]
class InternalCardSelectionSpi--><rect codeLine="133" fill="#EBF5FB" height="154.5898" id="InternalCardSelectionSpi" style="stroke:#3498DB;stroke-width:3.75;" width="452.5" x="1833.75" y="1536.6016"/><ellipse cx="1871.25" cy="1576.6016" fill="#B4A7E5" rx="27.5" ry="27.5" style="stroke:#B4A7E5;stroke-width:2.5;"/><path d="M1873.75,1569.1016 L1873.75,1584.1016 L1878.75,1584.1016 L1879.9609,1584.1016 L1881.25,1585.6641 L1881.25,1586.6016 L1881.25,1587.5391 L1879.9609,1589.1016 L1878.75,1589.1016 L1863.75,1589.1016 L1862.5391,1589.1016 L1861.25,1587.5391 L1861.25,1586.6016 L1861.25,1585.6641 L1862.5391,1584.1016 L1863.75,1584.1016 L1868.75,1584.1016 L1868.75,1569.1016 L1863.75,1569.1016 L1862.5391,1569.1016 L1861.25,1567.5391 L1861.25,1566.6016 L1861.25,1565.6641 L1862.5391,1564.1016 L1863.75,1564.1016 L1878.75,1564.1016 L1879.9609,1564.1016 L1881.25,1565.6641 L1881.25,1566.6016 L1881.25,1567.5391 L1879.9609,1569.1016 L1878.75,1569.1016 L1873.75,1569.1016 Z " fill="#000000"/><ellipse cx="1918.75" cy="1575.3516" fill="#84BE84" rx="7.5" ry="7.5" style="stroke:#038048;stroke-width:2.5;"/><text fill="#000000" font-family="sans-serif" font-size="30" font-style="italic" lengthAdjust="spacing" textLength="345" x="1933.75" y="1588.877">InternalCardSelectionSpi</text><line style="stroke:#3498DB;stroke-width:3.75;" x1="1836.25" x2="2283.75" y1="1616.6016" y2="1616.6016"/><text fill="#000000" font-family="sans-serif" font-size="27.5" lengthAdjust="spacing" textLength="22.5" x="1848.75" y="1655.1489">...</text><line style="stroke:#3498DB;stroke-width:3.75;" x1="1836.25" x2="2283.75" y1="1671.1914" y2="1671.1914"/><!--MD5=[6c156a20811ce21116b31653c6b60805]
class InternalSmartCardSpi--><rect codeLine="134" fill="#EBF5FB" height="120" id="InternalSmartCardSpi" style="stroke:#3498DB;stroke-width:3.75;" width="407.5" x="2373.75" y="1554.1016"/><ellipse cx="2411.25" cy="1594.1016" fill="#B4A7E5" rx="27.5" ry="27.5" style="stroke:#B4A7E5;stroke-width:2.5;"/><path d="M2413.75,1586.6016 L2413.75,1601.6016 L2418.75,1601.6016 L2419.9609,1601.6016 L2421.25,1603.1641 L2421.25,1604.1016 L2421.25,1605.0391 L2419.9609,1606.6016 L2418.75,1606.6016 L2403.75,1606.6016 L2402.5391,1606.6016 L2401.25,1605.0391 L2401.25,1604.1016 L2401.25,1603.1641 L2402.5391,1601.6016 L2403.75,1601.6016 L2408.75,1601.6016 L2408.75,1586.6016 L2403.75,1586.6016 L2402.5391,1586.6016 L2401.25,1585.0391 L2401.25,1584.1016 L2401.25,1583.1641 L2402.5391,1581.6016 L2403.75,1581.6016 L2418.75,1581.6016 L2419.9609,1581.6016 L2421.25,1583.1641 L2421.25,1584.1016 L2421.25,1585.0391 L2419.9609,1586.6016 L2418.75,1586.6016 L2413.75,1586.6016 Z " fill="#000000"/><ellipse cx="2458.75" cy="1592.8516" fill="#84BE84" rx="7.5" ry="7.5" style="stroke:#038048;stroke-width:2.5;"/><text fill="#000000" font-family="sans-serif" font-size="30" font-style="italic" lengthAdjust="spacing" textLength="300" x="2473.75" y="1606.377">InternalSmartCardSpi</text><line style="stroke:#3498DB;stroke-width:3.75;" x1="2376.25" x2="2778.75" y1="1634.1016" y2="1634.1016"/><line style="stroke:#3498DB;stroke-width:3.75;" x1="2376.25" x2="2778.75" y1="1654.1016" y2="1654.1016"/><!--MD5=[840dca342d2e2f3185b16a9f6795b3c6]
class xxxSmartCard--><rect codeLine="78" fill="#FEFECE" height="154.5898" id="xxxSmartCard" style="stroke:#D4AC0D;stroke-width:3.75;" width="302.5" x="2526.25" y="861.6016"/><ellipse cx="2563.75" cy="901.6016" fill="#B4A7E5" rx="27.5" ry="27.5" style="stroke:#B4A7E5;stroke-width:2.5;"/><path d="M2566.25,894.1016 L2566.25,909.1016 L2571.25,909.1016 L2572.4609,909.1016 L2573.75,910.6641 L2573.75,911.6016 L2573.75,912.5391 L2572.4609,914.1016 L2571.25,914.1016 L2556.25,914.1016 L2555.0391,914.1016 L2553.75,912.5391 L2553.75,911.6016 L2553.75,910.6641 L2555.0391,909.1016 L2556.25,909.1016 L2561.25,909.1016 L2561.25,894.1016 L2556.25,894.1016 L2555.0391,894.1016 L2553.75,892.5391 L2553.75,891.6016 L2553.75,890.6641 L2555.0391,889.1016 L2556.25,889.1016 L2571.25,889.1016 L2572.4609,889.1016 L2573.75,890.6641 L2573.75,891.6016 L2573.75,892.5391 L2572.4609,894.1016 L2571.25,894.1016 L2566.25,894.1016 Z " fill="#000000"/><ellipse cx="2611.25" cy="900.3516" fill="#84BE84" rx="7.5" ry="7.5" style="stroke:#038048;stroke-width:2.5;"/><text fill="#000000" font-family="sans-serif" font-size="30" font-style="italic" lengthAdjust="spacing" textLength="195" x="2626.25" y="913.877">xxxSmartCard</text><line style="stroke:#D4AC0D;stroke-width:3.75;" x1="2528.75" x2="2826.25" y1="941.6016" y2="941.6016"/><text fill="#000000" font-family="sans-serif" font-size="27.5" lengthAdjust="spacing" textLength="22.5" x="2541.25" y="980.1489">...</text><line style="stroke:#D4AC0D;stroke-width:3.75;" x1="2528.75" x2="2826.25" y1="996.1914" y2="996.1914"/><!--MD5=[257d6e86f7df7e1c6d8f7525c106ca52]
class xxxCardSelectionFactory--><rect codeLine="81" fill="#FEFECE" height="154.5898" id="xxxCardSelectionFactory" style="stroke:#D4AC0D;stroke-width:3.75;" width="517.5" x="1348.75" y="861.6016"/><ellipse cx="1387.375" cy="901.6016" fill="#ADD1B2" rx="27.5" ry="27.5" style="stroke:#ADD1B2;stroke-width:2.5;"/><path d="M1392.375,892.8516 Q1392.8828,891.6016 1393.4688,890.9766 Q1394.0547,890.3516 1394.7188,890.3516 Q1395.8906,890.3516 1396.6328,891.0547 Q1397.375,891.7578 1397.375,893.3984 L1397.375,897.3047 Q1397.375,898.9453 1396.6719,899.6484 Q1395.9688,900.3516 1394.875,900.3516 Q1393.8984,900.3516 1393.2734,899.9219 Q1392.6484,899.4922 1392.375,898.3594 Q1392.2578,897.5781 1391.8281,897.1484 Q1391.0469,896.3281 1389.6406,895.8594 Q1388.2344,895.3516 1386.8281,895.3516 Q1385.0703,895.3516 1383.5859,896.0547 Q1382.1406,896.7578 1381.0078,898.3203 Q1379.875,899.8828 1379.875,902.0313 L1379.875,904.3359 Q1379.875,906.9141 1381.9844,908.6328 Q1384.0938,910.3516 1387.8438,910.3516 Q1390.0703,910.3516 1391.6328,909.8438 Q1392.5313,909.5703 1393.5469,908.6719 Q1394.2109,908.1641 1394.5625,908.0078 Q1394.9141,907.8516 1395.3438,907.8516 Q1396.1641,907.8516 1396.75,908.5156 Q1397.375,909.1406 1397.375,910.0391 Q1397.375,910.8984 1396.5156,911.9141 Q1395.2656,913.3984 1393.2734,914.2188 Q1390.6563,915.3516 1387.4531,915.3516 Q1383.7031,915.3516 1380.6953,913.8672 Q1378.2734,912.6953 1376.5547,910.1563 Q1374.875,907.6172 1374.875,904.6094 L1374.875,901.875 Q1374.875,898.75 1376.3594,896.0156 Q1377.8828,893.2813 1380.5,891.8359 Q1383.1563,890.3516 1386.125,890.3516 Q1387.9219,890.3516 1389.4844,890.9766 Q1391.0469,891.6016 1392.375,892.8516 Z " fill="#000000"/><ellipse cx="1435.125" cy="900.3516" fill="#84BE84" rx="7.5" ry="7.5" style="stroke:#038048;stroke-width:2.5;"/><text fill="#000000" font-family="sans-serif" font-size="30" font-style="italic" font-weight="bold" lengthAdjust="spacing" textLength="60" x="1450.125" y="913.877">final</text><text fill="#000000" font-family="sans-serif" font-size="30" font-style="italic" lengthAdjust="spacing" textLength="340" x="1517.625" y="913.877">xxxCardSelectionFactory</text><line style="stroke:#D4AC0D;stroke-width:3.75;" x1="1351.25" x2="1863.75" y1="941.6016" y2="941.6016"/><line style="stroke:#D4AC0D;stroke-width:3.75;" x1="1351.25" x2="1863.75" y1="961.6016" y2="961.6016"/><ellipse cx="1376.25" cy="989.1016" fill="#84BE84" rx="7.5" ry="7.5" style="stroke:#038048;stroke-width:2.5;"/><text fill="#000000" font-family="sans-serif" font-size="27.5" lengthAdjust="spacing" text-decoration="underline" textLength="452.5" x="1398.75" y="1000.1489">xxxCardSelection getCardSelection ()</text><!--MD5=[96c12fe999c27355c48f5d6d4eb4d00c]
class xxxCardSelection--><rect codeLine="84" fill="#FEFECE" height="154.5898" id="xxxCardSelection" style="stroke:#D4AC0D;stroke-width:3.75;" width="347.5" x="2091.25" y="861.6016"/><ellipse cx="2128.75" cy="901.6016" fill="#B4A7E5" rx="27.5" ry="27.5" style="stroke:#B4A7E5;stroke-width:2.5;"/><path d="M2131.25,894.1016 L2131.25,909.1016 L2136.25,909.1016 L2137.4609,909.1016 L2138.75,910.6641 L2138.75,911.6016 L2138.75,912.5391 L2137.4609,914.1016 L2136.25,914.1016 L2121.25,914.1016 L2120.0391,914.1016 L2118.75,912.5391 L2118.75,911.6016 L2118.75,910.6641 L2120.0391,909.1016 L2121.25,909.1016 L2126.25,909.1016 L2126.25,894.1016 L2121.25,894.1016 L2120.0391,894.1016 L2118.75,892.5391 L2118.75,891.6016 L2118.75,890.6641 L2120.0391,889.1016 L2121.25,889.1016 L2136.25,889.1016 L2137.4609,889.1016 L2138.75,890.6641 L2138.75,891.6016 L2138.75,892.5391 L2137.4609,894.1016 L2136.25,894.1016 L2131.25,894.1016 Z " fill="#000000"/><ellipse cx="2176.25" cy="900.3516" fill="#84BE84" rx="7.5" ry="7.5" style="stroke:#038048;stroke-width:2.5;"/><text fill="#000000" font-family="sans-serif" font-size="30" font-style="italic" lengthAdjust="spacing" textLength="240" x="2191.25" y="913.877">xxxCardSelection</text><line style="stroke:#D4AC0D;stroke-width:3.75;" x1="2093.75" x2="2436.25" y1="941.6016" y2="941.6016"/><text fill="#000000" font-family="sans-serif" font-size="27.5" lengthAdjust="spacing" textLength="22.5" x="2106.25" y="980.1489">...</text><line style="stroke:#D4AC0D;stroke-width:3.75;" x1="2093.75" x2="2436.25" y1="996.1914" y2="996.1914"/><!--MD5=[ae929fe69c881de7fe1da2c6010f3e4d]
class xxxCardSelector--><rect codeLine="87" fill="#FEFECE" height="154.5898" id="xxxCardSelector" style="stroke:#D4AC0D;stroke-width:3.75;" width="400" x="2917.5" y="861.6016"/><ellipse cx="2955" cy="901.6016" fill="#ADD1B2" rx="27.5" ry="27.5" style="stroke:#ADD1B2;stroke-width:2.5;"/><path d="M2960,892.8516 Q2960.5078,891.6016 2961.0938,890.9766 Q2961.6797,890.3516 2962.3438,890.3516 Q2963.5156,890.3516 2964.2578,891.0547 Q2965,891.7578 2965,893.3984 L2965,897.3047 Q2965,898.9453 2964.2969,899.6484 Q2963.5938,900.3516 2962.5,900.3516 Q2961.5234,900.3516 2960.8984,899.9219 Q2960.2734,899.4922 2960,898.3594 Q2959.8828,897.5781 2959.4531,897.1484 Q2958.6719,896.3281 2957.2656,895.8594 Q2955.8594,895.3516 2954.4531,895.3516 Q2952.6953,895.3516 2951.2109,896.0547 Q2949.7656,896.7578 2948.6328,898.3203 Q2947.5,899.8828 2947.5,902.0313 L2947.5,904.3359 Q2947.5,906.9141 2949.6094,908.6328 Q2951.7188,910.3516 2955.4688,910.3516 Q2957.6953,910.3516 2959.2578,909.8438 Q2960.1563,909.5703 2961.1719,908.6719 Q2961.8359,908.1641 2962.1875,908.0078 Q2962.5391,907.8516 2962.9688,907.8516 Q2963.7891,907.8516 2964.375,908.5156 Q2965,909.1406 2965,910.0391 Q2965,910.8984 2964.1406,911.9141 Q2962.8906,913.3984 2960.8984,914.2188 Q2958.2813,915.3516 2955.0781,915.3516 Q2951.3281,915.3516 2948.3203,913.8672 Q2945.8984,912.6953 2944.1797,910.1563 Q2942.5,907.6172 2942.5,904.6094 L2942.5,901.875 Q2942.5,898.75 2943.9844,896.0156 Q2945.5078,893.2813 2948.125,891.8359 Q2950.7813,890.3516 2953.75,890.3516 Q2955.5469,890.3516 2957.1094,890.9766 Q2958.6719,891.6016 2960,892.8516 Z " fill="#000000"/><ellipse cx="3002.5" cy="900.3516" fill="#84BE84" rx="7.5" ry="7.5" style="stroke:#038048;stroke-width:2.5;"/><text fill="#000000" font-family="sans-serif" font-size="30" font-style="italic" font-weight="bold" lengthAdjust="spacing" textLength="60" x="3017.5" y="913.877">final</text><text fill="#000000" font-family="sans-serif" font-size="30" font-style="italic" lengthAdjust="spacing" textLength="225" x="3085" y="913.877">xxxCardSelector</text><line style="stroke:#D4AC0D;stroke-width:3.75;" x1="2920" x2="3315" y1="941.6016" y2="941.6016"/><text fill="#000000" font-family="sans-serif" font-size="27.5" lengthAdjust="spacing" textLength="22.5" x="2932.5" y="980.1489">...</text><line style="stroke:#D4AC0D;stroke-width:3.75;" x1="2920" x2="3315" y1="996.1914" y2="996.1914"/><!--MD5=[125c2a9664bfb82a01f56afd98fcef0c]
class xxxCardExtension--><rect codeLine="90" fill="#FEFECE" height="154.5898" id="xxxCardExtension" style="stroke:#D4AC0D;stroke-width:3.75;" width="422.5" x="838.75" y="861.6016"/><ellipse cx="876.25" cy="901.6016" fill="#B4A7E5" rx="27.5" ry="27.5" style="stroke:#B4A7E5;stroke-width:2.5;"/><path d="M878.75,894.1016 L878.75,909.1016 L883.75,909.1016 L884.9609,909.1016 L886.25,910.6641 L886.25,911.6016 L886.25,912.5391 L884.9609,914.1016 L883.75,914.1016 L868.75,914.1016 L867.5391,914.1016 L866.25,912.5391 L866.25,911.6016 L866.25,910.6641 L867.5391,909.1016 L868.75,909.1016 L873.75,909.1016 L873.75,894.1016 L868.75,894.1016 L867.5391,894.1016 L866.25,892.5391 L866.25,891.6016 L866.25,890.6641 L867.5391,889.1016 L868.75,889.1016 L883.75,889.1016 L884.9609,889.1016 L886.25,890.6641 L886.25,891.6016 L886.25,892.5391 L884.9609,894.1016 L883.75,894.1016 L878.75,894.1016 Z " fill="#000000"/><ellipse cx="923.75" cy="900.3516" fill="#84BE84" rx="7.5" ry="7.5" style="stroke:#038048;stroke-width:2.5;"/><text fill="#000000" font-family="sans-serif" font-size="30" font-style="italic" font-weight="bold" lengthAdjust="spacing" textLength="60" x="938.75" y="913.877">final</text><text fill="#000000" font-family="sans-serif" font-size="30" font-style="italic" lengthAdjust="spacing" textLength="247.5" x="1006.25" y="913.877">xxxCardExtension</text><line style="stroke:#D4AC0D;stroke-width:3.75;" x1="841.25" x2="1258.75" y1="941.6016" y2="941.6016"/><text fill="#000000" font-family="sans-serif" font-size="27.5" lengthAdjust="spacing" textLength="22.5" x="853.75" y="980.1489">...</text><line style="stroke:#D4AC0D;stroke-width:3.75;" x1="841.25" x2="1258.75" y1="996.1914" y2="996.1914"/><!--MD5=[209003174e0cda1dca97af0a56f55729]
class xxxCardExtensionFactory--><rect codeLine="93" fill="#FEFECE" height="154.5898" id="xxxCardExtensionFactory" style="stroke:#D4AC0D;stroke-width:3.75;" width="532.5" x="81.25" y="861.6016"/><ellipse cx="123.25" cy="901.6016" fill="#ADD1B2" rx="27.5" ry="27.5" style="stroke:#ADD1B2;stroke-width:2.5;"/><path d="M128.25,892.8516 Q128.7578,891.6016 129.3438,890.9766 Q129.9297,890.3516 130.5938,890.3516 Q131.7656,890.3516 132.5078,891.0547 Q133.25,891.7578 133.25,893.3984 L133.25,897.3047 Q133.25,898.9453 132.5469,899.6484 Q131.8438,900.3516 130.75,900.3516 Q129.7734,900.3516 129.1484,899.9219 Q128.5234,899.4922 128.25,898.3594 Q128.1328,897.5781 127.7031,897.1484 Q126.9219,896.3281 125.5156,895.8594 Q124.1094,895.3516 122.7031,895.3516 Q120.9453,895.3516 119.4609,896.0547 Q118.0156,896.7578 116.8828,898.3203 Q115.75,899.8828 115.75,902.0313 L115.75,904.3359 Q115.75,906.9141 117.8594,908.6328 Q119.9688,910.3516 123.7188,910.3516 Q125.9453,910.3516 127.5078,909.8438 Q128.4063,909.5703 129.4219,908.6719 Q130.0859,908.1641 130.4375,908.0078 Q130.7891,907.8516 131.2188,907.8516 Q132.0391,907.8516 132.625,908.5156 Q133.25,909.1406 133.25,910.0391 Q133.25,910.8984 132.3906,911.9141 Q131.1406,913.3984 129.1484,914.2188 Q126.5313,915.3516 123.3281,915.3516 Q119.5781,915.3516 116.5703,913.8672 Q114.1484,912.6953 112.4297,910.1563 Q110.75,907.6172 110.75,904.6094 L110.75,901.875 Q110.75,898.75 112.2344,896.0156 Q113.7578,893.2813 116.375,891.8359 Q119.0313,890.3516 122,890.3516 Q123.7969,890.3516 125.3594,890.9766 Q126.9219,891.6016 128.25,892.8516 Z " fill="#000000"/><ellipse cx="171.75" cy="900.3516" fill="#84BE84" rx="7.5" ry="7.5" style="stroke:#038048;stroke-width:2.5;"/><text fill="#000000" font-family="sans-serif" font-size="30" font-style="italic" font-weight="bold" lengthAdjust="spacing" textLength="60" x="186.75" y="913.877">final</text><text fill="#000000" font-family="sans-serif" font-size="30" font-style="italic" lengthAdjust="spacing" textLength="347.5" x="254.25" y="913.877">xxxCardExtensionFactory</text><line style="stroke:#D4AC0D;stroke-width:3.75;" x1="83.75" x2="611.25" y1="941.6016" y2="941.6016"/><line style="stroke:#D4AC0D;stroke-width:3.75;" x1="83.75" x2="611.25" y1="961.6016" y2="961.6016"/><ellipse cx="108.75" cy="989.1016" fill="#84BE84" rx="7.5" ry="7.5" style="stroke:#038048;stroke-width:2.5;"/><text fill="#000000" font-family="sans-serif" font-size="27.5" lengthAdjust="spacing" text-decoration="underline" textLength="467.5" x="131.25" y="1000.1489">xxxCardExtension getCardExtension ()</text><!--MD5=[ebba046afa18336849519919c4fd7f55]
class xxxCardExtensionAdapter--><rect codeLine="129" fill="#EBF5FB" height="154.5898" id="xxxCardExtensionAdapter" style="stroke:#3498DB;stroke-width:3.75;" width="530" x="1205" y="1169.1016"/><ellipse cx="1242.5" cy="1209.1016" fill="#ADD1B2" rx="27.5" ry="27.5" style="stroke:#ADD1B2;stroke-width:2.5;"/><path d="M1247.5,1200.3516 Q1248.0078,1199.1016 1248.5938,1198.4766 Q1249.1797,1197.8516 1249.8438,1197.8516 Q1251.0156,1197.8516 1251.7578,1198.5547 Q1252.5,1199.2578 1252.5,1200.8984 L1252.5,1204.8047 Q1252.5,1206.4453 1251.7969,1207.1484 Q1251.0938,1207.8516 1250,1207.8516 Q1249.0234,1207.8516 1248.3984,1207.4219 Q1247.7734,1206.9922 1247.5,1205.8594 Q1247.3828,1205.0781 1246.9531,1204.6484 Q1246.1719,1203.8281 1244.7656,1203.3594 Q1243.3594,1202.8516 1241.9531,1202.8516 Q1240.1953,1202.8516 1238.7109,1203.5547 Q1237.2656,1204.2578 1236.1328,1205.8203 Q1235,1207.3828 1235,1209.5313 L1235,1211.8359 Q1235,1214.4141 1237.1094,1216.1328 Q1239.2188,1217.8516 1242.9688,1217.8516 Q1245.1953,1217.8516 1246.7578,1217.3438 Q1247.6563,1217.0703 1248.6719,1216.1719 Q1249.3359,1215.6641 1249.6875,1215.5078 Q1250.0391,1215.3516 1250.4688,1215.3516 Q1251.2891,1215.3516 1251.875,1216.0156 Q1252.5,1216.6406 1252.5,1217.5391 Q1252.5,1218.3984 1251.6406,1219.4141 Q1250.3906,1220.8984 1248.3984,1221.7188 Q1245.7813,1222.8516 1242.5781,1222.8516 Q1238.8281,1222.8516 1235.8203,1221.3672 Q1233.3984,1220.1953 1231.6797,1217.6563 Q1230,1215.1172 1230,1212.1094 L1230,1209.375 Q1230,1206.25 1231.4844,1203.5156 Q1233.0078,1200.7813 1235.625,1199.3359 Q1238.2813,1197.8516 1241.25,1197.8516 Q1243.0469,1197.8516 1244.6094,1198.4766 Q1246.1719,1199.1016 1247.5,1200.3516 Z " fill="#000000"/><polygon fill="#4177AF" points="1290,1197.8516,1280,1212.8516,1300,1212.8516" style="stroke:#1963A0;stroke-width:2.5;"/><text fill="#000000" font-family="sans-serif" font-size="30" font-style="italic" font-weight="bold" lengthAdjust="spacing" textLength="60" x="1305" y="1221.377">final</text><text fill="#000000" font-family="sans-serif" font-size="30" font-style="italic" lengthAdjust="spacing" textLength="355" x="1372.5" y="1221.377">xxxCardExtensionAdapter</text><line style="stroke:#3498DB;stroke-width:3.75;" x1="1207.5" x2="1732.5" y1="1249.1016" y2="1249.1016"/><text fill="#000000" font-family="sans-serif" font-size="27.5" lengthAdjust="spacing" textLength="22.5" x="1220" y="1287.6489">...</text><line style="stroke:#3498DB;stroke-width:3.75;" x1="1207.5" x2="1732.5" y1="1303.6914" y2="1303.6914"/><!--MD5=[cce03acc605d094508f66994b4b4a5f2]
class xxxSmartCardAdapter--><rect codeLine="131" fill="#EBF5FB" height="154.5898" id="xxxSmartCardAdapter" style="stroke:#3498DB;stroke-width:3.75;" width="477.5" x="2438.75" y="1169.1016"/><ellipse cx="2476.25" cy="1209.1016" fill="#ADD1B2" rx="27.5" ry="27.5" style="stroke:#ADD1B2;stroke-width:2.5;"/><path d="M2481.25,1200.3516 Q2481.7578,1199.1016 2482.3438,1198.4766 Q2482.9297,1197.8516 2483.5938,1197.8516 Q2484.7656,1197.8516 2485.5078,1198.5547 Q2486.25,1199.2578 2486.25,1200.8984 L2486.25,1204.8047 Q2486.25,1206.4453 2485.5469,1207.1484 Q2484.8438,1207.8516 2483.75,1207.8516 Q2482.7734,1207.8516 2482.1484,1207.4219 Q2481.5234,1206.9922 2481.25,1205.8594 Q2481.1328,1205.0781 2480.7031,1204.6484 Q2479.9219,1203.8281 2478.5156,1203.3594 Q2477.1094,1202.8516 2475.7031,1202.8516 Q2473.9453,1202.8516 2472.4609,1203.5547 Q2471.0156,1204.2578 2469.8828,1205.8203 Q2468.75,1207.3828 2468.75,1209.5313 L2468.75,1211.8359 Q2468.75,1214.4141 2470.8594,1216.1328 Q2472.9688,1217.8516 2476.7188,1217.8516 Q2478.9453,1217.8516 2480.5078,1217.3438 Q2481.4063,1217.0703 2482.4219,1216.1719 Q2483.0859,1215.6641 2483.4375,1215.5078 Q2483.7891,1215.3516 2484.2188,1215.3516 Q2485.0391,1215.3516 2485.625,1216.0156 Q2486.25,1216.6406 2486.25,1217.5391 Q2486.25,1218.3984 2485.3906,1219.4141 Q2484.1406,1220.8984 2482.1484,1221.7188 Q2479.5313,1222.8516 2476.3281,1222.8516 Q2472.5781,1222.8516 2469.5703,1221.3672 Q2467.1484,1220.1953 2465.4297,1217.6563 Q2463.75,1215.1172 2463.75,1212.1094 L2463.75,1209.375 Q2463.75,1206.25 2465.2344,1203.5156 Q2466.7578,1200.7813 2469.375,1199.3359 Q2472.0313,1197.8516 2475,1197.8516 Q2476.7969,1197.8516 2478.3594,1198.4766 Q2479.9219,1199.1016 2481.25,1200.3516 Z " fill="#000000"/><polygon fill="#4177AF" points="2523.75,1197.8516,2513.75,1212.8516,2533.75,1212.8516" style="stroke:#1963A0;stroke-width:2.5;"/><text fill="#000000" font-family="sans-serif" font-size="30" font-style="italic" font-weight="bold" lengthAdjust="spacing" textLength="60" x="2538.75" y="1221.377">final</text><text fill="#000000" font-family="sans-serif" font-size="30" font-style="italic" lengthAdjust="spacing" textLength="302.5" x="2606.25" y="1221.377">xxxSmartCardAdapter</text><line style="stroke:#3498DB;stroke-width:3.75;" x1="2441.25" x2="2913.75" y1="1249.1016" y2="1249.1016"/><text fill="#000000" font-family="sans-serif" font-size="27.5" lengthAdjust="spacing" textLength="22.5" x="2453.75" y="1287.6489">...</text><line style="stroke:#3498DB;stroke-width:3.75;" x1="2441.25" x2="2913.75" y1="1303.6914" y2="1303.6914"/><!--MD5=[b7f723709f4c95e341f6eb59b203b4a1]
class xxxCardSelectionAdapter--><rect codeLine="130" fill="#EBF5FB" height="154.5898" id="xxxCardSelectionAdapter" style="stroke:#3498DB;stroke-width:3.75;" width="522.5" x="1828.75" y="1169.1016"/><ellipse cx="1866.25" cy="1209.1016" fill="#ADD1B2" rx="27.5" ry="27.5" style="stroke:#ADD1B2;stroke-width:2.5;"/><path d="M1871.25,1200.3516 Q1871.7578,1199.1016 1872.3438,1198.4766 Q1872.9297,1197.8516 1873.5938,1197.8516 Q1874.7656,1197.8516 1875.5078,1198.5547 Q1876.25,1199.2578 1876.25,1200.8984 L1876.25,1204.8047 Q1876.25,1206.4453 1875.5469,1207.1484 Q1874.8438,1207.8516 1873.75,1207.8516 Q1872.7734,1207.8516 1872.1484,1207.4219 Q1871.5234,1206.9922 1871.25,1205.8594 Q1871.1328,1205.0781 1870.7031,1204.6484 Q1869.9219,1203.8281 1868.5156,1203.3594 Q1867.1094,1202.8516 1865.7031,1202.8516 Q1863.9453,1202.8516 1862.4609,1203.5547 Q1861.0156,1204.2578 1859.8828,1205.8203 Q1858.75,1207.3828 1858.75,1209.5313 L1858.75,1211.8359 Q1858.75,1214.4141 1860.8594,1216.1328 Q1862.9688,1217.8516 1866.7188,1217.8516 Q1868.9453,1217.8516 1870.5078,1217.3438 Q1871.4063,1217.0703 1872.4219,1216.1719 Q1873.0859,1215.6641 1873.4375,1215.5078 Q1873.7891,1215.3516 1874.2188,1215.3516 Q1875.0391,1215.3516 1875.625,1216.0156 Q1876.25,1216.6406 1876.25,1217.5391 Q1876.25,1218.3984 1875.3906,1219.4141 Q1874.1406,1220.8984 1872.1484,1221.7188 Q1869.5313,1222.8516 1866.3281,1222.8516 Q1862.5781,1222.8516 1859.5703,1221.3672 Q1857.1484,1220.1953 1855.4297,1217.6563 Q1853.75,1215.1172 1853.75,1212.1094 L1853.75,1209.375 Q1853.75,1206.25 1855.2344,1203.5156 Q1856.7578,1200.7813 1859.375,1199.3359 Q1862.0313,1197.8516 1865,1197.8516 Q1866.7969,1197.8516 1868.3594,1198.4766 Q1869.9219,1199.1016 1871.25,1200.3516 Z " fill="#000000"/><polygon fill="#4177AF" points="1913.75,1197.8516,1903.75,1212.8516,1923.75,1212.8516" style="stroke:#1963A0;stroke-width:2.5;"/><text fill="#000000" font-family="sans-serif" font-size="30" font-style="italic" font-weight="bold" lengthAdjust="spacing" textLength="60" x="1928.75" y="1221.377">final</text><text fill="#000000" font-family="sans-serif" font-size="30" font-style="italic" lengthAdjust="spacing" textLength="347.5" x="1996.25" y="1221.377">xxxCardSelectionAdapter</text><line style="stroke:#3498DB;stroke-width:3.75;" x1="1831.25" x2="2348.75" y1="1249.1016" y2="1249.1016"/><text fill="#000000" font-family="sans-serif" font-size="27.5" lengthAdjust="spacing" textLength="22.5" x="1843.75" y="1287.6489">...</text><line style="stroke:#3498DB;stroke-width:3.75;" x1="1831.25" x2="2348.75" y1="1303.6914" y2="1303.6914"/><!--MD5=[b0efbbd8a54987d152ca46ad8578f578]
reverse link KeypleCardSelector to CardSelector--><path d="M2790.675,314.0216 C2817.875,336.4391 2846.575,360.7541 2872.5,384.1016 C2911.25,418.9791 2952.675,459.4816 2986.7,493.6791 " fill="none" id="KeypleCardSelector-backto-CardSelector" style="stroke:#A80036;stroke-width:2.5;stroke-dasharray:7.0,7.0;"/><polygon fill="none" points="2778.825,326.9416,2751.05,281.8241,2800.9,299.7816,2778.825,326.9416" style="stroke:#A80036;stroke-width:2.5;"/><!--MD5=[3128716986bd9d5db378ebc4d0ca2868]
reverse link SmartCardSpi to xxxSmartCard--><path d="M2677.5,699.8966 C2677.5,753.8016 2677.5,814.9466 2677.5,861.5866 " fill="none" id="SmartCardSpi-backto-xxxSmartCard" style="stroke:#A80036;stroke-width:2.5;"/><polygon fill="none" points="2660,699.2116,2677.5,649.2116,2695,699.2116,2660,699.2116" style="stroke:#A80036;stroke-width:2.5;"/><!--MD5=[f2e7ec1eee68a589103379527c7c5ad9]
reverse link CardSelectionSpi to xxxCardSelection--><path d="M2265,699.8966 C2265,753.8016 2265,814.9466 2265,861.5866 " fill="none" id="CardSelectionSpi-backto-xxxCardSelection" style="stroke:#A80036;stroke-width:2.5;"/><polygon fill="none" points="2247.5,699.2116,2265,649.2116,2282.5,699.2116,2247.5,699.2116" style="stroke:#A80036;stroke-width:2.5;"/><!--MD5=[03332bb9a6b06bb71554ad483aefcb1f]
reverse link CardSelector to xxxCardSelector--><path d="M3079.825,699.0541 C3088.4,753.1641 3098.175,814.7041 3105.6,861.5866 " fill="none" id="CardSelector-backto-xxxCardSelector" style="stroke:#A80036;stroke-width:2.5;"/><polygon fill="none" points="3062.475,701.3366,3071.925,649.2116,3097.025,695.8516,3062.475,701.3366" style="stroke:#A80036;stroke-width:2.5;"/><!--MD5=[f32ec65005451c0b69c9b7f05ba07707]
reverse link KeypleCardExtension to xxxCardExtension--><path d="M2046.6925,306.4141 C1867.9275,406.9016 1559.775,584.1966 1305,751.6016 C1252.4325,786.1416 1195.6375,826.9816 1149.0175,861.4916 " fill="none" id="KeypleCardExtension-backto-xxxCardExtension" style="stroke:#A80036;stroke-width:2.5;"/><polygon fill="none" points="2038.14,291.1466,2090.315,281.9766,2055.2475,321.6816,2038.14,291.1466" style="stroke:#A80036;stroke-width:2.5;"/><!--MD5=[4277f490a7099d6c11ba3057b4f037ca]
reverse link xxxCardExtension to xxxCardExtensionAdapter--><path d="M1196.035,1046.7816 C1251.9225,1087.0341 1314.49,1132.0991 1365.71,1168.9866 " fill="none" id="xxxCardExtension-backto-xxxCardExtensionAdapter" style="stroke:#A80036;stroke-width:2.5;stroke-dasharray:7.0,7.0;"/><polygon fill="none" points="1185.245,1060.5766,1154.9,1017.1541,1205.7,1032.1766,1185.245,1060.5766" style="stroke:#A80036;stroke-width:2.5;"/><!--MD5=[39da8af684858c0079c9c0bbde7d48f2]
reverse link CardExtensionSpi to xxxCardExtensionAdapter--><path d="M1534.1475,1487.5991 C1519.5425,1433.2991 1502.8825,1371.3591 1490.2025,1324.2116 " fill="none" id="CardExtensionSpi-backto-xxxCardExtensionAdapter" style="stroke:#A80036;stroke-width:2.5;stroke-dasharray:7.0,7.0;"/><polygon fill="none" points="1551.2375,1483.7591,1547.325,1536.5876,1517.4375,1492.8491,1551.2375,1483.7591" style="stroke:#A80036;stroke-width:2.5;"/><!--MD5=[4c1f077f6947fb0e92e602f4e61955a7]
link xxxCardExtensionAdapter to CardExtensionSpi--><!--MD5=[9002e706f396d6876295fc7061d0da0c]
reverse link xxxSmartCard to xxxSmartCardAdapter--><path d="M2677.5,1068.2666 C2677.5,1102.3466 2677.5,1138.1341 2677.5,1168.4641 " fill="none" id="xxxSmartCard-backto-xxxSmartCardAdapter" style="stroke:#A80036;stroke-width:2.5;stroke-dasharray:7.0,7.0;"/><polygon fill="none" points="2660,1067.1541,2677.5,1017.1541,2695,1067.1541,2660,1067.1541" style="stroke:#A80036;stroke-width:2.5;"/><!--MD5=[cc9d08566911a978caef462294f5ac6d]
reverse link InternalSmartCardSpi to xxxSmartCardAdapter--><path d="M2605.35,1504.6116 C2613.9,1472.2741 2623.45,1436.7016 2632.5,1404.1016 C2639.7,1378.1816 2647.825,1349.9041 2655.175,1324.6841 " fill="none" id="InternalSmartCardSpi-backto-xxxSmartCardAdapter" style="stroke:#A80036;stroke-width:2.5;stroke-dasharray:7.0,7.0;"/><polygon fill="none" points="2622.175,1509.4491,2592.55,1553.3656,2588.325,1500.5616,2622.175,1509.4491" style="stroke:#A80036;stroke-width:2.5;"/><!--MD5=[00b5c6cc66b489da297291d6ecadd946]
link xxxSmartCardAdapter to InternalSmartCardSpi--><!--MD5=[df9451b318d6606b19f7d4b575c2effa]
reverse link xxxCardSelection to xxxCardSelectionAdapter--><path d="M2195.93,1060.9941 C2174.9825,1097.2041 2152.5575,1135.9691 2133.7575,1168.4641 " fill="none" id="xxxCardSelection-backto-xxxCardSelectionAdapter" style="stroke:#A80036;stroke-width:2.5;stroke-dasharray:7.0,7.0;"/><polygon fill="none" points="2181.105,1051.6716,2221.2925,1017.1541,2211.4025,1069.1966,2181.105,1051.6716" style="stroke:#A80036;stroke-width:2.5;"/><!--MD5=[a13ab1483be319c6968f08d72bf2c6d1]
reverse link InternalCardSelectionSpi to xxxCardSelectionAdapter--><path d="M2070.4025,1485.9166 C2074.8625,1432.0241 2079.9225,1370.8716 2083.785,1324.2116 " fill="none" id="InternalCardSelectionSpi-backto-xxxCardSelectionAdapter" style="stroke:#A80036;stroke-width:2.5;stroke-dasharray:7.0,7.0;"/><polygon fill="none" points="2087.7725,1488.2016,2066.2075,1536.5876,2052.8925,1485.3141,2087.7725,1488.2016" style="stroke:#A80036;stroke-width:2.5;"/><!--MD5=[7efcdc5c3cb5c981ce8964ed8ffb7509]
link xxxCardSelectionAdapter to InternalCardSelectionSpi--><!--MD5=[bbd507e3cb9246f123de761fd1b76dd8]
link xxxCardSelectionFactory to xxxCardSelection--><path codeLine="110" d="M1866.4175,939.1016 C1936.83,939.1016 2011.7225,939.1016 2077.355,939.1016 " fill="none" id="xxxCardSelectionFactory-to-xxxCardSelection" style="stroke:#27AE60;stroke-width:2.5;stroke-dasharray:7.0,7.0;"/><polygon fill="#27AE60" points="2090.355,939.1016,2067.855,929.1016,2077.855,939.1016,2067.855,949.1016,2090.355,939.1016" style="stroke:#27AE60;stroke-width:2.5;"/><polygon fill="#000000" points="1935,909.541,1912.3873,902.1937,1912.3873,916.8883,1935,909.541" style="stroke:#000000;stroke-width:2.5;"/><text fill="#000000" font-family="sans-serif" font-size="32.5" lengthAdjust="spacing" textLength="100" x="1945" y="922.8394">provide</text><!--MD5=[93fc9b5a39ad0e7c8368ef516f3411a8]
link xxxCardExtensionFactory to xxxCardExtension--><path codeLine="112" d="M614.0875,939.1016 C683.59,939.1016 757.795,939.1016 824.9125,939.1016 " fill="none" id="xxxCardExtensionFactory-to-xxxCardExtension" style="stroke:#27AE60;stroke-width:2.5;stroke-dasharray:7.0,7.0;"/><polygon fill="#27AE60" points="838.24,939.1016,815.74,929.1016,825.74,939.1016,815.74,949.1016,838.24,939.1016" style="stroke:#27AE60;stroke-width:2.5;"/><polygon fill="#000000" points="682.5,909.541,659.8873,902.1937,659.8873,916.8883,682.5,909.541" style="stroke:#000000;stroke-width:2.5;"/><text fill="#000000" font-family="sans-serif" font-size="32.5" lengthAdjust="spacing" textLength="100" x="692.5" y="922.8394">provide</text><!--MD5=[243ef50cdc6ca4b1d59ce7bbc578be03]
link xxxCardSelection to xxxCardExtensionAdapter--><!--MD5=[6aef92196412bbfccb06d3ea1a2cdc76]
link xxxCardSelection to xxxSmartCardAdapter--><!--MD5=[b9c647cc26b601f815dabd862d170b10]
@startuml
title
    Keyple 2.0 - Specific Extension - 2.0.0 (05/02/2021)
end title

' == THEME ==

'Couleurs issues de : https://htmlcolorcodes.com/fr/tableau-de-couleur/tableau-de-couleur-design-plat/
!define C_GREY1 F8F9F9
!define C_GREY2 F2F3F4
!define C_GREY3 E5E7E9
!define C_GREY4 D7DBDD
!define C_GREY5 CACFD2
!define C_GREY6 BDC3C7
!define C_LINK 3498DB
!define C_USE 27AE60

skinparam Shadowing false
skinparam ClassFontStyle italic
skinparam ClassBorderColor #D4AC0D
skinparam stereotypeABorderColor #A9DCDF
skinparam stereotypeIBorderColor #B4A7E5
skinparam stereotypeCBorderColor #ADD1B2
skinparam stereotypeEBorderColor #EB93DF
' Red
skinparam ClassBackgroundColor<<red>> #FDEDEC
skinparam ClassBorderColor<<red>> #E74C3C
hide <<red>> stereotype
' Purple
skinparam ClassBackgroundColor<<purple>> #F4ECF7
skinparam ClassBorderColor<<purple>> #8E44AD
hide <<purple>> stereotype
' blue
skinparam ClassBackgroundColor<<blue>> #EBF5FB
skinparam ClassBorderColor<<blue>> #3498DB
hide <<blue>> stereotype
' Green
skinparam ClassBackgroundColor<<green>> #E9F7EF
skinparam ClassBorderColor<<green>> #27AE60
hide <<green>> stereotype
' Grey
skinparam ClassBackgroundColor<<grey>> #EAECEE
skinparam ClassBorderColor<<grey>> #2C3E50
hide <<grey>> stereotype

' == CONTENT ==

package "org.eclipse.keyple.commons" as commonsApi {
    +interface KeypleCardExtension {
    }
    +interface KeypleCardSelector {
    }
}
package "org.eclipse.keyple.service.selection.spi" as serviceSelectionSpi {
    +interface CardSelectionSpi {
        ...
    }
    +interface SmartCardSpi {
        ...
    }
    +class CardSelector implements KeypleCardSelector {
        ...
    }
}

package "org.eclipse.keyple.card.spi" as cardSpi {
    +interface CardExtensionSpi {
        ...
    }
    +interface InternalCardSelectionSpi {
        ...
    }
    +interface InternalSmartCardSpi {
    }
}


package "specific.extension" as specificExtension {
    +interface xxxSmartCard extends SmartCardSpi {
        ...
    }
    +class "**final** xxxCardSelectionFactory" as xxxCardSelectionFactory {
        +{static} xxxCardSelection getCardSelection ()
    }
    +interface xxxCardSelection extends CardSelectionSpi {
        ...
    }
    +class "**final** xxxCardSelector" as xxxCardSelector extends CardSelector {
        ...
    }
    +interface "**final** xxxCardExtension" as xxxCardExtension extends KeypleCardExtension {
        ...
    }
    +class "**final** xxxCardExtensionFactory" as xxxCardExtensionFactory {
        +{static} xxxCardExtension getCardExtension ()
    }
    ' Adapters
    ~class "**final** xxxCardExtensionAdapter" as xxxCardExtensionAdapter implements xxxCardExtension, CardExtensionSpi {
        ...
    }
    ~class "**final** xxxSmartCardAdapter" as xxxSmartCardAdapter implements xxxSmartCard, InternalSmartCardSpi {
        ...
    }
    ~class "**final** xxxCardSelectionAdapter" as xxxCardSelectionAdapter implements xxxCardSelection, InternalCardSelectionSpi {
        ...
    }
}

' Associations

xxxCardSelectionFactory .right.> xxxCardSelection #C_USE : provide >

xxxCardExtensionFactory .right.> xxxCardExtension #C_USE : provide >

' == LAYOUT ==

xxxCardSelection -[hidden]- xxxCardExtensionAdapter
xxxCardSelection -[hidden]- xxxSmartCardAdapter
xxxCardExtensionAdapter -[hidden]- CardExtensionSpi
xxxSmartCardAdapter -[hidden]- InternalSmartCardSpi
xxxCardSelectionAdapter -[hidden]- InternalCardSelectionSpi

' == STYLE ==

package commonsApi #C_GREY1 {}
package specificExtension #C_GREY1 {}
package cardSpi #C_GREY1 {}
package serviceSelectionSpi #C_GREY2 {}

class xxxCardExtensionAdapter <<blue>>
class xxxCardSelectionAdapter <<blue>>
class xxxSmartCardAdapter <<blue>>
interface CardExtensionSpi <<blue>>
interface InternalCardSelectionSpi <<blue>>
interface InternalSmartCardSpi <<blue>>

@enduml

@startuml
title
    Keyple 2.0 - Specific Extension - 2.0.0 (05/02/2021)
end title



skinparam Shadowing false
skinparam ClassFontStyle italic
skinparam ClassBorderColor #D4AC0D
skinparam stereotypeABorderColor #A9DCDF
skinparam stereotypeIBorderColor #B4A7E5
skinparam stereotypeCBorderColor #ADD1B2
skinparam stereotypeEBorderColor #EB93DF
skinparam ClassBackgroundColor<<red>> #FDEDEC
skinparam ClassBorderColor<<red>> #E74C3C
hide <<red>> stereotype
skinparam ClassBackgroundColor<<purple>> #F4ECF7
skinparam ClassBorderColor<<purple>> #8E44AD
hide <<purple>> stereotype
skinparam ClassBackgroundColor<<blue>> #EBF5FB
skinparam ClassBorderColor<<blue>> #3498DB
hide <<blue>> stereotype
skinparam ClassBackgroundColor<<green>> #E9F7EF
skinparam ClassBorderColor<<green>> #27AE60
hide <<green>> stereotype
skinparam ClassBackgroundColor<<grey>> #EAECEE
skinparam ClassBorderColor<<grey>> #2C3E50
hide <<grey>> stereotype


package "org.eclipse.keyple.commons" as commonsApi {
    +interface KeypleCardExtension {
    }
    +interface KeypleCardSelector {
    }
}
package "org.eclipse.keyple.service.selection.spi" as serviceSelectionSpi {
    +interface CardSelectionSpi {
        ...
    }
    +interface SmartCardSpi {
        ...
    }
    +class CardSelector implements KeypleCardSelector {
        ...
    }
}

package "org.eclipse.keyple.card.spi" as cardSpi {
    +interface CardExtensionSpi {
        ...
    }
    +interface InternalCardSelectionSpi {
        ...
    }
    +interface InternalSmartCardSpi {
    }
}


package "specific.extension" as specificExtension {
    +interface xxxSmartCard extends SmartCardSpi {
        ...
    }
    +class "**final** xxxCardSelectionFactory" as xxxCardSelectionFactory {
        +{static} xxxCardSelection getCardSelection ()
    }
    +interface xxxCardSelection extends CardSelectionSpi {
        ...
    }
    +class "**final** xxxCardSelector" as xxxCardSelector extends CardSelector {
        ...
    }
    +interface "**final** xxxCardExtension" as xxxCardExtension extends KeypleCardExtension {
        ...
    }
    +class "**final** xxxCardExtensionFactory" as xxxCardExtensionFactory {
        +{static} xxxCardExtension getCardExtension ()
    }
    ~class "**final** xxxCardExtensionAdapter" as xxxCardExtensionAdapter implements xxxCardExtension, CardExtensionSpi {
        ...
    }
    ~class "**final** xxxSmartCardAdapter" as xxxSmartCardAdapter implements xxxSmartCard, InternalSmartCardSpi {
        ...
    }
    ~class "**final** xxxCardSelectionAdapter" as xxxCardSelectionAdapter implements xxxCardSelection, InternalCardSelectionSpi {
        ...
    }
}


xxxCardSelectionFactory .right.> xxxCardSelection #27AE60 : provide >

xxxCardExtensionFactory .right.> xxxCardExtension #27AE60 : provide >


xxxCardSelection -[hidden]- xxxCardExtensionAdapter
xxxCardSelection -[hidden]- xxxSmartCardAdapter
xxxCardExtensionAdapter -[hidden]- CardExtensionSpi
xxxSmartCardAdapter -[hidden]- InternalSmartCardSpi
xxxCardSelectionAdapter -[hidden]- InternalCardSelectionSpi


package commonsApi #F8F9F9 {}
package specificExtension #F8F9F9 {}
package cardSpi #F8F9F9 {}
package serviceSelectionSpi #F2F3F4 {}

class xxxCardExtensionAdapter <<blue>>
class xxxCardSelectionAdapter <<blue>>
class xxxSmartCardAdapter <<blue>>
interface CardExtensionSpi <<blue>>
interface InternalCardSelectionSpi <<blue>>
interface InternalSmartCardSpi <<blue>>

@enduml

PlantUML version 1.2021.01(Tue Feb 02 08:55:08 CET 2021)
(GPL source distribution)
Java Runtime: OpenJDK Runtime Environment
JVM: OpenJDK 64-Bit Server VM
Default Encoding: Cp1252
Language: fr
Country: FR
--></g></svg>