<?xml version="1.0" encoding="UTF-8" standalone="no"?><svg xmlns="http://www.w3.org/2000/svg" xmlns:xlink="http://www.w3.org/1999/xlink" contentScriptType="application/ecmascript" contentStyleType="text/css" height="1870px" preserveAspectRatio="none" style="width:1820px;height:1870px;" version="1.1" viewBox="0 0 1820 1870" width="1820px" zoomAndPan="magnify"><defs/><g><text fill="#000000" font-family="sans-serif" font-size="45" lengthAdjust="spacing" textLength="955" x="416.25" y="46.7139">Keyple 2.0 - Specific Plugin - 2.0.0 (09/02/2021)</text><!--MD5=[621c849533070c5aba8aa732369aa9f8]
cluster commonsApi--><polygon fill="#F8F9F9" points="45,71.6016,650,71.6016,667.5,130.625,1777.5,130.625,1777.5,361.6016,45,361.6016,45,71.6016" style="stroke:#000000;stroke-width:3.75;"/><line style="stroke:#000000;stroke-width:3.75;" x1="45" x2="667.5" y1="130.625" y2="130.625"/><text fill="#000000" font-family="sans-serif" font-size="35" font-weight="bold" lengthAdjust="spacing" textLength="590" x="55" y="112.9346">org.eclipse.keyple.core.commons</text><!--MD5=[6cb19e7d8351e03571d64db4601c3623]
cluster pluginSpi--><polygon fill="#F8F9F9" points="325,1569.1016,935,1569.1016,952.5,1628.125,1415,1628.125,1415,1854.1016,325,1854.1016,325,1569.1016" style="stroke:#000000;stroke-width:3.75;"/><line style="stroke:#000000;stroke-width:3.75;" x1="325" x2="952.5" y1="1628.125" y2="1628.125"/><text fill="#000000" font-family="sans-serif" font-size="35" font-weight="bold" lengthAdjust="spacing" textLength="595" x="335" y="1610.4346">org.eclipse.keyple.core.plugin.spi</text><!--MD5=[f4079738657ebf8f47a9de3e76e08740]
cluster specificPluginApi--><polygon fill="#F8F9F9" points="40,484.1016,860,484.1016,877.5,543.125,1715,543.125,1715,1466.6016,40,1466.6016,40,484.1016" style="stroke:#000000;stroke-width:3.75;"/><line style="stroke:#000000;stroke-width:3.75;" x1="40" x2="877.5" y1="543.125" y2="543.125"/><text fill="#000000" font-family="sans-serif" font-size="35" font-weight="bold" lengthAdjust="spacing" textLength="805" x="50" y="525.4346">org.eclipse.keyple.plugin.xxx (specific plugin)</text><!--MD5=[c9fcbc22b46e6fe8dd529abbe4ed4a83]
class KeyplePluginExtensionFactory--><rect codeLine="48" fill="#FEFECE" height="120" id="KeyplePluginExtensionFactory" style="stroke:#D4AC0D;stroke-width:3.75;" width="525" x="152.5" y="181.6016"/><ellipse cx="190" cy="221.6016" fill="#B4A7E5" rx="27.5" ry="27.5" style="stroke:#B4A7E5;stroke-width:2.5;"/><path d="M192.5,214.1016 L192.5,229.1016 L197.5,229.1016 L198.7109,229.1016 L200,230.6641 L200,231.6016 L200,232.5391 L198.7109,234.1016 L197.5,234.1016 L182.5,234.1016 L181.2891,234.1016 L180,232.5391 L180,231.6016 L180,230.6641 L181.2891,229.1016 L182.5,229.1016 L187.5,229.1016 L187.5,214.1016 L182.5,214.1016 L181.2891,214.1016 L180,212.5391 L180,211.6016 L180,210.6641 L181.2891,209.1016 L182.5,209.1016 L197.5,209.1016 L198.7109,209.1016 L200,210.6641 L200,211.6016 L200,212.5391 L198.7109,214.1016 L197.5,214.1016 L192.5,214.1016 Z " fill="#000000"/><ellipse cx="237.5" cy="220.3516" fill="#84BE84" rx="7.5" ry="7.5" style="stroke:#038048;stroke-width:2.5;"/><text fill="#000000" font-family="sans-serif" font-size="30" font-style="italic" lengthAdjust="spacing" textLength="417.5" x="252.5" y="233.877">KeyplePluginExtensionFactory</text><line style="stroke:#D4AC0D;stroke-width:3.75;" x1="155" x2="675" y1="261.6016" y2="261.6016"/><line style="stroke:#D4AC0D;stroke-width:3.75;" x1="155" x2="675" y1="281.6016" y2="281.6016"/><!--MD5=[afffbc881b1d922900a05d5f1575661b]
class KeyplePluginExtension--><rect codeLine="50" fill="#FEFECE" height="120" id="KeyplePluginExtension" style="stroke:#D4AC0D;stroke-width:3.75;" width="425" x="765" y="181.6016"/><ellipse cx="802.5" cy="221.6016" fill="#B4A7E5" rx="27.5" ry="27.5" style="stroke:#B4A7E5;stroke-width:2.5;"/><path d="M805,214.1016 L805,229.1016 L810,229.1016 L811.2109,229.1016 L812.5,230.6641 L812.5,231.6016 L812.5,232.5391 L811.2109,234.1016 L810,234.1016 L795,234.1016 L793.7891,234.1016 L792.5,232.5391 L792.5,231.6016 L792.5,230.6641 L793.7891,229.1016 L795,229.1016 L800,229.1016 L800,214.1016 L795,214.1016 L793.7891,214.1016 L792.5,212.5391 L792.5,211.6016 L792.5,210.6641 L793.7891,209.1016 L795,209.1016 L810,209.1016 L811.2109,209.1016 L812.5,210.6641 L812.5,211.6016 L812.5,212.5391 L811.2109,214.1016 L810,214.1016 L805,214.1016 Z " fill="#000000"/><ellipse cx="850" cy="220.3516" fill="#84BE84" rx="7.5" ry="7.5" style="stroke:#038048;stroke-width:2.5;"/><text fill="#000000" font-family="sans-serif" font-size="30" font-style="italic" lengthAdjust="spacing" textLength="317.5" x="865" y="233.877">KeyplePluginExtension</text><line style="stroke:#D4AC0D;stroke-width:3.75;" x1="767.5" x2="1187.5" y1="261.6016" y2="261.6016"/><line style="stroke:#D4AC0D;stroke-width:3.75;" x1="767.5" x2="1187.5" y1="281.6016" y2="281.6016"/><!--MD5=[d0367e54e30269e1f6406d1a6d3c359c]
class KeypleReaderExtension--><rect codeLine="52" fill="#FEFECE" height="120" id="KeypleReaderExtension" style="stroke:#D4AC0D;stroke-width:3.75;" width="440" x="1277.5" y="181.6016"/><ellipse cx="1315" cy="221.6016" fill="#B4A7E5" rx="27.5" ry="27.5" style="stroke:#B4A7E5;stroke-width:2.5;"/><path d="M1317.5,214.1016 L1317.5,229.1016 L1322.5,229.1016 L1323.7109,229.1016 L1325,230.6641 L1325,231.6016 L1325,232.5391 L1323.7109,234.1016 L1322.5,234.1016 L1307.5,234.1016 L1306.2891,234.1016 L1305,232.5391 L1305,231.6016 L1305,230.6641 L1306.2891,229.1016 L1307.5,229.1016 L1312.5,229.1016 L1312.5,214.1016 L1307.5,214.1016 L1306.2891,214.1016 L1305,212.5391 L1305,211.6016 L1305,210.6641 L1306.2891,209.1016 L1307.5,209.1016 L1322.5,209.1016 L1323.7109,209.1016 L1325,210.6641 L1325,211.6016 L1325,212.5391 L1323.7109,214.1016 L1322.5,214.1016 L1317.5,214.1016 Z " fill="#000000"/><ellipse cx="1362.5" cy="220.3516" fill="#84BE84" rx="7.5" ry="7.5" style="stroke:#038048;stroke-width:2.5;"/><text fill="#000000" font-family="sans-serif" font-size="30" font-style="italic" lengthAdjust="spacing" textLength="332.5" x="1377.5" y="233.877">KeypleReaderExtension</text><line style="stroke:#D4AC0D;stroke-width:3.75;" x1="1280" x2="1715" y1="261.6016" y2="261.6016"/><line style="stroke:#D4AC0D;stroke-width:3.75;" x1="1280" x2="1715" y1="281.6016" y2="281.6016"/><!--MD5=[b139ab9773e4f9d5f3343a17f6c03cd6]
class ReaderSpi--><rect codeLine="115" fill="#EBF5FB" height="154.5898" id="ReaderSpi" style="stroke:#3498DB;stroke-width:3.75;" width="255" x="1120" y="1659.1016"/><ellipse cx="1157.5" cy="1699.1016" fill="#B4A7E5" rx="27.5" ry="27.5" style="stroke:#B4A7E5;stroke-width:2.5;"/><path d="M1160,1691.6016 L1160,1706.6016 L1165,1706.6016 L1166.2109,1706.6016 L1167.5,1708.1641 L1167.5,1709.1016 L1167.5,1710.0391 L1166.2109,1711.6016 L1165,1711.6016 L1150,1711.6016 L1148.7891,1711.6016 L1147.5,1710.0391 L1147.5,1709.1016 L1147.5,1708.1641 L1148.7891,1706.6016 L1150,1706.6016 L1155,1706.6016 L1155,1691.6016 L1150,1691.6016 L1148.7891,1691.6016 L1147.5,1690.0391 L1147.5,1689.1016 L1147.5,1688.1641 L1148.7891,1686.6016 L1150,1686.6016 L1165,1686.6016 L1166.2109,1686.6016 L1167.5,1688.1641 L1167.5,1689.1016 L1167.5,1690.0391 L1166.2109,1691.6016 L1165,1691.6016 L1160,1691.6016 Z " fill="#000000"/><ellipse cx="1205" cy="1697.8516" fill="#84BE84" rx="7.5" ry="7.5" style="stroke:#038048;stroke-width:2.5;"/><text fill="#000000" font-family="sans-serif" font-size="30" font-style="italic" lengthAdjust="spacing" textLength="147.5" x="1220" y="1711.377">ReaderSpi</text><line style="stroke:#3498DB;stroke-width:3.75;" x1="1122.5" x2="1372.5" y1="1739.1016" y2="1739.1016"/><text fill="#000000" font-family="sans-serif" font-size="27.5" lengthAdjust="spacing" textLength="22.5" x="1135" y="1777.6489">...</text><line style="stroke:#3498DB;stroke-width:3.75;" x1="1122.5" x2="1372.5" y1="1793.6914" y2="1793.6914"/><!--MD5=[b7f0fd29174c4bdbe9801878c5229577]
class PluginSpi--><rect codeLine="116" fill="#EBF5FB" height="154.5898" id="PluginSpi" style="stroke:#3498DB;stroke-width:3.75;" width="240" x="792.5" y="1659.1016"/><ellipse cx="830" cy="1699.1016" fill="#B4A7E5" rx="27.5" ry="27.5" style="stroke:#B4A7E5;stroke-width:2.5;"/><path d="M832.5,1691.6016 L832.5,1706.6016 L837.5,1706.6016 L838.7109,1706.6016 L840,1708.1641 L840,1709.1016 L840,1710.0391 L838.7109,1711.6016 L837.5,1711.6016 L822.5,1711.6016 L821.2891,1711.6016 L820,1710.0391 L820,1709.1016 L820,1708.1641 L821.2891,1706.6016 L822.5,1706.6016 L827.5,1706.6016 L827.5,1691.6016 L822.5,1691.6016 L821.2891,1691.6016 L820,1690.0391 L820,1689.1016 L820,1688.1641 L821.2891,1686.6016 L822.5,1686.6016 L837.5,1686.6016 L838.7109,1686.6016 L840,1688.1641 L840,1689.1016 L840,1690.0391 L838.7109,1691.6016 L837.5,1691.6016 L832.5,1691.6016 Z " fill="#000000"/><ellipse cx="877.5" cy="1697.8516" fill="#84BE84" rx="7.5" ry="7.5" style="stroke:#038048;stroke-width:2.5;"/><text fill="#000000" font-family="sans-serif" font-size="30" font-style="italic" lengthAdjust="spacing" textLength="132.5" x="892.5" y="1711.377">PluginSpi</text><line style="stroke:#3498DB;stroke-width:3.75;" x1="795" x2="1030" y1="1739.1016" y2="1739.1016"/><text fill="#000000" font-family="sans-serif" font-size="27.5" lengthAdjust="spacing" textLength="22.5" x="807.5" y="1777.6489">...</text><line style="stroke:#3498DB;stroke-width:3.75;" x1="795" x2="1030" y1="1793.6914" y2="1793.6914"/><!--MD5=[1dbdc6fbf367d908234c3412457bed60]
class PluginFactorySpi--><rect codeLine="117" fill="#EBF5FB" height="154.5898" id="PluginFactorySpi" style="stroke:#3498DB;stroke-width:3.75;" width="340" x="365" y="1659.1016"/><ellipse cx="402.5" cy="1699.1016" fill="#B4A7E5" rx="27.5" ry="27.5" style="stroke:#B4A7E5;stroke-width:2.5;"/><path d="M405,1691.6016 L405,1706.6016 L410,1706.6016 L411.2109,1706.6016 L412.5,1708.1641 L412.5,1709.1016 L412.5,1710.0391 L411.2109,1711.6016 L410,1711.6016 L395,1711.6016 L393.7891,1711.6016 L392.5,1710.0391 L392.5,1709.1016 L392.5,1708.1641 L393.7891,1706.6016 L395,1706.6016 L400,1706.6016 L400,1691.6016 L395,1691.6016 L393.7891,1691.6016 L392.5,1690.0391 L392.5,1689.1016 L392.5,1688.1641 L393.7891,1686.6016 L395,1686.6016 L410,1686.6016 L411.2109,1686.6016 L412.5,1688.1641 L412.5,1689.1016 L412.5,1690.0391 L411.2109,1691.6016 L410,1691.6016 L405,1691.6016 Z " fill="#000000"/><ellipse cx="450" cy="1697.8516" fill="#84BE84" rx="7.5" ry="7.5" style="stroke:#038048;stroke-width:2.5;"/><text fill="#000000" font-family="sans-serif" font-size="30" font-style="italic" lengthAdjust="spacing" textLength="232.5" x="465" y="1711.377">PluginFactorySpi</text><line style="stroke:#3498DB;stroke-width:3.75;" x1="367.5" x2="702.5" y1="1739.1016" y2="1739.1016"/><text fill="#000000" font-family="sans-serif" font-size="27.5" lengthAdjust="spacing" textLength="22.5" x="380" y="1777.6489">...</text><line style="stroke:#3498DB;stroke-width:3.75;" x1="367.5" x2="702.5" y1="1793.6914" y2="1793.6914"/><!--MD5=[77bc4349ea6438e8a74c230e5fcea155]
class xxxPluginFactoryProvider--><rect codeLine="69" fill="#FEFECE" height="154.5898" id="xxxPluginFactoryProvider" style="stroke:#D4AC0D;stroke-width:3.75;" width="522.5" x="148.75" y="594.1016"/><ellipse cx="186.25" cy="634.1016" fill="#ADD1B2" rx="27.5" ry="27.5" style="stroke:#ADD1B2;stroke-width:2.5;"/><path d="M191.25,625.3516 Q191.7578,624.1016 192.3438,623.4766 Q192.9297,622.8516 193.5938,622.8516 Q194.7656,622.8516 195.5078,623.5547 Q196.25,624.2578 196.25,625.8984 L196.25,629.8047 Q196.25,631.4453 195.5469,632.1484 Q194.8438,632.8516 193.75,632.8516 Q192.7734,632.8516 192.1484,632.4219 Q191.5234,631.9922 191.25,630.8594 Q191.1328,630.0781 190.7031,629.6484 Q189.9219,628.8281 188.5156,628.3594 Q187.1094,627.8516 185.7031,627.8516 Q183.9453,627.8516 182.4609,628.5547 Q181.0156,629.2578 179.8828,630.8203 Q178.75,632.3828 178.75,634.5313 L178.75,636.8359 Q178.75,639.4141 180.8594,641.1328 Q182.9688,642.8516 186.7188,642.8516 Q188.9453,642.8516 190.5078,642.3438 Q191.4063,642.0703 192.4219,641.1719 Q193.0859,640.6641 193.4375,640.5078 Q193.7891,640.3516 194.2188,640.3516 Q195.0391,640.3516 195.625,641.0156 Q196.25,641.6406 196.25,642.5391 Q196.25,643.3984 195.3906,644.4141 Q194.1406,645.8984 192.1484,646.7188 Q189.5313,647.8516 186.3281,647.8516 Q182.5781,647.8516 179.5703,646.3672 Q177.1484,645.1953 175.4297,642.6563 Q173.75,640.1172 173.75,637.1094 L173.75,634.375 Q173.75,631.25 175.2344,628.5156 Q176.7578,625.7813 179.375,624.3359 Q182.0313,622.8516 185,622.8516 Q186.7969,622.8516 188.3594,623.4766 Q189.9219,624.1016 191.25,625.3516 Z " fill="#000000"/><ellipse cx="233.75" cy="632.8516" fill="#84BE84" rx="7.5" ry="7.5" style="stroke:#038048;stroke-width:2.5;"/><text fill="#000000" font-family="sans-serif" font-size="30" font-style="italic" font-weight="bold" lengthAdjust="spacing" textLength="60" x="248.75" y="646.377">final</text><text fill="#000000" font-family="sans-serif" font-size="30" font-style="italic" lengthAdjust="spacing" textLength="347.5" x="316.25" y="646.377">xxxPluginFactoryProvider</text><line style="stroke:#D4AC0D;stroke-width:3.75;" x1="151.25" x2="668.75" y1="674.1016" y2="674.1016"/><line style="stroke:#D4AC0D;stroke-width:3.75;" x1="151.25" x2="668.75" y1="694.1016" y2="694.1016"/><ellipse cx="176.25" cy="721.6016" fill="#84BE84" rx="7.5" ry="7.5" style="stroke:#038048;stroke-width:2.5;"/><text fill="#000000" font-family="sans-serif" font-size="27.5" lengthAdjust="spacing" text-decoration="underline" textLength="372.5" x="198.75" y="732.6489">xxxPluginFactory getFactory ()</text><!--MD5=[fed7f4caaf0512ced7ad550cc1121374]
class xxxPluginFactory--><rect codeLine="72" fill="#FEFECE" height="154.5898" id="xxxPluginFactory" style="stroke:#D4AC0D;stroke-width:3.75;" width="340" x="240" y="944.1016"/><ellipse cx="277.5" cy="984.1016" fill="#B4A7E5" rx="27.5" ry="27.5" style="stroke:#B4A7E5;stroke-width:2.5;"/><path d="M280,976.6016 L280,991.6016 L285,991.6016 L286.2109,991.6016 L287.5,993.1641 L287.5,994.1016 L287.5,995.0391 L286.2109,996.6016 L285,996.6016 L270,996.6016 L268.7891,996.6016 L267.5,995.0391 L267.5,994.1016 L267.5,993.1641 L268.7891,991.6016 L270,991.6016 L275,991.6016 L275,976.6016 L270,976.6016 L268.7891,976.6016 L267.5,975.0391 L267.5,974.1016 L267.5,973.1641 L268.7891,971.6016 L270,971.6016 L285,971.6016 L286.2109,971.6016 L287.5,973.1641 L287.5,974.1016 L287.5,975.0391 L286.2109,976.6016 L285,976.6016 L280,976.6016 Z " fill="#000000"/><ellipse cx="325" cy="982.8516" fill="#84BE84" rx="7.5" ry="7.5" style="stroke:#038048;stroke-width:2.5;"/><text fill="#000000" font-family="sans-serif" font-size="30" font-style="italic" lengthAdjust="spacing" textLength="232.5" x="340" y="996.377">xxxPluginFactory</text><line style="stroke:#D4AC0D;stroke-width:3.75;" x1="242.5" x2="577.5" y1="1024.1016" y2="1024.1016"/><text fill="#000000" font-family="sans-serif" font-size="27.5" lengthAdjust="spacing" textLength="22.5" x="255" y="1062.6489">...</text><line style="stroke:#D4AC0D;stroke-width:3.75;" x1="242.5" x2="577.5" y1="1078.6914" y2="1078.6914"/><!--MD5=[b6595d9ff200fd5ee11228c478636e60]
class xxxPlugin--><rect codeLine="75" fill="#FEFECE" height="154.5898" id="xxxPlugin" style="stroke:#D4AC0D;stroke-width:3.75;" width="240" x="847.5" y="944.1016"/><ellipse cx="885" cy="984.1016" fill="#B4A7E5" rx="27.5" ry="27.5" style="stroke:#B4A7E5;stroke-width:2.5;"/><path d="M887.5,976.6016 L887.5,991.6016 L892.5,991.6016 L893.7109,991.6016 L895,993.1641 L895,994.1016 L895,995.0391 L893.7109,996.6016 L892.5,996.6016 L877.5,996.6016 L876.2891,996.6016 L875,995.0391 L875,994.1016 L875,993.1641 L876.2891,991.6016 L877.5,991.6016 L882.5,991.6016 L882.5,976.6016 L877.5,976.6016 L876.2891,976.6016 L875,975.0391 L875,974.1016 L875,973.1641 L876.2891,971.6016 L877.5,971.6016 L892.5,971.6016 L893.7109,971.6016 L895,973.1641 L895,974.1016 L895,975.0391 L893.7109,976.6016 L892.5,976.6016 L887.5,976.6016 Z " fill="#000000"/><ellipse cx="932.5" cy="982.8516" fill="#84BE84" rx="7.5" ry="7.5" style="stroke:#038048;stroke-width:2.5;"/><text fill="#000000" font-family="sans-serif" font-size="30" font-style="italic" lengthAdjust="spacing" textLength="132.5" x="947.5" y="996.377">xxxPlugin</text><line style="stroke:#D4AC0D;stroke-width:3.75;" x1="850" x2="1085" y1="1024.1016" y2="1024.1016"/><text fill="#000000" font-family="sans-serif" font-size="27.5" lengthAdjust="spacing" textLength="22.5" x="862.5" y="1062.6489">...</text><line style="stroke:#D4AC0D;stroke-width:3.75;" x1="850" x2="1085" y1="1078.6914" y2="1078.6914"/><!--MD5=[03f21e7ee5cc95940abd9e7870696a6e]
class xxxReader--><rect codeLine="78" fill="#FEFECE" height="154.5898" id="xxxReader" style="stroke:#D4AC0D;stroke-width:3.75;" width="255" x="1335" y="944.1016"/><ellipse cx="1372.5" cy="984.1016" fill="#B4A7E5" rx="27.5" ry="27.5" style="stroke:#B4A7E5;stroke-width:2.5;"/><path d="M1375,976.6016 L1375,991.6016 L1380,991.6016 L1381.2109,991.6016 L1382.5,993.1641 L1382.5,994.1016 L1382.5,995.0391 L1381.2109,996.6016 L1380,996.6016 L1365,996.6016 L1363.7891,996.6016 L1362.5,995.0391 L1362.5,994.1016 L1362.5,993.1641 L1363.7891,991.6016 L1365,991.6016 L1370,991.6016 L1370,976.6016 L1365,976.6016 L1363.7891,976.6016 L1362.5,975.0391 L1362.5,974.1016 L1362.5,973.1641 L1363.7891,971.6016 L1365,971.6016 L1380,971.6016 L1381.2109,971.6016 L1382.5,973.1641 L1382.5,974.1016 L1382.5,975.0391 L1381.2109,976.6016 L1380,976.6016 L1375,976.6016 Z " fill="#000000"/><ellipse cx="1420" cy="982.8516" fill="#84BE84" rx="7.5" ry="7.5" style="stroke:#038048;stroke-width:2.5;"/><text fill="#000000" font-family="sans-serif" font-size="30" font-style="italic" lengthAdjust="spacing" textLength="147.5" x="1435" y="996.377">xxxReader</text><line style="stroke:#D4AC0D;stroke-width:3.75;" x1="1337.5" x2="1587.5" y1="1024.1016" y2="1024.1016"/><text fill="#000000" font-family="sans-serif" font-size="27.5" lengthAdjust="spacing" textLength="22.5" x="1350" y="1062.6489">...</text><line style="stroke:#D4AC0D;stroke-width:3.75;" x1="1337.5" x2="1587.5" y1="1078.6914" y2="1078.6914"/><!--MD5=[d53123d7850983a38423ef8749767f29]
class xxxPluginFactoryAdapter--><rect codeLine="114" fill="#EBF5FB" height="154.5898" id="xxxPluginFactoryAdapter" style="stroke:#3498DB;stroke-width:3.75;" width="515" x="120" y="1251.6016"/><ellipse cx="157.5" cy="1291.6016" fill="#ADD1B2" rx="27.5" ry="27.5" style="stroke:#ADD1B2;stroke-width:2.5;"/><path d="M162.5,1282.8516 Q163.0078,1281.6016 163.5938,1280.9766 Q164.1797,1280.3516 164.8438,1280.3516 Q166.0156,1280.3516 166.7578,1281.0547 Q167.5,1281.7578 167.5,1283.3984 L167.5,1287.3047 Q167.5,1288.9453 166.7969,1289.6484 Q166.0938,1290.3516 165,1290.3516 Q164.0234,1290.3516 163.3984,1289.9219 Q162.7734,1289.4922 162.5,1288.3594 Q162.3828,1287.5781 161.9531,1287.1484 Q161.1719,1286.3281 159.7656,1285.8594 Q158.3594,1285.3516 156.9531,1285.3516 Q155.1953,1285.3516 153.7109,1286.0547 Q152.2656,1286.7578 151.1328,1288.3203 Q150,1289.8828 150,1292.0313 L150,1294.3359 Q150,1296.9141 152.1094,1298.6328 Q154.2188,1300.3516 157.9688,1300.3516 Q160.1953,1300.3516 161.7578,1299.8438 Q162.6563,1299.5703 163.6719,1298.6719 Q164.3359,1298.1641 164.6875,1298.0078 Q165.0391,1297.8516 165.4688,1297.8516 Q166.2891,1297.8516 166.875,1298.5156 Q167.5,1299.1406 167.5,1300.0391 Q167.5,1300.8984 166.6406,1301.9141 Q165.3906,1303.3984 163.3984,1304.2188 Q160.7813,1305.3516 157.5781,1305.3516 Q153.8281,1305.3516 150.8203,1303.8672 Q148.3984,1302.6953 146.6797,1300.1563 Q145,1297.6172 145,1294.6094 L145,1291.875 Q145,1288.75 146.4844,1286.0156 Q148.0078,1283.2813 150.625,1281.8359 Q153.2813,1280.3516 156.25,1280.3516 Q158.0469,1280.3516 159.6094,1280.9766 Q161.1719,1281.6016 162.5,1282.8516 Z " fill="#000000"/><polygon fill="#4177AF" points="205,1280.3516,195,1295.3516,215,1295.3516" style="stroke:#1963A0;stroke-width:2.5;"/><text fill="#000000" font-family="sans-serif" font-size="30" font-style="italic" font-weight="bold" lengthAdjust="spacing" textLength="60" x="220" y="1303.877">final</text><text fill="#000000" font-family="sans-serif" font-size="30" font-style="italic" lengthAdjust="spacing" textLength="340" x="287.5" y="1303.877">xxxPluginFactoryAdapter</text><line style="stroke:#3498DB;stroke-width:3.75;" x1="122.5" x2="632.5" y1="1331.6016" y2="1331.6016"/><text fill="#000000" font-family="sans-serif" font-size="27.5" lengthAdjust="spacing" textLength="22.5" x="135" y="1370.1489">...</text><line style="stroke:#3498DB;stroke-width:3.75;" x1="122.5" x2="632.5" y1="1386.1914" y2="1386.1914"/><!--MD5=[8ece71be35db894bbdb7ce101967af56]
class xxxPluginAdapter--><rect codeLine="113" fill="#EBF5FB" height="154.5898" id="xxxPluginAdapter" style="stroke:#3498DB;stroke-width:3.75;" width="415" x="722.5" y="1251.6016"/><ellipse cx="760" cy="1291.6016" fill="#ADD1B2" rx="27.5" ry="27.5" style="stroke:#ADD1B2;stroke-width:2.5;"/><path d="M765,1282.8516 Q765.5078,1281.6016 766.0938,1280.9766 Q766.6797,1280.3516 767.3438,1280.3516 Q768.5156,1280.3516 769.2578,1281.0547 Q770,1281.7578 770,1283.3984 L770,1287.3047 Q770,1288.9453 769.2969,1289.6484 Q768.5938,1290.3516 767.5,1290.3516 Q766.5234,1290.3516 765.8984,1289.9219 Q765.2734,1289.4922 765,1288.3594 Q764.8828,1287.5781 764.4531,1287.1484 Q763.6719,1286.3281 762.2656,1285.8594 Q760.8594,1285.3516 759.4531,1285.3516 Q757.6953,1285.3516 756.2109,1286.0547 Q754.7656,1286.7578 753.6328,1288.3203 Q752.5,1289.8828 752.5,1292.0313 L752.5,1294.3359 Q752.5,1296.9141 754.6094,1298.6328 Q756.7188,1300.3516 760.4688,1300.3516 Q762.6953,1300.3516 764.2578,1299.8438 Q765.1563,1299.5703 766.1719,1298.6719 Q766.8359,1298.1641 767.1875,1298.0078 Q767.5391,1297.8516 767.9688,1297.8516 Q768.7891,1297.8516 769.375,1298.5156 Q770,1299.1406 770,1300.0391 Q770,1300.8984 769.1406,1301.9141 Q767.8906,1303.3984 765.8984,1304.2188 Q763.2813,1305.3516 760.0781,1305.3516 Q756.3281,1305.3516 753.3203,1303.8672 Q750.8984,1302.6953 749.1797,1300.1563 Q747.5,1297.6172 747.5,1294.6094 L747.5,1291.875 Q747.5,1288.75 748.9844,1286.0156 Q750.5078,1283.2813 753.125,1281.8359 Q755.7813,1280.3516 758.75,1280.3516 Q760.5469,1280.3516 762.1094,1280.9766 Q763.6719,1281.6016 765,1282.8516 Z " fill="#000000"/><polygon fill="#4177AF" points="807.5,1280.3516,797.5,1295.3516,817.5,1295.3516" style="stroke:#1963A0;stroke-width:2.5;"/><text fill="#000000" font-family="sans-serif" font-size="30" font-style="italic" font-weight="bold" lengthAdjust="spacing" textLength="60" x="822.5" y="1303.877">final</text><text fill="#000000" font-family="sans-serif" font-size="30" font-style="italic" lengthAdjust="spacing" textLength="240" x="890" y="1303.877">xxxPluginAdapter</text><line style="stroke:#3498DB;stroke-width:3.75;" x1="725" x2="1135" y1="1331.6016" y2="1331.6016"/><text fill="#000000" font-family="sans-serif" font-size="27.5" lengthAdjust="spacing" textLength="22.5" x="737.5" y="1370.1489">...</text><line style="stroke:#3498DB;stroke-width:3.75;" x1="725" x2="1135" y1="1386.1914" y2="1386.1914"/><!--MD5=[07c06fae09c9cf5c6584283f7934f2e9]
class xxxReaderAdapter--><rect codeLine="112" fill="#EBF5FB" height="154.5898" id="xxxReaderAdapter" style="stroke:#3498DB;stroke-width:3.75;" width="430" x="1225" y="1251.6016"/><ellipse cx="1262.5" cy="1291.6016" fill="#ADD1B2" rx="27.5" ry="27.5" style="stroke:#ADD1B2;stroke-width:2.5;"/><path d="M1267.5,1282.8516 Q1268.0078,1281.6016 1268.5938,1280.9766 Q1269.1797,1280.3516 1269.8438,1280.3516 Q1271.0156,1280.3516 1271.7578,1281.0547 Q1272.5,1281.7578 1272.5,1283.3984 L1272.5,1287.3047 Q1272.5,1288.9453 1271.7969,1289.6484 Q1271.0938,1290.3516 1270,1290.3516 Q1269.0234,1290.3516 1268.3984,1289.9219 Q1267.7734,1289.4922 1267.5,1288.3594 Q1267.3828,1287.5781 1266.9531,1287.1484 Q1266.1719,1286.3281 1264.7656,1285.8594 Q1263.3594,1285.3516 1261.9531,1285.3516 Q1260.1953,1285.3516 1258.7109,1286.0547 Q1257.2656,1286.7578 1256.1328,1288.3203 Q1255,1289.8828 1255,1292.0313 L1255,1294.3359 Q1255,1296.9141 1257.1094,1298.6328 Q1259.2188,1300.3516 1262.9688,1300.3516 Q1265.1953,1300.3516 1266.7578,1299.8438 Q1267.6563,1299.5703 1268.6719,1298.6719 Q1269.3359,1298.1641 1269.6875,1298.0078 Q1270.0391,1297.8516 1270.4688,1297.8516 Q1271.2891,1297.8516 1271.875,1298.5156 Q1272.5,1299.1406 1272.5,1300.0391 Q1272.5,1300.8984 1271.6406,1301.9141 Q1270.3906,1303.3984 1268.3984,1304.2188 Q1265.7813,1305.3516 1262.5781,1305.3516 Q1258.8281,1305.3516 1255.8203,1303.8672 Q1253.3984,1302.6953 1251.6797,1300.1563 Q1250,1297.6172 1250,1294.6094 L1250,1291.875 Q1250,1288.75 1251.4844,1286.0156 Q1253.0078,1283.2813 1255.625,1281.8359 Q1258.2813,1280.3516 1261.25,1280.3516 Q1263.0469,1280.3516 1264.6094,1280.9766 Q1266.1719,1281.6016 1267.5,1282.8516 Z " fill="#000000"/><polygon fill="#4177AF" points="1310,1280.3516,1300,1295.3516,1320,1295.3516" style="stroke:#1963A0;stroke-width:2.5;"/><text fill="#000000" font-family="sans-serif" font-size="30" font-style="italic" font-weight="bold" lengthAdjust="spacing" textLength="60" x="1325" y="1303.877">final</text><text fill="#000000" font-family="sans-serif" font-size="30" font-style="italic" lengthAdjust="spacing" textLength="255" x="1392.5" y="1303.877">xxxReaderAdapter</text><line style="stroke:#3498DB;stroke-width:3.75;" x1="1227.5" x2="1652.5" y1="1331.6016" y2="1331.6016"/><text fill="#000000" font-family="sans-serif" font-size="27.5" lengthAdjust="spacing" textLength="22.5" x="1240" y="1370.1489">...</text><line style="stroke:#3498DB;stroke-width:3.75;" x1="1227.5" x2="1652.5" y1="1386.1914" y2="1386.1914"/><!--MD5=[a197c206781717b4a594300115978dc2]
reverse link KeyplePluginExtensionFactory to xxxPluginFactory--><path d="M600.67,327.5066 C646.21,357.4166 689.24,395.9666 715,444.1016 C778.9625,563.6166 770.6575,625.4991 715,749.1016 C678.415,830.3491 603.9575,897.0266 537.77,943.7941 " fill="none" id="KeyplePluginExtensionFactory-backto-xxxPluginFactory" style="stroke:#A80036;stroke-width:2.5;"/><polygon fill="none" points="591.6925,342.5291,557.645,301.9441,609.57,312.4391,591.6925,342.5291" style="stroke:#A80036;stroke-width:2.5;"/><!--MD5=[1feb98c6a67c5603dfb07d8bcca8af5c]
reverse link KeyplePluginExtension to xxxPlugin--><path d="M976.11,351.9066 C974.055,511.0166 970.265,804.7891 968.48,943.1991 " fill="none" id="KeyplePluginExtension-backto-xxxPlugin" style="stroke:#A80036;stroke-width:2.5;"/><polygon fill="none" points="958.6125,351.4891,976.7575,301.7191,993.61,351.9416,958.6125,351.4891" style="stroke:#A80036;stroke-width:2.5;"/><!--MD5=[0ab2d561ae8ab1eb55d58fc9385da973]
reverse link KeypleReaderExtension to xxxReader--><path d="M1492.6325,351.9066 C1485.445,511.0166 1472.1775,804.7891 1465.9275,943.1991 " fill="none" id="KeypleReaderExtension-backto-xxxReader" style="stroke:#A80036;stroke-width:2.5;"/><polygon fill="none" points="1475.16,350.8791,1494.8975,301.7191,1510.125,352.4591,1475.16,350.8791" style="stroke:#A80036;stroke-width:2.5;"/><!--MD5=[a6f494627ac1f6d160b993f842e395ad]
reverse link xxxPluginFactory to xxxPluginFactoryAdapter--><path d="M396.5225,1149.5516 C392.8225,1183.9916 388.9225,1220.2741 385.6275,1250.9641 " fill="none" id="xxxPluginFactory-backto-xxxPluginFactoryAdapter" style="stroke:#A80036;stroke-width:2.5;stroke-dasharray:7.0,7.0;"/><polygon fill="none" points="379.1425,1147.4991,401.8825,1099.6541,413.94,1151.2391,379.1425,1147.4991" style="stroke:#A80036;stroke-width:2.5;"/><!--MD5=[d093d989c17d5030eb0af60f2f7e8d01]
reverse link PluginFactorySpi to xxxPluginFactoryAdapter--><path d="M487.6725,1610.7191 C476.98,1583.0241 465.645,1553.7916 455,1526.6016 C439.595,1487.2516 422.2375,1443.5241 407.8625,1407.4666 " fill="none" id="PluginFactorySpi-backto-xxxPluginFactoryAdapter" style="stroke:#A80036;stroke-width:2.5;stroke-dasharray:7.0,7.0;"/><polygon fill="none" points="504.295,1605.1941,505.93,1658.1421,471.6325,1617.7691,504.295,1605.1941" style="stroke:#A80036;stroke-width:2.5;"/><!--MD5=[3c91dbfb9fee07978691f71bc8cd5e2b]
link xxxPluginFactoryAdapter to PluginFactorySpi--><!--MD5=[271deee5782a9355c6bea53129dbee95]
reverse link xxxPlugin to xxxPluginAdapter--><path d="M951.9475,1149.5516 C947.68,1183.9916 943.18,1220.2741 939.3775,1250.9641 " fill="none" id="xxxPlugin-backto-xxxPluginAdapter" style="stroke:#A80036;stroke-width:2.5;stroke-dasharray:7.0,7.0;"/><polygon fill="none" points="934.615,1147.1216,958.135,1099.6541,969.35,1151.4291,934.615,1147.1216" style="stroke:#A80036;stroke-width:2.5;"/><!--MD5=[ae7d2a44faa546b30b2b33127fda7395]
reverse link PluginSpi to xxxPluginAdapter--><path d="M922.96,1607.5916 C924.765,1581.6466 926.41,1554.5041 927.5,1529.1016 C929.2325,1488.6766 929.9,1443.5566 930.115,1406.6591 " fill="none" id="PluginSpi-backto-xxxPluginAdapter" style="stroke:#A80036;stroke-width:2.5;stroke-dasharray:7.0,7.0;"/><polygon fill="none" points="940.3525,1609.6816,919.15,1658.2283,905.45,1607.0566,940.3525,1609.6816" style="stroke:#A80036;stroke-width:2.5;"/><!--MD5=[75858b59b3be0c77ecba62d772b2e4da]
link xxxPluginAdapter to PluginSpi--><!--MD5=[bc8081b56b498a2c8419014c1c2cae76]
reverse link xxxReader to xxxReaderAdapter--><path d="M1453.17,1149.5516 C1450.6075,1183.9916 1447.9075,1220.2741 1445.625,1250.9641 " fill="none" id="xxxReader-backto-xxxReaderAdapter" style="stroke:#A80036;stroke-width:2.5;stroke-dasharray:7.0,7.0;"/><polygon fill="none" points="1435.72,1148.2191,1456.88,1099.6541,1470.6225,1150.8141,1435.72,1148.2191" style="stroke:#A80036;stroke-width:2.5;"/><!--MD5=[0a19e51effe33bcc6cb4dabf8e9f653f]
reverse link ReaderSpi to xxxReaderAdapter--><path d="M1305.3825,1613.0741 C1337.3625,1546.2091 1376.0975,1465.2141 1403.7925,1407.3091 " fill="none" id="ReaderSpi-backto-xxxReaderAdapter" style="stroke:#A80036;stroke-width:2.5;stroke-dasharray:7.0,7.0;"/><polygon fill="none" points="1320.905,1621.1766,1283.545,1658.7338,1289.33,1606.0766,1320.905,1621.1766" style="stroke:#A80036;stroke-width:2.5;"/><!--MD5=[3e9a5859282d1b950c3a91ee90840c6f]
link xxxReaderAdapter to ReaderSpi--><!--MD5=[1d864dc9092778b2b49207ead16ab856]
link xxxPluginFactoryProvider to xxxPluginFactory--><path codeLine="95" d="M410,749.8141 C410,803.0666 410,874.5141 410,930.4341 " fill="none" id="xxxPluginFactoryProvider-to-xxxPluginFactory" style="stroke:#27AE60;stroke-width:2.5;stroke-dasharray:7.0,7.0;"/><polygon fill="#27AE60" points="410,943.5666,420,921.0666,410,931.0666,400,921.0666,410,943.5666" style="stroke:#27AE60;stroke-width:2.5;"/><polygon fill="#000000" points="422.5,859.541,429.8473,836.9283,415.1527,836.9283,422.5,859.541" style="stroke:#000000;stroke-width:2.5;"/><text fill="#000000" font-family="sans-serif" font-size="32.5" lengthAdjust="spacing" textLength="100" x="445" y="860.3394">provide</text><!--MD5=[f12a7db843c52300ea996d5d7ce2d1a4]
reverse link xxxPluginFactoryAdapter to xxxPluginAdapter--><path codeLine="96" d="M668.445,1329.1016 C686.2,1329.1016 703.9575,1329.1016 721.7125,1329.1016 " fill="none" id="xxxPluginFactoryAdapter-backto-xxxPluginAdapter" style="stroke:#3498DB;stroke-width:2.5;"/><polygon fill="#3498DB" points="635.405,1329.1016,650.405,1339.1016,665.405,1329.1016,650.405,1319.1016,635.405,1329.1016" style="stroke:#3498DB;stroke-width:2.5;"/><text fill="#000000" font-family="sans-serif" font-size="32.5" lengthAdjust="spacing" textLength="17.5" x="684.8826" y="1321.1155">1</text><!--MD5=[bf2e205f614f249ca537db048d149975]
reverse link xxxPluginAdapter to xxxReaderAdapter--><path codeLine="97" d="M1171.13,1329.1016 C1188.8375,1329.1016 1206.5425,1329.1016 1224.2475,1329.1016 " fill="none" id="xxxPluginAdapter-backto-xxxReaderAdapter" style="stroke:#3498DB;stroke-width:2.5;"/><polygon fill="#3498DB" points="1138.1825,1329.1016,1153.1825,1339.1016,1168.1825,1329.1016,1153.1825,1319.1016,1138.1825,1329.1016" style="stroke:#3498DB;stroke-width:2.5;"/><text fill="#000000" font-family="sans-serif" font-size="32.5" lengthAdjust="spacing" textLength="60" x="1144.6641" y="1321.297">0..N</text><!--MD5=[582bb027a136a6e6186f17ef7f8e0db6]
link commonsApi to specificPluginApi--><!--MD5=[d2e826224503ccf400a0c20c373c8aef]
@startuml
title
    Keyple 2.0 - Specific Plugin - 2.0.0 (09/02/2021)
end title

' == THEME ==

'Couleurs issues de : https://htmlcolorcodes.com/fr/tableau-de-couleur/tableau-de-couleur-design-plat/
!define C_GREY1 F8F9F9
!define C_GREY2 F2F3F4
!define C_GREY3 E5E7E9
!define C_GREY4 D7DBDD
!define C_GREY5 CACFD2
!define C_GREY6 BDC3C7
!define C_LINK 3498DB
!define C_USE 27AE60

skinparam Shadowing false
skinparam ClassFontStyle italic
skinparam ClassBorderColor #D4AC0D
skinparam stereotypeABorderColor #A9DCDF
skinparam stereotypeIBorderColor #B4A7E5
skinparam stereotypeCBorderColor #ADD1B2
skinparam stereotypeEBorderColor #EB93DF
' Red
skinparam ClassBackgroundColor<<red>> #FDEDEC
skinparam ClassBorderColor<<red>> #E74C3C
hide <<red>> stereotype
' Purple
skinparam ClassBackgroundColor<<purple>> #F4ECF7
skinparam ClassBorderColor<<purple>> #8E44AD
hide <<purple>> stereotype
' blue
skinparam ClassBackgroundColor<<blue>> #EBF5FB
skinparam ClassBorderColor<<blue>> #3498DB
hide <<blue>> stereotype
' Green
skinparam ClassBackgroundColor<<green>> #E9F7EF
skinparam ClassBorderColor<<green>> #27AE60
hide <<green>> stereotype
' Grey
skinparam ClassBackgroundColor<<grey>> #EAECEE
skinparam ClassBorderColor<<grey>> #2C3E50
hide <<grey>> stereotype

' == CONTENT ==

package "org.eclipse.keyple.core.commons" as commonsApi {
    +interface KeyplePluginExtensionFactory {
    }
    +interface KeyplePluginExtension {
    }
    +interface KeypleReaderExtension {
    }
}

package "org.eclipse.keyple.core.plugin.spi" as pluginSpi {
    +interface ReaderSpi {
        ...
    }
    +interface PluginSpi {
        ...
    }
    +interface PluginFactorySpi {
        ...
    }
}

package "org.eclipse.keyple.plugin.xxx (specific plugin)" as specificPluginApi {
    +class "**final** xxxPluginFactoryProvider" as xxxPluginFactoryProvider {
        +{static} xxxPluginFactory getFactory ()
    }
    +interface xxxPluginFactory extends KeyplePluginExtensionFactory {
        ...
    }
    +interface xxxPlugin extends KeyplePluginExtension {
        ...
    }
    +interface xxxReader extends KeypleReaderExtension {
        ...
    }
    ' Adapters
    ~class "**final** xxxPluginFactoryAdapter" as xxxPluginFactoryAdapter implements xxxPluginFactory, PluginFactorySpi {
        ...
    }
    ~class "**final** xxxPluginAdapter" as xxxPluginAdapter implements xxxPlugin, PluginSpi {
        ...
    }
    ~class "**final** xxxReaderAdapter" as xxxReaderAdapter implements xxxReader, ReaderSpi {
        ...
    }
}

' Associations

xxxPluginFactoryProvider ..> xxxPluginFactory #C_USE : provide >
xxxPluginFactoryAdapter *- "1" xxxPluginAdapter #C_LINK
xxxPluginAdapter *- "0..N" xxxReaderAdapter #C_LINK

' == LAYOUT ==

commonsApi -[hidden]- specificPluginApi
xxxReaderAdapter -[hidden]- ReaderSpi
xxxPluginAdapter -[hidden]- PluginSpi
xxxPluginFactoryAdapter -[hidden]- PluginFactorySpi

' == STYLE ==

package commonsApi #C_GREY1 {}
package pluginSpi #C_GREY1 {}
package specificPluginApi #C_GREY1 {}

class xxxReaderAdapter <<blue>>
class xxxPluginAdapter <<blue>>
class xxxPluginFactoryAdapter <<blue>>
interface ReaderSpi <<blue>>
interface PluginSpi <<blue>>
interface PluginFactorySpi <<blue>>

@enduml

@startuml
title
    Keyple 2.0 - Specific Plugin - 2.0.0 (09/02/2021)
end title



skinparam Shadowing false
skinparam ClassFontStyle italic
skinparam ClassBorderColor #D4AC0D
skinparam stereotypeABorderColor #A9DCDF
skinparam stereotypeIBorderColor #B4A7E5
skinparam stereotypeCBorderColor #ADD1B2
skinparam stereotypeEBorderColor #EB93DF
skinparam ClassBackgroundColor<<red>> #FDEDEC
skinparam ClassBorderColor<<red>> #E74C3C
hide <<red>> stereotype
skinparam ClassBackgroundColor<<purple>> #F4ECF7
skinparam ClassBorderColor<<purple>> #8E44AD
hide <<purple>> stereotype
skinparam ClassBackgroundColor<<blue>> #EBF5FB
skinparam ClassBorderColor<<blue>> #3498DB
hide <<blue>> stereotype
skinparam ClassBackgroundColor<<green>> #E9F7EF
skinparam ClassBorderColor<<green>> #27AE60
hide <<green>> stereotype
skinparam ClassBackgroundColor<<grey>> #EAECEE
skinparam ClassBorderColor<<grey>> #2C3E50
hide <<grey>> stereotype


package "org.eclipse.keyple.core.commons" as commonsApi {
    +interface KeyplePluginExtensionFactory {
    }
    +interface KeyplePluginExtension {
    }
    +interface KeypleReaderExtension {
    }
}

package "org.eclipse.keyple.core.plugin.spi" as pluginSpi {
    +interface ReaderSpi {
        ...
    }
    +interface PluginSpi {
        ...
    }
    +interface PluginFactorySpi {
        ...
    }
}

package "org.eclipse.keyple.plugin.xxx (specific plugin)" as specificPluginApi {
    +class "**final** xxxPluginFactoryProvider" as xxxPluginFactoryProvider {
        +{static} xxxPluginFactory getFactory ()
    }
    +interface xxxPluginFactory extends KeyplePluginExtensionFactory {
        ...
    }
    +interface xxxPlugin extends KeyplePluginExtension {
        ...
    }
    +interface xxxReader extends KeypleReaderExtension {
        ...
    }
    ~class "**final** xxxPluginFactoryAdapter" as xxxPluginFactoryAdapter implements xxxPluginFactory, PluginFactorySpi {
        ...
    }
    ~class "**final** xxxPluginAdapter" as xxxPluginAdapter implements xxxPlugin, PluginSpi {
        ...
    }
    ~class "**final** xxxReaderAdapter" as xxxReaderAdapter implements xxxReader, ReaderSpi {
        ...
    }
}


xxxPluginFactoryProvider ..> xxxPluginFactory #27AE60 : provide >
xxxPluginFactoryAdapter *- "1" xxxPluginAdapter #3498DB
xxxPluginAdapter *- "0..N" xxxReaderAdapter #3498DB


commonsApi -[hidden]- specificPluginApi
xxxReaderAdapter -[hidden]- ReaderSpi
xxxPluginAdapter -[hidden]- PluginSpi
xxxPluginFactoryAdapter -[hidden]- PluginFactorySpi


package commonsApi #F8F9F9 {}
package pluginSpi #F8F9F9 {}
package specificPluginApi #F8F9F9 {}

class xxxReaderAdapter <<blue>>
class xxxPluginAdapter <<blue>>
class xxxPluginFactoryAdapter <<blue>>
interface ReaderSpi <<blue>>
interface PluginSpi <<blue>>
interface PluginFactorySpi <<blue>>

@enduml

PlantUML version 1.2021.01(Tue Feb 02 08:55:08 CET 2021)
(GPL source distribution)
Java Runtime: OpenJDK Runtime Environment
JVM: OpenJDK 64-Bit Server VM
Default Encoding: Cp1252
Language: fr
Country: FR
--></g></svg>