<?xml version="1.0" encoding="UTF-8" standalone="no"?><svg xmlns="http://www.w3.org/2000/svg" xmlns:xlink="http://www.w3.org/1999/xlink" contentScriptType="application/ecmascript" contentStyleType="text/css" height="912.5px" preserveAspectRatio="none" style="width:2615px;height:912px;" version="1.1" viewBox="0 0 2615 912" width="2615px" zoomAndPan="magnify"><defs/><g><text fill="#000000" font-family="sans-serif" font-size="45" lengthAdjust="spacing" textLength="1130" x="726.25" y="46.7139">Keyple 2.0 - keyple-java-commons-api - 2.0 (04/03/2021)</text><!--MD5=[7442f3b126ee602ae02566c1a49e158a]
cluster api--><polygon fill="#F8F9F9" points="40,71.6016,625,71.6016,642.5,130.625,2572.5,130.625,2572.5,896.6016,40,896.6016,40,71.6016" style="stroke:#000000;stroke-width:3.75;"/><line style="stroke:#000000;stroke-width:3.75;" x1="40" x2="642.5" y1="130.625" y2="130.625"/><text fill="#000000" font-family="sans-serif" font-size="35" font-weight="bold" lengthAdjust="spacing" textLength="570" x="50" y="112.9346">org.eclipse.keyple.core.common</text><!--MD5=[120218adfd8782b0057db0a1b8294250]
class ApiProperties--><rect codeLine="48" fill="#FEFECE" height="154.5898" id="ApiProperties" style="stroke:#D4AC0D;stroke-width:3.75;" width="505" x="80" y="161.6016"/><ellipse cx="117.5" cy="201.6016" fill="#ADD1B2" rx="27.5" ry="27.5" style="stroke:#ADD1B2;stroke-width:2.5;"/><path d="M122.5,192.8516 Q123.0078,191.6016 123.5938,190.9766 Q124.1797,190.3516 124.8438,190.3516 Q126.0156,190.3516 126.7578,191.0547 Q127.5,191.7578 127.5,193.3984 L127.5,197.3047 Q127.5,198.9453 126.7969,199.6484 Q126.0938,200.3516 125,200.3516 Q124.0234,200.3516 123.3984,199.9219 Q122.7734,199.4922 122.5,198.3594 Q122.3828,197.5781 121.9531,197.1484 Q121.1719,196.3281 119.7656,195.8594 Q118.3594,195.3516 116.9531,195.3516 Q115.1953,195.3516 113.7109,196.0547 Q112.2656,196.7578 111.1328,198.3203 Q110,199.8828 110,202.0313 L110,204.3359 Q110,206.9141 112.1094,208.6328 Q114.2188,210.3516 117.9688,210.3516 Q120.1953,210.3516 121.7578,209.8438 Q122.6563,209.5703 123.6719,208.6719 Q124.3359,208.1641 124.6875,208.0078 Q125.0391,207.8516 125.4688,207.8516 Q126.2891,207.8516 126.875,208.5156 Q127.5,209.1406 127.5,210.0391 Q127.5,210.8984 126.6406,211.9141 Q125.3906,213.3984 123.3984,214.2188 Q120.7813,215.3516 117.5781,215.3516 Q113.8281,215.3516 110.8203,213.8672 Q108.3984,212.6953 106.6797,210.1563 Q105,207.6172 105,204.6094 L105,201.875 Q105,198.75 106.4844,196.0156 Q108.0078,193.2813 110.625,191.8359 Q113.2813,190.3516 116.25,190.3516 Q118.0469,190.3516 119.6094,190.9766 Q121.1719,191.6016 122.5,192.8516 Z " fill="#000000"/><ellipse cx="165" cy="200.3516" fill="#84BE84" rx="7.5" ry="7.5" style="stroke:#038048;stroke-width:2.5;"/><text fill="#000000" font-family="sans-serif" font-size="30" font-style="italic" font-weight="bold" lengthAdjust="spacing" textLength="60" x="180" y="213.877">final</text><text fill="#000000" font-family="sans-serif" font-size="30" font-style="italic" lengthAdjust="spacing" textLength="330" x="247.5" y="213.877">CommonsApiProperties</text><line style="stroke:#D4AC0D;stroke-width:3.75;" x1="82.5" x2="582.5" y1="241.6016" y2="241.6016"/><ellipse cx="107.5" cy="269.1016" fill="none" rx="7.5" ry="7.5" style="stroke:#038048;stroke-width:2.5;"/><text fill="#000000" font-family="sans-serif" font-size="27.5" font-weight="bold" lengthAdjust="spacing" text-decoration="underline" textLength="57.5" x="130" y="280.1489">final</text><text fill="#000000" font-family="sans-serif" font-size="27.5" lengthAdjust="spacing" text-decoration="underline" textLength="190" x="195" y="280.1489">String VERSION</text><line style="stroke:#D4AC0D;stroke-width:3.75;" x1="82.5" x2="582.5" y1="296.1914" y2="296.1914"/><!--MD5=[c9fcbc22b46e6fe8dd529abbe4ed4a83]
class KeyplePluginExtensionFactory--><rect codeLine="51" fill="#FEFECE" height="120" id="KeyplePluginExtensionFactory" style="stroke:#D4AC0D;stroke-width:3.75;" width="525" x="672.5" y="179.1016"/><ellipse cx="710" cy="219.1016" fill="#B4A7E5" rx="27.5" ry="27.5" style="stroke:#B4A7E5;stroke-width:2.5;"/><path d="M712.5,211.6016 L712.5,226.6016 L717.5,226.6016 L718.7109,226.6016 L720,228.1641 L720,229.1016 L720,230.0391 L718.7109,231.6016 L717.5,231.6016 L702.5,231.6016 L701.2891,231.6016 L700,230.0391 L700,229.1016 L700,228.1641 L701.2891,226.6016 L702.5,226.6016 L707.5,226.6016 L707.5,211.6016 L702.5,211.6016 L701.2891,211.6016 L700,210.0391 L700,209.1016 L700,208.1641 L701.2891,206.6016 L702.5,206.6016 L717.5,206.6016 L718.7109,206.6016 L720,208.1641 L720,209.1016 L720,210.0391 L718.7109,211.6016 L717.5,211.6016 L712.5,211.6016 Z " fill="#000000"/><ellipse cx="757.5" cy="217.8516" fill="#84BE84" rx="7.5" ry="7.5" style="stroke:#038048;stroke-width:2.5;"/><text fill="#000000" font-family="sans-serif" font-size="30" font-style="italic" lengthAdjust="spacing" textLength="417.5" x="772.5" y="231.377">KeyplePluginExtensionFactory</text><line style="stroke:#D4AC0D;stroke-width:3.75;" x1="675" x2="1195" y1="259.1016" y2="259.1016"/><line style="stroke:#D4AC0D;stroke-width:3.75;" x1="675" x2="1195" y1="279.1016" y2="279.1016"/><!--MD5=[afffbc881b1d922900a05d5f1575661b]
class KeyplePluginExtension--><rect codeLine="53" fill="#FEFECE" height="120" id="KeyplePluginExtension" style="stroke:#D4AC0D;stroke-width:3.75;" width="425" x="1285" y="179.1016"/><ellipse cx="1322.5" cy="219.1016" fill="#B4A7E5" rx="27.5" ry="27.5" style="stroke:#B4A7E5;stroke-width:2.5;"/><path d="M1325,211.6016 L1325,226.6016 L1330,226.6016 L1331.2109,226.6016 L1332.5,228.1641 L1332.5,229.1016 L1332.5,230.0391 L1331.2109,231.6016 L1330,231.6016 L1315,231.6016 L1313.7891,231.6016 L1312.5,230.0391 L1312.5,229.1016 L1312.5,228.1641 L1313.7891,226.6016 L1315,226.6016 L1320,226.6016 L1320,211.6016 L1315,211.6016 L1313.7891,211.6016 L1312.5,210.0391 L1312.5,209.1016 L1312.5,208.1641 L1313.7891,206.6016 L1315,206.6016 L1330,206.6016 L1331.2109,206.6016 L1332.5,208.1641 L1332.5,209.1016 L1332.5,210.0391 L1331.2109,211.6016 L1330,211.6016 L1325,211.6016 Z " fill="#000000"/><ellipse cx="1370" cy="217.8516" fill="#84BE84" rx="7.5" ry="7.5" style="stroke:#038048;stroke-width:2.5;"/><text fill="#000000" font-family="sans-serif" font-size="30" font-style="italic" lengthAdjust="spacing" textLength="317.5" x="1385" y="231.377">KeyplePluginExtension</text><line style="stroke:#D4AC0D;stroke-width:3.75;" x1="1287.5" x2="1707.5" y1="259.1016" y2="259.1016"/><line style="stroke:#D4AC0D;stroke-width:3.75;" x1="1287.5" x2="1707.5" y1="279.1016" y2="279.1016"/><!--MD5=[d0367e54e30269e1f6406d1a6d3c359c]
class KeypleReaderExtension--><rect codeLine="55" fill="#FEFECE" height="120" id="KeypleReaderExtension" style="stroke:#D4AC0D;stroke-width:3.75;" width="440" x="1797.5" y="179.1016"/><ellipse cx="1835" cy="219.1016" fill="#B4A7E5" rx="27.5" ry="27.5" style="stroke:#B4A7E5;stroke-width:2.5;"/><path d="M1837.5,211.6016 L1837.5,226.6016 L1842.5,226.6016 L1843.7109,226.6016 L1845,228.1641 L1845,229.1016 L1845,230.0391 L1843.7109,231.6016 L1842.5,231.6016 L1827.5,231.6016 L1826.2891,231.6016 L1825,230.0391 L1825,229.1016 L1825,228.1641 L1826.2891,226.6016 L1827.5,226.6016 L1832.5,226.6016 L1832.5,211.6016 L1827.5,211.6016 L1826.2891,211.6016 L1825,210.0391 L1825,209.1016 L1825,208.1641 L1826.2891,206.6016 L1827.5,206.6016 L1842.5,206.6016 L1843.7109,206.6016 L1845,208.1641 L1845,209.1016 L1845,210.0391 L1843.7109,211.6016 L1842.5,211.6016 L1837.5,211.6016 Z " fill="#000000"/><ellipse cx="1882.5" cy="217.8516" fill="#84BE84" rx="7.5" ry="7.5" style="stroke:#038048;stroke-width:2.5;"/><text fill="#000000" font-family="sans-serif" font-size="30" font-style="italic" lengthAdjust="spacing" textLength="332.5" x="1897.5" y="231.377">KeypleReaderExtension</text><line style="stroke:#D4AC0D;stroke-width:3.75;" x1="1800" x2="2235" y1="259.1016" y2="259.1016"/><line style="stroke:#D4AC0D;stroke-width:3.75;" x1="1800" x2="2235" y1="279.1016" y2="279.1016"/><!--MD5=[beb44669502072071023f5a0a635d64f]
class KeypleSmartCard--><rect codeLine="57" fill="#FEFECE" height="120" id="KeypleSmartCard" style="stroke:#D4AC0D;stroke-width:3.75;" width="352.5" x="81.25" y="466.6016"/><ellipse cx="118.75" cy="506.6016" fill="#B4A7E5" rx="27.5" ry="27.5" style="stroke:#B4A7E5;stroke-width:2.5;"/><path d="M121.25,499.1016 L121.25,514.1016 L126.25,514.1016 L127.4609,514.1016 L128.75,515.6641 L128.75,516.6016 L128.75,517.5391 L127.4609,519.1016 L126.25,519.1016 L111.25,519.1016 L110.0391,519.1016 L108.75,517.5391 L108.75,516.6016 L108.75,515.6641 L110.0391,514.1016 L111.25,514.1016 L116.25,514.1016 L116.25,499.1016 L111.25,499.1016 L110.0391,499.1016 L108.75,497.5391 L108.75,496.6016 L108.75,495.6641 L110.0391,494.1016 L111.25,494.1016 L126.25,494.1016 L127.4609,494.1016 L128.75,495.6641 L128.75,496.6016 L128.75,497.5391 L127.4609,499.1016 L126.25,499.1016 L121.25,499.1016 Z " fill="#000000"/><ellipse cx="166.25" cy="505.3516" fill="#84BE84" rx="7.5" ry="7.5" style="stroke:#038048;stroke-width:2.5;"/><text fill="#000000" font-family="sans-serif" font-size="30" font-style="italic" lengthAdjust="spacing" textLength="245" x="181.25" y="518.877">KeypleSmartCard</text><line style="stroke:#D4AC0D;stroke-width:3.75;" x1="83.75" x2="431.25" y1="546.6016" y2="546.6016"/><line style="stroke:#D4AC0D;stroke-width:3.75;" x1="83.75" x2="431.25" y1="566.6016" y2="566.6016"/><!--MD5=[93835d7ffcf6a3787bfc7eb02bc099b1]
class KeypleCardExtension--><rect codeLine="59" fill="#FEFECE" height="120" id="KeypleCardExtension" style="stroke:#D4AC0D;stroke-width:3.75;" width="405" x="522.5" y="466.6016"/><ellipse cx="560" cy="506.6016" fill="#B4A7E5" rx="27.5" ry="27.5" style="stroke:#B4A7E5;stroke-width:2.5;"/><path d="M562.5,499.1016 L562.5,514.1016 L567.5,514.1016 L568.7109,514.1016 L570,515.6641 L570,516.6016 L570,517.5391 L568.7109,519.1016 L567.5,519.1016 L552.5,519.1016 L551.2891,519.1016 L550,517.5391 L550,516.6016 L550,515.6641 L551.2891,514.1016 L552.5,514.1016 L557.5,514.1016 L557.5,499.1016 L552.5,499.1016 L551.2891,499.1016 L550,497.5391 L550,496.6016 L550,495.6641 L551.2891,494.1016 L552.5,494.1016 L567.5,494.1016 L568.7109,494.1016 L570,495.6641 L570,496.6016 L570,497.5391 L568.7109,499.1016 L567.5,499.1016 L562.5,499.1016 Z " fill="#000000"/><ellipse cx="607.5" cy="505.3516" fill="#84BE84" rx="7.5" ry="7.5" style="stroke:#038048;stroke-width:2.5;"/><text fill="#000000" font-family="sans-serif" font-size="30" font-style="italic" lengthAdjust="spacing" textLength="297.5" x="622.5" y="518.877">KeypleCardExtension</text><line style="stroke:#D4AC0D;stroke-width:3.75;" x1="525" x2="925" y1="546.6016" y2="546.6016"/><line style="stroke:#D4AC0D;stroke-width:3.75;" x1="525" x2="925" y1="566.6016" y2="566.6016"/><!--MD5=[a2300e51c70a09b3b8c0440329c7d6d3]
class KeypleDistributedLocalServiceExtensionFactory--><rect codeLine="61" fill="#FEFECE" height="120" id="KeypleDistributedLocalServiceExtensionFactory" style="stroke:#D4AC0D;stroke-width:3.75;" width="765" x="1015" y="466.6016"/><ellipse cx="1052.5" cy="506.6016" fill="#B4A7E5" rx="27.5" ry="27.5" style="stroke:#B4A7E5;stroke-width:2.5;"/><path d="M1055,499.1016 L1055,514.1016 L1060,514.1016 L1061.2109,514.1016 L1062.5,515.6641 L1062.5,516.6016 L1062.5,517.5391 L1061.2109,519.1016 L1060,519.1016 L1045,519.1016 L1043.7891,519.1016 L1042.5,517.5391 L1042.5,516.6016 L1042.5,515.6641 L1043.7891,514.1016 L1045,514.1016 L1050,514.1016 L1050,499.1016 L1045,499.1016 L1043.7891,499.1016 L1042.5,497.5391 L1042.5,496.6016 L1042.5,495.6641 L1043.7891,494.1016 L1045,494.1016 L1060,494.1016 L1061.2109,494.1016 L1062.5,495.6641 L1062.5,496.6016 L1062.5,497.5391 L1061.2109,499.1016 L1060,499.1016 L1055,499.1016 Z " fill="#000000"/><ellipse cx="1100" cy="505.3516" fill="#84BE84" rx="7.5" ry="7.5" style="stroke:#038048;stroke-width:2.5;"/><text fill="#000000" font-family="sans-serif" font-size="30" font-style="italic" lengthAdjust="spacing" textLength="657.5" x="1115" y="518.877">KeypleDistributedLocalServiceExtensionFactory</text><line style="stroke:#D4AC0D;stroke-width:3.75;" x1="1017.5" x2="1777.5" y1="546.6016" y2="546.6016"/><line style="stroke:#D4AC0D;stroke-width:3.75;" x1="1017.5" x2="1777.5" y1="566.6016" y2="566.6016"/><!--MD5=[2756593ddab659782225b53cebc4a27a]
class KeypleDistributedLocalServiceExtension--><rect codeLine="63" fill="#FEFECE" height="120" id="KeypleDistributedLocalServiceExtension" style="stroke:#D4AC0D;stroke-width:3.75;" width="665" x="1867.5" y="466.6016"/><ellipse cx="1905" cy="506.6016" fill="#B4A7E5" rx="27.5" ry="27.5" style="stroke:#B4A7E5;stroke-width:2.5;"/><path d="M1907.5,499.1016 L1907.5,514.1016 L1912.5,514.1016 L1913.7109,514.1016 L1915,515.6641 L1915,516.6016 L1915,517.5391 L1913.7109,519.1016 L1912.5,519.1016 L1897.5,519.1016 L1896.2891,519.1016 L1895,517.5391 L1895,516.6016 L1895,515.6641 L1896.2891,514.1016 L1897.5,514.1016 L1902.5,514.1016 L1902.5,499.1016 L1897.5,499.1016 L1896.2891,499.1016 L1895,497.5391 L1895,496.6016 L1895,495.6641 L1896.2891,494.1016 L1897.5,494.1016 L1912.5,494.1016 L1913.7109,494.1016 L1915,495.6641 L1915,496.6016 L1915,497.5391 L1913.7109,499.1016 L1912.5,499.1016 L1907.5,499.1016 Z " fill="#000000"/><ellipse cx="1952.5" cy="505.3516" fill="#84BE84" rx="7.5" ry="7.5" style="stroke:#038048;stroke-width:2.5;"/><text fill="#000000" font-family="sans-serif" font-size="30" font-style="italic" lengthAdjust="spacing" textLength="557.5" x="1967.5" y="518.877">KeypleDistributedLocalServiceExtension</text><line style="stroke:#D4AC0D;stroke-width:3.75;" x1="1870" x2="2530" y1="546.6016" y2="546.6016"/><line style="stroke:#D4AC0D;stroke-width:3.75;" x1="1870" x2="2530" y1="566.6016" y2="566.6016"/><!--MD5=[da5810a518fa50088b97d1a4576791b2]
class KeypleCardSelectionResponse--><rect codeLine="65" fill="#FEFECE" height="120" id="KeypleCardSelectionResponse" style="stroke:#D4AC0D;stroke-width:3.75;" width="537.5" x="81.25" y="736.6016"/><ellipse cx="118.75" cy="776.6016" fill="#B4A7E5" rx="27.5" ry="27.5" style="stroke:#B4A7E5;stroke-width:2.5;"/><path d="M121.25,769.1016 L121.25,784.1016 L126.25,784.1016 L127.4609,784.1016 L128.75,785.6641 L128.75,786.6016 L128.75,787.5391 L127.4609,789.1016 L126.25,789.1016 L111.25,789.1016 L110.0391,789.1016 L108.75,787.5391 L108.75,786.6016 L108.75,785.6641 L110.0391,784.1016 L111.25,784.1016 L116.25,784.1016 L116.25,769.1016 L111.25,769.1016 L110.0391,769.1016 L108.75,767.5391 L108.75,766.6016 L108.75,765.6641 L110.0391,764.1016 L111.25,764.1016 L126.25,764.1016 L127.4609,764.1016 L128.75,765.6641 L128.75,766.6016 L128.75,767.5391 L127.4609,769.1016 L126.25,769.1016 L121.25,769.1016 Z " fill="#000000"/><ellipse cx="166.25" cy="775.3516" fill="#84BE84" rx="7.5" ry="7.5" style="stroke:#038048;stroke-width:2.5;"/><text fill="#000000" font-family="sans-serif" font-size="30" font-style="italic" lengthAdjust="spacing" textLength="430" x="181.25" y="788.877">KeypleCardSelectionResponse</text><line style="stroke:#D4AC0D;stroke-width:3.75;" x1="83.75" x2="616.25" y1="816.6016" y2="816.6016"/><line style="stroke:#D4AC0D;stroke-width:3.75;" x1="83.75" x2="616.25" y1="836.6016" y2="836.6016"/><!--MD5=[992e355e37ebedcd3769e1f8c146b434]
class KeypleCardSelector--><rect codeLine="67" fill="#FEFECE" height="120" id="KeypleCardSelector" style="stroke:#D4AC0D;stroke-width:3.75;" width="382.5" x="706.25" y="736.6016"/><ellipse cx="743.75" cy="776.6016" fill="#B4A7E5" rx="27.5" ry="27.5" style="stroke:#B4A7E5;stroke-width:2.5;"/><path d="M746.25,769.1016 L746.25,784.1016 L751.25,784.1016 L752.4609,784.1016 L753.75,785.6641 L753.75,786.6016 L753.75,787.5391 L752.4609,789.1016 L751.25,789.1016 L736.25,789.1016 L735.0391,789.1016 L733.75,787.5391 L733.75,786.6016 L733.75,785.6641 L735.0391,784.1016 L736.25,784.1016 L741.25,784.1016 L741.25,769.1016 L736.25,769.1016 L735.0391,769.1016 L733.75,767.5391 L733.75,766.6016 L733.75,765.6641 L735.0391,764.1016 L736.25,764.1016 L751.25,764.1016 L752.4609,764.1016 L753.75,765.6641 L753.75,766.6016 L753.75,767.5391 L752.4609,769.1016 L751.25,769.1016 L746.25,769.1016 Z " fill="#000000"/><ellipse cx="791.25" cy="775.3516" fill="#84BE84" rx="7.5" ry="7.5" style="stroke:#038048;stroke-width:2.5;"/><text fill="#000000" font-family="sans-serif" font-size="30" font-style="italic" lengthAdjust="spacing" textLength="275" x="806.25" y="788.877">KeypleCardSelector</text><line style="stroke:#D4AC0D;stroke-width:3.75;" x1="708.75" x2="1086.25" y1="816.6016" y2="816.6016"/><line style="stroke:#D4AC0D;stroke-width:3.75;" x1="708.75" x2="1086.25" y1="836.6016" y2="836.6016"/><!--MD5=[8999ac455343ccac23030d8ddecdd1e9]
class KeyplePluginEvent--><rect codeLine="69" fill="#FEFECE" height="120" id="KeyplePluginEvent" style="stroke:#D4AC0D;stroke-width:3.75;" width="367.5" x="1176.25" y="736.6016"/><ellipse cx="1213.75" cy="776.6016" fill="#B4A7E5" rx="27.5" ry="27.5" style="stroke:#B4A7E5;stroke-width:2.5;"/><path d="M1216.25,769.1016 L1216.25,784.1016 L1221.25,784.1016 L1222.4609,784.1016 L1223.75,785.6641 L1223.75,786.6016 L1223.75,787.5391 L1222.4609,789.1016 L1221.25,789.1016 L1206.25,789.1016 L1205.0391,789.1016 L1203.75,787.5391 L1203.75,786.6016 L1203.75,785.6641 L1205.0391,784.1016 L1206.25,784.1016 L1211.25,784.1016 L1211.25,769.1016 L1206.25,769.1016 L1205.0391,769.1016 L1203.75,767.5391 L1203.75,766.6016 L1203.75,765.6641 L1205.0391,764.1016 L1206.25,764.1016 L1221.25,764.1016 L1222.4609,764.1016 L1223.75,765.6641 L1223.75,766.6016 L1223.75,767.5391 L1222.4609,769.1016 L1221.25,769.1016 L1216.25,769.1016 Z " fill="#000000"/><ellipse cx="1261.25" cy="775.3516" fill="#84BE84" rx="7.5" ry="7.5" style="stroke:#038048;stroke-width:2.5;"/><text fill="#000000" font-family="sans-serif" font-size="30" font-style="italic" lengthAdjust="spacing" textLength="260" x="1276.25" y="788.877">KeyplePluginEvent</text><line style="stroke:#D4AC0D;stroke-width:3.75;" x1="1178.75" x2="1541.25" y1="816.6016" y2="816.6016"/><line style="stroke:#D4AC0D;stroke-width:3.75;" x1="1178.75" x2="1541.25" y1="836.6016" y2="836.6016"/><!--MD5=[31820e042815c36821ed3bf317261d9c]
class KeypleReaderEvent--><rect codeLine="71" fill="#FEFECE" height="120" id="KeypleReaderEvent" style="stroke:#D4AC0D;stroke-width:3.75;" width="382.5" x="1631.25" y="736.6016"/><ellipse cx="1668.75" cy="776.6016" fill="#B4A7E5" rx="27.5" ry="27.5" style="stroke:#B4A7E5;stroke-width:2.5;"/><path d="M1671.25,769.1016 L1671.25,784.1016 L1676.25,784.1016 L1677.4609,784.1016 L1678.75,785.6641 L1678.75,786.6016 L1678.75,787.5391 L1677.4609,789.1016 L1676.25,789.1016 L1661.25,789.1016 L1660.0391,789.1016 L1658.75,787.5391 L1658.75,786.6016 L1658.75,785.6641 L1660.0391,784.1016 L1661.25,784.1016 L1666.25,784.1016 L1666.25,769.1016 L1661.25,769.1016 L1660.0391,769.1016 L1658.75,767.5391 L1658.75,766.6016 L1658.75,765.6641 L1660.0391,764.1016 L1661.25,764.1016 L1676.25,764.1016 L1677.4609,764.1016 L1678.75,765.6641 L1678.75,766.6016 L1678.75,767.5391 L1677.4609,769.1016 L1676.25,769.1016 L1671.25,769.1016 Z " fill="#000000"/><ellipse cx="1716.25" cy="775.3516" fill="#84BE84" rx="7.5" ry="7.5" style="stroke:#038048;stroke-width:2.5;"/><text fill="#000000" font-family="sans-serif" font-size="30" font-style="italic" lengthAdjust="spacing" textLength="275" x="1731.25" y="788.877">KeypleReaderEvent</text><line style="stroke:#D4AC0D;stroke-width:3.75;" x1="1633.75" x2="2011.25" y1="816.6016" y2="816.6016"/><line style="stroke:#D4AC0D;stroke-width:3.75;" x1="1633.75" x2="2011.25" y1="836.6016" y2="836.6016"/><!--MD5=[7470d7897158c1b951e7c67040d041a6]
link ApiProperties to KeyplePluginExtensionFactory--><!--MD5=[bbc919d66c64d103395bd9c3f156b21e]
link KeyplePluginExtensionFactory to KeyplePluginExtension--><!--MD5=[69f96aa6399ac01b5921c16a0a39b103]
link KeyplePluginExtension to KeypleReaderExtension--><!--MD5=[a8092c9c6b9f39e3f90c4c13ed3ffc20]
link ApiProperties to KeypleSmartCard--><!--MD5=[7ec38bd7d5ee60a4cab3ad1a7c0dd097]
link KeypleSmartCard to KeypleCardExtension--><!--MD5=[dea0abf20274309f2e9a6c2db29ef759]
link KeypleCardExtension to KeypleDistributedLocalServiceExtensionFactory--><!--MD5=[ffabef45d32b0d43ed0ee5cad14cea67]
link KeypleDistributedLocalServiceExtensionFactory to KeypleDistributedLocalServiceExtension--><!--MD5=[bdd6ff2e0d7d737c2293ffa081e31491]
link KeypleSmartCard to KeypleCardSelectionResponse--><!--MD5=[8ff95c1e54ed8c746601b3156b76be97]
link KeypleCardSelectionResponse to KeypleCardSelector--><!--MD5=[c6458e81f2612b96d2fff22416797b84]
link KeypleCardSelector to KeyplePluginEvent--><!--MD5=[9f3aacdec3cfe6be3f601eccda26207c]
link KeyplePluginEvent to KeypleReaderEvent--><!--MD5=[48ad90edf2efa62de3c5b51741d15ad2]
@startuml
title
    Keyple 2.0 - keyple-java-commons-api - 2.0 (04/03/2021)
end title

' == THEME ==

'Couleurs issues de : https://htmlcolorcodes.com/fr/tableau-de-couleur/tableau-de-couleur-design-plat/
!define C_GREY1 F8F9F9
!define C_GREY2 F2F3F4
!define C_GREY3 E5E7E9
!define C_GREY4 D7DBDD
!define C_GREY5 CACFD2
!define C_GREY6 BDC3C7
!define C_LINK 3498DB
!define C_USE 27AE60

skinparam Shadowing false
skinparam ClassFontStyle italic
skinparam ClassBorderColor #D4AC0D
skinparam stereotypeABorderColor #A9DCDF
skinparam stereotypeIBorderColor #B4A7E5
skinparam stereotypeCBorderColor #ADD1B2
skinparam stereotypeEBorderColor #EB93DF
' Red
skinparam ClassBackgroundColor<<red>> #FDEDEC
skinparam ClassBorderColor<<red>> #E74C3C
hide <<red>> stereotype
' Purple
skinparam ClassBackgroundColor<<purple>> #F4ECF7
skinparam ClassBorderColor<<purple>> #8E44AD
hide <<purple>> stereotype
' blue
skinparam ClassBackgroundColor<<blue>> #EBF5FB
skinparam ClassBorderColor<<blue>> #3498DB
hide <<blue>> stereotype
' Green
skinparam ClassBackgroundColor<<green>> #E9F7EF
skinparam ClassBorderColor<<green>> #27AE60
hide <<green>> stereotype
' Grey
skinparam ClassBackgroundColor<<grey>> #EAECEE
skinparam ClassBorderColor<<grey>> #2C3E50
hide <<grey>> stereotype

' == CONTENT ==

package "org.eclipse.keyple.core.common" as api {
    +class "**final** CommonsApiProperties" as ApiProperties {
        +{static} **final** String VERSION
    }
    +interface KeyplePluginExtensionFactory {
    }
    +interface KeyplePluginExtension {
    }
    +interface KeypleReaderExtension {
    }
    +interface KeypleSmartCard {
    }
    +interface KeypleCardExtension {
    }
    +interface KeypleDistributedLocalServiceExtensionFactory {
    }
    +interface KeypleDistributedLocalServiceExtension {
    }
    +interface KeypleCardSelectionResponse {
    }
    +interface KeypleCardSelector {
    }
    +interface KeyplePluginEvent {
    }
    +interface KeypleReaderEvent {
    }
}

' Associations


' == LAYOUT ==


' == STYLE ==

package api #C_GREY1 {}

@enduml

@startuml
title
    Keyple 2.0 - keyple-java-commons-api - 2.0 (04/03/2021)
end title



skinparam Shadowing false
skinparam ClassFontStyle italic
skinparam ClassBorderColor #D4AC0D
skinparam stereotypeABorderColor #A9DCDF
skinparam stereotypeIBorderColor #B4A7E5
skinparam stereotypeCBorderColor #ADD1B2
skinparam stereotypeEBorderColor #EB93DF
skinparam ClassBackgroundColor<<red>> #FDEDEC
skinparam ClassBorderColor<<red>> #E74C3C
hide <<red>> stereotype
skinparam ClassBackgroundColor<<purple>> #F4ECF7
skinparam ClassBorderColor<<purple>> #8E44AD
hide <<purple>> stereotype
skinparam ClassBackgroundColor<<blue>> #EBF5FB
skinparam ClassBorderColor<<blue>> #3498DB
hide <<blue>> stereotype
skinparam ClassBackgroundColor<<green>> #E9F7EF
skinparam ClassBorderColor<<green>> #27AE60
hide <<green>> stereotype
skinparam ClassBackgroundColor<<grey>> #EAECEE
skinparam ClassBorderColor<<grey>> #2C3E50
hide <<grey>> stereotype


package "org.eclipse.keyple.core.common" as api {
    +class "**final** CommonsApiProperties" as ApiProperties {
        +{static} **final** String VERSION
    }
    +interface KeyplePluginExtensionFactory {
    }
    +interface KeyplePluginExtension {
    }
    +interface KeypleReaderExtension {
    }
    +interface KeypleSmartCard {
    }
    +interface KeypleCardExtension {
    }
    +interface KeypleDistributedLocalServiceExtensionFactory {
    }
    +interface KeypleDistributedLocalServiceExtension {
    }
    +interface KeypleCardSelectionResponse {
    }
    +interface KeypleCardSelector {
    }
    +interface KeyplePluginEvent {
    }
    +interface KeypleReaderEvent {
    }
}






package api #F8F9F9 {}

@enduml

PlantUML version 1.2021.01(Tue Feb 02 08:55:08 CET 2021)
(GPL source distribution)
Java Runtime: OpenJDK Runtime Environment
JVM: OpenJDK 64-Bit Server VM
Default Encoding: Cp1252
Language: fr
Country: FR
--></g></svg>