<?xml version="1.0" encoding="UTF-8" standalone="no"?><svg xmlns="http://www.w3.org/2000/svg" xmlns:xlink="http://www.w3.org/1999/xlink" contentScriptType="application/ecmascript" contentStyleType="text/css" height="3092.5px" preserveAspectRatio="none" style="width:2742px;height:3092px;background:#FFFFFF;" version="1.1" viewBox="0 0 2742 3092" width="2742.5px" zoomAndPan="magnify"><defs><filter height="1" id="byi2odlficrxw0" width="1" x="0" y="0"><feFlood flood-color="#90EE90" result="flood"/><feComposite in="SourceGraphic" in2="flood" operator="over"/></filter><filter height="1" id="byi2odlficrxw1" width="1" x="0" y="0"><feFlood flood-color="#DDA0DD" result="flood"/><feComposite in="SourceGraphic" in2="flood" operator="over"/></filter><filter height="1" id="byi2odlficrxw2" width="1" x="0" y="0"><feFlood flood-color="#ADD8E6" result="flood"/><feComposite in="SourceGraphic" in2="flood" operator="over"/></filter></defs><g><text fill="#000000" font-family="sans-serif" font-size="45" lengthAdjust="spacing" textLength="1300" x="705" y="46.7139">Keyple 2.0 - keyple-distributed-remote-java-api - 2.0 (24/06/2021)</text><rect fill="#DDDDDD" height="245.1172" rx="12.5" ry="12.5" style="stroke:#000000;stroke-width:2.5;" width="1425" x="641.25" y="76.6016"/><text fill="#000000" font-family="sans-serif" font-size="35" lengthAdjust="spacing" text-decoration="underline" textLength="220" x="656.25" y="125.4346">Colors legend</text><text fill="#000000" font-family="sans-serif" font-size="35" lengthAdjust="spacing" textLength="10" x="886.25" y="125.4346">:</text><ellipse cx="670" cy="158.3984" fill="#000000" rx="6.25" ry="6.25" style="stroke:#000000;stroke-width:0.0;"/><text fill="#000000" font-family="sans-serif" font-size="35" lengthAdjust="spacing" text-decoration="underline" textLength="762.5" x="688.75" y="169.458">Keyple Distributed Solution Configuration modes</text><text fill="#000000" font-family="sans-serif" font-size="35" lengthAdjust="spacing" textLength="10" x="1461.25" y="169.458">:</text><rect fill="#000000" height="8.75" style="stroke:#000000;stroke-width:0.0;" width="8.75" x="708.75" y="201.1719"/><text fill="#000000" filter="url(#byi2odlficrxw0)" font-family="sans-serif" font-size="35" font-weight="bold" lengthAdjust="spacing" textLength="327.5" x="721.25" y="213.4814">Reader Client Side</text><text fill="#000000" font-family="sans-serif" font-size="35" lengthAdjust="spacing" textLength="292.5" x="1058.75" y="213.4814">(Remote Plugin on</text><text fill="#000000" font-family="sans-serif" font-size="35" font-weight="bold" lengthAdjust="spacing" textLength="120" x="1361.25" y="213.4814">Server</text><text fill="#000000" font-family="sans-serif" font-size="35" lengthAdjust="spacing" textLength="12.5" x="1481.25" y="213.4814">)</text><rect fill="#000000" height="8.75" style="stroke:#000000;stroke-width:0.0;" width="8.75" x="708.75" y="245.1953"/><text fill="#000000" filter="url(#byi2odlficrxw1)" font-family="sans-serif" font-size="35" font-weight="bold" lengthAdjust="spacing" textLength="345" x="721.25" y="257.5049">Reader Server Side</text><text fill="#000000" font-family="sans-serif" font-size="35" lengthAdjust="spacing" textLength="292.5" x="1076.25" y="257.5049">(Remote Plugin on</text><text fill="#000000" font-family="sans-serif" font-size="35" font-weight="bold" lengthAdjust="spacing" textLength="102.5" x="1378.75" y="257.5049">Client</text><text fill="#000000" font-family="sans-serif" font-size="35" lengthAdjust="spacing" textLength="60" x="1491.25" y="257.5049">with</text><text fill="#000000" font-family="sans-serif" font-size="35" font-weight="bold" lengthAdjust="spacing" textLength="110" x="1561.25" y="257.5049">Plugin</text><text fill="#000000" font-family="sans-serif" font-size="35" lengthAdjust="spacing" textLength="32.5" x="1681.25" y="257.5049">or</text><text fill="#000000" font-family="sans-serif" font-size="35" font-weight="bold" lengthAdjust="spacing" textLength="315" x="1723.75" y="257.5049">ObservablePlugin</text><text fill="#000000" font-family="sans-serif" font-size="35" lengthAdjust="spacing" textLength="12.5" x="2038.75" y="257.5049">)</text><rect fill="#000000" height="8.75" style="stroke:#000000;stroke-width:0.0;" width="8.75" x="708.75" y="289.2188"/><text fill="#000000" filter="url(#byi2odlficrxw2)" font-family="sans-serif" font-size="35" font-weight="bold" lengthAdjust="spacing" textLength="345" x="721.25" y="301.5283">Reader Server Side</text><text fill="#000000" font-family="sans-serif" font-size="35" lengthAdjust="spacing" textLength="292.5" x="1076.25" y="301.5283">(Remote Plugin on</text><text fill="#000000" font-family="sans-serif" font-size="35" font-weight="bold" lengthAdjust="spacing" textLength="102.5" x="1378.75" y="301.5283">Client</text><text fill="#000000" font-family="sans-serif" font-size="35" lengthAdjust="spacing" textLength="60" x="1491.25" y="301.5283">with</text><text fill="#000000" font-family="sans-serif" font-size="35" font-weight="bold" lengthAdjust="spacing" textLength="187.5" x="1561.25" y="301.5283">PoolPlugin</text><text fill="#000000" font-family="sans-serif" font-size="35" lengthAdjust="spacing" textLength="12.5" x="1748.75" y="301.5283">)</text><!--MD5=[7442f3b126ee602ae02566c1a49e158a]
cluster api--><polygon fill="#F8F9F9" points="40,359.2188,805,359.2188,822.5,418.2422,2700,418.2422,2700,3076.7188,40,3076.7188,40,359.2188" style="stroke:#000000;stroke-width:3.75;"/><line style="stroke:#000000;stroke-width:3.75;" x1="40" x2="822.5" y1="418.2422" y2="418.2422"/><text fill="#000000" font-family="sans-serif" font-size="35" font-weight="bold" lengthAdjust="spacing" textLength="750" x="50" y="400.5518">org.eclipse.keyple.core.distributed.remote</text><!--MD5=[f7e0e2453c87923036c1ac2adfb9cbf0]
cluster spi--><polygon fill="#F2F3F4" points="932.5,469.2188,1000,469.2188,1017.5,528.2422,2640,528.2422,2640,3016.7188,932.5,3016.7188,932.5,469.2188" style="stroke:#000000;stroke-width:3.75;"/><line style="stroke:#000000;stroke-width:3.75;" x1="932.5" x2="1017.5" y1="528.2422" y2="528.2422"/><text fill="#000000" font-family="sans-serif" font-size="35" font-weight="bold" lengthAdjust="spacing" textLength="52.5" x="942.5" y="510.5518">spi</text><!--MD5=[120218adfd8782b0057db0a1b8294250]
class ApiProperties--><rect codeLine="56" fill="#FEFECE" height="154.5898" id="ApiProperties" style="stroke:#D4AC0D;stroke-width:3.75;" width="620" x="272.5" y="610.4688"/><ellipse cx="310" cy="650.4688" fill="#ADD1B2" rx="27.5" ry="27.5" style="stroke:#ADD1B2;stroke-width:2.5;"/><path d="M315,641.7188 Q315.5078,640.4688 316.0938,639.8438 Q316.6797,639.2188 317.3438,639.2188 Q318.5156,639.2188 319.2578,639.9219 Q320,640.625 320,642.2656 L320,646.1719 Q320,647.8125 319.2969,648.5156 Q318.5938,649.2188 317.5,649.2188 Q316.5234,649.2188 315.8984,648.7891 Q315.2734,648.3594 315,647.2266 Q314.8828,646.4453 314.4531,646.0156 Q313.6719,645.1953 312.2656,644.7266 Q310.8594,644.2188 309.4531,644.2188 Q307.6953,644.2188 306.2109,644.9219 Q304.7656,645.625 303.6328,647.1875 Q302.5,648.75 302.5,650.8984 L302.5,653.2031 Q302.5,655.7813 304.6094,657.5 Q306.7188,659.2188 310.4688,659.2188 Q312.6953,659.2188 314.2578,658.7109 Q315.1563,658.4375 316.1719,657.5391 Q316.8359,657.0313 317.1875,656.875 Q317.5391,656.7188 317.9688,656.7188 Q318.7891,656.7188 319.375,657.3828 Q320,658.0078 320,658.9063 Q320,659.7656 319.1406,660.7813 Q317.8906,662.2656 315.8984,663.0859 Q313.2813,664.2188 310.0781,664.2188 Q306.3281,664.2188 303.3203,662.7344 Q300.8984,661.5625 299.1797,659.0234 Q297.5,656.4844 297.5,653.4766 L297.5,650.7422 Q297.5,647.6172 298.9844,644.8828 Q300.5078,642.1484 303.125,640.7031 Q305.7813,639.2188 308.75,639.2188 Q310.5469,639.2188 312.1094,639.8438 Q313.6719,640.4688 315,641.7188 Z " fill="#000000"/><ellipse cx="357.5" cy="649.2188" fill="#84BE84" rx="7.5" ry="7.5" style="stroke:#038048;stroke-width:2.5;"/><text fill="#000000" font-family="sans-serif" font-size="30" font-style="italic" font-weight="bold" lengthAdjust="spacing" textLength="60" x="372.5" y="662.7441">final</text><text fill="#000000" font-family="sans-serif" font-size="30" font-style="italic" lengthAdjust="spacing" textLength="445" x="440" y="662.7441">DistributedRemoteApiProperties</text><line style="stroke:#D4AC0D;stroke-width:3.75;" x1="275" x2="890" y1="690.4688" y2="690.4688"/><ellipse cx="300" cy="717.9688" rx="7.5" ry="7.5" style="stroke:#038048;stroke-width:2.5;fill:none;"/><text fill="#000000" font-family="sans-serif" font-size="27.5" font-weight="bold" lengthAdjust="spacing" text-decoration="underline" textLength="57.5" x="322.5" y="729.0161">final</text><text fill="#000000" font-family="sans-serif" font-size="27.5" lengthAdjust="spacing" text-decoration="underline" textLength="190" x="387.5" y="729.0161">String VERSION</text><line style="stroke:#D4AC0D;stroke-width:3.75;" x1="275" x2="890" y1="745.0586" y2="745.0586"/><!--MD5=[3bdcfc6a224040be6cb3c1df3ec20060]
class RemotePluginApi--><rect codeLine="59" fill="#FEFECE" height="179.1797" id="RemotePluginApi" style="stroke:#D4AC0D;stroke-width:3.75;" width="517.5" x="278.75" y="1387.9688"/><ellipse cx="391.875" cy="1427.9688" fill="#B4A7E5" rx="27.5" ry="27.5" style="stroke:#B4A7E5;stroke-width:2.5;"/><path d="M394.375,1420.4688 L394.375,1435.4688 L399.375,1435.4688 L400.5859,1435.4688 L401.875,1437.0313 L401.875,1437.9688 L401.875,1438.9063 L400.5859,1440.4688 L399.375,1440.4688 L384.375,1440.4688 L383.1641,1440.4688 L381.875,1438.9063 L381.875,1437.9688 L381.875,1437.0313 L383.1641,1435.4688 L384.375,1435.4688 L389.375,1435.4688 L389.375,1420.4688 L384.375,1420.4688 L383.1641,1420.4688 L381.875,1418.9063 L381.875,1417.9688 L381.875,1417.0313 L383.1641,1415.4688 L384.375,1415.4688 L399.375,1415.4688 L400.5859,1415.4688 L401.875,1417.0313 L401.875,1417.9688 L401.875,1418.9063 L400.5859,1420.4688 L399.375,1420.4688 L394.375,1420.4688 Z " fill="#000000"/><ellipse cx="455.625" cy="1426.7188" fill="#84BE84" rx="7.5" ry="7.5" style="stroke:#038048;stroke-width:2.5;"/><text fill="#000000" font-family="sans-serif" font-size="30" font-style="italic" lengthAdjust="spacing" textLength="242.5" x="470.625" y="1440.2441">RemotePluginApi</text><line style="stroke:#D4AC0D;stroke-width:3.75;" x1="281.25" x2="793.75" y1="1467.9688" y2="1467.9688"/><ellipse cx="306.25" cy="1540.0586" fill="#84BE84" rx="7.5" ry="7.5" style="stroke:#038048;stroke-width:2.5;"/><text fill="#000000" font-family="sans-serif" font-size="27.5" lengthAdjust="spacing" textLength="452.5" x="328.75" y="1551.106">void onReaderEvent (String jsonData)</text><line style="stroke:#D4AC0D;stroke-width:2.5;stroke-dasharray:1.0,2.0;" x1="281.25" x2="405" y1="1505.2637" y2="1505.2637"/><text fill="#000000" filter="url(#byi2odlficrxw1)" font-family="sans-serif" font-size="27.5" font-weight="bold" lengthAdjust="spacing" textLength="265" x="405" y="1515.2661">Reader Server Side</text><line style="stroke:#D4AC0D;stroke-width:2.5;stroke-dasharray:1.0,2.0;" x1="670" x2="793.75" y1="1505.2637" y2="1505.2637"/><!--MD5=[0db98e29c29f308f95f437c44cb51af8]
class ObservableRemotePluginApi--><rect codeLine="63" fill="#FEFECE" height="292.9492" id="ObservableRemotePluginApi" style="stroke:#D4AC0D;stroke-width:3.75;" width="802.5" x="81.25" y="1931.7188"/><ellipse cx="255.625" cy="1971.7188" fill="#B4A7E5" rx="27.5" ry="27.5" style="stroke:#B4A7E5;stroke-width:2.5;"/><path d="M258.125,1964.2188 L258.125,1979.2188 L263.125,1979.2188 L264.3359,1979.2188 L265.625,1980.7813 L265.625,1981.7188 L265.625,1982.6563 L264.3359,1984.2188 L263.125,1984.2188 L248.125,1984.2188 L246.9141,1984.2188 L245.625,1982.6563 L245.625,1981.7188 L245.625,1980.7813 L246.9141,1979.2188 L248.125,1979.2188 L253.125,1979.2188 L253.125,1964.2188 L248.125,1964.2188 L246.9141,1964.2188 L245.625,1962.6563 L245.625,1961.7188 L245.625,1960.7813 L246.9141,1959.2188 L248.125,1959.2188 L263.125,1959.2188 L264.3359,1959.2188 L265.625,1960.7813 L265.625,1961.7188 L265.625,1962.6563 L264.3359,1964.2188 L263.125,1964.2188 L258.125,1964.2188 Z " fill="#000000"/><ellipse cx="319.375" cy="1970.4688" fill="#84BE84" rx="7.5" ry="7.5" style="stroke:#038048;stroke-width:2.5;"/><text fill="#000000" font-family="sans-serif" font-size="30" font-style="italic" lengthAdjust="spacing" textLength="405" x="334.375" y="1983.9941">ObservableRemotePluginApi</text><line style="stroke:#D4AC0D;stroke-width:3.75;" x1="83.75" x2="881.25" y1="2011.7188" y2="2011.7188"/><ellipse cx="108.75" cy="2083.8086" fill="#84BE84" rx="7.5" ry="7.5" style="stroke:#038048;stroke-width:2.5;"/><text fill="#000000" font-family="sans-serif" font-size="27.5" lengthAdjust="spacing" textLength="737.5" x="131.25" y="2094.856">void addRemoteReader (RemoteReaderSpi remoteReaderSpi)</text><ellipse cx="108.75" cy="2118.3984" fill="#84BE84" rx="7.5" ry="7.5" style="stroke:#038048;stroke-width:2.5;"/><text fill="#000000" font-family="sans-serif" font-size="27.5" lengthAdjust="spacing" textLength="657.5" x="131.25" y="2129.4458">void removeRemoteReader (Sting remoteReaderName)</text><line style="stroke:#D4AC0D;stroke-width:2.5;stroke-dasharray:1.0,2.0;" x1="83.75" x2="356.25" y1="2049.0137" y2="2049.0137"/><text fill="#000000" filter="url(#byi2odlficrxw0)" font-family="sans-serif" font-size="27.5" font-weight="bold" lengthAdjust="spacing" textLength="252.5" x="356.25" y="2059.0161">Reader Client Side</text><line style="stroke:#D4AC0D;stroke-width:2.5;stroke-dasharray:1.0,2.0;" x1="608.75" x2="881.25" y1="2049.0137" y2="2049.0137"/><ellipse cx="108.75" cy="2197.5781" fill="#84BE84" rx="7.5" ry="7.5" style="stroke:#038048;stroke-width:2.5;"/><text fill="#000000" font-family="sans-serif" font-size="27.5" lengthAdjust="spacing" textLength="435" x="131.25" y="2208.6255">void onPluginEvent (String jsonData)</text><line style="stroke:#D4AC0D;stroke-width:2.5;stroke-dasharray:1.0,2.0;" x1="83.75" x2="350" y1="2162.7832" y2="2162.7832"/><text fill="#000000" filter="url(#byi2odlficrxw1)" font-family="sans-serif" font-size="27.5" font-weight="bold" lengthAdjust="spacing" textLength="265" x="350" y="2172.7856">Reader Server Side</text><line style="stroke:#D4AC0D;stroke-width:2.5;stroke-dasharray:1.0,2.0;" x1="615" x2="881.25" y1="2162.7832" y2="2162.7832"/><!--MD5=[c2370bc74128b93bd072b6f31e9991b0]
class RemotePluginFactorySpi--><rect codeLine="72" fill="#FEFECE" height="258.3594" id="RemotePluginFactorySpi" style="stroke:#D4AC0D;stroke-width:3.75;" width="600" x="1195" y="559.2188"/><ellipse cx="1300" cy="599.2188" fill="#B4A7E5" rx="27.5" ry="27.5" style="stroke:#B4A7E5;stroke-width:2.5;"/><path d="M1302.5,591.7188 L1302.5,606.7188 L1307.5,606.7188 L1308.7109,606.7188 L1310,608.2813 L1310,609.2188 L1310,610.1563 L1308.7109,611.7188 L1307.5,611.7188 L1292.5,611.7188 L1291.2891,611.7188 L1290,610.1563 L1290,609.2188 L1290,608.2813 L1291.2891,606.7188 L1292.5,606.7188 L1297.5,606.7188 L1297.5,591.7188 L1292.5,591.7188 L1291.2891,591.7188 L1290,590.1563 L1290,589.2188 L1290,588.2813 L1291.2891,586.7188 L1292.5,586.7188 L1307.5,586.7188 L1308.7109,586.7188 L1310,588.2813 L1310,589.2188 L1310,590.1563 L1308.7109,591.7188 L1307.5,591.7188 L1302.5,591.7188 Z " fill="#000000"/><ellipse cx="1362.5" cy="597.9688" fill="#84BE84" rx="7.5" ry="7.5" style="stroke:#038048;stroke-width:2.5;"/><text fill="#000000" font-family="sans-serif" font-size="30" font-style="italic" lengthAdjust="spacing" textLength="342.5" x="1377.5" y="611.4941">RemotePluginFactorySpi</text><line style="stroke:#D4AC0D;stroke-width:3.75;" x1="1197.5" x2="1792.5" y1="639.2188" y2="639.2188"/><line style="stroke:#D4AC0D;stroke-width:3.75;" x1="1197.5" x2="1792.5" y1="659.2188" y2="659.2188"/><ellipse cx="1222.5" cy="686.7188" fill="#84BE84" rx="7.5" ry="7.5" style="stroke:#038048;stroke-width:2.5;"/><text fill="#000000" font-family="sans-serif" font-size="27.5" lengthAdjust="spacing" textLength="495" x="1245" y="697.7661">String getDistributedRemoteApiVersion ()</text><ellipse cx="1222.5" cy="721.3086" fill="#84BE84" rx="7.5" ry="7.5" style="stroke:#038048;stroke-width:2.5;"/><text fill="#000000" font-family="sans-serif" font-size="27.5" lengthAdjust="spacing" textLength="380" x="1245" y="732.356">String getCommonApiVersion ()</text><ellipse cx="1222.5" cy="755.8984" fill="#84BE84" rx="7.5" ry="7.5" style="stroke:#038048;stroke-width:2.5;"/><text fill="#000000" font-family="sans-serif" font-size="27.5" lengthAdjust="spacing" textLength="370" x="1245" y="766.9458">String getRemotePluginName ()</text><ellipse cx="1222.5" cy="790.4883" fill="#84BE84" rx="7.5" ry="7.5" style="stroke:#038048;stroke-width:2.5;"/><text fill="#000000" font-family="sans-serif" font-size="27.5" lengthAdjust="spacing" textLength="535" x="1245" y="801.5356">AbstractRemotePluginSpi getRemotePlugin ()</text><!--MD5=[136cd6dbe7577038ede23d483af1b410]
class AbstractRemotePluginSpi--><rect codeLine="79" fill="#FEFECE" height="189.1797" id="AbstractRemotePluginSpi" style="stroke:#D4AC0D;stroke-width:3.75;" width="560" x="1262.5" y="1011.7188"/><ellipse cx="1343.875" cy="1051.7188" fill="#B4A7E5" rx="27.5" ry="27.5" style="stroke:#B4A7E5;stroke-width:2.5;"/><path d="M1346.375,1044.2188 L1346.375,1059.2188 L1351.375,1059.2188 L1352.5859,1059.2188 L1353.875,1060.7813 L1353.875,1061.7188 L1353.875,1062.6563 L1352.5859,1064.2188 L1351.375,1064.2188 L1336.375,1064.2188 L1335.1641,1064.2188 L1333.875,1062.6563 L1333.875,1061.7188 L1333.875,1060.7813 L1335.1641,1059.2188 L1336.375,1059.2188 L1341.375,1059.2188 L1341.375,1044.2188 L1336.375,1044.2188 L1335.1641,1044.2188 L1333.875,1042.6563 L1333.875,1041.7188 L1333.875,1040.7813 L1335.1641,1039.2188 L1336.375,1039.2188 L1351.375,1039.2188 L1352.5859,1039.2188 L1353.875,1040.7813 L1353.875,1041.7188 L1353.875,1042.6563 L1352.5859,1044.2188 L1351.375,1044.2188 L1346.375,1044.2188 Z " fill="#000000"/><ellipse cx="1401.125" cy="1050.4688" fill="#84BE84" rx="7.5" ry="7.5" style="stroke:#038048;stroke-width:2.5;"/><text fill="#000000" font-family="sans-serif" font-size="30" font-style="italic" lengthAdjust="spacing" textLength="355" x="1416.125" y="1063.9941">AbstractRemotePluginSpi</text><line style="stroke:#D4AC0D;stroke-width:3.75;" x1="1265" x2="1820" y1="1091.7188" y2="1091.7188"/><line style="stroke:#D4AC0D;stroke-width:3.75;" x1="1265" x2="1820" y1="1111.7188" y2="1111.7188"/><ellipse cx="1290" cy="1139.2188" fill="#84BE84" rx="7.5" ry="7.5" style="stroke:#038048;stroke-width:2.5;"/><text fill="#000000" font-family="sans-serif" font-size="27.5" lengthAdjust="spacing" textLength="210" x="1312.5" y="1150.2661">String getName ()</text><ellipse cx="1290" cy="1173.8086" fill="#84BE84" rx="7.5" ry="7.5" style="stroke:#038048;stroke-width:2.5;"/><text fill="#000000" font-family="sans-serif" font-size="27.5" lengthAdjust="spacing" textLength="495" x="1312.5" y="1184.856">String executeRemotely (String jsonData)</text><!--MD5=[733b899168be945616a1d8aa95c72981]
class RemotePluginSpi--><rect codeLine="83" fill="#FEFECE" height="248.3594" id="RemotePluginSpi" style="stroke:#D4AC0D;stroke-width:3.75;" width="1137.5" x="973.75" y="1354.2188"/><ellipse cx="1396.875" cy="1394.2188" fill="#B4A7E5" rx="27.5" ry="27.5" style="stroke:#B4A7E5;stroke-width:2.5;"/><path d="M1399.375,1386.7188 L1399.375,1401.7188 L1404.375,1401.7188 L1405.5859,1401.7188 L1406.875,1403.2813 L1406.875,1404.2188 L1406.875,1405.1563 L1405.5859,1406.7188 L1404.375,1406.7188 L1389.375,1406.7188 L1388.1641,1406.7188 L1386.875,1405.1563 L1386.875,1404.2188 L1386.875,1403.2813 L1388.1641,1401.7188 L1389.375,1401.7188 L1394.375,1401.7188 L1394.375,1386.7188 L1389.375,1386.7188 L1388.1641,1386.7188 L1386.875,1385.1563 L1386.875,1384.2188 L1386.875,1383.2813 L1388.1641,1381.7188 L1389.375,1381.7188 L1404.375,1381.7188 L1405.5859,1381.7188 L1406.875,1383.2813 L1406.875,1384.2188 L1406.875,1385.1563 L1405.5859,1386.7188 L1404.375,1386.7188 L1399.375,1386.7188 Z " fill="#000000"/><ellipse cx="1460.625" cy="1392.9688" fill="#84BE84" rx="7.5" ry="7.5" style="stroke:#038048;stroke-width:2.5;"/><text fill="#000000" font-family="sans-serif" font-size="30" font-style="italic" lengthAdjust="spacing" textLength="242.5" x="1475.625" y="1406.4941">RemotePluginSpi</text><line style="stroke:#D4AC0D;stroke-width:3.75;" x1="976.25" x2="2108.75" y1="1434.2188" y2="1434.2188"/><ellipse cx="1001.25" cy="1506.3086" fill="#84BE84" rx="7.5" ry="7.5" style="stroke:#038048;stroke-width:2.5;"/><text fill="#000000" font-family="sans-serif" font-size="27.5" lengthAdjust="spacing" textLength="582.5" x="1023.75" y="1517.356">void connect (RemotePluginApi remotePluginApi)</text><ellipse cx="1001.25" cy="1540.8984" fill="#84BE84" rx="7.5" ry="7.5" style="stroke:#038048;stroke-width:2.5;"/><text fill="#000000" font-family="sans-serif" font-size="27.5" lengthAdjust="spacing" textLength="792.5" x="1023.75" y="1551.9458">RemoteReaderSpi createRemoteReader (String localReaderName)</text><ellipse cx="1001.25" cy="1575.4883" fill="#84BE84" rx="7.5" ry="7.5" style="stroke:#038048;stroke-width:2.5;"/><text fill="#000000" font-family="sans-serif" font-size="27.5" lengthAdjust="spacing" textLength="1072.5" x="1023.75" y="1586.5356">ObservableRemoteReaderSpi createObservableRemoteReader (String localReaderName)</text><line style="stroke:#D4AC0D;stroke-width:2.5;stroke-dasharray:1.0,2.0;" x1="976.25" x2="1410" y1="1471.5137" y2="1471.5137"/><text fill="#000000" filter="url(#byi2odlficrxw1)" font-family="sans-serif" font-size="27.5" font-weight="bold" lengthAdjust="spacing" textLength="265" x="1410" y="1481.5161">Reader Server Side</text><line style="stroke:#D4AC0D;stroke-width:2.5;stroke-dasharray:1.0,2.0;" x1="1675" x2="2108.75" y1="1471.5137" y2="1471.5137"/><!--MD5=[309cd6c2721908ddd074502139737511]
class ObservableRemotePluginSpi--><rect codeLine="89" fill="#FEFECE" height="292.9492" id="ObservableRemotePluginSpi" style="stroke:#D4AC0D;stroke-width:3.75;" width="930" x="1065" y="1931.7188"/><ellipse cx="1303.125" cy="1971.7188" fill="#B4A7E5" rx="27.5" ry="27.5" style="stroke:#B4A7E5;stroke-width:2.5;"/><path d="M1305.625,1964.2188 L1305.625,1979.2188 L1310.625,1979.2188 L1311.8359,1979.2188 L1313.125,1980.7813 L1313.125,1981.7188 L1313.125,1982.6563 L1311.8359,1984.2188 L1310.625,1984.2188 L1295.625,1984.2188 L1294.4141,1984.2188 L1293.125,1982.6563 L1293.125,1981.7188 L1293.125,1980.7813 L1294.4141,1979.2188 L1295.625,1979.2188 L1300.625,1979.2188 L1300.625,1964.2188 L1295.625,1964.2188 L1294.4141,1964.2188 L1293.125,1962.6563 L1293.125,1961.7188 L1293.125,1960.7813 L1294.4141,1959.2188 L1295.625,1959.2188 L1310.625,1959.2188 L1311.8359,1959.2188 L1313.125,1960.7813 L1313.125,1961.7188 L1313.125,1962.6563 L1311.8359,1964.2188 L1310.625,1964.2188 L1305.625,1964.2188 Z " fill="#000000"/><ellipse cx="1366.875" cy="1970.4688" fill="#84BE84" rx="7.5" ry="7.5" style="stroke:#038048;stroke-width:2.5;"/><text fill="#000000" font-family="sans-serif" font-size="30" font-style="italic" lengthAdjust="spacing" textLength="405" x="1381.875" y="1983.9941">ObservableRemotePluginSpi</text><line style="stroke:#D4AC0D;stroke-width:3.75;" x1="1067.5" x2="1992.5" y1="2011.7188" y2="2011.7188"/><ellipse cx="1092.5" cy="2083.8086" fill="#84BE84" rx="7.5" ry="7.5" style="stroke:#038048;stroke-width:2.5;"/><text fill="#000000" font-family="sans-serif" font-size="27.5" lengthAdjust="spacing" textLength="865" x="1115" y="2094.856">void connect (ObservableRemotePluginApi observableRemotePluginApi)</text><line style="stroke:#D4AC0D;stroke-width:2.5;stroke-dasharray:1.0,2.0;" x1="1067.5" x2="1255" y1="2049.0137" y2="2049.0137"/><text fill="#000000" filter="url(#byi2odlficrxw0)" font-family="sans-serif" font-size="27.5" font-weight="bold" lengthAdjust="spacing" textLength="252.5" x="1255" y="2059.0161">Reader Client Side</text><text fill="#000000" font-family="sans-serif" font-size="27.5" lengthAdjust="spacing" textLength="17.5" x="1515" y="2059.0161">&amp;</text><text fill="#000000" filter="url(#byi2odlficrxw1)" font-family="sans-serif" font-size="27.5" font-weight="bold" lengthAdjust="spacing" textLength="265" x="1540" y="2059.0161">Reader Server Side</text><line style="stroke:#D4AC0D;stroke-width:2.5;stroke-dasharray:1.0,2.0;" x1="1805" x2="1992.5" y1="2049.0137" y2="2049.0137"/><ellipse cx="1092.5" cy="2162.9883" fill="#84BE84" rx="7.5" ry="7.5" style="stroke:#038048;stroke-width:2.5;"/><text fill="#000000" font-family="sans-serif" font-size="27.5" lengthAdjust="spacing" textLength="320" x="1115" y="2174.0356">void onStartObservation ()</text><ellipse cx="1092.5" cy="2197.5781" fill="#84BE84" rx="7.5" ry="7.5" style="stroke:#038048;stroke-width:2.5;"/><text fill="#000000" font-family="sans-serif" font-size="27.5" lengthAdjust="spacing" textLength="317.5" x="1115" y="2208.6255">void onStopObservation ()</text><line style="stroke:#D4AC0D;stroke-width:2.5;stroke-dasharray:1.0,2.0;" x1="1067.5" x2="1397.5" y1="2128.1934" y2="2128.1934"/><text fill="#000000" filter="url(#byi2odlficrxw1)" font-family="sans-serif" font-size="27.5" font-weight="bold" lengthAdjust="spacing" textLength="265" x="1397.5" y="2138.1958">Reader Server Side</text><line style="stroke:#D4AC0D;stroke-width:2.5;stroke-dasharray:1.0,2.0;" x1="1662.5" x2="1992.5" y1="2128.1934" y2="2128.1934"/><!--MD5=[c067c0f4268e0e2ca3a257b5e7c1541b]
class RemotePoolPluginSpi--><rect codeLine="96" fill="#FEFECE" height="179.1797" id="RemotePoolPluginSpi" style="stroke:#D4AC0D;stroke-width:3.75;" width="857.5" x="1741.25" y="1676.7188"/><ellipse cx="1993.125" cy="1716.7188" fill="#B4A7E5" rx="27.5" ry="27.5" style="stroke:#B4A7E5;stroke-width:2.5;"/><path d="M1995.625,1709.2188 L1995.625,1724.2188 L2000.625,1724.2188 L2001.8359,1724.2188 L2003.125,1725.7813 L2003.125,1726.7188 L2003.125,1727.6563 L2001.8359,1729.2188 L2000.625,1729.2188 L1985.625,1729.2188 L1984.4141,1729.2188 L1983.125,1727.6563 L1983.125,1726.7188 L1983.125,1725.7813 L1984.4141,1724.2188 L1985.625,1724.2188 L1990.625,1724.2188 L1990.625,1709.2188 L1985.625,1709.2188 L1984.4141,1709.2188 L1983.125,1707.6563 L1983.125,1706.7188 L1983.125,1705.7813 L1984.4141,1704.2188 L1985.625,1704.2188 L2000.625,1704.2188 L2001.8359,1704.2188 L2003.125,1705.7813 L2003.125,1706.7188 L2003.125,1707.6563 L2001.8359,1709.2188 L2000.625,1709.2188 L1995.625,1709.2188 Z " fill="#000000"/><ellipse cx="2056.875" cy="1715.4688" fill="#84BE84" rx="7.5" ry="7.5" style="stroke:#038048;stroke-width:2.5;"/><text fill="#000000" font-family="sans-serif" font-size="30" font-style="italic" lengthAdjust="spacing" textLength="305" x="2071.875" y="1728.9941">RemotePoolPluginSpi</text><line style="stroke:#D4AC0D;stroke-width:3.75;" x1="1743.75" x2="2596.25" y1="1756.7188" y2="1756.7188"/><ellipse cx="1768.75" cy="1828.8086" fill="#84BE84" rx="7.5" ry="7.5" style="stroke:#038048;stroke-width:2.5;"/><text fill="#000000" font-family="sans-serif" font-size="27.5" lengthAdjust="spacing" textLength="792.5" x="1791.25" y="1839.856">RemoteReaderSpi createRemoteReader (String localReaderName)</text><line style="stroke:#D4AC0D;stroke-width:2.5;stroke-dasharray:1.0,2.0;" x1="1743.75" x2="2003.75" y1="1794.0137" y2="1794.0137"/><text fill="#000000" filter="url(#byi2odlficrxw2)" font-family="sans-serif" font-size="27.5" font-weight="bold" lengthAdjust="spacing" textLength="332.5" x="2003.75" y="1804.0161">Pool Reader Server Side</text><line style="stroke:#D4AC0D;stroke-width:2.5;stroke-dasharray:1.0,2.0;" x1="2336.25" x2="2596.25" y1="1794.0137" y2="1794.0137"/><!--MD5=[3937379067c1c7d1f35002e0ca836dbd]
class RemoteReaderSpi--><rect codeLine="101" fill="#FEFECE" height="189.1797" id="RemoteReaderSpi" style="stroke:#D4AC0D;stroke-width:3.75;" width="560" x="1730" y="2419.2188"/><ellipse cx="1856.875" cy="2459.2188" fill="#B4A7E5" rx="27.5" ry="27.5" style="stroke:#B4A7E5;stroke-width:2.5;"/><path d="M1859.375,2451.7188 L1859.375,2466.7188 L1864.375,2466.7188 L1865.5859,2466.7188 L1866.875,2468.2813 L1866.875,2469.2188 L1866.875,2470.1563 L1865.5859,2471.7188 L1864.375,2471.7188 L1849.375,2471.7188 L1848.1641,2471.7188 L1846.875,2470.1563 L1846.875,2469.2188 L1846.875,2468.2813 L1848.1641,2466.7188 L1849.375,2466.7188 L1854.375,2466.7188 L1854.375,2451.7188 L1849.375,2451.7188 L1848.1641,2451.7188 L1846.875,2450.1563 L1846.875,2449.2188 L1846.875,2448.2813 L1848.1641,2446.7188 L1849.375,2446.7188 L1864.375,2446.7188 L1865.5859,2446.7188 L1866.875,2448.2813 L1866.875,2449.2188 L1866.875,2450.1563 L1865.5859,2451.7188 L1864.375,2451.7188 L1859.375,2451.7188 Z " fill="#000000"/><ellipse cx="1920.625" cy="2457.9688" fill="#84BE84" rx="7.5" ry="7.5" style="stroke:#038048;stroke-width:2.5;"/><text fill="#000000" font-family="sans-serif" font-size="30" font-style="italic" lengthAdjust="spacing" textLength="257.5" x="1935.625" y="2471.4941">RemoteReaderSpi</text><line style="stroke:#D4AC0D;stroke-width:3.75;" x1="1732.5" x2="2287.5" y1="2499.2188" y2="2499.2188"/><line style="stroke:#D4AC0D;stroke-width:3.75;" x1="1732.5" x2="2287.5" y1="2519.2188" y2="2519.2188"/><ellipse cx="1757.5" cy="2546.7188" fill="#84BE84" rx="7.5" ry="7.5" style="stroke:#038048;stroke-width:2.5;"/><text fill="#000000" font-family="sans-serif" font-size="27.5" lengthAdjust="spacing" textLength="210" x="1780" y="2557.7661">String getName ()</text><ellipse cx="1757.5" cy="2581.3086" fill="#84BE84" rx="7.5" ry="7.5" style="stroke:#038048;stroke-width:2.5;"/><text fill="#000000" font-family="sans-serif" font-size="27.5" lengthAdjust="spacing" textLength="495" x="1780" y="2592.356">String executeRemotely (String jsonData)</text><!--MD5=[bde6ad16048b75cbc3ab150f56eec96c]
class ObservableRemoteReaderSpi--><rect codeLine="105" fill="#FEFECE" height="213.7695" id="ObservableRemoteReaderSpi" style="stroke:#D4AC0D;stroke-width:3.75;" width="527.5" x="1166.25" y="2761.7188"/><ellipse cx="1203.75" cy="2801.7188" fill="#B4A7E5" rx="27.5" ry="27.5" style="stroke:#B4A7E5;stroke-width:2.5;"/><path d="M1206.25,2794.2188 L1206.25,2809.2188 L1211.25,2809.2188 L1212.4609,2809.2188 L1213.75,2810.7813 L1213.75,2811.7188 L1213.75,2812.6563 L1212.4609,2814.2188 L1211.25,2814.2188 L1196.25,2814.2188 L1195.0391,2814.2188 L1193.75,2812.6563 L1193.75,2811.7188 L1193.75,2810.7813 L1195.0391,2809.2188 L1196.25,2809.2188 L1201.25,2809.2188 L1201.25,2794.2188 L1196.25,2794.2188 L1195.0391,2794.2188 L1193.75,2792.6563 L1193.75,2791.7188 L1193.75,2790.7813 L1195.0391,2789.2188 L1196.25,2789.2188 L1211.25,2789.2188 L1212.4609,2789.2188 L1213.75,2790.7813 L1213.75,2791.7188 L1213.75,2792.6563 L1212.4609,2794.2188 L1211.25,2794.2188 L1206.25,2794.2188 Z " fill="#000000"/><ellipse cx="1251.25" cy="2800.4688" fill="#84BE84" rx="7.5" ry="7.5" style="stroke:#038048;stroke-width:2.5;"/><text fill="#000000" font-family="sans-serif" font-size="30" font-style="italic" lengthAdjust="spacing" textLength="420" x="1266.25" y="2813.9941">ObservableRemoteReaderSpi</text><line style="stroke:#D4AC0D;stroke-width:3.75;" x1="1168.75" x2="1691.25" y1="2841.7188" y2="2841.7188"/><ellipse cx="1193.75" cy="2913.8086" fill="#84BE84" rx="7.5" ry="7.5" style="stroke:#038048;stroke-width:2.5;"/><text fill="#000000" font-family="sans-serif" font-size="27.5" lengthAdjust="spacing" textLength="320" x="1216.25" y="2924.856">void onStartObservation ()</text><ellipse cx="1193.75" cy="2948.3984" fill="#84BE84" rx="7.5" ry="7.5" style="stroke:#038048;stroke-width:2.5;"/><text fill="#000000" font-family="sans-serif" font-size="27.5" lengthAdjust="spacing" textLength="317.5" x="1216.25" y="2959.4458">void onStopObservation ()</text><line style="stroke:#D4AC0D;stroke-width:2.5;stroke-dasharray:1.0,2.0;" x1="1168.75" x2="1297.5" y1="2879.0137" y2="2879.0137"/><text fill="#000000" filter="url(#byi2odlficrxw1)" font-family="sans-serif" font-size="27.5" font-weight="bold" lengthAdjust="spacing" textLength="265" x="1297.5" y="2889.0161">Reader Server Side</text><line style="stroke:#D4AC0D;stroke-width:2.5;stroke-dasharray:1.0,2.0;" x1="1562.5" x2="1691.25" y1="2879.0137" y2="2879.0137"/><!--MD5=[a9485228ae7e4941f36f86641e2e8fb1]
reverse link AbstractRemotePluginSpi to RemotePluginSpi--><path d="M1542.5,1252.8887 C1542.5,1286.2988 1542.5,1321.5437 1542.5,1353.8913 " fill="none" id="AbstractRemotePluginSpi-backto-RemotePluginSpi" style="stroke:#A80036;stroke-width:2.5;"/><polygon fill="none" points="1525,1252.5862,1542.5,1202.5862,1560,1252.5862,1525,1252.5862" style="stroke:#A80036;stroke-width:2.5;"/><!--MD5=[b1733e4fb8d21da98cd85d581166204b]
reverse link RemotePluginSpi to ObservableRemotePluginSpi--><path d="M1538.8725,1653.1187 C1537.0225,1741.1462 1534.8,1846.9912 1533.0425,1930.6988 " fill="none" id="RemotePluginSpi-backto-ObservableRemotePluginSpi" style="stroke:#A80036;stroke-width:2.5;"/><polygon fill="none" points="1521.3925,1651.9338,1539.94,1602.3113,1556.385,1652.6688,1521.3925,1651.9338" style="stroke:#A80036;stroke-width:2.5;"/><!--MD5=[f70ec21a9947311666aa223098a35785]
reverse link AbstractRemotePluginSpi to RemotePoolPluginSpi--><path d="M1871.555,1166.0738 C1979.4125,1201.7563 2088.5275,1259.8038 2155,1354.2188 C2221.2225,1448.2788 2209.86,1586.8363 2192.4475,1676.3113 " fill="none" id="AbstractRemotePluginSpi-backto-RemotePoolPluginSpi" style="stroke:#A80036;stroke-width:2.5;"/><polygon fill="none" points="1865.875,1182.6388,1823.07,1151.4288,1875.995,1149.1338,1865.875,1182.6388" style="stroke:#A80036;stroke-width:2.5;"/><!--MD5=[66802393e068e625b1512b2c90a160c9]
reverse link RemoteReaderSpi to ObservableRemoteReaderSpi--><path d="M1812.8575,2635.6838 C1745.135,2676.5513 1669.86,2721.9763 1604.1025,2761.6563 " fill="none" id="RemoteReaderSpi-backto-ObservableRemoteReaderSpi" style="stroke:#A80036;stroke-width:2.5;"/><polygon fill="none" points="1804.2425,2620.4438,1856.0925,2609.5938,1822.325,2650.4112,1804.2425,2620.4438" style="stroke:#A80036;stroke-width:2.5;"/><!--MD5=[4174bbe09b6fc05497605efa272e822c]
reverse link ApiProperties to RemotePluginFactorySpi--><path codeLine="115" d="M905.345,687.9688 C999.585,687.9688 1102.1475,687.9688 1194.9175,687.9688 " fill="none" id="ApiProperties-backto-RemotePluginFactorySpi" style="stroke:#3498DB;stroke-width:2.5;stroke-dasharray:7.0,7.0;"/><polygon fill="#3498DB" points="892.705,687.9688,915.205,697.9688,905.205,687.9688,915.205,677.9688,892.705,687.9688" style="stroke:#3498DB;stroke-width:2.5;"/><text fill="#000000" font-family="sans-serif" font-size="32.5" lengthAdjust="spacing" textLength="100" x="993.75" y="631.7065">provide</text><polygon fill="#000000" points="946.25,659.2871,968.8627,666.6344,968.8627,651.9398,946.25,659.2871" style="stroke:#000000;stroke-width:2.5;"/><text fill="#000000" font-family="sans-serif" font-size="32.5" lengthAdjust="spacing" textLength="162.5" x="978.75" y="672.5854">API version</text><!--MD5=[c3180e6645f84b9ecb4e0c177783130e]
link RemotePluginFactorySpi to AbstractRemotePluginSpi--><path codeLine="116" d="M1509.51,816.8562 C1516.1775,874.9388 1523.9975,943.0513 1530.35,998.3812 " fill="none" id="RemotePluginFactorySpi-to-AbstractRemotePluginSpi" style="stroke:#3498DB;stroke-width:2.5;stroke-dasharray:7.0,7.0;"/><polygon fill="#3498DB" points="1531.8475,1011.4288,1539.2105,987.9333,1530.4189,999.0107,1519.3415,990.2191,1531.8475,1011.4288" style="stroke:#3498DB;stroke-width:2.5;"/><polygon fill="#000000" points="1536.4257,927.0766,1541.146,903.7735,1526.5472,905.4495,1536.4257,927.0766" style="stroke:#000000;stroke-width:2.5;"/><text fill="#000000" font-family="sans-serif" font-size="32.5" lengthAdjust="spacing" textLength="100" x="1557.5" y="927.9565">provide</text><!--MD5=[703fd44b470e434ace33754d5a67f1d5]
reverse link RemotePluginApi to RemotePluginSpi--><path codeLine="118" d="M809.285,1477.9688 C860.67,1477.9688 916.165,1477.9688 972.8225,1477.9688 " fill="none" id="RemotePluginApi-backto-RemotePluginSpi" style="stroke:#27AE60;stroke-width:2.5;stroke-dasharray:7.0,7.0;"/><polygon fill="#27AE60" points="796.3125,1477.9688,818.8125,1487.9688,808.8125,1477.9688,818.8125,1467.9688,796.3125,1477.9688" style="stroke:#27AE60;stroke-width:2.5;"/><polygon fill="#000000" points="840,1448.4082,862.6127,1455.7555,862.6127,1441.0609,840,1448.4082" style="stroke:#000000;stroke-width:2.5;"/><text fill="#000000" font-family="sans-serif" font-size="32.5" lengthAdjust="spacing" textLength="52.5" x="875" y="1461.7065">use</text><!--MD5=[f33d040dcb77d1f7644b5e19c2b3e36f]
link RemotePluginSpi to RemoteReaderSpi--><path codeLine="119" d="M1576.2,1602.0313 C1605.5275,1685.6238 1656.3375,1792.7038 1737.5,1856.7188 C1846.2575,1942.4988 1954.65,1822.6238 2040,1931.7188 C2146.23,2067.5038 2097.1725,2280.6437 2052.875,2407.2313 " fill="none" id="RemotePluginSpi-to-RemoteReaderSpi" style="stroke:#3498DB;stroke-width:2.5;stroke-dasharray:7.0,7.0;"/><polygon fill="#3498DB" points="2048.6075,2419.2063,2065.5805,2401.369,2052.8038,2407.4317,2046.7411,2394.6549,2048.6075,2419.2063" style="stroke:#3498DB;stroke-width:2.5;"/><polygon fill="#000000" points="2121.3678,2089.1647,2116.1708,2065.9632,2103.5259,2073.4489,2121.3678,2089.1647" style="stroke:#000000;stroke-width:2.5;"/><text fill="#000000" font-family="sans-serif" font-size="32.5" lengthAdjust="spacing" textLength="90" x="2137.5" y="2091.7065">create</text><!--MD5=[15439507e4bbda8d3e271ccdca6cb41b]
link RemotePluginSpi to ObservableRemoteReaderSpi--><path codeLine="120" d="M1328.4625,1601.9238 C1213.9625,1679.8438 1083.7225,1792.4888 1020,1931.7188 C885.575,2225.4313 1150.3075,2574.7963 1314.0225,2751.7337 " fill="none" id="RemotePluginSpi-to-ObservableRemoteReaderSpi" style="stroke:#3498DB;stroke-width:2.5;stroke-dasharray:7.0,7.0;"/><polygon fill="#3498DB" points="1322.71,2761.0663,1314.6985,2737.7839,1314.1929,2751.917,1300.0598,2751.4114,1322.71,2761.0663" style="stroke:#3498DB;stroke-width:2.5;"/><polygon fill="#000000" points="1047.343,2334.6572,1054.9737,2312.1386,1040.2803,2311.954,1047.343,2334.6572" style="stroke:#000000;stroke-width:2.5;"/><text fill="#000000" font-family="sans-serif" font-size="32.5" lengthAdjust="spacing" textLength="90" x="1070" y="2335.4565">create</text><!--MD5=[39109629a857a6402bd1be6c8a1be968]
reverse link ObservableRemotePluginApi to ObservableRemotePluginSpi--><path codeLine="122" d="M897.6325,2077.9688 C952.3975,2077.9688 1008.8175,2077.9688 1064.355,2077.9688 " fill="none" id="ObservableRemotePluginApi-backto-ObservableRemotePluginSpi" style="stroke:#27AE60;stroke-width:2.5;stroke-dasharray:7.0,7.0;"/><polygon fill="#27AE60" points="884.495,2077.9688,906.995,2087.9688,896.995,2077.9688,906.995,2067.9688,884.495,2077.9688" style="stroke:#27AE60;stroke-width:2.5;"/><polygon fill="#000000" points="929.375,2048.4082,951.9877,2055.7555,951.9877,2041.0609,929.375,2048.4082" style="stroke:#000000;stroke-width:2.5;"/><text fill="#000000" font-family="sans-serif" font-size="32.5" lengthAdjust="spacing" textLength="52.5" x="964.375" y="2061.7065">use</text><!--MD5=[7e3d6c65df78d20144a72b0b4e87ccd9]
link RemotePoolPluginSpi to RemoteReaderSpi--><path codeLine="124" d="M2270.7475,1857.1938 C2289.83,1879.4113 2307.0675,1904.7062 2317.5,1931.7188 C2364.33,2052.9913 2368.4725,2104.6288 2317.5,2224.2188 C2285.8075,2298.5788 2224.1025,2362.3488 2164.2325,2410.8013 " fill="none" id="RemotePoolPluginSpi-to-RemoteReaderSpi" style="stroke:#3498DB;stroke-width:2.5;stroke-dasharray:7.0,7.0;"/><polygon fill="#3498DB" points="2153.8675,2419.0562,2177.697,2412.8593,2163.6447,2411.268,2165.2359,2397.2157,2153.8675,2419.0562" style="stroke:#3498DB;stroke-width:2.5;"/><polygon fill="#000000" points="2362.6383,2090.6831,2374.1256,2069.8658,2359.6957,2067.0895,2362.6383,2090.6831" style="stroke:#000000;stroke-width:2.5;"/><text fill="#000000" font-family="sans-serif" font-size="32.5" lengthAdjust="spacing" textLength="90" x="2387.5" y="2091.7065">create</text><!--MD5=[f350a7874de73141285b15884b8d9b3a]
link ObservableRemotePluginSpi to RemoteReaderSpi--><!--MD5=[1c582d544691a204ae12e03068b75001]
@startuml
title
    Keyple 2.0 - keyple-distributed-remote-java-api - 2.0 (24/06/2021)
end title

' == THEME ==

'Couleurs issues de : https://htmlcolorcodes.com/fr/tableau-de-couleur/tableau-de-couleur-design-plat/
!define C_GREY1 F8F9F9
!define C_GREY2 F2F3F4
!define C_GREY3 E5E7E9
!define C_GREY4 D7DBDD
!define C_GREY5 CACFD2
!define C_GREY6 BDC3C7
!define C_LINK 3498DB
!define C_USE 27AE60

skinparam Shadowing false
skinparam ClassFontStyle italic
skinparam ClassBorderColor #D4AC0D
skinparam stereotypeABorderColor #A9DCDF
skinparam stereotypeIBorderColor #B4A7E5
skinparam stereotypeCBorderColor #ADD1B2
skinparam stereotypeEBorderColor #EB93DF
' Red
skinparam ClassBackgroundColor<<red>> #FDEDEC
skinparam ClassBorderColor<<red>> #E74C3C
hide <<red>> stereotype
' Purple
skinparam ClassBackgroundColor<<purple>> #F4ECF7
skinparam ClassBorderColor<<purple>> #8E44AD
hide <<purple>> stereotype
' blue
skinparam ClassBackgroundColor<<blue>> #EBF5FB
skinparam ClassBorderColor<<blue>> #3498DB
hide <<blue>> stereotype
' Green
skinparam ClassBackgroundColor<<green>> #E9F7EF
skinparam ClassBorderColor<<green>> #27AE60
hide <<green>> stereotype
' Grey
skinparam ClassBackgroundColor<<grey>> #EAECEE
skinparam ClassBorderColor<<grey>> #2C3E50
hide <<grey>> stereotype

' == CONTENT ==

legend top
    __Colors legend__ :
    * __Keyple Distributed Solution Configuration modes__ :
    ** <back:lightGreen>**Reader Client Side**</back> (Remote Plugin on **Server**)
    ** <back:plum>**Reader Server Side**</back> (Remote Plugin on **Client** with **Plugin** or **ObservablePlugin**)
    ** <back:lightBlue>**Reader Server Side**</back> (Remote Plugin on **Client** with **PoolPlugin**)
end legend

package "org.eclipse.keyple.core.distributed.remote" as api {
    +class "**final** DistributedRemoteApiProperties" as ApiProperties {
        +{static} **final** String VERSION
    }
    +interface RemotePluginApi {
        .. <back:plum>**Reader Server Side**</back> ..
        +void onReaderEvent (String jsonData)
    }
    +interface ObservableRemotePluginApi {
        .. <back:lightGreen>**Reader Client Side**</back> ..
        +void addRemoteReader (RemoteReaderSpi remoteReaderSpi)
        +void removeRemoteReader (Sting remoteReaderName)
        .. <back:plum>**Reader Server Side**</back> ..
        +void onPluginEvent (String jsonData)
    }
    package spi {
        ' Factories
        +interface RemotePluginFactorySpi {
            +String getDistributedRemoteApiVersion ()
            +String getCommonApiVersion ()
            +String getRemotePluginName ()
            +AbstractRemotePluginSpi getRemotePlugin ()
        }
        ' Plugins
        +interface AbstractRemotePluginSpi {
            +String getName ()
            +String executeRemotely (String jsonData)
        }
        +interface RemotePluginSpi extends AbstractRemotePluginSpi {
            .. <back:plum>**Reader Server Side**</back> ..
            +void connect (RemotePluginApi remotePluginApi)
            +RemoteReaderSpi createRemoteReader (String localReaderName)
            +ObservableRemoteReaderSpi createObservableRemoteReader (String localReaderName)
        }
        +interface ObservableRemotePluginSpi extends RemotePluginSpi {
            .. <back:lightGreen>**Reader Client Side**</back> & <back:plum>**Reader Server Side**</back> ..
            +void connect (ObservableRemotePluginApi observableRemotePluginApi)
            .. <back:plum>**Reader Server Side**</back> ..
            +void onStartObservation ()
            +void onStopObservation ()
        }
        +interface RemotePoolPluginSpi extends AbstractRemotePluginSpi {
            .. <back:lightBlue>**Pool Reader Server Side**</back> ..
            +RemoteReaderSpi createRemoteReader (String localReaderName)
        }
        ' Readers
        +interface RemoteReaderSpi {
            +String getName ()
            +String executeRemotely (String jsonData)
        }
        +interface ObservableRemoteReaderSpi extends RemoteReaderSpi {
            .. <back:plum>**Reader Server Side**</back> ..
            +void onStartObservation ()
            +void onStopObservation ()
        }
    }
}

' Associations

RemotePluginFactorySpi .left.> ApiProperties #C_LINK : provide\nAPI version <
RemotePluginFactorySpi ..> AbstractRemotePluginSpi #C_LINK : provide >

RemotePluginSpi .left.> RemotePluginApi #C_USE : use >
RemotePluginSpi ..> RemoteReaderSpi #C_LINK : create >
RemotePluginSpi ..> ObservableRemoteReaderSpi #C_LINK : create >

ObservableRemotePluginSpi .left.> ObservableRemotePluginApi #C_USE : use >

RemotePoolPluginSpi ..> RemoteReaderSpi #C_LINK : create >

' == LAYOUT ==

ObservableRemotePluginSpi -[hidden]- RemoteReaderSpi

' == STYLE ==

package api #C_GREY1 {}
package spi #C_GREY2 {}

@enduml

@startuml
title
    Keyple 2.0 - keyple-distributed-remote-java-api - 2.0 (24/06/2021)
end title



skinparam Shadowing false
skinparam ClassFontStyle italic
skinparam ClassBorderColor #D4AC0D
skinparam stereotypeABorderColor #A9DCDF
skinparam stereotypeIBorderColor #B4A7E5
skinparam stereotypeCBorderColor #ADD1B2
skinparam stereotypeEBorderColor #EB93DF
skinparam ClassBackgroundColor<<red>> #FDEDEC
skinparam ClassBorderColor<<red>> #E74C3C
hide <<red>> stereotype
skinparam ClassBackgroundColor<<purple>> #F4ECF7
skinparam ClassBorderColor<<purple>> #8E44AD
hide <<purple>> stereotype
skinparam ClassBackgroundColor<<blue>> #EBF5FB
skinparam ClassBorderColor<<blue>> #3498DB
hide <<blue>> stereotype
skinparam ClassBackgroundColor<<green>> #E9F7EF
skinparam ClassBorderColor<<green>> #27AE60
hide <<green>> stereotype
skinparam ClassBackgroundColor<<grey>> #EAECEE
skinparam ClassBorderColor<<grey>> #2C3E50
hide <<grey>> stereotype


legend top
    __Colors legend__ :
    * __Keyple Distributed Solution Configuration modes__ :
    ** <back:lightGreen>**Reader Client Side**</back> (Remote Plugin on **Server**)
    ** <back:plum>**Reader Server Side**</back> (Remote Plugin on **Client** with **Plugin** or **ObservablePlugin**)
    ** <back:lightBlue>**Reader Server Side**</back> (Remote Plugin on **Client** with **PoolPlugin**)
end legend

package "org.eclipse.keyple.core.distributed.remote" as api {
    +class "**final** DistributedRemoteApiProperties" as ApiProperties {
        +{static} **final** String VERSION
    }
    +interface RemotePluginApi {
        .. <back:plum>**Reader Server Side**</back> ..
        +void onReaderEvent (String jsonData)
    }
    +interface ObservableRemotePluginApi {
        .. <back:lightGreen>**Reader Client Side**</back> ..
        +void addRemoteReader (RemoteReaderSpi remoteReaderSpi)
        +void removeRemoteReader (Sting remoteReaderName)
        .. <back:plum>**Reader Server Side**</back> ..
        +void onPluginEvent (String jsonData)
    }
    package spi {
        +interface RemotePluginFactorySpi {
            +String getDistributedRemoteApiVersion ()
            +String getCommonApiVersion ()
            +String getRemotePluginName ()
            +AbstractRemotePluginSpi getRemotePlugin ()
        }
        +interface AbstractRemotePluginSpi {
            +String getName ()
            +String executeRemotely (String jsonData)
        }
        +interface RemotePluginSpi extends AbstractRemotePluginSpi {
            .. <back:plum>**Reader Server Side**</back> ..
            +void connect (RemotePluginApi remotePluginApi)
            +RemoteReaderSpi createRemoteReader (String localReaderName)
            +ObservableRemoteReaderSpi createObservableRemoteReader (String localReaderName)
        }
        +interface ObservableRemotePluginSpi extends RemotePluginSpi {
            .. <back:lightGreen>**Reader Client Side**</back> & <back:plum>**Reader Server Side**</back> ..
            +void connect (ObservableRemotePluginApi observableRemotePluginApi)
            .. <back:plum>**Reader Server Side**</back> ..
            +void onStartObservation ()
            +void onStopObservation ()
        }
        +interface RemotePoolPluginSpi extends AbstractRemotePluginSpi {
            .. <back:lightBlue>**Pool Reader Server Side**</back> ..
            +RemoteReaderSpi createRemoteReader (String localReaderName)
        }
        +interface RemoteReaderSpi {
            +String getName ()
            +String executeRemotely (String jsonData)
        }
        +interface ObservableRemoteReaderSpi extends RemoteReaderSpi {
            .. <back:plum>**Reader Server Side**</back> ..
            +void onStartObservation ()
            +void onStopObservation ()
        }
    }
}


RemotePluginFactorySpi .left.> ApiProperties #3498DB : provide\nAPI version <
RemotePluginFactorySpi ..> AbstractRemotePluginSpi #3498DB : provide >

RemotePluginSpi .left.> RemotePluginApi #27AE60 : use >
RemotePluginSpi ..> RemoteReaderSpi #3498DB : create >
RemotePluginSpi ..> ObservableRemoteReaderSpi #3498DB : create >

ObservableRemotePluginSpi .left.> ObservableRemotePluginApi #27AE60 : use >

RemotePoolPluginSpi ..> RemoteReaderSpi #3498DB : create >


ObservableRemotePluginSpi -[hidden]- RemoteReaderSpi


package api #F8F9F9 {}
package spi #F2F3F4 {}

@enduml

PlantUML version 1.2021.7(Sun May 23 14:40:07 CEST 2021)
(GPL source distribution)
Java Runtime: OpenJDK Runtime Environment
JVM: Dynamic Code Evolution 64-Bit Server VM
Default Encoding: Cp1252
Language: fr
Country: FR
--></g></svg>