<?xml version="1.0" encoding="UTF-8" standalone="no"?><svg xmlns="http://www.w3.org/2000/svg" xmlns:xlink="http://www.w3.org/1999/xlink" contentScriptType="application/ecmascript" contentStyleType="text/css" height="1017.5px" preserveAspectRatio="none" style="width:2002px;height:1017px;background:#FFFFFF;" version="1.1" viewBox="0 0 2002 1017" width="2002.5px" zoomAndPan="magnify"><defs/><g><text fill="#000000" font-family="sans-serif" font-size="45" lengthAdjust="spacing" textLength="1107.5" x="431.25" y="46.7139">Keyple 2.0 - keyple-common-java-api - 2.0 (10/06/2021)</text><!--MD5=[7442f3b126ee602ae02566c1a49e158a]
cluster api--><polygon fill="#F8F9F9" points="40,71.6016,625,71.6016,642.5,130.625,1960,130.625,1960,1001.6016,40,1001.6016,40,71.6016" style="stroke:#000000;stroke-width:3.75;"/><line style="stroke:#000000;stroke-width:3.75;" x1="40" x2="642.5" y1="130.625" y2="130.625"/><text fill="#000000" font-family="sans-serif" font-size="35" font-weight="bold" lengthAdjust="spacing" textLength="570" x="50" y="112.9346">org.eclipse.keyple.core.common</text><!--MD5=[120218adfd8782b0057db0a1b8294250]
class ApiProperties--><rect codeLine="48" fill="#FEFECE" height="154.5898" id="ApiProperties" style="stroke:#D4AC0D;stroke-width:3.75;" width="505" x="80" y="161.6016"/><ellipse cx="117.5" cy="201.6016" fill="#ADD1B2" rx="27.5" ry="27.5" style="stroke:#ADD1B2;stroke-width:2.5;"/><path d="M122.5,192.8516 Q123.0078,191.6016 123.5938,190.9766 Q124.1797,190.3516 124.8438,190.3516 Q126.0156,190.3516 126.7578,191.0547 Q127.5,191.7578 127.5,193.3984 L127.5,197.3047 Q127.5,198.9453 126.7969,199.6484 Q126.0938,200.3516 125,200.3516 Q124.0234,200.3516 123.3984,199.9219 Q122.7734,199.4922 122.5,198.3594 Q122.3828,197.5781 121.9531,197.1484 Q121.1719,196.3281 119.7656,195.8594 Q118.3594,195.3516 116.9531,195.3516 Q115.1953,195.3516 113.7109,196.0547 Q112.2656,196.7578 111.1328,198.3203 Q110,199.8828 110,202.0313 L110,204.3359 Q110,206.9141 112.1094,208.6328 Q114.2188,210.3516 117.9688,210.3516 Q120.1953,210.3516 121.7578,209.8438 Q122.6563,209.5703 123.6719,208.6719 Q124.3359,208.1641 124.6875,208.0078 Q125.0391,207.8516 125.4688,207.8516 Q126.2891,207.8516 126.875,208.5156 Q127.5,209.1406 127.5,210.0391 Q127.5,210.8984 126.6406,211.9141 Q125.3906,213.3984 123.3984,214.2188 Q120.7813,215.3516 117.5781,215.3516 Q113.8281,215.3516 110.8203,213.8672 Q108.3984,212.6953 106.6797,210.1563 Q105,207.6172 105,204.6094 L105,201.875 Q105,198.75 106.4844,196.0156 Q108.0078,193.2813 110.625,191.8359 Q113.2813,190.3516 116.25,190.3516 Q118.0469,190.3516 119.6094,190.9766 Q121.1719,191.6016 122.5,192.8516 Z " fill="#000000"/><ellipse cx="165" cy="200.3516" fill="#84BE84" rx="7.5" ry="7.5" style="stroke:#038048;stroke-width:2.5;"/><text fill="#000000" font-family="sans-serif" font-size="30" font-style="italic" font-weight="bold" lengthAdjust="spacing" textLength="60" x="180" y="213.877">final</text><text fill="#000000" font-family="sans-serif" font-size="30" font-style="italic" lengthAdjust="spacing" textLength="330" x="247.5" y="213.877">CommonsApiProperties</text><line style="stroke:#D4AC0D;stroke-width:3.75;" x1="82.5" x2="582.5" y1="241.6016" y2="241.6016"/><ellipse cx="107.5" cy="269.1016" rx="7.5" ry="7.5" style="stroke:#038048;stroke-width:2.5;fill:none;"/><text fill="#000000" font-family="sans-serif" font-size="27.5" font-weight="bold" lengthAdjust="spacing" text-decoration="underline" textLength="57.5" x="130" y="280.1489">final</text><text fill="#000000" font-family="sans-serif" font-size="27.5" lengthAdjust="spacing" text-decoration="underline" textLength="190" x="195" y="280.1489">String VERSION</text><line style="stroke:#D4AC0D;stroke-width:3.75;" x1="82.5" x2="582.5" y1="296.1914" y2="296.1914"/><!--MD5=[c9fcbc22b46e6fe8dd529abbe4ed4a83]
class KeyplePluginExtensionFactory--><rect codeLine="51" fill="#FEFECE" height="120" id="KeyplePluginExtensionFactory" style="stroke:#D4AC0D;stroke-width:3.75;" width="525" x="672.5" y="179.1016"/><ellipse cx="710" cy="219.1016" fill="#B4A7E5" rx="27.5" ry="27.5" style="stroke:#B4A7E5;stroke-width:2.5;"/><path d="M712.5,211.6016 L712.5,226.6016 L717.5,226.6016 L718.7109,226.6016 L720,228.1641 L720,229.1016 L720,230.0391 L718.7109,231.6016 L717.5,231.6016 L702.5,231.6016 L701.2891,231.6016 L700,230.0391 L700,229.1016 L700,228.1641 L701.2891,226.6016 L702.5,226.6016 L707.5,226.6016 L707.5,211.6016 L702.5,211.6016 L701.2891,211.6016 L700,210.0391 L700,209.1016 L700,208.1641 L701.2891,206.6016 L702.5,206.6016 L717.5,206.6016 L718.7109,206.6016 L720,208.1641 L720,209.1016 L720,210.0391 L718.7109,211.6016 L717.5,211.6016 L712.5,211.6016 Z " fill="#000000"/><ellipse cx="757.5" cy="217.8516" fill="#84BE84" rx="7.5" ry="7.5" style="stroke:#038048;stroke-width:2.5;"/><text fill="#000000" font-family="sans-serif" font-size="30" font-style="italic" lengthAdjust="spacing" textLength="417.5" x="772.5" y="231.377">KeyplePluginExtensionFactory</text><line style="stroke:#D4AC0D;stroke-width:3.75;" x1="675" x2="1195" y1="259.1016" y2="259.1016"/><line style="stroke:#D4AC0D;stroke-width:3.75;" x1="675" x2="1195" y1="279.1016" y2="279.1016"/><!--MD5=[afffbc881b1d922900a05d5f1575661b]
class KeyplePluginExtension--><rect codeLine="53" fill="#FEFECE" height="120" id="KeyplePluginExtension" style="stroke:#D4AC0D;stroke-width:3.75;" width="425" x="1285" y="179.1016"/><ellipse cx="1322.5" cy="219.1016" fill="#B4A7E5" rx="27.5" ry="27.5" style="stroke:#B4A7E5;stroke-width:2.5;"/><path d="M1325,211.6016 L1325,226.6016 L1330,226.6016 L1331.2109,226.6016 L1332.5,228.1641 L1332.5,229.1016 L1332.5,230.0391 L1331.2109,231.6016 L1330,231.6016 L1315,231.6016 L1313.7891,231.6016 L1312.5,230.0391 L1312.5,229.1016 L1312.5,228.1641 L1313.7891,226.6016 L1315,226.6016 L1320,226.6016 L1320,211.6016 L1315,211.6016 L1313.7891,211.6016 L1312.5,210.0391 L1312.5,209.1016 L1312.5,208.1641 L1313.7891,206.6016 L1315,206.6016 L1330,206.6016 L1331.2109,206.6016 L1332.5,208.1641 L1332.5,209.1016 L1332.5,210.0391 L1331.2109,211.6016 L1330,211.6016 L1325,211.6016 Z " fill="#000000"/><ellipse cx="1370" cy="217.8516" fill="#84BE84" rx="7.5" ry="7.5" style="stroke:#038048;stroke-width:2.5;"/><text fill="#000000" font-family="sans-serif" font-size="30" font-style="italic" lengthAdjust="spacing" textLength="317.5" x="1385" y="231.377">KeyplePluginExtension</text><line style="stroke:#D4AC0D;stroke-width:3.75;" x1="1287.5" x2="1707.5" y1="259.1016" y2="259.1016"/><line style="stroke:#D4AC0D;stroke-width:3.75;" x1="1287.5" x2="1707.5" y1="279.1016" y2="279.1016"/><!--MD5=[d0367e54e30269e1f6406d1a6d3c359c]
class KeypleReaderExtension--><rect codeLine="55" fill="#FEFECE" height="120" id="KeypleReaderExtension" style="stroke:#D4AC0D;stroke-width:3.75;" width="440" x="80" y="519.1016"/><ellipse cx="117.5" cy="559.1016" fill="#B4A7E5" rx="27.5" ry="27.5" style="stroke:#B4A7E5;stroke-width:2.5;"/><path d="M120,551.6016 L120,566.6016 L125,566.6016 L126.2109,566.6016 L127.5,568.1641 L127.5,569.1016 L127.5,570.0391 L126.2109,571.6016 L125,571.6016 L110,571.6016 L108.7891,571.6016 L107.5,570.0391 L107.5,569.1016 L107.5,568.1641 L108.7891,566.6016 L110,566.6016 L115,566.6016 L115,551.6016 L110,551.6016 L108.7891,551.6016 L107.5,550.0391 L107.5,549.1016 L107.5,548.1641 L108.7891,546.6016 L110,546.6016 L125,546.6016 L126.2109,546.6016 L127.5,548.1641 L127.5,549.1016 L127.5,550.0391 L126.2109,551.6016 L125,551.6016 L120,551.6016 Z " fill="#000000"/><ellipse cx="165" cy="557.8516" fill="#84BE84" rx="7.5" ry="7.5" style="stroke:#038048;stroke-width:2.5;"/><text fill="#000000" font-family="sans-serif" font-size="30" font-style="italic" lengthAdjust="spacing" textLength="332.5" x="180" y="571.377">KeypleReaderExtension</text><line style="stroke:#D4AC0D;stroke-width:3.75;" x1="82.5" x2="517.5" y1="599.1016" y2="599.1016"/><line style="stroke:#D4AC0D;stroke-width:3.75;" x1="82.5" x2="517.5" y1="619.1016" y2="619.1016"/><!--MD5=[93835d7ffcf6a3787bfc7eb02bc099b1]
class KeypleCardExtension--><rect codeLine="57" fill="#FEFECE" height="223.7695" id="KeypleCardExtension" style="stroke:#D4AC0D;stroke-width:3.75;" width="460" x="607.5" y="466.6016"/><ellipse cx="669.75" cy="506.6016" fill="#B4A7E5" rx="27.5" ry="27.5" style="stroke:#B4A7E5;stroke-width:2.5;"/><path d="M672.25,499.1016 L672.25,514.1016 L677.25,514.1016 L678.4609,514.1016 L679.75,515.6641 L679.75,516.6016 L679.75,517.5391 L678.4609,519.1016 L677.25,519.1016 L662.25,519.1016 L661.0391,519.1016 L659.75,517.5391 L659.75,516.6016 L659.75,515.6641 L661.0391,514.1016 L662.25,514.1016 L667.25,514.1016 L667.25,499.1016 L662.25,499.1016 L661.0391,499.1016 L659.75,497.5391 L659.75,496.6016 L659.75,495.6641 L661.0391,494.1016 L662.25,494.1016 L677.25,494.1016 L678.4609,494.1016 L679.75,495.6641 L679.75,496.6016 L679.75,497.5391 L678.4609,499.1016 L677.25,499.1016 L672.25,499.1016 Z " fill="#000000"/><ellipse cx="722.75" cy="505.3516" fill="#84BE84" rx="7.5" ry="7.5" style="stroke:#038048;stroke-width:2.5;"/><text fill="#000000" font-family="sans-serif" font-size="30" font-style="italic" lengthAdjust="spacing" textLength="297.5" x="737.75" y="518.877">KeypleCardExtension</text><line style="stroke:#D4AC0D;stroke-width:3.75;" x1="610" x2="1065" y1="546.6016" y2="546.6016"/><line style="stroke:#D4AC0D;stroke-width:3.75;" x1="610" x2="1065" y1="566.6016" y2="566.6016"/><ellipse cx="635" cy="594.1016" fill="#84BE84" rx="7.5" ry="7.5" style="stroke:#038048;stroke-width:2.5;"/><text fill="#000000" font-family="sans-serif" font-size="27.5" lengthAdjust="spacing" textLength="365" x="657.5" y="605.1489">String getReaderApiVersion ()</text><ellipse cx="635" cy="628.6914" fill="#84BE84" rx="7.5" ry="7.5" style="stroke:#038048;stroke-width:2.5;"/><text fill="#000000" font-family="sans-serif" font-size="27.5" lengthAdjust="spacing" textLength="335" x="657.5" y="639.7388">String getCardApiVersion ()</text><ellipse cx="635" cy="663.2813" fill="#84BE84" rx="7.5" ry="7.5" style="stroke:#038048;stroke-width:2.5;"/><text fill="#000000" font-family="sans-serif" font-size="27.5" lengthAdjust="spacing" textLength="395" x="657.5" y="674.3286">String getCommonsApiVersion ()</text><!--MD5=[a2300e51c70a09b3b8c0440329c7d6d3]
class KeypleDistributedLocalServiceExtensionFactory--><rect codeLine="62" fill="#FEFECE" height="120" id="KeypleDistributedLocalServiceExtensionFactory" style="stroke:#D4AC0D;stroke-width:3.75;" width="765" x="1155" y="519.1016"/><ellipse cx="1192.5" cy="559.1016" fill="#B4A7E5" rx="27.5" ry="27.5" style="stroke:#B4A7E5;stroke-width:2.5;"/><path d="M1195,551.6016 L1195,566.6016 L1200,566.6016 L1201.2109,566.6016 L1202.5,568.1641 L1202.5,569.1016 L1202.5,570.0391 L1201.2109,571.6016 L1200,571.6016 L1185,571.6016 L1183.7891,571.6016 L1182.5,570.0391 L1182.5,569.1016 L1182.5,568.1641 L1183.7891,566.6016 L1185,566.6016 L1190,566.6016 L1190,551.6016 L1185,551.6016 L1183.7891,551.6016 L1182.5,550.0391 L1182.5,549.1016 L1182.5,548.1641 L1183.7891,546.6016 L1185,546.6016 L1200,546.6016 L1201.2109,546.6016 L1202.5,548.1641 L1202.5,549.1016 L1202.5,550.0391 L1201.2109,551.6016 L1200,551.6016 L1195,551.6016 Z " fill="#000000"/><ellipse cx="1240" cy="557.8516" fill="#84BE84" rx="7.5" ry="7.5" style="stroke:#038048;stroke-width:2.5;"/><text fill="#000000" font-family="sans-serif" font-size="30" font-style="italic" lengthAdjust="spacing" textLength="657.5" x="1255" y="571.377">KeypleDistributedLocalServiceExtensionFactory</text><line style="stroke:#D4AC0D;stroke-width:3.75;" x1="1157.5" x2="1917.5" y1="599.1016" y2="599.1016"/><line style="stroke:#D4AC0D;stroke-width:3.75;" x1="1157.5" x2="1917.5" y1="619.1016" y2="619.1016"/><!--MD5=[2756593ddab659782225b53cebc4a27a]
class KeypleDistributedLocalServiceExtension--><rect codeLine="64" fill="#FEFECE" height="120" id="KeypleDistributedLocalServiceExtension" style="stroke:#D4AC0D;stroke-width:3.75;" width="665" x="80" y="841.6016"/><ellipse cx="117.5" cy="881.6016" fill="#B4A7E5" rx="27.5" ry="27.5" style="stroke:#B4A7E5;stroke-width:2.5;"/><path d="M120,874.1016 L120,889.1016 L125,889.1016 L126.2109,889.1016 L127.5,890.6641 L127.5,891.6016 L127.5,892.5391 L126.2109,894.1016 L125,894.1016 L110,894.1016 L108.7891,894.1016 L107.5,892.5391 L107.5,891.6016 L107.5,890.6641 L108.7891,889.1016 L110,889.1016 L115,889.1016 L115,874.1016 L110,874.1016 L108.7891,874.1016 L107.5,872.5391 L107.5,871.6016 L107.5,870.6641 L108.7891,869.1016 L110,869.1016 L125,869.1016 L126.2109,869.1016 L127.5,870.6641 L127.5,871.6016 L127.5,872.5391 L126.2109,874.1016 L125,874.1016 L120,874.1016 Z " fill="#000000"/><ellipse cx="165" cy="880.3516" fill="#84BE84" rx="7.5" ry="7.5" style="stroke:#038048;stroke-width:2.5;"/><text fill="#000000" font-family="sans-serif" font-size="30" font-style="italic" lengthAdjust="spacing" textLength="557.5" x="180" y="893.877">KeypleDistributedLocalServiceExtension</text><line style="stroke:#D4AC0D;stroke-width:3.75;" x1="82.5" x2="742.5" y1="921.6016" y2="921.6016"/><line style="stroke:#D4AC0D;stroke-width:3.75;" x1="82.5" x2="742.5" y1="941.6016" y2="941.6016"/><!--MD5=[7470d7897158c1b951e7c67040d041a6]
link ApiProperties to KeyplePluginExtensionFactory--><!--MD5=[bbc919d66c64d103395bd9c3f156b21e]
link KeyplePluginExtensionFactory to KeyplePluginExtension--><!--MD5=[8fd1a8164df153263e0cdb183a6ec419]
link ApiProperties to KeypleReaderExtension--><!--MD5=[ecd13b56b74abd13e5f08d0d768f6924]
link KeypleReaderExtension to KeypleCardExtension--><!--MD5=[dea0abf20274309f2e9a6c2db29ef759]
link KeypleCardExtension to KeypleDistributedLocalServiceExtensionFactory--><!--MD5=[2f5a0a48f8294c4bfce9edd0f4ef2c33]
link KeypleReaderExtension to KeypleDistributedLocalServiceExtension--><!--MD5=[dc385bce663d268435d9a849dd74fc77]
@startuml
title
    Keyple 2.0 - keyple-common-java-api - 2.0 (10/06/2021)
end title

' == THEME ==

'Couleurs issues de : https://htmlcolorcodes.com/fr/tableau-de-couleur/tableau-de-couleur-design-plat/
!define C_GREY1 F8F9F9
!define C_GREY2 F2F3F4
!define C_GREY3 E5E7E9
!define C_GREY4 D7DBDD
!define C_GREY5 CACFD2
!define C_GREY6 BDC3C7
!define C_LINK 3498DB
!define C_USE 27AE60

skinparam Shadowing false
skinparam ClassFontStyle italic
skinparam ClassBorderColor #D4AC0D
skinparam stereotypeABorderColor #A9DCDF
skinparam stereotypeIBorderColor #B4A7E5
skinparam stereotypeCBorderColor #ADD1B2
skinparam stereotypeEBorderColor #EB93DF
' Red
skinparam ClassBackgroundColor<<red>> #FDEDEC
skinparam ClassBorderColor<<red>> #E74C3C
hide <<red>> stereotype
' Purple
skinparam ClassBackgroundColor<<purple>> #F4ECF7
skinparam ClassBorderColor<<purple>> #8E44AD
hide <<purple>> stereotype
' blue
skinparam ClassBackgroundColor<<blue>> #EBF5FB
skinparam ClassBorderColor<<blue>> #3498DB
hide <<blue>> stereotype
' Green
skinparam ClassBackgroundColor<<green>> #E9F7EF
skinparam ClassBorderColor<<green>> #27AE60
hide <<green>> stereotype
' Grey
skinparam ClassBackgroundColor<<grey>> #EAECEE
skinparam ClassBorderColor<<grey>> #2C3E50
hide <<grey>> stereotype

' == CONTENT ==

package "org.eclipse.keyple.core.common" as api {
    +class "**final** CommonsApiProperties" as ApiProperties {
        +{static} **final** String VERSION
    }
    +interface KeyplePluginExtensionFactory {
    }
    +interface KeyplePluginExtension {
    }
    +interface KeypleReaderExtension {
    }
    +interface KeypleCardExtension {
        +String getReaderApiVersion ()
        +String getCardApiVersion ()
        +String getCommonsApiVersion ()
    }
    +interface KeypleDistributedLocalServiceExtensionFactory {
    }
    +interface KeypleDistributedLocalServiceExtension {
    }
}

' Associations


' == LAYOUT ==


' == STYLE ==

package api #C_GREY1 {}

@enduml

@startuml
title
    Keyple 2.0 - keyple-common-java-api - 2.0 (10/06/2021)
end title



skinparam Shadowing false
skinparam ClassFontStyle italic
skinparam ClassBorderColor #D4AC0D
skinparam stereotypeABorderColor #A9DCDF
skinparam stereotypeIBorderColor #B4A7E5
skinparam stereotypeCBorderColor #ADD1B2
skinparam stereotypeEBorderColor #EB93DF
skinparam ClassBackgroundColor<<red>> #FDEDEC
skinparam ClassBorderColor<<red>> #E74C3C
hide <<red>> stereotype
skinparam ClassBackgroundColor<<purple>> #F4ECF7
skinparam ClassBorderColor<<purple>> #8E44AD
hide <<purple>> stereotype
skinparam ClassBackgroundColor<<blue>> #EBF5FB
skinparam ClassBorderColor<<blue>> #3498DB
hide <<blue>> stereotype
skinparam ClassBackgroundColor<<green>> #E9F7EF
skinparam ClassBorderColor<<green>> #27AE60
hide <<green>> stereotype
skinparam ClassBackgroundColor<<grey>> #EAECEE
skinparam ClassBorderColor<<grey>> #2C3E50
hide <<grey>> stereotype


package "org.eclipse.keyple.core.common" as api {
    +class "**final** CommonsApiProperties" as ApiProperties {
        +{static} **final** String VERSION
    }
    +interface KeyplePluginExtensionFactory {
    }
    +interface KeyplePluginExtension {
    }
    +interface KeypleReaderExtension {
    }
    +interface KeypleCardExtension {
        +String getReaderApiVersion ()
        +String getCardApiVersion ()
        +String getCommonsApiVersion ()
    }
    +interface KeypleDistributedLocalServiceExtensionFactory {
    }
    +interface KeypleDistributedLocalServiceExtension {
    }
}






package api #F8F9F9 {}

@enduml

PlantUML version 1.2021.7(Sun May 23 14:40:07 CEST 2021)
(GPL source distribution)
Java Runtime: OpenJDK Runtime Environment
JVM: Dynamic Code Evolution 64-Bit Server VM
Default Encoding: Cp1252
Language: fr
Country: FR
--></g></svg>