<?xml version="1.0" encoding="UTF-8" standalone="no"?><svg xmlns="http://www.w3.org/2000/svg" xmlns:xlink="http://www.w3.org/1999/xlink" contentScriptType="application/ecmascript" contentStyleType="text/css" height="1220px" preserveAspectRatio="none" style="width:10745px;height:1220px;background:#FFFFFF;" version="1.1" viewBox="0 0 10745 1220" width="10745px" zoomAndPan="magnify"><defs/><g><text fill="#000000" font-family="sans-serif" font-size="45" lengthAdjust="spacing" textLength="1642.5" x="4535" y="46.7139">Calypsonet - Exceptions of calypsonet-terminal-calypso-java-api - 1.0 (07/06/2021)</text><!--MD5=[7442f3b126ee602ae02566c1a49e158a]
cluster api--><polygon fill="#F8F9F9" points="40,71.6016,610,71.6016,627.5,130.625,10702.5,130.625,10702.5,1204.1016,40,1204.1016,40,71.6016" style="stroke:#000000;stroke-width:3.75;"/><line style="stroke:#000000;stroke-width:3.75;" x1="40" x2="627.5" y1="130.625" y2="130.625"/><text fill="#000000" font-family="sans-serif" font-size="35" font-weight="bold" lengthAdjust="spacing" textLength="555" x="50" y="112.9346">org.calypsonet.terminal.calypso</text><!--MD5=[f9c58d90839a0c7c212d8c6553ac9eb7]
cluster transaction--><polygon fill="#F2F3F4" points="100,181.6016,312.5,181.6016,330,240.625,10642.5,240.625,10642.5,1144.1016,100,1144.1016,100,181.6016" style="stroke:#000000;stroke-width:3.75;"/><line style="stroke:#000000;stroke-width:3.75;" x1="100" x2="330" y1="240.625" y2="240.625"/><text fill="#000000" font-family="sans-serif" font-size="35" font-weight="bold" lengthAdjust="spacing" textLength="197.5" x="110" y="222.9346">transaction</text><!--MD5=[cd058e0600d4b30f413e3224421a8762]
class CalypsoCardTransactionException--><rect codeLine="51" fill="#FEFECE" height="209.6484" id="CalypsoCardTransactionException" style="stroke:#D4AC0D;stroke-width:3.75;" width="922.5" x="5068.75" y="271.6016"/><ellipse cx="5268.125" cy="321.8359" fill="#A9DCDF" rx="27.5" ry="27.5" style="stroke:#A9DCDF;stroke-width:2.5;"/><path d="M5272.5,325.5859 L5264.2578,325.5859 L5263.1641,328.0859 L5263.1641,328.0859 L5264.3359,328.0859 L5265.625,329.6484 L5265.625,330.5859 L5265.625,331.5234 L5264.3359,333.0859 L5263.1641,333.0859 L5258.4375,333.0859 L5256.9141,333.0859 L5255.625,331.5234 L5255.625,330.5859 L5255.625,329.6484 L5256.9141,328.0859 L5258.4375,328.0859 L5264.2188,313.0859 L5262.0313,313.0859 L5259.4141,313.0859 L5258.125,311.5234 L5258.125,310.5859 L5258.125,309.6484 L5259.4141,308.0859 L5262.0313,308.0859 L5271.2109,308.0859 L5277.9297,328.0859 L5279.3359,328.0859 L5279.3359,328.0859 L5280.625,329.6484 L5280.625,330.5859 L5280.625,331.5234 L5279.3359,333.0859 L5277.9297,333.0859 L5273.2031,333.0859 L5271.9141,333.0859 L5270.625,331.5234 L5270.625,330.5859 L5270.625,329.6484 L5271.9141,328.0859 L5273.2031,328.0859 L5273.2031,328.0859 L5272.5,325.5859 Z M5271.1328,320.5859 L5268.125,311.6406 L5265.5469,320.5859 L5271.1328,320.5859 Z " fill="#000000"/><ellipse cx="5331.875" cy="320.5859" fill="#84BE84" rx="7.5" ry="7.5" style="stroke:#038048;stroke-width:2.5;"/><text fill="#000000" font-family="sans-serif" font-size="30" font-style="italic" lengthAdjust="spacing" textLength="322.5" x="5423.125" y="315.2441">&lt;&lt;RuntimeException&gt;&gt;</text><text fill="#000000" font-family="sans-serif" font-size="30" font-style="italic" lengthAdjust="spacing" textLength="475" x="5346.875" y="352.9785">CalypsoCardTransactionException</text><line style="stroke:#D4AC0D;stroke-width:3.75;" x1="5071.25" x2="5988.75" y1="372.0703" y2="372.0703"/><line style="stroke:#D4AC0D;stroke-width:3.75;" x1="5071.25" x2="5988.75" y1="392.0703" y2="392.0703"/><ellipse cx="5096.25" cy="419.5703" fill="#84BE84" rx="7.5" ry="7.5" style="stroke:#038048;stroke-width:2.5;"/><text fill="#000000" font-family="sans-serif" font-size="27.5" lengthAdjust="spacing" textLength="630" x="5118.75" y="430.6177">CalypsoCardTransactionException (String message)</text><ellipse cx="5096.25" cy="454.1602" fill="#84BE84" rx="7.5" ry="7.5" style="stroke:#038048;stroke-width:2.5;"/><text fill="#000000" font-family="sans-serif" font-size="27.5" lengthAdjust="spacing" textLength="857.5" x="5118.75" y="465.2075">CalypsoCardTransactionException (String message, Throwable cause)</text><!--MD5=[c18c388c9a66291fb7b13adaa728e673]
class CalypsoAtomicTransactionException--><rect codeLine="56" fill="#FEFECE" height="189.1797" id="CalypsoAtomicTransactionException" style="stroke:#D4AC0D;stroke-width:3.75;" width="610" x="140" y="665.3516"/><ellipse cx="177.5" cy="705.3516" fill="#ADD1B2" rx="27.5" ry="27.5" style="stroke:#ADD1B2;stroke-width:2.5;"/><path d="M182.5,696.6016 Q183.0078,695.3516 183.5938,694.7266 Q184.1797,694.1016 184.8438,694.1016 Q186.0156,694.1016 186.7578,694.8047 Q187.5,695.5078 187.5,697.1484 L187.5,701.0547 Q187.5,702.6953 186.7969,703.3984 Q186.0938,704.1016 185,704.1016 Q184.0234,704.1016 183.3984,703.6719 Q182.7734,703.2422 182.5,702.1094 Q182.3828,701.3281 181.9531,700.8984 Q181.1719,700.0781 179.7656,699.6094 Q178.3594,699.1016 176.9531,699.1016 Q175.1953,699.1016 173.7109,699.8047 Q172.2656,700.5078 171.1328,702.0703 Q170,703.6328 170,705.7813 L170,708.0859 Q170,710.6641 172.1094,712.3828 Q174.2188,714.1016 177.9688,714.1016 Q180.1953,714.1016 181.7578,713.5938 Q182.6563,713.3203 183.6719,712.4219 Q184.3359,711.9141 184.6875,711.7578 Q185.0391,711.6016 185.4688,711.6016 Q186.2891,711.6016 186.875,712.2656 Q187.5,712.8906 187.5,713.7891 Q187.5,714.6484 186.6406,715.6641 Q185.3906,717.1484 183.3984,717.9688 Q180.7813,719.1016 177.5781,719.1016 Q173.8281,719.1016 170.8203,717.6172 Q168.3984,716.4453 166.6797,713.9063 Q165,711.3672 165,708.3594 L165,705.625 Q165,702.5 166.4844,699.7656 Q168.0078,697.0313 170.625,695.5859 Q173.2813,694.1016 176.25,694.1016 Q178.0469,694.1016 179.6094,694.7266 Q181.1719,695.3516 182.5,696.6016 Z " fill="#000000"/><ellipse cx="225" cy="704.1016" fill="#84BE84" rx="7.5" ry="7.5" style="stroke:#038048;stroke-width:2.5;"/><text fill="#000000" font-family="sans-serif" font-size="30" font-style="italic" lengthAdjust="spacing" textLength="502.5" x="240" y="717.627">CalypsoAtomicTransactionException</text><line style="stroke:#D4AC0D;stroke-width:3.75;" x1="142.5" x2="747.5" y1="745.3516" y2="745.3516"/><line style="stroke:#D4AC0D;stroke-width:3.75;" x1="142.5" x2="747.5" y1="765.3516" y2="765.3516"/><ellipse cx="167.5" cy="792.8516" fill="#84BE84" rx="7.5" ry="7.5" style="stroke:#038048;stroke-width:2.5;"/><text fill="#000000" font-family="sans-serif" font-size="27.5" lengthAdjust="spacing" textLength="457.5" x="190" y="803.8989">CalypsoAtomicTransactionException (</text><text fill="#000000" font-family="sans-serif" font-size="27.5" lengthAdjust="spacing" textLength="197.5" x="250" y="838.4888">String message)</text><path d="M140,1039.1016 L140,1104.9805 A0,0 0 0 0 140,1104.9805 L935,1104.9805 A0,0 0 0 0 935,1104.9805 L935,1064.1016 L910,1039.1016 L538.2425,1039.1016 L473.005,855.5666 L518.2425,1039.1016 L140,1039.1016 A0,0 0 0 0 140,1039.1016 " fill="#FBFB77" style="stroke:#A80036;stroke-width:2.5;"/><path d="M910,1039.1016 L910,1064.1016 L935,1064.1016 L910,1039.1016 " fill="#FBFB77" style="stroke:#A80036;stroke-width:2.5;"/><text fill="#000000" font-family="sans-serif" font-size="32.5" lengthAdjust="spacing" textLength="742.5" x="155" y="1085.3394">Session buffer would overflow for atomic transaction</text><!--MD5=[7606b89d8bf605a408efa75ed57e12c7]
class CalypsoAuthenticationNotVerifiedException--><rect codeLine="62" fill="#FEFECE" height="258.3594" id="CalypsoAuthenticationNotVerifiedException" style="stroke:#D4AC0D;stroke-width:3.75;" width="702.5" x="838.75" y="631.6016"/><ellipse cx="876.25" cy="671.6016" fill="#ADD1B2" rx="27.5" ry="27.5" style="stroke:#ADD1B2;stroke-width:2.5;"/><path d="M881.25,662.8516 Q881.7578,661.6016 882.3438,660.9766 Q882.9297,660.3516 883.5938,660.3516 Q884.7656,660.3516 885.5078,661.0547 Q886.25,661.7578 886.25,663.3984 L886.25,667.3047 Q886.25,668.9453 885.5469,669.6484 Q884.8438,670.3516 883.75,670.3516 Q882.7734,670.3516 882.1484,669.9219 Q881.5234,669.4922 881.25,668.3594 Q881.1328,667.5781 880.7031,667.1484 Q879.9219,666.3281 878.5156,665.8594 Q877.1094,665.3516 875.7031,665.3516 Q873.9453,665.3516 872.4609,666.0547 Q871.0156,666.7578 869.8828,668.3203 Q868.75,669.8828 868.75,672.0313 L868.75,674.3359 Q868.75,676.9141 870.8594,678.6328 Q872.9688,680.3516 876.7188,680.3516 Q878.9453,680.3516 880.5078,679.8438 Q881.4063,679.5703 882.4219,678.6719 Q883.0859,678.1641 883.4375,678.0078 Q883.7891,677.8516 884.2188,677.8516 Q885.0391,677.8516 885.625,678.5156 Q886.25,679.1406 886.25,680.0391 Q886.25,680.8984 885.3906,681.9141 Q884.1406,683.3984 882.1484,684.2188 Q879.5313,685.3516 876.3281,685.3516 Q872.5781,685.3516 869.5703,683.8672 Q867.1484,682.6953 865.4297,680.1563 Q863.75,677.6172 863.75,674.6094 L863.75,671.875 Q863.75,668.75 865.2344,666.0156 Q866.7578,663.2813 869.375,661.8359 Q872.0313,660.3516 875,660.3516 Q876.7969,660.3516 878.3594,660.9766 Q879.9219,661.6016 881.25,662.8516 Z " fill="#000000"/><ellipse cx="923.75" cy="670.3516" fill="#84BE84" rx="7.5" ry="7.5" style="stroke:#038048;stroke-width:2.5;"/><text fill="#000000" font-family="sans-serif" font-size="30" font-style="italic" lengthAdjust="spacing" textLength="595" x="938.75" y="683.877">CalypsoAuthenticationNotVerifiedException</text><line style="stroke:#D4AC0D;stroke-width:3.75;" x1="841.25" x2="1538.75" y1="711.6016" y2="711.6016"/><line style="stroke:#D4AC0D;stroke-width:3.75;" x1="841.25" x2="1538.75" y1="731.6016" y2="731.6016"/><ellipse cx="866.25" cy="759.1016" fill="#84BE84" rx="7.5" ry="7.5" style="stroke:#038048;stroke-width:2.5;"/><text fill="#000000" font-family="sans-serif" font-size="27.5" lengthAdjust="spacing" textLength="540" x="888.75" y="770.1489">CalypsoAuthenticationNotVerifiedException (</text><text fill="#000000" font-family="sans-serif" font-size="27.5" lengthAdjust="spacing" textLength="197.5" x="948.75" y="804.7388">String message)</text><ellipse cx="866.25" cy="828.2813" fill="#84BE84" rx="7.5" ry="7.5" style="stroke:#038048;stroke-width:2.5;"/><text fill="#000000" font-family="sans-serif" font-size="27.5" lengthAdjust="spacing" textLength="540" x="888.75" y="839.3286">CalypsoAuthenticationNotVerifiedException (</text><text fill="#000000" font-family="sans-serif" font-size="27.5" lengthAdjust="spacing" textLength="425" x="948.75" y="873.9185">String message, Throwable cause)</text><path d="M1022.5,1039.1016 L1022.5,1104.9805 A0,0 0 0 0 1022.5,1104.9805 L2067.5,1104.9805 A0,0 0 0 0 2067.5,1104.9805 L2067.5,1064.1016 L2042.5,1039.1016 L1520.035,1039.1016 L1336.4425,889.1841 L1500.035,1039.1016 L1022.5,1039.1016 A0,0 0 0 0 1022.5,1039.1016 " fill="#FBFB77" style="stroke:#A80036;stroke-width:2.5;"/><path d="M2042.5,1039.1016 L2042.5,1064.1016 L2067.5,1064.1016 L2042.5,1039.1016 " fill="#FBFB77" style="stroke:#A80036;stroke-width:2.5;"/><text fill="#000000" font-family="sans-serif" font-size="32.5" lengthAdjust="spacing" textLength="992.5" x="1037.5" y="1085.3394">R-APDU of CloseSecureSession eq 9000 but SAM no more available</text><!--MD5=[f36e46b92c95a8ec3177eaf437edfe3a]
class CalypsoCardAnomalyException--><rect codeLine="70" fill="#FEFECE" height="189.1797" id="CalypsoCardAnomalyException" style="stroke:#D4AC0D;stroke-width:3.75;" width="550" x="1630" y="665.3516"/><ellipse cx="1669.75" cy="705.3516" fill="#ADD1B2" rx="27.5" ry="27.5" style="stroke:#ADD1B2;stroke-width:2.5;"/><path d="M1674.75,696.6016 Q1675.2578,695.3516 1675.8438,694.7266 Q1676.4297,694.1016 1677.0938,694.1016 Q1678.2656,694.1016 1679.0078,694.8047 Q1679.75,695.5078 1679.75,697.1484 L1679.75,701.0547 Q1679.75,702.6953 1679.0469,703.3984 Q1678.3438,704.1016 1677.25,704.1016 Q1676.2734,704.1016 1675.6484,703.6719 Q1675.0234,703.2422 1674.75,702.1094 Q1674.6328,701.3281 1674.2031,700.8984 Q1673.4219,700.0781 1672.0156,699.6094 Q1670.6094,699.1016 1669.2031,699.1016 Q1667.4453,699.1016 1665.9609,699.8047 Q1664.5156,700.5078 1663.3828,702.0703 Q1662.25,703.6328 1662.25,705.7813 L1662.25,708.0859 Q1662.25,710.6641 1664.3594,712.3828 Q1666.4688,714.1016 1670.2188,714.1016 Q1672.4453,714.1016 1674.0078,713.5938 Q1674.9063,713.3203 1675.9219,712.4219 Q1676.5859,711.9141 1676.9375,711.7578 Q1677.2891,711.6016 1677.7188,711.6016 Q1678.5391,711.6016 1679.125,712.2656 Q1679.75,712.8906 1679.75,713.7891 Q1679.75,714.6484 1678.8906,715.6641 Q1677.6406,717.1484 1675.6484,717.9688 Q1673.0313,719.1016 1669.8281,719.1016 Q1666.0781,719.1016 1663.0703,717.6172 Q1660.6484,716.4453 1658.9297,713.9063 Q1657.25,711.3672 1657.25,708.3594 L1657.25,705.625 Q1657.25,702.5 1658.7344,699.7656 Q1660.2578,697.0313 1662.875,695.5859 Q1665.5313,694.1016 1668.5,694.1016 Q1670.2969,694.1016 1671.8594,694.7266 Q1673.4219,695.3516 1674.75,696.6016 Z " fill="#000000"/><ellipse cx="1717.75" cy="704.1016" fill="#84BE84" rx="7.5" ry="7.5" style="stroke:#038048;stroke-width:2.5;"/><text fill="#000000" font-family="sans-serif" font-size="30" font-style="italic" lengthAdjust="spacing" textLength="437.5" x="1732.75" y="717.627">CalypsoCardAnomalyException</text><line style="stroke:#D4AC0D;stroke-width:3.75;" x1="1632.5" x2="2177.5" y1="745.3516" y2="745.3516"/><line style="stroke:#D4AC0D;stroke-width:3.75;" x1="1632.5" x2="2177.5" y1="765.3516" y2="765.3516"/><ellipse cx="1657.5" cy="792.8516" fill="#84BE84" rx="7.5" ry="7.5" style="stroke:#038048;stroke-width:2.5;"/><text fill="#000000" font-family="sans-serif" font-size="27.5" lengthAdjust="spacing" textLength="395" x="1680" y="803.8989">CalypsoCardAnomalyException (</text><text fill="#000000" font-family="sans-serif" font-size="27.5" lengthAdjust="spacing" textLength="425" x="1740" y="838.4888">String message, Throwable cause)</text><path d="M2156.25,1039.1016 L2156.25,1104.9805 A0,0 0 0 0 2156.25,1104.9805 L2603.75,1104.9805 A0,0 0 0 0 2603.75,1104.9805 L2603.75,1064.1016 L2578.75,1039.1016 L2342.4625,1039.1016 L2048.805,855.5666 L2322.4625,1039.1016 L2156.25,1039.1016 A0,0 0 0 0 2156.25,1039.1016 " fill="#FBFB77" style="stroke:#A80036;stroke-width:2.5;"/><path d="M2578.75,1039.1016 L2578.75,1064.1016 L2603.75,1064.1016 L2578.75,1039.1016 " fill="#FBFB77" style="stroke:#A80036;stroke-width:2.5;"/><text fill="#000000" font-family="sans-serif" font-size="32.5" lengthAdjust="spacing" textLength="395" x="2171.25" y="1085.3394">Unexpected Card behaviour</text><!--MD5=[58c15171c200c7fa339d9d426812ce5b]
class CalypsoCardCloseSecureSessionException--><rect codeLine="76" fill="#FEFECE" height="189.1797" id="CalypsoCardCloseSecureSessionException" style="stroke:#D4AC0D;stroke-width:3.75;" width="710" x="2267.5" y="665.3516"/><ellipse cx="2305" cy="705.3516" fill="#ADD1B2" rx="27.5" ry="27.5" style="stroke:#ADD1B2;stroke-width:2.5;"/><path d="M2310,696.6016 Q2310.5078,695.3516 2311.0938,694.7266 Q2311.6797,694.1016 2312.3438,694.1016 Q2313.5156,694.1016 2314.2578,694.8047 Q2315,695.5078 2315,697.1484 L2315,701.0547 Q2315,702.6953 2314.2969,703.3984 Q2313.5938,704.1016 2312.5,704.1016 Q2311.5234,704.1016 2310.8984,703.6719 Q2310.2734,703.2422 2310,702.1094 Q2309.8828,701.3281 2309.4531,700.8984 Q2308.6719,700.0781 2307.2656,699.6094 Q2305.8594,699.1016 2304.4531,699.1016 Q2302.6953,699.1016 2301.2109,699.8047 Q2299.7656,700.5078 2298.6328,702.0703 Q2297.5,703.6328 2297.5,705.7813 L2297.5,708.0859 Q2297.5,710.6641 2299.6094,712.3828 Q2301.7188,714.1016 2305.4688,714.1016 Q2307.6953,714.1016 2309.2578,713.5938 Q2310.1563,713.3203 2311.1719,712.4219 Q2311.8359,711.9141 2312.1875,711.7578 Q2312.5391,711.6016 2312.9688,711.6016 Q2313.7891,711.6016 2314.375,712.2656 Q2315,712.8906 2315,713.7891 Q2315,714.6484 2314.1406,715.6641 Q2312.8906,717.1484 2310.8984,717.9688 Q2308.2813,719.1016 2305.0781,719.1016 Q2301.3281,719.1016 2298.3203,717.6172 Q2295.8984,716.4453 2294.1797,713.9063 Q2292.5,711.3672 2292.5,708.3594 L2292.5,705.625 Q2292.5,702.5 2293.9844,699.7656 Q2295.5078,697.0313 2298.125,695.5859 Q2300.7813,694.1016 2303.75,694.1016 Q2305.5469,694.1016 2307.1094,694.7266 Q2308.6719,695.3516 2310,696.6016 Z " fill="#000000"/><ellipse cx="2352.5" cy="704.1016" fill="#84BE84" rx="7.5" ry="7.5" style="stroke:#038048;stroke-width:2.5;"/><text fill="#000000" font-family="sans-serif" font-size="30" font-style="italic" lengthAdjust="spacing" textLength="602.5" x="2367.5" y="717.627">CalypsoCardCloseSecureSessionException</text><line style="stroke:#D4AC0D;stroke-width:3.75;" x1="2270" x2="2975" y1="745.3516" y2="745.3516"/><line style="stroke:#D4AC0D;stroke-width:3.75;" x1="2270" x2="2975" y1="765.3516" y2="765.3516"/><ellipse cx="2295" cy="792.8516" fill="#84BE84" rx="7.5" ry="7.5" style="stroke:#038048;stroke-width:2.5;"/><text fill="#000000" font-family="sans-serif" font-size="27.5" lengthAdjust="spacing" textLength="542.5" x="2317.5" y="803.8989">CalypsoCardCloseSecureSessionException (</text><text fill="#000000" font-family="sans-serif" font-size="27.5" lengthAdjust="spacing" textLength="425" x="2377.5" y="838.4888">String message, Throwable cause)</text><path d="M2692.5,1039.1016 L2692.5,1104.9805 A0,0 0 0 0 2692.5,1104.9805 L3332.5,1104.9805 A0,0 0 0 0 3332.5,1104.9805 L3332.5,1064.1016 L3307.5,1039.1016 L2983.475,1039.1016 L2740.575,855.5666 L2963.475,1039.1016 L2692.5,1039.1016 A0,0 0 0 0 2692.5,1039.1016 " fill="#FBFB77" style="stroke:#A80036;stroke-width:2.5;"/><path d="M3307.5,1039.1016 L3307.5,1064.1016 L3332.5,1064.1016 L3307.5,1039.1016 " fill="#FBFB77" style="stroke:#A80036;stroke-width:2.5;"/><text fill="#000000" font-family="sans-serif" font-size="32.5" lengthAdjust="spacing" textLength="587.5" x="2707.5" y="1085.3394">R-APDU of CloseSecureSession != 9000</text><!--MD5=[a51e2e912d3a6fe72e91eb734478d502]
class CalypsoCardIOException--><rect codeLine="82" fill="#FEFECE" height="258.3594" id="CalypsoCardIOException" style="stroke:#D4AC0D;stroke-width:3.75;" width="550" x="3065" y="631.6016"/><ellipse cx="3145.25" cy="671.6016" fill="#ADD1B2" rx="27.5" ry="27.5" style="stroke:#ADD1B2;stroke-width:2.5;"/><path d="M3150.25,662.8516 Q3150.7578,661.6016 3151.3438,660.9766 Q3151.9297,660.3516 3152.5938,660.3516 Q3153.7656,660.3516 3154.5078,661.0547 Q3155.25,661.7578 3155.25,663.3984 L3155.25,667.3047 Q3155.25,668.9453 3154.5469,669.6484 Q3153.8438,670.3516 3152.75,670.3516 Q3151.7734,670.3516 3151.1484,669.9219 Q3150.5234,669.4922 3150.25,668.3594 Q3150.1328,667.5781 3149.7031,667.1484 Q3148.9219,666.3281 3147.5156,665.8594 Q3146.1094,665.3516 3144.7031,665.3516 Q3142.9453,665.3516 3141.4609,666.0547 Q3140.0156,666.7578 3138.8828,668.3203 Q3137.75,669.8828 3137.75,672.0313 L3137.75,674.3359 Q3137.75,676.9141 3139.8594,678.6328 Q3141.9688,680.3516 3145.7188,680.3516 Q3147.9453,680.3516 3149.5078,679.8438 Q3150.4063,679.5703 3151.4219,678.6719 Q3152.0859,678.1641 3152.4375,678.0078 Q3152.7891,677.8516 3153.2188,677.8516 Q3154.0391,677.8516 3154.625,678.5156 Q3155.25,679.1406 3155.25,680.0391 Q3155.25,680.8984 3154.3906,681.9141 Q3153.1406,683.3984 3151.1484,684.2188 Q3148.5313,685.3516 3145.3281,685.3516 Q3141.5781,685.3516 3138.5703,683.8672 Q3136.1484,682.6953 3134.4297,680.1563 Q3132.75,677.6172 3132.75,674.6094 L3132.75,671.875 Q3132.75,668.75 3134.2344,666.0156 Q3135.7578,663.2813 3138.375,661.8359 Q3141.0313,660.3516 3144,660.3516 Q3145.7969,660.3516 3147.3594,660.9766 Q3148.9219,661.6016 3150.25,662.8516 Z " fill="#000000"/><ellipse cx="3202.25" cy="670.3516" fill="#84BE84" rx="7.5" ry="7.5" style="stroke:#038048;stroke-width:2.5;"/><text fill="#000000" font-family="sans-serif" font-size="30" font-style="italic" lengthAdjust="spacing" textLength="347.5" x="3217.25" y="683.877">CalypsoCardIOException</text><line style="stroke:#D4AC0D;stroke-width:3.75;" x1="3067.5" x2="3612.5" y1="711.6016" y2="711.6016"/><line style="stroke:#D4AC0D;stroke-width:3.75;" x1="3067.5" x2="3612.5" y1="731.6016" y2="731.6016"/><ellipse cx="3092.5" cy="759.1016" fill="#84BE84" rx="7.5" ry="7.5" style="stroke:#038048;stroke-width:2.5;"/><text fill="#000000" font-family="sans-serif" font-size="27.5" lengthAdjust="spacing" textLength="315" x="3115" y="770.1489">CalypsoCardIOException (</text><text fill="#000000" font-family="sans-serif" font-size="27.5" lengthAdjust="spacing" textLength="197.5" x="3175" y="804.7388">String message)</text><ellipse cx="3092.5" cy="828.2813" fill="#84BE84" rx="7.5" ry="7.5" style="stroke:#038048;stroke-width:2.5;"/><text fill="#000000" font-family="sans-serif" font-size="27.5" lengthAdjust="spacing" textLength="315" x="3115" y="839.3286">CalypsoCardIOException (</text><text fill="#000000" font-family="sans-serif" font-size="27.5" lengthAdjust="spacing" textLength="425" x="3175" y="873.9185">String message, Throwable cause)</text><!--MD5=[71a3dea5c96d9aafead374b6bd2eb82b]
class CalypsoCardRevokedException--><rect codeLine="89" fill="#FEFECE" height="189.1797" id="CalypsoCardRevokedException" style="stroke:#D4AC0D;stroke-width:3.75;" width="547.5" x="3703.75" y="665.3516"/><ellipse cx="3741.25" cy="705.3516" fill="#ADD1B2" rx="27.5" ry="27.5" style="stroke:#ADD1B2;stroke-width:2.5;"/><path d="M3746.25,696.6016 Q3746.7578,695.3516 3747.3438,694.7266 Q3747.9297,694.1016 3748.5938,694.1016 Q3749.7656,694.1016 3750.5078,694.8047 Q3751.25,695.5078 3751.25,697.1484 L3751.25,701.0547 Q3751.25,702.6953 3750.5469,703.3984 Q3749.8438,704.1016 3748.75,704.1016 Q3747.7734,704.1016 3747.1484,703.6719 Q3746.5234,703.2422 3746.25,702.1094 Q3746.1328,701.3281 3745.7031,700.8984 Q3744.9219,700.0781 3743.5156,699.6094 Q3742.1094,699.1016 3740.7031,699.1016 Q3738.9453,699.1016 3737.4609,699.8047 Q3736.0156,700.5078 3734.8828,702.0703 Q3733.75,703.6328 3733.75,705.7813 L3733.75,708.0859 Q3733.75,710.6641 3735.8594,712.3828 Q3737.9688,714.1016 3741.7188,714.1016 Q3743.9453,714.1016 3745.5078,713.5938 Q3746.4063,713.3203 3747.4219,712.4219 Q3748.0859,711.9141 3748.4375,711.7578 Q3748.7891,711.6016 3749.2188,711.6016 Q3750.0391,711.6016 3750.625,712.2656 Q3751.25,712.8906 3751.25,713.7891 Q3751.25,714.6484 3750.3906,715.6641 Q3749.1406,717.1484 3747.1484,717.9688 Q3744.5313,719.1016 3741.3281,719.1016 Q3737.5781,719.1016 3734.5703,717.6172 Q3732.1484,716.4453 3730.4297,713.9063 Q3728.75,711.3672 3728.75,708.3594 L3728.75,705.625 Q3728.75,702.5 3730.2344,699.7656 Q3731.7578,697.0313 3734.375,695.5859 Q3737.0313,694.1016 3740,694.1016 Q3741.7969,694.1016 3743.3594,694.7266 Q3744.9219,695.3516 3746.25,696.6016 Z " fill="#000000"/><ellipse cx="3788.75" cy="704.1016" fill="#84BE84" rx="7.5" ry="7.5" style="stroke:#038048;stroke-width:2.5;"/><text fill="#000000" font-family="sans-serif" font-size="30" font-style="italic" lengthAdjust="spacing" textLength="440" x="3803.75" y="717.627">CalypsoCardRevokedException</text><line style="stroke:#D4AC0D;stroke-width:3.75;" x1="3706.25" x2="4248.75" y1="745.3516" y2="745.3516"/><line style="stroke:#D4AC0D;stroke-width:3.75;" x1="3706.25" x2="4248.75" y1="765.3516" y2="765.3516"/><ellipse cx="3731.25" cy="792.8516" fill="#84BE84" rx="7.5" ry="7.5" style="stroke:#038048;stroke-width:2.5;"/><text fill="#000000" font-family="sans-serif" font-size="27.5" lengthAdjust="spacing" textLength="395" x="3753.75" y="803.8989">CalypsoCardRevokedException (</text><text fill="#000000" font-family="sans-serif" font-size="27.5" lengthAdjust="spacing" textLength="197.5" x="3813.75" y="838.4888">String message)</text><!--MD5=[d6e401b68103be558b7b46d34ab3f22b]
class CalypsoCardTransactionIllegalStateException--><rect codeLine="94" fill="#FEFECE" height="223.7695" id="CalypsoCardTransactionIllegalStateException" style="stroke:#D4AC0D;stroke-width:3.75;" width="737.5" x="4338.75" y="647.8516"/><ellipse cx="4376.25" cy="687.8516" fill="#ADD1B2" rx="27.5" ry="27.5" style="stroke:#ADD1B2;stroke-width:2.5;"/><path d="M4381.25,679.1016 Q4381.7578,677.8516 4382.3438,677.2266 Q4382.9297,676.6016 4383.5938,676.6016 Q4384.7656,676.6016 4385.5078,677.3047 Q4386.25,678.0078 4386.25,679.6484 L4386.25,683.5547 Q4386.25,685.1953 4385.5469,685.8984 Q4384.8438,686.6016 4383.75,686.6016 Q4382.7734,686.6016 4382.1484,686.1719 Q4381.5234,685.7422 4381.25,684.6094 Q4381.1328,683.8281 4380.7031,683.3984 Q4379.9219,682.5781 4378.5156,682.1094 Q4377.1094,681.6016 4375.7031,681.6016 Q4373.9453,681.6016 4372.4609,682.3047 Q4371.0156,683.0078 4369.8828,684.5703 Q4368.75,686.1328 4368.75,688.2813 L4368.75,690.5859 Q4368.75,693.1641 4370.8594,694.8828 Q4372.9688,696.6016 4376.7188,696.6016 Q4378.9453,696.6016 4380.5078,696.0938 Q4381.4063,695.8203 4382.4219,694.9219 Q4383.0859,694.4141 4383.4375,694.2578 Q4383.7891,694.1016 4384.2188,694.1016 Q4385.0391,694.1016 4385.625,694.7656 Q4386.25,695.3906 4386.25,696.2891 Q4386.25,697.1484 4385.3906,698.1641 Q4384.1406,699.6484 4382.1484,700.4688 Q4379.5313,701.6016 4376.3281,701.6016 Q4372.5781,701.6016 4369.5703,700.1172 Q4367.1484,698.9453 4365.4297,696.4063 Q4363.75,693.8672 4363.75,690.8594 L4363.75,688.125 Q4363.75,685 4365.2344,682.2656 Q4366.7578,679.5313 4369.375,678.0859 Q4372.0313,676.6016 4375,676.6016 Q4376.7969,676.6016 4378.3594,677.2266 Q4379.9219,677.8516 4381.25,679.1016 Z " fill="#000000"/><ellipse cx="4423.75" cy="686.6016" fill="#84BE84" rx="7.5" ry="7.5" style="stroke:#038048;stroke-width:2.5;"/><text fill="#000000" font-family="sans-serif" font-size="30" font-style="italic" lengthAdjust="spacing" textLength="630" x="4438.75" y="700.127">CalypsoCardTransactionIllegalStateException</text><line style="stroke:#D4AC0D;stroke-width:3.75;" x1="4341.25" x2="5073.75" y1="727.8516" y2="727.8516"/><text fill="#000000" font-family="sans-serif" font-size="27.5" lengthAdjust="spacing" textLength="220" x="4353.75" y="766.3989">+++ A SUPPRIMER</text><line style="stroke:#D4AC0D;stroke-width:3.75;" x1="4341.25" x2="5073.75" y1="782.4414" y2="782.4414"/><ellipse cx="4366.25" cy="809.9414" fill="#84BE84" rx="7.5" ry="7.5" style="stroke:#038048;stroke-width:2.5;"/><text fill="#000000" font-family="sans-serif" font-size="27.5" lengthAdjust="spacing" textLength="560" x="4388.75" y="820.9888">CalypsoCardTransactionIllegalStateException (</text><text fill="#000000" font-family="sans-serif" font-size="27.5" lengthAdjust="spacing" textLength="197.5" x="4448.75" y="855.5786">String message)</text><!--MD5=[6d111c18151a155981a3d001dec2757c]
class CalypsoDesynchronizedExchangesException--><rect codeLine="100" fill="#FEFECE" height="189.1797" id="CalypsoDesynchronizedExchangesException" style="stroke:#D4AC0D;stroke-width:3.75;" width="732.5" x="5163.75" y="665.3516"/><ellipse cx="5201.25" cy="705.3516" fill="#ADD1B2" rx="27.5" ry="27.5" style="stroke:#ADD1B2;stroke-width:2.5;"/><path d="M5206.25,696.6016 Q5206.7578,695.3516 5207.3438,694.7266 Q5207.9297,694.1016 5208.5938,694.1016 Q5209.7656,694.1016 5210.5078,694.8047 Q5211.25,695.5078 5211.25,697.1484 L5211.25,701.0547 Q5211.25,702.6953 5210.5469,703.3984 Q5209.8438,704.1016 5208.75,704.1016 Q5207.7734,704.1016 5207.1484,703.6719 Q5206.5234,703.2422 5206.25,702.1094 Q5206.1328,701.3281 5205.7031,700.8984 Q5204.9219,700.0781 5203.5156,699.6094 Q5202.1094,699.1016 5200.7031,699.1016 Q5198.9453,699.1016 5197.4609,699.8047 Q5196.0156,700.5078 5194.8828,702.0703 Q5193.75,703.6328 5193.75,705.7813 L5193.75,708.0859 Q5193.75,710.6641 5195.8594,712.3828 Q5197.9688,714.1016 5201.7188,714.1016 Q5203.9453,714.1016 5205.5078,713.5938 Q5206.4063,713.3203 5207.4219,712.4219 Q5208.0859,711.9141 5208.4375,711.7578 Q5208.7891,711.6016 5209.2188,711.6016 Q5210.0391,711.6016 5210.625,712.2656 Q5211.25,712.8906 5211.25,713.7891 Q5211.25,714.6484 5210.3906,715.6641 Q5209.1406,717.1484 5207.1484,717.9688 Q5204.5313,719.1016 5201.3281,719.1016 Q5197.5781,719.1016 5194.5703,717.6172 Q5192.1484,716.4453 5190.4297,713.9063 Q5188.75,711.3672 5188.75,708.3594 L5188.75,705.625 Q5188.75,702.5 5190.2344,699.7656 Q5191.7578,697.0313 5194.375,695.5859 Q5197.0313,694.1016 5200,694.1016 Q5201.7969,694.1016 5203.3594,694.7266 Q5204.9219,695.3516 5206.25,696.6016 Z " fill="#000000"/><ellipse cx="5248.75" cy="704.1016" fill="#84BE84" rx="7.5" ry="7.5" style="stroke:#038048;stroke-width:2.5;"/><text fill="#000000" font-family="sans-serif" font-size="30" font-style="italic" lengthAdjust="spacing" textLength="625" x="5263.75" y="717.627">CalypsoDesynchronizedExchangesException</text><line style="stroke:#D4AC0D;stroke-width:3.75;" x1="5166.25" x2="5893.75" y1="745.3516" y2="745.3516"/><line style="stroke:#D4AC0D;stroke-width:3.75;" x1="5166.25" x2="5893.75" y1="765.3516" y2="765.3516"/><ellipse cx="5191.25" cy="792.8516" fill="#84BE84" rx="7.5" ry="7.5" style="stroke:#038048;stroke-width:2.5;"/><text fill="#000000" font-family="sans-serif" font-size="27.5" lengthAdjust="spacing" textLength="565" x="5213.75" y="803.8989">CalypsoDesynchronizedExchangesException (</text><text fill="#000000" font-family="sans-serif" font-size="27.5" lengthAdjust="spacing" textLength="197.5" x="5273.75" y="838.4888">String message)</text><path d="M5232.5,1039.1016 L5232.5,1104.9805 A0,0 0 0 0 5232.5,1104.9805 L5812.5,1104.9805 A0,0 0 0 0 5812.5,1104.9805 L5812.5,1064.1016 L5787.5,1039.1016 L5533.25,1039.1016 L5527.725,855.5666 L5513.25,1039.1016 L5232.5,1039.1016 A0,0 0 0 0 5232.5,1039.1016 " fill="#FBFB77" style="stroke:#A80036;stroke-width:2.5;"/><path d="M5787.5,1039.1016 L5787.5,1064.1016 L5812.5,1064.1016 L5787.5,1039.1016 " fill="#FBFB77" style="stroke:#A80036;stroke-width:2.5;"/><text fill="#000000" font-family="sans-serif" font-size="32.5" lengthAdjust="spacing" textLength="527.5" x="5247.5" y="1085.3394">R-APDU number != C-APDU number</text><!--MD5=[4fefad2f43f9c084224c7483ba2d5bbf]
class CalypsoInconsistencyDataException--><rect codeLine="106" fill="#FEFECE" height="189.1797" id="CalypsoInconsistencyDataException" style="stroke:#D4AC0D;stroke-width:3.75;" width="607.5" x="5983.75" y="665.3516"/><ellipse cx="6021.25" cy="705.3516" fill="#ADD1B2" rx="27.5" ry="27.5" style="stroke:#ADD1B2;stroke-width:2.5;"/><path d="M6026.25,696.6016 Q6026.7578,695.3516 6027.3438,694.7266 Q6027.9297,694.1016 6028.5938,694.1016 Q6029.7656,694.1016 6030.5078,694.8047 Q6031.25,695.5078 6031.25,697.1484 L6031.25,701.0547 Q6031.25,702.6953 6030.5469,703.3984 Q6029.8438,704.1016 6028.75,704.1016 Q6027.7734,704.1016 6027.1484,703.6719 Q6026.5234,703.2422 6026.25,702.1094 Q6026.1328,701.3281 6025.7031,700.8984 Q6024.9219,700.0781 6023.5156,699.6094 Q6022.1094,699.1016 6020.7031,699.1016 Q6018.9453,699.1016 6017.4609,699.8047 Q6016.0156,700.5078 6014.8828,702.0703 Q6013.75,703.6328 6013.75,705.7813 L6013.75,708.0859 Q6013.75,710.6641 6015.8594,712.3828 Q6017.9688,714.1016 6021.7188,714.1016 Q6023.9453,714.1016 6025.5078,713.5938 Q6026.4063,713.3203 6027.4219,712.4219 Q6028.0859,711.9141 6028.4375,711.7578 Q6028.7891,711.6016 6029.2188,711.6016 Q6030.0391,711.6016 6030.625,712.2656 Q6031.25,712.8906 6031.25,713.7891 Q6031.25,714.6484 6030.3906,715.6641 Q6029.1406,717.1484 6027.1484,717.9688 Q6024.5313,719.1016 6021.3281,719.1016 Q6017.5781,719.1016 6014.5703,717.6172 Q6012.1484,716.4453 6010.4297,713.9063 Q6008.75,711.3672 6008.75,708.3594 L6008.75,705.625 Q6008.75,702.5 6010.2344,699.7656 Q6011.7578,697.0313 6014.375,695.5859 Q6017.0313,694.1016 6020,694.1016 Q6021.7969,694.1016 6023.3594,694.7266 Q6024.9219,695.3516 6026.25,696.6016 Z " fill="#000000"/><ellipse cx="6068.75" cy="704.1016" fill="#84BE84" rx="7.5" ry="7.5" style="stroke:#038048;stroke-width:2.5;"/><text fill="#000000" font-family="sans-serif" font-size="30" font-style="italic" lengthAdjust="spacing" textLength="500" x="6083.75" y="717.627">CalypsoInconsistencyDataException</text><line style="stroke:#D4AC0D;stroke-width:3.75;" x1="5986.25" x2="6588.75" y1="745.3516" y2="745.3516"/><line style="stroke:#D4AC0D;stroke-width:3.75;" x1="5986.25" x2="6588.75" y1="765.3516" y2="765.3516"/><ellipse cx="6011.25" cy="792.8516" fill="#84BE84" rx="7.5" ry="7.5" style="stroke:#038048;stroke-width:2.5;"/><text fill="#000000" font-family="sans-serif" font-size="27.5" lengthAdjust="spacing" textLength="455" x="6033.75" y="803.8989">CalypsoInconsistencyDataException (</text><text fill="#000000" font-family="sans-serif" font-size="27.5" lengthAdjust="spacing" textLength="197.5" x="6093.75" y="838.4888">String message)</text><path d="M5900,1039.1016 L5900,1104.9805 A0,0 0 0 0 5900,1104.9805 L6675,1104.9805 A0,0 0 0 0 6675,1104.9805 L6675,1064.1016 L6650,1039.1016 L6297.5,1039.1016 L6287.5,855.5666 L6277.5,1039.1016 L5900,1039.1016 A0,0 0 0 0 5900,1039.1016 " fill="#FBFB77" style="stroke:#A80036;stroke-width:2.5;"/><path d="M6650,1039.1016 L6650,1064.1016 L6675,1064.1016 L6650,1039.1016 " fill="#FBFB77" style="stroke:#A80036;stroke-width:2.5;"/><text fill="#000000" font-family="sans-serif" font-size="32.5" lengthAdjust="spacing" textLength="722.5" x="5915" y="1085.3394">Data read in session != Data read outside session</text><!--MD5=[8ca8ab16c781c4f667552b0ed5deb2e1]
class CalypsoSamAnomalyException--><rect codeLine="112" fill="#FEFECE" height="189.1797" id="CalypsoSamAnomalyException" style="stroke:#D4AC0D;stroke-width:3.75;" width="550" x="6680" y="665.3516"/><ellipse cx="6720.875" cy="705.3516" fill="#ADD1B2" rx="27.5" ry="27.5" style="stroke:#ADD1B2;stroke-width:2.5;"/><path d="M6725.875,696.6016 Q6726.3828,695.3516 6726.9688,694.7266 Q6727.5547,694.1016 6728.2188,694.1016 Q6729.3906,694.1016 6730.1328,694.8047 Q6730.875,695.5078 6730.875,697.1484 L6730.875,701.0547 Q6730.875,702.6953 6730.1719,703.3984 Q6729.4688,704.1016 6728.375,704.1016 Q6727.3984,704.1016 6726.7734,703.6719 Q6726.1484,703.2422 6725.875,702.1094 Q6725.7578,701.3281 6725.3281,700.8984 Q6724.5469,700.0781 6723.1406,699.6094 Q6721.7344,699.1016 6720.3281,699.1016 Q6718.5703,699.1016 6717.0859,699.8047 Q6715.6406,700.5078 6714.5078,702.0703 Q6713.375,703.6328 6713.375,705.7813 L6713.375,708.0859 Q6713.375,710.6641 6715.4844,712.3828 Q6717.5938,714.1016 6721.3438,714.1016 Q6723.5703,714.1016 6725.1328,713.5938 Q6726.0313,713.3203 6727.0469,712.4219 Q6727.7109,711.9141 6728.0625,711.7578 Q6728.4141,711.6016 6728.8438,711.6016 Q6729.6641,711.6016 6730.25,712.2656 Q6730.875,712.8906 6730.875,713.7891 Q6730.875,714.6484 6730.0156,715.6641 Q6728.7656,717.1484 6726.7734,717.9688 Q6724.1563,719.1016 6720.9531,719.1016 Q6717.2031,719.1016 6714.1953,717.6172 Q6711.7734,716.4453 6710.0547,713.9063 Q6708.375,711.3672 6708.375,708.3594 L6708.375,705.625 Q6708.375,702.5 6709.8594,699.7656 Q6711.3828,697.0313 6714,695.5859 Q6716.6563,694.1016 6719.625,694.1016 Q6721.4219,694.1016 6722.9844,694.7266 Q6724.5469,695.3516 6725.875,696.6016 Z " fill="#000000"/><ellipse cx="6769.125" cy="704.1016" fill="#84BE84" rx="7.5" ry="7.5" style="stroke:#038048;stroke-width:2.5;"/><text fill="#000000" font-family="sans-serif" font-size="30" font-style="italic" lengthAdjust="spacing" textLength="435" x="6784.125" y="717.627">CalypsoSamAnomalyException</text><line style="stroke:#D4AC0D;stroke-width:3.75;" x1="6682.5" x2="7227.5" y1="745.3516" y2="745.3516"/><line style="stroke:#D4AC0D;stroke-width:3.75;" x1="6682.5" x2="7227.5" y1="765.3516" y2="765.3516"/><ellipse cx="6707.5" cy="792.8516" fill="#84BE84" rx="7.5" ry="7.5" style="stroke:#038048;stroke-width:2.5;"/><text fill="#000000" font-family="sans-serif" font-size="27.5" lengthAdjust="spacing" textLength="390" x="6730" y="803.8989">CalypsoSamAnomalyException (</text><text fill="#000000" font-family="sans-serif" font-size="27.5" lengthAdjust="spacing" textLength="425" x="6790" y="838.4888">String message, Throwable cause)</text><path d="M6763.75,1039.1016 L6763.75,1104.9805 A0,0 0 0 0 6763.75,1104.9805 L7216.25,1104.9805 A0,0 0 0 0 7216.25,1104.9805 L7216.25,1064.1016 L7191.25,1039.1016 L6996.5,1039.1016 L6965.6,855.5666 L6976.5,1039.1016 L6763.75,1039.1016 A0,0 0 0 0 6763.75,1039.1016 " fill="#FBFB77" style="stroke:#A80036;stroke-width:2.5;"/><path d="M7191.25,1039.1016 L7191.25,1064.1016 L7216.25,1064.1016 L7191.25,1039.1016 " fill="#FBFB77" style="stroke:#A80036;stroke-width:2.5;"/><text fill="#000000" font-family="sans-serif" font-size="32.5" lengthAdjust="spacing" textLength="400" x="6778.75" y="1085.3394">Unexpected SAM behaviour</text><!--MD5=[405062b50710b8fd25c33c3f3c481f6d]
class CalypsoSamIOException--><rect codeLine="118" fill="#FEFECE" height="258.3594" id="CalypsoSamIOException" style="stroke:#D4AC0D;stroke-width:3.75;" width="550" x="7317.5" y="631.6016"/><ellipse cx="7398.875" cy="671.6016" fill="#ADD1B2" rx="27.5" ry="27.5" style="stroke:#ADD1B2;stroke-width:2.5;"/><path d="M7403.875,662.8516 Q7404.3828,661.6016 7404.9688,660.9766 Q7405.5547,660.3516 7406.2188,660.3516 Q7407.3906,660.3516 7408.1328,661.0547 Q7408.875,661.7578 7408.875,663.3984 L7408.875,667.3047 Q7408.875,668.9453 7408.1719,669.6484 Q7407.4688,670.3516 7406.375,670.3516 Q7405.3984,670.3516 7404.7734,669.9219 Q7404.1484,669.4922 7403.875,668.3594 Q7403.7578,667.5781 7403.3281,667.1484 Q7402.5469,666.3281 7401.1406,665.8594 Q7399.7344,665.3516 7398.3281,665.3516 Q7396.5703,665.3516 7395.0859,666.0547 Q7393.6406,666.7578 7392.5078,668.3203 Q7391.375,669.8828 7391.375,672.0313 L7391.375,674.3359 Q7391.375,676.9141 7393.4844,678.6328 Q7395.5938,680.3516 7399.3438,680.3516 Q7401.5703,680.3516 7403.1328,679.8438 Q7404.0313,679.5703 7405.0469,678.6719 Q7405.7109,678.1641 7406.0625,678.0078 Q7406.4141,677.8516 7406.8438,677.8516 Q7407.6641,677.8516 7408.25,678.5156 Q7408.875,679.1406 7408.875,680.0391 Q7408.875,680.8984 7408.0156,681.9141 Q7406.7656,683.3984 7404.7734,684.2188 Q7402.1563,685.3516 7398.9531,685.3516 Q7395.2031,685.3516 7392.1953,683.8672 Q7389.7734,682.6953 7388.0547,680.1563 Q7386.375,677.6172 7386.375,674.6094 L7386.375,671.875 Q7386.375,668.75 7387.8594,666.0156 Q7389.3828,663.2813 7392,661.8359 Q7394.6563,660.3516 7397.625,660.3516 Q7399.4219,660.3516 7400.9844,660.9766 Q7402.5469,661.6016 7403.875,662.8516 Z " fill="#000000"/><ellipse cx="7456.125" cy="670.3516" fill="#84BE84" rx="7.5" ry="7.5" style="stroke:#038048;stroke-width:2.5;"/><text fill="#000000" font-family="sans-serif" font-size="30" font-style="italic" lengthAdjust="spacing" textLength="345" x="7471.125" y="683.877">CalypsoSamIOException</text><line style="stroke:#D4AC0D;stroke-width:3.75;" x1="7320" x2="7865" y1="711.6016" y2="711.6016"/><line style="stroke:#D4AC0D;stroke-width:3.75;" x1="7320" x2="7865" y1="731.6016" y2="731.6016"/><ellipse cx="7345" cy="759.1016" fill="#84BE84" rx="7.5" ry="7.5" style="stroke:#038048;stroke-width:2.5;"/><text fill="#000000" font-family="sans-serif" font-size="27.5" lengthAdjust="spacing" textLength="310" x="7367.5" y="770.1489">CalypsoSamIOException (</text><text fill="#000000" font-family="sans-serif" font-size="27.5" lengthAdjust="spacing" textLength="197.5" x="7427.5" y="804.7388">String message)</text><ellipse cx="7345" cy="828.2813" fill="#84BE84" rx="7.5" ry="7.5" style="stroke:#038048;stroke-width:2.5;"/><text fill="#000000" font-family="sans-serif" font-size="27.5" lengthAdjust="spacing" textLength="310" x="7367.5" y="839.3286">CalypsoSamIOException (</text><text fill="#000000" font-family="sans-serif" font-size="27.5" lengthAdjust="spacing" textLength="425" x="7427.5" y="873.9185">String message, Throwable cause)</text><!--MD5=[38318f14f664c83d33d755bb629cfc7a]
class CalypsoSamRevokedException--><rect codeLine="125" fill="#FEFECE" height="189.1797" id="CalypsoSamRevokedException" style="stroke:#D4AC0D;stroke-width:3.75;" width="545" x="7955" y="665.3516"/><ellipse cx="7992.5" cy="705.3516" fill="#ADD1B2" rx="27.5" ry="27.5" style="stroke:#ADD1B2;stroke-width:2.5;"/><path d="M7997.5,696.6016 Q7998.0078,695.3516 7998.5938,694.7266 Q7999.1797,694.1016 7999.8438,694.1016 Q8001.0156,694.1016 8001.7578,694.8047 Q8002.5,695.5078 8002.5,697.1484 L8002.5,701.0547 Q8002.5,702.6953 8001.7969,703.3984 Q8001.0938,704.1016 8000,704.1016 Q7999.0234,704.1016 7998.3984,703.6719 Q7997.7734,703.2422 7997.5,702.1094 Q7997.3828,701.3281 7996.9531,700.8984 Q7996.1719,700.0781 7994.7656,699.6094 Q7993.3594,699.1016 7991.9531,699.1016 Q7990.1953,699.1016 7988.7109,699.8047 Q7987.2656,700.5078 7986.1328,702.0703 Q7985,703.6328 7985,705.7813 L7985,708.0859 Q7985,710.6641 7987.1094,712.3828 Q7989.2188,714.1016 7992.9688,714.1016 Q7995.1953,714.1016 7996.7578,713.5938 Q7997.6563,713.3203 7998.6719,712.4219 Q7999.3359,711.9141 7999.6875,711.7578 Q8000.0391,711.6016 8000.4688,711.6016 Q8001.2891,711.6016 8001.875,712.2656 Q8002.5,712.8906 8002.5,713.7891 Q8002.5,714.6484 8001.6406,715.6641 Q8000.3906,717.1484 7998.3984,717.9688 Q7995.7813,719.1016 7992.5781,719.1016 Q7988.8281,719.1016 7985.8203,717.6172 Q7983.3984,716.4453 7981.6797,713.9063 Q7980,711.3672 7980,708.3594 L7980,705.625 Q7980,702.5 7981.4844,699.7656 Q7983.0078,697.0313 7985.625,695.5859 Q7988.2813,694.1016 7991.25,694.1016 Q7993.0469,694.1016 7994.6094,694.7266 Q7996.1719,695.3516 7997.5,696.6016 Z " fill="#000000"/><ellipse cx="8040" cy="704.1016" fill="#84BE84" rx="7.5" ry="7.5" style="stroke:#038048;stroke-width:2.5;"/><text fill="#000000" font-family="sans-serif" font-size="30" font-style="italic" lengthAdjust="spacing" textLength="437.5" x="8055" y="717.627">CalypsoSamRevokedException</text><line style="stroke:#D4AC0D;stroke-width:3.75;" x1="7957.5" x2="8497.5" y1="745.3516" y2="745.3516"/><line style="stroke:#D4AC0D;stroke-width:3.75;" x1="7957.5" x2="8497.5" y1="765.3516" y2="765.3516"/><ellipse cx="7982.5" cy="792.8516" fill="#84BE84" rx="7.5" ry="7.5" style="stroke:#038048;stroke-width:2.5;"/><text fill="#000000" font-family="sans-serif" font-size="27.5" lengthAdjust="spacing" textLength="390" x="8005" y="803.8989">CalypsoSamRevokedException (</text><text fill="#000000" font-family="sans-serif" font-size="27.5" lengthAdjust="spacing" textLength="197.5" x="8065" y="838.4888">String message)</text><!--MD5=[46160ab6f05d9f138f6f98d061e1184a]
class CalypsoSessionAuthenticationException--><rect codeLine="130" fill="#FEFECE" height="258.3594" id="CalypsoSessionAuthenticationException" style="stroke:#D4AC0D;stroke-width:3.75;" width="660" x="8587.5" y="631.6016"/><ellipse cx="8625" cy="671.6016" fill="#ADD1B2" rx="27.5" ry="27.5" style="stroke:#ADD1B2;stroke-width:2.5;"/><path d="M8630,662.8516 Q8630.5078,661.6016 8631.0938,660.9766 Q8631.6797,660.3516 8632.3438,660.3516 Q8633.5156,660.3516 8634.2578,661.0547 Q8635,661.7578 8635,663.3984 L8635,667.3047 Q8635,668.9453 8634.2969,669.6484 Q8633.5938,670.3516 8632.5,670.3516 Q8631.5234,670.3516 8630.8984,669.9219 Q8630.2734,669.4922 8630,668.3594 Q8629.8828,667.5781 8629.4531,667.1484 Q8628.6719,666.3281 8627.2656,665.8594 Q8625.8594,665.3516 8624.4531,665.3516 Q8622.6953,665.3516 8621.2109,666.0547 Q8619.7656,666.7578 8618.6328,668.3203 Q8617.5,669.8828 8617.5,672.0313 L8617.5,674.3359 Q8617.5,676.9141 8619.6094,678.6328 Q8621.7188,680.3516 8625.4688,680.3516 Q8627.6953,680.3516 8629.2578,679.8438 Q8630.1563,679.5703 8631.1719,678.6719 Q8631.8359,678.1641 8632.1875,678.0078 Q8632.5391,677.8516 8632.9688,677.8516 Q8633.7891,677.8516 8634.375,678.5156 Q8635,679.1406 8635,680.0391 Q8635,680.8984 8634.1406,681.9141 Q8632.8906,683.3984 8630.8984,684.2188 Q8628.2813,685.3516 8625.0781,685.3516 Q8621.3281,685.3516 8618.3203,683.8672 Q8615.8984,682.6953 8614.1797,680.1563 Q8612.5,677.6172 8612.5,674.6094 L8612.5,671.875 Q8612.5,668.75 8613.9844,666.0156 Q8615.5078,663.2813 8618.125,661.8359 Q8620.7813,660.3516 8623.75,660.3516 Q8625.5469,660.3516 8627.1094,660.9766 Q8628.6719,661.6016 8630,662.8516 Z " fill="#000000"/><ellipse cx="8672.5" cy="670.3516" fill="#84BE84" rx="7.5" ry="7.5" style="stroke:#038048;stroke-width:2.5;"/><text fill="#000000" font-family="sans-serif" font-size="30" font-style="italic" lengthAdjust="spacing" textLength="552.5" x="8687.5" y="683.877">CalypsoSessionAuthenticationException</text><line style="stroke:#D4AC0D;stroke-width:3.75;" x1="8590" x2="9245" y1="711.6016" y2="711.6016"/><line style="stroke:#D4AC0D;stroke-width:3.75;" x1="8590" x2="9245" y1="731.6016" y2="731.6016"/><ellipse cx="8615" cy="759.1016" fill="#84BE84" rx="7.5" ry="7.5" style="stroke:#038048;stroke-width:2.5;"/><text fill="#000000" font-family="sans-serif" font-size="27.5" lengthAdjust="spacing" textLength="502.5" x="8637.5" y="770.1489">CalypsoSessionAuthenticationException (</text><text fill="#000000" font-family="sans-serif" font-size="27.5" lengthAdjust="spacing" textLength="197.5" x="8697.5" y="804.7388">String message)</text><ellipse cx="8615" cy="828.2813" fill="#84BE84" rx="7.5" ry="7.5" style="stroke:#038048;stroke-width:2.5;"/><text fill="#000000" font-family="sans-serif" font-size="27.5" lengthAdjust="spacing" textLength="502.5" x="8637.5" y="839.3286">CalypsoSessionAuthenticationException (</text><text fill="#000000" font-family="sans-serif" font-size="27.5" lengthAdjust="spacing" textLength="425" x="8697.5" y="873.9185">String message, Throwable cause)</text><path d="M8607.5,1039.1016 L8607.5,1104.9805 A0,0 0 0 0 8607.5,1104.9805 L9227.5,1104.9805 A0,0 0 0 0 9227.5,1104.9805 L9227.5,1064.1016 L9202.5,1039.1016 L8927.5,1039.1016 L8917.5,889.1841 L8907.5,1039.1016 L8607.5,1039.1016 A0,0 0 0 0 8607.5,1039.1016 " fill="#FBFB77" style="stroke:#A80036;stroke-width:2.5;"/><path d="M9202.5,1039.1016 L9202.5,1064.1016 L9227.5,1064.1016 L9202.5,1039.1016 " fill="#FBFB77" style="stroke:#A80036;stroke-width:2.5;"/><text fill="#000000" font-family="sans-serif" font-size="32.5" lengthAdjust="spacing" textLength="567.5" x="8622.5" y="1085.3394">R-APDU of DigestAuthenticate eq 6985</text><!--MD5=[523474c2b5e021201a8e80c19e61b6fe]
class CalypsoSvAuthenticationException--><rect codeLine="138" fill="#FEFECE" height="258.3594" id="CalypsoSvAuthenticationException" style="stroke:#D4AC0D;stroke-width:3.75;" width="585" x="9335" y="631.6016"/><ellipse cx="9372.5" cy="671.6016" fill="#ADD1B2" rx="27.5" ry="27.5" style="stroke:#ADD1B2;stroke-width:2.5;"/><path d="M9377.5,662.8516 Q9378.0078,661.6016 9378.5938,660.9766 Q9379.1797,660.3516 9379.8438,660.3516 Q9381.0156,660.3516 9381.7578,661.0547 Q9382.5,661.7578 9382.5,663.3984 L9382.5,667.3047 Q9382.5,668.9453 9381.7969,669.6484 Q9381.0938,670.3516 9380,670.3516 Q9379.0234,670.3516 9378.3984,669.9219 Q9377.7734,669.4922 9377.5,668.3594 Q9377.3828,667.5781 9376.9531,667.1484 Q9376.1719,666.3281 9374.7656,665.8594 Q9373.3594,665.3516 9371.9531,665.3516 Q9370.1953,665.3516 9368.7109,666.0547 Q9367.2656,666.7578 9366.1328,668.3203 Q9365,669.8828 9365,672.0313 L9365,674.3359 Q9365,676.9141 9367.1094,678.6328 Q9369.2188,680.3516 9372.9688,680.3516 Q9375.1953,680.3516 9376.7578,679.8438 Q9377.6563,679.5703 9378.6719,678.6719 Q9379.3359,678.1641 9379.6875,678.0078 Q9380.0391,677.8516 9380.4688,677.8516 Q9381.2891,677.8516 9381.875,678.5156 Q9382.5,679.1406 9382.5,680.0391 Q9382.5,680.8984 9381.6406,681.9141 Q9380.3906,683.3984 9378.3984,684.2188 Q9375.7813,685.3516 9372.5781,685.3516 Q9368.8281,685.3516 9365.8203,683.8672 Q9363.3984,682.6953 9361.6797,680.1563 Q9360,677.6172 9360,674.6094 L9360,671.875 Q9360,668.75 9361.4844,666.0156 Q9363.0078,663.2813 9365.625,661.8359 Q9368.2813,660.3516 9371.25,660.3516 Q9373.0469,660.3516 9374.6094,660.9766 Q9376.1719,661.6016 9377.5,662.8516 Z " fill="#000000"/><ellipse cx="9420" cy="670.3516" fill="#84BE84" rx="7.5" ry="7.5" style="stroke:#038048;stroke-width:2.5;"/><text fill="#000000" font-family="sans-serif" font-size="30" font-style="italic" lengthAdjust="spacing" textLength="477.5" x="9435" y="683.877">CalypsoSvAuthenticationException</text><line style="stroke:#D4AC0D;stroke-width:3.75;" x1="9337.5" x2="9917.5" y1="711.6016" y2="711.6016"/><line style="stroke:#D4AC0D;stroke-width:3.75;" x1="9337.5" x2="9917.5" y1="731.6016" y2="731.6016"/><ellipse cx="9362.5" cy="759.1016" fill="#84BE84" rx="7.5" ry="7.5" style="stroke:#038048;stroke-width:2.5;"/><text fill="#000000" font-family="sans-serif" font-size="27.5" lengthAdjust="spacing" textLength="437.5" x="9385" y="770.1489">CalypsoSvAuthenticationException (</text><text fill="#000000" font-family="sans-serif" font-size="27.5" lengthAdjust="spacing" textLength="197.5" x="9445" y="804.7388">String message)</text><ellipse cx="9362.5" cy="828.2813" fill="#84BE84" rx="7.5" ry="7.5" style="stroke:#038048;stroke-width:2.5;"/><text fill="#000000" font-family="sans-serif" font-size="27.5" lengthAdjust="spacing" textLength="437.5" x="9385" y="839.3286">CalypsoSvAuthenticationException (</text><text fill="#000000" font-family="sans-serif" font-size="27.5" lengthAdjust="spacing" textLength="425" x="9445" y="873.9185">String message, Throwable cause)</text><path d="M9391.25,1039.1016 L9391.25,1104.9805 A0,0 0 0 0 9391.25,1104.9805 L9863.75,1104.9805 A0,0 0 0 0 9863.75,1104.9805 L9863.75,1064.1016 L9838.75,1039.1016 L9637.5,1039.1016 L9627.5,889.1841 L9617.5,1039.1016 L9391.25,1039.1016 A0,0 0 0 0 9391.25,1039.1016 " fill="#FBFB77" style="stroke:#A80036;stroke-width:2.5;"/><path d="M9838.75,1039.1016 L9838.75,1064.1016 L9863.75,1064.1016 L9838.75,1039.1016 " fill="#FBFB77" style="stroke:#A80036;stroke-width:2.5;"/><text fill="#000000" font-family="sans-serif" font-size="32.5" lengthAdjust="spacing" textLength="420" x="9406.25" y="1085.3394">R-APDU of SvCheck eq 6985</text><!--MD5=[008589f44930555f4e2ed7c73202ed85]
class CalypsoUnauthorizedKvcException--><rect codeLine="146" fill="#FEFECE" height="189.1797" id="CalypsoUnauthorizedKvcException" style="stroke:#D4AC0D;stroke-width:3.75;" width="592.5" x="10008.75" y="665.3516"/><ellipse cx="10046.25" cy="705.3516" fill="#ADD1B2" rx="27.5" ry="27.5" style="stroke:#ADD1B2;stroke-width:2.5;"/><path d="M10051.25,696.6016 Q10051.7578,695.3516 10052.3438,694.7266 Q10052.9297,694.1016 10053.5938,694.1016 Q10054.7656,694.1016 10055.5078,694.8047 Q10056.25,695.5078 10056.25,697.1484 L10056.25,701.0547 Q10056.25,702.6953 10055.5469,703.3984 Q10054.8438,704.1016 10053.75,704.1016 Q10052.7734,704.1016 10052.1484,703.6719 Q10051.5234,703.2422 10051.25,702.1094 Q10051.1328,701.3281 10050.7031,700.8984 Q10049.9219,700.0781 10048.5156,699.6094 Q10047.1094,699.1016 10045.7031,699.1016 Q10043.9453,699.1016 10042.4609,699.8047 Q10041.0156,700.5078 10039.8828,702.0703 Q10038.75,703.6328 10038.75,705.7813 L10038.75,708.0859 Q10038.75,710.6641 10040.8594,712.3828 Q10042.9688,714.1016 10046.7188,714.1016 Q10048.9453,714.1016 10050.5078,713.5938 Q10051.4063,713.3203 10052.4219,712.4219 Q10053.0859,711.9141 10053.4375,711.7578 Q10053.7891,711.6016 10054.2188,711.6016 Q10055.0391,711.6016 10055.625,712.2656 Q10056.25,712.8906 10056.25,713.7891 Q10056.25,714.6484 10055.3906,715.6641 Q10054.1406,717.1484 10052.1484,717.9688 Q10049.5313,719.1016 10046.3281,719.1016 Q10042.5781,719.1016 10039.5703,717.6172 Q10037.1484,716.4453 10035.4297,713.9063 Q10033.75,711.3672 10033.75,708.3594 L10033.75,705.625 Q10033.75,702.5 10035.2344,699.7656 Q10036.7578,697.0313 10039.375,695.5859 Q10042.0313,694.1016 10045,694.1016 Q10046.7969,694.1016 10048.3594,694.7266 Q10049.9219,695.3516 10051.25,696.6016 Z " fill="#000000"/><ellipse cx="10093.75" cy="704.1016" fill="#84BE84" rx="7.5" ry="7.5" style="stroke:#038048;stroke-width:2.5;"/><text fill="#000000" font-family="sans-serif" font-size="30" font-style="italic" lengthAdjust="spacing" textLength="485" x="10108.75" y="717.627">CalypsoUnauthorizedKvcException</text><line style="stroke:#D4AC0D;stroke-width:3.75;" x1="10011.25" x2="10598.75" y1="745.3516" y2="745.3516"/><line style="stroke:#D4AC0D;stroke-width:3.75;" x1="10011.25" x2="10598.75" y1="765.3516" y2="765.3516"/><ellipse cx="10036.25" cy="792.8516" fill="#84BE84" rx="7.5" ry="7.5" style="stroke:#038048;stroke-width:2.5;"/><text fill="#000000" font-family="sans-serif" font-size="27.5" lengthAdjust="spacing" textLength="440" x="10058.75" y="803.8989">CalypsoUnauthorizedKvcException (</text><text fill="#000000" font-family="sans-serif" font-size="27.5" lengthAdjust="spacing" textLength="197.5" x="10118.75" y="838.4888">String message)</text><!--MD5=[11da6a953edd1833bebb51e373dd8d04]
reverse link CalypsoCardTransactionException to CalypsoAtomicTransactionException--><path d="M5017.45,387.5316 C3964.375,407.9441 1589.595,470.7516 795,631.6016 C754.48,639.8041 712.345,651.7966 671.935,665.1691 " fill="none" id="CalypsoCardTransactionException-backto-CalypsoAtomicTransactionException" style="stroke:#A80036;stroke-width:2.5;"/><polygon fill="none" points="5017.775,370.0216,5068.1,386.5616,5018.45,405.0141,5017.775,370.0216" style="stroke:#A80036;stroke-width:2.5;"/><!--MD5=[f6dafc063d53f1ff0091fc8115811550]
reverse link CalypsoCardTransactionException to CalypsoAuthenticationNotVerifiedException--><path d="M5018.075,396.2441 C4104.425,429.4441 2228.41,510.1016 1585,631.6016 C1570.8525,634.2741 1556.5025,637.2991 1542.07,640.6041 " fill="none" id="CalypsoCardTransactionException-backto-CalypsoAuthenticationNotVerifiedException" style="stroke:#A80036;stroke-width:2.5;"/><polygon fill="none" points="5017.6,378.7516,5068.2,394.4366,5018.85,413.7291,5017.6,378.7516" style="stroke:#A80036;stroke-width:2.5;"/><!--MD5=[cd3cf7b2f9d73478c35c0ae74a994e20]
reverse link CalypsoCardTransactionException to CalypsoCardAnomalyException--><path d="M5018.625,399.2816 C4226.3,433.7391 2739.525,511.9991 2222.5,631.6016 C2186.09,640.0241 2148.3725,651.9466 2112.195,665.1391 " fill="none" id="CalypsoCardTransactionException-backto-CalypsoCardAnomalyException" style="stroke:#A80036;stroke-width:2.5;"/><polygon fill="none" points="5017.9,381.7966,5068.625,397.1266,5019.425,416.7641,5017.9,381.7966" style="stroke:#A80036;stroke-width:2.5;"/><!--MD5=[aefa65927c5e4fc489ab54b3b5c7d61a]
reverse link CalypsoCardTransactionException to CalypsoCardCloseSecureSessionException--><path d="M5017.625,399.5491 C4507.05,427.1841 3702.8,490.4216 3020,631.6016 C2976.75,640.5441 2931.525,652.3941 2887.75,665.2566 " fill="none" id="CalypsoCardTransactionException-backto-CalypsoCardCloseSecureSessionException" style="stroke:#A80036;stroke-width:2.5;"/><polygon fill="none" points="5016.8,382.0691,5067.65,396.9041,5018.65,417.0191,5016.8,382.0691" style="stroke:#A80036;stroke-width:2.5;"/><!--MD5=[081da5438d978b50b5b3385f0ce8fa70]
reverse link CalypsoCardTransactionException to CalypsoCardIOException--><path d="M5018.45,414.6541 C4638.925,449.0791 4111.275,513.9641 3660,631.6016 C3645.275,635.4441 3630.275,639.7716 3615.275,644.4541 " fill="none" id="CalypsoCardTransactionException-backto-CalypsoCardIOException" style="stroke:#A80036;stroke-width:2.5;"/><polygon fill="none" points="5017.3,397.1866,5068.65,410.1991,5020.4,432.0491,5017.3,397.1866" style="stroke:#A80036;stroke-width:2.5;"/><!--MD5=[c1840bfe56585d59e3020bfd7f774407]
reverse link CalypsoCardTransactionException to CalypsoCardRevokedException--><path d="M5019.025,462.5841 C4794.65,504.6116 4529.45,561.6241 4295,631.6016 C4262.6,641.2716 4228.9,652.8966 4196.05,665.1216 " fill="none" id="CalypsoCardTransactionException-backto-CalypsoCardRevokedException" style="stroke:#A80036;stroke-width:2.5;"/><polygon fill="none" points="5016.125,445.3266,5068.475,453.4416,5022.5,479.7416,5016.125,445.3266" style="stroke:#A80036;stroke-width:2.5;"/><!--MD5=[d5e0d625ad13a92e90ae759561b97e14]
reverse link CalypsoCardTransactionException to CalypsoCardTransactionIllegalStateException--><path d="M5260.85,503.0391 C5159.625,549.6516 5045.3,602.2941 4946.975,647.5791 " fill="none" id="CalypsoCardTransactionException-backto-CalypsoCardTransactionIllegalStateException" style="stroke:#A80036;stroke-width:2.5;"/><polygon fill="none" points="5253.6,487.1141,5306.325,482.0966,5268.25,518.9066,5253.6,487.1141" style="stroke:#A80036;stroke-width:2.5;"/><!--MD5=[a60f2adc4208dd2062854fd2b46240b0]
reverse link CalypsoCardTransactionException to CalypsoDesynchronizedExchangesException--><path d="M5530,533.1416 C5530,577.7916 5530,625.1591 5530,664.8341 " fill="none" id="CalypsoCardTransactionException-backto-CalypsoDesynchronizedExchangesException" style="stroke:#A80036;stroke-width:2.5;"/><polygon fill="none" points="5512.5,532.5966,5530,482.5966,5547.5,532.5966,5512.5,532.5966" style="stroke:#A80036;stroke-width:2.5;"/><!--MD5=[fe0eb2f6cd834c8810569899fa4468c3]
reverse link CalypsoCardTransactionException to CalypsoInconsistencyDataException--><path d="M5780.725,504.4591 C5885.675,556.9366 6005.5,616.8466 6102.275,665.2341 " fill="none" id="CalypsoCardTransactionException-backto-CalypsoInconsistencyDataException" style="stroke:#A80036;stroke-width:2.5;"/><polygon fill="none" points="5772.875,520.1091,5736,482.0966,5788.525,488.8041,5772.875,520.1091" style="stroke:#A80036;stroke-width:2.5;"/><!--MD5=[1e9e9d0d4db61e60863c61d19e519cc7]
reverse link CalypsoCardTransactionException to CalypsoSamAnomalyException--><path d="M6041.575,479.1141 C6229.825,520.3266 6443.675,572.3716 6635,631.6016 C6666.95,641.4916 6700.225,653.0966 6732.75,665.1916 " fill="none" id="CalypsoCardTransactionException-backto-CalypsoSamAnomalyException" style="stroke:#A80036;stroke-width:2.5;"/><polygon fill="none" points="6036.925,496.0141,5991.775,468.3291,6044.35,461.8066,6036.925,496.0141" style="stroke:#A80036;stroke-width:2.5;"/><!--MD5=[8040a8cf06c867bd1195443a3dec2baf]
reverse link CalypsoCardTransactionException to CalypsoSamIOException--><path d="M6041.35,421.1916 C6392.6,457.8316 6867.275,522.6666 7275,631.6016 C7288.75,635.2766 7302.725,639.3716 7316.725,643.7766 " fill="none" id="CalypsoCardTransactionException-backto-CalypsoSamIOException" style="stroke:#A80036;stroke-width:2.5;"/><polygon fill="none" points="6039.5,438.5916,5991.525,416.0966,6043.05,403.7741,6039.5,438.5916" style="stroke:#A80036;stroke-width:2.5;"/><!--MD5=[7659b7a73ef30624f30352b144a3d3f0]
reverse link CalypsoCardTransactionException to CalypsoSamRevokedException--><path d="M6042.125,392.7166 C6529.45,415.1666 7280.075,474.5641 7912.5,631.6016 C7947.675,640.3341 7984.125,652.1566 8019.2,665.0816 " fill="none" id="CalypsoCardTransactionException-backto-CalypsoSamRevokedException" style="stroke:#A80036;stroke-width:2.5;"/><polygon fill="none" points="6041.3,410.1991,5992.125,390.5016,6042.85,375.2316,6041.3,410.1991" style="stroke:#A80036;stroke-width:2.5;"/><!--MD5=[c1f5b9d1d5fc24f3df89a23bc40a39fc]
reverse link CalypsoCardTransactionException to CalypsoSessionAuthenticationException--><path d="M6042.325,384.2391 C6646.6,398.9541 7678.55,451.2991 8545,631.6016 C8558.7,634.4541 8572.6,637.6591 8586.575,641.1416 " fill="none" id="CalypsoCardTransactionException-backto-CalypsoSessionAuthenticationException" style="stroke:#A80036;stroke-width:2.5;"/><polygon fill="none" points="6041.075,401.7141,5991.5,383.0641,6041.875,366.7241,6041.075,401.7141" style="stroke:#A80036;stroke-width:2.5;"/><!--MD5=[94f7ac195b71f2111bccd41612b13530]
reverse link CalypsoCardTransactionException to CalypsoSvAuthenticationException--><path d="M6042.05,394.9041 C6922.625,425.1816 8687.45,500.2941 9292.5,631.6016 C9306.475,634.6341 9320.625,638.1391 9334.85,642.0091 " fill="none" id="CalypsoCardTransactionException-backto-CalypsoSvAuthenticationException" style="stroke:#A80036;stroke-width:2.5;"/><polygon fill="none" points="6041.15,412.3841,5991.775,393.1916,6042.35,377.4041,6041.15,412.3841" style="stroke:#A80036;stroke-width:2.5;"/><!--MD5=[3c2fd82d4c54a2aa66f8c6e8115068d7]
reverse link CalypsoCardTransactionException to CalypsoUnauthorizedKvcException--><path d="M6042.4,389.1066 C7044.375,411.8291 9229.575,477.7641 9965,631.6016 C10004.45,639.8516 10045.425,651.8691 10084.675,665.2516 " fill="none" id="CalypsoCardTransactionException-backto-CalypsoUnauthorizedKvcException" style="stroke:#A80036;stroke-width:2.5;"/><polygon fill="none" points="6041.525,406.5916,5991.95,387.9766,6042.325,371.6016,6041.525,406.5916" style="stroke:#A80036;stroke-width:2.5;"/><!--MD5=[fbb5420465056993c1fdf2b87d080f67]
@startuml
title
    Calypsonet - Exceptions of calypsonet-terminal-calypso-java-api - 1.0 (07/06/2021)
end title

' == THEME ==

'Couleurs issues de : https://htmlcolorcodes.com/fr/tableau-de-couleur/tableau-de-couleur-design-plat/
!define C_GREY1 F8F9F9
!define C_GREY2 F2F3F4
!define C_GREY3 E5E7E9
!define C_GREY4 D7DBDD
!define C_GREY5 CACFD2
!define C_GREY6 BDC3C7
!define C_LINK 3498DB
!define C_USE 27AE60

skinparam Shadowing false
skinparam ClassFontStyle italic
skinparam ClassBorderColor #D4AC0D
skinparam stereotypeABorderColor #A9DCDF
skinparam stereotypeIBorderColor #B4A7E5
skinparam stereotypeCBorderColor #ADD1B2
skinparam stereotypeEBorderColor #EB93DF
' Red
skinparam ClassBackgroundColor<<red>> #FDEDEC
skinparam ClassBorderColor<<red>> #E74C3C
hide <<red>> stereotype
' Purple
skinparam ClassBackgroundColor<<purple>> #F4ECF7
skinparam ClassBorderColor<<purple>> #8E44AD
hide <<purple>> stereotype
' blue
skinparam ClassBackgroundColor<<blue>> #EBF5FB
skinparam ClassBorderColor<<blue>> #3498DB
hide <<blue>> stereotype
' Green
skinparam ClassBackgroundColor<<green>> #E9F7EF
skinparam ClassBorderColor<<green>> #27AE60
hide <<green>> stereotype
' Grey
skinparam ClassBackgroundColor<<grey>> #EAECEE
skinparam ClassBorderColor<<grey>> #2C3E50
hide <<grey>> stereotype

' == CONTENT ==

package "org.calypsonet.terminal.calypso" as api {

    package transaction {

        +abstract class "<<RuntimeException>>\nCalypsoCardTransactionException" as CalypsoCardTransactionException {
            +CalypsoCardTransactionException (String message)
            +CalypsoCardTransactionException (String message, Throwable cause)
        }

        +class "CalypsoAtomicTransactionException" as CalypsoAtomicTransactionException extends CalypsoCardTransactionException {
            +CalypsoAtomicTransactionException (
                \tString message)
        }
        note bottom of CalypsoAtomicTransactionException: Session buffer would overflow for atomic transaction

        +class "CalypsoAuthenticationNotVerifiedException" as CalypsoAuthenticationNotVerifiedException extends CalypsoCardTransactionException {
            +CalypsoAuthenticationNotVerifiedException (
                \tString message)
            +CalypsoAuthenticationNotVerifiedException (
                \tString message, Throwable cause)
        }
        note bottom of CalypsoAuthenticationNotVerifiedException: R-APDU of CloseSecureSession eq 9000 but SAM no more available

        +class "CalypsoCardAnomalyException" as CalypsoCardAnomalyException extends CalypsoCardTransactionException {
            +CalypsoCardAnomalyException (
                \tString message, Throwable cause)
        }
        note bottom of CalypsoCardAnomalyException: Unexpected Card behaviour

        +class "CalypsoCardCloseSecureSessionException" as CalypsoCardCloseSecureSessionException extends CalypsoCardTransactionException {
            +CalypsoCardCloseSecureSessionException (
                \tString message, Throwable cause)
        }
        note bottom of CalypsoCardCloseSecureSessionException: R-APDU of CloseSecureSession != 9000

        +class "CalypsoCardIOException" as CalypsoCardIOException extends CalypsoCardTransactionException {
            +CalypsoCardIOException (
                \tString message)
            +CalypsoCardIOException (
                \tString message, Throwable cause)
        }

        +class "CalypsoCardRevokedException" as CalypsoCardRevokedException extends CalypsoCardTransactionException {
            +CalypsoCardRevokedException (
                \tString message)
        }

        +class "CalypsoCardTransactionIllegalStateException" as CalypsoCardTransactionIllegalStateException extends CalypsoCardTransactionException {
            +CalypsoCardTransactionIllegalStateException (
                \tString message)
            +++ A SUPPRIMER
        }

        +class "CalypsoDesynchronizedExchangesException" as CalypsoDesynchronizedExchangesException extends CalypsoCardTransactionException {
            +CalypsoDesynchronizedExchangesException (
                \tString message)
        }
        note bottom of CalypsoDesynchronizedExchangesException: R-APDU number != C-APDU number

        +class "CalypsoInconsistencyDataException" as CalypsoInconsistencyDataException extends CalypsoCardTransactionException {
            +CalypsoInconsistencyDataException (
                \tString message)
        }
        note bottom of CalypsoInconsistencyDataException: Data read in session != Data read outside session

        +class "CalypsoSamAnomalyException" as CalypsoSamAnomalyException extends CalypsoCardTransactionException {
            +CalypsoSamAnomalyException (
                \tString message, Throwable cause)
        }
        note bottom of CalypsoSamAnomalyException: Unexpected SAM behaviour

        +class "CalypsoSamIOException" as CalypsoSamIOException extends CalypsoCardTransactionException {
            +CalypsoSamIOException (
                \tString message)
            +CalypsoSamIOException (
                \tString message, Throwable cause)
        }

        +class "CalypsoSamRevokedException" as CalypsoSamRevokedException extends CalypsoCardTransactionException {
            +CalypsoSamRevokedException (
                \tString message)
        }

        +class "CalypsoSessionAuthenticationException" as CalypsoSessionAuthenticationException extends CalypsoCardTransactionException {
            +CalypsoSessionAuthenticationException (
                \tString message)
            +CalypsoSessionAuthenticationException (
                \tString message, Throwable cause)
        }
        note bottom of CalypsoSessionAuthenticationException: R-APDU of DigestAuthenticate eq 6985

        +class "CalypsoSvAuthenticationException" as CalypsoSvAuthenticationException extends CalypsoCardTransactionException {
            +CalypsoSvAuthenticationException (
                \tString message)
            +CalypsoSvAuthenticationException (
                \tString message, Throwable cause)
        }
        note bottom of CalypsoSvAuthenticationException: R-APDU of SvCheck eq 6985

        +class "CalypsoUnauthorizedKvcException" as CalypsoUnauthorizedKvcException extends CalypsoCardTransactionException {
            +CalypsoUnauthorizedKvcException (
                \tString message)
        }

    }
}

' Associations

' == LAYOUT ==

'CalypsoCardTransactionException -[hidden]left- CalypsoAtomicTransactionException

' == STYLE ==

package api #C_GREY1 {}
package transaction #C_GREY2 {}


@enduml

@startuml
title
    Calypsonet - Exceptions of calypsonet-terminal-calypso-java-api - 1.0 (07/06/2021)
end title



skinparam Shadowing false
skinparam ClassFontStyle italic
skinparam ClassBorderColor #D4AC0D
skinparam stereotypeABorderColor #A9DCDF
skinparam stereotypeIBorderColor #B4A7E5
skinparam stereotypeCBorderColor #ADD1B2
skinparam stereotypeEBorderColor #EB93DF
skinparam ClassBackgroundColor<<red>> #FDEDEC
skinparam ClassBorderColor<<red>> #E74C3C
hide <<red>> stereotype
skinparam ClassBackgroundColor<<purple>> #F4ECF7
skinparam ClassBorderColor<<purple>> #8E44AD
hide <<purple>> stereotype
skinparam ClassBackgroundColor<<blue>> #EBF5FB
skinparam ClassBorderColor<<blue>> #3498DB
hide <<blue>> stereotype
skinparam ClassBackgroundColor<<green>> #E9F7EF
skinparam ClassBorderColor<<green>> #27AE60
hide <<green>> stereotype
skinparam ClassBackgroundColor<<grey>> #EAECEE
skinparam ClassBorderColor<<grey>> #2C3E50
hide <<grey>> stereotype


package "org.calypsonet.terminal.calypso" as api {

    package transaction {

        +abstract class "<<RuntimeException>>\nCalypsoCardTransactionException" as CalypsoCardTransactionException {
            +CalypsoCardTransactionException (String message)
            +CalypsoCardTransactionException (String message, Throwable cause)
        }

        +class "CalypsoAtomicTransactionException" as CalypsoAtomicTransactionException extends CalypsoCardTransactionException {
            +CalypsoAtomicTransactionException (
                \tString message)
        }
        note bottom of CalypsoAtomicTransactionException: Session buffer would overflow for atomic transaction

        +class "CalypsoAuthenticationNotVerifiedException" as CalypsoAuthenticationNotVerifiedException extends CalypsoCardTransactionException {
            +CalypsoAuthenticationNotVerifiedException (
                \tString message)
            +CalypsoAuthenticationNotVerifiedException (
                \tString message, Throwable cause)
        }
        note bottom of CalypsoAuthenticationNotVerifiedException: R-APDU of CloseSecureSession eq 9000 but SAM no more available

        +class "CalypsoCardAnomalyException" as CalypsoCardAnomalyException extends CalypsoCardTransactionException {
            +CalypsoCardAnomalyException (
                \tString message, Throwable cause)
        }
        note bottom of CalypsoCardAnomalyException: Unexpected Card behaviour

        +class "CalypsoCardCloseSecureSessionException" as CalypsoCardCloseSecureSessionException extends CalypsoCardTransactionException {
            +CalypsoCardCloseSecureSessionException (
                \tString message, Throwable cause)
        }
        note bottom of CalypsoCardCloseSecureSessionException: R-APDU of CloseSecureSession != 9000

        +class "CalypsoCardIOException" as CalypsoCardIOException extends CalypsoCardTransactionException {
            +CalypsoCardIOException (
                \tString message)
            +CalypsoCardIOException (
                \tString message, Throwable cause)
        }

        +class "CalypsoCardRevokedException" as CalypsoCardRevokedException extends CalypsoCardTransactionException {
            +CalypsoCardRevokedException (
                \tString message)
        }

        +class "CalypsoCardTransactionIllegalStateException" as CalypsoCardTransactionIllegalStateException extends CalypsoCardTransactionException {
            +CalypsoCardTransactionIllegalStateException (
                \tString message)
            +++ A SUPPRIMER
        }

        +class "CalypsoDesynchronizedExchangesException" as CalypsoDesynchronizedExchangesException extends CalypsoCardTransactionException {
            +CalypsoDesynchronizedExchangesException (
                \tString message)
        }
        note bottom of CalypsoDesynchronizedExchangesException: R-APDU number != C-APDU number

        +class "CalypsoInconsistencyDataException" as CalypsoInconsistencyDataException extends CalypsoCardTransactionException {
            +CalypsoInconsistencyDataException (
                \tString message)
        }
        note bottom of CalypsoInconsistencyDataException: Data read in session != Data read outside session

        +class "CalypsoSamAnomalyException" as CalypsoSamAnomalyException extends CalypsoCardTransactionException {
            +CalypsoSamAnomalyException (
                \tString message, Throwable cause)
        }
        note bottom of CalypsoSamAnomalyException: Unexpected SAM behaviour

        +class "CalypsoSamIOException" as CalypsoSamIOException extends CalypsoCardTransactionException {
            +CalypsoSamIOException (
                \tString message)
            +CalypsoSamIOException (
                \tString message, Throwable cause)
        }

        +class "CalypsoSamRevokedException" as CalypsoSamRevokedException extends CalypsoCardTransactionException {
            +CalypsoSamRevokedException (
                \tString message)
        }

        +class "CalypsoSessionAuthenticationException" as CalypsoSessionAuthenticationException extends CalypsoCardTransactionException {
            +CalypsoSessionAuthenticationException (
                \tString message)
            +CalypsoSessionAuthenticationException (
                \tString message, Throwable cause)
        }
        note bottom of CalypsoSessionAuthenticationException: R-APDU of DigestAuthenticate eq 6985

        +class "CalypsoSvAuthenticationException" as CalypsoSvAuthenticationException extends CalypsoCardTransactionException {
            +CalypsoSvAuthenticationException (
                \tString message)
            +CalypsoSvAuthenticationException (
                \tString message, Throwable cause)
        }
        note bottom of CalypsoSvAuthenticationException: R-APDU of SvCheck eq 6985

        +class "CalypsoUnauthorizedKvcException" as CalypsoUnauthorizedKvcException extends CalypsoCardTransactionException {
            +CalypsoUnauthorizedKvcException (
                \tString message)
        }

    }
}





package api #F8F9F9 {}
package transaction #F2F3F4 {}


@enduml

PlantUML version 1.2021.7(Sun May 23 14:40:07 CEST 2021)
(GPL source distribution)
Java Runtime: OpenJDK Runtime Environment
JVM: Dynamic Code Evolution 64-Bit Server VM
Default Encoding: Cp1252
Language: fr
Country: FR
--></g></svg>