<?xml version="1.0" encoding="UTF-8" standalone="no"?><svg xmlns="http://www.w3.org/2000/svg" xmlns:xlink="http://www.w3.org/1999/xlink" contentScriptType="application/ecmascript" contentStyleType="text/css" height="2240px" preserveAspectRatio="none" style="width:2690px;height:2240px;background:#FFFFFF;" version="1.1" viewBox="0 0 2690 2240" width="2690px" zoomAndPan="magnify"><defs><filter height="1" id="b1u864dqa836d0" width="1" x="0" y="0"><feFlood flood-color="#FFFF00" result="flood"/><feComposite in="SourceGraphic" in2="flood" operator="over"/></filter><filter height="1" id="b1u864dqa836d1" width="1" x="0" y="0"><feFlood flood-color="#00FFFF" result="flood"/><feComposite in="SourceGraphic" in2="flood" operator="over"/></filter><filter height="1" id="b1u864dqa836d2" width="1" x="0" y="0"><feFlood flood-color="#FFA500" result="flood"/><feComposite in="SourceGraphic" in2="flood" operator="over"/></filter></defs><g><text fill="#000000" font-family="sans-serif" font-size="45" lengthAdjust="spacing" textLength="1135" x="761.25" y="46.7139">Keyple 2.0 - Generic Card Extension - 2.0.0 (15/06/2021)</text><rect fill="#DDDDDD" height="245.1172" rx="12.5" ry="12.5" style="stroke:#000000;stroke-width:2.5;" width="720" x="967.5" y="76.6016"/><text fill="#000000" font-family="sans-serif" font-size="35" lengthAdjust="spacing" text-decoration="underline" textLength="220" x="982.5" y="125.4346">Colors legend</text><text fill="#000000" font-family="sans-serif" font-size="35" lengthAdjust="spacing" textLength="10" x="1212.5" y="125.4346">:</text><ellipse cx="996.25" cy="158.3984" fill="#000000" rx="6.25" ry="6.25" style="stroke:#000000;stroke-width:0.0;"/><text fill="#000000" font-family="sans-serif" font-size="35" lengthAdjust="spacing" text-decoration="underline" textLength="370" x="1015" y="169.458">External API references</text><text fill="#000000" font-family="sans-serif" font-size="35" lengthAdjust="spacing" textLength="10" x="1395" y="169.458">:</text><rect fill="#000000" height="8.75" style="stroke:#000000;stroke-width:0.0;" width="8.75" x="1035" y="201.1719"/><text fill="#000000" filter="url(#b1u864dqa836d0)" font-family="sans-serif" font-size="35" font-weight="bold" lengthAdjust="spacing" textLength="625" x="1047.5" y="213.4814">calypsonet-terminal-reader-java-api</text><rect fill="#000000" height="8.75" style="stroke:#000000;stroke-width:0.0;" width="8.75" x="1035" y="245.1953"/><text fill="#000000" filter="url(#b1u864dqa836d1)" font-family="sans-serif" font-size="35" font-weight="bold" lengthAdjust="spacing" textLength="425" x="1047.5" y="257.5049">keyple-common-java-api</text><rect fill="#000000" height="8.75" style="stroke:#000000;stroke-width:0.0;" width="8.75" x="1035" y="289.2188"/><text fill="#000000" filter="url(#b1u864dqa836d2)" font-family="sans-serif" font-size="35" font-weight="bold" lengthAdjust="spacing" textLength="572.5" x="1047.5" y="301.5283">keyple-service-resource-java-lib</text><!--MD5=[875036ddd828b40c6101a9eb7a1ba899]
cluster generic--><polygon fill="#F8F9F9" points="40,359.2188,610,359.2188,627.5,418.2422,2647.5,418.2422,2647.5,2224.2188,40,2224.2188,40,359.2188" style="stroke:#000000;stroke-width:3.75;"/><line style="stroke:#000000;stroke-width:3.75;" x1="40" x2="627.5" y1="418.2422" y2="418.2422"/><text fill="#000000" font-family="sans-serif" font-size="35" font-weight="bold" lengthAdjust="spacing" textLength="555" x="50" y="400.5518">org.eclipse.keyple.card.generic</text><!--MD5=[ed985e6df89868aa173b0e831715418f]
class GenericExtensionService--><rect codeLine="56" fill="#FEFECE" height="496.3672" id="GenericExtensionService" style="stroke:#D4AC0D;stroke-width:3.75;" width="1440" x="685" y="449.2188"/><ellipse cx="1174.375" cy="499.4531" fill="#ADD1B2" rx="27.5" ry="27.5" style="stroke:#ADD1B2;stroke-width:2.5;"/><path d="M1179.375,490.7031 Q1179.8828,489.4531 1180.4688,488.8281 Q1181.0547,488.2031 1181.7188,488.2031 Q1182.8906,488.2031 1183.6328,488.9063 Q1184.375,489.6094 1184.375,491.25 L1184.375,495.1563 Q1184.375,496.7969 1183.6719,497.5 Q1182.9688,498.2031 1181.875,498.2031 Q1180.8984,498.2031 1180.2734,497.7734 Q1179.6484,497.3438 1179.375,496.2109 Q1179.2578,495.4297 1178.8281,495 Q1178.0469,494.1797 1176.6406,493.7109 Q1175.2344,493.2031 1173.8281,493.2031 Q1172.0703,493.2031 1170.5859,493.9063 Q1169.1406,494.6094 1168.0078,496.1719 Q1166.875,497.7344 1166.875,499.8828 L1166.875,502.1875 Q1166.875,504.7656 1168.9844,506.4844 Q1171.0938,508.2031 1174.8438,508.2031 Q1177.0703,508.2031 1178.6328,507.6953 Q1179.5313,507.4219 1180.5469,506.5234 Q1181.2109,506.0156 1181.5625,505.8594 Q1181.9141,505.7031 1182.3438,505.7031 Q1183.1641,505.7031 1183.75,506.3672 Q1184.375,506.9922 1184.375,507.8906 Q1184.375,508.75 1183.5156,509.7656 Q1182.2656,511.25 1180.2734,512.0703 Q1177.6563,513.2031 1174.4531,513.2031 Q1170.7031,513.2031 1167.6953,511.7188 Q1165.2734,510.5469 1163.5547,508.0078 Q1161.875,505.4688 1161.875,502.4609 L1161.875,499.7266 Q1161.875,496.6016 1163.3594,493.8672 Q1164.8828,491.1328 1167.5,489.6875 Q1170.1563,488.2031 1173.125,488.2031 Q1174.9219,488.2031 1176.4844,488.8281 Q1178.0469,489.4531 1179.375,490.7031 Z " fill="#000000"/><ellipse cx="1238.125" cy="498.2031" fill="#84BE84" rx="7.5" ry="7.5" style="stroke:#038048;stroke-width:2.5;"/><text fill="#000000" font-family="sans-serif" font-size="30" font-style="italic" lengthAdjust="spacing" textLength="35" x="1275.625" y="492.8613">&lt;&lt;</text><text fill="#000000" filter="url(#b1u864dqa836d1)" font-family="sans-serif" font-size="30" font-style="italic" lengthAdjust="spacing" textLength="297.5" x="1310.625" y="492.8613">KeypleCardExtension</text><text fill="#000000" font-family="sans-serif" font-size="30" font-style="italic" lengthAdjust="spacing" textLength="35" x="1608.125" y="492.8613">&gt;&gt;</text><text fill="#000000" font-family="sans-serif" font-size="30" font-style="italic" font-weight="bold" lengthAdjust="spacing" textLength="60" x="1253.125" y="530.5957">final</text><text fill="#000000" font-family="sans-serif" font-size="30" font-style="italic" lengthAdjust="spacing" textLength="345" x="1320.625" y="530.5957">GenericExtensionService</text><line style="stroke:#D4AC0D;stroke-width:3.75;" x1="687.5" x2="2122.5" y1="549.6875" y2="549.6875"/><line style="stroke:#D4AC0D;stroke-width:2.5;" x1="687.5" x2="2122.5" y1="569.6875" y2="569.6875"/><ellipse cx="712.5" cy="597.1875" fill="#84BE84" rx="7.5" ry="7.5" style="stroke:#038048;stroke-width:2.5;"/><text fill="#000000" font-family="sans-serif" font-size="27.5" lengthAdjust="spacing" text-decoration="underline" textLength="480" x="735" y="608.2349">GenericExtensionService getInstance ()</text><text fill="#000000" font-family="sans-serif" font-size="27.5" lengthAdjust="spacing" textLength="0" x="742.5" y="642.8247"/><ellipse cx="712.5" cy="666.3672" fill="#84BE84" rx="7.5" ry="7.5" style="stroke:#038048;stroke-width:2.5;"/><text fill="#000000" font-family="sans-serif" font-size="27.5" lengthAdjust="spacing" textLength="542.5" x="735" y="677.4146">GenericCardSelection createCardSelection ()</text><ellipse cx="712.5" cy="700.957" fill="#84BE84" rx="7.5" ry="7.5" style="stroke:#038048;stroke-width:2.5;"/><text fill="#000000" filter="url(#b1u864dqa836d2)" font-family="sans-serif" font-size="27.5" lengthAdjust="spacing" textLength="367.5" x="735" y="712.0044">CardResourceProfileExtension</text><text fill="#000000" font-family="sans-serif" font-size="27.5" lengthAdjust="spacing" textLength="1000" x="1110" y="712.0044">createCardResourceProfileExtension (GenericCardSelection genericCardSelection)</text><ellipse cx="712.5" cy="735.5469" fill="#84BE84" rx="7.5" ry="7.5" style="stroke:#038048;stroke-width:2.5;"/><text fill="#000000" font-family="sans-serif" font-size="27.5" lengthAdjust="spacing" textLength="607.5" x="735" y="746.5942">CardTransactionManager createCardTransaction (</text><text fill="#000000" filter="url(#b1u864dqa836d0)" font-family="sans-serif" font-size="27.5" lengthAdjust="spacing" textLength="145" x="1342.5" y="746.5942">CardReader</text><text fill="#000000" font-family="sans-serif" font-size="27.5" lengthAdjust="spacing" textLength="87.5" x="1495" y="746.5942">reader,</text><text fill="#000000" filter="url(#b1u864dqa836d0)" font-family="sans-serif" font-size="27.5" lengthAdjust="spacing" textLength="127.5" x="1590" y="746.5942">SmartCard</text><text fill="#000000" font-family="sans-serif" font-size="27.5" lengthAdjust="spacing" textLength="65" x="1725" y="746.5942">card)</text><text fill="#000000" font-family="sans-serif" font-size="27.5" lengthAdjust="spacing" textLength="0" x="742.5" y="781.1841"/><ellipse cx="712.5" cy="849.3164" fill="#84BE84" rx="7.5" ry="7.5" style="stroke:#038048;stroke-width:2.5;"/><text fill="#000000" font-family="sans-serif" font-size="27.5" lengthAdjust="spacing" textLength="335" x="735" y="860.3638">String getCardApiVersion ()</text><ellipse cx="712.5" cy="883.9063" fill="#84BE84" rx="7.5" ry="7.5" style="stroke:#038048;stroke-width:2.5;"/><text fill="#000000" font-family="sans-serif" font-size="27.5" lengthAdjust="spacing" textLength="365" x="735" y="894.9536">String getReaderApiVersion ()</text><ellipse cx="712.5" cy="918.4961" fill="#84BE84" rx="7.5" ry="7.5" style="stroke:#038048;stroke-width:2.5;"/><text fill="#000000" font-family="sans-serif" font-size="27.5" lengthAdjust="spacing" textLength="395" x="735" y="929.5435">String getCommonsApiVersion ()</text><line style="stroke:#D4AC0D;stroke-width:2.5;" x1="687.5" x2="1258.75" y1="814.5215" y2="814.5215"/><text fill="#000000" font-family="sans-serif" font-size="27.5" font-weight="bold" lengthAdjust="spacing" textLength="292.5" x="1258.75" y="824.5239">KeypleCardExtension</text><line style="stroke:#D4AC0D;stroke-width:2.5;" x1="1551.25" x2="2122.5" y1="814.5215" y2="814.5215"/><!--MD5=[92be3b4089a2693ac3db71f8eb03f488]
class CardTransactionManager--><rect codeLine="69" fill="#FEFECE" height="396.7188" id="CardTransactionManager" style="stroke:#D4AC0D;stroke-width:3.75;" width="1240" x="80" y="1237.9688"/><ellipse cx="501.875" cy="1277.9688" fill="#B4A7E5" rx="27.5" ry="27.5" style="stroke:#B4A7E5;stroke-width:2.5;"/><path d="M504.375,1270.4688 L504.375,1285.4688 L509.375,1285.4688 L510.5859,1285.4688 L511.875,1287.0313 L511.875,1287.9688 L511.875,1288.9063 L510.5859,1290.4688 L509.375,1290.4688 L494.375,1290.4688 L493.1641,1290.4688 L491.875,1288.9063 L491.875,1287.9688 L491.875,1287.0313 L493.1641,1285.4688 L494.375,1285.4688 L499.375,1285.4688 L499.375,1270.4688 L494.375,1270.4688 L493.1641,1270.4688 L491.875,1268.9063 L491.875,1267.9688 L491.875,1267.0313 L493.1641,1265.4688 L494.375,1265.4688 L509.375,1265.4688 L510.5859,1265.4688 L511.875,1267.0313 L511.875,1267.9688 L511.875,1268.9063 L510.5859,1270.4688 L509.375,1270.4688 L504.375,1270.4688 Z " fill="#000000"/><ellipse cx="565.625" cy="1276.7188" fill="#84BE84" rx="7.5" ry="7.5" style="stroke:#038048;stroke-width:2.5;"/><text fill="#000000" font-family="sans-serif" font-size="30" font-style="italic" lengthAdjust="spacing" textLength="347.5" x="580.625" y="1290.2441">CardTransactionManager</text><line style="stroke:#D4AC0D;stroke-width:3.75;" x1="82.5" x2="1317.5" y1="1317.9688" y2="1317.9688"/><line style="stroke:#D4AC0D;stroke-width:3.75;" x1="82.5" x2="1317.5" y1="1337.9688" y2="1337.9688"/><ellipse cx="107.5" cy="1365.4688" fill="#84BE84" rx="7.5" ry="7.5" style="stroke:#038048;stroke-width:2.5;"/><text fill="#000000" font-family="sans-serif" font-size="27.5" lengthAdjust="spacing" textLength="755" x="130" y="1376.5161">CardTransactionManager prepareApdu (String apduCommand)</text><ellipse cx="107.5" cy="1400.0586" fill="#84BE84" rx="7.5" ry="7.5" style="stroke:#038048;stroke-width:2.5;"/><text fill="#000000" font-family="sans-serif" font-size="27.5" lengthAdjust="spacing" textLength="752.5" x="130" y="1411.106">CardTransactionManager prepareApdu (byte[] apduCommand)</text><ellipse cx="107.5" cy="1434.6484" fill="#84BE84" rx="7.5" ry="7.5" style="stroke:#038048;stroke-width:2.5;"/><text fill="#000000" font-family="sans-serif" font-size="27.5" lengthAdjust="spacing" textLength="1175" x="130" y="1445.6958">CardTransactionManager prepareApdu (byte cla, byte ins, byte p1, byte p2, byte[] dataIn, Byte le)</text><text fill="#000000" font-family="sans-serif" font-size="27.5" lengthAdjust="spacing" textLength="0" x="137.5" y="1480.2856"/><ellipse cx="107.5" cy="1503.8281" fill="#84BE84" rx="7.5" ry="7.5" style="stroke:#038048;stroke-width:2.5;"/><text fill="#000000" font-family="sans-serif" font-size="27.5" lengthAdjust="spacing" textLength="630" x="130" y="1514.8755">CardTransactionManager prepareReleaseChannel ()</text><text fill="#000000" font-family="sans-serif" font-size="27.5" lengthAdjust="spacing" textLength="0" x="137.5" y="1549.4653"/><ellipse cx="107.5" cy="1573.0078" fill="#84BE84" rx="7.5" ry="7.5" style="stroke:#038048;stroke-width:2.5;"/><text fill="#000000" font-family="sans-serif" font-size="27.5" lengthAdjust="spacing" textLength="887.5" x="130" y="1584.0552">List&lt;byte[]&gt; processApdusToByteArrays () throws TransactionException</text><ellipse cx="107.5" cy="1607.5977" fill="#84BE84" rx="7.5" ry="7.5" style="stroke:#038048;stroke-width:2.5;"/><text fill="#000000" font-family="sans-serif" font-size="27.5" lengthAdjust="spacing" textLength="882.5" x="130" y="1618.645">List&lt;String&gt; processApdusToHexStrings () throws TransactionException</text><!--MD5=[2fa782290b141d1d8079d545e6a30302]
class GenericCardSelection--><rect codeLine="79" fill="#FEFECE" height="590.1367" id="GenericCardSelection" style="stroke:#D4AC0D;stroke-width:3.75;" width="1197.5" x="1408.75" y="1141.7188"/><ellipse cx="1831.875" cy="1191.9531" fill="#B4A7E5" rx="27.5" ry="27.5" style="stroke:#B4A7E5;stroke-width:2.5;"/><path d="M1834.375,1184.4531 L1834.375,1199.4531 L1839.375,1199.4531 L1840.5859,1199.4531 L1841.875,1201.0156 L1841.875,1201.9531 L1841.875,1202.8906 L1840.5859,1204.4531 L1839.375,1204.4531 L1824.375,1204.4531 L1823.1641,1204.4531 L1821.875,1202.8906 L1821.875,1201.9531 L1821.875,1201.0156 L1823.1641,1199.4531 L1824.375,1199.4531 L1829.375,1199.4531 L1829.375,1184.4531 L1824.375,1184.4531 L1823.1641,1184.4531 L1821.875,1182.8906 L1821.875,1181.9531 L1821.875,1181.0156 L1823.1641,1179.4531 L1824.375,1179.4531 L1839.375,1179.4531 L1840.5859,1179.4531 L1841.875,1181.0156 L1841.875,1181.9531 L1841.875,1182.8906 L1840.5859,1184.4531 L1839.375,1184.4531 L1834.375,1184.4531 Z " fill="#000000"/><ellipse cx="1895.625" cy="1190.7031" fill="#84BE84" rx="7.5" ry="7.5" style="stroke:#038048;stroke-width:2.5;"/><text fill="#000000" font-family="sans-serif" font-size="30" font-style="italic" lengthAdjust="spacing" textLength="35" x="1929.375" y="1185.3613">&lt;&lt;</text><text fill="#000000" filter="url(#b1u864dqa836d0)" font-family="sans-serif" font-size="30" font-style="italic" lengthAdjust="spacing" textLength="195" x="1964.375" y="1185.3613">CardSelection</text><text fill="#000000" font-family="sans-serif" font-size="30" font-style="italic" lengthAdjust="spacing" textLength="35" x="2159.375" y="1185.3613">&gt;&gt;</text><text fill="#000000" font-family="sans-serif" font-size="30" font-style="italic" lengthAdjust="spacing" textLength="302.5" x="1910.625" y="1223.0957">GenericCardSelection</text><line style="stroke:#D4AC0D;stroke-width:3.75;" x1="1411.25" x2="2603.75" y1="1242.1875" y2="1242.1875"/><line style="stroke:#D4AC0D;stroke-width:3.75;" x1="1411.25" x2="2603.75" y1="1262.1875" y2="1262.1875"/><ellipse cx="1436.25" cy="1289.6875" fill="#84BE84" rx="7.5" ry="7.5" style="stroke:#038048;stroke-width:2.5;"/><text fill="#000000" font-family="sans-serif" font-size="27.5" lengthAdjust="spacing" textLength="767.5" x="1458.75" y="1300.7349">GenericCardSelection filterByCardProtocol (String cardProtocol)</text><text fill="#000000" font-family="sans-serif" font-size="27.5" lengthAdjust="spacing" textLength="0" x="1466.25" y="1335.3247"/><ellipse cx="1436.25" cy="1358.8672" fill="#84BE84" rx="7.5" ry="7.5" style="stroke:#038048;stroke-width:2.5;"/><text fill="#000000" font-family="sans-serif" font-size="27.5" lengthAdjust="spacing" textLength="877.5" x="1458.75" y="1369.9146">GenericCardSelection filterByPowerOnData (String powerOnDataRegex)</text><text fill="#000000" font-family="sans-serif" font-size="27.5" lengthAdjust="spacing" textLength="0" x="1466.25" y="1404.5044"/><ellipse cx="1436.25" cy="1428.0469" fill="#84BE84" rx="7.5" ry="7.5" style="stroke:#038048;stroke-width:2.5;"/><text fill="#000000" font-family="sans-serif" font-size="27.5" lengthAdjust="spacing" textLength="587.5" x="1458.75" y="1439.0942">GenericCardSelection filterByDfName (byte[] aid)</text><ellipse cx="1436.25" cy="1462.6367" fill="#84BE84" rx="7.5" ry="7.5" style="stroke:#038048;stroke-width:2.5;"/><text fill="#000000" font-family="sans-serif" font-size="27.5" lengthAdjust="spacing" textLength="590" x="1458.75" y="1473.6841">GenericCardSelection filterByDfName (String aid)</text><ellipse cx="1436.25" cy="1497.2266" fill="#84BE84" rx="7.5" ry="7.5" style="stroke:#038048;stroke-width:2.5;"/><text fill="#000000" font-family="sans-serif" font-size="27.5" lengthAdjust="spacing" textLength="892.5" x="1458.75" y="1508.2739">GenericCardSelection setFileOccurrence (FileOccurrence fileOccurrence)</text><ellipse cx="1436.25" cy="1531.8164" fill="#84BE84" rx="7.5" ry="7.5" style="stroke:#038048;stroke-width:2.5;"/><text fill="#000000" font-family="sans-serif" font-size="27.5" lengthAdjust="spacing" textLength="1110" x="1458.75" y="1542.8638">GenericCardSelection setFileControlInformation (FileControlInformation fileControlInformation)</text><ellipse cx="1436.25" cy="1566.4063" fill="#84BE84" rx="7.5" ry="7.5" style="stroke:#038048;stroke-width:2.5;"/><text fill="#000000" font-family="sans-serif" font-size="27.5" lengthAdjust="spacing" textLength="797.5" x="1458.75" y="1577.4536">GenericCardSelection addSuccessfulStatusWord (int statusWord)</text><text fill="#000000" font-family="sans-serif" font-size="27.5" lengthAdjust="spacing" textLength="0" x="1466.25" y="1612.0435"/><ellipse cx="1436.25" cy="1635.5859" fill="#84BE84" rx="7.5" ry="7.5" style="stroke:#038048;stroke-width:2.5;"/><text fill="#000000" font-family="sans-serif" font-size="27.5" lengthAdjust="spacing" textLength="592.5" x="1458.75" y="1646.6333">GenericCardSelection prepareApdu (byte[] apdu)</text><ellipse cx="1436.25" cy="1670.1758" fill="#84BE84" rx="7.5" ry="7.5" style="stroke:#038048;stroke-width:2.5;"/><text fill="#000000" font-family="sans-serif" font-size="27.5" lengthAdjust="spacing" textLength="595" x="1458.75" y="1681.2231">GenericCardSelection prepareApdu (String apdu)</text><ellipse cx="1436.25" cy="1704.7656" fill="#84BE84" rx="7.5" ry="7.5" style="stroke:#038048;stroke-width:2.5;"/><text fill="#000000" font-family="sans-serif" font-size="27.5" lengthAdjust="spacing" textLength="1132.5" x="1458.75" y="1715.813">GenericCardSelection prepareApdu (byte cla, byte ins, byte p1, byte p2, byte[] dataIn, Byte le)</text><!--MD5=[986279e3cfc2043660398b1cf71c65a2]
class FileOccurrence--><rect codeLine="94" fill="#FEFECE" height="258.3594" id="FileOccurrence" style="stroke:#D4AC0D;stroke-width:3.75;" width="315" x="1657.5" y="1926.7188"/><ellipse cx="1695" cy="1966.7188" fill="#EB937F" rx="27.5" ry="27.5" style="stroke:#EB93DF;stroke-width:2.5;"/><path d="M1691.25,1969.2188 L1691.25,1974.2188 L1701.25,1974.2188 L1701.25,1971.7188 L1701.25,1970.5078 L1702.8125,1969.2188 L1703.75,1969.2188 L1704.6875,1969.2188 L1706.25,1970.5078 L1706.25,1971.7188 L1706.25,1979.2188 L1686.25,1979.2188 L1685.0391,1979.2188 L1683.75,1977.6563 L1683.75,1976.7188 L1683.75,1975.7813 L1685.0391,1974.2188 L1686.25,1974.2188 L1686.25,1974.2188 L1686.25,1959.2188 L1686.25,1959.2188 L1685.0391,1959.2188 L1683.75,1957.6563 L1683.75,1956.7188 L1683.75,1955.7813 L1685.0391,1954.2188 L1686.25,1954.2188 L1706.25,1954.2188 L1706.25,1961.7188 L1706.25,1962.9297 L1704.6875,1964.2188 L1703.75,1964.2188 L1702.8125,1964.2188 L1701.25,1962.9297 L1701.25,1961.7188 L1701.25,1959.2188 L1691.25,1959.2188 L1691.25,1964.2188 L1693.75,1964.2188 L1693.75,1963.0078 L1693.75,1963.0078 L1695.3125,1961.7188 L1696.25,1961.7188 L1697.1875,1961.7188 L1698.75,1963.0078 L1698.75,1964.2188 L1698.75,1969.2188 L1698.75,1970.4297 L1697.1875,1971.7188 L1697.1875,1971.7188 L1696.25,1971.7188 L1695.3125,1971.7188 L1693.75,1970.4297 L1693.75,1970.4297 L1693.75,1969.2188 L1691.25,1969.2188 Z " fill="#000000"/><ellipse cx="1742.5" cy="1965.4688" fill="#84BE84" rx="7.5" ry="7.5" style="stroke:#038048;stroke-width:2.5;"/><text fill="#000000" font-family="sans-serif" font-size="30" font-style="italic" lengthAdjust="spacing" textLength="207.5" x="1757.5" y="1978.9941">FileOccurrence</text><line style="stroke:#D4AC0D;stroke-width:3.75;" x1="1660" x2="1970" y1="2006.7188" y2="2006.7188"/><text fill="#000000" font-family="sans-serif" font-size="27.5" lengthAdjust="spacing" textLength="70" x="1672.5" y="2045.2661">FIRST</text><text fill="#000000" font-family="sans-serif" font-size="27.5" lengthAdjust="spacing" textLength="67.5" x="1672.5" y="2079.856">LAST</text><text fill="#000000" font-family="sans-serif" font-size="27.5" lengthAdjust="spacing" textLength="65" x="1672.5" y="2114.4458">NEXT</text><text fill="#000000" font-family="sans-serif" font-size="27.5" lengthAdjust="spacing" textLength="127.5" x="1672.5" y="2149.0356">PREVIOUS</text><line style="stroke:#D4AC0D;stroke-width:3.75;" x1="1660" x2="1970" y1="2165.0781" y2="2165.0781"/><!--MD5=[7db03ef0d09735de9c956eac87f10fc3]
class FileControlInformation--><rect codeLine="100" fill="#FEFECE" height="258.3594" id="FileControlInformation" style="stroke:#D4AC0D;stroke-width:3.75;" width="415" x="2060" y="1926.7188"/><ellipse cx="2097.5" cy="1966.7188" fill="#EB937F" rx="27.5" ry="27.5" style="stroke:#EB93DF;stroke-width:2.5;"/><path d="M2093.75,1969.2188 L2093.75,1974.2188 L2103.75,1974.2188 L2103.75,1971.7188 L2103.75,1970.5078 L2105.3125,1969.2188 L2106.25,1969.2188 L2107.1875,1969.2188 L2108.75,1970.5078 L2108.75,1971.7188 L2108.75,1979.2188 L2088.75,1979.2188 L2087.5391,1979.2188 L2086.25,1977.6563 L2086.25,1976.7188 L2086.25,1975.7813 L2087.5391,1974.2188 L2088.75,1974.2188 L2088.75,1974.2188 L2088.75,1959.2188 L2088.75,1959.2188 L2087.5391,1959.2188 L2086.25,1957.6563 L2086.25,1956.7188 L2086.25,1955.7813 L2087.5391,1954.2188 L2088.75,1954.2188 L2108.75,1954.2188 L2108.75,1961.7188 L2108.75,1962.9297 L2107.1875,1964.2188 L2106.25,1964.2188 L2105.3125,1964.2188 L2103.75,1962.9297 L2103.75,1961.7188 L2103.75,1959.2188 L2093.75,1959.2188 L2093.75,1964.2188 L2096.25,1964.2188 L2096.25,1963.0078 L2096.25,1963.0078 L2097.8125,1961.7188 L2098.75,1961.7188 L2099.6875,1961.7188 L2101.25,1963.0078 L2101.25,1964.2188 L2101.25,1969.2188 L2101.25,1970.4297 L2099.6875,1971.7188 L2099.6875,1971.7188 L2098.75,1971.7188 L2097.8125,1971.7188 L2096.25,1970.4297 L2096.25,1970.4297 L2096.25,1969.2188 L2093.75,1969.2188 Z " fill="#000000"/><ellipse cx="2145" cy="1965.4688" fill="#84BE84" rx="7.5" ry="7.5" style="stroke:#038048;stroke-width:2.5;"/><text fill="#000000" font-family="sans-serif" font-size="30" font-style="italic" lengthAdjust="spacing" textLength="307.5" x="2160" y="1978.9941">FileControlInformation</text><line style="stroke:#D4AC0D;stroke-width:3.75;" x1="2062.5" x2="2472.5" y1="2006.7188" y2="2006.7188"/><text fill="#000000" font-family="sans-serif" font-size="27.5" lengthAdjust="spacing" textLength="37.5" x="2075" y="2045.2661">FCI</text><text fill="#000000" font-family="sans-serif" font-size="27.5" lengthAdjust="spacing" textLength="47.5" x="2075" y="2079.856">FCP</text><text fill="#000000" font-family="sans-serif" font-size="27.5" lengthAdjust="spacing" textLength="52.5" x="2075" y="2114.4458">FMD</text><text fill="#000000" font-family="sans-serif" font-size="27.5" lengthAdjust="spacing" textLength="187.5" x="2075" y="2149.0356">NO_RESPONSE</text><line style="stroke:#D4AC0D;stroke-width:3.75;" x1="2062.5" x2="2472.5" y1="2165.0781" y2="2165.0781"/><!--MD5=[c0018d25ad3b9acf88262da6846af6d6]
class TransactionException--><rect codeLine="106" fill="#FEFECE" height="209.6484" id="TransactionException" style="stroke:#D4AC0D;stroke-width:3.75;" width="767.5" x="316.25" y="1950.4688"/><ellipse cx="514.375" cy="2000.7031" fill="#ADD1B2" rx="27.5" ry="27.5" style="stroke:#ADD1B2;stroke-width:2.5;"/><path d="M519.375,1991.9531 Q519.8828,1990.7031 520.4688,1990.0781 Q521.0547,1989.4531 521.7188,1989.4531 Q522.8906,1989.4531 523.6328,1990.1563 Q524.375,1990.8594 524.375,1992.5 L524.375,1996.4063 Q524.375,1998.0469 523.6719,1998.75 Q522.9688,1999.4531 521.875,1999.4531 Q520.8984,1999.4531 520.2734,1999.0234 Q519.6484,1998.5938 519.375,1997.4609 Q519.2578,1996.6797 518.8281,1996.25 Q518.0469,1995.4297 516.6406,1994.9609 Q515.2344,1994.4531 513.8281,1994.4531 Q512.0703,1994.4531 510.5859,1995.1563 Q509.1406,1995.8594 508.0078,1997.4219 Q506.875,1998.9844 506.875,2001.1328 L506.875,2003.4375 Q506.875,2006.0156 508.9844,2007.7344 Q511.0938,2009.4531 514.8438,2009.4531 Q517.0703,2009.4531 518.6328,2008.9453 Q519.5313,2008.6719 520.5469,2007.7734 Q521.2109,2007.2656 521.5625,2007.1094 Q521.9141,2006.9531 522.3438,2006.9531 Q523.1641,2006.9531 523.75,2007.6172 Q524.375,2008.2422 524.375,2009.1406 Q524.375,2010 523.5156,2011.0156 Q522.2656,2012.5 520.2734,2013.3203 Q517.6563,2014.4531 514.4531,2014.4531 Q510.7031,2014.4531 507.6953,2012.9688 Q505.2734,2011.7969 503.5547,2009.2578 Q501.875,2006.7188 501.875,2003.7109 L501.875,2000.9766 Q501.875,1997.8516 503.3594,1995.1172 Q504.8828,1992.3828 507.5,1990.9375 Q510.1563,1989.4531 513.125,1989.4531 Q514.9219,1989.4531 516.4844,1990.0781 Q518.0469,1990.7031 519.375,1991.9531 Z " fill="#000000"/><ellipse cx="578.125" cy="1999.4531" fill="#84BE84" rx="7.5" ry="7.5" style="stroke:#038048;stroke-width:2.5;"/><text fill="#000000" font-family="sans-serif" font-size="30" font-style="italic" lengthAdjust="spacing" textLength="322.5" x="593.125" y="1994.1113">&lt;&lt;RuntimeException&gt;&gt;</text><text fill="#000000" font-family="sans-serif" font-size="30" font-style="italic" lengthAdjust="spacing" textLength="295" x="606.875" y="2031.8457">TransactionException</text><line style="stroke:#D4AC0D;stroke-width:3.75;" x1="318.75" x2="1081.25" y1="2050.9375" y2="2050.9375"/><line style="stroke:#D4AC0D;stroke-width:3.75;" x1="318.75" x2="1081.25" y1="2070.9375" y2="2070.9375"/><ellipse cx="343.75" cy="2098.4375" fill="#84BE84" rx="7.5" ry="7.5" style="stroke:#038048;stroke-width:2.5;"/><text fill="#000000" font-family="sans-serif" font-size="27.5" lengthAdjust="spacing" textLength="475" x="366.25" y="2109.4849">TransactionException (String message)</text><ellipse cx="343.75" cy="2133.0273" fill="#84BE84" rx="7.5" ry="7.5" style="stroke:#038048;stroke-width:2.5;"/><text fill="#000000" font-family="sans-serif" font-size="27.5" lengthAdjust="spacing" textLength="702.5" x="366.25" y="2144.0747">TransactionException (String message, Throwable cause)</text><!--MD5=[399a6a19a52bf9f5a2de73f234ef7796]
link GenericExtensionService to GenericCardSelection--><path codeLine="116" d="M1607.3,946.8388 C1655.975,1006.1163 1708.5275,1070.1163 1759.035,1131.6288 " fill="none" id="GenericExtensionService-to-GenericCardSelection" style="stroke:#3498DB;stroke-width:2.5;stroke-dasharray:7.0,7.0;"/><polygon fill="#3498DB" points="1767.125,1141.4788,1760.5757,1117.7436,1759.1928,1131.818,1745.1185,1130.4351,1767.125,1141.4788" style="stroke:#3498DB;stroke-width:2.5;"/><polygon fill="#000000" points="1707.9325,1054.3187,1699.2608,1032.1801,1687.9042,1041.5053,1707.9325,1054.3187" style="stroke:#000000;stroke-width:2.5;"/><text fill="#000000" font-family="sans-serif" font-size="32.5" lengthAdjust="spacing" textLength="90" x="1722.5" y="1057.9565">create</text><!--MD5=[fa9ad0176a5473d2e6181323950faf20]
link GenericExtensionService to CardTransactionManager--><path codeLine="117" d="M1168.285,946.8388 C1080.6725,1038.0238 982.325,1140.3813 898.46,1227.6663 " fill="none" id="GenericExtensionService-to-CardTransactionManager" style="stroke:#3498DB;stroke-width:2.5;stroke-dasharray:7.0,7.0;"/><polygon fill="#3498DB" points="889.35,1237.1463,912.1514,1227.8541,898.0121,1228.1341,897.732,1213.9948,889.35,1237.1463" style="stroke:#3498DB;stroke-width:2.5;"/><polygon fill="#000000" points="1096.3395,1053.6718,1117.3046,1042.4565,1106.7084,1032.2755,1096.3395,1053.6718" style="stroke:#000000;stroke-width:2.5;"/><text fill="#000000" font-family="sans-serif" font-size="32.5" lengthAdjust="spacing" textLength="90" x="1127.5" y="1057.9565">create</text><!--MD5=[e7ea6c21eacd2abf2e949c3da4598ddc]
reverse link GenericCardSelection to FileOccurrence--><path codeLine="119" d="M1848.9525,1768.1463 C1844.7725,1781.0563 1840.93,1793.9413 1837.5,1806.7188 C1827.2625,1844.8638 1821.4775,1887.3962 1818.2675,1926.2338 " fill="none" id="GenericCardSelection-backto-FileOccurrence" style="stroke:#A80036;stroke-width:2.5;"/><ellipse cx="1855.0036" cy="1750.6795" fill="#FFFFFF" rx="20" ry="20" style="stroke:#A80036;stroke-width:2.5;"/><line style="stroke:#A80036;stroke-width:2.5;" x1="1848.4572" x2="1861.55" y1="1769.5778" y2="1731.7813"/><line style="stroke:#A80036;stroke-width:2.5;" x1="1836.1053" x2="1873.9019" y1="1744.1331" y2="1757.2259"/><!--MD5=[bfc4bc77c8b422c60992174a83839da8]
link GenericCardSelection to FileOccurrence--><path codeLine="120" d="M1915.4775,1732.6113 C1895.6175,1795.9338 1875.5175,1860.0238 1858.565,1914.0688 " fill="none" id="GenericCardSelection-to-FileOccurrence" style="stroke:#27AE60;stroke-width:2.5;stroke-dasharray:7.0,7.0;"/><polygon fill="#27AE60" points="1854.775,1926.1538,1871.0489,1907.6765,1858.515,1914.2264,1851.9652,1901.6925,1854.775,1926.1538" style="stroke:#27AE60;stroke-width:2.5;"/><polygon fill="#000000" points="1896.2592,1841.5853,1910.037,1822.2078,1896.0158,1817.8102,1896.2592,1841.5853" style="stroke:#000000;stroke-width:2.5;"/><text fill="#000000" font-family="sans-serif" font-size="32.5" lengthAdjust="spacing" textLength="52.5" x="1922.5" y="1842.9565">use</text><!--MD5=[6d7ea8feccffe5b7788b969fe7bacbb7]
reverse link GenericCardSelection to FileControlInformation--><path codeLine="121" d="M2056.83,1768.5813 C2066.055,1797.3663 2077.0025,1825.4913 2090,1851.7188 C2102.825,1877.5987 2119.85,1902.7488 2138.2875,1926.0012 " fill="none" id="GenericCardSelection-backto-FileControlInformation" style="stroke:#A80036;stroke-width:2.5;"/><ellipse cx="2051.6784" cy="1751.0482" fill="#FFFFFF" rx="20" ry="20" style="stroke:#A80036;stroke-width:2.5;"/><line style="stroke:#A80036;stroke-width:2.5;" x1="2057.3143" x2="2046.0425" y1="1770.2377" y2="1731.8588"/><line style="stroke:#A80036;stroke-width:2.5;" x1="2032.4889" x2="2070.8679" y1="1756.6841" y2="1745.4123"/><!--MD5=[c22ed34f327dda29566b62244e1485af]
link GenericCardSelection to FileControlInformation--><path codeLine="122" d="M2131.7875,1732.6113 C2158.615,1795.9338 2185.7625,1860.0238 2208.6575,1914.0688 " fill="none" id="GenericCardSelection-to-FileControlInformation" style="stroke:#27AE60;stroke-width:2.5;stroke-dasharray:7.0,7.0;"/><polygon fill="#27AE60" points="2213.7775,1926.1538,2214.2111,1901.5354,2208.9027,1914.6435,2195.7946,1909.3351,2213.7775,1926.1538" style="stroke:#27AE60;stroke-width:2.5;"/><polygon fill="#000000" points="2192.3759,1841.168,2190.3207,1817.4806,2176.79,1823.2125,2192.3759,1841.168" style="stroke:#000000;stroke-width:2.5;"/><text fill="#000000" font-family="sans-serif" font-size="32.5" lengthAdjust="spacing" textLength="52.5" x="2210" y="1842.9565">use</text><!--MD5=[8f2cb7cdbb9860610692897d565cd608]
link CardTransactionManager to TransactionException--><path codeLine="124" d="M700,1635.9463 C700,1735.1263 700,1852.0038 700,1936.7513 " fill="none" id="CardTransactionManager-to-TransactionException" style="stroke:#3498DB;stroke-width:2.5;stroke-dasharray:7.0,7.0;"/><polygon fill="#3498DB" points="700,1950.0713,710,1927.5713,700,1937.5713,690,1927.5713,700,1950.0713" style="stroke:#3498DB;stroke-width:2.5;"/><polygon fill="#000000" points="712.5,1842.1582,719.8473,1819.5455,705.1527,1819.5455,712.5,1842.1582" style="stroke:#000000;stroke-width:2.5;"/><text fill="#000000" font-family="sans-serif" font-size="32.5" lengthAdjust="spacing" textLength="77.5" x="735" y="1842.9565">throw</text><!--MD5=[436e7488a83b84408028672653713d58]
@startuml
title
    Keyple 2.0 - Generic Card Extension - 2.0.0 (15/06/2021)
end title

' == THEME ==

'Couleurs issues de : https://htmlcolorcodes.com/fr/tableau-de-couleur/tableau-de-couleur-design-plat/
!define C_GREY1 F8F9F9
!define C_GREY2 F2F3F4
!define C_GREY3 E5E7E9
!define C_GREY4 D7DBDD
!define C_GREY5 CACFD2
!define C_GREY6 BDC3C7
!define C_LINK 3498DB
!define C_USE 27AE60

skinparam Shadowing false
skinparam ClassFontStyle italic
skinparam ClassBorderColor #D4AC0D
skinparam stereotypeABorderColor #A9DCDF
skinparam stereotypeIBorderColor #B4A7E5
skinparam stereotypeCBorderColor #ADD1B2
skinparam stereotypeEBorderColor #EB93DF
' Red
skinparam ClassBackgroundColor<<red>> #FDEDEC
skinparam ClassBorderColor<<red>> #E74C3C
hide <<red>> stereotype
' Purple
skinparam ClassBackgroundColor<<purple>> #F4ECF7
skinparam ClassBorderColor<<purple>> #8E44AD
hide <<purple>> stereotype
' blue
skinparam ClassBackgroundColor<<blue>> #EBF5FB
skinparam ClassBorderColor<<blue>> #3498DB
hide <<blue>> stereotype
' Green
skinparam ClassBackgroundColor<<green>> #E9F7EF
skinparam ClassBorderColor<<green>> #27AE60
hide <<green>> stereotype
' Grey
skinparam ClassBackgroundColor<<grey>> #EAECEE
skinparam ClassBorderColor<<grey>> #2C3E50
hide <<grey>> stereotype

' == CONTENT ==

legend top
    __Colors legend__ :
    * __External API references__ :
    ** <back:yellow>**calypsonet-terminal-reader-java-api**</back>
    ** <back:cyan>**keyple-common-java-api**</back>
    ** <back:orange>**keyple-service-resource-java-lib**</back>
end legend

package "org.eclipse.keyple.card.generic" as generic {
    +class "<<<back:cyan>KeypleCardExtension</back>>>\n**final** GenericExtensionService" as GenericExtensionService {
        - -
        +{static} GenericExtensionService getInstance ()

        +GenericCardSelection createCardSelection ()
        +<back:orange>CardResourceProfileExtension</back> createCardResourceProfileExtension (GenericCardSelection genericCardSelection)
        +CardTransactionManager createCardTransaction (<back:yellow>CardReader</back> reader, <back:yellow>SmartCard</back> card)

        - - **KeypleCardExtension** - -
        +String getCardApiVersion ()
        +String getReaderApiVersion ()
        +String getCommonsApiVersion ()
    }
    +interface CardTransactionManager {
        +CardTransactionManager prepareApdu (String apduCommand)
        +CardTransactionManager prepareApdu (byte[] apduCommand)
        +CardTransactionManager prepareApdu (byte cla, byte ins, byte p1, byte p2, byte[] dataIn, Byte le)

        +CardTransactionManager prepareReleaseChannel ()

        +List<byte[]> processApdusToByteArrays () throws TransactionException
        +List<String> processApdusToHexStrings () throws TransactionException
    }
    +interface "<<<back:yellow>CardSelection</back>>>\nGenericCardSelection" as GenericCardSelection {
        +GenericCardSelection filterByCardProtocol (String cardProtocol)

        +GenericCardSelection filterByPowerOnData (String powerOnDataRegex)

        +GenericCardSelection filterByDfName (byte[] aid)
        +GenericCardSelection filterByDfName (String aid)
        +GenericCardSelection setFileOccurrence (FileOccurrence fileOccurrence)
        +GenericCardSelection setFileControlInformation (FileControlInformation fileControlInformation)
        +GenericCardSelection addSuccessfulStatusWord (int statusWord)

        +GenericCardSelection prepareApdu (byte[] apdu)
        +GenericCardSelection prepareApdu (String apdu)
        +GenericCardSelection prepareApdu (byte cla, byte ins, byte p1, byte p2, byte[] dataIn, Byte le)
    }
    +enum FileOccurrence {
        FIRST
        LAST
        NEXT
        PREVIOUS
    }
    +enum FileControlInformation {
        FCI
        FCP
        FMD
        NO_RESPONSE
    }
    +class "<<RuntimeException>>\nTransactionException" as TransactionException {
        +TransactionException (String message)
        +TransactionException (String message, Throwable cause)
    }
}

' Associations

' == LAYOUT ==

GenericExtensionService ..> GenericCardSelection #C_LINK : create >
GenericExtensionService ..> CardTransactionManager #C_LINK : create >

GenericCardSelection +- - FileOccurrence
GenericCardSelection ..> FileOccurrence #C_USE : use >
GenericCardSelection +- - FileControlInformation
GenericCardSelection ..> FileControlInformation #C_USE : use >

CardTransactionManager ..> TransactionException #C_LINK : throw >

' == STYLE ==

package generic #C_GREY1 {}


@enduml

@startuml
title
    Keyple 2.0 - Generic Card Extension - 2.0.0 (15/06/2021)
end title



skinparam Shadowing false
skinparam ClassFontStyle italic
skinparam ClassBorderColor #D4AC0D
skinparam stereotypeABorderColor #A9DCDF
skinparam stereotypeIBorderColor #B4A7E5
skinparam stereotypeCBorderColor #ADD1B2
skinparam stereotypeEBorderColor #EB93DF
skinparam ClassBackgroundColor<<red>> #FDEDEC
skinparam ClassBorderColor<<red>> #E74C3C
hide <<red>> stereotype
skinparam ClassBackgroundColor<<purple>> #F4ECF7
skinparam ClassBorderColor<<purple>> #8E44AD
hide <<purple>> stereotype
skinparam ClassBackgroundColor<<blue>> #EBF5FB
skinparam ClassBorderColor<<blue>> #3498DB
hide <<blue>> stereotype
skinparam ClassBackgroundColor<<green>> #E9F7EF
skinparam ClassBorderColor<<green>> #27AE60
hide <<green>> stereotype
skinparam ClassBackgroundColor<<grey>> #EAECEE
skinparam ClassBorderColor<<grey>> #2C3E50
hide <<grey>> stereotype


legend top
    __Colors legend__ :
    * __External API references__ :
    ** <back:yellow>**calypsonet-terminal-reader-java-api**</back>
    ** <back:cyan>**keyple-common-java-api**</back>
    ** <back:orange>**keyple-service-resource-java-lib**</back>
end legend

package "org.eclipse.keyple.card.generic" as generic {
    +class "<<<back:cyan>KeypleCardExtension</back>>>\n**final** GenericExtensionService" as GenericExtensionService {
        - -
        +{static} GenericExtensionService getInstance ()

        +GenericCardSelection createCardSelection ()
        +<back:orange>CardResourceProfileExtension</back> createCardResourceProfileExtension (GenericCardSelection genericCardSelection)
        +CardTransactionManager createCardTransaction (<back:yellow>CardReader</back> reader, <back:yellow>SmartCard</back> card)

        - - **KeypleCardExtension** - -
        +String getCardApiVersion ()
        +String getReaderApiVersion ()
        +String getCommonsApiVersion ()
    }
    +interface CardTransactionManager {
        +CardTransactionManager prepareApdu (String apduCommand)
        +CardTransactionManager prepareApdu (byte[] apduCommand)
        +CardTransactionManager prepareApdu (byte cla, byte ins, byte p1, byte p2, byte[] dataIn, Byte le)

        +CardTransactionManager prepareReleaseChannel ()

        +List<byte[]> processApdusToByteArrays () throws TransactionException
        +List<String> processApdusToHexStrings () throws TransactionException
    }
    +interface "<<<back:yellow>CardSelection</back>>>\nGenericCardSelection" as GenericCardSelection {
        +GenericCardSelection filterByCardProtocol (String cardProtocol)

        +GenericCardSelection filterByPowerOnData (String powerOnDataRegex)

        +GenericCardSelection filterByDfName (byte[] aid)
        +GenericCardSelection filterByDfName (String aid)
        +GenericCardSelection setFileOccurrence (FileOccurrence fileOccurrence)
        +GenericCardSelection setFileControlInformation (FileControlInformation fileControlInformation)
        +GenericCardSelection addSuccessfulStatusWord (int statusWord)

        +GenericCardSelection prepareApdu (byte[] apdu)
        +GenericCardSelection prepareApdu (String apdu)
        +GenericCardSelection prepareApdu (byte cla, byte ins, byte p1, byte p2, byte[] dataIn, Byte le)
    }
    +enum FileOccurrence {
        FIRST
        LAST
        NEXT
        PREVIOUS
    }
    +enum FileControlInformation {
        FCI
        FCP
        FMD
        NO_RESPONSE
    }
    +class "<<RuntimeException>>\nTransactionException" as TransactionException {
        +TransactionException (String message)
        +TransactionException (String message, Throwable cause)
    }
}



GenericExtensionService ..> GenericCardSelection #3498DB : create >
GenericExtensionService ..> CardTransactionManager #3498DB : create >

GenericCardSelection +- - FileOccurrence
GenericCardSelection ..> FileOccurrence #27AE60 : use >
GenericCardSelection +- - FileControlInformation
GenericCardSelection ..> FileControlInformation #27AE60 : use >

CardTransactionManager ..> TransactionException #3498DB : throw >


package generic #F8F9F9 {}


@enduml

PlantUML version 1.2021.7(Sun May 23 14:40:07 CEST 2021)
(GPL source distribution)
Java Runtime: OpenJDK Runtime Environment
JVM: Dynamic Code Evolution 64-Bit Server VM
Default Encoding: Cp1252
Language: fr
Country: FR
--></g></svg>